<svg version="1.1" xmlns="http://www.w3.org/2000/svg" viewBox="0 0 826.8368381261826 425" width="826.8368381261826" height="425" class="excalidraw-svg"><!-- svg-source:excalidraw --><metadata></metadata><defs><style class="style-fonts">
      </style></defs><rect x="0" y="0" width="826.8368381261826" height="425" fill="#ffffff"></rect><g stroke-linecap="round"><g transform="translate(10.290856324881304 162) rotate(0 403.12756273821 -0.19327997648622386)"><path d="M-0.29 0.07 C134.13 0.29, 672.07 0.59, 806.55 0.69 M1.76 -0.93 C136.06 -1.01, 671.82 -1, 805.88 -1.07" stroke="#1e1e1e" stroke-width="2" fill="none"></path></g><g transform="translate(10.290856324881304 162) rotate(0 403.12756273821 -0.19327997648622386)"><path d="M782.39 7.48 C789.68 5.86, 797.82 3.34, 805.88 -1.07 M782.39 7.48 C790.42 4.77, 799.1 2.05, 805.88 -1.07" stroke="#1e1e1e" stroke-width="2" fill="none"></path></g><g transform="translate(10.290856324881304 162) rotate(0 403.12756273821 -0.19327997648622386)"><path d="M782.39 -9.62 C789.59 -6.06, 797.73 -3.4, 805.88 -1.07 M782.39 -9.62 C790.29 -6.27, 798.98 -2.93, 805.88 -1.07" stroke="#1e1e1e" stroke-width="2" fill="none"></path></g></g><mask></mask><g transform="translate(313.2908563248813 157) rotate(0 0 3.5)" stroke="none"><path fill="#1e1e1e" d="M 4.87,0 Q 4.87,0 4.98,1.43 5.08,2.87 5.21,5.43 5.33,8 5.19,8.85 5.06,9.70 4.65,10.46 4.25,11.23 3.62,11.82 2.99,12.41 2.21,12.78 1.42,13.14 0.56,13.23 -0.28,13.33 -1.13,13.14 -1.97,12.96 -2.71,12.51 -3.45,12.06 -4.01,11.41 -4.57,10.75 -4.89,9.94 -5.21,9.14 -5.26,8.28 -5.30,7.42 -5.07,6.58 -4.84,5.75 -4.36,5.04 -3.87,4.32 -3.18,3.80 -2.50,3.28 -1.68,3.00 -0.86,2.73 0.00,2.73 0.86,2.73 1.68,3.00 2.50,3.28 3.18,3.80 3.87,4.32 4.36,5.04 4.84,5.75 5.07,6.59 5.30,7.42 5.26,8.28 5.21,9.14 4.89,9.95 4.57,10.75 4.01,11.41 3.45,12.07 2.71,12.51 1.97,12.96 1.13,13.14 0.28,13.33 -0.57,13.23 -1.42,13.14 -2.21,12.78 -2.99,12.41 -3.62,11.82 -4.25,11.23 -4.65,10.46 -5.06,9.70 -5.20,8.85 -5.33,7.99 -5.33,7.99 -5.33,8 -5.21,5.43 -5.08,2.87 -4.98,1.43 -4.87,0 -4.80,-0.58 -4.73,-1.16 -4.52,-1.71 -4.31,-2.26 -3.98,-2.75 -3.65,-3.23 -3.21,-3.62 -2.77,-4.01 -2.24,-4.28 -1.72,-4.55 -1.15,-4.70 -0.58,-4.84 0.00,-4.84 0.58,-4.84 1.15,-4.70 1.72,-4.55 2.24,-4.28 2.77,-4.01 3.21,-3.62 3.65,-3.23 3.98,-2.74 4.31,-2.26 4.52,-1.71 4.73,-1.16 4.80,-0.58 4.87,0.00 4.87,0.00 L 4.87,0 Z"></path></g><g transform="translate(301.2908563248813 66) rotate(0 2 8)" stroke="none"><path fill="#1e1e1e" d="M 2.15,-0.43 Q 2.15,-0.43 2.61,2.46 3.07,5.36 3.77,7.63 4.48,9.90 5.20,12.78 5.92,15.65 5.93,15.97 5.93,16.29 5.83,16.59 5.74,16.89 5.55,17.15 5.36,17.40 5.10,17.58 4.84,17.76 4.53,17.85 4.23,17.94 3.91,17.93 3.60,17.91 3.30,17.80 3.01,17.69 2.76,17.48 2.52,17.28 2.35,17.01 2.18,16.74 2.11,16.43 2.04,16.12 2.07,15.81 2.10,15.49 2.23,15.20 2.36,14.92 2.58,14.68 2.79,14.45 3.07,14.30 3.35,14.15 3.66,14.09 3.97,14.04 4.28,14.08 4.60,14.13 4.88,14.28 5.16,14.42 5.38,14.65 5.60,14.88 5.74,15.16 5.88,15.45 5.91,15.76 5.95,16.08 5.89,16.39 5.82,16.70 5.66,16.97 5.50,17.24 5.26,17.45 5.02,17.66 4.73,17.78 4.44,17.90 4.12,17.92 3.81,17.94 3.50,17.86 3.19,17.78 2.93,17.61 2.67,17.43 2.47,17.18 2.28,16.93 2.17,16.63 2.07,16.33 2.07,16.34 2.07,16.34 1.58,13.70 1.09,11.07 0.16,8.60 -0.77,6.13 -1.46,3.28 -2.15,0.43 -2.17,0.16 -2.19,-0.09 -2.15,-0.35 -2.10,-0.61 -2.00,-0.86 -1.89,-1.10 -1.73,-1.31 -1.57,-1.52 -1.37,-1.69 -1.16,-1.86 -0.92,-1.97 -0.68,-2.08 -0.42,-2.13 -0.16,-2.19 0.09,-2.17 0.36,-2.16 0.61,-2.09 0.86,-2.01 1.09,-1.88 1.32,-1.75 1.51,-1.56 1.70,-1.38 1.84,-1.15 1.98,-0.93 2.07,-0.68 2.15,-0.43 2.15,-0.43 L 2.15,-0.43 Z"></path></g><g transform="translate(283.2908563248813 93) rotate(0 22 1.5)" stroke="none"><path fill="#1e1e1e" d="M 0,-2.19 Q 0,-2.19 2.01,-2.10 4.02,-2.02 5.74,-2.02 7.46,-2.02 9.48,-1.68 11.51,-1.34 13.37,-1.19 15.23,-1.04 17.17,-0.95 19.12,-0.86 20.81,-0.87 22.50,-0.87 24.51,-1.02 26.52,-1.18 28.33,-0.89 30.15,-0.61 32.06,-0.50 33.97,-0.38 35.20,-0.16 36.42,0.06 40.23,0.10 44.03,0.14 44.48,0.22 44.94,0.30 45.34,0.52 45.75,0.74 46.06,1.08 46.38,1.42 46.57,1.84 46.76,2.26 46.80,2.72 46.85,3.18 46.74,3.63 46.64,4.08 46.40,4.48 46.15,4.87 45.80,5.17 45.44,5.46 45.01,5.63 44.58,5.79 44.12,5.81 43.65,5.83 43.21,5.70 42.77,5.58 42.39,5.31 42.01,5.05 41.73,4.68 41.45,4.30 41.31,3.86 41.17,3.42 41.17,2.96 41.18,2.50 41.33,2.06 41.49,1.63 41.77,1.26 42.05,0.90 42.44,0.64 42.82,0.39 43.27,0.27 43.72,0.15 44.18,0.18 44.64,0.21 45.07,0.39 45.50,0.56 45.85,0.87 46.19,1.17 46.43,1.57 46.66,1.97 46.76,2.42 46.85,2.87 46.80,3.33 46.74,3.79 46.54,4.21 46.34,4.63 46.02,4.96 45.70,5.29 45.29,5.50 44.88,5.71 44.42,5.78 43.96,5.85 43.96,5.85 43.96,5.85 41.09,5.78 38.22,5.70 37.05,5.63 35.87,5.56 33.14,4.94 30.40,4.32 28.45,3.74 26.50,3.16 24.48,2.99 22.45,2.81 20.74,2.76 19.02,2.71 17.01,2.69 15.00,2.67 12.96,2.58 10.92,2.49 9.19,2.25 7.45,2.02 5.74,2.02 4.02,2.02 2.01,2.10 0,2.19 -0.26,2.16 -0.52,2.12 -0.77,2.03 -1.01,1.94 -1.23,1.79 -1.45,1.64 -1.62,1.44 -1.80,1.24 -1.92,1.01 -2.05,0.77 -2.11,0.52 -2.17,0.26 -2.17,-0.00 -2.17,-0.26 -2.11,-0.52 -2.05,-0.77 -1.92,-1.01 -1.80,-1.24 -1.62,-1.44 -1.45,-1.64 -1.23,-1.79 -1.01,-1.94 -0.77,-2.03 -0.52,-2.12 -0.26,-2.16 0.00,-2.19 0.00,-2.19 L 0,-2.19 Z"></path></g><g transform="translate(294.2908563248813 109) rotate(0 12.5 12)" stroke="none"><path fill="#1e1e1e" d="M 0,-2.54 Q 0,-2.54 1.15,-2.56 2.3,-2.59 3.93,-2.55 5.57,-2.50 7.13,-2.48 8.69,-2.45 9.93,-2.48 11.17,-2.50 12.74,-2.55 14.32,-2.60 15.81,-1.86 17.29,-1.11 18.58,-0.60 19.86,-0.09 21.38,0.11 22.89,0.31 23.95,1.13 25.01,1.94 25.34,4.22 25.67,6.50 25.40,8.10 25.13,9.70 24.99,11.01 24.85,12.33 23.30,14.56 21.75,16.80 20.15,18.25 18.55,19.70 17.13,20.48 15.71,21.27 14.27,22.14 12.82,23.02 10.14,24.12 7.45,25.21 5.96,25.58 4.47,25.95 3.64,26.13 2.81,26.30 2.50,26.33 2.19,26.36 1.89,26.32 1.58,26.28 1.30,26.16 1.01,26.05 0.76,25.87 0.51,25.69 0.31,25.46 0.11,25.22 -0.02,24.95 -0.15,24.67 -0.22,24.37 -0.29,24.07 -0.29,23.76 -0.28,23.45 -0.20,23.16 -0.12,22.86 0.02,22.59 0.17,22.32 0.37,22.09 0.58,21.86 0.84,21.69 1.10,21.52 1.39,21.42 1.68,21.32 3.16,21.34 4.65,21.37 5.89,21.37 7.14,21.37 8.82,21.43 10.50,21.49 12.08,21.52 13.66,21.54 15.19,21.56 16.73,21.57 18.24,21.58 19.76,21.59 22.38,21.49 25.00,21.39 25.41,21.46 25.83,21.53 26.20,21.72 26.57,21.92 26.86,22.23 27.15,22.53 27.33,22.92 27.51,23.30 27.55,23.72 27.60,24.14 27.51,24.55 27.42,24.96 27.20,25.32 26.98,25.68 26.66,25.95 26.34,26.23 25.95,26.38 25.55,26.54 25.13,26.56 24.71,26.58 24.31,26.47 23.90,26.36 23.55,26.12 23.20,25.89 22.95,25.55 22.69,25.21 22.56,24.82 22.42,24.42 22.42,23.99 22.42,23.57 22.56,23.17 22.69,22.77 22.95,22.44 23.20,22.10 23.55,21.87 23.90,21.63 24.31,21.52 24.71,21.40 25.13,21.43 25.56,21.45 25.95,21.61 26.34,21.76 26.66,22.04 26.98,22.31 27.20,22.67 27.42,23.03 27.51,23.44 27.60,23.85 27.55,24.27 27.51,24.69 27.33,25.08 27.15,25.46 26.86,25.76 26.57,26.07 26.20,26.27 25.83,26.46 25.41,26.53 24.99,26.60 24.99,26.60 24.99,26.60 22.38,26.50 19.76,26.40 18.24,26.41 16.73,26.42 15.19,26.43 13.66,26.44 12.07,26.47 10.49,26.49 8.80,26.54 7.10,26.60 4.95,26.45 2.81,26.30 2.50,26.33 2.19,26.36 1.89,26.32 1.58,26.28 1.30,26.16 1.01,26.05 0.76,25.87 0.51,25.69 0.31,25.46 0.11,25.22 -0.02,24.95 -0.15,24.67 -0.22,24.37 -0.29,24.07 -0.29,23.76 -0.28,23.45 -0.20,23.16 -0.12,22.86 0.02,22.59 0.17,22.32 0.37,22.09 0.58,21.86 0.84,21.69 1.10,21.52 1.39,21.42 1.68,21.32 2.53,21.24 3.39,21.16 4.51,20.94 5.64,20.72 7.74,19.84 9.84,18.97 11.12,18.15 12.39,17.33 13.94,16.87 15.49,16.41 16.63,15.23 17.77,14.05 18.61,12.80 19.44,11.55 19.51,10.09 19.57,8.63 20.43,7.09 21.28,5.56 20.02,5.49 18.77,5.42 17.08,4.93 15.40,4.44 14.60,3.52 13.80,2.60 12.48,2.55 11.17,2.50 9.93,2.48 8.69,2.45 7.13,2.48 5.57,2.50 3.93,2.55 2.3,2.59 1.15,2.56 0,2.54 -0.30,2.50 -0.60,2.46 -0.89,2.36 -1.18,2.25 -1.43,2.07 -1.68,1.90 -1.88,1.67 -2.09,1.44 -2.23,1.17 -2.37,0.90 -2.45,0.60 -2.52,0.30 -2.52,-0.00 -2.52,-0.30 -2.45,-0.60 -2.37,-0.90 -2.23,-1.17 -2.09,-1.44 -1.88,-1.67 -1.68,-1.90 -1.43,-2.07 -1.18,-2.25 -0.89,-2.36 -0.60,-2.46 -0.30,-2.50 0.00,-2.54 0.00,-2.54 L 0,-2.54 Z"></path></g><g transform="translate(582.2908563248814 155) rotate(0 0 8)" stroke="none"><path fill="#1e1e1e" d="M 2.48,0 Q 2.48,0 2.43,1.72 2.38,3.44 2.40,4.75 2.43,6.06 2.38,7.77 2.34,9.47 2.44,11.20 2.55,12.93 2.59,14.46 2.62,16 2.55,16.41 2.49,16.83 2.29,17.21 2.09,17.59 1.78,17.88 1.47,18.17 1.08,18.35 0.70,18.53 0.28,18.57 -0.14,18.62 -0.55,18.53 -0.97,18.44 -1.33,18.22 -1.70,18.00 -1.97,17.67 -2.25,17.35 -2.40,16.95 -2.56,16.56 -2.58,16.14 -2.61,15.71 -2.49,15.30 -2.38,14.89 -2.14,14.54 -1.90,14.19 -1.56,13.93 -1.23,13.67 -0.82,13.54 -0.42,13.40 0.00,13.40 0.42,13.40 0.82,13.54 1.23,13.67 1.57,13.93 1.90,14.19 2.14,14.54 2.38,14.89 2.49,15.30 2.61,15.71 2.58,16.14 2.56,16.56 2.40,16.96 2.25,17.35 1.97,17.67 1.70,18.00 1.33,18.22 0.97,18.44 0.55,18.53 0.14,18.62 -0.28,18.57 -0.70,18.53 -1.08,18.35 -1.47,18.17 -1.78,17.88 -2.09,17.59 -2.29,17.21 -2.49,16.83 -2.55,16.41 -2.62,15.99 -2.62,15.99 -2.62,16 -2.59,14.46 -2.55,12.93 -2.44,11.20 -2.34,9.47 -2.38,7.77 -2.43,6.06 -2.40,4.75 -2.38,3.44 -2.43,1.72 -2.48,0 -2.45,-0.29 -2.41,-0.59 -2.30,-0.87 -2.20,-1.15 -2.03,-1.40 -1.86,-1.64 -1.63,-1.84 -1.41,-2.04 -1.14,-2.18 -0.88,-2.32 -0.59,-2.39 -0.29,-2.46 0.00,-2.46 0.29,-2.46 0.59,-2.39 0.88,-2.32 1.14,-2.18 1.41,-2.04 1.63,-1.84 1.86,-1.64 2.03,-1.40 2.20,-1.15 2.30,-0.87 2.41,-0.59 2.45,-0.29 2.48,0.00 2.48,0.00 L 2.48,0 Z"></path></g><g transform="translate(578.2908563248814 203) rotate(0 15.5 18)" stroke="none"><path fill="#1e1e1e" d="M -1.82,-1.09 Q -1.82,-1.09 -0.95,-2.53 -0.08,-3.96 1.27,-5.53 2.63,-7.11 4.11,-8.59 5.58,-10.08 6.57,-10.91 7.57,-11.74 9.17,-12.23 10.76,-12.71 12.26,-12.60 13.75,-12.50 15.41,-11.75 17.07,-11.00 18.50,-9.65 19.92,-8.29 21.25,-6.50 22.57,-4.70 23.52,-3.35 24.47,-2.01 25.01,-0.31 25.54,1.38 25.71,3.31 25.87,5.24 25.59,7.35 25.31,9.47 24.18,11.69 23.04,13.92 21.04,16.31 19.03,18.71 17.32,20.53 15.61,22.36 13.66,24.03 11.72,25.71 10.24,26.59 8.76,27.47 7.12,27.91 5.49,28.35 3.51,28.71 1.53,29.08 0.84,29.17 0.15,29.26 -0.12,29.24 -0.39,29.22 -0.66,29.14 -0.92,29.05 -1.16,28.91 -1.39,28.76 -1.59,28.57 -1.78,28.37 -1.93,28.13 -2.07,27.90 -2.15,27.63 -2.23,27.37 -2.25,27.09 -2.26,26.81 -2.21,26.54 -2.16,26.27 -2.04,26.02 -1.93,25.76 -1.76,25.55 -1.59,25.33 -1.37,25.16 -1.15,24.99 -0.90,24.88 -0.64,24.76 -0.37,24.71 -0.10,24.67 0.56,23.36 1.23,22.06 3.28,21.73 5.32,21.40 7.54,21.55 9.76,21.71 13.36,22.12 16.96,22.53 19.67,23.05 22.37,23.56 24.67,24.10 26.97,24.64 28.35,24.83 29.74,25.02 30.78,25.88 31.82,26.74 32.52,28.08 33.22,29.42 33.57,30.69 33.92,31.96 34.19,33.77 34.45,35.57 33.60,37.81 32.74,40.06 31.48,41.00 30.22,41.94 28.13,43.06 26.04,44.18 23.20,44.98 20.37,45.78 18.18,46.57 16.00,47.36 14.71,47.85 13.42,48.34 11.48,48.76 9.53,49.19 6.77,49.34 4.01,49.50 3.61,49.43 3.21,49.37 2.85,49.18 2.49,48.99 2.21,48.70 1.93,48.41 1.76,48.04 1.59,47.67 1.54,47.27 1.50,46.87 1.58,46.47 1.67,46.08 1.87,45.73 2.08,45.38 2.39,45.12 2.70,44.86 3.07,44.71 3.45,44.55 3.85,44.53 4.25,44.51 4.65,44.61 5.04,44.72 5.37,44.95 5.71,45.17 5.95,45.49 6.20,45.81 6.33,46.20 6.46,46.58 6.46,46.98 6.47,47.39 6.34,47.77 6.21,48.16 5.97,48.48 5.72,48.80 5.39,49.03 5.06,49.26 4.67,49.37 4.28,49.48 3.87,49.46 3.47,49.44 3.09,49.29 2.71,49.14 2.40,48.88 2.10,48.62 1.88,48.28 1.67,47.93 1.59,47.54 1.50,47.14 1.54,46.74 1.58,46.34 1.75,45.97 1.92,45.60 2.20,45.30 2.47,45.01 2.83,44.82 3.19,44.63 3.59,44.56 3.98,44.49 3.98,44.49 3.98,44.49 6.58,44.55 9.18,44.60 10.70,44.55 12.22,44.50 13.40,44.21 14.58,43.92 16.85,42.88 19.12,41.84 21.35,41.04 23.58,40.23 25.31,38.93 27.04,37.64 28.31,37.06 29.59,36.49 29.52,35.35 29.46,34.20 29.35,32.70 29.25,31.19 28.90,29.79 28.55,28.39 27.42,28.19 26.30,27.99 24.05,27.61 21.81,27.23 19.22,26.93 16.64,26.63 13.21,26.48 9.79,26.34 7.65,26.52 5.52,26.71 4.08,26.78 2.63,26.86 1.39,28.06 0.15,29.26 -0.12,29.24 -0.39,29.22 -0.66,29.14 -0.92,29.05 -1.16,28.91 -1.39,28.76 -1.59,28.57 -1.78,28.37 -1.93,28.13 -2.07,27.90 -2.15,27.63 -2.23,27.37 -2.25,27.09 -2.26,26.81 -2.21,26.54 -2.16,26.27 -2.04,26.02 -1.93,25.76 -1.76,25.55 -1.59,25.33 -1.37,25.16 -1.15,24.99 -0.90,24.88 -0.64,24.76 -0.37,24.72 -0.10,24.67 0.59,24.71 1.29,24.76 3.02,24.76 4.76,24.77 6.01,24.62 7.26,24.46 8.50,23.95 9.74,23.43 11.49,21.83 13.25,20.23 14.83,18.40 16.41,16.58 18.09,14.44 19.77,12.29 20.55,10.61 21.33,8.93 21.50,7.26 21.66,5.59 21.51,4.03 21.37,2.46 21.17,1.36 20.98,0.25 20.21,-0.93 19.44,-2.12 18.07,-3.59 16.70,-5.06 15.84,-5.99 14.99,-6.91 13.28,-7.70 11.58,-8.48 9.95,-8.00 8.31,-7.51 7.02,-6.02 5.72,-4.53 4.63,-3.15 3.53,-1.78 2.68,-0.34 1.82,1.09 1.66,1.29 1.50,1.49 1.30,1.65 1.10,1.81 0.87,1.92 0.63,2.02 0.38,2.07 0.13,2.12 -0.12,2.10 -0.37,2.09 -0.62,2.01 -0.86,1.94 -1.08,1.81 -1.30,1.67 -1.48,1.49 -1.67,1.31 -1.80,1.09 -1.93,0.87 -2.01,0.63 -2.09,0.39 -2.10,0.13 -2.12,-0.12 -2.07,-0.37 -2.03,-0.62 -1.92,-0.86 -1.82,-1.09 -1.82,-1.09 L -1.82,-1.09 Z"></path></g><g transform="translate(130.2908563248813 16) rotate(0 324 131)" stroke="none"><path fill="#1e1e1e" d="M 1.45,-0.58 Q 1.45,-0.58 2.56,2.30 3.68,5.19 4.75,9.68 5.83,14.17 7.12,19.78 8.42,25.39 10.11,31.19 11.80,36.99 13.66,42.61 15.52,48.23 17.74,54.35 19.96,60.46 21.77,65.67 23.58,70.87 25.21,75.68 26.84,80.48 28.67,85.07 30.50,89.67 32.14,93.64 33.78,97.61 35.07,101.05 36.35,104.48 37.74,107.63 39.13,110.77 40.04,113.93 40.95,117.09 41.91,120.71 42.86,124.33 44.12,128.72 45.39,133.12 47.63,138.96 49.88,144.80 52.54,150.43 55.21,156.05 59.17,161.52 63.12,166.99 66.89,174.03 70.66,181.08 73.40,186.64 76.14,192.21 78.73,197.14 81.32,202.07 83.85,206.45 86.38,210.83 89.17,215.27 91.96,219.70 94.85,223.57 97.73,227.43 101.22,231.04 104.71,234.65 108.18,237.61 111.65,240.56 115.42,243.55 119.20,246.53 122.81,249.23 126.42,251.93 130.44,253.88 134.47,255.84 137.06,256.97 139.65,258.10 141.93,259.17 144.21,260.24 145.78,260.90 147.36,261.57 149.33,262.15 151.30,262.73 153.59,263.28 155.88,263.83 158.29,264.36 160.70,264.88 162.53,265.05 164.36,265.22 166.38,265.60 168.39,265.98 170.57,266.15 172.74,266.32 175.11,266.41 177.49,266.49 179.64,266.53 181.80,266.57 183.30,266.49 184.79,266.40 186.00,266.30 187.21,266.20 188.30,266.11 189.39,266.02 190.69,265.64 191.98,265.26 193.40,264.72 194.82,264.17 196.00,263.92 197.18,263.67 199.17,262.60 201.16,261.53 202.29,260.87 203.43,260.21 204.48,259.62 205.54,259.04 207.51,258.54 209.48,258.04 210.41,257.43 211.34,256.83 212.22,256.07 213.09,255.31 216.13,252.93 219.18,250.56 221.08,249.32 222.99,248.09 224.22,246.86 225.45,245.63 226.95,244.20 228.46,242.78 229.95,241.12 231.43,239.46 233.62,237.52 235.81,235.58 238.18,233.63 240.55,231.69 242.97,229.47 245.39,227.25 247.54,224.91 249.70,222.57 251.84,220.65 253.98,218.73 256.89,216.21 259.80,213.68 262.14,211.22 264.48,208.77 266.63,206.29 268.78,203.81 270.55,201.62 272.32,199.43 274.23,197.05 276.14,194.68 277.83,192.78 279.53,190.88 281.06,188.71 282.59,186.53 284.15,184.68 285.72,182.83 286.57,181.04 287.42,179.25 288.40,177.29 289.37,175.32 289.64,173.98 289.91,172.65 290.30,171.15 290.69,169.64 291.52,167.30 292.34,164.96 293.88,161.61 295.43,158.25 296.66,155.70 297.89,153.14 298.98,150.39 300.06,147.63 301.15,145.76 302.23,143.89 303.25,142.02 304.26,140.15 305.26,137.95 306.25,135.75 307.27,133.64 308.29,131.52 309.60,129.16 310.91,126.79 312.32,124.09 313.72,121.40 314.58,119.16 315.44,116.92 317.30,113.56 319.15,110.20 320.48,107.41 321.81,104.61 323.55,101.37 325.29,98.13 327.17,94.74 329.06,91.35 330.75,88.73 332.43,86.11 333.68,83.63 334.93,81.15 336.06,79.18 337.20,77.21 338.24,75.25 339.28,73.30 341.18,70.13 343.08,66.96 344.16,65.29 345.23,63.62 346.85,61.21 348.47,58.80 349.03,57.51 349.58,56.21 350.43,54.71 351.27,53.21 351.89,52.20 352.50,51.19 353.36,50.12 354.22,49.05 355.08,47.84 355.94,46.63 356.94,45.43 357.94,44.23 358.52,43.27 359.10,42.30 359.60,41.32 360.10,40.34 361.53,38.47 362.95,36.61 363.81,35.47 364.66,34.34 365.81,33.31 366.95,32.28 368.21,31.16 369.46,30.05 370.16,29.09 370.85,28.12 371.96,27.15 373.06,26.17 374.39,25.24 375.71,24.32 377.38,22.99 379.05,21.66 381.31,19.92 383.57,18.17 385.44,16.87 387.30,15.56 388.91,14.22 390.51,12.88 392.11,11.66 393.71,10.44 395.24,9.33 396.78,8.23 397.63,7.43 398.47,6.63 400.24,5.87 402.01,5.10 404.04,4.10 406.07,3.10 408.15,2.10 410.23,1.09 412.01,0.32 413.79,-0.44 415.66,-1.28 417.54,-2.12 419.01,-2.63 420.49,-3.14 421.54,-3.64 422.58,-4.14 423.95,-4.67 425.31,-5.21 427.69,-6.28 430.07,-7.35 432.20,-7.81 434.34,-8.28 436.86,-8.18 439.38,-8.08 440.99,-8.10 442.60,-8.12 444.44,-8.09 446.28,-8.06 448.21,-8.01 450.14,-7.97 451.25,-8.04 452.36,-8.12 453.79,-8.23 455.22,-8.35 456.27,-7.99 457.33,-7.63 458.43,-7.68 459.52,-7.72 460.59,-7.30 461.66,-6.87 462.87,-6.00 464.09,-5.14 465.08,-4.58 466.07,-4.02 467.49,-3.10 468.91,-2.17 469.97,-1.64 471.04,-1.12 473.45,0.09 475.87,1.30 476.89,2.11 477.91,2.92 479.39,3.91 480.87,4.90 481.91,5.68 482.96,6.45 483.82,7.13 484.69,7.80 485.85,8.32 487.01,8.85 488.60,9.92 490.19,10.99 491.90,12.26 493.61,13.53 496.18,16.04 498.74,18.56 499.96,20.00 501.17,21.44 501.95,22.23 502.73,23.03 503.90,24.67 505.08,26.31 505.87,27.18 506.66,28.05 507.57,28.99 508.47,29.93 509.13,31.27 509.78,32.61 510.43,34.12 511.09,35.64 511.86,36.70 512.63,37.76 513.57,39.19 514.51,40.62 515.26,41.84 516.01,43.05 516.80,43.98 517.59,44.90 518.38,46.44 519.18,47.97 520.32,49.66 521.45,51.35 522.20,52.56 522.96,53.77 523.82,55.18 524.69,56.59 525.43,58.21 526.17,59.83 527.72,62.72 529.26,65.60 530.22,67.10 531.18,68.59 532.84,70.30 534.51,72.00 535.87,73.36 537.23,74.72 538.16,75.52 539.09,76.32 540.25,77.15 541.40,77.98 542.64,78.54 543.87,79.11 545.59,80.02 547.31,80.94 548.64,81.56 549.97,82.18 551.33,82.69 552.68,83.19 554.55,84.46 556.43,85.73 558.14,86.46 559.86,87.19 561.74,87.83 563.61,88.46 565.32,88.98 567.03,89.51 568.41,89.98 569.79,90.46 571.19,90.91 572.59,91.37 575.91,93.47 579.22,95.57 581.86,96.68 584.49,97.79 586.59,98.91 588.69,100.04 589.96,100.73 591.22,101.42 592.49,101.90 593.76,102.38 595.12,103.26 596.47,104.14 598.00,105.04 599.53,105.93 601.00,106.56 602.48,107.19 603.96,107.73 605.45,108.26 606.53,108.40 607.61,108.54 609.67,109.35 611.74,110.15 612.80,110.35 613.86,110.54 615.72,111.00 617.58,111.46 619.08,111.90 620.59,112.35 622.12,112.51 623.65,112.68 626.18,112.71 628.70,112.75 629.94,112.71 631.18,112.68 632.62,112.58 634.07,112.47 636.53,113.17 639.00,113.87 640.47,113.97 641.94,114.06 643.07,114.03 644.21,114.00 646.11,113.98 648.00,113.97 648.48,114.05 648.97,114.13 649.40,114.36 649.83,114.59 650.17,114.94 650.50,115.30 650.71,115.74 650.91,116.19 650.97,116.68 651.02,117.16 650.91,117.64 650.81,118.12 650.55,118.54 650.30,118.96 649.93,119.28 649.55,119.59 649.10,119.77 648.64,119.95 648.15,119.98 647.66,120.01 647.19,119.87 646.72,119.74 646.31,119.47 645.91,119.19 645.61,118.80 645.32,118.41 645.16,117.95 645.00,117.48 645.01,116.99 645.01,116.50 645.16,116.04 645.32,115.57 645.62,115.18 645.91,114.79 646.32,114.52 646.73,114.24 647.20,114.11 647.67,113.98 648.16,114.01 648.65,114.04 649.11,114.22 649.56,114.40 649.93,114.72 650.31,115.04 650.56,115.46 650.81,115.88 650.92,116.36 651.02,116.84 650.97,117.32 650.91,117.81 650.71,118.25 650.50,118.70 650.16,119.05 649.82,119.41 649.39,119.64 648.96,119.87 648.47,119.95 647.99,120.02 647.99,120.02 647.99,120.02 645.48,119.96 642.97,119.90 641.31,119.75 639.65,119.61 637.94,119.01 636.23,118.41 635.14,117.96 634.05,117.51 632.58,117.39 631.12,117.26 629.86,117.20 628.60,117.14 626.95,117.10 625.30,117.05 624.25,116.89 623.19,116.73 621.25,116.50 619.30,116.27 618.03,115.80 616.75,115.32 614.78,114.96 612.82,114.60 611.64,114.21 610.46,113.83 608.61,113.28 606.76,112.72 605.40,112.37 604.03,112.02 602.47,111.40 600.90,110.79 599.26,110.05 597.62,109.31 595.87,108.36 594.12,107.40 593.17,106.62 592.22,105.84 590.78,105.12 589.34,104.41 588.29,103.63 587.25,102.85 585.24,101.88 583.24,100.91 580.29,99.80 577.34,98.68 574.28,96.90 571.22,95.12 569.80,94.56 568.37,94.00 567.16,93.43 565.95,92.87 564.27,92.30 562.59,91.73 560.56,91.15 558.52,90.56 556.45,89.78 554.38,89.00 552.74,88.06 551.11,87.12 549.62,86.50 548.13,85.87 546.84,85.18 545.54,84.48 543.78,83.67 542.02,82.85 540.48,82.04 538.94,81.23 537.63,80.18 536.33,79.14 535.52,78.22 534.71,77.31 533.33,75.99 531.95,74.67 529.87,72.77 527.79,70.88 526.71,69.32 525.63,67.76 523.72,64.80 521.82,61.85 521.21,60.56 520.60,59.26 519.63,57.88 518.67,56.49 517.37,54.31 516.08,52.13 515.47,51.13 514.87,50.13 514.35,49.02 513.83,47.92 512.88,46.70 511.93,45.49 511.30,44.37 510.66,43.26 509.70,41.91 508.73,40.56 507.72,39.13 506.72,37.71 505.77,35.45 504.82,33.19 503.90,32.20 502.98,31.20 502.19,30.22 501.39,29.23 500.19,27.87 498.98,26.50 498.21,25.63 497.44,24.76 496.37,23.63 495.30,22.50 491.76,19.71 488.22,16.92 486.84,15.93 485.45,14.93 484.30,14.30 483.14,13.68 481.40,12.43 479.65,11.19 477.90,9.92 476.15,8.65 474.76,7.54 473.36,6.43 471.78,5.82 470.21,5.20 468.63,4.39 467.05,3.58 465.64,2.73 464.23,1.88 463.23,1.26 462.23,0.63 461.15,-0.55 460.06,-1.74 459.02,-2.08 457.97,-2.42 456.47,-3.03 454.97,-3.64 453.66,-3.75 452.36,-3.87 451.25,-3.94 450.15,-4.02 448.22,-3.96 446.29,-3.91 444.47,-3.86 442.64,-3.82 441.04,-3.81 439.44,-3.80 437.11,-3.62 434.78,-3.44 433.11,-3.31 431.43,-3.18 430.11,-2.77 428.79,-2.37 427.73,-1.87 426.67,-1.37 425.33,-0.95 423.98,-0.53 422.70,-0.13 421.43,0.25 420.15,0.50 418.88,0.75 416.98,1.68 415.09,2.61 413.41,3.31 411.73,4.00 409.73,5.10 407.73,6.20 405.57,7.44 403.41,8.67 402.08,9.12 400.76,9.57 399.73,10.26 398.71,10.95 397.21,12.00 395.70,13.05 394.20,14.20 392.69,15.34 391.06,16.87 389.43,18.39 387.74,19.76 386.05,21.14 384.00,23.00 381.96,24.85 380.26,26.58 378.56,28.31 376.62,29.70 374.69,31.08 373.73,32.30 372.76,33.51 370.69,35.41 368.62,37.31 367.64,38.65 366.67,39.99 365.41,41.33 364.16,42.67 363.49,43.73 362.82,44.79 362.00,45.92 361.17,47.05 360.22,48.08 359.28,49.11 358.26,50.43 357.25,51.76 355.70,53.37 354.16,54.98 353.27,56.32 352.38,57.67 351.57,59.00 350.75,60.32 349.15,62.75 347.54,65.17 346.44,66.74 345.34,68.31 343.47,71.42 341.60,74.53 340.54,76.53 339.48,78.52 338.38,80.43 337.27,82.34 335.96,84.93 334.65,87.53 333.01,90.08 331.36,92.63 329.49,96.00 327.61,99.37 325.91,102.56 324.20,105.75 322.84,108.62 321.47,111.48 319.70,114.68 317.92,117.88 317.01,120.25 316.10,122.62 314.68,125.36 313.27,128.09 312.00,130.39 310.74,132.69 309.75,134.78 308.76,136.88 307.74,139.17 306.73,141.46 305.71,143.40 304.69,145.33 303.70,147.00 302.71,148.66 301.63,151.53 300.54,154.39 299.37,156.94 298.19,159.49 296.78,162.73 295.37,165.96 294.65,168.32 293.93,170.67 293.39,172.09 292.86,173.51 292.30,175.00 291.74,176.48 290.77,178.45 289.79,180.41 288.77,182.47 287.75,184.52 286.25,186.29 284.75,188.06 283.13,190.35 281.51,192.65 279.86,194.50 278.22,196.35 276.31,198.73 274.41,201.11 272.62,203.35 270.82,205.58 268.65,208.11 266.47,210.65 264.05,213.21 261.63,215.77 258.75,218.30 255.88,220.83 253.86,222.68 251.85,224.52 249.65,226.99 247.45,229.45 245.02,231.77 242.60,234.10 240.34,236.07 238.09,238.04 236.15,239.91 234.22,241.77 232.77,243.66 231.33,245.55 229.99,247.07 228.65,248.58 227.25,250.20 225.85,251.82 224.27,253.24 222.69,254.67 220.83,256.54 218.97,258.41 217.43,259.83 215.89,261.24 214.19,262.24 212.48,263.25 210.68,263.64 208.88,264.03 207.71,264.56 206.55,265.09 205.62,265.64 204.69,266.18 203.55,266.59 202.40,267.01 201.30,267.45 200.19,267.89 198.41,268.35 196.63,268.82 195.00,269.20 193.36,269.58 191.37,269.77 189.38,269.96 188.29,269.87 187.20,269.77 185.98,269.67 184.77,269.56 183.27,269.44 181.77,269.33 179.59,269.31 177.40,269.29 174.97,269.24 172.54,269.19 170.18,269.04 167.82,268.89 165.93,268.50 164.03,268.12 162.07,267.85 160.12,267.58 157.68,267.07 155.24,266.56 152.87,266.02 150.51,265.48 148.30,264.86 146.09,264.24 144.59,263.43 143.09,262.62 140.85,261.56 138.60,260.51 135.96,259.35 133.32,258.20 129.08,256.12 124.85,254.04 121.21,251.32 117.57,248.59 113.76,245.58 109.94,242.56 106.38,239.52 102.82,236.48 99.22,232.74 95.63,229.01 92.68,225.05 89.74,221.10 86.92,216.62 84.10,212.14 81.55,207.72 78.99,203.29 76.39,198.33 73.78,193.37 71.06,187.84 68.34,182.31 64.66,175.42 60.99,168.53 56.91,162.85 52.84,157.18 50.13,151.46 47.42,145.75 45.14,139.79 42.86,133.84 41.59,129.42 40.32,125.00 39.37,121.41 38.42,117.81 37.57,114.82 36.71,111.83 35.29,108.62 33.87,105.41 32.61,102.01 31.34,98.62 29.69,94.63 28.04,90.65 26.18,85.99 24.32,81.34 22.69,76.55 21.05,71.76 19.24,66.57 17.42,61.39 15.18,55.24 12.93,49.09 11.03,43.43 9.14,37.77 7.41,31.90 5.68,26.04 4.35,20.45 3.02,14.85 1.96,10.58 0.91,6.30 -0.26,3.44 -1.45,0.58 -1.49,0.39 -1.54,0.21 -1.55,0.02 -1.55,-0.16 -1.51,-0.34 -1.47,-0.52 -1.38,-0.69 -1.30,-0.86 -1.17,-1.00 -1.05,-1.15 -0.90,-1.26 -0.75,-1.36 -0.57,-1.43 -0.40,-1.50 -0.21,-1.53 -0.02,-1.56 0.15,-1.54 0.34,-1.52 0.52,-1.45 0.70,-1.39 0.85,-1.29 1.01,-1.18 1.14,-1.04 1.26,-0.91 1.36,-0.74 1.45,-0.58 1.45,-0.58 L 1.45,-0.58 Z"></path></g><g transform="translate(583.2908563248814 413) rotate(0 0 1)" stroke="none"><path fill="#1e1e1e" d="M 2.28,0 Q 2.28,0 2.33,1 2.39,2 2.33,2.38 2.26,2.76 2.08,3.10 1.90,3.44 1.62,3.71 1.34,3.98 0.99,4.14 0.64,4.30 0.25,4.34 -0.12,4.39 -0.50,4.30 -0.88,4.22 -1.21,4.02 -1.55,3.82 -1.80,3.53 -2.05,3.23 -2.19,2.87 -2.33,2.51 -2.36,2.12 -2.38,1.74 -2.27,1.36 -2.17,0.99 -1.95,0.67 -1.73,0.35 -1.43,0.11 -1.12,-0.11 -0.75,-0.23 -0.38,-0.36 0.00,-0.36 0.38,-0.36 0.75,-0.23 1.12,-0.11 1.43,0.11 1.73,0.35 1.95,0.67 2.17,0.99 2.27,1.36 2.38,1.74 2.36,2.12 2.33,2.51 2.19,2.87 2.05,3.23 1.80,3.53 1.55,3.82 1.21,4.02 0.88,4.22 0.50,4.30 0.12,4.39 -0.25,4.34 -0.64,4.30 -0.99,4.14 -1.34,3.98 -1.62,3.71 -1.90,3.44 -2.08,3.10 -2.26,2.76 -2.33,2.38 -2.39,1.99 -2.39,1.99 -2.39,2 -2.33,1 -2.28,0 -2.24,-0.27 -2.21,-0.54 -2.11,-0.80 -2.02,-1.06 -1.86,-1.28 -1.70,-1.51 -1.50,-1.69 -1.29,-1.87 -1.05,-2.00 -0.80,-2.13 -0.54,-2.19 -0.27,-2.26 0.00,-2.26 0.27,-2.26 0.54,-2.19 0.80,-2.13 1.05,-2.00 1.29,-1.87 1.50,-1.69 1.70,-1.51 1.86,-1.28 2.02,-1.06 2.11,-0.80 2.21,-0.54 2.24,-0.27 2.28,0.00 2.28,0.00 L 2.28,0 Z"></path></g></svg>