<svg version="1.1" xmlns="http://www.w3.org/2000/svg" viewBox="0 0 908.9179823920224 1276" width="908.9179823920224" height="1276" class="excalidraw-svg"><!-- svg-source:excalidraw --><metadata></metadata><defs><style class="style-fonts">
      </style></defs><rect x="0" y="0" width="908.9179823920224" height="1276" fill="#ffffff"></rect><g stroke-linecap="round"><g transform="translate(15.917982392022395 298) rotate(0 429.124063953599 0.04496781477867273)"><path d="M0.16 -1.11 C143.08 -0.98, 714.17 -0.72, 857.19 -0.39 M-1.22 0.91 C142.12 1.32, 716.34 1.27, 859.47 0.95" stroke="#1e1e1e" stroke-width="2" fill="none"></path></g><g transform="translate(15.917982392022395 298) rotate(0 429.124063953599 0.04496781477867273)"><path d="M835.99 9.52 C840.51 5.83, 848.02 5.28, 859.47 0.95 M835.99 9.52 C844.22 6.91, 854.23 3.94, 859.47 0.95" stroke="#1e1e1e" stroke-width="2" fill="none"></path></g><g transform="translate(15.917982392022395 298) rotate(0 429.124063953599 0.04496781477867273)"><path d="M835.97 -7.58 C840.33 -6.68, 847.85 -2.65, 859.47 0.95 M835.97 -7.58 C844.37 -3.8, 854.38 -0.39, 859.47 0.95" stroke="#1e1e1e" stroke-width="2" fill="none"></path></g></g><mask></mask><g transform="translate(58.917982392022395 10) rotate(0 419.5 260)" stroke="none"><path fill="#1e1e1e" d="M 3.09,-0.45 Q 3.09,-0.45 4.17,7.31 5.25,15.08 6.82,22.31 8.39,29.54 10.19,36.64 11.99,43.74 13.34,50.29 14.69,56.84 15.83,62.78 16.97,68.73 18.02,74.71 19.08,80.70 20.93,87.43 22.78,94.16 25.27,100.99 27.76,107.83 30.29,116.02 32.82,124.20 35.32,132.25 37.82,140.31 39.77,149.01 41.72,157.71 43.69,166.54 45.66,175.37 49.06,187.09 52.46,198.81 55.08,209.64 57.70,220.46 60.80,231.01 63.91,241.56 67.24,252.38 70.57,263.20 74.54,273.17 78.52,283.14 82.51,292.87 86.51,302.60 92.29,324.15 98.07,345.70 102.21,358.75 106.35,371.81 110.68,383.06 115.01,394.31 117.71,400.82 120.41,407.32 122.67,411.73 124.93,416.14 129.54,422.48 134.15,428.83 138.15,434.16 142.16,439.50 145.89,444.67 149.63,449.84 153.24,455.23 156.86,460.62 160.63,465.40 164.40,470.18 167.99,474.20 171.58,478.22 175.14,482.26 178.70,486.29 181.87,489.37 185.04,492.45 188.30,494.82 191.55,497.18 195.18,499.32 198.81,501.46 200.88,502.50 202.95,503.54 205.45,504.71 207.95,505.88 215.36,508.77 222.78,511.67 228.45,513.22 234.12,514.76 237.65,515.32 241.18,515.88 244.31,516.02 247.45,516.15 251.04,516.25 254.64,516.34 258.54,515.93 262.44,515.51 266.72,514.82 271.00,514.12 275.87,512.73 280.74,511.34 285.68,509.63 290.63,507.92 294.15,506.53 297.67,505.14 301.14,503.68 304.61,502.23 307.38,500.69 310.14,499.16 312.89,497.18 315.63,495.21 318.55,492.95 321.46,490.69 326.10,486.19 330.73,481.69 333.57,478.41 336.40,475.12 339.36,471.43 342.32,467.74 344.32,464.73 346.33,461.71 349.69,458.02 353.05,454.33 355.83,450.88 358.60,447.44 362.07,442.57 365.54,437.70 368.48,433.59 371.43,429.49 374.15,425.98 376.88,422.47 379.11,419.69 381.34,416.90 382.96,414.37 384.58,411.83 385.71,409.61 386.84,407.39 389.23,403.40 391.63,399.41 393.12,396.89 394.61,394.36 396.00,391.92 397.40,389.48 398.82,386.98 400.23,384.48 401.71,382.14 403.19,379.80 404.60,377.46 406.00,375.11 407.29,371.96 408.59,368.81 409.93,366.88 411.28,364.96 413.02,361.79 414.75,358.62 416.15,356.63 417.55,354.64 419.15,351.53 420.75,348.41 422.15,345.58 423.55,342.74 425.56,340.09 427.58,337.43 429.59,334.88 431.59,332.32 435.58,328.98 439.57,325.63 442.75,323.76 445.93,321.89 448.63,320.33 451.34,318.77 453.81,317.80 456.28,316.83 459.04,315.58 461.81,314.33 464.88,313.78 467.95,313.23 470.87,312.78 473.79,312.34 477.72,311.30 481.64,310.27 486.28,309.86 490.92,309.45 495.13,309.36 499.34,309.27 502.23,309.16 505.12,309.04 508.24,309.30 511.37,309.57 514.29,310.80 517.21,312.04 523.47,316.23 529.72,320.42 532.03,322.41 534.33,324.40 536.29,325.95 538.26,327.51 540.66,328.93 543.06,330.35 545.77,332.18 548.48,334.02 550.26,336.15 552.04,338.29 553.27,340.33 554.50,342.37 555.89,344.38 557.29,346.39 558.30,348.37 559.31,350.35 561.05,352.96 562.80,355.58 564.96,358.72 567.11,361.86 569.04,365.64 570.97,369.43 571.95,371.41 572.93,373.38 573.92,375.37 574.91,377.37 576.06,379.53 577.22,381.69 580.03,384.60 582.84,387.51 584.57,388.79 586.29,390.07 588.22,391.73 590.16,393.40 592.38,395.13 594.60,396.86 597.08,398.89 599.57,400.93 602.05,402.52 604.53,404.11 607.44,406.12 610.34,408.12 612.96,409.78 615.58,411.45 618.98,414.18 622.38,416.92 624.85,418.86 627.32,420.81 629.92,422.70 632.52,424.59 636.40,427.61 640.28,430.62 642.40,432.04 644.53,433.46 647.37,435.58 650.21,437.70 653.00,439.49 655.78,441.28 658.39,442.77 661.00,444.25 663.79,446.13 666.58,448.00 670.52,450.63 674.46,453.26 676.67,454.21 678.88,455.16 681.80,456.17 684.72,457.17 686.63,458.22 688.54,459.27 691.88,460.29 695.22,461.31 697.60,461.95 699.97,462.60 702.77,463.01 705.58,463.42 708.75,464.84 711.92,466.25 714.46,466.26 716.99,466.27 719.36,466.22 721.73,466.17 723.94,466.12 726.14,466.07 730.22,466.86 734.31,467.66 736.85,468.28 739.40,468.89 741.78,468.82 744.15,468.74 746.35,468.67 748.54,468.60 752.40,467.62 756.26,466.65 758.75,466.36 761.24,466.06 763.36,465.84 765.49,465.61 767.80,465.53 770.11,465.44 772.38,465.49 774.65,465.54 777.01,465.48 779.36,465.43 781.55,465.38 783.73,465.34 786.90,465.70 790.07,466.06 793.53,466.16 796.99,466.26 799.26,466.62 801.52,466.98 804.23,467.11 806.94,467.24 809.47,467.21 812.00,467.18 814.86,467.53 817.73,467.89 820.81,468.55 823.88,469.20 826.78,470.55 829.68,471.90 832.00,471.90 834.33,471.90 837.17,471.89 840.00,471.88 841.14,472.07 842.28,472.25 843.29,472.80 844.31,473.34 845.10,474.17 845.89,475.01 846.37,476.06 846.85,477.10 846.98,478.25 847.10,479.39 846.85,480.51 846.60,481.64 846.01,482.62 845.41,483.61 844.53,484.35 843.66,485.10 842.59,485.52 841.51,485.95 840.37,486.01 839.22,486.07 838.11,485.76 837.00,485.45 836.05,484.80 835.09,484.15 834.40,483.24 833.70,482.32 833.34,481.23 832.97,480.14 832.97,478.98 832.97,477.83 833.34,476.74 833.71,475.65 834.41,474.74 835.11,473.82 836.06,473.18 837.02,472.53 838.13,472.23 839.24,471.92 840.39,471.98 841.54,472.05 842.60,472.48 843.67,472.90 844.55,473.65 845.43,474.40 846.02,475.38 846.61,476.37 846.86,477.50 847.10,478.62 846.97,479.77 846.85,480.91 846.36,481.95 845.88,483.00 845.09,483.83 844.29,484.67 843.27,485.20 842.26,485.74 841.12,485.93 839.98,486.11 839.98,486.11 839.99,486.11 836.19,486.03 832.40,485.95 830.00,485.70 827.60,485.45 825.27,484.81 822.94,484.16 821.00,482.98 819.07,481.79 816.36,481.31 813.65,480.83 811.04,480.76 808.44,480.68 805.77,480.57 803.10,480.46 799.96,480.06 796.83,479.66 793.62,479.60 790.41,479.54 787.07,479.09 783.73,478.65 781.55,478.61 779.37,478.56 777.02,478.51 774.67,478.46 772.43,478.52 770.19,478.57 767.51,478.54 764.82,478.51 762.12,478.74 759.41,478.97 757.31,479.55 755.21,480.12 750.25,481.05 745.28,481.98 740.09,482.26 734.91,482.53 732.09,481.58 729.28,480.63 727.13,480.26 724.98,479.89 722.47,479.83 719.96,479.77 717.48,479.67 714.99,479.57 712.46,479.29 709.92,479.01 706.98,477.92 704.03,476.82 701.56,475.95 699.08,475.08 696.85,474.54 694.62,474.00 691.14,472.79 687.66,471.58 683.41,469.47 679.17,467.35 676.48,466.24 673.79,465.13 671.17,463.58 668.56,462.04 664.83,459.44 661.10,456.84 658.26,455.22 655.42,453.60 652.64,451.61 649.86,449.62 646.83,447.10 643.80,444.58 641.68,442.35 639.55,440.11 637.68,438.53 635.80,436.96 631.63,434.29 627.45,431.62 624.63,429.60 621.80,427.58 619.63,425.74 617.45,423.90 613.98,421.77 610.51,419.65 607.78,418.01 605.06,416.37 602.14,414.64 599.23,412.92 596.15,411.16 593.06,409.40 590.57,407.61 588.08,405.82 583.77,402.56 579.46,399.31 576.96,397.47 574.47,395.63 572.83,393.94 571.20,392.25 569.09,389.90 566.97,387.55 565.56,385.15 564.15,382.76 563.14,380.78 562.14,378.80 561.15,376.85 560.16,374.90 559.19,373.00 558.23,371.11 556.83,368.26 555.44,365.42 553.16,362.02 550.87,358.63 549.42,355.85 547.97,353.08 545.30,349.12 542.63,345.15 540.81,343.18 538.99,341.22 537.14,339.82 535.29,338.43 533.51,337.05 531.72,335.67 529.62,333.96 527.51,332.26 525.66,330.65 523.81,329.03 518.05,326.03 512.28,323.04 508.71,322.00 505.15,320.96 502.28,320.86 499.42,320.77 495.37,320.79 491.31,320.80 489.01,320.90 486.70,321.00 483.46,321.57 480.22,322.14 477.96,322.64 475.70,323.15 472.87,323.71 470.05,324.28 466.47,325.07 462.89,325.86 459.91,326.91 456.93,327.97 454.41,329.62 451.89,331.28 449.54,332.92 447.20,334.55 444.87,336.77 442.55,338.99 440.76,340.89 438.97,342.80 436.69,345.44 434.41,348.08 433.22,349.86 432.03,351.64 430.34,354.33 428.64,357.03 427.52,359.01 426.39,360.98 423.96,364.31 421.53,367.64 420.41,369.48 419.30,371.31 417.57,373.58 415.84,375.84 414.69,377.87 413.55,379.89 411.95,382.29 410.35,384.69 408.82,386.75 407.29,388.80 405.69,391.24 404.09,393.68 402.44,396.09 400.79,398.49 399.17,400.61 397.56,402.74 395.35,406.97 393.14,411.21 391.56,413.46 389.98,415.71 387.93,418.28 385.88,420.85 383.54,423.32 381.19,425.79 378.56,429.24 375.93,432.68 373.03,436.81 370.13,440.94 366.63,445.97 363.12,451.01 360.30,454.64 357.49,458.28 354.45,461.77 351.41,465.26 349.19,468.32 346.96,471.37 344.04,475.21 341.11,479.05 338.21,482.65 335.30,486.26 330.50,491.20 325.69,496.14 322.63,498.51 319.57,500.88 316.37,503.03 313.16,505.18 310.06,506.58 306.95,507.99 303.36,509.39 299.78,510.79 296.17,512.06 292.56,513.34 287.50,515.20 282.43,517.05 277.28,518.64 272.12,520.23 267.69,521.13 263.26,522.03 258.85,522.67 254.44,523.31 250.65,523.17 246.87,523.03 243.47,522.62 240.06,522.21 236.31,521.48 232.57,520.75 226.53,519.27 220.49,517.78 212.54,514.90 204.59,512.02 202.04,510.42 199.49,508.83 197.81,507.42 196.12,506.01 192.27,503.73 188.42,501.45 184.90,498.84 181.38,496.22 178.07,493.00 174.76,489.77 171.21,485.74 167.66,481.71 163.96,477.57 160.27,473.43 156.39,468.49 152.50,463.55 148.93,458.23 145.37,452.92 141.66,447.79 137.96,442.65 133.93,437.28 129.90,431.91 125.07,425.22 120.25,418.54 117.91,413.94 115.56,409.34 112.83,402.77 110.11,396.20 105.72,384.80 101.34,373.40 97.17,360.23 92.99,347.05 87.32,325.82 81.65,304.59 77.64,294.84 73.63,285.08 69.59,274.92 65.55,264.75 62.20,253.90 58.86,243.05 55.72,232.37 52.59,221.70 49.99,210.99 47.40,200.28 43.96,188.40 40.51,176.52 38.54,167.69 36.57,158.86 34.67,150.37 32.76,141.88 30.25,133.82 27.75,125.77 25.25,117.71 22.75,109.66 20.19,102.62 17.62,95.59 15.69,88.62 13.76,81.65 12.69,75.71 11.61,69.77 10.45,63.87 9.28,57.98 7.91,51.56 6.54,45.15 4.65,37.97 2.75,30.80 1.05,23.38 -0.65,15.96 -1.87,8.21 -3.09,0.45 -3.10,0.08 -3.11,-0.29 -3.02,-0.66 -2.94,-1.03 -2.78,-1.36 -2.61,-1.70 -2.37,-1.99 -2.13,-2.28 -1.82,-2.50 -1.52,-2.72 -1.17,-2.87 -0.82,-3.01 -0.45,-3.06 -0.08,-3.12 0.29,-3.08 0.66,-3.05 1.02,-2.92 1.37,-2.80 1.69,-2.59 2.00,-2.39 2.26,-2.11 2.52,-1.84 2.70,-1.51 2.89,-1.18 2.99,-0.82 3.09,-0.45 3.09,-0.45 L 3.09,-0.45 Z"></path></g><g stroke-linecap="round"><g transform="translate(9.917982392022395 929) rotate(0 443.80256970859597 -0.5194858326416352)"><path d="M1.01 0 C149.08 -0.27, 739.86 -0.8, 887.52 -0.99 M0.08 -1.05 C148.03 -1.25, 738.11 -0.07, 886.32 0.03" stroke="#1e1e1e" stroke-width="2" fill="none"></path></g><g transform="translate(9.917982392022395 929) rotate(0 443.80256970859597 -0.5194858326416352)"><path d="M862.82 8.55 C868.06 5.64, 871.71 2.86, 886.32 0.03 M862.82 8.55 C866.69 7.39, 872.84 4.32, 886.32 0.03" stroke="#1e1e1e" stroke-width="2" fill="none"></path></g><g transform="translate(9.917982392022395 929) rotate(0 443.80256970859597 -0.5194858326416352)"><path d="M862.84 -8.55 C868.17 -7.61, 871.81 -6.54, 886.32 0.03 M862.84 -8.55 C866.67 -6.19, 872.82 -5.74, 886.32 0.03" stroke="#1e1e1e" stroke-width="2" fill="none"></path></g></g><mask></mask><g transform="translate(42.917982392022395 589) rotate(0 418.5 130)" stroke="none"><path fill="#1e1e1e" d="M 3.08,-0.49 Q 3.08,-0.49 4.16,6.70 5.24,13.89 9.08,25.65 12.92,37.40 15.70,45.64 18.49,53.89 21.96,64.31 25.44,74.73 29.48,85.44 33.52,96.14 36.42,105.39 39.31,114.63 41.68,122.57 44.05,130.51 47.29,137.75 50.54,144.98 53.34,150.35 56.14,155.72 58.23,160.09 60.32,164.46 62.15,167.27 63.97,170.09 65.69,172.33 67.41,174.58 68.65,176.53 69.89,178.48 72.64,181.56 75.39,184.63 77.04,187.33 78.69,190.04 80.57,192.66 82.46,195.29 84.44,197.88 86.43,200.47 88.83,203.65 91.24,206.83 93.62,209.17 96.01,211.50 98.64,213.58 101.28,215.66 104.48,218.83 107.68,222.00 111.11,224.67 114.55,227.34 118.22,229.63 121.89,231.91 125.09,234.06 128.28,236.20 131.46,237.84 134.63,239.48 137.45,240.65 140.28,241.82 142.77,242.45 145.26,243.09 148.11,244.31 150.95,245.53 153.45,246.50 155.95,247.47 160.17,248.92 164.38,250.37 168.52,251.65 172.66,252.93 176.24,253.99 179.81,255.05 182.27,255.29 184.73,255.54 187.12,255.58 189.51,255.61 191.68,255.55 193.84,255.49 197.23,255.29 200.62,255.09 204.46,255.28 208.30,255.47 210.51,255.37 212.73,255.27 216.54,255.43 220.35,255.59 224.72,255.54 229.09,255.49 233.02,254.73 236.95,253.96 240.26,252.75 243.58,251.53 247.39,250.20 251.20,248.87 255.05,247.26 258.90,245.65 262.52,243.84 266.14,242.03 269.97,239.88 273.79,237.74 277.67,235.15 281.55,232.57 284.85,229.83 288.16,227.08 290.59,224.45 293.02,221.82 295.85,218.96 298.68,216.10 301.28,213.40 303.87,210.70 306.00,208.14 308.14,205.57 310.84,202.31 313.55,199.05 315.45,196.40 317.34,193.74 318.93,191.41 320.51,189.08 321.94,186.71 323.36,184.35 324.91,182.23 326.46,180.10 327.85,178.13 329.25,176.15 330.57,173.81 331.89,171.46 333.26,169.67 334.63,167.88 335.72,165.91 336.80,163.93 338.29,161.65 339.78,159.37 342.30,155.91 344.83,152.44 346.60,150.23 348.36,148.02 349.57,146.27 350.78,144.52 352.82,141.35 354.86,138.18 356.33,136.38 357.80,134.58 359.60,132.68 361.41,130.79 364.11,128.53 366.81,126.28 369.11,124.43 371.41,122.58 373.09,121.01 374.77,119.45 376.78,117.79 378.79,116.13 381.51,114.28 384.22,112.43 387.27,110.75 390.32,109.06 393.52,107.71 396.72,106.36 400.40,105.10 404.08,103.83 406.07,102.87 408.06,101.92 410.27,101.10 412.48,100.28 415.23,99.83 417.98,99.38 422.65,99.56 427.33,99.74 433.28,99.92 439.23,100.11 445.78,100.27 452.32,100.42 458.84,100.55 465.36,100.67 471.37,101.05 477.38,101.43 482.97,102.51 488.56,103.59 495.78,105.21 503.00,106.84 509.51,108.41 516.03,109.98 521.37,111.23 526.70,112.48 530.42,113.21 534.13,113.93 536.69,114.37 539.24,114.80 542.06,115.87 544.87,116.95 548.83,118.25 552.78,119.55 555.46,120.45 558.14,121.34 562.00,123.16 565.86,124.98 569.47,126.61 573.08,128.25 576.72,130.19 580.36,132.12 583.01,133.76 585.66,135.41 588.11,136.84 590.55,138.27 593.35,140.08 596.15,141.89 599.59,144.59 603.02,147.30 606.97,150.18 610.92,153.06 614.54,155.44 618.16,157.83 621.29,159.99 624.42,162.14 626.77,163.86 629.13,165.57 631.42,166.99 633.72,168.40 636.53,169.80 639.34,171.20 641.64,172.36 643.93,173.52 646.34,174.85 648.75,176.17 651.83,178.33 654.91,180.49 657.96,182.94 661.01,185.39 663.83,187.12 666.65,188.86 669.87,190.84 673.09,192.81 676.03,194.09 678.97,195.37 681.53,196.45 684.08,197.53 691.55,199.33 699.02,201.13 702.95,202.12 706.89,203.11 709.55,203.64 712.21,204.17 714.93,204.63 717.66,205.08 720.53,205.86 723.39,206.65 727.37,207.59 731.34,208.54 733.54,208.97 735.73,209.40 738.10,209.85 740.48,210.30 742.72,210.76 744.95,211.21 747.06,211.66 749.17,212.11 752.54,212.56 755.90,213.01 759.89,213.89 763.89,214.76 768.07,215.70 772.26,216.64 775.70,217.22 779.14,217.80 783.84,218.19 788.55,218.58 791.34,219.11 794.14,219.63 797.61,220.49 801.08,221.35 805.42,221.51 809.77,221.68 812.23,221.43 814.69,221.18 817.05,220.88 819.42,220.58 821.82,220.45 824.22,220.31 827.01,220.22 829.80,220.14 833.40,220.07 836.99,220.01 838.11,220.19 839.23,220.38 840.22,220.90 841.22,221.43 842.00,222.25 842.78,223.07 843.25,224.10 843.73,225.13 843.85,226.25 843.97,227.37 843.73,228.48 843.48,229.58 842.90,230.55 842.32,231.52 841.46,232.25 840.60,232.98 839.55,233.40 838.50,233.82 837.37,233.88 836.24,233.94 835.15,233.64 834.06,233.33 833.13,232.70 832.19,232.07 831.51,231.17 830.82,230.27 830.46,229.20 830.10,228.12 830.10,226.99 830.10,225.86 830.46,224.79 830.82,223.72 831.51,222.82 832.19,221.92 833.13,221.29 834.06,220.65 835.15,220.35 836.24,220.05 837.37,220.11 838.50,220.17 839.55,220.59 840.60,221.01 841.46,221.74 842.32,222.47 842.90,223.44 843.49,224.41 843.73,225.51 843.97,226.62 843.85,227.74 843.73,228.87 843.25,229.89 842.78,230.92 842.00,231.74 841.22,232.56 840.22,233.09 839.22,233.62 838.11,233.80 836.99,233.98 836.99,233.98 837.00,233.98 834.58,233.95 832.17,233.92 829.62,233.85 827.08,233.78 824.69,233.69 822.29,233.61 819.82,233.63 817.34,233.65 813.53,233.97 809.72,234.28 805.96,234.34 802.19,234.40 799.81,234.00 797.42,233.60 794.87,232.72 792.31,231.84 789.77,231.18 787.23,230.52 783.32,230.24 779.41,229.97 776.89,229.22 774.36,228.47 769.93,227.67 765.51,226.87 761.60,225.86 757.70,224.84 754.23,223.96 750.75,223.08 746.68,222.18 742.61,221.29 740.50,220.73 738.39,220.18 735.95,219.61 733.51,219.04 731.13,218.42 728.76,217.80 724.79,216.37 720.82,214.93 718.42,214.09 716.02,213.24 713.12,212.56 710.23,211.88 707.78,211.10 705.32,210.32 701.30,209.58 697.27,208.83 691.16,207.69 685.05,206.54 682.82,205.78 680.58,205.01 678.18,203.75 675.79,202.49 672.48,200.98 669.18,199.47 665.82,197.58 662.46,195.69 659.28,193.75 656.10,191.81 653.14,189.66 650.18,187.51 647.24,185.61 644.30,183.72 642.01,182.27 639.73,180.82 637.73,179.51 635.74,178.21 632.53,176.51 629.32,174.81 626.92,172.99 624.51,171.18 622.56,169.35 620.62,167.52 617.69,165.39 614.77,163.26 610.91,160.98 607.06,158.70 602.88,156.01 598.70,153.32 595.18,151.03 591.66,148.75 588.93,146.93 586.20,145.12 583.75,143.44 581.30,141.77 579.20,140.15 577.10,138.54 573.63,136.87 570.15,135.20 566.48,133.76 562.81,132.32 559.02,130.96 555.23,129.61 552.07,128.45 548.91,127.29 545.36,125.49 541.80,123.70 539.67,122.51 537.53,121.33 535.21,120.50 532.88,119.67 529.18,118.78 525.47,117.89 520.10,116.69 514.74,115.49 508.25,114.00 501.76,112.51 494.62,111.00 487.48,109.50 482.28,108.61 477.07,107.72 471.22,107.53 465.37,107.35 458.86,107.49 452.35,107.63 445.82,107.83 439.30,108.03 433.43,108.32 427.57,108.61 423.39,109.02 419.21,109.44 415.49,110.06 411.78,110.68 409.61,111.49 407.44,112.31 404.04,113.84 400.64,115.38 398.01,116.57 395.38,117.76 392.82,119.33 390.26,120.91 387.91,122.68 385.55,124.45 383.73,125.90 381.92,127.35 380.01,129.04 378.10,130.73 376.02,132.47 373.94,134.22 371.74,136.37 369.53,138.51 366.77,141.46 364.01,144.41 361.67,147.59 359.33,150.77 357.92,152.61 356.51,154.46 354.81,156.63 353.11,158.81 350.52,161.86 347.93,164.92 346.52,166.90 345.11,168.89 342.37,172.48 339.64,176.07 337.95,178.84 336.26,181.60 334.62,183.52 332.99,185.45 331.46,187.08 329.93,188.72 328.17,191.14 326.41,193.57 324.56,195.74 322.72,197.90 320.60,200.43 318.48,202.96 315.81,206.48 313.14,210.00 310.73,212.56 308.31,215.12 305.63,217.73 302.95,220.33 300.13,223.17 297.30,226.01 294.54,228.69 291.78,231.38 288.28,234.36 284.79,237.33 280.78,240.11 276.78,242.88 272.88,245.22 268.98,247.55 265.25,249.53 261.52,251.50 257.55,253.39 253.58,255.28 249.80,256.76 246.02,258.24 242.31,259.59 238.59,260.94 234.10,262.14 229.61,263.35 224.98,263.87 220.35,264.40 216.53,264.56 212.72,264.71 210.50,264.61 208.29,264.50 204.41,264.68 200.54,264.86 197.03,264.56 193.53,264.26 191.21,264.04 188.90,263.81 186.17,263.47 183.44,263.12 180.61,262.46 177.78,261.81 174.31,260.75 170.84,259.69 166.54,258.69 162.23,257.70 157.40,256.49 152.57,255.28 150.02,254.06 147.46,252.84 145.18,251.62 142.90,250.39 140.10,249.32 137.29,248.25 134.42,246.77 131.54,245.29 128.08,243.40 124.62,241.51 121.66,239.40 118.69,237.29 114.66,234.99 110.62,232.69 106.73,229.98 102.84,227.27 99.63,224.54 96.43,221.82 93.46,219.49 90.49,217.16 87.80,214.53 85.11,211.91 82.34,208.83 79.58,205.76 77.51,203.10 75.45,200.44 73.22,197.48 70.99,194.52 69.72,192.19 68.44,189.87 67.15,187.94 65.86,186.02 63.85,182.14 61.84,178.26 60.35,175.66 58.86,173.07 57.21,169.91 55.55,166.75 53.49,162.46 51.44,158.18 48.55,152.67 45.67,147.16 42.29,139.61 38.92,132.06 36.54,124.15 34.16,116.25 31.29,107.16 28.42,98.07 24.31,87.28 20.20,76.49 16.68,66.10 13.15,55.71 10.29,47.46 7.43,39.21 3.39,27.03 -0.64,14.85 -1.86,7.67 -3.08,0.49 -3.09,0.11 -3.11,-0.25 -3.03,-0.62 -2.96,-0.99 -2.79,-1.33 -2.63,-1.67 -2.39,-1.96 -2.15,-2.25 -1.85,-2.48 -1.55,-2.70 -1.20,-2.85 -0.86,-3.00 -0.48,-3.06 -0.11,-3.12 0.25,-3.09 0.63,-3.05 0.98,-2.93 1.34,-2.81 1.66,-2.61 1.98,-2.41 2.24,-2.14 2.50,-1.87 2.68,-1.54 2.87,-1.21 2.98,-0.85 3.08,-0.49 3.08,-0.49 L 3.08,-0.49 Z"></path></g><g transform="translate(122.9179823920224 616) rotate(0 0.00005000000000165983 0.00004999999998744897)" stroke="none"><path fill="#1e1e1e" d="M 3.14,-3.14 Q 3.14,-3.14 3.55,-2.55 3.97,-1.97 4.18,-1.28 4.40,-0.59 4.38,0.11 4.36,0.83 4.11,1.51 3.86,2.18 3.41,2.74 2.96,3.30 2.36,3.69 1.75,4.08 1.05,4.25 0.36,4.42 -0.35,4.36 -1.07,4.31 -1.73,4.02 -2.39,3.74 -2.92,3.26 -3.46,2.78 -3.81,2.15 -4.16,1.53 -4.30,0.82 -4.43,0.11 -4.34,-0.59 -4.24,-1.30 -3.92,-1.94 -3.60,-2.59 -3.09,-3.09 -2.59,-3.60 -1.94,-3.92 -1.30,-4.24 -0.59,-4.34 0.12,-4.43 0.82,-4.30 1.53,-4.16 2.15,-3.81 2.78,-3.46 3.26,-2.92 3.74,-2.39 4.02,-1.73 4.31,-1.07 4.36,-0.35 4.42,0.36 4.25,1.05 4.07,1.75 3.69,2.36 3.30,2.96 2.74,3.41 2.18,3.86 1.51,4.11 0.83,4.36 0.11,4.38 -0.60,4.40 -1.28,4.18 -1.97,3.97 -2.55,3.55 -3.14,3.13 -3.14,3.14 -3.14,3.14 -3.47,2.71 -3.80,2.29 -4.02,1.80 -4.24,1.32 -4.33,0.79 -4.43,0.26 -4.40,-0.26 -4.36,-0.80 -4.20,-1.31 -4.04,-1.82 -3.77,-2.28 -3.49,-2.73 -3.11,-3.11 -2.73,-3.49 -2.28,-3.77 -1.82,-4.05 -1.31,-4.20 -0.80,-4.36 -0.26,-4.40 0.26,-4.43 0.79,-4.33 1.32,-4.24 1.80,-4.02 2.29,-3.80 2.71,-3.47 3.14,-3.14 3.14,-3.14 L 3.14,-3.14 Z"></path></g><g stroke-linecap="round"><g transform="translate(17.917982392022395 1227) rotate(0 434.516213453128 1.5479635588824863)"><path d="M0.25 -0.67 C145.37 0.02, 725.03 3.11, 870.12 3.76 M-1.08 1.59 C143.95 1.98, 723.98 1.53, 869.23 2.04" stroke="#1e1e1e" stroke-width="2" fill="none"></path></g><g transform="translate(17.917982392022395 1227) rotate(0 434.516213453128 1.5479635588824863)"><path d="M845.73 10.57 C850.45 8.61, 858.65 7.61, 869.23 2.04 M845.73 10.57 C853.91 8.17, 859.81 5.93, 869.23 2.04" stroke="#1e1e1e" stroke-width="2" fill="none"></path></g><g transform="translate(17.917982392022395 1227) rotate(0 434.516213453128 1.5479635588824863)"><path d="M845.75 -6.53 C850.41 -4.26, 858.61 -1.04, 869.23 2.04 M845.75 -6.53 C853.98 -3.45, 859.86 -0.21, 869.23 2.04" stroke="#1e1e1e" stroke-width="2" fill="none"></path></g></g><mask></mask><g transform="translate(91.9179823920224 977) rotate(0 337 144.5)" stroke="none"><path fill="#1e1e1e" d="M 3.05,-0.63 Q 3.05,-0.63 4.42,6.27 5.80,13.18 9.20,24.63 12.61,36.08 14.92,44.17 17.24,52.27 20.48,61.68 23.73,71.09 28.25,81.94 32.77,92.79 36.41,101.16 40.05,109.53 42.78,117.20 45.52,124.88 47.82,131.87 50.12,138.87 52.24,144.97 54.36,151.07 56.41,157.14 58.46,163.20 59.93,168.43 61.40,173.65 63.39,178.27 65.38,182.89 66.88,187.63 68.37,192.38 69.87,195.95 71.37,199.52 72.86,203.72 74.35,207.93 76.36,212.17 78.37,216.40 80.97,222.00 83.57,227.60 85.80,231.95 88.03,236.29 90.13,239.45 92.24,242.60 94.35,245.67 96.46,248.74 98.32,251.08 100.17,253.42 102.11,255.78 104.06,258.14 106.20,260.09 108.34,262.04 110.52,264.06 112.69,266.08 116.06,268.93 119.43,271.78 121.89,274.14 124.34,276.50 126.46,278.27 128.57,280.04 131.32,281.02 134.07,282.01 136.31,282.34 138.55,282.68 141.48,282.66 144.41,282.64 146.68,282.59 148.96,282.54 151.81,281.74 154.66,280.95 157.24,280.19 159.82,279.44 162.63,278.26 165.43,277.07 168.04,276.22 170.64,275.37 172.54,274.06 174.43,272.74 176.39,271.45 178.34,270.17 180.72,268.00 183.10,265.83 184.87,263.76 186.64,261.70 187.63,259.29 188.62,256.89 189.83,254.30 191.04,251.72 191.94,249.69 192.84,247.66 193.82,245.27 194.81,242.88 195.78,240.32 196.75,237.76 197.84,235.58 198.93,233.41 199.88,231.11 200.84,228.81 202.27,225.82 203.70,222.83 204.60,219.82 205.49,216.81 207.04,212.83 208.58,208.86 210.16,204.55 211.74,200.23 212.80,197.93 213.85,195.62 215.35,193.22 216.84,190.82 217.85,188.48 218.85,186.14 220.38,183.10 221.92,180.05 224.90,175.10 227.87,170.15 229.28,167.09 230.69,164.03 232.63,160.54 234.57,157.05 235.91,154.78 237.24,152.51 238.94,149.55 240.63,146.59 242.24,143.76 243.84,140.93 244.98,138.43 246.11,135.94 247.56,133.43 249.00,130.92 250.78,128.02 252.55,125.12 254.19,122.58 255.82,120.04 256.90,117.78 257.99,115.52 259.02,113.30 260.06,111.08 261.01,108.61 261.95,106.14 263.75,103.20 265.55,100.25 267.46,97.43 269.37,94.61 271.37,91.54 273.37,88.47 274.72,86.17 276.07,83.87 277.52,81.64 278.98,79.41 280.43,77.29 281.89,75.17 282.92,73.30 283.95,71.43 285.36,69.26 286.78,67.10 288.94,64.26 291.09,61.42 292.86,59.70 294.63,57.97 296.42,56.48 298.22,54.99 301.42,52.81 304.63,50.64 306.81,49.01 308.98,47.39 311.78,45.54 314.57,43.69 319.06,42.35 323.56,41.01 328.88,40.66 334.20,40.30 341.08,40.29 347.97,40.27 354.59,40.36 361.21,40.44 366.32,40.54 371.43,40.64 374.75,40.53 378.07,40.42 382.16,40.09 386.25,39.76 389.44,41.03 392.64,42.30 396.33,45.17 400.03,48.03 402.27,49.64 404.51,51.25 407.93,54.32 411.34,57.39 413.19,59.58 415.04,61.77 417.00,64.55 418.95,67.33 420.87,68.94 422.78,70.54 424.42,71.93 426.06,73.31 429.24,76.54 432.42,79.77 434.07,81.21 435.73,82.65 439.12,84.20 442.50,85.76 446.07,87.52 449.64,89.29 454.16,90.66 458.68,92.04 461.94,92.85 465.20,93.67 468.23,94.26 471.25,94.85 474.02,95.34 476.79,95.82 481.70,97.17 486.60,98.51 491.23,99.72 495.87,100.94 499.93,101.48 504.00,102.02 508.13,102.57 512.27,103.12 516.21,103.34 520.16,103.56 523.29,103.50 526.42,103.45 528.85,103.60 531.29,103.75 533.51,104.03 535.74,104.31 538.08,104.65 540.43,105.00 543.10,105.41 545.78,105.82 548.18,106.24 550.58,106.66 552.77,107.08 554.96,107.49 557.27,107.92 559.58,108.35 563.85,109.63 568.12,110.91 570.30,111.42 572.48,111.92 575.41,112.84 578.34,113.75 580.84,114.36 583.35,114.98 586.10,115.89 588.86,116.79 591.01,117.37 593.15,117.95 596.46,118.13 599.77,118.30 602.19,118.64 604.62,118.98 608.03,119.58 611.43,120.18 614.75,120.49 618.07,120.80 622.35,120.77 626.64,120.75 630.22,120.23 633.81,119.71 637.20,119.51 640.59,119.31 642.96,119.18 645.34,119.05 647.80,118.39 650.25,117.74 652.93,117.40 655.60,117.05 657.93,116.86 660.26,116.67 663.33,116.55 666.39,116.44 668.58,116.37 670.76,116.29 670.84,116.14 670.91,115.99 671.95,115.66 672.99,115.32 674.08,115.34 675.17,115.35 676.20,115.72 677.23,116.08 678.09,116.75 678.95,117.42 679.55,118.33 680.15,119.24 680.43,120.30 680.71,121.35 680.64,122.44 680.56,123.53 680.15,124.54 679.73,125.55 679.01,126.37 678.29,127.19 677.35,127.74 676.41,128.29 675.34,128.51 674.27,128.73 673.19,128.60 672.10,128.47 671.12,128.00 670.14,127.53 669.35,126.77 668.57,126.01 668.07,125.04 667.57,124.06 667.41,122.99 667.25,121.91 667.44,120.83 667.63,119.76 668.16,118.80 668.68,117.84 669.48,117.10 670.28,116.36 671.28,115.92 672.28,115.47 673.36,115.37 674.45,115.26 675.51,115.51 676.57,115.76 677.50,116.34 678.43,116.91 679.13,117.75 679.82,118.59 680.21,119.61 680.60,120.63 680.65,121.72 680.69,122.81 680.38,123.86 680.08,124.91 679.45,125.80 678.83,126.70 677.95,127.35 677.07,128.00 677.08,128.00 677.08,128.00 673.09,128.82 669.11,129.65 666.70,129.58 664.29,129.50 661.54,129.45 658.79,129.40 656.59,129.43 654.39,129.46 650.94,130.25 647.49,131.05 645.34,130.95 643.20,130.85 640.43,130.76 637.67,130.66 634.36,130.68 631.05,130.69 628.78,130.92 626.51,131.14 622.03,130.90 617.55,130.65 613.86,130.59 610.16,130.53 606.54,130.27 602.92,130.01 599.05,129.48 595.19,128.94 592.71,128.53 590.22,128.12 587.90,127.41 585.57,126.69 583.22,125.90 580.86,125.11 578.11,124.43 575.35,123.76 572.66,122.99 569.97,122.23 567.05,121.49 564.14,120.75 560.81,119.46 557.49,118.16 555.11,117.59 552.73,117.03 550.67,116.45 548.60,115.87 546.39,115.30 544.19,114.73 541.44,114.17 538.69,113.61 536.39,113.01 534.08,112.42 530.16,111.36 526.23,110.29 523.04,110.06 519.85,109.83 515.69,109.65 511.54,109.47 507.43,109.07 503.32,108.66 498.81,108.32 494.30,107.97 489.59,107.10 484.87,106.24 479.96,105.38 475.04,104.52 472.29,103.90 469.55,103.28 466.35,102.61 463.16,101.94 459.90,101.15 456.65,100.36 451.25,99.31 445.86,98.25 442.33,97.01 438.80,95.76 436.02,94.63 433.23,93.50 430.99,91.93 428.76,90.36 426.70,88.43 424.63,86.49 423.14,84.71 421.65,82.92 419.11,80.25 416.57,77.58 413.98,75.21 411.40,72.85 409.54,70.35 407.68,67.85 405.97,65.73 404.26,63.60 401.78,60.75 399.30,57.89 397.37,56.23 395.44,54.56 390.64,51.40 385.85,48.24 381.98,47.93 378.12,47.62 374.81,47.56 371.50,47.49 366.42,47.68 361.34,47.87 354.81,48.18 348.29,48.49 341.82,49.00 335.35,49.51 330.91,50.38 326.46,51.25 323.77,52.05 321.09,52.85 317.86,54.03 314.63,55.21 312.49,56.70 310.35,58.18 307.46,60.63 304.57,63.08 301.74,65.06 298.92,67.04 297.03,69.93 295.15,72.83 293.82,74.68 292.48,76.53 291.10,78.69 289.72,80.85 288.22,82.81 286.71,84.78 285.26,86.74 283.80,88.71 282.36,90.86 280.92,93.01 279.07,96.35 277.21,99.70 275.47,102.52 273.72,105.33 272.33,107.52 270.94,109.71 269.80,112.56 268.65,115.41 267.47,117.58 266.29,119.75 264.86,122.42 263.43,125.08 261.86,127.37 260.29,129.66 258.58,132.71 256.86,135.76 255.53,137.78 254.19,139.80 252.82,142.54 251.45,145.28 249.88,148.01 248.31,150.74 246.59,154.10 244.86,157.46 243.57,159.23 242.28,161.00 240.75,164.32 239.21,167.64 237.85,171.12 236.49,174.60 234.31,179.63 232.12,184.67 230.99,187.52 229.86,190.38 227.62,195.53 225.37,200.68 224.56,202.65 223.74,204.61 223.02,206.80 222.30,208.99 221.63,211.28 220.97,213.56 220.25,215.66 219.53,217.75 218.40,221.23 217.27,224.72 216.62,227.06 215.96,229.40 214.81,231.97 213.66,234.53 212.58,237.12 211.50,239.71 210.02,242.37 208.55,245.03 207.67,247.76 206.79,250.50 205.67,253.16 204.56,255.81 203.43,257.74 202.31,259.66 200.89,262.90 199.48,266.14 198.21,268.67 196.95,271.21 195.08,273.33 193.22,275.45 190.50,277.64 187.78,279.83 185.98,280.99 184.18,282.14 181.56,284.01 178.94,285.87 176.72,286.94 174.49,288.00 171.03,288.86 167.58,289.72 163.95,291.30 160.33,292.88 157.43,293.43 154.52,293.97 151.85,294.71 149.17,295.44 146.75,295.39 144.34,295.33 141.25,295.27 138.17,295.21 135.77,294.92 133.38,294.62 131.40,293.77 129.42,292.92 127.12,291.80 124.81,290.68 122.97,289.21 121.13,287.73 119.40,285.82 117.67,283.92 116.10,282.30 114.52,280.69 112.59,277.90 110.66,275.11 108.87,273.42 107.08,271.73 105.06,269.58 103.03,267.42 100.69,264.95 98.35,262.48 96.53,259.86 94.70,257.24 93.09,254.62 91.48,252.00 89.49,248.81 87.51,245.62 85.40,242.18 83.29,238.73 81.00,234.30 78.72,229.87 76.11,224.29 73.50,218.72 71.36,214.25 69.23,209.77 67.74,205.67 66.25,201.57 64.80,197.76 63.34,193.96 61.94,189.46 60.54,184.97 58.42,180.03 56.31,175.08 54.88,169.99 53.45,164.90 51.40,158.86 49.34,152.82 47.20,146.68 45.06,140.54 42.77,133.61 40.47,126.68 37.79,119.18 35.10,111.69 31.42,103.29 27.73,94.90 23.12,83.90 18.51,72.91 15.17,63.38 11.82,53.84 9.45,45.79 7.08,37.74 3.51,26.07 -0.05,14.41 -1.55,7.52 -3.05,0.63 -3.09,0.26 -3.12,-0.11 -3.06,-0.48 -3.00,-0.85 -2.85,-1.20 -2.71,-1.55 -2.48,-1.85 -2.26,-2.15 -1.97,-2.39 -1.68,-2.63 -1.34,-2.79 -1.00,-2.95 -0.63,-3.03 -0.26,-3.11 0.11,-3.09 0.48,-3.08 0.85,-2.98 1.21,-2.87 1.54,-2.69 1.86,-2.50 2.13,-2.24 2.41,-1.98 2.61,-1.66 2.81,-1.35 2.93,-0.99 3.05,-0.63 3.05,-0.63 L 3.05,-0.63 Z"></path></g></svg>