<svg version="1.1" xmlns="http://www.w3.org/2000/svg" viewBox="0 0 534.3934258642234 514.1791760563851" width="534.3934258642234" height="514.1791760563851" class="excalidraw-svg"><!-- svg-source:excalidraw --><metadata></metadata><defs><style class="style-fonts">
      </style></defs><rect x="0" y="0" width="534.3934258642234" height="514.1791760563851" fill="#ffffff"></rect><g stroke-linecap="round"><g transform="translate(10.422152611482886 393.8088048610836) rotate(0 256.77456032062884 0.6858849789947215)"><path d="M0.68 -0.96 C86.2 -0.62, 428.56 1.93, 513.97 2.33 M-0.42 1.15 C84.95 1.09, 428.06 0.16, 513.53 0.38" stroke="#0c8599" stroke-width="2" fill="none"></path></g><g transform="translate(10.422152611482886 393.8088048610836) rotate(0 256.77456032062884 0.6858849789947215)"><path d="M490.04 8.94 C497.15 7.25, 508.02 2.68, 513.53 0.38 M490.04 8.94 C495.26 6.91, 502.36 3.76, 513.53 0.38" stroke="#0c8599" stroke-width="2" fill="none"></path></g><g transform="translate(10.422152611482886 393.8088048610836) rotate(0 256.77456032062884 0.6858849789947215)"><path d="M490.04 -8.16 C497.19 -3.5, 508.06 -1.72, 513.53 0.38 M490.04 -8.16 C495.36 -5.83, 502.46 -4.62, 513.53 0.38" stroke="#0c8599" stroke-width="2" fill="none"></path></g></g><mask></mask><g stroke-linecap="round"><g transform="translate(123.62832559296857 393.6910720893089) rotate(0 131.3132820718363 0.8474868917764411)"><path d="M0.51 1.13 C43.91 1.3, 217.58 0.39, 261.08 0.06 M-0.68 0.67 C43.02 1.14, 219.78 1.73, 263.31 1.62" stroke="#e03131" stroke-width="2" fill="none"></path></g></g><mask></mask><g stroke-linecap="round"><g transform="translate(123.62832559296857 394.6910720893089) rotate(0 87.29653841517866 -23.894160911068326)"><path d="M-0.92 0.06 C28.25 -8.1, 146.13 -39.83, 175.51 -47.85" stroke="#e03131" stroke-width="2.5" fill="none" stroke-dasharray="8 10"></path></g></g><mask></mask><g stroke-linecap="round"><g transform="translate(144.9221526114829 504.3088048610837) rotate(0 140.70523805953565 -141.85362815596167)"><path d="M-0.58 -0.13 C46.3 -47.48, 234.9 -236.53, 281.99 -283.58 M1.32 -1.24 C47.94 -48.53, 234.18 -235.97, 280.77 -282.61" stroke="#0c8599" stroke-width="2" fill="none"></path></g><g transform="translate(144.9221526114829 504.3088048610837) rotate(0 140.70523805953565 -141.85362815596167)"><path d="M270.25 -259.93 C273.71 -268.87, 275.91 -277.09, 280.77 -282.61 M270.25 -259.93 C272.65 -267.65, 277.23 -274.06, 280.77 -282.61" stroke="#0c8599" stroke-width="2" fill="none"></path></g><g transform="translate(144.9221526114829 504.3088048610837) rotate(0 140.70523805953565 -141.85362815596167)"><path d="M258.14 -271.99 C266 -276.55, 272.54 -280.43, 280.77 -282.61 M258.14 -271.99 C264.26 -276.08, 272.56 -278.79, 280.77 -282.61" stroke="#0c8599" stroke-width="2" fill="none"></path></g></g><mask></mask><g stroke-linecap="round"><g transform="translate(299.6283255929686 348.6910720893089) rotate(0 43.45866182111204 22.06476689912379)"><path d="M-0.49 -0.85 C14.24 6.64, 72.77 37.14, 87.4 44.98" stroke="#e03131" stroke-width="2.5" fill="none" stroke-dasharray="8 10"></path></g></g><mask></mask><g stroke-linecap="round"><g transform="translate(252.4221526114829 395.8088048610836) rotate(0 -0.21085879125651275 -192.91825010515748)"><path d="M-1.01 -0.03 C-0.87 -64.41, -0.08 -321.61, -0.08 -385.81 M0.66 -1.09 C0.71 -65.38, -1.19 -320.87, -1.07 -384.7" stroke="#0c8599" stroke-width="2" fill="none"></path></g><g transform="translate(252.4221526114829 395.8088048610836) rotate(0 -0.21085879125651275 -192.91825010515748)"><path d="M7.56 -361.23 C5.49 -366.68, 2.26 -373.48, -1.07 -384.7 M7.56 -361.23 C4.11 -368.26, 2.62 -374.45, -1.07 -384.7" stroke="#0c8599" stroke-width="2" fill="none"></path></g><g transform="translate(252.4221526114829 395.8088048610836) rotate(0 -0.21085879125651275 -192.91825010515748)"><path d="M-9.54 -361.17 C-7.79 -366.49, -7.2 -373.31, -1.07 -384.7 M-9.54 -361.17 C-8.2 -368.1, -4.9 -374.31, -1.07 -384.7" stroke="#0c8599" stroke-width="2" fill="none"></path></g></g><mask></mask><g stroke-linecap="round"><g transform="translate(125.72585389965312 391.9758077616814) rotate(0 -0.5699330140277681 -96.45142106777057)"><path d="M-0.37 -1.14 C-0.59 -33.41, -1.37 -161.85, -1.54 -193.78 M1.64 0.87 C1.24 -31.24, -2.1 -160.63, -2.78 -192.65" stroke="#e03131" stroke-width="2" fill="none"></path></g></g><mask></mask><g stroke-linecap="round"><g transform="translate(389.1226168996531 394.7044437616814) rotate(0 -0.6813363406807227 -96.98650099895895)"><path d="M0.82 0.14 C0.52 -32.26, -1.72 -161.74, -2.19 -194.12 M-0.2 -0.83 C-0.13 -33.15, -0.2 -161.07, -0.1 -193.16" stroke="#e03131" stroke-width="2" fill="none"></path></g></g><mask></mask><g stroke-linecap="round"><g transform="translate(298.16368289965305 348.1461477616814) rotate(0 -0.27546132542192936 -96.1936394419521)"><path d="M0.98 -0.3 C0.62 -32.29, -1.13 -160.17, -1.53 -192.09" stroke="#e03131" stroke-width="2.5" fill="none" stroke-dasharray="8 10"></path></g></g><mask></mask><g stroke-linecap="round"><g transform="translate(122.42215261148289 198.80880486108362) rotate(0 133.67220192125066 0.8389406911470019)"><path d="M0.98 0.11 C45.42 0.57, 223.1 2.4, 267.3 2.56 M0.04 -0.88 C44.29 -0.76, 221.74 0.27, 266.52 0.73" stroke="#e03131" stroke-width="2" fill="none"></path></g></g><mask></mask><g stroke-linecap="round"><g transform="translate(296.4221526114829 153.80880486108362) rotate(0 46.69564418013207 23.77873212833889)"><path d="M-0.65 0.65 C14.77 8.77, 76.21 39.85, 91.9 47.61 M1.21 -0.05 C17.04 7.81, 78.73 37.7, 94.04 45.81" stroke="#e03131" stroke-width="2" fill="none"></path></g></g><mask></mask><g stroke-linecap="round"><g transform="translate(123.42215261148289 197.80880486108362) rotate(0 86.28903275988995 -23.39964735172689)"><path d="M-0.76 -0.05 C28.13 -8.01, 144.49 -38.96, 173.34 -46.75 M1.04 -1.12 C29.8 -8.42, 144.21 -38.14, 172.57 -45.61" stroke="#e03131" stroke-width="2" fill="none"></path></g></g><mask></mask></svg>