<svg version="1.1" xmlns="http://www.w3.org/2000/svg" viewBox="0 0 1297.077357506249 601.3954094648361" width="1297.077357506249" height="601.3954094648361" class="excalidraw-svg"><!-- svg-source:excalidraw --><metadata></metadata><defs><style class="style-fonts">
      </style></defs><rect x="0" y="0" width="1297.077357506249" height="601.3954094648361" fill="#ffffff"></rect><g stroke-linecap="round" transform="translate(160.22665370987727 196.37005948163574) rotate(0 143 121)"><path d="M0 0 C108.37 0.81, 218.4 0.55, 286 0 M0 0 C109.26 -0.8, 218.22 -0.47, 286 0 M286 0 C285.97 94.47, 285.47 191.57, 286 242 M286 0 C286.15 53.53, 285.77 108.96, 286 242 M286 242 C222.58 241.91, 159.43 243.93, 0 242 M286 242 C201.9 243.04, 118.26 242.57, 0 242 M0 242 C2.15 188.01, 0.45 133.97, 0 0 M0 242 C0.66 178.62, 0.43 114.56, 0 0" stroke="#c2255c" stroke-width="4" fill="none"></path></g><g stroke-linecap="round"><g transform="translate(10.226653709877269 439.37005948163574) rotate(0 313.28815261448733 0.6091875909455098)"><path d="M0.81 -0.01 C105.2 0.12, 522.58 0.71, 626.8 0.83 M-0.23 -1.06 C103.95 -0.74, 520.94 1.79, 625.75 2.28" stroke="#1e1e1e" stroke-width="2" fill="none"></path></g><g transform="translate(10.226653709877269 439.37005948163574) rotate(0 313.28815261448733 0.6091875909455098)"><path d="M602.21 10.7 C610.16 7.36, 617.86 3.47, 625.75 2.28 M602.21 10.7 C609.33 9, 615.26 6.38, 625.75 2.28" stroke="#1e1e1e" stroke-width="2" fill="none"></path></g><g transform="translate(10.226653709877269 439.37005948163574) rotate(0 313.28815261448733 0.6091875909455098)"><path d="M602.31 -6.4 C610.23 -3.95, 617.9 -2.06, 625.75 2.28 M602.31 -6.4 C609.29 -3.36, 615.2 -1.24, 625.75 2.28" stroke="#1e1e1e" stroke-width="2" fill="none"></path></g></g><mask></mask><g stroke-linecap="round"><g transform="translate(161.22665370987727 541.3700594816357) rotate(0 -0.9738475022185469 -265.4643516037613)"><path d="M0.14 0.44 C-0.21 -87.94, -0.91 -442.75, -1.09 -531.37 M-1.25 -0.37 C-1.85 -88.49, -2.02 -441.73, -2.09 -530.03" stroke="#1e1e1e" stroke-width="2" fill="none"></path></g><g transform="translate(161.22665370987727 541.3700594816357) rotate(0 -0.9738475022185469 -265.4643516037613)"><path d="M6.48 -506.54 C4.15 -515.68, -0.49 -524.43, -2.09 -530.03 M6.48 -506.54 C3.6 -512.39, 2.3 -520.48, -2.09 -530.03" stroke="#1e1e1e" stroke-width="2" fill="none"></path></g><g transform="translate(161.22665370987727 541.3700594816357) rotate(0 -0.9738475022185469 -265.4643516037613)"><path d="M-10.62 -506.53 C-6.4 -515.69, -4.48 -524.45, -2.09 -530.03 M-10.62 -506.53 C-8.8 -512.27, -5.4 -520.36, -2.09 -530.03" stroke="#1e1e1e" stroke-width="2" fill="none"></path></g></g><mask></mask><g stroke-linecap="round"><g transform="translate(692.4766537098773 445.62005948163574) rotate(0 297.0586558606476 0.8668812333658664)"><path d="M-0.48 -1.02 C98.45 -0.8, 495.34 0.68, 594.6 1.22 M1.46 1.06 C100.12 1.49, 494.62 2.86, 593.44 2.75" stroke="#1e1e1e" stroke-width="2" fill="none"></path></g><g transform="translate(692.4766537098773 445.62005948163574) rotate(0 297.0586558606476 0.8668812333658664)"><path d="M569.94 11.26 C577.24 7.43, 587.89 5, 593.44 2.75 M569.94 11.26 C579.61 7.56, 587.89 4.38, 593.44 2.75" stroke="#1e1e1e" stroke-width="2" fill="none"></path></g><g transform="translate(692.4766537098773 445.62005948163574) rotate(0 297.0586558606476 0.8668812333658664)"><path d="M569.96 -5.84 C577.24 -3.13, 587.88 0.98, 593.44 2.75 M569.96 -5.84 C579.73 -3.02, 588 0.31, 593.44 2.75" stroke="#1e1e1e" stroke-width="2" fill="none"></path></g></g><mask></mask><g stroke-linecap="round"><g transform="translate(676.2266537098773 590.6200594816357) rotate(0 214.95212529135867 -223.69489932991564)"><path d="M0.2 0.78 C71.75 -73.75, 357.32 -373.28, 428.92 -448.17 M-1.16 0.14 C70.78 -74.16, 359.38 -372.33, 431.06 -446.98" stroke="#1e1e1e" stroke-width="2" fill="none"></path></g><g transform="translate(676.2266537098773 590.6200594816357) rotate(0 214.95212529135867 -223.69489932991564)"><path d="M420.91 -424.13 C425.12 -432.1, 425.45 -436.75, 431.06 -446.98 M420.91 -424.13 C423.03 -428.86, 425.1 -433.28, 431.06 -446.98" stroke="#1e1e1e" stroke-width="2" fill="none"></path></g><g transform="translate(676.2266537098773 590.6200594816357) rotate(0 214.95212529135867 -223.69489932991564)"><path d="M408.6 -436.01 C416.03 -440.79, 419.67 -442.26, 431.06 -446.98 M408.6 -436.01 C413.32 -438.27, 418.03 -440.13, 431.06 -446.98" stroke="#1e1e1e" stroke-width="2" fill="none"></path></g></g><mask></mask><g stroke-linecap="round"><g transform="translate(814.3997306329542 446.38929025086645) rotate(0 161.68269230769238 0.37438625873011944)"><path d="M0 0 C107.87 0.18, 218.02 1.04, 323.37 1.35 M0 0 C104.61 -0.7, 210.73 -1.29, 323.37 1.35" stroke="#c2255c" stroke-width="4" fill="none"></path></g></g><mask></mask><g stroke-linecap="round"><g transform="translate(817.2736622568857 443.6328799944562) rotate(0 46.923076923076906 -47.69230769230768)"><path d="M0 0 C32.02 -34.86, 65.87 -68.67, 93.85 -95.38 M0 0 C23.94 -23.56, 47.84 -47.92, 93.85 -95.38" stroke="#c2255c" stroke-width="4" fill="none"></path></g></g><mask></mask><g stroke-linecap="round"><g transform="translate(912.658277641501 343.6328799944562) rotate(0 162.30769230769238 -0.45154835633703616)"><path d="M0 0 C74.81 0.13, 148.71 -0.88, 324.62 -1.54 M0 0 C109.51 1.22, 219.39 0.67, 324.62 -1.54" stroke="#c2255c" stroke-width="4" fill="none"></path></g></g><mask></mask><g stroke-linecap="round"><g transform="translate(1237.2736622568857 343.6328799944562) rotate(0 -52.30769230769238 50.769230769230774)"><path d="M0 0 C-33.48 32.11, -64.74 61.33, -104.62 101.54 M0 0 C-31.8 31.18, -61.19 59.67, -104.62 101.54" stroke="#c2255c" stroke-width="4" fill="none"></path></g></g><mask></mask><g transform="translate(846.504431487655 423.6328799944562) rotate(0 6.923076923076906 9.230769230769226)" stroke="none"><path fill="#c2255c" d="M 0.42,-0.84 Q 0.42,-0.84 1.29,-0.38 2.17,0.08 3.06,0.79 3.95,1.50 4.39,2.29 4.83,3.08 6.06,3.82 7.28,4.55 8.04,5.31 8.80,6.07 9.17,7.40 9.54,8.74 10.05,9.08 10.57,9.43 10.87,10.69 11.17,11.94 12.23,12.34 13.29,12.74 13.82,13.43 14.35,14.13 14.62,16.23 14.89,18.34 14.88,18.51 14.87,18.68 14.81,18.84 14.75,19.00 14.64,19.13 14.53,19.26 14.38,19.35 14.23,19.44 14.07,19.47 13.90,19.51 13.73,19.49 13.56,19.48 13.40,19.40 13.25,19.33 13.12,19.21 13.00,19.10 12.92,18.95 12.84,18.79 12.81,18.63 12.78,18.46 12.81,18.29 12.84,18.12 12.92,17.97 13.00,17.82 13.12,17.70 13.25,17.58 13.40,17.51 13.56,17.44 13.73,17.42 13.90,17.40 14.06,17.44 14.23,17.47 14.38,17.56 14.52,17.65 14.64,17.78 14.75,17.91 14.81,18.07 14.87,18.23 14.88,18.40 14.89,18.57 14.85,18.73 14.80,18.90 14.70,19.04 14.61,19.18 14.47,19.29 14.34,19.39 14.17,19.44 14.01,19.50 13.84,19.50 13.67,19.50 13.51,19.45 13.35,19.39 13.21,19.29 13.07,19.18 12.98,19.04 12.88,18.90 12.84,18.74 12.79,18.57 12.79,18.57 12.79,18.57 12.59,16.46 12.39,14.35 11.66,14.11 10.93,13.87 10.28,13.18 9.63,12.50 9.45,11.56 9.26,10.62 8.62,9.97 7.99,9.32 7.73,8.30 7.47,7.28 6.76,6.67 6.04,6.06 5.43,5.55 4.83,5.04 4.09,4.54 3.36,4.04 3.11,3.41 2.86,2.78 2.11,2.23 1.36,1.68 0.47,1.26 -0.42,0.84 -0.51,0.77 -0.60,0.71 -0.68,0.63 -0.76,0.54 -0.81,0.44 -0.87,0.35 -0.90,0.24 -0.93,0.13 -0.93,0.01 -0.93,-0.09 -0.91,-0.20 -0.88,-0.31 -0.83,-0.41 -0.78,-0.51 -0.71,-0.60 -0.63,-0.69 -0.54,-0.75 -0.45,-0.82 -0.34,-0.86 -0.24,-0.90 -0.13,-0.92 -0.01,-0.93 0.09,-0.92 0.20,-0.91 0.31,-0.87 0.42,-0.84 0.42,-0.84 L 0.42,-0.84 Z"></path></g><g transform="translate(894.1967391799626 395.94057230214855) rotate(0 6.923076923076906 11.538461538461547)" stroke="none"><path fill="#c2255c" d="M 0.51,0.77 Q 0.51,0.77 -0.83,1.62 -2.17,2.48 -3.65,3.28 -5.13,4.08 -5.64,4.78 -6.15,5.47 -6.88,6.25 -7.61,7.03 -7.81,7.71 -8.01,8.38 -8.09,9.09 -8.17,9.80 -8.72,10.72 -9.27,11.64 -9.41,12.29 -9.54,12.95 -9.66,14.07 -9.77,15.19 -9.81,16.13 -9.85,17.08 -9.85,17.92 -9.85,18.77 -10.45,19.81 -11.05,20.85 -10.50,21.20 -9.95,21.55 -9.00,21.30 -8.05,21.06 -7.22,20.59 -6.38,20.11 -5.45,19.83 -4.53,19.54 -2.86,19.03 -1.18,18.52 1.72,17.42 4.63,16.33 6.75,15.43 8.87,14.53 10.26,14.14 11.66,13.74 13.17,13.57 14.69,13.40 15.76,13.33 16.84,13.27 17.75,13.20 18.65,13.14 19.48,13.09 20.31,13.04 21.10,13.01 21.90,12.97 22.68,12.94 23.46,12.91 24.07,12.97 24.69,13.02 24.65,11.37 24.61,9.71 24.74,9.72 24.86,9.74 24.98,9.78 25.10,9.83 25.20,9.90 25.31,9.97 25.39,10.07 25.48,10.16 25.54,10.28 25.60,10.39 25.63,10.51 25.66,10.64 25.66,10.76 25.66,10.89 25.63,11.01 25.60,11.14 25.54,11.25 25.48,11.36 25.40,11.46 25.31,11.55 25.21,11.63 25.10,11.70 24.98,11.74 24.86,11.79 24.74,11.81 24.61,11.82 24.19,11.61 23.76,11.39 23.68,11.24 23.60,11.09 23.58,10.92 23.55,10.75 23.58,10.58 23.61,10.41 23.70,10.26 23.78,10.11 23.90,10.00 24.03,9.88 24.19,9.81 24.34,9.74 24.51,9.73 24.68,9.71 24.85,9.75 25.02,9.79 25.16,9.88 25.31,9.97 25.41,10.10 25.52,10.23 25.58,10.39 25.65,10.55 25.65,10.72 25.66,10.89 25.61,11.06 25.56,11.22 25.46,11.36 25.37,11.50 25.23,11.60 25.09,11.70 24.93,11.76 24.77,11.81 24.59,11.81 24.42,11.80 24.26,11.75 24.10,11.69 23.97,11.58 23.83,11.48 23.74,11.34 23.65,11.19 23.60,11.03 23.56,10.86 23.57,10.69 23.58,10.52 23.65,10.36 23.71,10.21 23.83,10.08 23.94,9.95 24.09,9.86 24.23,9.78 24.40,9.74 24.57,9.71 24.74,9.73 24.91,9.75 25.06,9.82 25.22,9.90 24.91,9.80 24.61,9.71 24.74,9.72 24.86,9.74 24.98,9.78 25.10,9.83 25.20,9.90 25.31,9.97 25.39,10.07 25.48,10.16 25.54,10.28 25.60,10.39 25.63,10.51 25.66,10.64 25.66,10.76 25.66,10.89 25.63,11.01 25.60,11.14 25.54,11.25 25.48,11.36 25.40,11.46 25.31,11.55 25.21,11.63 25.10,11.70 24.98,11.74 24.86,11.79 24.74,11.80 24.61,11.82 24.97,13.24 25.32,14.66 24.39,14.72 23.46,14.78 22.68,14.75 21.91,14.73 21.12,14.70 20.33,14.68 19.51,14.65 18.70,14.63 17.82,14.63 16.93,14.62 15.89,14.70 14.84,14.77 13.44,14.93 12.04,15.09 10.74,15.47 9.44,15.86 7.30,16.79 5.16,17.72 2.22,18.86 -0.71,19.99 -2.41,20.56 -4.11,21.12 -4.87,21.29 -5.63,21.46 -6.68,22.05 -7.73,22.65 -9.14,22.84 -10.55,23.03 -11.39,22.32 -12.23,21.61 -11.93,20.16 -11.63,18.71 -11.60,17.86 -11.57,17.01 -11.53,16.04 -11.49,15.06 -11.43,13.76 -11.36,12.46 -11.08,11.57 -10.79,10.69 -10.35,10.07 -9.91,9.45 -9.73,8.62 -9.56,7.79 -9.16,6.91 -8.76,6.04 -8.08,5.27 -7.40,4.49 -6.68,3.61 -5.96,2.72 -4.54,1.88 -3.12,1.05 -1.82,0.13 -0.51,-0.77 -0.41,-0.82 -0.31,-0.87 -0.20,-0.90 -0.09,-0.92 0.01,-0.92 0.12,-0.92 0.23,-0.89 0.34,-0.86 0.44,-0.81 0.54,-0.75 0.62,-0.68 0.70,-0.60 0.76,-0.51 0.83,-0.41 0.87,-0.31 0.90,-0.20 0.92,-0.09 0.93,0.01 0.91,0.12 0.90,0.23 0.85,0.34 0.81,0.44 0.75,0.53 0.68,0.62 0.60,0.70 0.51,0.77 0.51,0.77 L 0.51,0.77 Z"></path></g><g transform="translate(900.3505853338088 400.5559569175332) rotate(0 0 10.769230769230717)" stroke="none"><path fill="#c2255c" d="M 0.91,0 Q 0.91,0 0.87,2.21 0.84,4.42 0.81,6.24 0.79,8.07 0.77,10.17 0.75,12.27 0.74,14.05 0.72,15.83 0.71,17.03 0.70,18.22 0.76,19.88 0.81,21.53 0.79,21.66 0.77,21.79 0.71,21.91 0.64,22.03 0.55,22.12 0.45,22.21 0.33,22.26 0.21,22.32 0.08,22.33 -0.04,22.35 -0.17,22.32 -0.30,22.29 -0.41,22.22 -0.52,22.15 -0.61,22.05 -0.69,21.95 -0.74,21.83 -0.79,21.71 -0.80,21.58 -0.80,21.45 -0.77,21.32 -0.73,21.19 -0.66,21.08 -0.59,20.97 -0.48,20.89 -0.38,20.81 -0.25,20.77 -0.13,20.73 0.00,20.73 0.13,20.73 0.25,20.77 0.38,20.81 0.48,20.89 0.59,20.97 0.66,21.08 0.73,21.19 0.77,21.32 0.80,21.45 0.80,21.58 0.79,21.71 0.74,21.83 0.69,21.95 0.61,22.05 0.52,22.15 0.41,22.22 0.30,22.29 0.17,22.32 0.04,22.35 -0.08,22.33 -0.21,22.32 -0.33,22.26 -0.45,22.21 -0.55,22.12 -0.64,22.03 -0.71,21.91 -0.77,21.79 -0.79,21.66 -0.81,21.53 -0.81,21.53 -0.81,21.53 -0.76,19.88 -0.70,18.22 -0.71,17.03 -0.72,15.83 -0.74,14.05 -0.75,12.27 -0.77,10.17 -0.79,8.07 -0.81,6.24 -0.84,4.42 -0.87,2.21 -0.91,0 -0.89,-0.10 -0.88,-0.21 -0.84,-0.32 -0.80,-0.42 -0.74,-0.51 -0.68,-0.60 -0.60,-0.67 -0.51,-0.75 -0.42,-0.80 -0.32,-0.85 -0.21,-0.87 -0.10,-0.90 0.00,-0.90 0.11,-0.90 0.21,-0.87 0.32,-0.85 0.42,-0.80 0.51,-0.75 0.60,-0.67 0.68,-0.60 0.74,-0.51 0.80,-0.42 0.84,-0.32 0.88,-0.21 0.89,-0.10 0.91,0.00 0.91,0.00 L 0.91,0 Z"></path></g><g transform="translate(920.3505853338088 388.2482646098408) rotate(0 6.153846153846075 20.769230769230774)" stroke="none"><path fill="#c2255c" d="M 0.91,0 Q 0.91,0 0.88,1.76 0.84,3.53 0.81,5.61 0.79,7.69 0.32,10.41 -0.13,13.12 -0.33,15.10 -0.53,17.09 -0.62,18.37 -0.71,19.66 -0.73,20.65 -0.76,21.65 -0.77,21.73 -0.79,21.82 -0.83,21.90 -0.86,21.98 -0.92,22.05 -0.97,22.12 -1.04,22.17 -1.11,22.23 -1.19,22.26 -1.27,22.30 -1.35,22.31 -1.44,22.33 -1.53,22.32 -1.62,22.32 -1.70,22.29 -1.78,22.27 -1.86,22.22 -1.93,22.17 -1.99,22.11 -2.06,22.05 -2.10,21.98 -2.15,21.90 -2.17,21.82 -2.20,21.73 -2.20,21.65 -2.21,21.56 -1.44,21.15 -0.67,20.74 -0.03,20.68 0.60,20.62 1.75,20.66 2.90,20.69 4.63,20.28 6.35,19.88 7.60,19.70 8.85,19.52 9.84,19.43 10.82,19.34 11.69,19.28 12.55,19.21 13.36,19.17 14.18,19.13 15.47,19.17 16.77,19.22 17.54,19.73 18.31,20.24 18.69,21.09 19.06,21.93 18.68,23.32 18.29,24.70 18.14,25.60 18.00,26.49 16.95,27.93 15.91,29.36 15.51,30.28 15.11,31.20 14.45,31.73 13.79,32.27 13.50,33.27 13.21,34.28 11.63,34.86 10.05,35.44 9.07,36.03 8.09,36.61 7.23,37.29 6.37,37.96 5.56,38.69 4.75,39.41 3.46,40.21 2.17,41.00 1.14,41.36 0.11,41.72 -0.79,41.91 -1.69,42.09 -2.56,42.18 -3.43,42.27 -5.01,41.54 -6.58,40.81 -6.70,40.72 -6.82,40.63 -6.91,40.51 -6.99,40.38 -7.03,40.24 -7.07,40.09 -7.06,39.94 -7.05,39.79 -7.00,39.65 -6.94,39.52 -6.84,39.40 -6.75,39.29 -6.62,39.21 -6.49,39.13 -6.34,39.10 -6.20,39.07 -6.05,39.09 -5.90,39.10 -5.76,39.17 -5.63,39.23 -5.52,39.33 -5.41,39.44 -5.34,39.57 -5.27,39.70 -5.25,39.85 -5.22,40.00 -5.25,40.14 -5.27,40.29 -5.34,40.42 -5.41,40.56 -5.52,40.66 -5.63,40.76 -5.77,40.83 -5.90,40.89 -6.05,40.90 -6.20,40.92 -6.35,40.89 -6.49,40.86 -6.62,40.78 -6.75,40.70 -6.85,40.59 -6.94,40.47 -7.00,40.33 -7.05,40.19 -7.06,40.04 -7.07,39.89 -7.03,39.75 -6.99,39.60 -6.90,39.48 -6.82,39.36 -6.70,39.27 -6.58,39.18 -6.44,39.13 -6.30,39.08 -6.15,39.08 -6.00,39.08 -5.86,39.13 -5.71,39.18 -5.71,39.18 -5.71,39.18 -4.56,39.90 -3.41,40.63 -2.67,40.60 -1.93,40.57 -1.13,40.48 -0.32,40.39 0.56,40.11 1.46,39.82 2.64,39.10 3.82,38.38 4.65,37.61 5.48,36.85 6.40,36.10 7.33,35.35 8.45,34.67 9.58,33.98 10.87,33.66 12.16,33.34 12.40,32.22 12.63,31.10 13.20,30.80 13.76,30.49 14.17,29.44 14.57,28.38 15.43,27.26 16.28,26.13 16.42,25.16 16.57,24.19 16.88,23.27 17.20,22.35 16.86,21.57 16.52,20.78 15.36,20.85 14.21,20.91 13.41,20.89 12.62,20.88 11.78,20.88 10.95,20.89 10.02,20.96 9.09,21.02 7.91,21.23 6.73,21.43 4.82,21.91 2.92,22.39 1.77,22.43 0.62,22.47 -0.06,22.06 -0.76,21.65 -0.77,21.73 -0.79,21.82 -0.83,21.90 -0.86,21.98 -0.92,22.05 -0.97,22.12 -1.04,22.17 -1.11,22.23 -1.19,22.26 -1.27,22.30 -1.35,22.31 -1.44,22.33 -1.53,22.32 -1.62,22.32 -1.70,22.29 -1.78,22.27 -1.86,22.22 -1.93,22.17 -1.99,22.11 -2.06,22.05 -2.10,21.98 -2.15,21.90 -2.17,21.82 -2.20,21.73 -2.20,21.65 -2.21,21.56 -2.17,20.57 -2.12,19.57 -2.05,18.26 -1.98,16.95 -1.80,14.91 -1.63,12.87 -1.21,10.28 -0.79,7.69 -0.81,5.61 -0.84,3.53 -0.88,1.76 -0.91,0 -0.90,-0.10 -0.88,-0.21 -0.84,-0.32 -0.81,-0.42 -0.74,-0.51 -0.68,-0.60 -0.60,-0.67 -0.51,-0.75 -0.42,-0.80 -0.32,-0.85 -0.21,-0.88 -0.11,-0.90 0.00,-0.90 0.11,-0.90 0.21,-0.88 0.32,-0.85 0.42,-0.80 0.51,-0.75 0.60,-0.67 0.68,-0.60 0.74,-0.51 0.81,-0.42 0.84,-0.32 0.88,-0.21 0.90,-0.10 0.91,0.00 0.91,0.00 L 0.91,0 Z"></path></g><g transform="translate(923.4275084107319 399.01749537907165) rotate(0 6.923076923076906 -2.307692307692321)" stroke="none"><path fill="#c2255c" d="M -0.68,-0.68 Q -0.68,-0.68 -0.21,-1.17 0.25,-1.66 1.56,-1.92 2.86,-2.18 3.70,-2.21 4.54,-2.24 6.02,-2.96 7.50,-3.67 8.76,-4.15 10.03,-4.62 11.83,-5.06 13.64,-5.50 13.79,-5.51 13.94,-5.52 14.08,-5.48 14.22,-5.44 14.34,-5.36 14.47,-5.27 14.56,-5.16 14.65,-5.04 14.69,-4.90 14.74,-4.76 14.74,-4.61 14.74,-4.47 14.69,-4.33 14.65,-4.19 14.56,-4.07 14.47,-3.95 14.35,-3.87 14.23,-3.78 14.08,-3.74 13.94,-3.70 13.79,-3.71 13.65,-3.72 13.51,-3.77 13.37,-3.83 13.26,-3.92 13.15,-4.02 13.07,-4.14 12.99,-4.27 12.96,-4.41 12.93,-4.56 12.95,-4.71 12.96,-4.85 13.02,-4.99 13.08,-5.12 13.19,-5.23 13.29,-5.34 13.42,-5.40 13.55,-5.47 13.69,-5.50 13.84,-5.52 13.98,-5.50 14.13,-5.48 14.26,-5.41 14.39,-5.34 14.49,-5.23 14.59,-5.12 14.66,-4.99 14.72,-4.86 14.74,-4.71 14.75,-4.56 14.72,-4.42 14.69,-4.27 14.61,-4.15 14.54,-4.02 14.43,-3.93 14.31,-3.83 14.18,-3.77 14.04,-3.72 14.04,-3.72 14.04,-3.72 12.34,-3.38 10.65,-3.04 9.25,-2.46 7.86,-1.87 7.04,-1.76 6.23,-1.65 5.67,-1.12 5.10,-0.59 4.14,-0.46 3.19,-0.33 2.35,-0.21 1.51,-0.09 1.09,0.29 0.68,0.68 0.59,0.75 0.49,0.82 0.39,0.87 0.28,0.92 0.17,0.94 0.05,0.96 -0.05,0.95 -0.17,0.95 -0.28,0.91 -0.39,0.88 -0.49,0.82 -0.59,0.76 -0.67,0.67 -0.76,0.59 -0.82,0.49 -0.88,0.39 -0.91,0.28 -0.95,0.17 -0.95,0.05 -0.96,-0.05 -0.94,-0.17 -0.92,-0.28 -0.87,-0.39 -0.82,-0.49 -0.75,-0.59 -0.68,-0.68 -0.68,-0.68 L -0.68,-0.68 Z"></path></g><g transform="translate(941.8890468722702 388.2482646098408) rotate(0 6.153846153846189 5.384615384615415)" stroke="none"><path fill="#c2255c" d="M 1.01,-0.33 Q 1.01,-0.33 1.40,1.00 1.79,2.35 1.97,3.42 2.14,4.50 2.23,5.41 2.33,6.32 2.38,7.15 2.44,7.99 2.46,8.75 2.49,9.52 2.84,10.06 3.20,10.61 4.25,10.83 5.30,11.05 5.99,11.09 6.67,11.13 7.41,11.14 8.14,11.16 9.25,11.26 10.37,11.36 10.66,10.58 10.95,9.80 11.00,9.20 11.05,8.59 11.08,7.89 11.11,7.19 11.12,6.45 11.14,5.71 11.15,4.99 11.17,4.27 10.81,3.75 10.46,3.22 9.93,2.51 9.40,1.81 8.80,1.57 8.19,1.33 7.74,0.63 7.28,-0.06 5.86,-0.22 4.43,-0.39 4.26,-0.45 4.08,-0.50 3.93,-0.62 3.78,-0.73 3.67,-0.88 3.56,-1.04 3.51,-1.22 3.46,-1.40 3.47,-1.58 3.48,-1.77 3.54,-1.95 3.61,-2.12 3.73,-2.27 3.85,-2.41 4.01,-2.51 4.17,-2.61 4.35,-2.65 4.54,-2.69 4.72,-2.67 4.91,-2.65 5.08,-2.58 5.25,-2.50 5.39,-2.37 5.53,-2.24 5.62,-2.08 5.71,-1.91 5.74,-1.73 5.77,-1.55 5.74,-1.36 5.71,-1.17 5.63,-1.01 5.54,-0.84 5.41,-0.71 5.27,-0.58 5.10,-0.50 4.93,-0.42 4.75,-0.40 4.56,-0.38 4.38,-0.41 4.19,-0.45 4.03,-0.55 3.87,-0.64 3.75,-0.78 3.62,-0.93 3.55,-1.10 3.48,-1.27 3.47,-1.46 3.46,-1.65 3.51,-1.83 3.55,-2.01 3.66,-2.17 3.76,-2.32 3.91,-2.44 4.06,-2.55 4.23,-2.61 4.41,-2.68 4.60,-2.68 4.79,-2.68 4.79,-2.68 4.79,-2.68 7.03,-1.52 9.28,-0.37 10.09,0.04 10.91,0.45 11.64,1.28 12.37,2.12 12.89,3.12 13.42,4.13 13.42,4.95 13.42,5.76 13.40,6.53 13.38,7.31 13.33,8.09 13.28,8.88 13.15,9.69 13.01,10.51 12.64,11.33 12.26,12.14 11.47,12.68 10.67,13.22 9.37,13.29 8.07,13.37 7.28,13.34 6.50,13.30 5.70,13.22 4.89,13.14 4.05,12.94 3.21,12.73 2.42,12.22 1.62,11.70 1.08,10.69 0.54,9.68 0.53,8.87 0.53,8.07 0.52,7.28 0.50,6.49 0.44,5.66 0.37,4.83 0.17,3.89 -0.02,2.95 -0.52,1.64 -1.01,0.33 -1.04,0.21 -1.06,0.08 -1.06,-0.04 -1.05,-0.17 -1.01,-0.29 -0.98,-0.41 -0.91,-0.53 -0.85,-0.64 -0.76,-0.73 -0.67,-0.82 -0.56,-0.89 -0.45,-0.96 -0.33,-1.00 -0.21,-1.04 -0.08,-1.05 0.04,-1.06 0.17,-1.04 0.29,-1.02 0.41,-0.97 0.53,-0.92 0.63,-0.84 0.74,-0.77 0.82,-0.67 0.90,-0.57 0.95,-0.45 1.01,-0.33 1.01,-0.33 L 1.01,-0.33 Z"></path></g><g transform="translate(128.04289302611642 162.09441845599474) rotate(0 0 25.38461538461536)" stroke="none"><path fill="#c2255c" d="M 0.79,0 Q 0.79,0 0.81,0.88 0.83,1.76 0.81,3.47 0.78,5.17 0.76,7.22 0.75,9.27 0.73,11.03 0.72,12.78 0.71,15.30 0.70,17.81 0.69,20.21 0.69,22.61 0.68,25.84 0.68,29.07 0.67,30.88 0.67,32.70 0.67,35.24 0.67,37.78 0.66,39.74 0.66,41.71 0.66,43.43 0.66,45.15 0.66,46.32 0.66,47.49 0.72,49.13 0.77,50.76 0.75,50.89 0.73,51.01 0.67,51.12 0.61,51.24 0.52,51.32 0.43,51.41 0.32,51.46 0.20,51.51 0.08,51.53 -0.04,51.54 -0.16,51.51 -0.28,51.49 -0.39,51.42 -0.50,51.36 -0.58,51.26 -0.66,51.17 -0.71,51.05 -0.75,50.93 -0.76,50.81 -0.77,50.68 -0.73,50.56 -0.70,50.44 -0.63,50.33 -0.56,50.23 -0.46,50.15 -0.36,50.08 -0.24,50.04 -0.12,50.00 0.00,50.00 0.12,50.00 0.24,50.04 0.36,50.08 0.46,50.15 0.56,50.23 0.63,50.33 0.70,50.44 0.73,50.56 0.77,50.68 0.76,50.81 0.75,50.93 0.71,51.05 0.66,51.17 0.58,51.26 0.50,51.36 0.39,51.42 0.28,51.49 0.16,51.51 0.04,51.54 -0.08,51.53 -0.20,51.51 -0.32,51.46 -0.43,51.41 -0.52,51.32 -0.61,51.23 -0.67,51.12 -0.73,51.01 -0.75,50.89 -0.77,50.76 -0.77,50.76 -0.77,50.76 -0.72,49.13 -0.66,47.49 -0.66,46.32 -0.66,45.15 -0.66,43.43 -0.66,41.71 -0.66,39.74 -0.67,37.78 -0.67,35.24 -0.67,32.70 -0.67,30.88 -0.68,29.07 -0.68,25.84 -0.69,22.61 -0.69,20.21 -0.70,17.81 -0.71,15.30 -0.72,12.78 -0.73,11.03 -0.75,9.27 -0.76,7.22 -0.78,5.17 -0.81,3.47 -0.83,1.76 -0.81,0.88 -0.79,0 -0.78,-0.09 -0.77,-0.19 -0.73,-0.27 -0.70,-0.36 -0.64,-0.44 -0.59,-0.52 -0.52,-0.59 -0.45,-0.65 -0.36,-0.69 -0.28,-0.74 -0.18,-0.76 -0.09,-0.78 0.00,-0.78 0.09,-0.78 0.18,-0.76 0.28,-0.74 0.36,-0.69 0.45,-0.65 0.52,-0.59 0.59,-0.52 0.64,-0.44 0.70,-0.36 0.73,-0.27 0.77,-0.19 0.78,-0.09 0.79,0.00 0.79,0.00 L 0.79,0 Z"></path></g><g transform="translate(841.8890468722702 326.7098030713794) rotate(0 23.84615384615381 -1.5384615384615472)" stroke="none"><path fill="#c2255c" d="M 0,-0.86 Q 0,-0.86 2.65,-0.83 5.30,-0.80 10.34,-1.66 15.39,-2.52 19.81,-2.89 24.22,-3.25 27.87,-3.40 31.52,-3.55 34.40,-3.61 37.27,-3.67 39.38,-3.69 41.49,-3.72 43.05,-3.76 44.60,-3.80 44.69,-3.79 44.78,-3.78 44.86,-3.75 44.94,-3.72 45.01,-3.67 45.09,-3.62 45.15,-3.56 45.20,-3.49 45.25,-3.42 45.29,-3.34 45.31,-3.25 45.33,-3.17 45.33,-3.08 45.34,-2.99 45.32,-2.91 45.30,-2.82 45.26,-2.74 45.22,-2.67 45.16,-2.60 45.10,-2.53 45.03,-2.48 44.96,-2.43 44.88,-2.40 44.79,-2.37 44.71,-2.35 44.62,-2.34 44.49,-2.37 44.35,-2.39 44.25,-2.45 44.15,-2.51 44.07,-2.60 43.99,-2.69 43.95,-2.80 43.90,-2.91 43.89,-3.02 43.88,-3.14 43.91,-3.25 43.94,-3.37 44.01,-3.47 44.07,-3.57 44.17,-3.64 44.26,-3.71 44.37,-3.75 44.48,-3.79 44.60,-3.79 44.72,-3.79 44.83,-3.76 44.94,-3.72 45.04,-3.65 45.13,-3.58 45.20,-3.48 45.27,-3.39 45.30,-3.27 45.33,-3.16 45.33,-3.04 45.32,-2.92 45.28,-2.81 45.24,-2.70 45.16,-2.61 45.09,-2.52 44.99,-2.46 44.89,-2.40 44.77,-2.37 44.66,-2.34 44.54,-2.36 44.42,-2.37 44.32,-2.41 44.21,-2.46 44.12,-2.54 44.04,-2.62 43.98,-2.73 43.92,-2.83 43.90,-2.95 43.88,-3.06 43.90,-3.18 43.92,-3.30 43.97,-3.40 44.02,-3.51 44.11,-3.59 44.19,-3.67 44.30,-3.72 44.41,-3.77 44.52,-3.79 44.64,-3.80 44.62,-3.80 44.60,-3.80 44.69,-3.79 44.78,-3.78 44.86,-3.75 44.94,-3.72 45.01,-3.67 45.09,-3.62 45.15,-3.56 45.20,-3.49 45.25,-3.42 45.29,-3.34 45.31,-3.25 45.33,-3.17 45.33,-3.08 45.34,-2.99 45.32,-2.91 45.30,-2.82 45.26,-2.74 45.22,-2.67 45.16,-2.60 45.10,-2.53 45.03,-2.48 44.96,-2.43 44.88,-2.40 44.79,-2.37 44.71,-2.35 44.62,-2.34 43.06,-2.34 41.51,-2.34 39.41,-2.31 37.31,-2.27 34.44,-2.20 31.58,-2.12 27.96,-1.95 24.35,-1.78 20.00,-1.39 15.65,-1.01 10.48,-0.10 5.30,0.80 2.65,0.83 0,0.86 -0.10,0.85 -0.20,0.84 -0.30,0.80 -0.40,0.76 -0.48,0.70 -0.57,0.64 -0.64,0.56 -0.71,0.49 -0.76,0.39 -0.80,0.30 -0.83,0.20 -0.85,0.10 -0.85,-0.00 -0.85,-0.10 -0.83,-0.20 -0.80,-0.30 -0.76,-0.39 -0.71,-0.49 -0.64,-0.56 -0.57,-0.64 -0.48,-0.70 -0.40,-0.76 -0.30,-0.80 -0.20,-0.84 -0.10,-0.85 0.00,-0.86 0.00,-0.86 L 0,-0.86 Z"></path></g><g transform="translate(863.4275084107317 332.86364922522546) rotate(0 14.615384615384642 6.923076923076962)" stroke="none"><path fill="#c2255c" d="M 0,-0.88 Q 0,-0.88 1.76,-0.85 3.53,-0.82 5.17,-0.80 6.81,-0.77 7.94,-0.76 9.08,-0.74 10.45,-0.73 11.82,-0.72 12.84,-0.72 13.87,-0.72 15.19,-0.71 16.51,-0.70 17.51,-0.71 18.51,-0.71 19.38,-0.75 20.25,-0.78 21.19,-0.75 22.13,-0.72 22.73,-0.19 23.32,0.33 23.57,1.21 23.82,2.09 23.41,3.07 23.00,4.05 22.33,4.86 21.65,5.67 19.95,6.92 18.26,8.17 17.05,8.70 15.84,9.23 14.47,9.86 13.11,10.50 12.06,10.76 11.01,11.02 10.75,11.53 10.48,12.03 9.78,12.36 9.08,12.70 8.76,13.34 8.44,13.98 8.32,14.01 8.20,14.04 8.08,14.04 7.96,14.04 7.84,14.01 7.72,13.98 7.62,13.93 7.51,13.87 7.42,13.79 7.33,13.71 7.26,13.61 7.19,13.51 7.14,13.39 7.10,13.28 7.08,13.16 7.07,13.04 7.08,12.92 7.10,12.80 7.14,12.68 7.19,12.57 7.25,12.47 7.32,12.37 7.41,12.29 7.51,12.21 7.61,12.15 7.72,12.09 8.81,12.33 9.90,12.57 11.01,12.69 12.12,12.81 13.94,12.89 15.75,12.96 16.97,13.00 18.20,13.04 19.60,13.06 21.00,13.09 22.48,13.10 23.96,13.12 25.02,13.13 26.07,13.14 26.70,12.96 27.32,12.77 26.52,12.37 25.71,11.96 24.14,10.97 22.56,9.98 22.46,9.88 22.35,9.78 22.28,9.65 22.21,9.52 22.19,9.38 22.16,9.23 22.18,9.08 22.21,8.94 22.28,8.81 22.34,8.68 22.45,8.58 22.56,8.47 22.69,8.41 22.82,8.35 22.97,8.33 23.12,8.32 23.26,8.35 23.40,8.38 23.53,8.45 23.66,8.53 23.75,8.64 23.85,8.75 23.91,8.89 23.96,9.03 23.97,9.17 23.98,9.32 23.94,9.46 23.90,9.60 23.82,9.73 23.74,9.85 23.62,9.94 23.50,10.03 23.36,10.08 23.22,10.12 23.08,10.13 22.93,10.13 22.79,10.08 22.65,10.03 22.53,9.94 22.41,9.86 22.33,9.73 22.25,9.61 22.21,9.47 22.17,9.33 22.17,9.18 22.18,9.03 22.23,8.90 22.29,8.76 22.38,8.65 22.48,8.53 22.60,8.46 22.73,8.38 22.87,8.35 23.02,8.32 23.16,8.33 23.31,8.35 23.45,8.41 23.58,8.47 23.58,8.47 23.58,8.47 24.89,9.41 26.20,10.36 27.22,10.76 28.23,11.16 28.35,12.15 28.47,13.14 27.30,13.84 26.13,14.53 25.05,14.55 23.96,14.56 22.47,14.57 20.99,14.57 19.58,14.58 18.17,14.59 16.94,14.60 15.71,14.60 13.85,14.59 11.98,14.58 10.21,14.28 8.44,13.98 8.32,14.01 8.20,14.04 8.08,14.04 7.96,14.04 7.84,14.01 7.72,13.98 7.62,13.93 7.51,13.87 7.42,13.79 7.33,13.71 7.26,13.61 7.19,13.51 7.14,13.39 7.10,13.28 7.08,13.16 7.07,13.04 7.08,12.92 7.10,12.80 7.14,12.68 7.18,12.57 7.25,12.47 7.32,12.37 7.41,12.29 7.51,12.21 7.61,12.15 7.72,12.09 7.93,11.65 8.15,11.20 8.70,11.06 9.25,10.91 9.85,10.30 10.45,9.68 11.44,9.38 12.43,9.08 13.79,8.40 15.14,7.71 16.16,7.22 17.18,6.73 18.65,5.58 20.13,4.42 20.66,3.75 21.19,3.07 21.54,2.63 21.89,2.19 21.75,1.46 21.61,0.72 20.93,0.75 20.25,0.78 19.38,0.75 18.51,0.71 17.51,0.71 16.51,0.70 15.19,0.71 13.87,0.72 12.84,0.72 11.82,0.72 10.45,0.73 9.08,0.74 7.94,0.76 6.81,0.77 5.17,0.80 3.53,0.82 1.76,0.85 0,0.88 -0.10,0.87 -0.21,0.86 -0.31,0.82 -0.41,0.78 -0.50,0.72 -0.58,0.66 -0.65,0.58 -0.72,0.50 -0.77,0.40 -0.82,0.31 -0.85,0.21 -0.88,0.10 -0.88,-0.00 -0.88,-0.10 -0.85,-0.21 -0.82,-0.31 -0.77,-0.40 -0.72,-0.50 -0.65,-0.58 -0.58,-0.66 -0.49,-0.72 -0.41,-0.78 -0.31,-0.82 -0.21,-0.86 -0.10,-0.87 0.00,-0.88 0.00,-0.88 L 0,-0.88 Z"></path></g><g transform="translate(869.5813545645779 282.09441845599474) rotate(0 -0.7692307692307168 16.923076923076906)" stroke="none"><path fill="#c2255c" d="M 0.88,0.29 Q 0.88,0.29 0.40,1.60 -0.07,2.91 -0.26,4.71 -0.46,6.51 -0.56,9.05 -0.65,11.60 -0.70,13.57 -0.75,15.55 -0.77,16.83 -0.80,18.11 -0.80,19.09 -0.79,20.08 -0.76,20.94 -0.74,21.80 -0.70,22.61 -0.67,23.42 -0.65,24.20 -0.62,24.99 -0.65,26.65 -0.69,28.31 -0.71,29.46 -0.74,30.61 -0.69,32.22 -0.65,33.84 -0.67,33.98 -0.69,34.12 -0.76,34.25 -0.83,34.38 -0.93,34.48 -1.04,34.57 -1.17,34.63 -1.30,34.69 -1.44,34.71 -1.58,34.73 -1.72,34.69 -1.86,34.66 -1.98,34.59 -2.11,34.52 -2.20,34.41 -2.29,34.30 -2.35,34.16 -2.40,34.03 -2.41,33.89 -2.41,33.75 -2.38,33.61 -2.34,33.47 -2.26,33.35 -2.18,33.23 -2.06,33.15 -1.95,33.06 -1.81,33.01 -1.68,32.97 -1.53,32.97 -1.39,32.97 -1.25,33.01 -1.12,33.06 -1.00,33.15 -0.89,33.23 -0.81,33.35 -0.73,33.47 -0.69,33.61 -0.65,33.75 -0.66,33.89 -0.67,34.03 -0.72,34.16 -0.77,34.30 -0.87,34.41 -0.96,34.52 -1.08,34.59 -1.21,34.66 -1.35,34.69 -1.49,34.73 -1.63,34.71 -1.77,34.69 -1.90,34.63 -2.03,34.57 -2.13,34.48 -2.24,34.38 -2.31,34.25 -2.37,34.12 -2.40,33.98 -2.42,33.84 -2.42,33.84 -2.42,33.84 -2.37,32.22 -2.33,30.61 -2.35,29.46 -2.38,28.31 -2.41,26.65 -2.45,24.99 -2.42,24.20 -2.39,23.41 -2.36,22.60 -2.32,21.80 -2.29,20.93 -2.26,20.07 -2.24,19.08 -2.22,18.09 -2.22,16.81 -2.22,15.52 -2.20,13.54 -2.18,11.55 -2.12,8.95 -2.05,6.35 -1.87,4.37 -1.69,2.38 -1.28,1.04 -0.88,-0.29 -0.83,-0.39 -0.78,-0.49 -0.71,-0.58 -0.64,-0.66 -0.55,-0.73 -0.46,-0.80 -0.36,-0.84 -0.25,-0.89 -0.14,-0.91 -0.03,-0.92 0.07,-0.91 0.18,-0.91 0.29,-0.87 0.39,-0.83 0.49,-0.77 0.58,-0.71 0.66,-0.63 0.74,-0.55 0.79,-0.46 0.85,-0.36 0.88,-0.25 0.91,-0.14 0.92,-0.03 0.92,0.07 0.90,0.18 0.88,0.29 0.88,0.29 L 0.88,0.29 Z"></path></g><g transform="translate(449.58135456457796 449.78672614830236) rotate(0 2.307692307692321 22.30769230769232)" stroke="none"><path fill="#c2255c" d="M 0.83,0 Q 0.83,0 0.85,0.88 0.86,1.76 1.26,3.36 1.66,4.97 2.27,7.01 2.88,9.05 3.14,11.31 3.41,13.58 3.51,15.87 3.62,18.15 3.66,20.45 3.70,22.75 3.71,24.17 3.73,25.59 3.74,26.63 3.75,27.68 3.78,28.54 3.81,29.41 4.23,30.07 4.65,30.72 4.90,31.60 5.16,32.48 5.22,33.77 5.29,35.06 5.30,36.49 5.31,37.93 4.85,39.10 4.38,40.27 4.24,41.10 4.10,41.92 4.06,42.72 4.01,43.52 3.17,45.07 2.33,46.63 2.23,46.74 2.13,46.86 2.00,46.93 1.88,47.01 1.73,47.04 1.58,47.07 1.43,47.06 1.29,47.04 1.15,46.98 1.01,46.92 0.90,46.81 0.80,46.71 0.73,46.58 0.66,46.44 0.63,46.30 0.61,46.15 0.63,46.00 0.66,45.85 0.73,45.72 0.80,45.59 0.90,45.48 1.01,45.38 1.15,45.32 1.29,45.26 1.43,45.24 1.58,45.22 1.73,45.26 1.88,45.29 2.00,45.37 2.13,45.44 2.23,45.56 2.33,45.67 2.38,45.81 2.44,45.95 2.45,46.10 2.45,46.25 2.41,46.39 2.37,46.54 2.29,46.66 2.21,46.79 2.09,46.88 1.97,46.97 1.83,47.02 1.68,47.06 1.53,47.06 1.38,47.06 1.24,47.02 1.10,46.97 0.98,46.88 0.86,46.79 0.78,46.66 0.69,46.54 0.65,46.39 0.61,46.25 0.62,46.10 0.63,45.95 0.68,45.81 0.74,45.67 0.74,45.67 0.74,45.67 1.55,44.48 2.36,43.29 2.47,42.45 2.58,41.61 2.80,40.67 3.03,39.72 3.42,38.82 3.81,37.91 3.75,36.54 3.70,35.17 3.60,34.02 3.50,32.87 3.38,32.16 3.26,31.46 2.79,30.48 2.32,29.50 2.35,28.59 2.37,27.69 2.36,26.65 2.35,25.61 2.33,24.19 2.30,22.78 2.24,20.50 2.19,18.23 2.07,15.99 1.94,13.76 1.67,11.63 1.40,9.50 0.75,7.43 0.09,5.37 -0.38,3.57 -0.86,1.77 -0.85,0.88 -0.83,0 -0.82,-0.10 -0.81,-0.20 -0.77,-0.29 -0.74,-0.38 -0.68,-0.47 -0.62,-0.55 -0.55,-0.62 -0.47,-0.69 -0.38,-0.73 -0.29,-0.78 -0.19,-0.80 -0.10,-0.83 0.00,-0.83 0.10,-0.83 0.19,-0.80 0.29,-0.78 0.38,-0.73 0.47,-0.69 0.55,-0.62 0.62,-0.55 0.68,-0.47 0.74,-0.38 0.77,-0.29 0.81,-0.20 0.82,-0.10 0.83,0.00 0.83,0.00 L 0.83,0 Z"></path></g><g transform="translate(1134.1967391799626 463.6328799944562) rotate(0 3.0769230769230944 26.923076923076962)" stroke="none"><path fill="#c2255c" d="M 0.64,-0.43 Q 0.64,-0.43 1.52,0.90 2.39,2.23 3.21,3.71 4.03,5.19 4.82,6.71 5.61,8.22 5.97,9.83 6.33,11.44 6.47,13.47 6.62,15.49 6.68,17.23 6.73,18.96 6.76,20.14 6.78,21.32 6.79,22.71 6.80,24.10 6.80,25.57 6.81,27.05 6.81,28.56 6.81,30.07 6.81,31.16 6.81,32.25 6.35,33.69 5.89,35.13 5.72,36.11 5.55,37.08 5.51,37.93 5.47,38.77 5.47,39.57 5.48,40.37 5.50,41.14 5.51,41.92 5.53,42.73 5.54,43.53 5.04,44.50 4.54,45.48 3.89,46.65 3.23,47.83 2.99,48.65 2.74,49.47 3.06,50.10 3.39,50.74 4.27,51.89 5.15,53.05 5.26,53.16 5.38,53.26 5.45,53.40 5.52,53.54 5.54,53.69 5.57,53.84 5.54,54.00 5.52,54.15 5.45,54.29 5.37,54.42 5.26,54.53 5.15,54.64 5.01,54.70 4.87,54.77 4.71,54.78 4.56,54.80 4.41,54.77 4.25,54.73 4.12,54.65 3.99,54.57 3.89,54.45 3.79,54.33 3.73,54.19 3.67,54.05 3.67,53.89 3.66,53.74 3.70,53.59 3.74,53.44 3.83,53.31 3.92,53.18 4.04,53.09 4.16,52.99 4.31,52.94 4.46,52.89 4.61,52.89 4.77,52.89 4.91,52.94 5.06,52.99 5.18,53.09 5.31,53.18 5.39,53.31 5.48,53.44 5.52,53.59 5.56,53.74 5.56,53.89 5.55,54.05 5.49,54.19 5.43,54.34 5.33,54.46 5.23,54.57 5.10,54.65 4.96,54.73 4.81,54.77 4.66,54.80 4.51,54.78 4.35,54.76 4.21,54.70 4.07,54.63 4.07,54.63 4.07,54.63 2.93,52.99 1.78,51.35 1.45,50.29 1.12,49.23 1.41,48.13 1.70,47.04 2.31,45.79 2.91,44.54 3.31,43.97 3.70,43.39 3.72,42.64 3.75,41.89 3.80,41.09 3.84,40.30 3.92,39.47 3.99,38.64 4.11,37.74 4.23,36.84 4.43,35.78 4.64,34.72 5.06,33.48 5.49,32.23 5.49,31.15 5.48,30.07 5.48,28.56 5.48,27.05 5.47,25.58 5.47,24.11 5.45,22.73 5.44,21.35 5.41,20.18 5.38,19.01 5.32,17.30 5.26,15.59 5.12,13.66 4.98,11.74 4.67,10.30 4.36,8.87 3.56,7.38 2.77,5.90 1.96,4.48 1.14,3.06 0.24,1.75 -0.64,0.43 -0.69,0.34 -0.73,0.26 -0.75,0.17 -0.77,0.08 -0.77,-0.01 -0.77,-0.10 -0.74,-0.19 -0.72,-0.28 -0.68,-0.37 -0.63,-0.45 -0.57,-0.52 -0.50,-0.59 -0.43,-0.64 -0.35,-0.69 -0.26,-0.72 -0.17,-0.76 -0.08,-0.77 0.01,-0.78 0.10,-0.76 0.19,-0.75 0.28,-0.72 0.37,-0.68 0.45,-0.63 0.52,-0.57 0.58,-0.50 0.64,-0.43 0.64,-0.43 L 0.64,-0.43 Z"></path></g></svg>