<svg version="1.1" xmlns="http://www.w3.org/2000/svg" viewBox="0 0 432.5972997318953 449.89602230076594" width="432.5972997318953" height="449.89602230076594" class="excalidraw-svg"><!-- svg-source:excalidraw --><metadata></metadata><defs><style class="style-fonts">
      </style></defs><rect x="0" y="0" width="432.5972997318953" height="449.89602230076594" fill="#ffffff"></rect><g stroke-linecap="round"><g transform="translate(34 380.89602230076594) rotate(0 129.22725494835524 0.018477593207393284)"><path d="M0.31 0.83 C43.57 0.63, 216.21 -0.8, 259.44 -0.79 M-0.98 0.22 C42.08 0.13, 214.91 0.54, 258.19 0.33" stroke="#e03131" stroke-width="2" fill="none"></path></g><g transform="translate(34 380.89602230076594) rotate(0 129.22725494835524 0.018477593207393284)"><path d="M234.71 8.9 C242.86 5.42, 246.94 3.32, 258.19 0.33 M234.71 8.9 C242.68 6.62, 252.91 3.26, 258.19 0.33" stroke="#e03131" stroke-width="2" fill="none"></path></g><g transform="translate(34 380.89602230076594) rotate(0 129.22725494835524 0.018477593207393284)"><path d="M234.69 -8.21 C242.9 -6.74, 246.99 -3.89, 258.19 0.33 M234.69 -8.21 C242.59 -4.12, 252.83 -1.12, 258.19 0.33" stroke="#e03131" stroke-width="2" fill="none"></path></g></g><mask></mask><g stroke-linecap="round"><g transform="translate(295 382.89602230076594) rotate(0 63.62396003838038 -109.98248840545298)"><path d="M-0.27 0.19 C20.97 -36.65, 106.17 -183.44, 127.52 -220.15 M1.79 -0.76 C22.9 -37.45, 105.81 -182.22, 126.74 -218.53" stroke="#1971c2" stroke-width="2" fill="none"></path></g><g transform="translate(295 382.89602230076594) rotate(0 63.62396003838038 -109.98248840545298)"><path d="M122.45 -193.9 C123.9 -200.88, 125.15 -207.92, 126.74 -218.53 M122.45 -193.9 C123.75 -201.69, 125.63 -209.49, 126.74 -218.53" stroke="#1971c2" stroke-width="2" fill="none"></path></g><g transform="translate(295 382.89602230076594) rotate(0 63.62396003838038 -109.98248840545298)"><path d="M107.62 -202.42 C113.66 -206.76, 119.43 -211.2, 126.74 -218.53 M107.62 -202.42 C113.65 -207.42, 120.26 -212.5, 126.74 -218.53" stroke="#1971c2" stroke-width="2" fill="none"></path></g></g><mask></mask><g stroke-linecap="round"><g transform="translate(422 163.89602230076596) rotate(0 -133.37633718361937 -77.06278359888546)"><path d="M0.18 -0.23 C-44 -25.86, -221.79 -128.28, -266.21 -153.9 M-1.19 -1.4 C-45.38 -26.8, -222.64 -127.14, -266.93 -152.33" stroke="#f08c00" stroke-width="2" fill="none"></path></g><g transform="translate(422 163.89602230076596) rotate(0 -133.37633718361937 -77.06278359888546)"><path d="M-242.28 -148.17 C-247.61 -148.24, -252.09 -149.29, -266.93 -152.33 M-242.28 -148.17 C-248.8 -149.97, -257.82 -150.44, -266.93 -152.33" stroke="#f08c00" stroke-width="2" fill="none"></path></g><g transform="translate(422 163.89602230076596) rotate(0 -133.37633718361937 -77.06278359888546)"><path d="M-250.71 -133.3 C-254.34 -136.37, -257.12 -140.4, -266.93 -152.33 M-250.71 -133.3 C-254.78 -139.54, -261.24 -144.53, -266.93 -152.33" stroke="#f08c00" stroke-width="2" fill="none"></path></g></g><mask></mask><g stroke-linecap="round"><g transform="translate(35 382.89602230076594) rotate(0 193.62364506158977 -109.66091054890305)"><path d="M0.73 0.19 C65.37 -36.23, 323.08 -181.48, 387.6 -217.94 M-0.35 -0.75 C64.21 -37.53, 322.33 -182.85, 386.96 -219.51" stroke="#2f9e44" stroke-width="2" fill="none"></path></g><g transform="translate(35 382.89602230076594) rotate(0 193.62364506158977 -109.66091054890305)"><path d="M370.71 -200.51 C375.48 -204.92, 381.45 -209.87, 386.96 -219.51 M370.71 -200.51 C375.85 -207.56, 381.17 -213.71, 386.96 -219.51" stroke="#2f9e44" stroke-width="2" fill="none"></path></g><g transform="translate(35 382.89602230076594) rotate(0 193.62364506158977 -109.66091054890305)"><path d="M362.3 -215.4 C369.48 -215.7, 377.8 -216.51, 386.96 -219.51 M362.3 -215.4 C370.11 -217.41, 378.24 -218.59, 386.96 -219.51" stroke="#2f9e44" stroke-width="2" fill="none"></path></g></g><mask></mask><g stroke-linecap="round"><g transform="translate(297 383.89602230076594) rotate(0 -70.04781663644127 -185.67685765680858)"><path d="M0.96 0.1 C-22.33 -61.5, -116.44 -307.81, -140.07 -369.56 M0 -0.9 C-23.41 -62.86, -117.99 -310.05, -141.06 -371.45" stroke="#1e1e1e" stroke-width="2" fill="none"></path></g><g transform="translate(297 383.89602230076594) rotate(0 -70.04781663644127 -185.67685765680858)"><path d="M-124.72 -352.52 C-128.98 -357.62, -132.81 -364.03, -141.06 -371.45 M-124.72 -352.52 C-129.35 -357.77, -133.48 -362.45, -141.06 -371.45" stroke="#1e1e1e" stroke-width="2" fill="none"></path></g><g transform="translate(297 383.89602230076594) rotate(0 -70.04781663644127 -185.67685765680858)"><path d="M-140.71 -346.45 C-140.65 -353.31, -140.16 -361.36, -141.06 -371.45 M-140.71 -346.45 C-141.04 -353.48, -140.92 -359.77, -141.06 -371.45" stroke="#1e1e1e" stroke-width="2" fill="none"></path></g></g><mask></mask><g transform="translate(159 417.89602230076594) rotate(0 -4.5 9.5)" stroke="none"><path fill="#e03131" d="M -1.45,2.18 Q -1.45,2.18 -2.33,1.63 -3.21,1.08 -4.53,0.54 -5.85,-0.00 -7.05,-0.00 -8.26,-0.00 -9.23,0.49 -10.21,0.98 -11.35,2.69 -12.49,4.39 -13.17,5.36 -13.85,6.34 -13.97,8.51 -14.09,10.68 -14.22,12.49 -14.36,14.29 -14.11,15.37 -13.87,16.45 -13.15,17.45 -12.43,18.45 -11.39,17.55 -10.35,16.65 -9.28,14.94 -8.21,13.23 -7.66,12.13 -7.12,11.02 -6.77,9.95 -6.42,8.88 -6.34,7.29 -6.26,5.70 -6.19,5.32 -6.11,4.94 -5.94,4.58 -5.78,4.23 -5.53,3.93 -5.29,3.62 -4.98,3.39 -4.66,3.15 -4.31,3.00 -3.95,2.84 -3.56,2.78 -3.18,2.72 -2.79,2.75 -2.40,2.78 -2.03,2.90 -1.66,3.02 -1.33,3.23 -1.00,3.43 -0.73,3.71 -0.46,3.99 -0.26,4.33 -0.06,4.67 0.04,5.04 0.15,5.42 0.16,5.81 0.18,6.20 0.15,8.52 0.12,10.85 0.14,12.43 0.16,14.00 0.49,15.05 0.82,16.09 2.13,15.49 3.43,14.89 4.67,14.14 5.90,13.39 6.37,13.13 6.84,12.86 7.37,12.76 7.90,12.66 8.44,12.73 8.97,12.80 9.46,13.04 9.94,13.28 10.32,13.66 10.70,14.04 10.95,14.53 11.19,15.01 11.26,15.55 11.33,16.08 11.23,16.61 11.13,17.14 10.87,17.61 10.60,18.08 10.20,18.45 9.80,18.81 9.30,19.02 8.80,19.23 8.27,19.28 7.73,19.32 7.20,19.19 6.68,19.06 6.22,18.77 5.77,18.48 5.43,18.06 5.09,17.64 4.90,17.13 4.72,16.63 4.70,16.09 4.69,15.55 4.84,15.03 5.00,14.51 5.32,14.08 5.63,13.64 6.07,13.32 6.51,13.01 7.02,12.85 7.54,12.69 8.08,12.70 8.62,12.72 9.13,12.90 9.64,13.09 10.06,13.42 10.48,13.76 10.77,14.22 11.06,14.67 11.19,15.20 11.32,15.72 11.28,16.26 11.24,16.80 11.02,17.29 10.81,17.79 10.45,18.19 10.09,18.60 10.09,18.60 10.09,18.60 7.79,19.96 5.48,21.33 4.32,21.44 3.16,21.56 0.55,21.62 -2.05,21.68 -3.65,20.26 -5.26,18.84 -5.72,17.62 -6.17,16.41 -6.17,15.21 -6.16,14.00 -6.14,12.43 -6.12,10.86 -6.19,9.41 -6.26,7.97 -6.26,6.84 -6.26,5.70 -6.19,5.32 -6.11,4.94 -5.94,4.58 -5.78,4.23 -5.53,3.93 -5.29,3.62 -4.98,3.39 -4.67,3.15 -4.31,3.00 -3.95,2.84 -3.56,2.78 -3.18,2.72 -2.79,2.75 -2.40,2.78 -2.03,2.90 -1.66,3.02 -1.33,3.23 -1.00,3.43 -0.73,3.71 -0.46,3.99 -0.26,4.33 -0.06,4.67 0.04,5.04 0.15,5.42 0.16,5.81 0.18,6.19 0.14,6.84 0.10,7.48 -0.00,8.57 -0.11,9.67 -0.66,11.18 -1.22,12.70 -1.83,13.83 -2.44,14.95 -3.29,16.40 -4.14,17.85 -4.70,18.87 -5.27,19.89 -5.98,20.96 -6.69,22.02 -7.89,23.05 -9.09,24.09 -11.53,24.16 -13.96,24.23 -14.87,23.64 -15.77,23.04 -16.89,21.45 -18.01,19.86 -18.48,18.69 -18.95,17.53 -19.26,15.89 -19.57,14.26 -19.66,12.38 -19.75,10.51 -19.77,8.77 -19.80,7.03 -19.56,5.46 -19.32,3.90 -18.14,2.25 -16.95,0.60 -16.22,-0.27 -15.50,-1.16 -14.29,-2.67 -13.09,-4.18 -11.96,-4.72 -10.83,-5.25 -9.52,-5.60 -8.21,-5.94 -6.94,-5.81 -5.67,-5.68 -3.97,-5.14 -2.27,-4.59 -1.25,-3.99 -0.23,-3.38 0.61,-2.78 1.45,-2.18 1.69,-1.98 1.94,-1.77 2.12,-1.51 2.30,-1.25 2.42,-0.96 2.54,-0.67 2.58,-0.35 2.63,-0.04 2.59,0.27 2.56,0.58 2.45,0.88 2.34,1.18 2.17,1.44 1.99,1.71 1.76,1.92 1.52,2.14 1.25,2.29 0.97,2.44 0.66,2.52 0.35,2.60 0.04,2.61 -0.27,2.61 -0.58,2.54 -0.89,2.47 -1.17,2.33 -1.45,2.18 -1.45,2.18 L -1.45,2.18 Z"></path></g><g transform="translate(136 406.89602230076594) rotate(0 14.5 0.5)" stroke="none"><path fill="#e03131" d="M 0.51,-2.56 Q 0.51,-2.56 1.94,-2.25 3.38,-1.95 4.80,-1.88 6.22,-1.80 7.28,-1.80 8.35,-1.79 10.42,-1.81 12.49,-1.83 14.50,-1.86 16.51,-1.89 17.82,-1.94 19.12,-2.00 20.68,-2.06 22.25,-2.13 23.66,-2.16 25.07,-2.19 27.03,-2.20 29.00,-2.22 29.51,-2.13 30.02,-2.05 30.49,-1.81 30.95,-1.56 31.30,-1.18 31.66,-0.80 31.88,-0.33 32.10,0.13 32.16,0.65 32.21,1.17 32.10,1.68 31.99,2.19 31.72,2.64 31.45,3.08 31.05,3.42 30.66,3.76 30.17,3.95 29.69,4.14 29.17,4.17 28.65,4.20 28.14,4.06 27.64,3.92 27.21,3.63 26.78,3.34 26.46,2.92 26.15,2.50 25.98,2.01 25.81,1.52 25.81,0.99 25.81,0.47 25.98,-0.01 26.15,-0.51 26.46,-0.92 26.78,-1.34 27.21,-1.63 27.64,-1.92 28.14,-2.06 28.65,-2.20 29.17,-2.17 29.69,-2.14 30.17,-1.95 30.66,-1.76 31.06,-1.42 31.45,-1.08 31.72,-0.63 31.99,-0.19 32.10,0.31 32.21,0.82 32.16,1.34 32.10,1.86 31.88,2.33 31.66,2.80 31.30,3.18 30.95,3.56 30.48,3.81 30.02,4.05 29.51,4.13 28.99,4.22 28.99,4.22 28.99,4.22 26.41,4.19 23.83,4.15 22.01,4.10 20.20,4.04 19.07,3.99 17.94,3.94 16.22,3.90 14.50,3.86 12.45,3.82 10.40,3.78 9.32,3.75 8.25,3.72 7.02,3.69 5.79,3.65 4.08,3.37 2.36,3.10 0.92,2.83 -0.51,2.56 -0.81,2.46 -1.11,2.36 -1.37,2.19 -1.64,2.03 -1.86,1.80 -2.08,1.57 -2.24,1.30 -2.40,1.03 -2.49,0.73 -2.57,0.42 -2.59,0.11 -2.60,-0.20 -2.54,-0.50 -2.48,-0.81 -2.35,-1.10 -2.21,-1.38 -2.01,-1.63 -1.81,-1.87 -1.56,-2.06 -1.31,-2.25 -1.02,-2.38 -0.73,-2.50 -0.42,-2.56 -0.11,-2.61 0.19,-2.58 0.51,-2.56 0.51,-2.56 L 0.51,-2.56 Z"></path></g><g transform="translate(160 397.89602230076594) rotate(0 7 7.5)" stroke="none"><path fill="#e03131" d="M 0.96,-2.42 Q 0.96,-2.42 2.39,-1.82 3.81,-1.21 5.52,-1.00 7.23,-0.78 8.29,-0.35 9.35,0.07 11.07,0.85 12.80,1.63 13.64,2.40 14.48,3.16 15.38,5.22 16.28,7.29 16.05,8.33 15.83,9.38 14.28,10.70 12.73,12.02 11.68,12.57 10.62,13.11 9.37,13.87 8.11,14.63 7.29,15.91 6.47,17.19 6.05,17.52 5.64,17.86 5.14,18.05 4.64,18.24 4.10,18.25 3.57,18.27 3.06,18.12 2.55,17.97 2.11,17.66 1.67,17.35 1.36,16.91 1.04,16.48 0.88,15.97 0.72,15.46 0.73,14.93 0.75,14.39 0.93,13.89 1.11,13.39 1.44,12.97 1.77,12.55 2.22,12.26 2.67,11.97 3.19,11.83 3.71,11.70 4.24,11.74 4.77,11.78 5.27,11.99 5.76,12.20 6.16,12.55 6.56,12.91 6.82,13.37 7.09,13.84 7.19,14.36 7.30,14.89 7.23,15.42 7.16,15.95 6.93,16.43 6.69,16.91 6.32,17.29 5.94,17.67 5.46,17.91 4.98,18.15 4.46,18.22 3.93,18.30 3.40,18.20 2.87,18.10 2.41,17.84 1.94,17.58 1.58,17.19 1.22,16.79 1.01,16.30 0.79,15.81 0.75,15.28 0.70,14.75 0.83,14.23 0.95,13.71 1.24,13.26 1.52,12.80 1.52,12.80 1.52,12.80 4.25,10.29 6.97,7.78 7.91,7.23 8.86,6.68 9.80,7.30 10.75,7.93 9.98,6.65 9.22,5.38 8.01,5.16 6.80,4.94 5.76,4.56 4.72,4.17 3.33,3.84 1.93,3.51 0.48,2.97 -0.96,2.42 -1.24,2.27 -1.52,2.12 -1.75,1.90 -1.98,1.69 -2.15,1.43 -2.33,1.17 -2.43,0.87 -2.54,0.57 -2.57,0.26 -2.60,-0.04 -2.56,-0.35 -2.52,-0.67 -2.40,-0.96 -2.28,-1.25 -2.10,-1.51 -1.92,-1.76 -1.68,-1.97 -1.44,-2.17 -1.16,-2.31 -0.88,-2.45 -0.57,-2.52 -0.26,-2.59 0.04,-2.59 0.36,-2.58 0.66,-2.50 0.96,-2.42 0.96,-2.42 L 0.96,-2.42 Z"></path></g><g transform="translate(393 275.89602230076594) rotate(0 8.5 21.5)" stroke="none"><path fill="#1971c2" d="M 1.89,0 Q 1.89,0 1.81,2.58 1.73,5.17 1.67,7.42 1.62,9.67 1.58,12.35 1.53,15.03 1.50,17.61 1.47,20.19 1.45,22.72 1.43,25.25 1.41,28.34 1.39,31.43 1.48,33.03 1.57,34.63 1.64,36.17 1.72,37.71 1.81,38.95 1.90,40.18 1.99,41.04 2.09,41.91 2.06,42.16 2.03,42.41 1.94,42.65 1.85,42.88 1.71,43.09 1.56,43.30 1.37,43.47 1.18,43.63 0.96,43.75 0.74,43.87 0.49,43.93 0.25,43.99 -0.00,43.99 -0.25,43.99 -0.49,43.93 -0.74,43.87 -0.96,43.75 -1.18,43.63 -1.37,43.47 -1.56,43.30 -1.71,43.09 -1.85,42.88 -1.94,42.65 -2.03,42.41 -2.06,42.16 -2.09,41.91 -1.78,40.30 -1.48,38.69 -1.18,37.07 -0.88,35.46 -0.44,34.40 -0.01,33.35 0.51,31.78 1.03,30.22 1.49,29.08 1.94,27.94 2.53,27.06 3.12,26.17 4.02,25.50 4.92,24.83 6.45,24.45 7.97,24.07 9.87,24.47 11.76,24.87 12.80,25.19 13.84,25.52 15.15,26.07 16.46,26.61 17.45,27.41 18.43,28.21 18.97,29.16 19.51,30.11 19.72,31.30 19.93,32.49 20.01,34.15 20.09,35.81 19.70,37.07 19.31,38.33 17.63,40.08 15.94,41.83 14.47,42.76 12.99,43.69 11.49,43.96 10.00,44.23 8.82,44.23 7.64,44.23 5.93,44.23 4.22,44.24 2.26,43.73 0.31,43.22 -0.18,43.02 -0.67,42.83 -1.08,42.49 -1.49,42.14 -1.77,41.69 -2.05,41.23 -2.17,40.72 -2.28,40.20 -2.23,39.66 -2.18,39.13 -1.96,38.65 -1.73,38.16 -1.37,37.77 -1.01,37.39 -0.54,37.13 -0.07,36.88 0.45,36.79 0.97,36.70 1.50,36.78 2.03,36.87 2.50,37.11 2.97,37.36 3.34,37.74 3.71,38.13 3.94,38.61 4.16,39.09 4.23,39.62 4.29,40.15 4.18,40.67 4.06,41.19 3.79,41.65 3.52,42.11 3.12,42.46 2.71,42.81 2.22,43.01 1.72,43.21 1.19,43.24 0.66,43.27 0.15,43.13 -0.36,42.99 -0.80,42.70 -1.25,42.40 -1.57,41.98 -1.90,41.56 -2.07,41.05 -2.24,40.55 -2.25,40.02 -2.25,39.48 -2.08,38.98 -1.92,38.47 -1.60,38.04 -1.28,37.62 -0.84,37.32 -0.40,37.01 0.11,36.87 0.62,36.72 1.15,36.75 1.68,36.77 1.68,36.77 1.68,36.77 3.05,37.26 4.41,37.75 5.97,37.73 7.54,37.71 9.20,37.73 10.86,37.76 11.95,37.00 13.05,36.25 13.43,35.26 13.82,34.27 13.97,33.14 14.12,32.02 13.12,31.64 12.12,31.27 10.34,30.67 8.55,30.06 7.46,30.63 6.36,31.20 5.55,33.34 4.73,35.49 3.98,37.02 3.23,38.55 2.66,40.23 2.09,41.91 2.06,42.16 2.03,42.41 1.94,42.65 1.85,42.88 1.71,43.09 1.56,43.30 1.37,43.47 1.18,43.63 0.96,43.75 0.74,43.87 0.49,43.93 0.25,43.99 0.00,43.99 -0.25,43.99 -0.49,43.93 -0.74,43.87 -0.96,43.75 -1.18,43.63 -1.37,43.47 -1.56,43.30 -1.71,43.09 -1.85,42.88 -1.94,42.65 -2.03,42.41 -2.06,42.16 -2.09,41.91 -1.99,41.04 -1.90,40.18 -1.81,38.95 -1.72,37.71 -1.64,36.17 -1.57,34.63 -1.48,33.03 -1.39,31.43 -1.41,28.34 -1.43,25.25 -1.45,22.72 -1.47,20.19 -1.50,17.61 -1.53,15.03 -1.58,12.35 -1.62,9.67 -1.67,7.42 -1.73,5.17 -1.81,2.58 -1.89,0 -1.86,-0.22 -1.83,-0.45 -1.75,-0.66 -1.67,-0.87 -1.54,-1.06 -1.41,-1.25 -1.24,-1.40 -1.07,-1.55 -0.87,-1.66 -0.67,-1.76 -0.44,-1.82 -0.22,-1.87 0.00,-1.87 0.22,-1.87 0.44,-1.82 0.67,-1.76 0.87,-1.66 1.07,-1.55 1.24,-1.40 1.41,-1.25 1.54,-1.06 1.67,-0.87 1.75,-0.66 1.83,-0.45 1.86,-0.22 1.89,0.00 1.89,0.00 L 1.89,0 Z"></path></g><g transform="translate(385 274.89602230076594) rotate(0 12 1.5)" stroke="none"><path fill="#1971c2" d="M 0.58,-2.34 Q 0.58,-2.34 4.00,-1.34 7.41,-0.34 9.90,0.11 12.39,0.56 13.77,0.66 15.15,0.75 16.63,0.70 18.11,0.64 19.18,0.55 20.24,0.47 22.12,0.43 24.00,0.40 24.41,0.47 24.83,0.54 25.20,0.73 25.57,0.93 25.86,1.23 26.15,1.54 26.32,1.92 26.50,2.30 26.54,2.72 26.59,3.14 26.50,3.55 26.41,3.96 26.19,4.32 25.97,4.68 25.65,4.95 25.33,5.22 24.94,5.38 24.55,5.53 24.13,5.55 23.71,5.58 23.31,5.46 22.90,5.35 22.56,5.11 22.21,4.88 21.95,4.54 21.70,4.21 21.57,3.81 21.43,3.41 21.43,2.99 21.43,2.57 21.57,2.17 21.70,1.78 21.96,1.44 22.21,1.11 22.56,0.87 22.91,0.64 23.31,0.53 23.72,0.41 24.14,0.44 24.56,0.46 24.95,0.62 25.34,0.77 25.66,1.04 25.98,1.32 26.19,1.68 26.41,2.04 26.50,2.45 26.59,2.86 26.54,3.27 26.50,3.69 26.32,4.07 26.14,4.45 25.85,4.76 25.56,5.06 25.19,5.26 24.82,5.46 24.41,5.52 23.99,5.59 23.99,5.59 23.99,5.59 22.09,5.55 20.19,5.51 19.05,5.39 17.92,5.26 16.31,5.02 14.70,4.78 13.28,4.56 11.86,4.35 9.12,4.07 6.38,3.79 2.89,3.06 -0.58,2.34 -0.85,2.23 -1.12,2.13 -1.36,1.96 -1.60,1.80 -1.79,1.58 -1.99,1.36 -2.12,1.10 -2.26,0.84 -2.32,0.56 -2.39,0.28 -2.39,-0.00 -2.39,-0.29 -2.32,-0.58 -2.25,-0.86 -2.11,-1.12 -1.98,-1.37 -1.78,-1.59 -1.59,-1.81 -1.35,-1.97 -1.11,-2.14 -0.84,-2.24 -0.57,-2.34 -0.28,-2.38 0.00,-2.41 0.29,-2.37 0.58,-2.34 0.58,-2.34 L 0.58,-2.34 Z"></path></g><g transform="translate(404 269.89602230076594) rotate(0 6.5 6)" stroke="none"><path fill="#1971c2" d="M 0.50,-2.53 Q 0.50,-2.53 1.94,-2.23 3.37,-1.93 5.85,-1.09 8.33,-0.26 9.44,0.27 10.55,0.82 11.49,1.40 12.42,1.99 13.05,2.47 13.68,2.95 13.93,3.17 14.18,3.40 14.37,3.67 14.56,3.95 14.68,4.26 14.80,4.58 14.84,4.91 14.88,5.24 14.84,5.58 14.80,5.91 14.68,6.22 14.56,6.54 14.37,6.81 14.18,7.09 13.93,7.31 13.67,7.53 13.38,7.69 13.08,7.84 12.75,7.93 12.43,8.01 12.09,8.00 11.76,8.00 11.43,7.92 11.11,7.84 10.81,7.69 10.51,7.53 11.59,7.96 12.67,8.39 11.87,9.15 11.07,9.91 9.70,10.54 8.34,11.17 7.28,11.76 6.22,12.34 4.39,13.36 2.55,14.37 2.13,14.56 1.71,14.74 1.25,14.79 0.80,14.83 0.35,14.72 -0.09,14.62 -0.48,14.37 -0.87,14.13 -1.16,13.77 -1.45,13.42 -1.61,12.99 -1.78,12.56 -1.80,12.10 -1.81,11.64 -1.68,11.20 -1.55,10.76 -1.29,10.39 -1.03,10.01 -0.65,9.74 -0.28,9.47 0.14,9.33 0.58,9.19 1.04,9.19 1.50,9.20 1.93,9.35 2.37,9.51 2.73,9.79 3.09,10.08 3.34,10.46 3.59,10.84 3.71,11.29 3.82,11.73 3.79,12.19 3.76,12.65 3.58,13.07 3.40,13.50 3.10,13.84 2.80,14.19 2.40,14.42 2.00,14.65 1.55,14.74 1.10,14.83 0.65,14.78 0.19,14.72 -0.21,14.52 -0.63,14.32 -0.95,14.00 -1.28,13.68 -1.49,13.27 -1.70,12.86 -1.77,12.40 -1.83,11.95 -1.75,11.50 -1.67,11.04 -1.45,10.64 -1.23,10.24 -0.89,9.93 -0.55,9.62 -0.55,9.62 -0.55,9.62 1.46,8.57 3.49,7.53 5.43,6.64 7.38,5.75 8.24,4.93 9.10,4.11 11.39,3.53 13.68,2.95 13.93,3.17 14.18,3.40 14.37,3.67 14.56,3.95 14.68,4.26 14.80,4.58 14.84,4.91 14.88,5.24 14.84,5.58 14.80,5.91 14.68,6.22 14.56,6.54 14.37,6.81 14.18,7.09 13.93,7.31 13.67,7.53 13.38,7.69 13.08,7.84 12.75,7.93 12.43,8.01 12.09,8.00 11.76,8.00 11.43,7.92 11.11,7.84 10.81,7.69 10.51,7.53 9.34,6.53 8.17,5.54 7.08,4.97 5.98,4.41 4.17,3.74 2.37,3.08 0.93,2.80 -0.50,2.53 -0.80,2.43 -1.09,2.34 -1.36,2.17 -1.62,2.00 -1.84,1.78 -2.06,1.56 -2.21,1.29 -2.37,1.02 -2.46,0.72 -2.55,0.42 -2.56,0.11 -2.57,-0.19 -2.51,-0.50 -2.45,-0.80 -2.32,-1.09 -2.19,-1.37 -1.99,-1.61 -1.79,-1.85 -1.55,-2.04 -1.30,-2.23 -1.01,-2.35 -0.72,-2.48 -0.42,-2.53 -0.11,-2.58 0.19,-2.55 0.50,-2.53 0.50,-2.53 L 0.50,-2.53 Z"></path></g><g transform="translate(311 55.896022300765964) rotate(0 -8 11)" stroke="none"><path fill="#f08c00" d="M -0.36,2.52 Q -0.36,2.52 -2.35,2.10 -4.34,1.68 -5.71,1.59 -7.08,1.49 -8.58,1.53 -10.09,1.57 -11.85,1.63 -13.62,1.70 -14.08,3.15 -14.54,4.61 -14.87,7.11 -15.20,9.62 -15.25,11.45 -15.30,13.29 -14.08,14.53 -12.86,15.78 -11.90,16.35 -10.93,16.91 -9.24,17.70 -7.55,18.49 -5.82,19.13 -4.10,19.77 -2.41,18.42 -0.73,17.07 -0.35,16.68 0.02,16.30 0.51,16.05 0.99,15.81 1.52,15.73 2.06,15.65 2.59,15.75 3.12,15.85 3.59,16.11 4.07,16.37 4.43,16.77 4.80,17.17 5.01,17.67 5.23,18.16 5.28,18.70 5.33,19.24 5.20,19.76 5.08,20.29 4.79,20.75 4.50,21.21 4.08,21.55 3.66,21.89 3.16,22.08 2.65,22.27 2.11,22.29 1.57,22.31 1.05,22.16 0.53,22.00 0.09,21.69 -0.34,21.38 -0.66,20.94 -0.98,20.50 -1.14,19.99 -1.30,19.47 -1.29,18.93 -1.28,18.39 -1.10,17.88 -0.92,17.37 -0.58,16.95 -0.25,16.53 0.20,16.23 0.65,15.94 1.17,15.80 1.70,15.67 2.24,15.71 2.78,15.75 3.27,15.95 3.77,16.16 4.18,16.52 4.58,16.88 4.85,17.35 5.12,17.82 5.23,18.35 5.34,18.88 5.27,19.41 5.20,19.95 4.96,20.44 4.73,20.92 4.73,20.92 4.73,20.92 3.43,22.27 2.14,23.62 1.39,24.42 0.64,25.22 -0.74,25.72 -2.13,26.21 -3.87,26.06 -5.62,25.91 -7.39,25.21 -9.16,24.51 -10.52,23.65 -11.87,22.80 -13.40,22.16 -14.92,21.52 -16.17,20.25 -17.42,18.98 -18.61,17.39 -19.80,15.80 -20.22,14.76 -20.63,13.72 -20.54,11.49 -20.46,9.27 -20.40,7.36 -20.35,5.45 -19.50,2.93 -18.65,0.41 -18.17,-0.87 -17.70,-2.16 -15.65,-2.92 -13.59,-3.69 -11.76,-3.59 -9.92,-3.50 -8.30,-3.31 -6.68,-3.13 -5.19,-2.98 -3.70,-2.83 -1.67,-2.68 0.36,-2.52 0.65,-2.44 0.95,-2.36 1.22,-2.21 1.49,-2.06 1.71,-1.86 1.94,-1.65 2.11,-1.39 2.28,-1.13 2.38,-0.84 2.48,-0.55 2.52,-0.25 2.55,0.05 2.50,0.35 2.46,0.66 2.34,0.94 2.23,1.23 2.05,1.48 1.87,1.73 1.63,1.93 1.40,2.13 1.12,2.26 0.85,2.40 0.55,2.47 0.25,2.53 -0.05,2.53 -0.36,2.52 -0.36,2.52 L -0.36,2.52 Z"></path></g><g transform="translate(286 36.896022300765964) rotate(0 14.5 1)" stroke="none"><path fill="#f08c00" d="M 0.64,-2.25 Q 0.64,-2.25 2.62,-1.56 4.59,-0.86 6.43,-0.57 8.27,-0.29 9.92,-0.19 11.58,-0.10 12.86,-0.12 14.14,-0.14 15.82,-0.12 17.50,-0.10 19.22,-0.22 20.95,-0.35 22.36,-0.45 23.77,-0.55 26.13,-1.11 28.49,-1.67 28.93,-1.68 29.37,-1.69 29.79,-1.56 30.21,-1.43 30.57,-1.17 30.93,-0.92 31.18,-0.56 31.44,-0.20 31.57,0.21 31.70,0.64 31.68,1.08 31.67,1.52 31.52,1.93 31.36,2.34 31.09,2.69 30.81,3.03 30.44,3.27 30.06,3.50 29.64,3.61 29.21,3.71 28.77,3.67 28.33,3.64 27.92,3.46 27.52,3.29 27.19,2.99 26.87,2.70 26.65,2.31 26.43,1.93 26.35,1.49 26.27,1.06 26.33,0.62 26.39,0.19 26.59,-0.20 26.79,-0.59 27.10,-0.90 27.41,-1.21 27.81,-1.41 28.20,-1.60 28.64,-1.66 29.08,-1.72 29.51,-1.63 29.94,-1.55 30.33,-1.33 30.71,-1.11 31.00,-0.78 31.30,-0.46 31.47,-0.05 31.64,0.35 31.68,0.79 31.71,1.23 31.60,1.65 31.49,2.08 31.26,2.45 31.02,2.82 30.67,3.10 30.33,3.37 29.91,3.52 29.50,3.67 29.50,3.67 29.50,3.67 26.64,4.11 23.77,4.55 22.35,4.45 20.92,4.34 19.19,4.19 17.45,4.04 15.73,4.03 14.00,4.01 12.67,3.91 11.34,3.80 9.57,3.68 7.80,3.56 5.62,3.36 3.45,3.16 1.40,2.71 -0.64,2.25 -0.90,2.14 -1.16,2.03 -1.39,1.86 -1.61,1.69 -1.79,1.47 -1.97,1.26 -2.10,1.00 -2.22,0.75 -2.28,0.47 -2.33,0.19 -2.32,-0.08 -2.31,-0.36 -2.23,-0.63 -2.16,-0.91 -2.02,-1.15 -1.88,-1.40 -1.68,-1.60 -1.49,-1.81 -1.25,-1.96 -1.01,-2.11 -0.74,-2.20 -0.47,-2.29 -0.19,-2.32 0.08,-2.34 0.36,-2.29 0.64,-2.25 0.64,-2.25 L 0.64,-2.25 Z"></path></g><g transform="translate(309 30.896022300765964) rotate(0 9 5.5)" stroke="none"><path fill="#f08c00" d="M 0.59,-2.37 Q 0.59,-2.37 2.86,-1.65 5.12,-0.93 7.10,0.01 9.08,0.96 11.21,1.61 13.34,2.26 15.20,2.75 17.05,3.23 18.18,4.31 19.31,5.38 19.39,6.55 19.46,7.73 18.87,8.68 18.28,9.63 16.97,10.54 15.67,11.44 14.30,12.36 12.93,13.27 12.52,13.52 12.10,13.77 11.63,13.87 11.16,13.98 10.68,13.93 10.20,13.87 9.76,13.67 9.32,13.47 8.97,13.14 8.62,12.80 8.39,12.38 8.16,11.95 8.09,11.47 8.01,11.00 8.09,10.52 8.16,10.04 8.39,9.62 8.62,9.19 8.97,8.86 9.32,8.52 9.76,8.32 10.19,8.12 10.67,8.06 11.16,8.01 11.63,8.12 12.10,8.22 12.51,8.47 12.93,8.72 13.24,9.09 13.55,9.45 13.73,9.90 13.91,10.35 13.94,10.83 13.97,11.32 13.84,11.78 13.71,12.25 13.44,12.65 13.16,13.05 12.78,13.34 12.40,13.63 11.94,13.79 11.48,13.94 11.00,13.94 10.51,13.94 10.05,13.79 9.60,13.64 9.21,13.34 8.83,13.05 8.56,12.65 8.28,12.25 8.15,11.78 8.02,11.32 8.05,10.84 8.08,10.35 8.26,9.90 8.43,9.46 8.75,9.09 9.06,8.72 9.06,8.72 9.06,8.72 11.55,7.88 14.04,7.05 11.90,6.28 9.75,5.51 8.61,5.06 7.47,4.60 5.77,3.92 4.07,3.23 1.73,2.80 -0.59,2.37 -0.87,2.27 -1.14,2.16 -1.38,1.99 -1.63,1.82 -1.82,1.60 -2.02,1.38 -2.15,1.12 -2.29,0.86 -2.36,0.57 -2.43,0.28 -2.43,-0.00 -2.43,-0.30 -2.36,-0.59 -2.28,-0.87 -2.15,-1.13 -2.01,-1.39 -1.81,-1.61 -1.61,-1.84 -1.37,-2.00 -1.13,-2.17 -0.85,-2.27 -0.57,-2.38 -0.28,-2.41 0.00,-2.45 0.30,-2.41 0.59,-2.37 0.59,-2.37 L 0.59,-2.37 Z"></path></g><g transform="translate(142 275.89602230076594) rotate(0 2.5 8)" stroke="none"><path fill="#2f9e44" d="M -1.22,2.04 Q -1.22,2.04 -2.64,1.15 -4.06,0.26 -5.35,-0.03 -6.65,-0.33 -6.52,2.13 -6.39,4.61 -6.44,5.90 -6.50,7.20 -6.52,8.58 -6.54,9.95 -6.46,11.49 -6.38,13.03 -6.32,14.47 -6.27,15.90 -5.72,14.40 -5.18,12.91 -4.73,11.76 -4.27,10.60 -3.78,9.36 -3.29,8.12 -3.28,6.89 -3.26,5.66 -3.28,4.68 -3.30,3.70 -3.25,3.30 -3.20,2.91 -3.05,2.54 -2.90,2.17 -2.67,1.84 -2.44,1.52 -2.14,1.26 -1.84,1.00 -1.49,0.82 -1.13,0.64 -0.75,0.55 -0.36,0.45 0.03,0.46 0.43,0.46 0.81,0.56 1.20,0.66 1.55,0.85 1.90,1.04 2.19,1.31 2.49,1.58 2.71,1.91 2.93,2.24 3.07,2.61 3.21,2.98 3.25,3.38 3.29,3.78 3.32,5.03 3.35,6.29 3.34,7.50 3.34,8.71 4.14,9.91 4.95,11.11 6.02,10.82 7.10,10.54 8.56,9.66 10.03,8.79 10.74,7.76 11.46,6.73 11.89,6.38 12.31,6.03 12.83,5.84 13.35,5.65 13.90,5.64 14.45,5.62 14.98,5.78 15.50,5.94 15.95,6.26 16.40,6.58 16.72,7.03 17.04,7.48 17.21,8.00 17.37,8.53 17.35,9.08 17.34,9.63 17.15,10.15 16.96,10.67 16.62,11.10 16.27,11.53 15.81,11.82 15.34,12.12 14.81,12.25 14.28,12.39 13.73,12.34 13.18,12.30 12.67,12.08 12.17,11.87 11.75,11.50 11.34,11.13 11.07,10.65 10.80,10.17 10.70,9.63 10.59,9.09 10.67,8.55 10.74,8.00 10.98,7.51 11.23,7.01 11.62,6.62 12.01,6.23 12.50,5.99 12.99,5.74 13.54,5.67 14.08,5.59 14.62,5.69 15.16,5.80 15.64,6.07 16.12,6.34 16.49,6.75 16.86,7.16 17.08,7.66 17.30,8.17 17.34,8.72 17.39,9.27 17.26,9.80 17.12,10.34 16.83,10.80 16.53,11.27 16.53,11.26 16.53,11.26 14.20,13.38 11.87,15.49 10.87,16.07 9.87,16.65 7.77,17.01 5.67,17.37 3.77,17.07 1.86,16.77 0.85,16.06 -0.16,15.35 -1.32,13.43 -2.48,11.51 -2.91,10.24 -3.34,8.97 -3.34,7.63 -3.35,6.29 -3.32,5.00 -3.30,3.70 -3.25,3.30 -3.20,2.91 -3.05,2.54 -2.90,2.17 -2.67,1.84 -2.44,1.52 -2.14,1.26 -1.84,1.00 -1.49,0.82 -1.13,0.64 -0.75,0.55 -0.36,0.45 0.03,0.46 0.43,0.46 0.81,0.56 1.20,0.66 1.55,0.85 1.90,1.04 2.19,1.31 2.49,1.58 2.71,1.91 2.93,2.24 3.07,2.61 3.21,2.98 3.25,3.38 3.29,3.78 3.26,4.81 3.22,5.84 3.13,7.05 3.03,8.26 2.59,9.95 2.15,11.64 1.52,12.69 0.88,13.73 0.72,14.88 0.55,16.03 -0.13,17.39 -0.83,18.76 -1.75,19.45 -2.68,20.14 -3.84,20.56 -5.00,20.99 -6.64,20.82 -8.28,20.66 -9.57,19.60 -10.86,18.54 -11.29,17.35 -11.72,16.16 -11.65,14.57 -11.59,12.98 -11.46,11.41 -11.34,9.83 -11.30,8.37 -11.25,6.90 -11.13,5.57 -11.02,4.23 -10.88,1.36 -10.74,-1.50 -9.79,-2.95 -8.85,-4.40 -7.68,-4.80 -6.51,-5.20 -5.14,-4.96 -3.76,-4.71 -2.72,-4.21 -1.68,-3.71 -0.22,-2.88 1.22,-2.04 1.45,-1.87 1.68,-1.69 1.86,-1.46 2.03,-1.24 2.15,-0.98 2.27,-0.71 2.33,-0.43 2.38,-0.15 2.36,0.13 2.35,0.42 2.26,0.69 2.18,0.97 2.03,1.21 1.88,1.46 1.68,1.67 1.47,1.87 1.23,2.02 0.98,2.17 0.71,2.26 0.43,2.34 0.15,2.36 -0.13,2.38 -0.41,2.33 -0.70,2.28 -0.96,2.16 -1.22,2.04 -1.22,2.04 L -1.22,2.04 Z"></path></g><g transform="translate(119 270.89602230076594) rotate(0 11.5 -3.5)" stroke="none"><path fill="#2f9e44" d="M 0.48,-1.93 Q 0.48,-1.93 1.64,-1.71 2.81,-1.49 3.97,-1.44 5.14,-1.38 6.48,-1.82 7.82,-2.27 9.87,-3.19 11.93,-4.11 14.04,-5.07 16.15,-6.04 19.10,-7.83 22.05,-9.62 22.33,-9.73 22.62,-9.84 22.92,-9.85 23.23,-9.86 23.52,-9.78 23.81,-9.69 24.06,-9.52 24.31,-9.34 24.49,-9.10 24.67,-8.85 24.76,-8.56 24.86,-8.27 24.85,-7.97 24.85,-7.66 24.75,-7.38 24.65,-7.09 24.46,-6.85 24.27,-6.61 24.02,-6.44 23.76,-6.27 23.47,-6.20 23.17,-6.12 22.87,-6.14 22.56,-6.16 22.28,-6.28 22.00,-6.40 21.77,-6.60 21.54,-6.80 21.39,-7.06 21.24,-7.32 21.17,-7.62 21.11,-7.92 21.15,-8.22 21.19,-8.52 21.32,-8.80 21.45,-9.07 21.66,-9.29 21.88,-9.51 22.15,-9.65 22.42,-9.79 22.72,-9.83 23.02,-9.88 23.32,-9.82 23.62,-9.77 23.89,-9.62 24.16,-9.48 24.36,-9.25 24.57,-9.03 24.69,-8.75 24.82,-8.47 24.85,-8.17 24.87,-7.87 24.80,-7.57 24.73,-7.27 24.57,-7.01 24.41,-6.76 24.18,-6.56 23.94,-6.37 23.94,-6.37 23.94,-6.37 20.83,-4.63 17.72,-2.89 15.68,-1.78 13.65,-0.67 11.36,0.57 9.07,1.81 6.97,2.42 4.86,3.02 3.32,2.83 1.78,2.64 0.65,2.29 -0.48,1.93 -0.70,1.85 -0.93,1.76 -1.13,1.62 -1.33,1.49 -1.48,1.31 -1.64,1.12 -1.75,0.91 -1.87,0.70 -1.92,0.46 -1.98,0.23 -1.98,-0.00 -1.98,-0.24 -1.92,-0.48 -1.86,-0.71 -1.75,-0.92 -1.64,-1.14 -1.48,-1.32 -1.32,-1.50 -1.12,-1.63 -0.92,-1.77 -0.69,-1.85 -0.47,-1.94 -0.23,-1.97 0.00,-1.99 0.24,-1.96 0.48,-1.93 0.48,-1.93 L 0.48,-1.93 Z"></path></g><g transform="translate(139 257.89602230076594) rotate(0 7.5 3.5)" stroke="none"><path fill="#2f9e44" d="M 0,-2.61 Q 0,-2.61 1.72,-2.54 3.44,-2.48 5.19,-2.56 6.93,-2.65 8.06,-2.73 9.20,-2.80 10.72,-2.89 12.25,-2.98 13.75,-2.77 15.26,-2.57 16.30,-1.07 17.35,0.43 17.24,1.60 17.12,2.77 16.07,4.12 15.02,5.46 12.69,7.73 10.35,10.00 9.84,10.14 9.32,10.27 8.79,10.24 8.26,10.21 7.76,10.01 7.27,9.80 6.87,9.45 6.46,9.11 6.19,8.65 5.92,8.19 5.81,7.67 5.70,7.14 5.77,6.61 5.83,6.08 6.06,5.60 6.28,5.12 6.65,4.74 7.02,4.35 7.50,4.11 7.97,3.86 8.50,3.78 9.03,3.70 9.55,3.79 10.08,3.88 10.54,4.14 11.01,4.39 11.38,4.78 11.74,5.17 11.96,5.66 12.18,6.14 12.23,6.67 12.28,7.20 12.16,7.72 12.05,8.24 11.77,8.70 11.49,9.15 11.08,9.49 10.67,9.83 10.17,10.03 9.67,10.22 9.14,10.24 8.61,10.27 8.10,10.12 7.58,9.97 7.14,9.67 6.71,9.37 6.39,8.94 6.07,8.51 5.90,8.00 5.74,7.50 5.74,6.96 5.75,6.43 5.92,5.93 6.10,5.42 6.42,5.00 6.75,4.58 7.20,4.29 7.64,3.99 7.64,3.99 7.64,3.99 8.48,3.04 9.32,2.09 10.67,1.40 12.01,0.71 12.13,1.85 12.25,2.98 10.72,2.89 9.20,2.80 8.06,2.73 6.93,2.65 5.19,2.56 3.44,2.48 1.72,2.54 0,2.61 -0.31,2.57 -0.62,2.53 -0.91,2.42 -1.21,2.31 -1.47,2.13 -1.73,1.95 -1.94,1.71 -2.14,1.48 -2.29,1.20 -2.44,0.92 -2.51,0.62 -2.59,0.31 -2.59,-0.00 -2.59,-0.31 -2.51,-0.62 -2.44,-0.92 -2.29,-1.20 -2.14,-1.48 -1.94,-1.71 -1.73,-1.95 -1.47,-2.13 -1.21,-2.31 -0.91,-2.42 -0.62,-2.53 -0.31,-2.57 0.00,-2.61 0.00,-2.61 L 0,-2.61 Z"></path></g><g transform="translate(164 268.89602230076594) rotate(0 10 -5.5)" stroke="none"><path fill="#2f9e44" d="M -0.90,-2.03 Q -0.90,-2.03 1.73,-3.07 4.36,-4.11 6.55,-5.33 8.74,-6.55 9.90,-7.42 11.07,-8.30 12.45,-9.26 13.84,-10.22 16.55,-11.59 19.26,-12.97 19.59,-13.03 19.93,-13.10 20.26,-13.05 20.60,-13.01 20.91,-12.86 21.21,-12.71 21.46,-12.47 21.70,-12.23 21.85,-11.93 22.00,-11.62 22.05,-11.29 22.10,-10.95 22.04,-10.61 21.97,-10.28 21.81,-9.98 21.64,-9.69 21.39,-9.46 21.14,-9.23 20.82,-9.09 20.51,-8.96 20.17,-8.93 19.83,-8.90 19.50,-8.98 19.17,-9.06 18.89,-9.24 18.60,-9.42 18.38,-9.69 18.17,-9.95 18.05,-10.27 17.93,-10.59 17.92,-10.93 17.91,-11.27 18.01,-11.59 18.11,-11.92 18.30,-12.20 18.50,-12.48 18.78,-12.68 19.05,-12.87 19.38,-12.98 19.70,-13.08 20.04,-13.07 20.38,-13.06 20.70,-12.95 21.02,-12.83 21.29,-12.62 21.55,-12.41 21.74,-12.12 21.92,-11.84 22.01,-11.51 22.09,-11.18 22.06,-10.84 22.04,-10.50 21.91,-10.18 21.77,-9.87 21.55,-9.62 21.32,-9.36 21.03,-9.19 20.73,-9.02 20.73,-9.02 20.73,-9.02 18.38,-8.01 16.03,-6.99 14.64,-6.07 13.25,-5.15 11.92,-4.30 10.60,-3.45 8.29,-1.96 5.98,-0.48 3.44,0.77 0.90,2.03 0.64,2.11 0.39,2.19 0.12,2.20 -0.14,2.22 -0.40,2.17 -0.67,2.12 -0.91,2.01 -1.16,1.90 -1.37,1.73 -1.58,1.56 -1.74,1.35 -1.91,1.14 -2.02,0.89 -2.13,0.65 -2.17,0.38 -2.22,0.12 -2.20,-0.14 -2.19,-0.41 -2.10,-0.66 -2.02,-0.92 -1.88,-1.15 -1.74,-1.38 -1.55,-1.57 -1.36,-1.76 -1.13,-1.89 -0.90,-2.03 -0.90,-2.03 L -0.90,-2.03 Z"></path></g><g transform="translate(173 252.89602230076596) rotate(0 3 8)" stroke="none"><path fill="#2f9e44" d="M 2.30,-1.15 Q 2.30,-1.15 3.07,0.62 3.83,2.39 4.30,3.52 4.76,4.66 5.70,6.53 6.63,8.40 7.46,9.81 8.29,11.22 8.55,13.53 8.81,15.83 8.76,16.28 8.71,16.74 8.52,17.15 8.34,17.57 8.02,17.90 7.71,18.23 7.31,18.45 6.91,18.66 6.46,18.74 6.01,18.81 5.56,18.74 5.11,18.67 4.70,18.46 4.30,18.25 3.98,17.92 3.67,17.59 3.48,17.17 3.28,16.76 3.23,16.31 3.18,15.86 3.28,15.41 3.37,14.96 3.61,14.57 3.84,14.18 4.18,13.88 4.53,13.59 4.95,13.42 5.38,13.24 5.83,13.22 6.29,13.19 6.73,13.31 7.17,13.43 7.55,13.69 7.92,13.94 8.20,14.30 8.48,14.66 8.63,15.10 8.77,15.53 8.78,15.98 8.78,16.44 8.63,16.87 8.49,17.30 8.22,17.67 7.94,18.03 7.57,18.29 7.19,18.55 6.75,18.67 6.31,18.80 5.86,18.77 5.40,18.75 4.98,18.58 4.55,18.42 4.20,18.12 3.85,17.83 3.62,17.44 3.38,17.05 3.28,16.60 3.18,16.16 3.18,16.16 3.18,16.16 3.13,14.59 3.09,13.02 2.52,11.82 1.95,10.63 1.49,9.57 1.02,8.52 0.31,6.51 -0.38,4.50 -1.34,2.82 -2.30,1.15 -2.41,0.86 -2.51,0.56 -2.54,0.25 -2.57,-0.05 -2.53,-0.35 -2.49,-0.66 -2.37,-0.95 -2.26,-1.24 -2.07,-1.49 -1.89,-1.74 -1.65,-1.94 -1.42,-2.15 -1.14,-2.29 -0.86,-2.42 -0.56,-2.49 -0.26,-2.56 0.05,-2.56 0.36,-2.55 0.66,-2.47 0.96,-2.39 1.23,-2.24 1.50,-2.09 1.73,-1.88 1.96,-1.67 2.13,-1.41 2.30,-1.15 2.30,-1.15 L 2.30,-1.15 Z"></path></g><g transform="translate(192 239.89602230076596) rotate(0 10 11.5)" stroke="none"><path fill="#2f9e44" d="M 0.93,-1.86 Q 0.93,-1.86 2.71,-0.88 4.48,0.09 6.06,2.85 7.64,5.61 8.48,7.90 9.31,10.19 9.93,12.33 10.54,14.47 10.89,16.31 11.23,18.16 10.34,19.13 9.45,20.09 9.08,18.25 8.70,16.41 8.98,15.11 9.27,13.80 9.82,12.12 10.37,10.44 11.21,9.74 12.05,9.03 13.87,8.64 15.68,8.25 16.91,8.16 18.14,8.06 20.13,8.94 22.12,9.82 22.59,11.43 23.05,13.04 23.11,14.43 23.17,15.81 23.15,17.02 23.12,18.22 22.47,20.55 21.81,22.87 20.60,23.65 19.39,24.42 17.79,25.28 16.19,26.14 15.00,26.23 13.81,26.32 11.31,25.44 8.81,24.55 8.46,24.14 8.10,23.72 7.90,23.22 7.70,22.71 7.68,22.16 7.65,21.62 7.80,21.10 7.94,20.57 8.25,20.12 8.56,19.67 8.99,19.34 9.43,19.01 9.94,18.84 10.46,18.67 11.01,18.67 11.55,18.67 12.07,18.85 12.58,19.02 13.02,19.36 13.45,19.69 13.75,20.14 14.06,20.59 14.20,21.12 14.34,21.64 14.31,22.19 14.28,22.73 14.08,23.24 13.87,23.74 13.52,24.16 13.17,24.57 12.70,24.85 12.23,25.13 11.70,25.24 11.17,25.36 10.62,25.30 10.08,25.24 9.59,25.01 9.10,24.78 8.70,24.40 8.31,24.02 8.05,23.54 7.80,23.06 7.71,22.52 7.63,21.98 7.72,21.45 7.81,20.91 8.06,20.43 8.32,19.95 8.72,19.57 9.11,19.20 9.61,18.97 10.11,18.75 10.65,18.69 11.19,18.63 11.72,18.75 12.25,18.87 12.72,19.15 13.18,19.44 13.18,19.44 13.18,19.44 14.11,19.88 15.03,20.32 15.94,19.28 16.86,18.24 16.83,17.05 16.80,15.87 17.51,14.91 18.23,13.95 17.12,13.91 16.01,13.88 14.93,14.51 13.86,15.14 13.48,16.83 13.10,18.52 12.96,19.71 12.82,20.90 11.50,21.76 10.18,22.61 9.06,20.65 7.95,18.68 7.74,17.04 7.54,15.40 6.86,13.41 6.19,11.41 5.33,9.38 4.48,7.35 3.44,5.35 2.41,3.35 0.73,2.61 -0.93,1.86 -1.14,1.73 -1.35,1.59 -1.52,1.40 -1.69,1.22 -1.81,1.00 -1.93,0.77 -2.00,0.53 -2.06,0.29 -2.07,0.04 -2.07,-0.21 -2.02,-0.45 -1.96,-0.70 -1.85,-0.92 -1.74,-1.15 -1.57,-1.34 -1.41,-1.53 -1.21,-1.68 -1.00,-1.83 -0.77,-1.92 -0.53,-2.01 -0.29,-2.05 -0.04,-2.08 0.20,-2.06 0.46,-2.03 0.69,-1.95 0.93,-1.86 0.93,-1.86 L 0.93,-1.86 Z"></path></g><g transform="translate(189 240.89602230076596) rotate(0 7 -2.5)" stroke="none"><path fill="#2f9e44" d="M -0.81,-2.45 Q -0.81,-2.45 0.93,-2.95 2.68,-3.45 3.78,-3.76 4.88,-4.07 6.18,-4.89 7.48,-5.70 10.65,-6.78 13.83,-7.86 14.29,-7.82 14.75,-7.77 15.17,-7.57 15.60,-7.38 15.94,-7.06 16.27,-6.74 16.49,-6.33 16.71,-5.92 16.79,-5.47 16.87,-5.01 16.80,-4.55 16.72,-4.09 16.51,-3.68 16.29,-3.27 15.95,-2.94 15.62,-2.62 15.20,-2.43 14.78,-2.23 14.31,-2.18 13.85,-2.13 13.40,-2.22 12.94,-2.32 12.54,-2.56 12.14,-2.80 11.84,-3.15 11.54,-3.50 11.37,-3.93 11.19,-4.37 11.16,-4.83 11.14,-5.29 11.26,-5.74 11.38,-6.19 11.64,-6.58 11.90,-6.96 12.27,-7.25 12.64,-7.53 13.08,-7.68 13.52,-7.83 13.98,-7.83 14.45,-7.83 14.89,-7.69 15.33,-7.54 15.70,-7.26 16.07,-6.98 16.34,-6.60 16.60,-6.21 16.72,-5.77 16.85,-5.32 16.83,-4.85 16.80,-4.39 16.63,-3.96 16.46,-3.52 16.16,-3.17 15.86,-2.81 15.47,-2.57 15.07,-2.33 14.62,-2.23 14.16,-2.13 14.16,-2.13 14.16,-2.13 12.61,-1.69 11.06,-1.26 9.62,-0.69 8.17,-0.13 6.19,0.51 4.21,1.15 2.51,1.80 0.81,2.45 0.51,2.52 0.20,2.58 -0.10,2.57 -0.41,2.55 -0.71,2.47 -1.01,2.38 -1.28,2.22 -1.55,2.07 -1.78,1.85 -2.00,1.63 -2.17,1.37 -2.34,1.11 -2.44,0.81 -2.54,0.51 -2.56,0.20 -2.59,-0.10 -2.53,-0.41 -2.48,-0.72 -2.36,-1.00 -2.24,-1.29 -2.05,-1.54 -1.86,-1.79 -1.62,-1.99 -1.38,-2.19 -1.10,-2.32 -0.81,-2.45 -0.81,-2.45 L -0.81,-2.45 Z"></path></g><g transform="translate(200 227.89602230076596) rotate(0 6 6.5)" stroke="none"><path fill="#2f9e44" d="M 0.64,-2.58 Q 0.64,-2.58 1.79,-2.31 2.95,-2.03 4.13,-1.97 5.32,-1.90 6.82,-1.95 8.32,-2.00 9.59,-1.64 10.86,-1.28 12.69,0.45 14.51,2.18 14.41,3.81 14.31,5.43 13.80,6.50 13.30,7.57 12.77,9.24 12.25,10.91 12.26,12.07 12.27,13.23 12.15,13.75 12.02,14.26 11.74,14.71 11.46,15.16 11.05,15.50 10.64,15.84 10.14,16.02 9.64,16.21 9.11,16.23 8.58,16.25 8.07,16.10 7.56,15.95 7.13,15.64 6.70,15.34 6.38,14.91 6.07,14.48 5.91,13.97 5.75,13.47 5.76,12.94 5.77,12.41 5.94,11.91 6.12,11.41 6.45,10.99 6.78,10.57 7.23,10.28 7.67,9.99 8.18,9.86 8.70,9.73 9.23,9.76 9.76,9.80 10.25,10.01 10.74,10.21 11.14,10.56 11.53,10.92 11.80,11.38 12.07,11.84 12.17,12.36 12.28,12.88 12.21,13.40 12.14,13.93 11.91,14.41 11.68,14.89 11.31,15.26 10.93,15.64 10.46,15.88 9.99,16.12 9.46,16.20 8.94,16.28 8.41,16.18 7.89,16.09 7.43,15.83 6.96,15.57 6.60,15.18 6.25,14.79 6.03,14.30 5.82,13.82 5.77,13.29 5.72,12.76 5.72,12.76 5.72,12.76 6.43,9.54 7.14,6.33 8.31,5.18 9.49,4.04 8.33,3.99 7.17,3.94 6.01,3.84 4.84,3.75 3.24,3.46 1.64,3.18 0.50,2.88 -0.64,2.58 -0.94,2.47 -1.24,2.35 -1.51,2.17 -1.77,1.99 -1.98,1.74 -2.20,1.50 -2.34,1.22 -2.49,0.93 -2.57,0.62 -2.64,0.31 -2.64,-0.00 -2.64,-0.33 -2.56,-0.64 -2.49,-0.95 -2.34,-1.23 -2.19,-1.52 -1.97,-1.76 -1.76,-2.00 -1.49,-2.18 -1.23,-2.36 -0.93,-2.47 -0.62,-2.59 -0.31,-2.62 0.00,-2.66 0.32,-2.62 0.64,-2.58 0.64,-2.58 L 0.64,-2.58 Z"></path></g><g transform="translate(223 124.89602230076596) rotate(0 0.5 12.5)" stroke="none"><path fill="#1e1e1e" d="M 2.42,0.69 Q 2.42,0.69 1.70,2.66 0.99,4.63 0.44,6.15 -0.10,7.66 -0.66,9.77 -1.21,11.87 -1.67,13.55 -2.13,15.23 -3.50,15.23 -4.87,15.24 -3.86,13.87 -2.86,12.51 -1.39,12.21 0.06,11.92 1.14,11.85 2.22,11.79 3.73,11.79 5.24,11.79 6.57,12.33 7.90,12.87 8.72,13.83 9.53,14.79 9.90,16.39 10.27,17.99 10.29,19.22 10.31,20.45 9.84,21.70 9.37,22.95 8.30,24.23 7.24,25.50 6.20,26.61 5.16,27.71 3.83,28.00 2.50,28.28 1.20,28.36 -0.09,28.44 -1.19,28.45 -2.30,28.47 -5.53,26.81 -8.76,25.15 -9.03,24.66 -9.30,24.16 -9.40,23.60 -9.50,23.04 -9.42,22.48 -9.33,21.92 -9.07,21.41 -8.81,20.91 -8.41,20.51 -8.00,20.12 -7.49,19.87 -6.98,19.63 -6.41,19.56 -5.85,19.49 -5.30,19.61 -4.74,19.72 -4.25,20.01 -3.76,20.29 -3.39,20.72 -3.01,21.15 -2.80,21.67 -2.58,22.20 -2.54,22.76 -2.50,23.33 -2.65,23.88 -2.79,24.43 -3.11,24.90 -3.42,25.37 -3.87,25.72 -4.31,26.07 -4.85,26.26 -5.38,26.45 -5.95,26.46 -6.52,26.46 -7.06,26.29 -7.60,26.11 -8.05,25.78 -8.51,25.44 -8.83,24.97 -9.16,24.51 -9.32,23.96 -9.48,23.42 -9.45,22.85 -9.43,22.29 -9.23,21.76 -9.02,21.23 -8.66,20.79 -8.30,20.35 -7.82,20.05 -7.34,19.75 -6.78,19.63 -6.23,19.50 -5.67,19.55 -5.10,19.60 -4.58,19.84 -4.06,20.07 -3.65,20.45 -3.23,20.84 -3.23,20.84 -3.23,20.84 -1.76,21.17 -0.30,21.50 0.90,21.26 2.12,21.01 2.98,19.62 3.84,18.22 2.60,18.21 1.36,18.19 0.11,18.54 -1.13,18.89 -2.18,19.46 -3.22,20.04 -4.48,19.98 -5.74,19.93 -6.98,18.58 -8.22,17.23 -7.99,15.86 -7.76,14.50 -7.00,13.33 -6.25,12.16 -5.60,10.48 -4.95,8.79 -4.63,7.44 -4.32,6.10 -3.80,4.76 -3.29,3.41 -2.85,1.36 -2.42,-0.69 -2.30,-0.97 -2.18,-1.25 -2.00,-1.49 -1.82,-1.73 -1.58,-1.93 -1.35,-2.12 -1.07,-2.25 -0.80,-2.38 -0.50,-2.44 -0.21,-2.50 0.09,-2.49 0.39,-2.48 0.68,-2.40 0.97,-2.32 1.24,-2.16 1.50,-2.01 1.72,-1.80 1.94,-1.59 2.10,-1.34 2.27,-1.08 2.36,-0.80 2.46,-0.51 2.49,-0.21 2.51,0.09 2.46,0.39 2.42,0.69 2.42,0.69 L 2.42,0.69 Z"></path></g><g transform="translate(214 117.89602230076596) rotate(0 10 3.5)" stroke="none"><path fill="#1e1e1e" d="M 0.51,-2.58 Q 0.51,-2.58 1.98,-2.26 3.45,-1.94 4.52,-1.39 5.58,-0.84 7.45,0.04 9.33,0.93 10.56,1.48 11.79,2.03 13.32,2.12 14.86,2.22 15.79,2.80 16.72,3.38 18.61,3.62 20.51,3.86 20.99,4.02 21.48,4.18 21.89,4.49 22.30,4.81 22.59,5.23 22.88,5.66 23.02,6.15 23.16,6.65 23.13,7.16 23.10,7.68 22.91,8.15 22.72,8.63 22.39,9.02 22.06,9.42 21.62,9.68 21.17,9.95 20.67,10.06 20.17,10.17 19.66,10.11 19.15,10.06 18.68,9.84 18.21,9.63 17.84,9.28 17.47,8.92 17.22,8.47 16.98,8.01 16.90,7.51 16.82,7.00 16.90,6.49 16.98,5.98 17.22,5.53 17.46,5.07 17.83,4.72 18.21,4.36 18.67,4.15 19.14,3.93 19.65,3.88 20.16,3.82 20.67,3.93 21.17,4.04 21.61,4.30 22.05,4.57 22.38,4.96 22.72,5.35 22.91,5.83 23.10,6.31 23.13,6.82 23.16,7.34 23.02,7.83 22.88,8.33 22.59,8.75 22.31,9.18 21.90,9.49 21.49,9.80 21.00,9.97 20.51,10.13 20.00,10.13 19.48,10.13 19.48,10.13 19.48,10.13 17.55,9.75 15.61,9.36 14.09,8.62 12.56,7.88 11.47,7.74 10.37,7.59 9.27,6.98 8.16,6.37 6.73,5.59 5.30,4.81 3.79,3.95 2.29,3.09 0.88,2.84 -0.51,2.58 -0.82,2.49 -1.12,2.39 -1.39,2.22 -1.66,2.05 -1.88,1.82 -2.10,1.59 -2.26,1.31 -2.42,1.04 -2.51,0.73 -2.60,0.43 -2.61,0.11 -2.63,-0.20 -2.57,-0.51 -2.50,-0.82 -2.37,-1.11 -2.23,-1.40 -2.03,-1.65 -1.83,-1.89 -1.58,-2.08 -1.32,-2.28 -1.03,-2.40 -0.74,-2.53 -0.43,-2.58 -0.11,-2.63 0.20,-2.61 0.51,-2.58 0.51,-2.58 L 0.51,-2.58 Z"></path></g><g transform="translate(232 116.89602230076596) rotate(0 4.5 5.5)" stroke="none"><path fill="#1e1e1e" d="M 1.56,-2.08 Q 1.56,-2.08 2.70,-1.20 3.84,-0.33 4.70,0.33 5.55,1.01 7.09,3.08 8.62,5.15 9.13,6.15 9.63,7.16 10.29,9.14 10.95,11.12 9.58,12.45 8.21,13.77 5.61,13.92 3.01,14.06 2.52,13.99 2.03,13.91 1.59,13.68 1.15,13.45 0.81,13.09 0.46,12.73 0.25,12.28 0.04,11.83 -0.00,11.34 -0.06,10.85 0.03,10.36 0.14,9.88 0.39,9.45 0.65,9.02 1.02,8.70 1.40,8.37 1.86,8.19 2.32,8.00 2.81,7.97 3.31,7.94 3.79,8.07 4.27,8.20 4.68,8.48 5.09,8.76 5.40,9.15 5.70,9.54 5.86,10.01 6.02,10.48 6.02,10.98 6.03,11.47 5.87,11.95 5.71,12.42 5.42,12.81 5.12,13.21 4.71,13.49 4.30,13.77 3.82,13.91 3.34,14.04 2.85,14.02 2.35,14.00 1.89,13.81 1.43,13.63 1.05,13.31 0.67,12.99 0.41,12.57 0.15,12.15 0.04,11.66 -0.06,11.18 -0.01,10.68 0.03,10.19 0.24,9.74 0.45,9.29 0.79,8.92 1.12,8.56 1.56,8.33 2.00,8.09 2.49,8.01 2.98,7.93 2.98,7.93 2.98,7.93 4.69,8.23 6.41,8.53 6.37,9.95 6.33,11.38 5.57,10.56 4.81,9.74 4.01,7.93 3.21,6.11 1.98,4.95 0.75,3.78 -0.40,2.93 -1.56,2.08 -1.78,1.86 -2.01,1.64 -2.18,1.38 -2.34,1.11 -2.44,0.81 -2.54,0.52 -2.57,0.21 -2.59,-0.10 -2.54,-0.41 -2.49,-0.72 -2.37,-1.00 -2.25,-1.29 -2.06,-1.54 -1.87,-1.79 -1.63,-1.99 -1.39,-2.19 -1.10,-2.33 -0.82,-2.46 -0.51,-2.52 -0.21,-2.59 0.10,-2.57 0.41,-2.56 0.71,-2.47 1.01,-2.39 1.28,-2.23 1.56,-2.07 1.56,-2.07 L 1.56,-2.08 Z"></path></g><g transform="translate(235 154.89602230076596) rotate(0 7.5 3)" stroke="none"><path fill="#1e1e1e" d="M 1.41,-2.12 Q 1.41,-2.12 3.05,-0.85 4.70,0.41 6.64,1.23 8.58,2.06 10.15,2.54 11.73,3.02 13.43,3.16 15.14,3.30 15.57,3.39 16.00,3.49 16.37,3.71 16.75,3.94 17.03,4.27 17.31,4.60 17.47,5.01 17.63,5.42 17.66,5.85 17.68,6.29 17.56,6.71 17.45,7.13 17.20,7.49 16.96,7.85 16.61,8.12 16.26,8.38 15.84,8.52 15.43,8.66 14.99,8.66 14.56,8.66 14.14,8.52 13.73,8.38 13.38,8.12 13.03,7.85 12.79,7.49 12.54,7.13 12.43,6.71 12.31,6.29 12.33,5.85 12.36,5.41 12.52,5.01 12.68,4.60 12.96,4.27 13.25,3.93 13.62,3.71 14.00,3.48 14.42,3.39 14.85,3.30 15.29,3.34 15.72,3.39 16.12,3.58 16.51,3.76 16.83,4.06 17.15,4.36 17.35,4.75 17.56,5.13 17.63,5.57 17.70,6.00 17.63,6.43 17.55,6.86 17.35,7.25 17.14,7.63 16.83,7.93 16.51,8.23 16.11,8.42 15.72,8.60 15.28,8.65 14.85,8.69 14.85,8.69 14.85,8.69 12.26,8.28 9.66,7.86 8.05,7.16 6.43,6.47 5.45,5.94 4.46,5.41 3.33,4.79 2.19,4.18 0.39,3.15 -1.41,2.12 -1.64,1.92 -1.88,1.72 -2.06,1.47 -2.24,1.22 -2.35,0.93 -2.46,0.65 -2.51,0.34 -2.55,0.04 -2.52,-0.26 -2.48,-0.57 -2.38,-0.86 -2.27,-1.14 -2.10,-1.40 -1.93,-1.66 -1.71,-1.86 -1.48,-2.07 -1.21,-2.22 -0.94,-2.37 -0.64,-2.45 -0.34,-2.52 -0.04,-2.53 0.26,-2.53 0.56,-2.47 0.86,-2.40 1.14,-2.26 1.41,-2.12 1.41,-2.12 L 1.41,-2.12 Z"></path></g><g transform="translate(245 148.89602230076596) rotate(0 -3 9.5)" stroke="none"><path fill="#1e1e1e" d="M 2.45,0.98 Q 2.45,0.98 1.84,2.40 1.24,3.82 1.04,5.12 0.85,6.42 0.40,8.02 -0.04,9.62 -0.40,10.81 -0.76,11.99 -0.81,13.21 -0.86,14.42 -1.24,15.67 -1.62,16.91 -2.37,18.61 -3.12,20.30 -3.40,20.72 -3.69,21.15 -4.09,21.46 -4.50,21.77 -4.98,21.94 -5.46,22.11 -5.97,22.11 -6.48,22.11 -6.97,21.95 -7.45,21.79 -7.86,21.49 -8.27,21.18 -8.56,20.76 -8.85,20.34 -8.99,19.85 -9.13,19.36 -9.11,18.85 -9.08,18.34 -8.90,17.86 -8.71,17.39 -8.38,17.00 -8.06,16.60 -7.62,16.34 -7.18,16.07 -6.69,15.96 -6.19,15.85 -5.68,15.90 -5.17,15.95 -4.71,16.16 -4.24,16.37 -3.87,16.72 -3.50,17.07 -3.25,17.52 -3.01,17.97 -2.93,18.47 -2.84,18.97 -2.92,19.48 -3.00,19.98 -3.23,20.43 -3.47,20.89 -3.84,21.24 -4.20,21.59 -4.67,21.81 -5.13,22.03 -5.64,22.09 -6.14,22.15 -6.64,22.04 -7.14,21.94 -7.58,21.68 -8.02,21.42 -8.35,21.03 -8.69,20.64 -8.88,20.17 -9.07,19.70 -9.10,19.19 -9.13,18.68 -9.00,18.18 -8.87,17.69 -8.87,17.69 -8.87,17.69 -7.91,15.26 -6.95,12.84 -6.58,11.24 -6.22,9.65 -5.45,8.23 -4.69,6.82 -4.44,5.39 -4.19,3.97 -3.86,2.94 -3.54,1.92 -2.99,0.47 -2.45,-0.98 -2.29,-1.26 -2.14,-1.53 -1.93,-1.77 -1.71,-2.00 -1.45,-2.18 -1.18,-2.36 -0.88,-2.46 -0.58,-2.57 -0.26,-2.60 0.04,-2.64 0.36,-2.59 0.67,-2.55 0.97,-2.43 1.26,-2.31 1.52,-2.13 1.78,-1.94 1.99,-1.70 2.20,-1.46 2.34,-1.17 2.48,-0.89 2.55,-0.58 2.62,-0.27 2.62,0.04 2.61,0.36 2.53,0.67 2.45,0.98 2.45,0.98 L 2.45,0.98 Z"></path></g><g transform="translate(264 187.89602230076596) rotate(0 -9.5 5.5)" stroke="none"><path fill="#1e1e1e" d="M -2.33,1.16 Q -2.33,1.16 -2.90,0.04 -3.46,-1.07 -5.13,-2.04 -6.79,-3.02 -8.14,-3.00 -9.50,-2.98 -10.78,-3.03 -12.07,-3.07 -13.49,-3.05 -14.90,-3.03 -15.33,-1.63 -15.76,-0.24 -15.77,1.38 -15.78,3.01 -15.79,4.80 -15.81,6.60 -15.85,7.86 -15.89,9.13 -15.71,10.33 -15.53,11.53 -14.10,12.51 -12.66,13.49 -10.31,13.60 -7.95,13.71 -7.43,13.81 -6.90,13.90 -6.44,14.15 -5.97,14.41 -5.61,14.80 -5.25,15.19 -5.04,15.67 -4.82,16.16 -4.77,16.69 -4.72,17.22 -4.84,17.73 -4.96,18.25 -5.24,18.70 -5.52,19.15 -5.93,19.49 -6.34,19.83 -6.84,20.02 -7.33,20.21 -7.86,20.23 -8.39,20.25 -8.90,20.10 -9.41,19.96 -9.85,19.65 -10.29,19.35 -10.60,18.92 -10.92,18.49 -11.08,17.99 -11.24,17.48 -11.23,16.95 -11.23,16.42 -11.05,15.92 -10.87,15.42 -10.55,15.00 -10.22,14.58 -9.78,14.29 -9.33,14.00 -8.82,13.86 -8.31,13.73 -7.78,13.76 -7.25,13.80 -6.75,14.00 -6.26,14.21 -5.86,14.55 -5.46,14.90 -5.20,15.36 -4.93,15.82 -4.82,16.34 -4.71,16.86 -4.78,17.39 -4.84,17.92 -5.07,18.40 -5.30,18.87 -5.67,19.26 -6.04,19.64 -6.52,19.88 -6.99,20.12 -7.52,20.20 -8.04,20.28 -8.04,20.28 -8.04,20.28 -10.19,20.18 -12.33,20.08 -14.09,19.56 -15.84,19.05 -16.85,18.46 -17.87,17.87 -18.87,16.73 -19.87,15.59 -20.59,14.65 -21.30,13.72 -21.70,11.42 -22.10,9.11 -22.13,6.87 -22.16,4.63 -22.10,2.90 -22.04,1.18 -21.92,-0.25 -21.81,-1.69 -21.22,-2.86 -20.64,-4.02 -19.97,-5.39 -19.31,-6.75 -18.43,-7.44 -17.55,-8.13 -16.36,-8.54 -15.17,-8.95 -13.59,-8.91 -12.00,-8.88 -10.65,-8.88 -9.29,-8.89 -7.22,-8.64 -5.15,-8.39 -3.75,-7.50 -2.35,-6.62 -1.37,-5.95 -0.38,-5.27 0.38,-4.40 1.16,-3.52 1.75,-2.34 2.33,-1.16 2.44,-0.87 2.55,-0.57 2.58,-0.26 2.61,0.05 2.57,0.36 2.52,0.67 2.40,0.96 2.29,1.26 2.10,1.51 1.92,1.77 1.68,1.97 1.44,2.18 1.16,2.32 0.87,2.46 0.57,2.53 0.26,2.60 -0.05,2.59 -0.36,2.58 -0.67,2.50 -0.97,2.42 -1.25,2.27 -1.52,2.12 -1.75,1.90 -1.99,1.69 -2.16,1.43 -2.33,1.16 -2.33,1.16 L -2.33,1.16 Z"></path></g><g transform="translate(257 170.89602230076596) rotate(0 8.5 3)" stroke="none"><path fill="#1e1e1e" d="M 0,-2.62 Q 0,-2.62 1.49,-2.60 2.98,-2.57 4.10,-2.21 5.22,-1.85 6.88,-1.15 8.53,-0.44 9.99,0.11 11.45,0.67 12.74,1.17 14.03,1.67 16.40,3.07 18.78,4.46 19.13,4.81 19.49,5.16 19.72,5.61 19.95,6.05 20.02,6.55 20.09,7.05 20.00,7.54 19.91,8.03 19.67,8.47 19.43,8.91 19.06,9.25 18.69,9.59 18.23,9.79 17.77,9.99 17.27,10.04 16.78,10.09 16.29,9.97 15.80,9.85 15.38,9.59 14.95,9.32 14.63,8.94 14.31,8.55 14.14,8.08 13.96,7.61 13.94,7.11 13.92,6.61 14.06,6.13 14.20,5.65 14.49,5.24 14.78,4.83 15.19,4.53 15.59,4.23 16.07,4.08 16.54,3.93 17.05,3.94 17.55,3.95 18.02,4.11 18.49,4.28 18.89,4.59 19.28,4.90 19.55,5.32 19.83,5.74 19.95,6.23 20.08,6.71 20.05,7.21 20.01,7.71 19.82,8.17 19.62,8.64 19.29,9.01 18.96,9.39 18.53,9.64 18.09,9.89 17.60,9.99 17.11,10.09 16.61,10.03 16.12,9.97 15.66,9.75 15.21,9.53 15.21,9.53 15.21,9.53 13.76,8.68 12.30,7.83 11.10,7.10 9.89,6.37 8.61,5.51 7.33,4.64 6.29,3.99 5.26,3.34 4.01,2.95 2.76,2.57 1.38,2.60 0,2.62 -0.31,2.58 -0.62,2.55 -0.92,2.43 -1.22,2.32 -1.48,2.14 -1.74,1.96 -1.95,1.72 -2.16,1.49 -2.30,1.21 -2.45,0.93 -2.53,0.62 -2.60,0.31 -2.60,-0.00 -2.60,-0.31 -2.53,-0.62 -2.45,-0.93 -2.30,-1.21 -2.16,-1.49 -1.95,-1.72 -1.74,-1.96 -1.48,-2.14 -1.22,-2.32 -0.92,-2.43 -0.62,-2.55 -0.31,-2.58 0.00,-2.62 0.00,-2.62 L 0,-2.62 Z"></path></g><g transform="translate(272 165.89602230076596) rotate(0 4.5 8.5)" stroke="none"><path fill="#1e1e1e" d="M 2.06,-1.18 Q 2.06,-1.18 3.09,0.89 4.12,2.98 5.13,5.39 6.14,7.81 6.88,8.96 7.63,10.12 8.88,11.92 10.14,13.72 9.12,15.16 8.10,16.60 6.59,17.06 5.08,17.51 3.88,18.36 2.68,19.21 2.28,19.42 1.88,19.63 1.44,19.70 1.00,19.77 0.55,19.70 0.11,19.63 -0.28,19.42 -0.68,19.21 -0.98,18.88 -1.29,18.56 -1.48,18.15 -1.67,17.74 -1.72,17.29 -1.77,16.85 -1.67,16.41 -1.58,15.97 -1.35,15.58 -1.11,15.20 -0.77,14.91 -0.43,14.62 -0.01,14.45 0.40,14.28 0.85,14.26 1.29,14.23 1.73,14.35 2.16,14.47 2.53,14.72 2.90,14.98 3.18,15.33 3.45,15.69 3.59,16.12 3.74,16.54 3.74,16.99 3.74,17.44 3.59,17.87 3.45,18.30 3.18,18.65 2.91,19.01 2.53,19.26 2.16,19.52 1.73,19.64 1.30,19.76 0.85,19.73 0.40,19.71 -0.01,19.54 -0.43,19.38 -0.77,19.09 -1.11,18.79 -1.34,18.41 -1.58,18.02 -1.67,17.59 -1.77,17.15 -1.72,16.70 -1.67,16.25 -1.48,15.84 -1.30,15.44 -0.99,15.11 -0.68,14.78 -0.68,14.78 -0.68,14.78 1.07,13.72 2.84,12.66 4.12,13.37 5.41,14.08 4.79,13.11 4.18,12.14 3.44,10.77 2.70,9.40 1.59,7.23 0.47,5.06 -0.79,3.12 -2.06,1.18 -2.18,0.91 -2.29,0.65 -2.33,0.36 -2.38,0.08 -2.35,-0.20 -2.33,-0.48 -2.24,-0.75 -2.14,-1.03 -1.99,-1.27 -1.83,-1.51 -1.63,-1.71 -1.42,-1.91 -1.17,-2.05 -0.92,-2.19 -0.64,-2.27 -0.37,-2.35 -0.08,-2.36 0.20,-2.37 0.48,-2.31 0.76,-2.25 1.02,-2.13 1.28,-2.00 1.50,-1.82 1.72,-1.64 1.89,-1.41 2.06,-1.18 2.06,-1.18 L 2.06,-1.18 Z"></path></g><g stroke-linecap="round"><g transform="translate(36 382.89602230076594) rotate(0 60.02812668261117 -186.0086063552648)"><path d="M0.53 -0.33 C20.67 -62.47, 100.95 -310.02, 120.7 -371.69 M-0.64 -1.54 C19.41 -63.03, 99.78 -308.71, 120.12 -370.52" stroke="#1e1e1e" stroke-width="1" fill="none"></path></g><g transform="translate(36 382.89602230076594) rotate(0 60.02812668261117 -186.0086063552648)"><path d="M120.92 -345.53 C119.91 -351.6, 119.06 -361.63, 120.12 -370.52 M120.92 -345.53 C120.33 -355.12, 120.19 -363.12, 120.12 -370.52" stroke="#1e1e1e" stroke-width="1" fill="none"></path></g><g transform="translate(36 382.89602230076594) rotate(0 60.02812668261117 -186.0086063552648)"><path d="M104.68 -350.86 C108.42 -355.46, 112.28 -363.95, 120.12 -370.52 M104.68 -350.86 C109.87 -358.53, 115.46 -364.65, 120.12 -370.52" stroke="#1e1e1e" stroke-width="1" fill="none"></path></g></g><mask></mask><g transform="translate(21 256.89602230076594) rotate(0 16.5 9)" stroke="none"><path fill="#1e1e1e" d="M 2.27,-0.71 Q 2.27,-0.71 3.58,3.92 4.88,8.57 5.93,11.33 6.99,14.09 7.76,15.49 8.53,16.89 9.70,18.21 10.87,19.54 11.12,17.00 11.38,14.47 11.49,12.61 11.60,10.76 11.33,9.63 11.06,8.51 10.67,7.52 10.27,6.53 9.62,5.35 8.97,4.17 7.78,3.07 6.59,1.96 5.21,1.01 3.83,0.07 2.44,-0.64 1.06,-1.35 0.80,-1.60 0.54,-1.84 0.35,-2.14 0.16,-2.44 0.05,-2.77 -0.06,-3.11 -0.09,-3.46 -0.12,-3.81 -0.06,-4.16 -0.01,-4.51 0.12,-4.83 0.25,-5.16 0.47,-5.44 0.68,-5.73 0.95,-5.95 1.22,-6.18 1.54,-6.33 1.86,-6.49 2.20,-6.56 2.55,-6.63 2.90,-6.62 3.26,-6.61 3.60,-6.51 3.94,-6.42 4.24,-6.24 4.55,-6.07 6.02,-5.22 7.49,-4.38 8.58,-3.87 9.67,-3.35 10.72,-2.84 11.76,-2.33 12.97,-1.39 14.18,-0.46 16.05,0.30 17.92,1.06 19.31,1.00 20.71,0.94 22.08,0.54 23.45,0.15 24.91,-0.33 26.36,-0.83 27.62,-0.71 28.88,-0.59 29.06,-1.07 29.23,-1.55 29.55,-1.95 29.87,-2.35 30.31,-2.63 30.74,-2.91 31.24,-3.03 31.73,-3.16 32.24,-3.11 32.76,-3.07 33.23,-2.87 33.70,-2.67 34.08,-2.33 34.46,-1.99 34.72,-1.54 34.97,-1.09 35.07,-0.59 35.16,-0.09 35.10,0.41 35.03,0.92 34.80,1.38 34.57,1.84 34.21,2.20 33.85,2.57 33.39,2.80 32.93,3.02 32.42,3.09 31.91,3.16 31.41,3.07 30.91,2.97 30.46,2.72 30.01,2.47 29.67,2.09 29.33,1.71 29.12,1.24 28.92,0.76 28.88,0.25 28.83,-0.25 28.96,-0.75 29.08,-1.24 29.36,-1.68 29.63,-2.11 30.03,-2.43 30.43,-2.75 30.91,-2.93 31.39,-3.11 31.91,-3.12 32.42,-3.14 32.91,-2.99 33.40,-2.84 33.82,-2.54 34.23,-2.24 34.53,-1.82 34.83,-1.41 34.99,-0.92 35.14,-0.43 35.12,0.08 35.11,0.59 35.11,0.59 35.11,0.59 30.96,2.98 26.81,5.36 25.10,5.84 23.39,6.31 20.96,6.58 18.53,6.85 17.40,6.68 16.27,6.51 15.28,5.85 14.29,5.19 11.75,4.02 9.20,2.85 8.20,2.36 7.20,1.87 6.18,1.39 5.16,0.91 3.11,-0.21 1.06,-1.35 0.80,-1.60 0.54,-1.84 0.35,-2.14 0.16,-2.44 0.05,-2.77 -0.06,-3.11 -0.09,-3.46 -0.12,-3.81 -0.06,-4.16 -0.01,-4.51 0.12,-4.83 0.25,-5.16 0.47,-5.44 0.68,-5.73 0.95,-5.95 1.22,-6.18 1.54,-6.33 1.86,-6.49 2.20,-6.56 2.55,-6.63 2.90,-6.62 3.26,-6.61 3.60,-6.51 3.94,-6.42 4.24,-6.24 4.55,-6.07 5.06,-5.86 5.58,-5.65 6.77,-4.85 7.97,-4.05 8.91,-3.04 9.86,-2.02 10.89,-1.10 11.93,-0.19 12.58,0.81 13.23,1.82 14.07,3.35 14.92,4.89 15.34,6.21 15.76,7.54 16.05,9.16 16.35,10.78 16.42,12.68 16.50,14.58 16.53,16.36 16.56,18.13 16.33,19.95 16.11,21.77 15.39,22.65 14.68,23.54 13.46,23.97 12.23,24.41 10.67,24.03 9.10,23.64 7.72,22.23 6.34,20.81 5.73,19.76 5.12,18.71 4.31,17.14 3.49,15.57 2.18,12.70 0.86,9.82 -0.70,5.27 -2.27,0.71 -2.33,0.42 -2.38,0.14 -2.36,-0.14 -2.34,-0.42 -2.26,-0.70 -2.17,-0.97 -2.02,-1.22 -1.87,-1.47 -1.67,-1.67 -1.47,-1.87 -1.22,-2.02 -0.98,-2.17 -0.70,-2.26 -0.43,-2.34 -0.14,-2.36 0.14,-2.38 0.42,-2.33 0.70,-2.27 0.97,-2.16 1.23,-2.04 1.45,-1.86 1.68,-1.68 1.86,-1.46 2.04,-1.23 2.15,-0.97 2.27,-0.71 2.27,-0.71 L 2.27,-0.71 Z"></path></g><g transform="translate(10 264.89602230076594) rotate(0 5.5 -11.5)" stroke="none"><path fill="#1e1e1e" d="M -2.38,-0.53 Q -2.38,-0.53 -1.66,-3.08 -0.95,-5.64 -0.65,-7.49 -0.35,-9.35 0.02,-10.91 0.40,-12.47 1.37,-14.56 2.34,-16.65 3.17,-18.25 4.00,-19.85 5.14,-21.41 6.27,-22.97 7.78,-24.08 9.28,-25.18 9.68,-25.40 10.07,-25.62 10.51,-25.69 10.96,-25.77 11.40,-25.71 11.84,-25.64 12.24,-25.44 12.65,-25.23 12.96,-24.91 13.27,-24.59 13.47,-24.18 13.66,-23.78 13.72,-23.33 13.77,-22.88 13.68,-22.44 13.59,-22.00 13.36,-21.61 13.14,-21.23 12.80,-20.93 12.46,-20.63 12.05,-20.46 11.63,-20.29 11.18,-20.26 10.73,-20.23 10.30,-20.34 9.86,-20.46 9.49,-20.70 9.11,-20.95 8.84,-21.30 8.56,-21.66 8.41,-22.08 8.26,-22.51 8.25,-22.96 8.25,-23.41 8.38,-23.83 8.52,-24.26 8.79,-24.62 9.06,-24.99 9.42,-25.24 9.79,-25.50 10.22,-25.63 10.66,-25.75 11.10,-25.74 11.55,-25.72 11.97,-25.56 12.39,-25.40 12.74,-25.11 13.09,-24.82 13.32,-24.44 13.56,-24.06 13.66,-23.62 13.77,-23.18 13.73,-22.74 13.68,-22.29 13.50,-21.88 13.32,-21.47 13.01,-21.14 12.71,-20.81 12.71,-20.81 12.71,-20.81 11.47,-20.06 10.22,-19.31 9.33,-18.34 8.43,-17.36 7.83,-16.37 7.22,-15.38 6.48,-14.38 5.74,-13.37 5.08,-12.36 4.43,-11.35 4.03,-10.10 3.63,-8.84 3.44,-6.77 3.25,-4.70 2.81,-2.08 2.38,0.53 2.28,0.80 2.19,1.08 2.02,1.33 1.86,1.57 1.65,1.77 1.43,1.97 1.17,2.12 0.91,2.26 0.63,2.34 0.35,2.41 0.05,2.42 -0.23,2.43 -0.52,2.36 -0.81,2.30 -1.07,2.17 -1.34,2.04 -1.56,1.85 -1.79,1.66 -1.96,1.42 -2.13,1.18 -2.24,0.91 -2.36,0.63 -2.40,0.34 -2.44,0.05 -2.41,-0.23 -2.38,-0.53 -2.38,-0.53 L -2.38,-0.53 Z"></path></g><g transform="translate(16 237.89602230076596) rotate(0 5 2)" stroke="none"><path fill="#1e1e1e" d="M -0.95,-2.39 Q -0.95,-2.39 0.49,-2.94 1.93,-3.49 3.04,-3.99 4.15,-4.50 5.47,-5.68 6.80,-6.86 9.27,-6.24 11.74,-5.62 12.20,-3.31 12.66,-1.01 12.72,0.13 12.78,1.28 12.81,2.35 12.84,3.41 12.91,6.20 12.97,8.99 12.90,9.47 12.82,9.94 12.59,10.37 12.37,10.79 12.02,11.13 11.67,11.46 11.23,11.66 10.79,11.86 10.32,11.92 9.84,11.97 9.37,11.87 8.90,11.76 8.48,11.51 8.07,11.27 7.76,10.90 7.44,10.53 7.27,10.09 7.09,9.64 7.06,9.16 7.03,8.68 7.16,8.21 7.29,7.75 7.56,7.35 7.83,6.95 8.21,6.66 8.60,6.37 9.05,6.21 9.51,6.06 9.99,6.06 10.47,6.06 10.93,6.21 11.39,6.36 11.77,6.65 12.16,6.94 12.43,7.34 12.70,7.74 12.83,8.21 12.96,8.67 12.93,9.15 12.90,9.63 12.73,10.08 12.55,10.53 12.24,10.90 11.93,11.26 11.51,11.51 11.10,11.76 10.63,11.86 10.16,11.97 9.68,11.92 9.20,11.87 8.76,11.66 8.33,11.46 7.98,11.13 7.63,10.80 7.40,10.37 7.17,9.95 7.10,9.47 7.02,9.00 7.02,9.00 7.02,9.00 7.06,6.26 7.10,3.51 7.06,1.48 7.03,-0.54 6.83,-2.24 6.62,-3.95 7.64,-2.95 8.65,-1.96 7.49,-0.94 6.34,0.07 5.07,0.63 3.81,1.19 2.38,1.79 0.95,2.39 0.65,2.47 0.35,2.55 0.04,2.55 -0.26,2.56 -0.56,2.49 -0.87,2.42 -1.14,2.28 -1.42,2.14 -1.66,1.94 -1.89,1.74 -2.07,1.49 -2.26,1.23 -2.37,0.95 -2.49,0.66 -2.53,0.35 -2.57,0.04 -2.54,-0.26 -2.51,-0.57 -2.40,-0.86 -2.30,-1.15 -2.13,-1.41 -1.96,-1.67 -1.73,-1.88 -1.50,-2.09 -1.22,-2.24 -0.95,-2.39 -0.95,-2.39 L -0.95,-2.39 Z"></path></g><g transform="translate(43 232.89602230076596) rotate(0 6 -9)" stroke="none"><path fill="#1e1e1e" d="M -2.21,-1.10 Q -2.21,-1.10 -1.26,-2.78 -0.31,-4.47 0.71,-6.10 1.74,-7.74 2.78,-9.11 3.83,-10.47 4.93,-12.31 6.03,-14.14 7.15,-15.51 8.27,-16.88 9.06,-18.24 9.86,-19.60 10.17,-19.90 10.48,-20.20 10.87,-20.39 11.26,-20.57 11.69,-20.62 12.12,-20.67 12.55,-20.58 12.97,-20.49 13.34,-20.27 13.72,-20.04 14.00,-19.72 14.28,-19.39 14.44,-18.99 14.61,-18.59 14.63,-18.15 14.66,-17.72 14.54,-17.30 14.43,-16.88 14.19,-16.53 13.95,-16.17 13.61,-15.90 13.26,-15.64 12.85,-15.50 12.44,-15.36 12.01,-15.35 11.58,-15.35 11.17,-15.49 10.75,-15.62 10.41,-15.88 10.06,-16.14 9.82,-16.50 9.57,-16.86 9.45,-17.27 9.34,-17.69 9.36,-18.12 9.38,-18.56 9.54,-18.96 9.69,-19.36 9.97,-19.69 10.25,-20.03 10.62,-20.25 10.99,-20.48 11.41,-20.57 11.84,-20.67 12.27,-20.62 12.70,-20.58 13.09,-20.40 13.48,-20.22 13.80,-19.92 14.12,-19.63 14.32,-19.24 14.53,-18.86 14.60,-18.44 14.67,-18.01 14.60,-17.58 14.54,-17.15 14.34,-16.77 14.13,-16.39 14.13,-16.39 14.13,-16.39 12.55,-14.36 10.96,-12.33 9.70,-11.03 8.44,-9.73 7.86,-8.77 7.28,-7.81 6.37,-6.67 5.47,-5.53 4.61,-3.98 3.76,-2.42 2.98,-0.66 2.21,1.10 2.04,1.35 1.88,1.60 1.66,1.80 1.44,2.00 1.18,2.15 0.92,2.29 0.63,2.37 0.34,2.45 0.04,2.45 -0.25,2.46 -0.54,2.39 -0.83,2.33 -1.09,2.19 -1.36,2.06 -1.59,1.87 -1.82,1.67 -1.99,1.43 -2.16,1.19 -2.28,0.91 -2.39,0.63 -2.43,0.34 -2.47,0.04 -2.44,-0.24 -2.41,-0.54 -2.31,-0.82 -2.21,-1.10 -2.21,-1.10 L -2.21,-1.10 Z"></path></g><g transform="translate(42 212.89602230076596) rotate(0 7 8.5)" stroke="none"><path fill="#1e1e1e" d="M 2.00,-1.33 Q 2.00,-1.33 3.61,1.32 5.22,3.99 6.19,6.10 7.17,8.20 8.09,9.10 9.00,10.01 9.85,10.88 10.70,11.76 12.13,12.52 13.56,13.27 14.74,13.88 15.91,14.49 16.29,14.70 16.67,14.91 16.96,15.24 17.24,15.56 17.41,15.95 17.59,16.35 17.62,16.78 17.66,17.21 17.55,17.63 17.45,18.05 17.22,18.41 16.98,18.78 16.65,19.05 16.31,19.32 15.90,19.47 15.50,19.62 15.07,19.63 14.64,19.64 14.22,19.51 13.81,19.39 13.46,19.14 13.11,18.88 12.86,18.53 12.60,18.18 12.48,17.77 12.35,17.36 12.36,16.92 12.37,16.49 12.52,16.09 12.67,15.68 12.94,15.34 13.21,15.01 13.58,14.78 13.94,14.54 14.36,14.44 14.78,14.33 15.21,14.37 15.64,14.40 16.04,14.57 16.43,14.75 16.75,15.03 17.08,15.32 17.29,15.70 17.50,16.07 17.58,16.50 17.66,16.92 17.61,17.35 17.55,17.78 17.36,18.17 17.16,18.55 16.86,18.86 16.55,19.16 16.17,19.36 15.78,19.55 15.35,19.61 14.92,19.66 14.50,19.58 14.07,19.50 14.07,19.50 14.08,19.50 12.20,18.31 10.33,17.12 9.11,16.20 7.90,15.27 6.95,13.97 6.01,12.67 4.90,11.33 3.80,9.99 2.74,8.17 1.67,6.35 -0.16,3.84 -2.00,1.33 -2.13,1.07 -2.27,0.81 -2.33,0.53 -2.40,0.25 -2.39,-0.03 -2.39,-0.32 -2.31,-0.61 -2.24,-0.89 -2.10,-1.14 -1.96,-1.40 -1.76,-1.61 -1.57,-1.83 -1.32,-1.99 -1.08,-2.15 -0.81,-2.25 -0.53,-2.35 -0.25,-2.38 0.03,-2.41 0.32,-2.37 0.61,-2.33 0.88,-2.22 1.15,-2.11 1.39,-1.94 1.62,-1.78 1.81,-1.55 2.00,-1.33 2.00,-1.33 L 2.00,-1.33 Z"></path></g><g transform="translate(37 180.89602230076596) rotate(0 17 8)" stroke="none"><path fill="#1e1e1e" d="M 0.80,-2.41 Q 0.80,-2.41 2.52,-1.75 4.25,-1.08 5.63,-0.10 7.01,0.88 8.88,1.91 10.75,2.93 11.74,3.42 12.73,3.91 14.54,4.84 16.35,5.78 17.33,6.35 18.31,6.93 19.56,7.49 20.81,8.05 22.33,8.98 23.85,9.92 25.58,11.40 27.31,12.89 27.91,13.23 28.52,13.56 28.71,13.87 28.91,14.18 29.03,14.53 29.15,14.88 29.18,15.25 29.21,15.61 29.15,15.97 29.10,16.34 28.95,16.68 28.81,17.01 28.59,17.31 28.37,17.60 28.09,17.84 27.80,18.07 27.47,18.23 27.14,18.39 26.78,18.46 26.42,18.54 26.06,18.53 25.69,18.51 25.34,18.41 24.98,18.31 24.66,18.13 24.34,17.95 24.08,17.69 23.81,17.44 24.77,18.00 25.72,18.55 24.46,18.31 23.19,18.06 21.23,17.26 19.26,16.45 18.32,15.86 17.38,15.27 15.64,14.64 13.91,14.00 13.18,13.04 12.45,12.07 12.12,10.52 11.78,8.98 12.28,6.99 12.77,5.00 13.91,4.01 15.04,3.03 16.53,2.39 18.01,1.76 19.81,1.33 21.61,0.89 22.86,0.80 24.12,0.70 25.68,0.66 27.24,0.61 28.75,0.63 30.25,0.65 31.51,1.10 32.76,1.56 34.18,2.72 35.61,3.88 36.21,4.89 36.81,5.90 37.09,7.78 37.37,9.66 37.17,11.41 36.97,13.15 36.39,14.11 35.80,15.06 34.93,15.98 34.05,16.89 32.90,17.51 31.76,18.12 30.44,18.28 29.11,18.43 27.24,18.98 25.38,19.53 24.80,19.49 24.23,19.46 23.70,19.25 23.16,19.04 22.72,18.66 22.29,18.29 21.99,17.80 21.70,17.31 21.57,16.75 21.45,16.18 21.51,15.61 21.57,15.04 21.82,14.52 22.06,14.00 22.45,13.58 22.85,13.17 23.36,12.90 23.86,12.63 24.43,12.54 25.00,12.44 25.56,12.54 26.13,12.63 26.64,12.90 27.15,13.17 27.54,13.59 27.94,14.00 28.18,14.53 28.42,15.05 28.48,15.62 28.54,16.19 28.42,16.75 28.29,17.31 28.00,17.80 27.70,18.30 27.26,18.67 26.82,19.04 26.29,19.25 25.76,19.46 25.18,19.49 24.61,19.52 24.05,19.37 23.50,19.22 23.03,18.89 22.55,18.57 22.20,18.11 21.86,17.66 21.67,17.11 21.49,16.57 21.49,15.99 21.49,15.42 21.68,14.87 21.86,14.33 22.21,13.87 22.56,13.41 23.03,13.09 23.51,12.77 24.06,12.62 24.61,12.46 24.61,12.46 24.61,12.46 26.48,11.97 28.34,11.48 29.43,11.32 30.53,11.17 30.70,9.96 30.88,8.75 29.86,8.06 28.83,7.38 27.55,7.37 26.27,7.36 24.84,7.35 23.41,7.34 21.99,7.52 20.56,7.70 18.97,8.37 17.39,9.05 19.06,9.59 20.74,10.13 22.17,10.91 23.60,11.68 24.43,12.35 25.26,13.02 26.89,13.29 28.52,13.56 28.71,13.87 28.91,14.18 29.03,14.53 29.15,14.88 29.18,15.24 29.21,15.61 29.15,15.97 29.10,16.34 28.95,16.68 28.81,17.01 28.59,17.31 28.37,17.60 28.09,17.84 27.81,18.07 27.47,18.23 27.14,18.39 26.78,18.46 26.42,18.54 26.06,18.53 25.69,18.51 25.34,18.41 24.98,18.31 24.66,18.13 24.35,17.95 24.08,17.69 23.81,17.44 23.00,16.63 22.19,15.81 20.79,14.85 19.38,13.89 18.26,13.12 17.13,12.34 15.67,11.53 14.20,10.72 12.25,9.63 10.30,8.53 9.28,7.97 8.27,7.41 7.22,6.79 6.17,6.17 4.41,4.78 2.64,3.38 0.92,2.90 -0.80,2.41 -1.08,2.28 -1.35,2.14 -1.59,1.95 -1.83,1.76 -2.01,1.51 -2.20,1.27 -2.32,0.99 -2.44,0.70 -2.49,0.40 -2.54,0.10 -2.51,-0.20 -2.49,-0.50 -2.39,-0.79 -2.29,-1.08 -2.13,-1.34 -1.97,-1.60 -1.74,-1.81 -1.52,-2.03 -1.26,-2.18 -0.99,-2.33 -0.70,-2.42 -0.40,-2.50 -0.10,-2.52 0.20,-2.53 0.50,-2.47 0.80,-2.41 0.80,-2.41 L 0.80,-2.41 Z"></path></g><g transform="translate(27 188.89602230076596) rotate(0 3.5 -14)" stroke="none"><path fill="#1e1e1e" d="M -2.56,0 Q -2.56,0 -2.56,-1.43 -2.55,-2.87 -2.53,-4.34 -2.52,-5.82 -2.54,-7.04 -2.56,-8.27 -2.24,-9.49 -1.92,-10.70 -1.52,-12.60 -1.11,-14.49 -0.65,-15.78 -0.19,-17.06 0.49,-18.05 1.17,-19.04 1.52,-20.16 1.86,-21.28 2.38,-22.95 2.90,-24.63 3.90,-26.33 4.89,-28.03 5.17,-26.62 5.45,-25.21 3.33,-23.55 1.20,-21.90 0.68,-21.78 0.15,-21.67 -0.37,-21.73 -0.91,-21.80 -1.40,-22.03 -1.88,-22.26 -2.27,-22.63 -2.66,-23.00 -2.91,-23.48 -3.15,-23.96 -3.24,-24.49 -3.32,-25.02 -3.23,-25.55 -3.14,-26.08 -2.88,-26.55 -2.63,-27.03 -2.23,-27.39 -1.84,-27.76 -1.35,-27.98 -0.86,-28.21 -0.33,-28.26 0.20,-28.31 0.72,-28.19 1.25,-28.08 1.71,-27.79 2.17,-27.51 2.51,-27.10 2.86,-26.69 3.05,-26.19 3.25,-25.69 3.27,-25.15 3.30,-24.61 3.15,-24.09 3.00,-23.58 2.70,-23.13 2.39,-22.69 1.96,-22.37 1.53,-22.04 1.02,-21.88 0.51,-21.71 -0.02,-21.71 -0.56,-21.72 -1.07,-21.89 -1.58,-22.07 -2.00,-22.40 -2.43,-22.73 -2.73,-23.17 -3.02,-23.62 -3.16,-24.14 -3.30,-24.66 -3.27,-25.20 -3.24,-25.73 -3.03,-26.23 -2.83,-26.73 -2.48,-27.14 -2.13,-27.55 -1.67,-27.82 -1.20,-28.09 -1.20,-28.09 -1.20,-28.09 -0.10,-28.68 1.00,-29.28 2.28,-29.81 3.56,-30.35 4.86,-30.69 6.17,-31.02 7.68,-30.59 9.20,-30.15 9.77,-29.12 10.34,-28.08 10.18,-26.27 10.02,-24.46 9.40,-23.41 8.77,-22.35 8.14,-21.18 7.51,-20.00 7.13,-18.69 6.74,-17.37 5.82,-16.27 4.91,-15.16 4.21,-13.22 3.51,-11.27 3.03,-9.72 2.56,-8.17 2.54,-6.99 2.52,-5.82 2.53,-4.34 2.55,-2.87 2.56,-1.43 2.56,0 2.53,0.30 2.49,0.61 2.38,0.90 2.27,1.19 2.09,1.44 1.92,1.70 1.69,1.90 1.45,2.11 1.18,2.25 0.91,2.40 0.61,2.47 0.30,2.55 -0.00,2.55 -0.30,2.55 -0.61,2.47 -0.91,2.40 -1.18,2.25 -1.45,2.11 -1.69,1.90 -1.92,1.70 -2.09,1.44 -2.27,1.19 -2.38,0.90 -2.49,0.61 -2.53,0.30 -2.56,-0.00 -2.56,-0.00 L -2.56,0 Z"></path></g><g transform="translate(37 161.89602230076596) rotate(0 3 3)" stroke="none"><path fill="#1e1e1e" d="M 1.63,-1.63 Q 1.63,-1.63 2.99,-0.12 4.35,1.38 6.08,3.05 7.82,4.72 7.97,5.05 8.13,5.37 8.17,5.73 8.22,6.09 8.14,6.44 8.07,6.79 7.89,7.10 7.71,7.41 7.44,7.65 7.17,7.88 6.83,8.02 6.50,8.16 6.14,8.18 5.78,8.21 5.44,8.12 5.09,8.02 4.79,7.83 4.49,7.63 4.27,7.35 4.05,7.06 3.93,6.72 3.81,6.38 3.80,6.02 3.80,5.66 3.91,5.32 4.02,4.98 4.23,4.69 4.44,4.40 4.74,4.20 5.03,3.99 5.38,3.89 5.73,3.79 6.08,3.80 6.44,3.82 6.78,3.95 7.12,4.08 7.39,4.30 7.67,4.53 7.86,4.84 8.05,5.14 8.13,5.50 8.21,5.85 8.18,6.20 8.14,6.56 8.00,6.89 7.85,7.22 7.61,7.48 7.36,7.75 7.05,7.92 6.73,8.09 6.38,8.15 6.02,8.22 5.67,8.16 5.31,8.11 4.99,7.95 4.67,7.78 4.42,7.52 4.17,7.27 4.17,7.27 4.17,7.27 2.78,5.81 1.39,4.36 -0.12,3.00 -1.63,1.63 -1.80,1.41 -1.97,1.19 -2.09,0.94 -2.20,0.68 -2.25,0.41 -2.30,0.13 -2.29,-0.13 -2.27,-0.41 -2.19,-0.68 -2.10,-0.94 -1.96,-1.18 -1.81,-1.42 -1.62,-1.62 -1.42,-1.81 -1.18,-1.96 -0.94,-2.10 -0.68,-2.19 -0.41,-2.27 -0.13,-2.29 0.13,-2.30 0.41,-2.25 0.68,-2.20 0.94,-2.09 1.19,-1.97 1.41,-1.80 1.63,-1.63 1.63,-1.63 L 1.63,-1.63 Z"></path></g><g transform="translate(54 151.89602230076596) rotate(0 9 2.5)" stroke="none"><path fill="#1e1e1e" d="M 0.42,-2.57 Q 0.42,-2.57 2.14,-2.21 3.86,-1.85 5.15,-1.41 6.43,-0.96 7.51,-0.50 8.58,-0.05 9.80,0.04 11.02,0.14 12.14,0.56 13.26,0.98 15.72,1.53 18.18,2.08 18.64,2.19 19.10,2.29 19.50,2.54 19.90,2.78 20.21,3.15 20.51,3.51 20.68,3.95 20.85,4.39 20.87,4.86 20.90,5.33 20.77,5.79 20.64,6.24 20.37,6.63 20.10,7.02 19.72,7.30 19.34,7.59 18.89,7.73 18.45,7.88 17.97,7.88 17.50,7.87 17.05,7.72 16.61,7.56 16.23,7.28 15.86,6.99 15.60,6.59 15.34,6.20 15.21,5.74 15.09,5.29 15.12,4.82 15.15,4.35 15.33,3.91 15.50,3.47 15.81,3.11 16.12,2.75 16.53,2.51 16.94,2.27 17.40,2.18 17.86,2.08 18.33,2.13 18.80,2.19 19.23,2.39 19.65,2.59 19.99,2.92 20.33,3.25 20.55,3.67 20.77,4.08 20.84,4.55 20.92,5.02 20.83,5.48 20.75,5.95 20.53,6.36 20.31,6.78 19.96,7.10 19.61,7.42 19.18,7.62 18.75,7.81 18.28,7.86 17.81,7.91 17.81,7.91 17.81,7.91 15.14,7.42 12.46,6.94 11.42,6.27 10.37,5.60 8.40,5.14 6.43,4.68 4.73,3.84 3.03,3.00 1.30,2.79 -0.42,2.57 -0.73,2.48 -1.03,2.39 -1.30,2.23 -1.57,2.08 -1.80,1.86 -2.02,1.64 -2.19,1.37 -2.36,1.10 -2.46,0.81 -2.55,0.51 -2.58,0.19 -2.60,-0.11 -2.55,-0.42 -2.50,-0.73 -2.38,-1.02 -2.25,-1.31 -2.06,-1.56 -1.87,-1.81 -1.63,-2.01 -1.38,-2.21 -1.10,-2.34 -0.81,-2.47 -0.50,-2.54 -0.19,-2.60 0.11,-2.58 0.42,-2.57 0.42,-2.57 L 0.42,-2.57 Z"></path></g><g transform="translate(67 144.89602230076596) rotate(0 -2 7.5)" stroke="none"><path fill="#1e1e1e" d="M 2.41,0.68 Q 2.41,0.68 1.69,2.66 0.98,4.63 0.80,5.71 0.63,6.79 0.21,8.85 -0.19,10.92 -0.79,13.29 -1.39,15.67 -1.57,16.07 -1.74,16.47 -2.04,16.79 -2.33,17.11 -2.71,17.32 -3.09,17.53 -3.52,17.61 -3.95,17.68 -4.38,17.62 -4.81,17.56 -5.20,17.36 -5.59,17.16 -5.89,16.85 -6.19,16.54 -6.38,16.15 -6.57,15.76 -6.63,15.33 -6.68,14.90 -6.60,14.47 -6.51,14.04 -6.29,13.67 -6.07,13.29 -5.75,13.00 -5.42,12.71 -5.02,12.55 -4.62,12.38 -4.18,12.35 -3.75,12.32 -3.33,12.43 -2.91,12.53 -2.54,12.77 -2.18,13.01 -1.91,13.35 -1.64,13.69 -1.49,14.10 -1.35,14.51 -1.34,14.95 -1.33,15.38 -1.47,15.80 -1.60,16.21 -1.85,16.56 -2.11,16.92 -2.47,17.17 -2.82,17.42 -3.24,17.54 -3.66,17.66 -4.09,17.65 -4.53,17.63 -4.93,17.48 -5.34,17.32 -5.68,17.05 -6.01,16.77 -6.25,16.40 -6.48,16.03 -6.58,15.61 -6.68,15.19 -6.64,14.75 -6.60,14.32 -6.60,14.32 -6.60,14.32 -5.98,12.78 -5.36,11.23 -4.80,9.69 -4.24,8.15 -4.07,6.99 -3.91,5.82 -3.59,4.62 -3.28,3.41 -2.84,1.36 -2.41,-0.68 -2.29,-0.96 -2.17,-1.24 -1.99,-1.48 -1.81,-1.73 -1.58,-1.92 -1.34,-2.11 -1.07,-2.24 -0.80,-2.37 -0.50,-2.43 -0.21,-2.50 0.09,-2.49 0.39,-2.47 0.68,-2.39 0.97,-2.31 1.23,-2.16 1.50,-2.01 1.71,-1.80 1.93,-1.59 2.10,-1.33 2.26,-1.08 2.36,-0.79 2.45,-0.51 2.48,-0.20 2.50,0.09 2.46,0.39 2.41,0.68 2.41,0.68 L 2.41,0.68 Z"></path></g><g transform="translate(64 107.89602230076596) rotate(0 14.5 12)" stroke="none"><path fill="#1e1e1e" d="M 2.28,-0.28 Q 2.28,-0.28 2.44,2.02 2.59,4.33 3.18,5.96 3.77,7.59 4.36,9.25 4.96,10.92 5.52,12.11 6.09,13.31 6.82,14.20 7.55,15.09 8.66,16.36 9.77,17.63 10.37,18.53 10.98,19.43 12.24,19.88 13.50,20.33 14.69,20.32 15.88,20.32 17.26,19.89 18.64,19.46 19.75,19.14 20.85,18.83 21.82,18.31 22.79,17.80 23.43,16.41 24.06,15.03 24.56,13.97 25.06,12.92 25.55,11.57 26.03,10.22 25.95,8.67 25.87,7.12 25.86,5.55 25.85,3.98 25.93,3.48 26.02,2.98 26.26,2.53 26.50,2.08 26.87,1.73 27.24,1.38 27.70,1.17 28.16,0.96 28.67,0.91 29.18,0.85 29.67,0.96 30.17,1.08 30.61,1.34 31.04,1.60 31.37,1.99 31.70,2.38 31.88,2.86 32.07,3.33 32.10,3.84 32.12,4.35 31.98,4.84 31.85,5.33 31.56,5.75 31.27,6.17 30.87,6.47 30.46,6.78 29.98,6.94 29.49,7.10 28.98,7.10 28.47,7.10 27.99,6.93 27.51,6.77 27.11,6.46 26.70,6.15 26.42,5.73 26.13,5.31 26.00,4.81 25.87,4.32 25.89,3.82 25.92,3.31 26.11,2.84 26.30,2.36 26.64,1.98 26.97,1.59 27.40,1.33 27.84,1.07 28.34,0.96 28.84,0.85 29.34,0.91 29.85,0.97 30.31,1.18 30.77,1.40 31.14,1.75 31.51,2.10 31.74,2.55 31.98,3.00 32.06,3.50 32.14,4.01 32.14,4.01 32.14,4.01 32.09,6.45 32.03,8.89 31.85,10.20 31.67,11.52 31.03,13.11 30.38,14.70 29.63,15.98 28.87,17.25 28.36,18.23 27.84,19.20 26.61,20.70 25.38,22.21 22.84,23.24 20.31,24.28 17.69,25.02 15.08,25.77 13.59,25.60 12.11,25.43 10.97,24.51 9.83,23.60 8.25,22.00 6.66,20.41 5.36,19.00 4.07,17.60 3.19,16.26 2.32,14.92 1.81,13.57 1.30,12.21 0.73,10.59 0.16,8.96 -0.64,6.91 -1.44,4.86 -1.86,2.57 -2.28,0.28 -2.28,0.00 -2.28,-0.26 -2.21,-0.53 -2.15,-0.80 -2.02,-1.05 -1.89,-1.30 -1.71,-1.50 -1.53,-1.71 -1.30,-1.87 -1.07,-2.03 -0.81,-2.13 -0.55,-2.23 -0.28,-2.26 -0.00,-2.30 0.26,-2.26 0.54,-2.23 0.80,-2.13 1.06,-2.04 1.29,-1.88 1.51,-1.72 1.70,-1.52 1.88,-1.31 2.01,-1.06 2.14,-0.82 2.21,-0.55 2.28,-0.28 2.28,-0.28 L 2.28,-0.28 Z"></path></g><g transform="translate(59 94.89602230076596) rotate(0 -2.5 13.5)" stroke="none"><path fill="#1e1e1e" d="M 2.17,0.87 Q 2.17,0.87 1.59,2.30 1.01,3.74 0.46,5.38 -0.09,7.03 -0.28,8.47 -0.48,9.92 -0.98,12.06 -1.49,14.21 -1.60,15.63 -1.72,17.05 -2.07,18.24 -2.41,19.43 -2.44,20.81 -2.47,22.19 -2.46,24.61 -2.45,27.03 -2.52,27.44 -2.60,27.84 -2.79,28.20 -2.99,28.56 -3.30,28.84 -3.60,29.12 -3.98,29.29 -4.35,29.46 -4.76,29.49 -5.17,29.53 -5.57,29.44 -5.97,29.34 -6.32,29.13 -6.67,28.91 -6.93,28.59 -7.19,28.27 -7.34,27.89 -7.49,27.50 -7.50,27.09 -7.52,26.68 -7.40,26.29 -7.29,25.89 -7.05,25.56 -6.82,25.22 -6.48,24.97 -6.15,24.73 -5.76,24.60 -5.37,24.48 -4.96,24.48 -4.55,24.49 -4.16,24.63 -3.77,24.77 -3.45,25.02 -3.12,25.27 -2.90,25.62 -2.67,25.96 -2.57,26.36 -2.46,26.76 -2.49,27.17 -2.52,27.58 -2.68,27.96 -2.84,28.34 -3.11,28.65 -3.38,28.96 -3.73,29.17 -4.09,29.37 -4.49,29.45 -4.90,29.54 -5.30,29.49 -5.71,29.44 -6.08,29.26 -6.45,29.08 -6.75,28.79 -7.04,28.50 -7.23,28.14 -7.42,27.77 -7.48,27.36 -7.54,26.96 -7.54,26.96 -7.54,26.96 -7.30,23.58 -7.07,20.21 -6.43,18.39 -5.79,16.57 -5.58,15.04 -5.37,13.51 -5.10,11.41 -4.84,9.31 -4.59,7.53 -4.33,5.76 -3.82,3.88 -3.31,2.00 -2.74,0.56 -2.17,-0.87 -2.04,-1.11 -1.90,-1.36 -1.71,-1.57 -1.52,-1.78 -1.28,-1.93 -1.05,-2.09 -0.78,-2.19 -0.51,-2.28 -0.23,-2.31 0.04,-2.34 0.32,-2.30 0.60,-2.26 0.86,-2.16 1.12,-2.05 1.35,-1.89 1.58,-1.72 1.76,-1.51 1.95,-1.29 2.07,-1.04 2.20,-0.79 2.26,-0.51 2.33,-0.24 2.32,0.04 2.32,0.32 2.24,0.59 2.17,0.87 2.17,0.87 L 2.17,0.87 Z"></path></g><g transform="translate(60 92.89602230076596) rotate(0 -4 2)" stroke="none"><path fill="#1e1e1e" d="M 0,2.63 Q 0,2.63 -1.05,2.62 -2.11,2.62 -3.26,3.57 -4.41,4.52 -4.95,5.62 -5.50,6.72 -5.84,7.07 -6.18,7.42 -6.62,7.65 -7.05,7.88 -7.54,7.95 -8.02,8.03 -8.50,7.94 -8.99,7.86 -9.42,7.63 -9.85,7.39 -10.18,7.03 -10.52,6.68 -10.72,6.23 -10.92,5.78 -10.97,5.29 -11.02,4.81 -10.91,4.33 -10.80,3.85 -10.55,3.43 -10.29,3.01 -9.91,2.70 -9.54,2.38 -9.08,2.21 -8.62,2.03 -8.13,2.01 -7.64,1.98 -7.17,2.12 -6.70,2.25 -6.30,2.53 -5.89,2.81 -5.60,3.20 -5.30,3.60 -5.15,4.06 -5.00,4.53 -5.00,5.02 -5.01,5.51 -5.17,5.97 -5.33,6.44 -5.63,6.83 -5.93,7.21 -6.34,7.49 -6.75,7.76 -7.22,7.88 -7.69,8.01 -8.18,7.98 -8.67,7.95 -9.13,7.76 -9.58,7.58 -9.95,7.26 -10.32,6.94 -10.57,6.52 -10.82,6.09 -10.92,5.61 -11.02,5.13 -10.97,4.65 -10.91,4.16 -10.70,3.72 -10.49,3.27 -10.49,3.27 -10.49,3.27 -8.67,1.51 -6.84,-0.25 -5.74,-1.03 -4.64,-1.80 -3.56,-2.21 -2.48,-2.62 -1.24,-2.62 0,-2.63 0.31,-2.59 0.63,-2.55 0.92,-2.44 1.22,-2.33 1.48,-2.15 1.74,-1.97 1.95,-1.73 2.16,-1.49 2.31,-1.21 2.46,-0.93 2.53,-0.62 2.61,-0.31 2.61,0.00 2.61,0.31 2.53,0.62 2.46,0.93 2.31,1.21 2.16,1.49 1.95,1.73 1.74,1.97 1.48,2.15 1.22,2.33 0.92,2.44 0.63,2.55 0.31,2.59 -0.00,2.63 -0.00,2.63 L 0,2.63 Z"></path></g><g transform="translate(62 93.89602230076596) rotate(0 3 1)" stroke="none"><path fill="#1e1e1e" d="M 0.38,-2.28 Q 0.38,-2.28 3.78,-1.20 7.18,-0.12 7.49,0.12 7.80,0.36 8.01,0.69 8.23,1.02 8.32,1.40 8.42,1.79 8.39,2.18 8.36,2.57 8.21,2.93 8.05,3.30 7.79,3.59 7.53,3.88 7.19,4.08 6.85,4.28 6.46,4.35 6.07,4.43 5.68,4.38 5.29,4.33 4.94,4.15 4.58,3.98 4.30,3.70 4.02,3.42 3.85,3.07 3.67,2.72 3.62,2.33 3.56,1.94 3.63,1.55 3.71,1.17 3.90,0.82 4.09,0.48 4.38,0.21 4.67,-0.04 5.04,-0.20 5.40,-0.35 5.79,-0.39 6.18,-0.42 6.56,-0.33 6.95,-0.24 7.28,-0.03 7.61,0.18 7.86,0.48 8.11,0.79 8.25,1.16 8.38,1.52 8.40,1.92 8.41,2.31 8.29,2.69 8.18,3.07 7.95,3.39 7.72,3.71 7.41,3.94 7.09,4.17 6.71,4.29 6.33,4.41 5.94,4.40 5.55,4.39 5.18,4.25 4.81,4.12 4.81,4.12 4.81,4.12 2.21,3.20 -0.38,2.28 -0.64,2.20 -0.91,2.13 -1.15,1.98 -1.40,1.84 -1.60,1.65 -1.80,1.46 -1.95,1.22 -2.10,0.98 -2.18,0.72 -2.27,0.45 -2.29,0.17 -2.31,-0.10 -2.27,-0.37 -2.22,-0.65 -2.11,-0.91 -2.00,-1.16 -1.83,-1.39 -1.66,-1.61 -1.44,-1.79 -1.23,-1.96 -0.97,-2.08 -0.72,-2.20 -0.45,-2.25 -0.17,-2.31 0.10,-2.30 0.38,-2.28 0.38,-2.28 L 0.38,-2.28 Z"></path></g></svg>