<svg xmlns="http://www.w3.org/2000/svg" width="460.5799865722656" height="495.2276390255209" viewBox="0 0 460.5799865722656 495.2276390255209">
  <rect width="460.5799865722656" height="495.2276390255209" fill="white"/>
  <defs><marker id="arr" markerWidth="10" markerHeight="10" refX="9" refY="3" orient="auto"><path d="M0,0 L0,6 L9,3 z" fill="#000"/></marker></defs>
  <path d="M 65.2,40.0 L 64.0,455.2" stroke="#1971c2" stroke-width="2.0" fill="none" stroke-linecap="round" stroke-linejoin="round"/>
  <path d="M 174.8,111.0 L 65.8,183.0" stroke="#f08c00" stroke-width="2.0" fill="none" stroke-linecap="round" stroke-linejoin="round"/>
  <path d="M 64.8,419.0 L 388.8,209.0" stroke="#f08c00" stroke-width="2.0" fill="none" stroke-linecap="round" stroke-linejoin="round"/>
  <path d="M 173.8,110.0 L 389.8,212.0" stroke="#f08c00" stroke-width="2.0" fill="none" stroke-linecap="round" stroke-linejoin="round"/>
  <path d="M 65.8,391.0 L 79.8,391.6 L 87.8,401.0" stroke="#f08c00" stroke-width="2.0" fill="none" stroke-linecap="round" stroke-linejoin="round"/>
  <path d="M 87.3,340.9 L 87.3,339.8 L 86.2,339.8 L 85.1,340.9 L 85.1,342.0 L 83.9,342.0 L 82.8,343.2 L 82.8,344.3 L 80.5,346.6 L 80.5,347.7 L 79.4,350.0 L 78.3,352.3 L 78.3,354.5 L 77.1,355.7 L 77.1,356.8 L 77.1,357.9 L 77.1,359.1 L 77.1,360.2 L 77.1,361.3 L 77.1,363.6 L 77.1,364.8 L 77.1,365.9 L 77.1,367.0 L 79.4,369.3 L 80.5,369.3 L 81.7,369.3 L 82.8,369.3 L 83.9,370.4 L 85.1,370.4 L 86.2,370.4 L 87.3,370.4 L 88.5,370.4 L 88.5,368.2 L 88.5,365.9 L 88.5,364.8 L 88.5,362.5 L 88.5,361.3 L 88.5,360.2 L 88.5,359.1 L 88.5,357.9 L 88.5,356.8 L 87.3,356.8 L 87.3,355.7 L 86.2,355.7 L 85.1,354.5 L 83.9,354.5 L 82.8,354.5 L 81.7,354.5 L 80.5,354.5 L 80.5,354.5" stroke="#f08c00" stroke-width="0.5" fill="none" stroke-linecap="round" stroke-linejoin="round"/>
  <path d="M 98.7,347.7 L 97.6,347.7 L 96.4,347.7 L 96.4,348.8 L 96.4,350.0 L 96.4,351.1 L 96.4,352.3 L 96.4,353.4 L 96.4,354.5 L 95.3,355.7 L 95.3,356.8 L 95.3,357.9 L 95.3,359.1 L 95.3,360.2 L 95.3,361.3 L 95.3,362.5 L 95.3,363.6 L 95.3,364.8 L 95.3,365.9 L 95.3,367.0 L 96.4,368.2 L 97.6,369.3 L 98.7,369.3 L 98.7,370.4 L 101.0,370.4 L 102.1,370.4 L 102.1,369.3 L 103.2,365.9 L 103.2,364.8 L 104.4,361.3 L 105.5,359.1 L 105.5,357.9 L 105.5,356.8 L 106.7,355.7 L 106.7,353.4 L 106.7,352.3 L 106.7,351.1 L 106.7,350.0 L 106.7,348.8 L 105.5,347.7 L 104.4,346.6 L 104.4,345.4 L 104.4,344.3 L 103.2,343.2 L 102.1,343.2 L 101.0,343.2 L 99.8,343.2 L 97.6,344.3 L 96.4,345.4 L 96.4,345.4" stroke="#f08c00" stroke-width="0.5" fill="none" stroke-linecap="round" stroke-linejoin="round"/>
  <path d="M 113.5,339.8 L 112.3,339.8 L 111.2,339.8 L 110.1,339.8 L 110.1,340.9 L 110.1,342.0 L 110.1,344.3 L 111.2,345.4 L 111.2,346.6 L 112.3,346.6 L 113.5,346.6 L 114.6,346.6 L 116.9,346.6 L 116.9,345.4 L 116.9,344.3 L 116.9,343.2 L 116.9,340.9 L 116.9,339.8 L 116.9,338.6 L 116.9,337.5 L 115.7,337.5 L 115.7,337.5" stroke="#f08c00" stroke-width="0.5" fill="none" stroke-linecap="round" stroke-linejoin="round"/>
  <text x="40.0" y="184.0" font-family="Arial,sans-serif" font-size="20" fill="#1971c2" text-anchor="start">A</text>
  <text x="41.5" y="433.0" font-family="Arial,sans-serif" font-size="20" fill="#1971c2" text-anchor="start">B</text>
  <text x="408.0" y="217.0" font-family="Arial,sans-serif" font-size="20" fill="#1971c2" text-anchor="start">C</text>
  <text x="176.0" y="101.5" font-family="Arial,sans-serif" font-size="20" fill="#1971c2" text-anchor="start">D</text>
</svg>