<svg version="1.1" xmlns="http://www.w3.org/2000/svg" viewBox="0 0 818.7468253572443 580.9499043901226" width="818.7468253572443" height="580.9499043901226" class="excalidraw-svg"><!-- svg-source:excalidraw --><metadata></metadata><defs><style class="style-fonts">
      </style></defs><rect x="0" y="0" width="818.7468253572443" height="580.9499043901226" fill="#ffffff"></rect><g stroke-linecap="round"><g transform="translate(65.79672255301102 185.45920815775207) rotate(0 129.30909512032886 0.18531015522158967)"><path d="M0 0 C75.41 -0.39, 151.47 1.15, 258.62 0" stroke="#1971c2" stroke-width="2.5" fill="none" stroke-dasharray="8 10"></path></g></g><mask></mask><g stroke-linecap="round"><g transform="translate(323.82846957893446 186.6320945872203) rotate(0 -89.43144663697171 29.028563371773313)"><path d="M0 0 C-44.17 13.76, -91.88 28.17, -178.86 58.06 M0 0 C-37.99 12.47, -74.27 24.94, -178.86 58.06" stroke="#1971c2" stroke-width="2" fill="none"></path></g></g><mask></mask><g stroke-linecap="round"><g transform="translate(65.79672255301102 185.45920815775207) rotate(0 39.87761580878538 29.908228193874802)"><path d="M0 0 C17.75 12.83, 33.7 26.94, 79.76 59.82 M0 0 C28.99 21.68, 56.72 43.78, 79.76 59.82" stroke="#1971c2" stroke-width="2" fill="none"></path></g></g><mask></mask><g stroke-linecap="round"><g transform="translate(273.40336797592715 18.990244998049093) rotate(0 24.272726611375134 84.60102898243689)"><path d="M0 0 C13.31 54.21, 31.63 105.47, 48.55 169.2 M0 0 C11.34 37.37, 21.88 74.97, 48.55 169.2" stroke="#1971c2" stroke-width="2" fill="none"></path></g></g><mask></mask><g stroke-linecap="round"><g transform="translate(183.67031395750928 21.257231822845824) rotate(0 -19.425686428786037 111.78930829621463)"><path d="M0 0 C-12 64.12, -25.73 131.42, -38.85 223.58 M0 0 C-10.73 55.78, -19.34 110.62, -38.85 223.58" stroke="#1971c2" stroke-width="2" fill="none"></path></g></g><mask></mask><g stroke-linecap="round"><g transform="translate(182.2042467638882 21.990244998049093) rotate(0 -57.9105322771492 81.00144795481002)"><path d="M0 0 C-40.01 55.58, -78.81 108.63, -115.82 162 M0 0 C-35.08 49.54, -71.73 98.27, -115.82 162" stroke="#1971c2" stroke-width="2" fill="none"></path></g></g><mask></mask><g stroke-linecap="round"><g transform="translate(183.10581767333986 22.26644818417344) rotate(0 45.874070459231746 -2.6340378939546554)"><path d="M-0.32 0.44 C15.22 -0.15, 76.74 -3.11, 92.07 -3.73 M1.71 -0.38 C17.3 -1.34, 76.77 -4.9, 91.68 -5.7" stroke="#1971c2" stroke-width="2" fill="none"></path></g></g><mask></mask><g stroke-linecap="round"><g transform="translate(65.10581767333986 185.26644818417344) rotate(0 104.58059787116946 -82.66016077958048)"><path d="M-1.15 -0.24 C34.08 -27.85, 175.11 -137.28, 210.31 -165.08" stroke="#1971c2" stroke-width="2.5" fill="none" stroke-dasharray="8 10"></path></g></g><mask></mask><g stroke-linecap="round"><g transform="translate(487.8457451457408 216.67734558338543) rotate(0 79.08827039599257 -0.32985624541262926)"><path d="M0 0 C60.97 -1.79, 122.63 -2.1, 158.18 0 M0 0 C32.8 1.28, 64.27 0.83, 158.18 0" stroke="#1971c2" stroke-width="2" fill="none"></path></g></g><mask></mask><g stroke-linecap="round"><g transform="translate(486.8457451726712 215.15941706009153) rotate(0 29.96583161141257 -18.0848316057943)"><path d="M0 0 C21.84 -13.82, 40.83 -24.09, 59.93 -36.17" stroke="#1971c2" stroke-width="2.5" fill="none" stroke-dasharray="8 10"></path></g></g><mask></mask><g stroke-linecap="round"><g transform="translate(546.7774084016771 178.9463045617399) rotate(0 79.08827039599257 0.7300457630984312)"><path d="M0 0 C38.43 2.37, 80.23 1.48, 158.18 0" stroke="#1971c2" stroke-width="2.5" fill="none" stroke-dasharray="8 10"></path></g></g><mask></mask><g stroke-linecap="round"><g transform="translate(645.022286129329 215.67734572897962) rotate(0 29.96583161141257 -18.0848316057943)"><path d="M0 0 C14.3 -8.57, 30.98 -19.38, 59.93 -36.17 M0 0 C20.29 -11.27, 41.86 -24.77, 59.93 -36.17" stroke="#1971c2" stroke-width="2" fill="none"></path></g></g><mask></mask><g stroke-linecap="round"><g transform="translate(704.4969705720342 10.723526178178417) rotate(0 0.2130045939164802 84.2074707690582)"><path d="M0 0 C2.65 55.12, 0.05 108.38, 0 168.41 M0 0 C-0.71 66.85, -1.29 133.61, 0 168.41" stroke="#1971c2" stroke-width="2" fill="none"></path></g></g><mask></mask><g stroke-linecap="round"><g transform="translate(486.8457453199296 47.38911595284844) rotate(0 29.694458381763596 -18.084831605794335)"><path d="M0 0 C11.22 -9.42, 27.72 -16.32, 59.39 -36.17 M0 0 C18.05 -11.47, 38.3 -22.94, 59.39 -36.17" stroke="#1971c2" stroke-width="2" fill="none"></path></g></g><mask></mask><g stroke-linecap="round"><g transform="translate(546.8205114141102 10.729546813041452) rotate(0 79.08827039599257 0.17644971624619643)"><path d="M0 0 C50.98 0.71, 98.44 0.48, 158.18 0 M0 0 C48.99 -0.02, 96.73 -0.2, 158.18 0" stroke="#1971c2" stroke-width="2" fill="none"></path></g></g><mask></mask><g stroke-linecap="round"><g transform="translate(546.4415471712907 10) rotate(0 0.7001366052416529 84.2074707690582)"><path d="M0 0 C1.97 37.61, 1.76 74.73, 0 168.41" stroke="#1971c2" stroke-width="2.5" fill="none" stroke-dasharray="8 10"></path></g></g><mask></mask><g stroke-linecap="round"><g transform="translate(488.10581767333986 45.26644818417344) rotate(0 -0.637344326879834 84.6119971837662)"><path d="M0.18 -0.78 C0 27.14, -0.19 140.51, -0.33 168.65 M-1.18 1.42 C-1.61 30.03, -1.36 142.09, -1.46 170" stroke="#1971c2" stroke-width="2" fill="none"></path></g></g><mask></mask><g stroke-linecap="round"><g transform="translate(547.1058176733399 11.266448184173441) rotate(0 47.76254860287533 101.68818154850042)"><path d="M-0.21 0.57 C15.71 34.67, 78.88 169.85, 95.08 203.56 M-1.79 -0.18 C14.55 33.66, 80.89 167.7, 97.31 201.73" stroke="#1971c2" stroke-width="2" fill="none"></path></g></g><mask></mask><g stroke-linecap="round"><g transform="translate(487.10581767333986 47.26644818417344) rotate(0 77.98522379494273 82.57538565302268)"><path d="M0.4 -0.39 C26.4 27.11, 130.87 138.13, 156.82 165.85 M-0.85 -1.64 C24.99 25.88, 130.27 138.73, 156.3 166.79" stroke="#1971c2" stroke-width="2" fill="none"></path></g></g><mask></mask><g stroke-linecap="round"><g transform="translate(705.1058176733399 11.266448184173441) rotate(0 -29.214501148834813 100.83067315539346)"><path d="M0.29 0.91 C-9.32 34.44, -49 168.08, -58.72 201.32 M-1.01 0.34 C-10.15 33.49, -46.75 165.86, -56.39 199.37" stroke="#1971c2" stroke-width="2" fill="none"></path></g></g><mask></mask><g stroke-linecap="round"><g transform="translate(75.30936666274567 503.2367469782225) rotate(0 91.11714357224206 -0.041847813162661396)"><path d="M0 0 C44.47 -0.8, 84.82 -0.99, 182.23 0.53" stroke="#1971c2" stroke-width="2.5" fill="none" stroke-dasharray="8 10"></path></g></g><mask></mask><g stroke-linecap="round"><g transform="translate(10 561.4601459780974) rotate(0 91.11714357224206 0.48301809346844493)"><path d="M0 0 C63.5 -0.11, 131.02 -1.44, 182.23 0.53 M0 0 C66.23 2.01, 132.04 1.83, 182.23 0.53" stroke="#1971c2" stroke-width="2" fill="none"></path></g></g><mask></mask><g stroke-linecap="round"><g transform="translate(11.053360928123539 561.1725264154661) rotate(0 31.86465521398253 -28.967889718621677)"><path d="M0 0 C20.45 -19.42, 40.95 -37.25, 63.73 -57.94" stroke="#1971c2" stroke-width="2.5" fill="none" stroke-dasharray="8 10"></path></g></g><mask></mask><g stroke-linecap="round"><g transform="translate(192.23428718016834 562.0496358866353) rotate(0 32.918045827296766 -28.967889718621677)"><path d="M0 0 C20.36 -18.05, 37.11 -33.52, 65.84 -57.94 M0 0 C24.95 -21.49, 49.21 -43.4, 65.84 -57.94" stroke="#1971c2" stroke-width="2" fill="none"></path></g></g><mask></mask><g stroke-linecap="round"><g transform="translate(132.8597076804981 332.06291440430823) rotate(0 -29.494570352465473 86.37693716717462)"><path d="M0 0 C-12.74 36.39, -22.76 72.43, -58.99 172.75" stroke="#1971c2" stroke-width="2.5" fill="none" stroke-dasharray="8 10"></path></g></g><mask></mask><g stroke-linecap="round"><g transform="translate(132.8597076804981 332.5895950381523) rotate(0 -61.359225566448 114.5547912622173)"><path d="M0 0 C-26.01 47.56, -52.81 97.14, -122.72 229.11 M0 0 C-46.67 83.26, -90.62 166.98, -122.72 229.11" stroke="#1971c2" stroke-width="2" fill="none"></path></g></g><mask></mask><g stroke-linecap="round"><g transform="translate(132.8597076804981 333.11629034480893) rotate(0 29.494570352465473 114.02809595556019)"><path d="M0 0 C18.91 64.61, 36.07 128.42, 58.99 228.06 M0 0 C20.45 82.1, 41.82 164.66, 58.99 228.06" stroke="#1971c2" stroke-width="2" fill="none"></path></g></g><mask></mask><g stroke-linecap="round"><g transform="translate(133.91309829381225 332.5895950381523) rotate(0 62.14926852643369 86.11359685025275)"><path d="M0 0 C29.67 37.48, 57.55 76.95, 124.3 172.23" stroke="#1971c2" stroke-width="2.5" fill="none" stroke-dasharray="8 10"></path></g></g><mask></mask><g stroke-linecap="round"><g transform="translate(131.10581767333986 332.26644818417344) rotate(0 98.22762093370781 2.614046226227657)"><path d="M1.09 0.87 C33.39 1.78, 161.83 4.46, 194.05 4.94 M0.2 0.29 C32.85 0.91, 164.07 2.54, 196.26 3.31" stroke="#1971c2" stroke-width="2" fill="none"></path></g></g><mask></mask><g stroke-linecap="round"><g transform="translate(326.10581767333986 337.26644818417344) rotate(0 -66.92077053552494 111.88547967588529)"><path d="M-0.62 0.74 C-22.94 38.17, -112.95 186.75, -135.1 223.68 M1.26 0.09 C-20.61 37.24, -110.42 184.71, -132.96 221.92" stroke="#1971c2" stroke-width="2" fill="none"></path></g></g><mask></mask><g stroke-linecap="round"><g transform="translate(328.10581767333986 339.26644818417344) rotate(0 -35.25762881673872 82.3234840059839)"><path d="M0.66 -0.63 C-11.12 26.68, -59.2 136.2, -71.18 163.83 M-0.45 1.65 C-11.84 29.16, -57.67 138.32, -69.08 165.28" stroke="#1971c2" stroke-width="2" fill="none"></path></g></g><mask></mask><g stroke-linecap="round"><g transform="translate(503.93494147740665 526.605208542915) rotate(0 152.40594193991885 1.0288649421528362)"><path d="M0 0 C100.35 2.19, 199.34 2.86, 304.81 0.88" stroke="#1971c2" stroke-width="2.5" fill="none" stroke-dasharray="8 10"></path></g></g><mask></mask><g stroke-linecap="round"><g transform="translate(419.4648099894355 569.8858306899281) rotate(0 152.40594193991885 0.4062946935747789)"><path d="M0 0 C67.17 0.55, 133.13 -0.96, 304.81 0.88 M0 0 C70.14 -0.24, 138.23 0.62, 304.81 0.88" stroke="#1971c2" stroke-width="2" fill="none"></path></g></g><mask></mask><g stroke-linecap="round"><g transform="translate(421.22670087143064 569.4047474530678) rotate(0 40.985739831133984 -21.399769559747057)"><path d="M0 0 C25.99 -15, 48.11 -26.73, 81.97 -42.8" stroke="#1971c2" stroke-width="2.5" fill="none" stroke-dasharray="8 10"></path></g></g><mask></mask><g stroke-linecap="round"><g transform="translate(724.2766939289602 570.8718335567053) rotate(0 38.53614686050588 -22.043978966320935)"><path d="M0 0 C23.76 -14.35, 50.79 -26.66, 77.07 -44.09 M0 0 C19.51 -11.61, 39.1 -22.27, 77.07 -44.09" stroke="#1971c2" stroke-width="2" fill="none"></path></g></g><mask></mask><g stroke-linecap="round"><g transform="translate(649.891747432117 375.30873605684957) rotate(0 57.42753896256366 -0.5766181480003212)"><path d="M0 0 C36.21 0.36, 72.21 -0.22, 114.86 -1.26 M0 0 C37.33 -0.55, 72.85 -1.11, 114.86 -1.26" stroke="#1971c2" stroke-width="2" fill="none"></path></g></g><mask></mask><g stroke-linecap="round"><g transform="translate(536.4648099894355 436.6589112726004) rotate(0 53.92753896256366 -0.28761484407563387)"><path d="M0 0 C34.71 0.17, 68.66 -1.33, 107.86 -0.26 M0 0 C35.1 -0.26, 71.36 0.47, 107.86 -0.26" stroke="#1971c2" stroke-width="2" fill="none"></path></g></g><mask></mask><g stroke-linecap="round"><g transform="translate(535.9437179741587 435.25509634423) rotate(0 58.74510760611099 -30.973180231549406)"><path d="M0 0 C40.98 -22.61, 81.97 -42.05, 117.49 -61.95 M0 0 C38.08 -18.94, 75.24 -39.62, 117.49 -61.95" stroke="#1971c2" stroke-width="2" fill="none"></path></g></g><mask></mask><g stroke-linecap="round"><g transform="translate(644.3198879646632 436.48654908351045) rotate(0 58.78741860220393 -30.254840886699768)"><path d="M0 0 C40.21 -18.66, 79.75 -41.33, 117.57 -60.51 M0 0 C35.43 -19.39, 71.94 -38.5, 117.57 -60.51" stroke="#1971c2" stroke-width="2" fill="none"></path></g></g><mask></mask><g stroke-linecap="round"><g transform="translate(646.1058176733399 435.26644818417344) rotate(0 38.042210448002436 67.29053552591242)"><path d="M0.82 -0.04 C13.65 22.71, 63.65 113.17, 76.3 135.68 M-0.21 -1.1 C12.55 21.37, 62.75 111, 75.51 133.92" stroke="#1971c2" stroke-width="2" fill="none"></path></g></g><mask></mask><g stroke-linecap="round"><g transform="translate(765.1058176733399 374.26644818417344) rotate(0 17.19817381463946 74.24820646084845)"><path d="M-1.17 -0.92 C4.92 23.99, 29.47 124.53, 35.56 149.41 M0.42 1.21 C6.48 25.76, 29.18 122.81, 34.91 147.51" stroke="#1971c2" stroke-width="2" fill="none"></path></g></g><mask></mask><g stroke-linecap="round"><g transform="translate(653.1058176733399 375.26644818417344) rotate(0 -75.35995035804808 76.93626666106285)"><path d="M-1.17 0.74 C-26.24 26.43, -125.05 127.81, -149.55 153.13" stroke="#1971c2" stroke-width="2.5" fill="none" stroke-dasharray="8 10"></path></g></g><mask></mask><g stroke-linecap="round"><g transform="translate(538.1058176733399 434.26644818417344) rotate(0 -58.31650789713487 67.0672974026762)"><path d="M-0.46 0.71 C-19.96 22.99, -98.73 112, -118.13 134.1 M1.5 0.03 C-17.54 21.97, -96.16 110.1, -116.01 132.56" stroke="#1971c2" stroke-width="2" fill="none"></path></g></g><mask></mask><g stroke-linecap="round"><g transform="translate(183.10581767333986 22.26644818417344) rotate(0 68.85660843560473 81.2167736162804)"><path d="M-0.81 0.79 C21.83 27.83, 113.26 135.36, 136.22 162.28 M0.97 0.15 C23.95 26.81, 116 133.64, 138.52 160.31" stroke="#1971c2" stroke-width="2" fill="none"></path></g></g><mask></mask></svg>