<svg version="1.1" xmlns="http://www.w3.org/2000/svg" viewBox="0 0 238.66906884193426 375.59998722940963" width="238.66906884193426" height="375.59998722940963" class="excalidraw-svg"><!-- svg-source:excalidraw --><metadata></metadata><defs><style class="style-fonts">
      </style></defs><rect x="0" y="0" width="238.66906884193426" height="375.59998722940963" fill="#ffffff"></rect><g stroke-linecap="round" transform="translate(10.000000124927055 197.6077391180377) rotate(0 79.08827036606992 83.98817771240105)"><path d="M0 0 C36.38 1, 70.41 1.12, 158.18 0 M0 0 C56.49 0.49, 113.16 -0.39, 158.18 0 M158.18 0 C160.64 33.95, 157.72 72.42, 158.18 167.98 M158.18 0 C157.04 37.73, 156.52 75.88, 158.18 167.98 M158.18 167.98 C124.89 168.34, 93.69 168.01, 0 167.98 M158.18 167.98 C105.54 168.23, 54.07 168.52, 0 167.98 M0 167.98 C0.66 128.15, 0.29 83.93, 0 0 M0 167.98 C-0.72 104.78, -1.81 42.73, 0 0" stroke="#1971c2" stroke-width="2" fill="none"></path></g><g stroke-linecap="round"><g transform="translate(10 365.58409458079063) rotate(0 79.08827039599257 -0.4550449746843199)"><path d="M0 0 C36.9 0.13, 77.12 -0.58, 158.18 0 M0 0 C50.9 -1.39, 101.86 -1.07, 158.18 0" stroke="#1971c2" stroke-width="2" fill="none"></path></g></g><mask></mask><g stroke-linecap="round"><g transform="translate(10.000000026930365 365.06616605749673) rotate(0 29.96583161141257 -18.0848316057943)"><path d="M0 0 C19.51 -11.53, 36.96 -22.58, 59.93 -36.17" stroke="#1971c2" stroke-width="2.5" fill="none" stroke-dasharray="8 10"></path></g></g><mask></mask><g stroke-linecap="round"><g transform="translate(69.93166325593626 328.8530535591451) rotate(0 79.08827039599257 -0.14479824469378322)"><path d="M0 0 C49.28 -0.22, 99.34 -0.52, 158.18 0" stroke="#1971c2" stroke-width="2.5" fill="none" stroke-dasharray="8 10"></path></g></g><mask></mask><g stroke-linecap="round"><g transform="translate(168.1765409835882 365.5840947263848) rotate(0 29.96583161141257 -18.0848316057943)"><path d="M0 0 C18.05 -10.64, 32.67 -21.34, 59.93 -36.17 M0 0 C18.81 -13.12, 40.2 -25.41, 59.93 -36.17" stroke="#1971c2" stroke-width="2" fill="none"></path></g></g><mask></mask><g stroke-linecap="round"><g transform="translate(168.17654094223582 197.60773908017043) rotate(0 29.96583161141257 -18.084831605794292)"><path d="M0 0 C15.74 -11.17, 32.45 -17.33, 59.93 -36.17 M0 0 C24.61 -14.75, 47.13 -28.95, 59.93 -36.17" stroke="#1971c2" stroke-width="2" fill="none"></path></g></g><mask></mask><g stroke-linecap="round"><g transform="translate(227.65122542629342 160.63027517558365) rotate(0 0.5089217078204342 84.2074707690582)"><path d="M0 0 C0.66 44.32, 1.91 83.45, 0 168.41 M0 0 C0.45 41.36, 0.85 83.97, 0 168.41" stroke="#1971c2" stroke-width="2" fill="none"></path></g></g><mask></mask><g stroke-linecap="round"><g transform="translate(10.000000174188813 197.29586495025367) rotate(0 29.69445838176361 -18.08483160579435)"><path d="M0 0 C14.38 -9.85, 24.04 -14.64, 59.39 -36.17" stroke="#1971c2" stroke-width="2.5" fill="none" stroke-dasharray="8 10"></path></g></g><mask></mask><g stroke-linecap="round"><g transform="translate(69.97476626836942 160.63629581044668) rotate(0 79.08827039599257 0.5794243268859276)"><path d="M0 0 C60.41 2.52, 121.35 0.16, 158.18 0" stroke="#1971c2" stroke-width="2.5" fill="none" stroke-dasharray="8 10"></path></g></g><mask></mask><g stroke-linecap="round"><g transform="translate(69.59580202554997 159.90674899740523) rotate(0 -0.8424761133012169 84.2074707690582)"><path d="M0 0 C-2.35 35.42, -2.14 72.79, 0 168.41" stroke="#1971c2" stroke-width="2.5" fill="none" stroke-dasharray="8 10"></path></g></g><mask></mask><g stroke-linecap="round"><g transform="translate(126.26007252759905 12.1731971815787) rotate(0 50.94668431646191 74.00863993265666)"><path d="M0.92 0.06 C17.93 24.76, 84.94 124.36, 101.94 148.98 M-0.05 -0.96 C16.8 23.36, 83.85 122.38, 100.96 147.37" stroke="#c2255c" stroke-width="2" fill="none"></path></g></g><mask></mask><g stroke-linecap="round"><g transform="translate(127.26007252759905 11.1731971815787) rotate(0 -57.18082949126138 92.40962732130663)"><path d="M-0.88 -0.08 C-20.09 30.58, -95.69 153.79, -114.52 184.64 M0.86 -1.17 C-18.54 29.6, -96.06 154.74, -115.22 185.99" stroke="#c2255c" stroke-width="2" fill="none"></path></g></g><mask></mask><g stroke-linecap="round"><g transform="translate(126.26007252759905 12.1731971815787) rotate(0 21.116414951300257 92.22261404806748)"><path d="M1 0.17 C8.09 30.88, 35.16 153.16, 42.17 183.8 M0.07 -0.79 C7.04 30.15, 34.18 154.21, 41.3 185.23" stroke="#c2255c" stroke-width="2" fill="none"></path></g></g><mask></mask><g stroke-linecap="round"><g transform="translate(127.26007252759905 12.1731971815787) rotate(0 -27.651745652779937 74.28559465967118)"><path d="M0.85 -0.05 C-8.67 24.56, -46.85 123.72, -56.15 148.63" stroke="#c2255c" stroke-width="2.5" fill="none" stroke-dasharray="8 10"></path></g></g><mask></mask></svg>