<svg version="1.1" xmlns="http://www.w3.org/2000/svg" viewBox="0 0 673.2736180186272 635.9018814011476" width="673.2736180186272" height="635.9018814011476" class="excalidraw-svg"><!-- svg-source:excalidraw --><metadata></metadata><defs><style class="style-fonts">
      </style></defs><rect x="0" y="0" width="673.2736180186272" height="635.9018814011476" fill="#ffffff"></rect><g stroke-linecap="round"><g transform="translate(11.148615112528205 501.8600771497004) rotate(0 325.4881938967854 -0.6093370464423344)"><path d="M-1.15 0 C107.48 0.17, 543.07 0.37, 652.13 0.42 M0.45 -1.05 C108.89 -1.19, 542.47 -1.95, 651.24 -1.49" stroke="#6741d9" stroke-width="2" fill="none"></path></g><g transform="translate(11.148615112528205 501.8600771497004) rotate(0 325.4881938967854 -0.6093370464423344)"><path d="M627.74 7.04 C635.59 4.64, 644.08 3.6, 651.24 -1.49 M627.74 7.04 C634.61 5.24, 642.95 0.69, 651.24 -1.49" stroke="#6741d9" stroke-width="2" fill="none"></path></g><g transform="translate(11.148615112528205 501.8600771497004) rotate(0 325.4881938967854 -0.6093370464423344)"><path d="M627.76 -10.06 C635.51 -6.78, 643.99 -2.15, 651.24 -1.49 M627.76 -10.06 C634.68 -6.38, 643.02 -5.46, 651.24 -1.49" stroke="#6741d9" stroke-width="2" fill="none"></path></g></g><mask></mask><g stroke-linecap="round"><g transform="translate(103.1486151125282 625.8600771497004) rotate(0 223.47639920028848 -210.05448044303944)"><path d="M0.12 0.04 C74.73 -70.13, 373.63 -350.29, 448.23 -420.15 M-1.28 -0.98 C73.09 -71.08, 371.81 -349.54, 447.04 -418.99" stroke="#0c8599" stroke-width="2" fill="none"></path></g><g transform="translate(103.1486151125282 625.8600771497004) rotate(0 223.47639920028848 -210.05448044303944)"><path d="M435.64 -396.74 C439.47 -405.18, 442.13 -413.66, 447.04 -418.99 M435.64 -396.74 C438.46 -403.17, 443.95 -412.01, 447.04 -418.99" stroke="#0c8599" stroke-width="2" fill="none"></path></g><g transform="translate(103.1486151125282 625.8600771497004) rotate(0 223.47639920028848 -210.05448044303944)"><path d="M424.01 -409.27 C431.93 -413.41, 438.59 -417.59, 447.04 -418.99 M424.01 -409.27 C430.63 -411.56, 439.91 -416.33, 447.04 -418.99" stroke="#0c8599" stroke-width="2" fill="none"></path></g></g><mask></mask><g stroke-linecap="round"><g transform="translate(231.1486151125282 501.8600771497004) rotate(0 0.29087662497827793 -245.83255816022864)"><path d="M-0.64 0.19 C-0.71 -81.46, 0.52 -408.44, 0.55 -490.17 M1.22 -0.75 C0.96 -82.72, 0.34 -409.97, -0.1 -491.86" stroke="#099268" stroke-width="2" fill="none"></path></g><g transform="translate(231.1486151125282 501.8600771497004) rotate(0 0.29087662497827793 -245.83255816022864)"><path d="M8.53 -468.4 C5.62 -476.43, 3.4 -486.96, -0.1 -491.86 M8.53 -468.4 C4.55 -477.07, 1.83 -485.79, -0.1 -491.86" stroke="#099268" stroke-width="2" fill="none"></path></g><g transform="translate(231.1486151125282 501.8600771497004) rotate(0 0.29087662497827793 -245.83255816022864)"><path d="M-8.57 -468.34 C-4.98 -476.3, -0.71 -486.85, -0.1 -491.86 M-8.57 -468.34 C-6.26 -477.02, -2.69 -485.77, -0.1 -491.86" stroke="#099268" stroke-width="2" fill="none"></path></g></g><mask></mask><g stroke-linecap="round"><g transform="translate(232.1486151125282 500.8600771497004) rotate(0 115.73296630717815 -0.09649002148782415)"><path d="M-0.62 0.55 C38.03 0.54, 193.65 -0.81, 232.09 -0.92 M1.25 -0.21 C39.83 0.07, 193.18 0.96, 231.71 0.66" stroke="#e8590c" stroke-width="2" fill="none"></path></g></g><mask></mask><g stroke-linecap="round"><g transform="translate(233.1486151125282 502.8600771497004) rotate(0 37.32807585336268 -37.85048233009874)"><path d="M-0.56 -1.1 C12.06 -13.65, 62.47 -62.58, 75.22 -74.6" stroke="#e8590c" stroke-width="2.5" fill="none" stroke-dasharray="8 10"></path></g></g><mask></mask><g stroke-linecap="round"><g transform="translate(311.08595480535007 427.2848141711882) rotate(0 115.40952992700039 0.4191062364727216)"><path d="M-0.42 0.97 C38.28 0.81, 192.78 0.22, 231.24 -0.13" stroke="#e8590c" stroke-width="2.5" fill="none" stroke-dasharray="8 10"></path></g></g><mask></mask><g stroke-linecap="round"><g transform="translate(542.1486151125282 428.8600771497004) rotate(0 -39.16100096503271 37.445110301468524)"><path d="M0.2 0.14 C-12.77 12.92, -64.4 63.43, -77.38 75.73 M-1.15 -0.84 C-14.36 11.69, -65.59 61.4, -78.52 73.99" stroke="#e8590c" stroke-width="2" fill="none"></path></g></g><mask></mask><g stroke-linecap="round"><g transform="translate(232.1486151125282 500.8600771497004) rotate(0 -0.7297011045739055 -115.96169079234824)"><path d="M-1.1 0.7 C-1.23 -37.85, -1.08 -192.27, -1.37 -231.01 M0.52 0.01 C0.33 -38.87, -1.84 -194.23, -1.98 -232.62" stroke="#e8590c" stroke-width="2" fill="none"></path></g></g><mask></mask><g stroke-linecap="round"><g transform="translate(312.2861522171021 426.6926969420486) rotate(0 -1.6219963636249304 -116.38646853901446)"><path d="M-0.17 0.18 C-0.54 -38.49, -2.94 -194.4, -3.07 -232.95" stroke="#e8590c" stroke-width="2.5" fill="none" stroke-dasharray="8 10"></path></g></g><mask></mask><g stroke-linecap="round"><g transform="translate(541.5108182171022 427.36169794204864) rotate(0 -0.9337911065109097 -115.643549535051)"><path d="M-0.91 0.66 C-1.38 -38.19, -1.82 -193.1, -1.83 -231.95 M0.82 -0.04 C0.11 -38.17, -2.36 -191.83, -2.68 -230.38" stroke="#e8590c" stroke-width="2" fill="none"></path></g></g><mask></mask><g stroke-linecap="round"><g transform="translate(466.9552982171021 500.16194894204864) rotate(0 -0.9707917095907135 -116.43647808025591)"><path d="M-0.93 -0.22 C-1.17 -38.74, -1.5 -192.41, -1.85 -231.04 M0.78 -1.38 C0.44 -40.23, -2.48 -194.44, -2.72 -232.65" stroke="#e8590c" stroke-width="2" fill="none"></path></g></g><mask></mask><g stroke-linecap="round"><g transform="translate(232.1486151125282 264.8600771497004) rotate(0 116.5777219567448 2.8519002940226343)"><path d="M-0.72 0.98 C38.19 1.97, 194.66 4.59, 233.88 5.25 M1.1 0.45 C39.81 1.12, 194.02 2.3, 232.87 3.26" stroke="#e8590c" stroke-width="2" fill="none"></path></g></g><mask></mask><g stroke-linecap="round"><g transform="translate(232.1486151125282 264.8600771497004) rotate(0 39.08113161586225 -36.725399690773344)"><path d="M-0.94 0.91 C12.44 -10.99, 66.05 -60.01, 79.1 -72.5 M0.76 0.34 C14.18 -11.83, 66.14 -62.1, 78.74 -74.36" stroke="#e8590c" stroke-width="2" fill="none"></path></g></g><mask></mask><g stroke-linecap="round"><g transform="translate(310.1486151125282 191.86007714970037) rotate(0 115.59593565861694 2.4021176685579064)"><path d="M-0.88 -0.13 C37.31 0.65, 191.19 4.2, 229.92 5.03 M0.86 -1.25 C39.34 -0.37, 193.71 4.93, 232.07 6.05" stroke="#e8590c" stroke-width="2" fill="none"></path></g></g><mask></mask><g stroke-linecap="round"><g transform="translate(539.1486151125282 196.86007714970037) rotate(0 -37.90280036101119 36.28292037764564)"><path d="M0.81 0.02 C-11.79 12.37, -62.9 61.25, -75.44 73.59 M-0.22 -1.02 C-13.03 11.03, -64.17 59.56, -76.62 71.77" stroke="#e8590c" stroke-width="2" fill="none"></path></g></g><mask></mask></svg>