<svg version="1.1" xmlns="http://www.w3.org/2000/svg" viewBox="0 0 692 434" width="692" height="434" class="excalidraw-svg"><!-- svg-source:excalidraw --><metadata></metadata><defs><style class="style-fonts">
      </style></defs><rect x="0" y="0" width="692" height="434" fill="#ffffff"></rect><g stroke-linecap="round"><g transform="translate(19 363) rotate(0 312.58308926858007 0.5335765372318093)"><path d="M-0.62 0.99 C103.79 1, 521.58 0.1, 625.78 -0.19 M1.26 0.47 C105.64 0.68, 521.53 1.3, 625.25 1.25" stroke="#1971c2" stroke-width="2" fill="none"></path></g><g transform="translate(19 363) rotate(0 312.58308926858007 0.5335765372318093)"><path d="M601.75 9.79 C609.16 9.13, 612.94 5.03, 625.25 1.25 M601.75 9.79 C607.49 7.94, 612.76 5.34, 625.25 1.25" stroke="#1971c2" stroke-width="2" fill="none"></path></g><g transform="translate(19 363) rotate(0 312.58308926858007 0.5335765372318093)"><path d="M601.76 -7.31 C609.14 -3.79, 612.91 -3.72, 625.25 1.25 M601.76 -7.31 C607.53 -5.12, 612.8 -3.67, 625.25 1.25" stroke="#1971c2" stroke-width="2" fill="none"></path></g></g><mask></mask><g stroke-linecap="round"><g transform="translate(21 364) rotate(0 143.70718967281283 -144.24730365239083)"><path d="M-0.72 -0.46 C47.27 -48.27, 240.34 -240.3, 288.14 -288.04 M1.1 -1.74 C49.02 -49.34, 239.89 -239.75, 287.78 -287.05" stroke="#e03131" stroke-width="2" fill="none"></path></g><g transform="translate(21 364) rotate(0 143.70718967281283 -144.24730365239083)"><path d="M277.14 -264.43 C279.95 -269.61, 282.34 -280.18, 287.78 -287.05 M277.14 -264.43 C280.55 -271.26, 282.97 -278.9, 287.78 -287.05" stroke="#e03131" stroke-width="2" fill="none"></path></g><g transform="translate(21 364) rotate(0 143.70718967281283 -144.24730365239083)"><path d="M265.09 -276.56 C271.59 -277.84, 277.78 -284.58, 287.78 -287.05 M265.09 -276.56 C272.3 -279.64, 278.46 -283.52, 287.78 -287.05" stroke="#e03131" stroke-width="2" fill="none"></path></g></g><mask></mask><g stroke-linecap="round"><g transform="translate(310 77) rotate(0 166.45345828211865 142.33473614999093)"><path d="M-0.16 0.35 C55.55 47.99, 278.99 237.75, 334.61 285.17 M-1.7 -0.5 C53.87 46.88, 278.26 236.41, 333.98 283.67" stroke="#1e1e1e" stroke-width="2" fill="none"></path></g></g><mask></mask><g transform="translate(464 210) rotate(0 0.00005000000000165983 0.00004999999999988347)" stroke="none"><path fill="#1e1e1e" d="M 3.14,-3.14 Q 3.14,-3.14 3.55,-2.55 3.97,-1.97 4.18,-1.28 4.40,-0.59 4.38,0.11 4.36,0.83 4.11,1.51 3.86,2.18 3.41,2.74 2.96,3.30 2.36,3.69 1.75,4.08 1.05,4.25 0.36,4.42 -0.35,4.36 -1.07,4.31 -1.73,4.02 -2.39,3.74 -2.92,3.26 -3.46,2.78 -3.81,2.15 -4.16,1.53 -4.30,0.82 -4.43,0.11 -4.34,-0.59 -4.24,-1.30 -3.92,-1.94 -3.60,-2.59 -3.09,-3.09 -2.59,-3.60 -1.94,-3.92 -1.30,-4.24 -0.59,-4.34 0.12,-4.43 0.82,-4.30 1.53,-4.16 2.15,-3.81 2.78,-3.46 3.26,-2.92 3.74,-2.39 4.02,-1.73 4.31,-1.07 4.36,-0.35 4.42,0.36 4.25,1.05 4.07,1.75 3.69,2.36 3.30,2.96 2.74,3.41 2.18,3.86 1.51,4.11 0.83,4.36 0.11,4.38 -0.60,4.40 -1.28,4.18 -1.97,3.97 -2.55,3.55 -3.14,3.13 -3.14,3.14 -3.14,3.14 -3.47,2.71 -3.80,2.29 -4.02,1.80 -4.24,1.32 -4.33,0.79 -4.43,0.26 -4.40,-0.26 -4.36,-0.80 -4.20,-1.31 -4.04,-1.82 -3.77,-2.28 -3.49,-2.73 -3.11,-3.11 -2.73,-3.49 -2.28,-3.77 -1.82,-4.05 -1.31,-4.20 -0.80,-4.36 -0.26,-4.40 0.26,-4.43 0.79,-4.33 1.32,-4.24 1.80,-4.02 2.29,-3.80 2.71,-3.47 3.14,-3.14 3.14,-3.14 L 3.14,-3.14 Z"></path></g><g transform="translate(318 364) rotate(0 0.00004999999999988347 0.00005000000000165983)" stroke="none"><path fill="#1e1e1e" d="M 3.14,-3.14 Q 3.14,-3.14 3.55,-2.55 3.97,-1.97 4.18,-1.28 4.40,-0.59 4.38,0.11 4.36,0.83 4.11,1.51 3.86,2.18 3.41,2.74 2.96,3.30 2.36,3.69 1.75,4.08 1.05,4.25 0.36,4.42 -0.35,4.36 -1.07,4.31 -1.73,4.02 -2.39,3.74 -2.92,3.26 -3.46,2.78 -3.81,2.15 -4.16,1.53 -4.30,0.82 -4.43,0.11 -4.34,-0.59 -4.24,-1.30 -3.92,-1.94 -3.60,-2.59 -3.09,-3.09 -2.59,-3.60 -1.94,-3.92 -1.30,-4.24 -0.59,-4.34 0.12,-4.43 0.82,-4.30 1.53,-4.16 2.15,-3.81 2.78,-3.46 3.26,-2.92 3.74,-2.39 4.02,-1.73 4.31,-1.07 4.36,-0.35 4.42,0.36 4.25,1.05 4.07,1.75 3.69,2.36 3.30,2.96 2.74,3.41 2.18,3.86 1.51,4.11 0.83,4.36 0.11,4.38 -0.60,4.40 -1.28,4.18 -1.97,3.97 -2.55,3.55 -3.14,3.13 -3.14,3.14 -3.14,3.14 -3.47,2.71 -3.80,2.29 -4.02,1.80 -4.24,1.32 -4.33,0.79 -4.43,0.26 -4.40,-0.26 -4.36,-0.80 -4.20,-1.31 -4.04,-1.82 -3.77,-2.28 -3.49,-2.73 -3.11,-3.11 -2.73,-3.49 -2.28,-3.77 -1.82,-4.05 -1.31,-4.20 -0.80,-4.36 -0.26,-4.40 0.26,-4.43 0.79,-4.33 1.32,-4.24 1.80,-4.02 2.29,-3.80 2.71,-3.47 3.14,-3.14 3.14,-3.14 L 3.14,-3.14 Z"></path></g><g transform="translate(443 400) rotate(0 -1 11.5)" stroke="none"><path fill="#1971c2" d="M -0.62,2.49 Q -0.62,2.49 -1.71,2.22 -2.81,1.96 -3.60,2.75 -4.39,3.54 -5.43,5.17 -6.48,6.80 -7.50,8.72 -8.52,10.64 -9.18,12.43 -9.85,14.23 -10.29,16.27 -10.73,18.31 -9.45,19.50 -8.16,20.69 -7.10,19.59 -6.03,18.49 -4.85,16.68 -3.66,14.87 -2.99,13.21 -2.32,11.56 -1.81,10.02 -1.29,8.48 -0.75,7.26 -0.20,6.04 -0.27,4.85 -0.33,3.66 -0.36,2.19 -0.38,0.72 -0.33,0.32 -0.28,-0.08 -0.13,-0.46 0.00,-0.84 0.24,-1.18 0.47,-1.51 0.78,-1.78 1.08,-2.05 1.44,-2.24 1.81,-2.43 2.20,-2.52 2.60,-2.62 3.01,-2.62 3.42,-2.62 3.81,-2.52 4.21,-2.42 4.57,-2.23 4.93,-2.03 5.23,-1.76 5.54,-1.49 5.77,-1.15 6.00,-0.82 6.14,-0.43 6.28,-0.05 6.33,0.34 6.38,0.75 5.31,2.02 4.24,3.30 4.80,4.32 5.36,5.34 5.28,7.70 5.19,10.06 5.17,11.19 5.15,12.32 5.17,13.71 5.20,15.09 6.22,16.41 7.23,17.72 9.70,18.19 12.18,18.67 12.71,18.78 13.23,18.90 13.69,19.18 14.16,19.46 14.51,19.87 14.85,20.28 15.05,20.78 15.25,21.28 15.28,21.82 15.31,22.36 15.16,22.88 15.02,23.40 14.72,23.84 14.41,24.29 13.98,24.62 13.55,24.94 13.04,25.11 12.53,25.29 11.99,25.29 11.45,25.28 10.94,25.11 10.43,24.94 10.00,24.61 9.57,24.28 9.27,23.84 8.97,23.39 8.82,22.87 8.68,22.35 8.71,21.81 8.74,21.27 8.94,20.77 9.14,20.27 9.49,19.86 9.84,19.45 10.30,19.17 10.77,18.90 11.29,18.78 11.82,18.67 12.36,18.72 12.89,18.78 13.38,19.01 13.87,19.24 14.26,19.61 14.65,19.98 14.90,20.46 15.16,20.94 15.24,21.47 15.33,22.00 15.24,22.53 15.15,23.06 14.90,23.54 14.65,24.02 14.25,24.39 13.86,24.76 13.37,24.98 12.88,25.21 12.35,25.27 11.81,25.32 11.81,25.32 11.81,25.32 8.39,24.54 4.98,23.76 3.51,22.84 2.04,21.91 0.91,20.94 -0.20,19.96 -0.70,18.70 -1.21,17.43 -1.20,16.26 -1.20,15.08 -1.17,13.70 -1.14,12.31 -1.16,11.18 -1.18,10.04 -1.23,8.71 -1.27,7.38 -1.28,6.30 -1.30,5.21 -1.31,3.95 -1.32,2.70 -1.16,1.52 -1.01,0.35 -0.20,-0.58 0.60,-1.52 0.10,-0.39 -0.38,0.72 -0.33,0.32 -0.28,-0.08 -0.13,-0.46 0.00,-0.84 0.24,-1.18 0.47,-1.51 0.78,-1.78 1.08,-2.05 1.44,-2.24 1.81,-2.43 2.20,-2.52 2.60,-2.62 3.01,-2.62 3.42,-2.62 3.81,-2.52 4.21,-2.42 4.57,-2.23 4.93,-2.03 5.23,-1.76 5.54,-1.49 5.77,-1.15 6.00,-0.82 6.14,-0.43 6.28,-0.05 6.33,0.34 6.38,0.75 6.36,1.76 6.33,2.77 6.29,3.84 6.25,4.92 6.06,6.29 5.88,7.66 5.35,8.69 4.81,9.72 4.29,10.84 3.76,11.96 3.11,13.70 2.46,15.45 1.95,16.88 1.45,18.31 0.38,19.81 -0.68,21.30 -2.14,22.89 -3.61,24.48 -5.06,25.37 -6.52,26.26 -8.17,26.35 -9.83,26.44 -11.38,25.45 -12.94,24.46 -14.44,23.08 -15.95,21.69 -16.26,20.52 -16.58,19.36 -16.07,17.09 -15.57,14.82 -14.91,12.71 -14.25,10.61 -13.80,9.21 -13.35,7.80 -12.74,6.75 -12.13,5.70 -11.64,4.69 -11.16,3.68 -10.38,2.46 -9.60,1.24 -8.04,-0.33 -6.47,-1.92 -5.46,-2.39 -4.45,-2.86 -3.11,-2.98 -1.78,-3.11 -0.58,-2.80 0.62,-2.49 0.91,-2.38 1.20,-2.27 1.45,-2.09 1.70,-1.91 1.91,-1.68 2.11,-1.45 2.26,-1.17 2.40,-0.90 2.47,-0.60 2.55,-0.30 2.54,0.00 2.54,0.31 2.47,0.61 2.39,0.91 2.25,1.19 2.10,1.46 1.90,1.69 1.69,1.92 1.44,2.10 1.18,2.27 0.89,2.38 0.60,2.49 0.29,2.53 -0.00,2.56 -0.31,2.53 -0.62,2.49 -0.62,2.49 L -0.62,2.49 Z"></path></g><g transform="translate(421 385) rotate(0 19 1.5)" stroke="none"><path fill="#1971c2" d="M 0.26,-2.11 Q 0.26,-2.11 2.55,-1.71 4.83,-1.32 7.46,-1.12 10.08,-0.93 12.93,-0.82 15.78,-0.71 17.85,-0.65 19.93,-0.60 21.39,-0.67 22.86,-0.75 24.27,-0.52 25.68,-0.29 26.91,-0.25 28.15,-0.21 29.54,-0.20 30.94,-0.19 32.11,-0.22 33.28,-0.26 36.07,0.27 38.85,0.80 39.18,1.00 39.51,1.19 39.75,1.48 40.00,1.77 40.15,2.12 40.29,2.47 40.31,2.85 40.34,3.23 40.24,3.60 40.14,3.97 39.93,4.29 39.71,4.60 39.41,4.83 39.11,5.07 38.75,5.19 38.39,5.31 38.01,5.32 37.63,5.32 37.27,5.20 36.91,5.08 36.60,4.85 36.30,4.63 36.08,4.31 35.87,4.00 35.76,3.63 35.66,3.27 35.68,2.88 35.69,2.50 35.83,2.15 35.97,1.80 36.21,1.50 36.46,1.21 36.78,1.01 37.11,0.81 37.48,0.73 37.85,0.65 38.23,0.68 38.61,0.72 38.96,0.88 39.30,1.04 39.58,1.30 39.86,1.56 40.04,1.89 40.22,2.23 40.28,2.60 40.35,2.98 40.29,3.36 40.23,3.73 40.05,4.07 39.88,4.41 39.60,4.67 39.33,4.93 38.98,5.10 38.64,5.26 38.26,5.30 37.88,5.35 37.51,5.27 37.14,5.19 37.14,5.19 37.14,5.19 35.17,4.69 33.20,4.19 31.99,4.11 30.78,4.03 29.28,3.94 27.79,3.84 25.30,3.28 22.81,2.72 21.36,2.62 19.90,2.53 17.81,2.54 15.72,2.55 12.82,2.56 9.92,2.57 7.14,2.52 4.36,2.47 2.04,2.29 -0.26,2.11 -0.51,2.05 -0.76,1.98 -0.98,1.86 -1.21,1.74 -1.40,1.57 -1.59,1.40 -1.74,1.19 -1.88,0.98 -1.98,0.74 -2.07,0.50 -2.10,0.24 -2.13,-0.00 -2.09,-0.26 -2.06,-0.51 -1.97,-0.75 -1.88,-0.99 -1.73,-1.20 -1.58,-1.41 -1.39,-1.58 -1.20,-1.75 -0.97,-1.87 -0.74,-1.99 -0.49,-2.05 -0.24,-2.11 0.00,-2.11 0.26,-2.11 0.26,-2.11 L 0.26,-2.11 Z"></path></g><g transform="translate(451 381) rotate(0 6 6)" stroke="none"><path fill="#1971c2" d="M 0.97,-2.43 Q 0.97,-2.43 2.40,-1.82 3.82,-1.22 4.91,-0.63 6.00,-0.04 8.11,1.34 10.22,2.73 11.68,4.28 13.15,5.83 13.84,7.06 14.54,8.29 13.99,10.27 13.45,12.25 11.88,13.07 10.31,13.90 9.08,14.02 7.85,14.14 6.39,14.17 4.93,14.21 4.25,14.53 3.57,14.84 3.07,15.02 2.57,15.19 2.05,15.20 1.52,15.21 1.02,15.05 0.52,14.89 0.10,14.58 -0.32,14.27 -0.62,13.84 -0.92,13.41 -1.07,12.90 -1.22,12.40 -1.20,11.87 -1.18,11.35 -0.99,10.86 -0.81,10.37 -0.47,9.96 -0.14,9.55 0.30,9.27 0.74,9.00 1.25,8.87 1.77,8.75 2.29,8.80 2.81,8.85 3.29,9.06 3.77,9.27 4.16,9.63 4.55,9.99 4.80,10.45 5.06,10.91 5.15,11.42 5.25,11.94 5.17,12.46 5.09,12.98 4.85,13.45 4.61,13.92 4.24,14.29 3.86,14.66 3.39,14.88 2.92,15.11 2.39,15.18 1.87,15.24 1.36,15.14 0.84,15.03 0.39,14.77 -0.06,14.51 -0.41,14.11 -0.75,13.72 -0.96,13.23 -1.16,12.75 -1.19,12.22 -1.23,11.70 -1.10,11.19 -0.97,10.68 -0.68,10.24 -0.39,9.80 0.01,9.47 0.43,9.15 0.43,9.15 0.42,9.15 2.66,8.46 4.90,7.77 6.27,7.79 7.63,7.80 8.32,8.77 9.00,9.74 8.71,8.68 8.42,7.62 6.86,6.60 5.31,5.59 3.61,4.55 1.92,3.52 0.47,2.97 -0.97,2.43 -1.24,2.28 -1.52,2.12 -1.75,1.91 -1.99,1.70 -2.16,1.43 -2.34,1.17 -2.44,0.87 -2.55,0.58 -2.58,0.26 -2.61,-0.04 -2.57,-0.35 -2.53,-0.67 -2.41,-0.96 -2.29,-1.25 -2.11,-1.51 -1.92,-1.77 -1.68,-1.97 -1.44,-2.18 -1.16,-2.32 -0.88,-2.46 -0.57,-2.53 -0.26,-2.60 0.04,-2.59 0.36,-2.59 0.66,-2.51 0.97,-2.43 0.97,-2.43 L 0.97,-2.43 Z"></path></g><g transform="translate(131 164) rotate(0 8 29)" stroke="none"><path fill="#e03131" d="M 1.77,0 Q 1.77,0 1.71,3.73 1.64,7.47 1.60,10.78 1.55,14.10 1.52,17.81 1.49,21.51 1.46,26.25 1.44,30.99 1.42,35.88 1.40,40.77 1.39,44.28 1.38,47.80 1.37,50.16 1.36,52.51 1.45,54.09 1.55,55.66 1.62,56.05 1.68,56.43 1.66,56.63 1.64,56.83 1.56,57.02 1.49,57.21 1.38,57.38 1.26,57.55 1.11,57.69 0.95,57.82 0.77,57.91 0.59,58.01 0.40,58.06 0.20,58.11 -0.00,58.11 -0.20,58.11 -0.40,58.06 -0.59,58.01 -0.77,57.91 -0.95,57.82 -1.11,57.69 -1.26,57.55 -1.38,57.38 -1.49,57.21 -1.56,57.02 -1.64,56.83 -1.66,56.63 -1.68,56.43 -1.82,54.55 -1.96,52.66 -2.04,51.60 -2.12,50.54 -1.85,49.00 -1.58,47.46 -1.17,45.96 -0.76,44.47 -0.30,42.50 0.15,40.53 0.58,39.46 1.02,38.40 1.50,37.34 1.98,36.28 3.03,35.17 4.07,34.06 5.81,33.25 7.55,32.44 9.25,32.27 10.95,32.10 12.92,32.61 14.88,33.12 15.90,34.64 16.93,36.15 17.43,37.16 17.94,38.17 18.43,39.91 18.92,41.65 18.96,42.95 19.01,44.24 18.64,46.32 18.26,48.40 17.21,50.19 16.15,51.97 15.20,52.68 14.25,53.39 12.65,53.78 11.05,54.17 9.62,54.22 8.20,54.28 5.29,53.78 2.38,53.28 1.87,53.09 1.36,52.91 0.94,52.57 0.51,52.23 0.22,51.78 -0.06,51.32 -0.19,50.80 -0.32,50.28 -0.28,49.74 -0.24,49.20 -0.03,48.70 0.17,48.20 0.53,47.80 0.89,47.40 1.36,47.13 1.83,46.86 2.36,46.76 2.89,46.66 3.43,46.73 3.97,46.80 4.45,47.04 4.94,47.28 5.32,47.66 5.70,48.04 5.94,48.52 6.19,49.00 6.26,49.54 6.34,50.08 6.24,50.61 6.13,51.14 5.87,51.61 5.61,52.08 5.20,52.44 4.80,52.80 4.31,53.02 3.81,53.24 3.27,53.28 2.73,53.33 2.21,53.20 1.68,53.07 1.23,52.78 0.77,52.49 0.43,52.07 0.09,51.65 -0.09,51.14 -0.27,50.63 -0.29,50.09 -0.31,49.55 -0.15,49.04 0.00,48.52 0.31,48.08 0.63,47.64 1.06,47.32 1.50,47.01 2.02,46.85 2.53,46.69 3.07,46.70 3.62,46.71 3.61,46.71 3.61,46.71 5.28,47.20 6.95,47.68 8.27,47.68 9.59,47.68 10.68,47.53 11.77,47.38 12.32,45.92 12.87,44.46 12.71,42.67 12.56,40.88 11.87,39.42 11.17,37.96 9.99,37.95 8.82,37.93 7.71,38.29 6.60,38.65 5.69,40.46 4.77,42.28 4.16,44.00 3.55,45.72 3.14,47.06 2.73,48.41 2.35,50.54 1.96,52.66 1.82,54.55 1.68,56.43 1.66,56.63 1.64,56.83 1.56,57.02 1.49,57.21 1.38,57.38 1.26,57.55 1.11,57.69 0.95,57.82 0.77,57.91 0.59,58.01 0.40,58.06 0.20,58.11 0.00,58.11 -0.20,58.11 -0.40,58.06 -0.59,58.01 -0.77,57.91 -0.95,57.82 -1.11,57.69 -1.26,57.55 -1.38,57.38 -1.49,57.21 -1.56,57.02 -1.64,56.83 -1.66,56.63 -1.68,56.43 -1.62,56.05 -1.55,55.66 -1.45,54.09 -1.36,52.51 -1.37,50.16 -1.38,47.80 -1.39,44.28 -1.40,40.77 -1.42,35.88 -1.44,30.99 -1.46,26.25 -1.49,21.51 -1.52,17.81 -1.55,14.10 -1.60,10.78 -1.64,7.47 -1.71,3.73 -1.77,0 -1.74,-0.21 -1.72,-0.42 -1.64,-0.62 -1.57,-0.82 -1.44,-1.00 -1.32,-1.17 -1.16,-1.31 -1.00,-1.46 -0.81,-1.55 -0.62,-1.65 -0.42,-1.71 -0.21,-1.76 0.00,-1.76 0.21,-1.76 0.42,-1.71 0.62,-1.65 0.81,-1.55 1.00,-1.46 1.16,-1.31 1.32,-1.17 1.44,-1.00 1.57,-0.82 1.64,-0.62 1.72,-0.42 1.74,-0.21 1.77,0.00 1.77,0.00 L 1.77,0 Z"></path></g><g transform="translate(114 160) rotate(0 13 0.5)" stroke="none"><path fill="#e03131" d="M 0.29,-2.38 Q 0.29,-2.38 2.58,-1.95 4.86,-1.52 6.63,-1.37 8.41,-1.22 9.74,-1.21 11.07,-1.21 12.49,-1.22 13.90,-1.23 15.37,-1.24 16.83,-1.25 18.03,-1.30 19.23,-1.34 20.31,-1.38 21.39,-1.43 24.19,-1.52 27.00,-1.61 27.41,-1.54 27.83,-1.47 28.20,-1.27 28.58,-1.07 28.87,-0.77 29.16,-0.46 29.34,-0.08 29.51,0.30 29.56,0.72 29.60,1.14 29.51,1.55 29.42,1.96 29.20,2.32 28.99,2.69 28.66,2.96 28.34,3.23 27.95,3.39 27.56,3.55 27.13,3.57 26.71,3.59 26.30,3.48 25.90,3.37 25.55,3.13 25.20,2.89 24.94,2.55 24.69,2.22 24.55,1.82 24.42,1.42 24.42,0.99 24.42,0.57 24.55,0.17 24.69,-0.22 24.94,-0.56 25.20,-0.89 25.55,-1.13 25.90,-1.37 26.31,-1.48 26.71,-1.59 27.14,-1.57 27.56,-1.55 27.95,-1.39 28.34,-1.23 28.66,-0.96 28.99,-0.69 29.20,-0.32 29.42,0.03 29.51,0.44 29.60,0.85 29.56,1.27 29.51,1.69 29.33,2.08 29.16,2.46 28.87,2.77 28.58,3.08 28.20,3.27 27.83,3.47 27.41,3.54 26.99,3.61 26.99,3.61 26.99,3.61 24.19,3.52 21.39,3.43 20.30,3.38 19.21,3.33 18.01,3.28 16.80,3.23 15.32,3.20 13.83,3.17 12.37,3.11 10.91,3.06 9.52,2.96 8.14,2.85 6.24,2.76 4.33,2.67 2.01,2.52 -0.29,2.38 -0.57,2.31 -0.85,2.24 -1.11,2.10 -1.37,1.97 -1.58,1.77 -1.80,1.58 -1.96,1.34 -2.12,1.10 -2.23,0.83 -2.33,0.56 -2.36,0.27 -2.40,-0.00 -2.36,-0.29 -2.32,-0.58 -2.22,-0.85 -2.12,-1.12 -1.95,-1.36 -1.79,-1.59 -1.57,-1.78 -1.35,-1.98 -1.09,-2.11 -0.84,-2.24 -0.56,-2.31 -0.28,-2.38 0.00,-2.38 0.29,-2.38 0.29,-2.38 L 0.29,-2.38 Z"></path></g><g transform="translate(134 155) rotate(0 7.5 6.5)" stroke="none"><path fill="#e03131" d="M 0.51,-2.59 Q 0.51,-2.59 1.96,-2.28 3.40,-1.97 4.58,-1.50 5.77,-1.04 7.73,-0.49 9.70,0.05 10.81,0.46 11.92,0.88 12.86,1.39 13.80,1.91 15.28,3.28 16.76,4.65 16.83,6.02 16.90,7.38 15.88,8.59 14.85,9.80 13.62,10.95 12.39,12.11 11.07,13.36 9.75,14.62 9.41,15.02 9.08,15.41 8.64,15.68 8.20,15.95 7.70,16.07 7.19,16.18 6.68,16.13 6.16,16.08 5.69,15.87 5.22,15.65 4.85,15.30 4.47,14.95 4.22,14.49 3.98,14.04 3.89,13.53 3.80,13.02 3.88,12.51 3.96,12.00 4.20,11.54 4.44,11.08 4.81,10.72 5.18,10.36 5.65,10.14 6.12,9.92 6.63,9.86 7.14,9.80 7.65,9.91 8.15,10.02 8.60,10.28 9.04,10.54 9.38,10.93 9.72,11.33 9.91,11.80 10.11,12.28 10.14,12.80 10.17,13.32 10.04,13.81 9.91,14.31 9.62,14.74 9.33,15.17 8.92,15.49 8.51,15.81 8.03,15.97 7.54,16.14 7.02,16.15 6.50,16.15 6.01,15.99 5.52,15.83 5.11,15.52 4.69,15.21 4.40,14.78 4.11,14.36 3.96,13.86 3.82,13.37 3.85,12.85 3.87,12.33 4.06,11.85 4.24,11.37 4.24,11.37 4.24,11.37 6.11,9.47 7.99,7.57 9.46,6.18 10.93,4.79 10.74,5.90 10.55,7.01 9.50,6.48 8.46,5.96 6.89,5.18 5.31,4.40 3.83,3.76 2.34,3.12 0.91,2.86 -0.51,2.59 -0.82,2.49 -1.12,2.39 -1.39,2.22 -1.66,2.05 -1.89,1.83 -2.11,1.60 -2.27,1.32 -2.43,1.04 -2.52,0.74 -2.61,0.43 -2.62,0.11 -2.64,-0.20 -2.57,-0.51 -2.51,-0.82 -2.38,-1.11 -2.24,-1.40 -2.04,-1.65 -1.84,-1.90 -1.58,-2.09 -1.33,-2.29 -1.04,-2.41 -0.74,-2.54 -0.43,-2.59 -0.11,-2.64 0.20,-2.62 0.52,-2.59 0.51,-2.59 L 0.51,-2.59 Z"></path></g><g stroke-linecap="round"><g transform="translate(311 77) rotate(0 3.0135569337755452 144.9977219490055)"><path d="M-0.95 0.43 C0.19 49.01, 5.64 242.28, 6.98 290.38 M0.75 -0.38 C1.81 47.91, 5.52 240.09, 6.55 288.46" stroke="#2f9e44" stroke-width="1" fill="none"></path></g><g transform="translate(311 77) rotate(0 3.0135569337755452 144.9977219490055)"><path d="M-2.47 265.14 C0.82 274.02, 3.51 281.41, 6.55 288.46 M-2.47 265.14 C-1.32 270.32, 2.5 275.5, 6.55 288.46" stroke="#2f9e44" stroke-width="1" fill="none"></path></g><g transform="translate(311 77) rotate(0 3.0135569337755452 144.9977219490055)"><path d="M14.62 264.8 C12.65 273.65, 10.08 281.14, 6.55 288.46 M14.62 264.8 C12.04 270.09, 12.12 275.35, 6.55 288.46" stroke="#2f9e44" stroke-width="1" fill="none"></path></g></g><mask></mask><g stroke-linecap="round"><g transform="translate(21 364) rotate(0 220.556195411738 -76.99653700611555)"><path d="M-0.01 -1.15 C73.25 -26.96, 366.89 -129.51, 440.26 -154.85 M-1.48 0.86 C72.11 -24.82, 368.55 -127.76, 442.59 -153.76" stroke="#f08c00" stroke-width="1" fill="none"></path></g><g transform="translate(21 364) rotate(0 220.556195411738 -76.99653700611555)"><path d="M423.23 -137.95 C428.21 -144.81, 435.61 -150.46, 442.59 -153.76 M423.23 -137.95 C430.15 -143.6, 436.7 -149.76, 442.59 -153.76" stroke="#f08c00" stroke-width="1" fill="none"></path></g><g transform="translate(21 364) rotate(0 220.556195411738 -76.99653700611555)"><path d="M417.59 -154.09 C424.59 -155.2, 434 -155.1, 442.59 -153.76 M417.59 -154.09 C426.61 -153.82, 435.22 -154.08, 442.59 -153.76" stroke="#f08c00" stroke-width="1" fill="none"></path></g></g><mask></mask><g transform="translate(316 262) rotate(0 0.5 0)" stroke="none"><path fill="#2f9e44" d="M 1,-2.38 Q 1,-2.38 1.38,-2.32 1.76,-2.26 2.10,-2.07 2.44,-1.89 2.70,-1.61 2.97,-1.33 3.13,-0.98 3.29,-0.63 3.33,-0.25 3.38,0.12 3.29,0.50 3.21,0.88 3.01,1.21 2.81,1.54 2.52,1.79 2.22,2.04 1.87,2.18 1.51,2.32 1.12,2.35 0.74,2.37 0.37,2.26 -0.00,2.16 -0.32,1.94 -0.64,1.73 -0.87,1.42 -1.10,1.11 -1.23,0.75 -1.35,0.38 -1.35,-0.00 -1.35,-0.38 -1.23,-0.75 -1.10,-1.11 -0.87,-1.42 -0.63,-1.73 -0.32,-1.94 -0.00,-2.16 0.37,-2.26 0.74,-2.37 1.12,-2.35 1.51,-2.32 1.87,-2.18 2.23,-2.04 2.52,-1.79 2.81,-1.54 3.01,-1.21 3.21,-0.88 3.29,-0.50 3.38,-0.12 3.33,0.25 3.29,0.63 3.13,0.98 2.97,1.33 2.70,1.61 2.44,1.89 2.10,2.07 1.76,2.26 1.38,2.32 0.99,2.38 0.99,2.38 1,2.38 0.70,2.47 0.40,2.55 0.08,2.56 -0.22,2.57 -0.52,2.51 -0.83,2.44 -1.11,2.31 -1.39,2.17 -1.63,1.97 -1.87,1.78 -2.06,1.53 -2.24,1.28 -2.36,0.99 -2.48,0.70 -2.53,0.39 -2.58,0.08 -2.55,-0.22 -2.53,-0.53 -2.43,-0.82 -2.33,-1.12 -2.16,-1.38 -1.99,-1.64 -1.76,-1.86 -1.54,-2.07 -1.27,-2.23 -0.99,-2.38 0.00,-2.38 L 1,-2.38 Z"></path></g><g transform="translate(14 389) rotate(0 5.5 12)" stroke="none"><path fill="#f08c00" d="M 2.32,0.77 Q 2.32,0.77 1.68,2.47 1.04,4.18 0.44,5.98 -0.15,7.79 -0.72,9.88 -1.30,11.96 -1.06,13.43 -0.82,14.89 -0.26,15.89 0.29,16.88 0.87,17.98 1.46,19.09 2.50,19.51 3.53,19.92 4.72,20.35 5.91,20.77 7.63,20.31 9.35,19.85 10.12,19.06 10.89,18.28 11.40,16.88 11.91,15.48 11.91,14.30 11.91,13.13 11.88,11.96 11.85,10.80 10.79,9.96 9.72,9.13 8.86,8.39 8.00,7.66 6.74,7.25 5.47,6.84 4.53,6.61 3.58,6.38 3.05,6.23 2.52,6.08 2.07,5.76 1.62,5.45 1.29,5.00 0.96,4.56 0.79,4.03 0.62,3.51 0.63,2.95 0.63,2.40 0.82,1.88 1.00,1.36 1.34,0.92 1.68,0.49 2.14,0.18 2.60,-0.11 3.13,-0.25 3.67,-0.39 4.22,-0.36 4.77,-0.32 5.28,-0.11 5.79,0.09 6.21,0.45 6.62,0.82 6.90,1.29 7.18,1.77 7.29,2.31 7.41,2.85 7.34,3.40 7.27,3.95 7.04,4.45 6.80,4.95 6.41,5.34 6.03,5.74 5.54,5.99 5.05,6.24 4.50,6.33 3.95,6.41 3.41,6.31 2.86,6.22 2.38,5.95 1.90,5.69 1.52,5.28 1.15,4.88 0.92,4.37 0.69,3.87 0.64,3.32 0.59,2.77 0.71,2.23 0.84,1.69 1.13,1.22 1.42,0.75 1.85,0.40 2.27,0.05 2.79,-0.14 3.30,-0.34 3.85,-0.36 4.41,-0.38 4.41,-0.38 4.41,-0.38 7.10,0.36 9.79,1.12 10.97,2.24 12.15,3.37 13.68,3.92 15.21,4.48 16.17,5.37 17.12,6.26 17.64,7.73 18.15,9.20 18.12,10.58 18.08,11.97 18.02,13.51 17.95,15.06 17.70,16.54 17.45,18.03 16.31,19.99 15.17,21.95 14.11,23.01 13.05,24.06 11.87,24.59 10.70,25.13 9.16,25.51 7.63,25.90 6.00,25.93 4.37,25.96 3.04,25.54 1.72,25.11 0.38,24.50 -0.96,23.90 -2.06,22.76 -3.17,21.62 -3.74,20.51 -4.32,19.39 -5.13,17.87 -5.94,16.35 -6.20,14.98 -6.47,13.61 -6.32,12.53 -6.17,11.46 -5.52,10.18 -4.87,8.91 -4.57,7.77 -4.27,6.63 -3.80,4.67 -3.34,2.71 -2.83,0.97 -2.32,-0.77 -2.19,-1.04 -2.07,-1.30 -1.88,-1.53 -1.69,-1.76 -1.46,-1.94 -1.22,-2.11 -0.95,-2.23 -0.68,-2.35 -0.39,-2.39 -0.09,-2.44 0.19,-2.42 0.48,-2.39 0.76,-2.30 1.04,-2.21 1.29,-2.05 1.54,-1.89 1.75,-1.68 1.95,-1.47 2.10,-1.21 2.25,-0.96 2.33,-0.67 2.41,-0.39 2.42,-0.09 2.44,0.19 2.38,0.48 2.32,0.77 2.32,0.77 L 2.32,0.77 Z"></path></g><g transform="translate(665 368) rotate(0 -6 15)" stroke="none"><path fill="#f08c00" d="M 1.81,0.67 Q 1.81,0.67 0.87,2.95 -0.06,5.22 -1.65,8.79 -3.24,12.37 -4.79,15.88 -6.34,19.39 -7.58,22.31 -8.82,25.22 -10.15,27.35 -11.47,29.47 -11.72,29.51 -11.97,29.56 -12.22,29.52 -12.47,29.48 -12.70,29.37 -12.92,29.25 -13.10,29.07 -13.27,28.89 -13.38,28.66 -13.49,28.44 -13.52,28.18 -13.56,27.93 -13.51,27.69 -13.45,27.44 -13.33,27.22 -13.20,27.00 -13.01,26.84 -12.82,26.67 -12.59,26.57 -12.35,26.47 -12.10,26.46 -11.85,26.44 -11.60,26.50 -11.36,26.57 -11.15,26.71 -10.94,26.85 -10.78,27.04 -10.63,27.24 -10.54,27.48 -10.46,27.72 -10.45,27.97 -10.45,28.22 -10.53,28.47 -10.60,28.71 -10.75,28.91 -10.90,29.11 -11.11,29.26 -11.32,29.40 -11.56,29.47 -11.80,29.55 -12.06,29.54 -12.31,29.53 -12.54,29.44 -12.78,29.34 -12.98,29.18 -13.17,29.02 -13.30,28.81 -13.44,28.59 -13.50,28.35 -13.55,28.10 -13.53,27.85 -13.51,27.60 -13.40,27.37 -13.30,27.14 -13.13,26.95 -12.96,26.77 -12.74,26.64 -12.52,26.52 -12.52,26.52 -12.52,26.52 -12.04,25.30 -11.57,24.08 -10.39,21.13 -9.20,18.17 -7.73,14.63 -6.27,11.08 -4.82,7.53 -3.38,3.97 -2.59,1.64 -1.81,-0.67 -1.70,-0.88 -1.59,-1.09 -1.44,-1.26 -1.28,-1.44 -1.09,-1.57 -0.90,-1.71 -0.68,-1.79 -0.47,-1.87 -0.23,-1.90 -0.00,-1.93 0.22,-1.90 0.45,-1.88 0.67,-1.79 0.89,-1.71 1.08,-1.58 1.27,-1.45 1.43,-1.27 1.58,-1.10 1.69,-0.89 1.80,-0.69 1.86,-0.46 1.92,-0.24 1.92,-0.00 1.92,0.22 1.86,0.45 1.81,0.67 1.81,0.67 L 1.81,0.67 Z"></path></g><g transform="translate(668 371) rotate(0 4.5 15)" stroke="none"><path fill="#f08c00" d="M 1.65,-1.65 Q 1.65,-1.65 2.55,-0.80 3.45,0.04 4.31,1.53 5.18,3.03 5.79,4.54 6.41,6.04 6.74,7.41 7.08,8.77 7.21,10.29 7.34,11.80 7.64,13.05 7.93,14.31 8.22,16.41 8.52,18.52 8.76,19.72 9.01,20.93 9.14,22.06 9.27,23.20 9.82,24.74 10.37,26.29 10.86,27.50 11.35,28.71 11.49,29.12 11.64,29.53 11.64,29.96 11.65,30.39 11.52,30.81 11.38,31.22 11.12,31.57 10.87,31.92 10.51,32.17 10.15,32.42 9.74,32.54 9.32,32.66 8.89,32.64 8.45,32.62 8.05,32.47 7.64,32.31 7.31,32.04 6.97,31.76 6.74,31.39 6.51,31.02 6.42,30.60 6.32,30.18 6.36,29.74 6.40,29.31 6.58,28.91 6.75,28.52 7.05,28.20 7.34,27.88 7.72,27.67 8.10,27.46 8.53,27.39 8.96,27.31 9.39,27.38 9.82,27.44 10.21,27.64 10.59,27.84 10.89,28.15 11.20,28.46 11.38,28.85 11.57,29.24 11.62,29.67 11.68,30.11 11.59,30.53 11.50,30.96 11.28,31.33 11.06,31.71 10.74,31.99 10.41,32.28 10.01,32.44 9.61,32.61 9.17,32.64 8.74,32.67 8.32,32.56 7.90,32.45 7.54,32.21 7.17,31.97 6.91,31.63 6.64,31.28 6.64,31.28 6.64,31.28 5.92,28.58 5.21,25.88 4.83,23.76 4.45,21.64 4.33,20.53 4.21,19.42 3.64,17.42 3.08,15.42 2.71,13.80 2.34,12.18 2.13,10.02 1.91,7.86 0.95,5.63 -0.00,3.40 -0.82,2.53 -1.65,1.65 -1.83,1.43 -2.00,1.21 -2.12,0.95 -2.23,0.69 -2.28,0.41 -2.33,0.14 -2.32,-0.14 -2.30,-0.42 -2.22,-0.69 -2.13,-0.96 -1.99,-1.20 -1.84,-1.44 -1.64,-1.64 -1.44,-1.84 -1.20,-1.99 -0.96,-2.13 -0.69,-2.22 -0.42,-2.30 -0.14,-2.32 0.14,-2.33 0.41,-2.28 0.69,-2.23 0.95,-2.12 1.21,-2.00 1.43,-1.83 1.65,-1.65 1.65,-1.65 L 1.65,-1.65 Z"></path></g><g transform="translate(647 383) rotate(0 17.5 0)" stroke="none"><path fill="#f08c00" d="M 0,-1.98 Q 0,-1.98 2.01,-1.92 4.02,-1.86 6.03,-1.82 8.03,-1.77 10.61,-1.71 13.19,-1.65 15.72,-1.60 18.25,-1.56 20.76,-1.52 23.28,-1.49 25.21,-1.51 27.14,-1.53 28.82,-1.59 30.51,-1.65 32.75,-1.73 35,-1.81 35.29,-1.77 35.58,-1.72 35.84,-1.58 36.10,-1.44 36.30,-1.23 36.50,-1.02 36.63,-0.75 36.75,-0.48 36.78,-0.19 36.81,0.09 36.75,0.38 36.69,0.67 36.53,0.92 36.38,1.17 36.16,1.36 35.93,1.55 35.66,1.66 35.39,1.77 35.09,1.79 34.80,1.80 34.51,1.73 34.23,1.65 33.99,1.48 33.74,1.32 33.57,1.08 33.39,0.85 33.29,0.57 33.20,0.29 33.20,-0.00 33.20,-0.29 33.29,-0.57 33.39,-0.85 33.57,-1.08 33.74,-1.32 33.99,-1.48 34.23,-1.65 34.51,-1.73 34.80,-1.80 35.09,-1.79 35.39,-1.77 35.66,-1.66 35.93,-1.55 36.16,-1.36 36.38,-1.17 36.53,-0.92 36.69,-0.67 36.75,-0.38 36.81,-0.09 36.78,0.19 36.75,0.48 36.62,0.75 36.50,1.02 36.30,1.23 36.10,1.44 35.84,1.58 35.58,1.72 35.29,1.77 34.99,1.81 34.99,1.81 35,1.81 32.75,1.73 30.51,1.65 28.82,1.59 27.14,1.53 25.21,1.51 23.28,1.49 20.76,1.52 18.25,1.56 15.72,1.60 13.19,1.65 10.61,1.71 8.03,1.77 6.03,1.82 4.02,1.86 2.01,1.92 0,1.98 -0.23,1.95 -0.47,1.92 -0.69,1.84 -0.92,1.75 -1.12,1.62 -1.31,1.48 -1.47,1.30 -1.63,1.12 -1.74,0.91 -1.85,0.70 -1.91,0.47 -1.97,0.23 -1.97,-0.00 -1.97,-0.23 -1.91,-0.47 -1.85,-0.70 -1.74,-0.91 -1.63,-1.12 -1.47,-1.30 -1.31,-1.48 -1.12,-1.62 -0.92,-1.75 -0.69,-1.84 -0.47,-1.92 -0.23,-1.95 0.00,-1.98 0.00,-1.98 L 0,-1.98 Z"></path></g><g transform="translate(334 10) rotate(0 2 13.5)" stroke="none"><path fill="#f08c00" d="M 1.97,-0.29 Q 1.97,-0.29 3.03,7.48 4.09,15.25 4.87,21.00 5.66,26.75 5.65,27.02 5.65,27.29 5.56,27.55 5.47,27.80 5.30,28.02 5.13,28.23 4.90,28.38 4.68,28.53 4.41,28.60 4.15,28.67 3.88,28.65 3.61,28.63 3.36,28.53 3.11,28.42 2.90,28.24 2.70,28.06 2.56,27.83 2.43,27.59 2.37,27.33 2.32,27.06 2.35,26.79 2.38,26.52 2.50,26.28 2.62,26.03 2.81,25.84 3.00,25.64 3.24,25.52 3.48,25.40 3.75,25.36 4.02,25.32 4.29,25.36 4.56,25.41 4.79,25.54 5.03,25.67 5.22,25.87 5.40,26.07 5.51,26.32 5.62,26.57 5.65,26.84 5.67,27.11 5.61,27.38 5.55,27.64 5.40,27.87 5.26,28.10 5.05,28.27 4.84,28.45 4.58,28.54 4.33,28.64 4.06,28.65 3.79,28.66 3.53,28.58 3.27,28.51 3.04,28.35 2.82,28.20 2.66,27.98 2.50,27.76 2.42,27.50 2.33,27.24 2.33,27.24 2.33,27.24 1.42,21.51 0.50,15.79 -0.73,8.04 -1.97,0.29 -1.98,0.05 -1.98,-0.18 -1.93,-0.42 -1.88,-0.65 -1.77,-0.87 -1.67,-1.09 -1.51,-1.27 -1.36,-1.46 -1.16,-1.60 -0.97,-1.74 -0.75,-1.83 -0.52,-1.92 -0.29,-1.96 -0.05,-1.99 0.18,-1.97 0.42,-1.95 0.65,-1.87 0.88,-1.79 1.08,-1.66 1.28,-1.52 1.44,-1.35 1.61,-1.17 1.73,-0.96 1.84,-0.75 1.91,-0.52 1.97,-0.29 1.97,-0.29 L 1.97,-0.29 Z"></path></g><g transform="translate(338 15) rotate(0 6.5 13.5)" stroke="none"><path fill="#f08c00" d="M 0,-2.51 Q 0,-2.51 1.72,-2.45 3.44,-2.40 5.43,-2.40 7.41,-2.40 8.39,-1.88 9.37,-1.37 10.62,0.66 11.87,2.69 11.50,4.98 11.13,7.27 10.62,8.48 10.11,9.69 9.38,11.47 8.66,13.24 7.24,14.33 5.81,15.43 4.38,15.70 2.95,15.98 3.48,14.87 4.01,13.76 5.54,13.76 7.06,13.77 8.74,14.44 10.42,15.11 11.82,15.51 13.22,15.92 14.39,17.13 15.57,18.35 15.59,20.25 15.60,22.15 15.10,23.47 14.59,24.79 13.53,25.99 12.47,27.18 11.60,28.58 10.73,29.97 9.74,30.45 8.75,30.92 7.33,31.13 5.92,31.33 3.20,30.85 0.48,30.37 -0.04,30.20 -0.56,30.03 -1.00,29.70 -1.45,29.37 -1.76,28.92 -2.08,28.46 -2.23,27.93 -2.39,27.40 -2.36,26.85 -2.34,26.30 -2.14,25.78 -1.94,25.27 -1.59,24.84 -1.23,24.42 -0.76,24.13 -0.29,23.84 0.23,23.71 0.77,23.59 1.32,23.64 1.87,23.70 2.38,23.92 2.88,24.15 3.28,24.52 3.69,24.90 3.95,25.38 4.22,25.87 4.31,26.41 4.41,26.96 4.33,27.50 4.24,28.05 3.99,28.54 3.74,29.03 3.34,29.42 2.94,29.80 2.44,30.04 1.94,30.27 1.40,30.34 0.85,30.41 0.31,30.29 -0.22,30.18 -0.70,29.90 -1.18,29.62 -1.54,29.20 -1.90,28.79 -2.11,28.28 -2.32,27.77 -2.36,27.21 -2.39,26.66 -2.25,26.13 -2.11,25.60 -1.80,25.13 -1.50,24.67 -1.06,24.33 -0.63,24.00 -0.11,23.81 0.41,23.63 0.96,23.63 1.51,23.62 1.51,23.62 1.51,23.62 3.99,24.53 6.47,25.43 7.07,24.07 7.68,22.71 9.03,22.43 10.37,22.15 8.26,21.51 6.14,20.87 5.16,20.40 4.18,19.93 3.20,19.35 2.22,18.78 0.72,17.69 -0.76,16.61 -1.07,15.56 -1.39,14.52 -0.75,12.84 -0.12,11.16 1.19,10.53 2.51,9.90 3.59,9.87 4.66,9.84 5.32,7.93 5.98,6.02 6.21,4.21 6.45,2.40 4.95,2.40 3.44,2.40 1.72,2.45 0,2.51 -0.30,2.47 -0.60,2.44 -0.88,2.33 -1.16,2.22 -1.41,2.05 -1.66,1.88 -1.86,1.65 -2.06,1.42 -2.21,1.15 -2.35,0.89 -2.42,0.59 -2.49,0.30 -2.49,-0.00 -2.49,-0.30 -2.42,-0.59 -2.35,-0.89 -2.20,-1.16 -2.06,-1.42 -1.86,-1.65 -1.66,-1.88 -1.41,-2.05 -1.16,-2.22 -0.88,-2.33 -0.60,-2.44 -0.30,-2.47 0.00,-2.51 0.00,-2.51 L 0,-2.51 Z"></path></g><g transform="translate(313 382) rotate(0 -3.5 17.5)" stroke="none"><path fill="#f08c00" d="M 1.87,0.46 Q 1.87,0.46 0.64,5.04 -0.58,9.62 -1.70,14.14 -2.82,18.65 -3.31,21.38 -3.79,24.11 -4.31,26.75 -4.82,29.38 -5.06,32.29 -5.30,35.20 -5.38,35.46 -5.46,35.73 -5.61,35.96 -5.77,36.18 -5.99,36.35 -6.21,36.51 -6.48,36.60 -6.74,36.68 -7.01,36.68 -7.29,36.68 -7.55,36.58 -7.81,36.49 -8.03,36.32 -8.25,36.15 -8.40,35.92 -8.55,35.69 -8.62,35.43 -8.69,35.16 -8.67,34.88 -8.66,34.61 -8.55,34.35 -8.45,34.10 -8.27,33.89 -8.08,33.68 -7.85,33.54 -7.61,33.40 -7.34,33.35 -7.07,33.29 -6.79,33.32 -6.52,33.36 -6.27,33.48 -6.02,33.59 -5.82,33.79 -5.62,33.98 -5.50,34.22 -5.37,34.47 -5.33,34.74 -5.29,35.02 -5.34,35.29 -5.39,35.56 -5.52,35.80 -5.65,36.04 -5.85,36.23 -6.05,36.42 -6.31,36.53 -6.56,36.64 -6.83,36.67 -7.11,36.70 -7.38,36.63 -7.65,36.57 -7.88,36.43 -8.11,36.28 -8.29,36.07 -8.47,35.86 -8.57,35.60 -8.67,35.34 -8.68,35.07 -8.69,34.79 -8.69,34.79 -8.69,34.79 -8.22,31.82 -7.75,28.85 -7.30,26.23 -6.86,23.62 -6.44,20.76 -6.02,17.91 -5.01,13.34 -4.01,8.77 -2.94,4.15 -1.87,-0.46 -1.78,-0.68 -1.70,-0.90 -1.57,-1.09 -1.43,-1.28 -1.26,-1.43 -1.09,-1.59 -0.88,-1.69 -0.67,-1.80 -0.45,-1.86 -0.22,-1.91 0.00,-1.91 0.23,-1.91 0.46,-1.85 0.68,-1.80 0.89,-1.69 1.10,-1.58 1.27,-1.42 1.44,-1.27 1.57,-1.08 1.71,-0.89 1.79,-0.67 1.87,-0.45 1.90,-0.22 1.92,0.00 1.89,0.23 1.87,0.46 1.87,0.46 L 1.87,0.46 Z"></path></g><g transform="translate(322 382) rotate(0 0.00004999999999988347 0.00005000000000165983)" stroke="none"><path fill="#f08c00" d="M 1.57,-1.57 Q 1.57,-1.57 1.77,-1.27 1.98,-0.98 2.09,-0.64 2.20,-0.29 2.19,0.05 2.18,0.41 2.05,0.75 1.93,1.09 1.70,1.37 1.48,1.65 1.18,1.84 0.87,2.04 0.52,2.12 0.18,2.21 -0.17,2.18 -0.53,2.15 -0.86,2.01 -1.19,1.87 -1.46,1.63 -1.73,1.39 -1.90,1.07 -2.08,0.76 -2.15,0.41 -2.21,0.05 -2.17,-0.29 -2.12,-0.65 -1.96,-0.97 -1.80,-1.29 -1.54,-1.54 -1.29,-1.80 -0.97,-1.96 -0.65,-2.12 -0.29,-2.17 0.06,-2.21 0.41,-2.15 0.76,-2.08 1.07,-1.90 1.39,-1.73 1.63,-1.46 1.87,-1.19 2.01,-0.86 2.15,-0.53 2.18,-0.17 2.21,0.18 2.12,0.52 2.03,0.87 1.84,1.18 1.65,1.48 1.37,1.70 1.09,1.93 0.75,2.05 0.41,2.18 0.05,2.19 -0.30,2.20 -0.64,2.09 -0.98,1.98 -1.27,1.77 -1.57,1.56 -1.57,1.57 -1.57,1.57 -1.73,1.35 -1.90,1.14 -2.01,0.90 -2.12,0.66 -2.16,0.39 -2.21,0.13 -2.20,-0.13 -2.18,-0.40 -2.10,-0.65 -2.02,-0.91 -1.88,-1.14 -1.74,-1.36 -1.55,-1.55 -1.36,-1.74 -1.14,-1.88 -0.91,-2.02 -0.65,-2.10 -0.40,-2.18 -0.13,-2.20 0.13,-2.21 0.39,-2.16 0.66,-2.12 0.90,-2.01 1.14,-1.90 1.35,-1.73 1.57,-1.57 1.57,-1.57 L 1.57,-1.57 Z"></path></g><g transform="translate(315 384) rotate(0 19.5 10)" stroke="none"><path fill="#f08c00" d="M 1.47,-1.84 Q 1.47,-1.84 2.88,-0.64 4.28,0.56 5.59,2.47 6.90,4.37 7.76,5.69 8.62,7.00 9.32,8.51 10.02,10.01 11.51,11.64 12.99,13.27 13.84,14.53 14.68,15.79 15.38,16.31 16.09,16.83 16.22,17.09 16.35,17.36 16.42,17.65 16.49,17.94 16.49,18.23 16.48,18.53 16.41,18.82 16.33,19.11 16.19,19.37 16.05,19.63 15.85,19.85 15.65,20.07 15.40,20.23 15.15,20.40 14.87,20.50 14.59,20.60 14.30,20.63 14.00,20.67 13.71,20.63 13.41,20.59 13.14,20.48 12.86,20.37 12.62,20.20 12.38,20.02 12.18,19.80 11.99,19.57 12.30,17.83 12.62,16.09 12.90,14.68 13.18,13.28 14.65,9.24 16.13,5.21 17.08,2.95 18.03,0.69 18.67,-0.69 19.32,-2.09 20.26,-3.01 21.20,-3.94 23.17,-3.96 25.13,-3.98 26.68,-2.19 28.22,-0.40 29.02,1.59 29.81,3.59 30.85,5.74 31.89,7.88 32.89,9.67 33.89,11.46 34.66,13.51 35.43,15.56 36.29,16.78 37.16,17.99 38.87,19.81 40.58,21.62 40.76,21.91 40.94,22.20 41.01,22.53 41.09,22.86 41.05,23.20 41.02,23.54 40.88,23.85 40.74,24.16 40.51,24.41 40.28,24.65 39.98,24.82 39.68,24.98 39.35,25.03 39.01,25.09 38.68,25.04 38.34,24.99 38.04,24.83 37.74,24.68 37.50,24.43 37.27,24.19 37.12,23.88 36.98,23.57 36.94,23.24 36.90,22.90 36.97,22.57 37.04,22.23 37.21,21.94 37.38,21.65 37.64,21.43 37.90,21.21 38.21,21.08 38.53,20.95 38.87,20.93 39.20,20.91 39.53,21.00 39.86,21.08 40.14,21.27 40.42,21.46 40.63,21.73 40.84,22.00 40.95,22.32 41.06,22.64 41.06,22.98 41.07,23.32 40.96,23.64 40.86,23.96 40.65,24.23 40.45,24.51 40.17,24.70 39.89,24.89 39.57,24.98 39.24,25.08 38.90,25.06 38.56,25.05 38.24,24.92 37.93,24.80 37.67,24.58 37.41,24.37 37.41,24.37 37.41,24.37 36.44,23.12 35.46,21.87 34.83,20.88 34.20,19.89 33.28,18.33 32.36,16.77 31.64,15.00 30.93,13.23 29.78,11.43 28.63,9.63 27.32,7.39 26.02,5.16 25.35,3.62 24.68,2.08 23.72,0.92 22.75,-0.22 22.10,0.87 21.45,1.98 20.70,4.23 19.95,6.49 18.78,10.36 17.61,14.24 17.08,16.59 16.55,18.93 16.32,17.88 16.09,16.83 16.22,17.09 16.35,17.36 16.42,17.65 16.49,17.94 16.49,18.23 16.48,18.53 16.41,18.82 16.33,19.11 16.19,19.37 16.05,19.63 15.85,19.85 15.65,20.07 15.40,20.23 15.15,20.40 14.87,20.50 14.59,20.60 14.30,20.63 14.00,20.67 13.71,20.63 13.41,20.59 13.14,20.48 12.86,20.37 12.62,20.20 12.38,20.02 12.18,19.80 11.99,19.57 11.40,19.01 10.80,18.45 9.46,16.35 8.11,14.24 7.12,13.04 6.13,11.83 5.58,10.53 5.03,9.23 4.30,8.00 3.58,6.77 2.52,5.40 1.46,4.03 -0.00,2.94 -1.47,1.84 -1.67,1.64 -1.87,1.44 -2.02,1.19 -2.16,0.94 -2.25,0.67 -2.33,0.40 -2.34,0.11 -2.36,-0.16 -2.30,-0.44 -2.25,-0.72 -2.13,-0.98 -2.01,-1.24 -1.83,-1.46 -1.65,-1.69 -1.42,-1.86 -1.20,-2.03 -0.94,-2.15 -0.68,-2.26 -0.39,-2.31 -0.11,-2.36 0.16,-2.34 0.45,-2.32 0.72,-2.23 0.99,-2.14 1.23,-1.99 1.47,-1.84 1.47,-1.84 L 1.47,-1.84 Z"></path></g><g transform="translate(499 180) rotate(0 -3 8.5)" stroke="none"><path fill="#f08c00" d="M 1.98,0.99 Q 1.98,0.99 0.72,3.23 -0.52,5.48 -1.65,7.82 -2.77,10.15 -3.15,11.64 -3.53,13.14 -3.76,15.18 -3.99,17.23 -4.08,17.54 -4.17,17.86 -4.36,18.12 -4.54,18.39 -4.80,18.59 -5.07,18.78 -5.38,18.88 -5.69,18.99 -6.01,18.98 -6.34,18.98 -6.64,18.87 -6.95,18.77 -7.21,18.57 -7.47,18.37 -7.65,18.10 -7.83,17.83 -7.91,17.51 -8.00,17.20 -7.98,16.87 -7.96,16.55 -7.84,16.24 -7.71,15.94 -7.50,15.70 -7.29,15.45 -7.01,15.28 -6.73,15.12 -6.41,15.05 -6.09,14.98 -5.76,15.02 -5.44,15.06 -5.15,15.20 -4.85,15.34 -4.62,15.56 -4.38,15.79 -4.23,16.08 -4.08,16.37 -4.03,16.69 -3.98,17.01 -4.04,17.33 -4.09,17.65 -4.25,17.94 -4.40,18.23 -4.64,18.45 -4.88,18.67 -5.18,18.81 -5.47,18.94 -5.80,18.97 -6.12,19.01 -6.44,18.93 -6.76,18.86 -7.03,18.69 -7.31,18.52 -7.52,18.27 -7.73,18.02 -7.85,17.72 -7.97,17.41 -7.98,17.09 -8.00,16.76 -8.00,16.76 -8.00,16.76 -7.56,14.44 -7.13,12.12 -6.60,10.41 -6.07,8.70 -5.07,6.20 -4.07,3.71 -3.02,1.36 -1.98,-0.99 -1.83,-1.21 -1.69,-1.43 -1.49,-1.62 -1.29,-1.80 -1.06,-1.93 -0.82,-2.05 -0.56,-2.12 -0.31,-2.19 -0.04,-2.20 0.22,-2.20 0.48,-2.14 0.74,-2.09 0.98,-1.97 1.22,-1.85 1.42,-1.67 1.63,-1.50 1.78,-1.28 1.94,-1.07 2.04,-0.82 2.14,-0.57 2.18,-0.30 2.21,-0.04 2.19,0.22 2.16,0.48 2.07,0.74 1.98,0.99 1.98,0.99 L 1.98,0.99 Z"></path></g><g transform="translate(498 181) rotate(0 10.5 7.5)" stroke="none"><path fill="#f08c00" d="M 2.09,-1.25 Q 2.09,-1.25 2.91,0.18 3.74,1.63 4.88,3.29 6.03,4.96 6.23,6.10 6.44,7.24 7.36,8.97 8.28,10.70 8.88,12.28 9.48,13.87 10.03,15.06 10.58,16.26 10.66,16.56 10.74,16.86 10.74,17.17 10.75,17.48 10.68,17.78 10.61,18.08 10.47,18.36 10.34,18.63 10.13,18.87 9.93,19.10 9.68,19.28 9.43,19.46 9.15,19.58 8.86,19.69 8.55,19.74 8.25,19.78 7.94,19.75 7.63,19.72 7.34,19.61 7.05,19.51 6.79,19.34 6.54,19.17 6.33,18.94 6.12,18.72 5.97,18.45 5.82,18.17 7.35,16.06 8.88,13.94 9.29,12.75 9.70,11.56 11.05,9.37 12.40,7.18 13.56,5.18 14.72,3.18 15.07,2.07 15.42,0.97 15.92,-0.00 16.41,-0.99 17.67,-2.98 18.92,-4.96 19.13,-5.27 19.34,-5.58 19.63,-5.80 19.93,-6.02 20.28,-6.14 20.63,-6.26 21.00,-6.25 21.37,-6.25 21.73,-6.13 22.08,-6.01 22.37,-5.79 22.66,-5.56 22.87,-5.26 23.08,-4.95 23.17,-4.59 23.27,-4.23 23.25,-3.86 23.23,-3.49 23.09,-3.15 22.95,-2.81 22.71,-2.52 22.47,-2.24 22.15,-2.05 21.83,-1.86 21.47,-1.79 21.11,-1.71 20.74,-1.75 20.37,-1.79 20.04,-1.95 19.70,-2.11 19.43,-2.36 19.17,-2.62 18.99,-2.94 18.82,-3.27 18.76,-3.64 18.71,-4.00 18.77,-4.37 18.83,-4.74 19.00,-5.06 19.18,-5.39 19.45,-5.64 19.72,-5.90 20.05,-6.05 20.39,-6.20 20.76,-6.24 21.13,-6.28 21.49,-6.20 21.85,-6.12 22.17,-5.93 22.49,-5.73 22.72,-5.45 22.96,-5.17 23.10,-4.82 23.23,-4.48 23.25,-4.11 23.27,-3.74 23.17,-3.38 23.07,-3.02 23.07,-3.02 23.07,-3.03 21.14,-0.27 19.22,2.47 18.65,3.70 18.09,4.93 17.09,7.07 16.10,9.20 15.09,11.34 14.07,13.48 12.32,14.87 10.58,16.26 10.66,16.56 10.73,16.86 10.74,17.17 10.75,17.48 10.68,17.78 10.61,18.08 10.47,18.36 10.34,18.63 10.13,18.87 9.93,19.10 9.68,19.28 9.43,19.46 9.15,19.58 8.86,19.69 8.55,19.74 8.25,19.78 7.94,19.75 7.63,19.72 7.34,19.61 7.05,19.51 6.79,19.34 6.54,19.17 6.33,18.94 6.12,18.72 5.97,18.45 5.82,18.17 5.29,16.97 4.76,15.76 4.17,14.40 3.58,13.04 2.82,11.62 2.05,10.20 1.63,9.10 1.20,8.00 1.23,6.89 1.26,5.78 0.48,4.94 -0.29,4.11 -1.19,2.68 -2.09,1.25 -2.21,0.98 -2.33,0.72 -2.39,0.42 -2.44,0.13 -2.42,-0.15 -2.40,-0.44 -2.31,-0.73 -2.22,-1.01 -2.07,-1.26 -1.92,-1.51 -1.71,-1.72 -1.50,-1.93 -1.24,-2.08 -0.99,-2.23 -0.71,-2.32 -0.43,-2.40 -0.13,-2.42 0.15,-2.44 0.44,-2.38 0.73,-2.33 1.00,-2.21 1.27,-2.08 1.50,-1.90 1.73,-1.72 1.91,-1.49 2.09,-1.25 2.09,-1.25 L 2.09,-1.25 Z"></path></g><g transform="translate(338 214) rotate(0 -1 10.5)" stroke="none"><path fill="#f08c00" d="M 1.14,2.28 Q 1.14,2.28 -0.00,2.86 -1.14,3.45 -1.95,4.58 -2.76,5.70 -3.28,6.71 -3.80,7.73 -4.76,9.72 -5.72,11.72 -6.25,12.99 -6.79,14.26 -6.93,15.37 -7.07,16.48 -5.53,16.55 -4.00,16.63 -2.92,17.20 -1.83,17.76 -0.28,17.77 1.26,17.78 2.39,17.62 3.53,17.46 4.63,16.11 5.72,14.76 6.14,14.46 6.56,14.16 7.05,14.00 7.54,13.84 8.05,13.85 8.57,13.86 9.05,14.04 9.54,14.21 9.94,14.53 10.35,14.85 10.63,15.28 10.91,15.71 11.04,16.21 11.17,16.71 11.13,17.22 11.09,17.74 10.89,18.21 10.69,18.69 10.35,19.07 10.01,19.46 9.57,19.72 9.12,19.97 8.61,20.07 8.11,20.18 7.60,20.11 7.09,20.05 6.62,19.82 6.16,19.60 5.79,19.24 5.43,18.87 5.19,18.42 4.96,17.96 4.89,17.45 4.81,16.94 4.90,16.43 5.00,15.92 5.25,15.47 5.50,15.02 5.88,14.68 6.26,14.33 6.73,14.12 7.20,13.91 7.71,13.87 8.23,13.82 8.73,13.94 9.23,14.06 9.66,14.33 10.10,14.61 10.43,15.01 10.75,15.40 10.93,15.89 11.12,16.37 11.13,16.88 11.15,17.40 11.01,17.89 10.86,18.38 10.56,18.81 10.27,19.23 10.27,19.23 10.27,19.23 8.00,21.30 5.74,23.38 3.41,23.77 1.08,24.17 -0.22,24.07 -1.53,23.98 -3.62,23.40 -5.72,22.82 -7.02,22.05 -8.32,21.27 -9.75,20.60 -11.19,19.93 -11.80,18.93 -12.42,17.92 -12.54,16.79 -12.65,15.66 -12.18,13.93 -11.72,12.19 -11.24,11.07 -10.77,9.96 -9.67,7.58 -8.56,5.20 -7.98,4.13 -7.40,3.07 -6.42,1.59 -5.43,0.11 -4.44,-0.52 -3.45,-1.15 -2.29,-1.71 -1.14,-2.28 -0.85,-2.38 -0.56,-2.49 -0.25,-2.52 0.05,-2.55 0.35,-2.51 0.66,-2.46 0.94,-2.35 1.23,-2.23 1.48,-2.05 1.73,-1.87 1.93,-1.64 2.13,-1.40 2.26,-1.13 2.40,-0.85 2.47,-0.55 2.54,-0.25 2.53,0.05 2.52,0.35 2.44,0.65 2.37,0.95 2.22,1.22 2.07,1.49 1.86,1.71 1.65,1.94 1.39,2.11 1.14,2.28 1.14,2.28 L 1.14,2.28 Z"></path></g><g transform="translate(339 226) rotate(0 6 6.5)" stroke="none"><path fill="#f08c00" d="M 0,-2.66 Q 0,-2.66 1.15,-2.67 2.3,-2.69 3.69,-2.76 5.08,-2.83 6.15,-2.89 7.22,-2.95 8.74,-3.03 10.25,-3.10 12.27,-2.15 14.28,-1.21 14.72,0.47 15.16,2.16 14.81,3.54 14.47,4.93 14.38,6.23 14.30,7.54 13.82,8.71 13.34,9.89 13.36,11.51 13.38,13.12 13.27,13.66 13.16,14.19 12.89,14.67 12.61,15.14 12.20,15.50 11.79,15.87 11.29,16.08 10.78,16.29 10.23,16.33 9.69,16.37 9.16,16.23 8.63,16.09 8.17,15.79 7.71,15.49 7.37,15.06 7.03,14.63 6.85,14.12 6.66,13.60 6.65,13.05 6.64,12.51 6.81,11.98 6.97,11.46 7.30,11.02 7.62,10.58 8.07,10.26 8.52,9.95 9.04,9.79 9.57,9.63 10.12,9.65 10.67,9.67 11.18,9.87 11.69,10.06 12.11,10.41 12.54,10.76 12.83,11.22 13.12,11.69 13.25,12.22 13.37,12.75 13.32,13.30 13.27,13.84 13.05,14.35 12.83,14.85 12.46,15.25 12.09,15.66 11.61,15.92 11.13,16.19 10.59,16.28 10.05,16.38 9.51,16.30 8.97,16.22 8.48,15.98 7.99,15.73 7.61,15.34 7.22,14.94 6.99,14.45 6.75,13.96 6.68,13.41 6.61,12.87 6.61,12.87 6.61,12.87 7.18,9.89 7.76,6.91 7.85,5.70 7.95,4.48 9.10,3.79 10.25,3.10 8.74,3.03 7.22,2.95 6.15,2.89 5.08,2.83 3.69,2.76 2.3,2.69 1.15,2.67 0,2.66 -0.31,2.62 -0.63,2.58 -0.93,2.47 -1.23,2.35 -1.50,2.17 -1.76,1.99 -1.97,1.75 -2.19,1.51 -2.34,1.22 -2.48,0.94 -2.56,0.63 -2.64,0.32 -2.64,-0.00 -2.64,-0.32 -2.56,-0.63 -2.48,-0.94 -2.34,-1.22 -2.19,-1.51 -1.97,-1.75 -1.76,-1.99 -1.50,-2.17 -1.23,-2.35 -0.93,-2.47 -0.63,-2.58 -0.31,-2.62 0.00,-2.66 0.00,-2.66 L 0,-2.66 Z"></path></g><g transform="translate(320 342) rotate(0 12.5 9)" stroke="none"><path fill="#f08c00" d="M -0.48,-2.40 Q -0.48,-2.40 0.95,-2.68 2.39,-2.97 4.31,-3.05 6.23,-3.14 7.88,-3.18 9.54,-3.22 11.23,-3.45 12.92,-3.69 14.03,-3.89 15.14,-4.08 16.86,-4.71 18.58,-5.34 19.84,-5.54 21.11,-5.73 23.78,-4.98 26.45,-4.23 27.02,-3.11 27.58,-1.98 27.70,-0.50 27.81,0.96 27.85,2.12 27.89,3.27 27.92,4.34 27.94,5.41 27.98,7.16 28.02,8.92 28.06,10.06 28.11,11.19 28.16,12.72 28.22,14.25 28.26,15.75 28.30,17.26 27.71,19.70 27.12,22.14 26.86,22.61 26.59,23.07 26.19,23.44 25.79,23.80 25.30,24.01 24.80,24.22 24.27,24.27 23.73,24.31 23.21,24.18 22.69,24.05 22.23,23.77 21.78,23.48 21.44,23.06 21.10,22.64 20.91,22.13 20.73,21.63 20.71,21.09 20.70,20.55 20.85,20.04 21.01,19.52 21.32,19.08 21.64,18.65 22.07,18.33 22.51,18.02 23.03,17.86 23.54,17.70 24.08,17.71 24.62,17.73 25.12,17.91 25.63,18.09 26.05,18.43 26.47,18.77 26.76,19.22 27.05,19.67 27.18,20.20 27.31,20.72 27.27,21.26 27.23,21.79 27.01,22.29 26.80,22.78 26.44,23.18 26.08,23.59 25.62,23.85 25.15,24.12 24.62,24.22 24.09,24.32 23.56,24.25 23.02,24.18 22.54,23.94 22.06,23.70 21.68,23.32 21.30,22.94 21.06,22.46 20.82,21.98 20.74,21.44 20.67,20.91 20.77,20.38 20.87,19.85 20.87,19.85 20.87,19.85 21.29,18.05 21.71,16.26 21.76,14.75 21.81,13.25 21.86,11.69 21.92,10.12 21.96,8.82 22.00,7.51 21.99,5.49 21.98,3.48 21.68,1.64 21.37,-0.19 20.31,-0.24 19.25,-0.28 18.20,0.09 17.16,0.47 15.40,0.54 13.65,0.60 11.67,0.99 9.69,1.37 8.12,1.44 6.55,1.50 4.95,1.66 3.35,1.82 1.91,2.11 0.48,2.40 0.18,2.42 -0.10,2.44 -0.39,2.39 -0.69,2.34 -0.96,2.23 -1.23,2.11 -1.46,1.93 -1.70,1.75 -1.88,1.52 -2.07,1.30 -2.20,1.03 -2.32,0.76 -2.38,0.47 -2.44,0.18 -2.42,-0.10 -2.41,-0.40 -2.33,-0.68 -2.24,-0.96 -2.09,-1.22 -1.95,-1.47 -1.74,-1.69 -1.54,-1.90 -1.29,-2.05 -1.04,-2.21 -0.76,-2.30 -0.47,-2.40 -0.48,-2.40 L -0.48,-2.40 Z"></path></g></svg>