<svg version="1.1" xmlns="http://www.w3.org/2000/svg" viewBox="0 0 624.1511588119529 280.36681019474133" width="624.1511588119529" height="280.36681019474133" class="excalidraw-svg"><!-- svg-source:excalidraw --><metadata></metadata><defs><style class="style-fonts">
      </style></defs><rect x="0" y="0" width="624.1511588119529" height="280.36681019474133" fill="#ffffff"></rect><g stroke-linecap="round"><g transform="translate(10.521047058552512 210.36681019474136) rotate(0 243.00364104675128 0.20174474206791615)"><path d="M0.79 0.67 C81.35 0.9, 403.2 1.09, 484.05 1.02 M-0.26 -0.02 C80.61 -0.08, 405.29 -0.85, 486.27 -0.57" stroke="#e03131" stroke-width="2" fill="none"></path></g><g transform="translate(10.521047058552512 210.36681019474136) rotate(0 243.00364104675128 0.20174474206791615)"><path d="M462.78 7.98 C472.28 3.21, 481.21 3.25, 486.27 -0.57 M462.78 7.98 C470.56 5.96, 477.2 2.58, 486.27 -0.57" stroke="#e03131" stroke-width="2" fill="none"></path></g><g transform="translate(10.521047058552512 210.36681019474136) rotate(0 243.00364104675128 0.20174474206791615)"><path d="M462.78 -9.12 C472.23 -7.81, 481.17 -1.69, 486.27 -0.57 M462.78 -9.12 C470.69 -5.66, 477.34 -3.56, 486.27 -0.57" stroke="#e03131" stroke-width="2" fill="none"></path></g></g><mask></mask><g stroke-linecap="round"><g transform="translate(11.521047058552512 211.36681019474136) rotate(0 57.518421645815685 -99.74865854863391)"><path d="M-0.04 -1.19 C19.29 -34.77, 97.36 -167.03, 116.56 -200.29 M-1.52 0.8 C17.71 -32.11, 96.93 -165.53, 116.23 -198.99" stroke="#1971c2" stroke-width="2" fill="none"></path></g><g transform="translate(11.521047058552512 211.36681019474136) rotate(0 57.518421645815685 -99.74865854863391)"><path d="M111.72 -174.4 C111.05 -180.96, 113.86 -191.8, 116.23 -198.99 M111.72 -174.4 C112.28 -178.89, 114.12 -184.51, 116.23 -198.99" stroke="#1971c2" stroke-width="2" fill="none"></path></g><g transform="translate(11.521047058552512 211.36681019474136) rotate(0 57.518421645815685 -99.74865854863391)"><path d="M96.97 -183.05 C101.49 -186.61, 109.41 -194.46, 116.23 -198.99 M96.97 -183.05 C100.78 -185.7, 105.88 -189.41, 116.23 -198.99" stroke="#1971c2" stroke-width="2" fill="none"></path></g></g><mask></mask><g transform="translate(264.52104705855254 250.36681019474136) rotate(0 -6.5 6)" stroke="none"><path fill="#e03131" d="M -1.81,1.51 Q -1.81,1.51 -3.15,-0.29 -4.48,-2.11 -5.39,-3.07 -6.30,-4.04 -7.61,-4.68 -8.92,-5.33 -10.35,-3.92 -11.77,-2.51 -12.25,-1.56 -12.74,-0.60 -13.68,0.81 -14.62,2.23 -14.91,3.86 -15.20,5.49 -15.30,8.07 -15.41,10.65 -15.35,12.60 -15.30,14.55 -14.25,14.98 -13.21,15.41 -12.18,13.98 -11.15,12.54 -10.17,11.26 -9.19,9.97 -8.30,8.60 -7.41,7.23 -6.93,6.06 -6.45,4.89 -6.36,3.78 -6.27,2.66 -6.26,1.64 -6.26,0.61 -6.19,0.22 -6.12,-0.15 -5.96,-0.51 -5.80,-0.87 -5.56,-1.18 -5.32,-1.49 -5.02,-1.73 -4.71,-1.97 -4.35,-2.14 -4.00,-2.30 -3.61,-2.37 -3.23,-2.45 -2.84,-2.42 -2.45,-2.40 -2.07,-2.29 -1.70,-2.17 -1.36,-1.97 -1.03,-1.77 -0.75,-1.50 -0.47,-1.22 -0.27,-0.89 -0.06,-0.56 0.05,-0.18 0.16,0.18 0.19,0.57 0.22,0.96 -0.17,3.63 -0.57,6.30 -0.69,7.39 -0.82,8.48 -0.85,9.83 -0.88,11.17 -0.83,12.71 -0.79,14.25 -0.04,15.14 0.69,16.02 1.64,14.36 2.60,12.70 3.03,12.38 3.46,12.05 3.97,11.88 4.48,11.72 5.01,11.72 5.55,11.72 6.06,11.90 6.57,12.07 6.99,12.40 7.42,12.72 7.72,13.17 8.02,13.62 8.16,14.14 8.30,14.65 8.27,15.19 8.23,15.73 8.03,16.22 7.83,16.72 7.48,17.13 7.13,17.54 6.67,17.81 6.21,18.09 5.68,18.20 5.16,18.31 4.62,18.25 4.09,18.19 3.60,17.96 3.12,17.73 2.73,17.36 2.34,16.99 2.09,16.51 1.84,16.04 1.76,15.51 1.67,14.98 1.76,14.45 1.85,13.92 2.11,13.44 2.36,12.97 2.76,12.60 3.15,12.24 3.64,12.01 4.12,11.79 4.66,11.74 5.19,11.68 5.72,11.80 6.24,11.92 6.70,12.20 7.16,12.48 7.50,12.89 7.85,13.30 8.05,13.80 8.24,14.30 8.27,14.84 8.29,15.37 8.15,15.89 8.00,16.41 7.70,16.85 7.39,17.29 7.39,17.29 7.39,17.29 6.08,18.67 4.77,20.04 3.60,21.14 2.42,22.24 0.89,22.49 -0.64,22.74 -2.16,21.89 -3.69,21.03 -4.57,19.88 -5.45,18.72 -6.28,17.17 -7.11,15.61 -7.13,14.40 -7.16,13.20 -7.10,12.08 -7.05,10.95 -6.93,9.42 -6.81,7.89 -6.69,6.53 -6.57,5.17 -6.41,2.89 -6.26,0.61 -6.19,0.22 -6.12,-0.15 -5.96,-0.51 -5.80,-0.87 -5.56,-1.18 -5.32,-1.49 -5.02,-1.73 -4.71,-1.97 -4.36,-2.14 -4.00,-2.30 -3.62,-2.37 -3.23,-2.45 -2.84,-2.42 -2.45,-2.40 -2.08,-2.29 -1.70,-2.17 -1.36,-1.97 -1.03,-1.77 -0.75,-1.50 -0.47,-1.22 -0.27,-0.89 -0.06,-0.56 0.05,-0.18 0.16,0.18 0.19,0.57 0.22,0.96 0.19,1.49 0.16,2.02 0.00,3.49 -0.15,4.95 -0.85,7.09 -1.55,9.23 -2.51,10.66 -3.48,12.08 -4.49,13.60 -5.49,15.11 -6.96,16.61 -8.42,18.11 -9.76,19.34 -11.10,20.57 -12.44,20.82 -13.77,21.07 -14.87,20.99 -15.97,20.91 -17.58,20.39 -19.20,19.87 -19.84,18.86 -20.49,17.86 -20.59,16.19 -20.68,14.52 -20.59,12.54 -20.50,10.56 -20.52,8.88 -20.53,7.21 -20.43,6.02 -20.33,4.84 -20.07,3.28 -19.80,1.73 -19.30,0.68 -18.79,-0.36 -17.98,-1.73 -17.18,-3.09 -16.25,-4.64 -15.33,-6.19 -14.29,-7.16 -13.26,-8.13 -11.64,-9.11 -10.03,-10.09 -7.62,-9.43 -5.22,-8.76 -4.13,-7.85 -3.04,-6.93 -2.15,-5.86 -1.26,-4.78 0.27,-3.15 1.81,-1.51 1.97,-1.27 2.12,-1.03 2.22,-0.76 2.31,-0.49 2.34,-0.21 2.36,0.07 2.32,0.35 2.28,0.63 2.17,0.89 2.06,1.16 1.89,1.39 1.72,1.62 1.50,1.80 1.28,1.98 1.02,2.11 0.77,2.23 0.49,2.29 0.21,2.35 -0.07,2.34 -0.35,2.34 -0.63,2.26 -0.90,2.18 -1.15,2.04 -1.40,1.90 -1.61,1.71 -1.81,1.51 -1.81,1.51 L -1.81,1.51 Z"></path></g><g transform="translate(241.5210470585525 240.36681019474136) rotate(0 19.5 -1)" stroke="none"><path fill="#e03131" d="M -0.93,-2.34 Q -0.93,-2.34 0.51,-2.90 1.97,-3.45 4.02,-3.71 6.07,-3.97 7.46,-4.10 8.85,-4.24 10.03,-4.32 11.22,-4.41 12.30,-4.47 13.39,-4.52 15.44,-4.60 17.49,-4.68 19.50,-4.73 21.51,-4.78 22.80,-4.78 24.09,-4.77 25.21,-4.78 26.34,-4.79 28.12,-4.84 29.91,-4.88 31.75,-4.92 33.59,-4.95 36.29,-4.98 38.99,-5.02 39.48,-4.94 39.96,-4.86 40.39,-4.63 40.82,-4.40 41.16,-4.05 41.50,-3.69 41.70,-3.25 41.91,-2.80 41.96,-2.32 42.01,-1.83 41.91,-1.35 41.80,-0.88 41.55,-0.46 41.30,-0.04 40.93,0.27 40.55,0.58 40.10,0.76 39.64,0.95 39.16,0.97 38.67,1.00 38.20,0.87 37.73,0.74 37.32,0.46 36.92,0.19 36.62,-0.19 36.33,-0.58 36.17,-1.04 36.01,-1.51 36.01,-2.00 36.01,-2.48 36.17,-2.95 36.33,-3.41 36.62,-3.80 36.92,-4.19 37.32,-4.46 37.73,-4.74 38.20,-4.87 38.67,-5.00 39.16,-4.97 39.65,-4.95 40.10,-4.76 40.55,-4.58 40.93,-4.27 41.30,-3.95 41.55,-3.53 41.80,-3.11 41.91,-2.64 42.01,-2.16 41.96,-1.67 41.91,-1.19 41.70,-0.74 41.50,-0.30 41.16,0.05 40.82,0.40 40.39,0.63 39.96,0.86 39.48,0.94 38.99,1.02 38.99,1.02 39.00,1.02 36.29,0.98 33.59,0.95 31.75,0.92 29.91,0.88 28.12,0.84 26.34,0.79 25.21,0.78 24.09,0.77 21.80,0.75 19.51,0.74 17.51,0.69 15.50,0.63 13.46,0.59 11.41,0.54 10.32,0.54 9.23,0.55 7.97,0.62 6.72,0.69 5.24,0.92 3.77,1.15 2.35,1.75 0.93,2.34 0.64,2.42 0.34,2.50 0.04,2.50 -0.25,2.51 -0.55,2.44 -0.85,2.37 -1.12,2.24 -1.39,2.10 -1.62,1.90 -1.85,1.70 -2.03,1.46 -2.21,1.21 -2.32,0.93 -2.44,0.64 -2.48,0.34 -2.52,0.04 -2.49,-0.25 -2.46,-0.56 -2.35,-0.84 -2.25,-1.13 -2.08,-1.38 -1.91,-1.64 -1.69,-1.84 -1.47,-2.05 -1.20,-2.19 -0.93,-2.34 -0.93,-2.34 L -0.93,-2.34 Z"></path></g><g transform="translate(274.52104705855254 233.36681019474136) rotate(0 4 5.5)" stroke="none"><path fill="#e03131" d="M 1.15,-2.31 Q 1.15,-2.31 2.83,-1.35 4.51,-0.39 5.65,0.29 6.80,0.98 7.67,1.60 8.54,2.21 9.08,4.08 9.62,5.95 9.16,6.98 8.70,8.01 7.52,9.43 6.33,10.84 4.35,11.78 2.36,12.73 2.02,13.06 1.69,13.39 1.26,13.60 0.83,13.81 0.36,13.87 -0.10,13.93 -0.56,13.83 -1.03,13.74 -1.44,13.50 -1.85,13.27 -2.16,12.91 -2.48,12.55 -2.66,12.12 -2.85,11.68 -2.88,11.21 -2.92,10.73 -2.80,10.27 -2.68,9.81 -2.42,9.42 -2.16,9.02 -1.79,8.72 -1.42,8.43 -0.97,8.27 -0.52,8.11 -0.05,8.10 0.41,8.09 0.87,8.24 1.32,8.38 1.70,8.66 2.09,8.94 2.36,9.33 2.63,9.71 2.77,10.17 2.90,10.62 2.89,11.10 2.87,11.57 2.70,12.02 2.54,12.46 2.24,12.83 1.94,13.19 1.53,13.45 1.13,13.70 0.67,13.81 0.21,13.92 -0.25,13.88 -0.73,13.83 -1.16,13.64 -1.60,13.45 -1.95,13.13 -2.30,12.81 -2.53,12.40 -2.76,11.98 -2.84,11.52 -2.93,11.05 -2.86,10.58 -2.79,10.11 -2.58,9.69 -2.36,9.26 -2.36,9.26 -2.36,9.26 -0.29,8.04 1.77,6.82 2.97,5.95 4.17,5.08 3.28,4.46 2.38,3.84 0.61,3.07 -1.15,2.31 -1.41,2.14 -1.67,1.96 -1.88,1.73 -2.09,1.51 -2.24,1.23 -2.39,0.96 -2.47,0.66 -2.56,0.36 -2.56,0.05 -2.57,-0.26 -2.50,-0.56 -2.43,-0.86 -2.29,-1.14 -2.15,-1.42 -1.95,-1.66 -1.75,-1.90 -1.49,-2.08 -1.24,-2.26 -0.95,-2.38 -0.66,-2.49 -0.35,-2.54 -0.05,-2.58 0.25,-2.55 0.56,-2.52 0.86,-2.41 1.15,-2.31 1.15,-2.31 L 1.15,-2.31 Z"></path></g><g transform="translate(30.52104705855251 71.36681019474136) rotate(0 8 20)" stroke="none"><path fill="#1971c2" d="M 2.16,0 Q 2.16,0 2.04,3.16 1.93,6.32 1.85,11.98 1.76,17.63 1.70,20.61 1.64,23.59 1.60,25.72 1.55,27.85 1.59,29.62 1.64,31.38 1.83,33.15 2.02,34.92 2.16,36.47 2.31,38.01 2.36,38.58 2.42,39.15 2.38,39.44 2.35,39.73 2.24,40.01 2.14,40.28 1.97,40.52 1.81,40.76 1.59,40.95 1.37,41.15 1.11,41.28 0.85,41.42 0.57,41.49 0.29,41.56 -0.00,41.56 -0.29,41.56 -0.57,41.49 -0.85,41.42 -1.11,41.28 -1.37,41.15 -1.59,40.95 -1.81,40.76 -1.97,40.52 -2.14,40.28 -2.24,40.01 -2.35,39.73 -2.38,39.44 -2.42,39.15 -2.43,37.52 -2.44,35.89 -2.13,34.24 -1.82,32.59 -1.38,31.05 -0.94,29.50 -0.81,27.83 -0.69,26.16 -0.30,25.03 0.08,23.89 0.59,22.63 1.10,21.37 1.78,20.40 2.45,19.43 3.84,18.45 5.22,17.47 6.63,17.21 8.05,16.96 10.32,17.28 12.59,17.61 13.91,17.89 15.23,18.17 16.48,19.26 17.74,20.34 18.20,22.06 18.66,23.78 18.77,24.98 18.88,26.18 18.89,27.58 18.90,28.97 18.55,31.31 18.20,33.64 17.50,34.57 16.80,35.50 15.91,36.49 15.02,37.48 13.88,38.20 12.74,38.91 11.00,39.50 9.26,40.09 6.09,38.83 2.92,37.57 2.57,37.17 2.21,36.77 2.00,36.28 1.79,35.79 1.74,35.26 1.70,34.72 1.83,34.21 1.96,33.69 2.25,33.24 2.54,32.79 2.95,32.45 3.37,32.12 3.87,31.93 4.37,31.75 4.91,31.73 5.44,31.72 5.95,31.88 6.47,32.03 6.90,32.35 7.33,32.66 7.65,33.09 7.96,33.53 8.11,34.04 8.27,34.55 8.26,35.09 8.24,35.62 8.06,36.12 7.87,36.62 7.54,37.04 7.20,37.46 6.75,37.75 6.30,38.03 5.78,38.16 5.26,38.29 4.73,38.25 4.19,38.20 3.70,37.99 3.21,37.78 2.81,37.42 2.42,37.06 2.15,36.60 1.89,36.13 1.79,35.61 1.69,35.08 1.76,34.55 1.84,34.02 2.07,33.54 2.31,33.06 2.69,32.69 3.07,32.31 3.55,32.07 4.03,31.83 4.56,31.76 5.09,31.69 5.61,31.79 6.14,31.89 6.60,32.16 7.07,32.42 7.07,32.42 7.07,32.42 7.91,33.05 8.74,33.67 9.69,33.15 10.63,32.63 11.63,32.11 12.62,31.59 12.80,30.36 12.98,29.14 12.91,27.92 12.85,26.69 13.10,25.08 13.35,23.47 11.34,23.31 9.33,23.15 7.84,23.10 6.36,23.06 5.41,24.86 4.47,26.67 4.10,28.74 3.73,30.81 3.35,32.19 2.97,33.57 2.70,34.74 2.44,35.91 2.43,37.53 2.42,39.15 2.38,39.44 2.35,39.73 2.24,40.01 2.14,40.28 1.97,40.52 1.81,40.76 1.59,40.95 1.37,41.15 1.11,41.28 0.85,41.42 0.57,41.49 0.29,41.56 0.00,41.56 -0.29,41.56 -0.57,41.49 -0.85,41.42 -1.11,41.28 -1.37,41.15 -1.59,40.95 -1.81,40.76 -1.97,40.52 -2.14,40.28 -2.24,40.01 -2.35,39.73 -2.38,39.44 -2.42,39.15 -2.36,38.58 -2.31,38.01 -2.16,36.47 -2.02,34.92 -1.83,33.15 -1.64,31.38 -1.59,29.62 -1.55,27.85 -1.60,25.72 -1.64,23.59 -1.70,20.61 -1.76,17.63 -1.85,11.98 -1.93,6.32 -2.04,3.16 -2.16,0 -2.12,-0.25 -2.09,-0.51 -2.00,-0.76 -1.91,-1.00 -1.76,-1.21 -1.61,-1.43 -1.42,-1.60 -1.22,-1.77 -0.99,-1.89 -0.76,-2.02 -0.51,-2.08 -0.26,-2.14 0.00,-2.14 0.26,-2.14 0.51,-2.08 0.76,-2.02 0.99,-1.89 1.22,-1.77 1.42,-1.60 1.61,-1.43 1.76,-1.21 1.91,-1.00 2.00,-0.76 2.09,-0.51 2.12,-0.25 2.16,0.00 2.16,0.00 L 2.16,0 Z"></path></g><g transform="translate(20.52104705855251 67.36681019474136) rotate(0 19 -2.5)" stroke="none"><path fill="#1971c2" d="M -0.19,-2.13 Q -0.19,-2.13 2.97,-2.31 6.14,-2.48 8.80,-3.08 11.46,-3.67 13.49,-4.19 15.52,-4.71 17.04,-5.05 18.56,-5.40 20.12,-5.57 21.68,-5.75 23.50,-5.80 25.32,-5.84 27.97,-5.97 30.63,-6.09 31.88,-6.15 33.14,-6.21 35.15,-6.70 37.16,-7.18 37.53,-7.26 37.91,-7.33 38.28,-7.29 38.66,-7.24 39.00,-7.08 39.34,-6.91 39.61,-6.65 39.88,-6.38 40.05,-6.04 40.22,-5.71 40.28,-5.33 40.34,-4.96 40.27,-4.58 40.20,-4.21 40.02,-3.88 39.84,-3.55 39.56,-3.29 39.28,-3.04 38.93,-2.88 38.58,-2.73 38.21,-2.70 37.83,-2.66 37.46,-2.75 37.09,-2.84 36.77,-3.04 36.45,-3.24 36.21,-3.53 35.97,-3.82 35.84,-4.17 35.70,-4.53 35.69,-4.91 35.67,-5.29 35.78,-5.65 35.89,-6.01 36.10,-6.32 36.32,-6.63 36.63,-6.86 36.93,-7.08 37.29,-7.20 37.65,-7.31 38.03,-7.30 38.41,-7.30 38.77,-7.17 39.12,-7.04 39.42,-6.81 39.72,-6.58 39.93,-6.26 40.13,-5.94 40.23,-5.58 40.33,-5.21 40.30,-4.83 40.27,-4.45 40.13,-4.11 39.98,-3.76 39.73,-3.47 39.48,-3.19 39.15,-3.00 38.83,-2.81 38.83,-2.81 38.83,-2.81 35.99,-2.29 33.15,-1.77 31.90,-1.82 30.65,-1.87 28.03,-1.94 25.42,-2.01 23.68,-1.97 21.95,-1.93 20.56,-1.90 19.16,-1.86 17.79,-1.71 16.42,-1.56 14.37,-0.91 12.31,-0.26 9.40,0.53 6.50,1.33 3.34,1.73 0.19,2.13 -0.06,2.12 -0.32,2.11 -0.57,2.04 -0.81,1.97 -1.04,1.85 -1.26,1.72 -1.45,1.54 -1.64,1.37 -1.78,1.15 -1.92,0.93 -2.00,0.69 -2.09,0.44 -2.11,0.19 -2.14,-0.06 -2.10,-0.31 -2.06,-0.57 -1.96,-0.81 -1.86,-1.05 -1.71,-1.25 -1.55,-1.46 -1.36,-1.63 -1.16,-1.79 -0.93,-1.91 -0.69,-2.02 -0.44,-2.07 -0.19,-2.13 -0.19,-2.13 L -0.19,-2.13 Z"></path></g><g transform="translate(54.52104705855251 54.36681019474136) rotate(0 3 7)" stroke="none"><path fill="#1971c2" d="M 2.55,-0.42 Q 2.55,-0.42 2.76,1.29 2.98,3.00 3.54,3.94 4.10,4.88 5.05,5.59 5.99,6.30 7.43,7.64 8.87,8.97 8.39,10.85 7.92,12.72 6.85,13.67 5.77,14.62 3.95,15.70 2.14,16.77 1.66,16.88 1.19,16.99 0.71,16.94 0.23,16.89 -0.21,16.70 -0.65,16.50 -1.01,16.17 -1.36,15.84 -1.60,15.41 -1.83,14.99 -1.91,14.51 -2.00,14.03 -1.92,13.55 -1.85,13.07 -1.63,12.64 -1.40,12.21 -1.06,11.87 -0.71,11.53 -0.27,11.32 0.16,11.11 0.64,11.06 1.12,11.00 1.60,11.10 2.07,11.20 2.49,11.44 2.91,11.69 3.23,12.05 3.55,12.42 3.73,12.87 3.92,13.32 3.95,13.80 3.98,14.29 3.86,14.76 3.73,15.22 3.46,15.63 3.20,16.03 2.81,16.33 2.43,16.63 1.97,16.79 1.51,16.95 1.03,16.96 0.54,16.96 0.08,16.81 -0.37,16.66 -0.76,16.37 -1.15,16.08 -1.43,15.68 -1.70,15.28 -1.84,14.82 -1.97,14.35 -1.95,13.87 -1.93,13.38 -1.76,12.93 -1.58,12.48 -1.27,12.10 -0.96,11.73 -0.55,11.48 -0.14,11.22 -0.14,11.22 -0.14,11.22 1.74,9.98 3.63,8.74 3.90,9.95 4.17,11.17 2.77,10.09 1.38,9.02 0.60,8.13 -0.16,7.24 -0.99,5.56 -1.83,3.89 -2.19,2.15 -2.55,0.42 -2.56,0.11 -2.58,-0.19 -2.51,-0.50 -2.45,-0.80 -2.32,-1.09 -2.19,-1.37 -1.99,-1.61 -1.80,-1.85 -1.55,-2.04 -1.30,-2.23 -1.01,-2.35 -0.72,-2.48 -0.42,-2.53 -0.11,-2.58 0.19,-2.56 0.50,-2.53 0.80,-2.44 1.10,-2.34 1.36,-2.17 1.62,-2.01 1.84,-1.78 2.06,-1.56 2.21,-1.29 2.37,-1.02 2.46,-0.72 2.55,-0.42 2.55,-0.42 L 2.55,-0.42 Z"></path></g><g stroke-linecap="round"><g transform="translate(129.51740601180123 12.165065452673474) rotate(0 241.42059394109992 -0.1597950794744616)"><path d="M-0.22 -1.18 C80.7 -1.19, 403.69 -0.87, 484.63 -0.72 M-1.79 0.82 C79.01 1.01, 402.38 0.43, 483.49 0.44" stroke="#e03131" stroke-width="2" fill="none"></path></g><g transform="translate(129.51740601180123 12.165065452673474) rotate(0 241.42059394109992 -0.1597950794744616)"><path d="M460.01 9.01 C463.44 6.5, 469.54 5.89, 483.49 0.44 M460.01 9.01 C465.49 5.82, 472.86 4.49, 483.49 0.44" stroke="#e03131" stroke-width="2" fill="none"></path></g><g transform="translate(129.51740601180123 12.165065452673474) rotate(0 241.42059394109992 -0.1597950794744616)"><path d="M459.99 -8.09 C463.33 -6.71, 469.44 -3.43, 483.49 0.44 M459.99 -8.09 C465.47 -6.58, 472.84 -3.21, 483.49 0.44" stroke="#e03131" stroke-width="2" fill="none"></path></g></g><mask></mask><g stroke-linecap="round"><g transform="translate(497.00262541273685 210.11546874337526) rotate(0 57.97147197237166 -99.52480782199964)"><path d="M-0.62 -1.02 C18.29 -34.53, 95.1 -167.05, 114.38 -200.12 M1.26 1.07 C20.45 -32.35, 97.76 -164.95, 116.56 -198.72" stroke="#1971c2" stroke-width="2" fill="none"></path></g><g transform="translate(497.00262541273685 210.11546874337526) rotate(0 57.97147197237166 -99.52480782199964)"><path d="M112.32 -174.08 C112.03 -185.03, 114.88 -193.24, 116.56 -198.72 M112.32 -174.08 C113.87 -182.98, 114.63 -190.55, 116.56 -198.72" stroke="#1971c2" stroke-width="2" fill="none"></path></g><g transform="translate(497.00262541273685 210.11546874337526) rotate(0 57.97147197237166 -99.52480782199964)"><path d="M97.48 -182.57 C102.85 -190.24, 111.29 -195.25, 116.56 -198.72 M97.48 -182.57 C103.95 -188.69, 109.69 -193.41, 116.56 -198.72" stroke="#1971c2" stroke-width="2" fill="none"></path></g></g><mask></mask><g stroke-linecap="round"><g transform="translate(11.521047058552512 211.36681019474136) rotate(0 299.495724426182 -99.46622376930901)"><path d="M0 -1.12 C100.25 -34.43, 500.11 -166.84, 600.44 -199.84 M-1.45 0.91 C98.67 -32.28, 498.66 -165.61, 599.2 -198.75" stroke="#2f9e44" stroke-width="4" fill="none"></path></g><g transform="translate(11.521047058552512 211.36681019474136) rotate(0 299.495724426182 -99.46622376930901)"><path d="M579.6 -183.24 C581.95 -187.5, 586.63 -188.22, 599.2 -198.75 M579.6 -183.24 C584.62 -187.21, 591.31 -191.38, 599.2 -198.75" stroke="#2f9e44" stroke-width="4" fill="none"></path></g><g transform="translate(11.521047058552512 211.36681019474136) rotate(0 299.495724426182 -99.46622376930901)"><path d="M574.21 -199.47 C577.73 -200.24, 583.58 -197.46, 599.2 -198.75 M574.21 -199.47 C580.72 -198.81, 588.95 -198.32, 599.2 -198.75" stroke="#2f9e44" stroke-width="4" fill="none"></path></g></g><mask></mask><g stroke-linecap="round"><g transform="translate(127.52104705855251 13.366810194741362) rotate(0 183.311256823875 98.24156893774867)"><path d="M-0.97 0.52 C59.99 32.99, 304.27 162.77, 365.27 195.13 M0.72 -0.25 C62.11 32.4, 306.49 164.06, 367.6 196.74" stroke="#f08c00" stroke-width="4" fill="none"></path></g><g transform="translate(127.52104705855251 13.366810194741362) rotate(0 183.311256823875 98.24156893774867)"><path d="M342.85 193.16 C350.08 193.06, 355.79 193.51, 367.6 196.74 M342.85 193.16 C348.77 194.54, 355.55 195.76, 367.6 196.74" stroke="#f08c00" stroke-width="4" fill="none"></path></g><g transform="translate(127.52104705855251 13.366810194741362) rotate(0 183.311256823875 98.24156893774867)"><path d="M350.94 178.09 C356.13 181.8, 359.77 186.12, 367.6 196.74 M350.94 178.09 C354.55 183.54, 359.12 188.86, 367.6 196.74" stroke="#f08c00" stroke-width="4" fill="none"></path></g></g><mask></mask><g transform="translate(166.5210470585525 125.36681019474136) rotate(0 -3.5 8)" stroke="none"><path fill="#2f9e44" d="M -1.58,2.11 Q -1.58,2.11 -2.72,1.24 -3.85,0.37 -5.19,0.14 -6.52,-0.08 -7.87,-0.04 -9.21,0.00 -9.98,1.97 -10.76,3.94 -10.72,5.34 -10.68,6.74 -10.67,7.95 -10.66,9.17 -10.69,10.27 -10.72,11.36 -10.02,12.64 -9.31,13.92 -7.66,14.79 -6.01,15.66 -5.32,14.24 -4.64,12.82 -4.10,11.06 -3.57,9.29 -3.07,8.22 -2.57,7.14 -1.98,6.23 -1.39,5.32 -1.34,3.87 -1.28,2.41 -1.18,2.03 -1.09,1.65 -0.90,1.30 -0.72,0.96 -0.45,0.67 -0.19,0.37 0.13,0.15 0.45,-0.06 0.82,-0.19 1.19,-0.33 1.58,-0.37 1.97,-0.42 2.36,-0.36 2.75,-0.31 3.12,-0.17 3.48,-0.03 3.80,0.19 4.13,0.41 4.38,0.71 4.64,1.01 4.82,1.36 5.00,1.71 5.09,2.09 5.18,2.47 5.18,2.86 5.17,3.26 5.22,4.51 5.26,5.76 5.28,6.96 5.31,8.17 5.34,9.71 5.37,11.25 6.28,11.40 7.19,11.55 7.73,11.67 8.28,11.79 8.76,12.08 9.24,12.37 9.60,12.79 9.96,13.22 10.16,13.74 10.37,14.26 10.40,14.82 10.43,15.38 10.28,15.91 10.13,16.45 9.81,16.91 9.50,17.38 9.05,17.71 8.61,18.05 8.08,18.23 7.55,18.40 6.99,18.40 6.43,18.40 5.90,18.22 5.37,18.04 4.93,17.70 4.48,17.36 4.17,16.90 3.86,16.44 3.71,15.90 3.56,15.36 3.59,14.80 3.62,14.25 3.83,13.73 4.04,13.21 4.40,12.78 4.76,12.36 5.24,12.07 5.72,11.78 6.27,11.66 6.82,11.55 7.37,11.61 7.93,11.67 8.43,11.90 8.94,12.14 9.34,12.53 9.75,12.91 10.01,13.41 10.27,13.90 10.36,14.45 10.45,15.00 10.36,15.55 10.27,16.11 10.00,16.60 9.74,17.09 9.33,17.47 8.93,17.86 8.42,18.09 7.91,18.33 7.36,18.38 6.80,18.44 6.80,18.44 6.80,18.44 3.50,17.14 0.19,15.85 -0.59,13.55 -1.37,11.25 -1.34,9.71 -1.31,8.17 -1.29,6.98 -1.27,5.78 -1.27,4.10 -1.28,2.41 -1.18,2.03 -1.09,1.65 -0.90,1.30 -0.72,0.96 -0.45,0.67 -0.19,0.37 0.13,0.15 0.45,-0.06 0.82,-0.19 1.19,-0.33 1.58,-0.37 1.97,-0.42 2.36,-0.36 2.75,-0.31 3.12,-0.17 3.48,-0.03 3.80,0.19 4.12,0.41 4.38,0.71 4.64,1.01 4.82,1.36 5.00,1.71 5.09,2.09 5.18,2.47 5.18,2.86 5.17,3.26 5.00,4.64 4.82,6.01 4.03,7.90 3.24,9.79 2.56,11.46 1.87,13.13 1.51,14.51 1.16,15.89 0.62,16.92 0.09,17.94 -0.57,19.00 -1.24,20.06 -2.59,20.96 -3.94,21.86 -5.11,22.01 -6.29,22.16 -8.06,21.56 -9.83,20.97 -11.08,20.21 -12.34,19.44 -13.30,18.77 -14.25,18.09 -14.91,17.26 -15.58,16.42 -16.42,13.89 -17.27,11.35 -17.27,9.65 -17.28,7.95 -17.24,6.28 -17.20,4.61 -16.66,2.75 -16.12,0.90 -15.84,-0.50 -15.56,-1.92 -14.65,-2.79 -13.73,-3.67 -12.89,-4.41 -12.05,-5.15 -10.11,-5.54 -8.17,-5.93 -7.01,-5.82 -5.84,-5.71 -4.28,-5.30 -2.71,-4.89 -1.72,-4.35 -0.74,-3.82 0.42,-2.96 1.58,-2.11 1.81,-1.89 2.04,-1.67 2.21,-1.40 2.38,-1.13 2.48,-0.83 2.59,-0.53 2.61,-0.21 2.64,0.10 2.59,0.41 2.54,0.73 2.41,1.02 2.29,1.32 2.10,1.57 1.90,1.83 1.66,2.03 1.41,2.23 1.12,2.37 0.83,2.50 0.52,2.57 0.21,2.63 -0.10,2.62 -0.42,2.61 -0.72,2.52 -1.03,2.43 -1.31,2.27 -1.58,2.11 -1.58,2.11 L -1.58,2.11 Z"></path></g><g transform="translate(142.5210470585525 111.36681019474136) rotate(0 14.5 0)" stroke="none"><path fill="#2f9e44" d="M 0,-2.49 Q 0,-2.49 2.01,-2.37 4.02,-2.25 5.45,-2.27 6.88,-2.29 9.31,-2.34 11.73,-2.39 12.96,-2.42 14.18,-2.45 15.28,-2.49 16.38,-2.53 18.15,-2.61 19.92,-2.69 21.06,-2.76 22.19,-2.83 23.51,-2.89 24.82,-2.94 26.91,-2.97 29,-3.00 29.47,-2.92 29.95,-2.84 30.38,-2.61 30.81,-2.38 31.14,-2.03 31.48,-1.68 31.68,-1.24 31.89,-0.80 31.94,-0.31 31.99,0.16 31.89,0.63 31.78,1.11 31.53,1.52 31.28,1.94 30.91,2.25 30.54,2.57 30.09,2.75 29.64,2.93 29.16,2.95 28.67,2.98 28.20,2.85 27.73,2.72 27.33,2.45 26.93,2.17 26.64,1.79 26.34,1.40 26.19,0.94 26.03,0.48 26.03,-0.00 26.03,-0.48 26.19,-0.94 26.34,-1.40 26.64,-1.79 26.93,-2.17 27.33,-2.45 27.74,-2.72 28.20,-2.85 28.67,-2.98 29.16,-2.95 29.64,-2.93 30.09,-2.75 30.54,-2.57 30.91,-2.25 31.28,-1.94 31.53,-1.52 31.78,-1.10 31.89,-0.63 31.99,-0.16 31.94,0.32 31.89,0.80 31.68,1.24 31.48,1.68 31.14,2.03 30.81,2.38 30.38,2.61 29.95,2.84 29.47,2.92 28.99,3.00 28.99,3.00 29,3.00 26.91,2.97 24.82,2.94 23.51,2.89 22.19,2.83 21.06,2.76 19.92,2.69 18.15,2.61 16.38,2.53 15.28,2.49 14.18,2.45 12.96,2.42 11.73,2.39 9.31,2.34 6.88,2.29 5.45,2.27 4.02,2.25 2.01,2.37 0,2.49 -0.29,2.45 -0.59,2.42 -0.87,2.31 -1.15,2.20 -1.40,2.03 -1.65,1.86 -1.85,1.64 -2.05,1.41 -2.19,1.15 -2.33,0.88 -2.40,0.59 -2.47,0.30 -2.47,-0.00 -2.47,-0.30 -2.40,-0.59 -2.33,-0.88 -2.19,-1.15 -2.05,-1.41 -1.85,-1.64 -1.65,-1.86 -1.40,-2.03 -1.15,-2.20 -0.87,-2.31 -0.59,-2.42 -0.29,-2.45 0.00,-2.49 0.00,-2.49 L 0,-2.49 Z"></path></g><g transform="translate(168.5210470585525 106.36681019474136) rotate(0 6.5 3.5)" stroke="none"><path fill="#2f9e44" d="M 0.35,-2.49 Q 0.35,-2.49 2.35,-2.07 4.34,-1.66 5.75,-1.55 7.16,-1.44 8.22,-1.02 9.28,-0.61 10.35,-0.21 11.42,0.18 12.82,1.47 14.23,2.75 13.78,4.20 13.34,5.65 12.27,6.39 11.21,7.12 9.55,7.86 7.88,8.60 6.75,9.15 5.63,9.71 4.62,10.17 3.62,10.63 3.16,10.82 2.70,11.01 2.20,11.04 1.70,11.07 1.21,10.94 0.73,10.82 0.31,10.54 -0.10,10.26 -0.40,9.87 -0.71,9.48 -0.88,9.00 -1.04,8.53 -1.05,8.03 -1.05,7.53 -0.90,7.05 -0.74,6.58 -0.45,6.18 -0.15,5.77 0.25,5.49 0.66,5.20 1.14,5.06 1.62,4.92 2.12,4.95 2.62,4.97 3.09,5.15 3.56,5.33 3.94,5.65 4.33,5.97 4.59,6.39 4.85,6.82 4.97,7.30 5.08,7.79 5.03,8.29 4.98,8.79 4.78,9.24 4.57,9.70 4.23,10.07 3.89,10.44 3.46,10.67 3.02,10.91 2.52,11.00 2.03,11.09 1.54,11.01 1.04,10.94 0.60,10.71 0.15,10.48 -0.19,10.12 -0.53,9.76 -0.75,9.31 -0.97,8.86 -1.02,8.36 -1.08,7.86 -0.98,7.37 -0.88,6.88 -0.63,6.45 -0.37,6.02 -0.00,5.69 0.37,5.36 0.37,5.36 0.37,5.36 2.42,4.60 4.47,3.84 5.86,3.41 7.25,2.97 8.98,2.43 10.71,1.88 10.45,3.57 10.19,5.26 8.40,4.17 6.60,3.08 5.15,2.94 3.70,2.81 1.67,2.65 -0.35,2.49 -0.64,2.41 -0.94,2.33 -1.20,2.18 -1.47,2.04 -1.69,1.83 -1.91,1.62 -2.08,1.37 -2.25,1.12 -2.35,0.83 -2.45,0.55 -2.48,0.24 -2.51,-0.05 -2.47,-0.35 -2.43,-0.65 -2.31,-0.93 -2.20,-1.21 -2.02,-1.46 -1.84,-1.70 -1.61,-1.90 -1.38,-2.10 -1.11,-2.23 -0.84,-2.37 -0.54,-2.43 -0.25,-2.50 0.05,-2.49 0.35,-2.49 0.35,-2.49 L 0.35,-2.49 Z"></path></g><g transform="translate(186.5210470585525 122.36681019474136) rotate(0 8 -1)" stroke="none"><path fill="#2f9e44" d="M -0.70,-2.45 Q -0.70,-2.45 1.35,-2.88 3.40,-3.31 4.61,-3.62 5.82,-3.93 7.00,-4.10 8.19,-4.28 9.91,-4.44 11.63,-4.60 13.81,-4.65 15.99,-4.70 16.42,-4.63 16.85,-4.56 17.24,-4.36 17.63,-4.15 17.93,-3.84 18.23,-3.52 18.41,-3.12 18.60,-2.73 18.65,-2.29 18.70,-1.86 18.60,-1.43 18.51,-1.00 18.28,-0.63 18.06,-0.25 17.73,0.02 17.39,0.31 16.99,0.47 16.58,0.63 16.15,0.66 15.71,0.68 15.29,0.57 14.87,0.45 14.50,0.21 14.14,-0.03 13.88,-0.37 13.61,-0.72 13.47,-1.14 13.33,-1.55 13.33,-1.99 13.33,-2.43 13.46,-2.84 13.60,-3.26 13.87,-3.60 14.13,-3.95 14.49,-4.20 14.85,-4.45 15.27,-4.56 15.70,-4.68 16.13,-4.66 16.57,-4.64 16.98,-4.48 17.38,-4.32 17.72,-4.03 18.05,-3.75 18.28,-3.38 18.50,-3.00 18.60,-2.57 18.69,-2.15 18.65,-1.71 18.60,-1.28 18.42,-0.88 18.24,-0.48 17.94,-0.16 17.64,0.14 17.25,0.35 16.86,0.56 16.43,0.63 16.00,0.70 16.00,0.70 16.00,0.70 13.03,0.65 10.06,0.61 8.43,0.63 6.80,0.65 5.72,0.83 4.64,1.01 2.67,1.73 0.70,2.45 0.39,2.50 0.09,2.55 -0.21,2.52 -0.51,2.49 -0.81,2.40 -1.10,2.30 -1.36,2.13 -1.62,1.97 -1.83,1.74 -2.04,1.52 -2.19,1.25 -2.35,0.99 -2.43,0.69 -2.52,0.40 -2.53,0.09 -2.54,-0.21 -2.48,-0.51 -2.41,-0.81 -2.28,-1.09 -2.15,-1.37 -1.95,-1.60 -1.76,-1.84 -1.51,-2.03 -1.26,-2.21 -0.98,-2.33 -0.70,-2.45 -0.70,-2.45 L -0.70,-2.45 Z"></path></g><g transform="translate(195.5210470585525 110.36681019474136) rotate(0 0 7.5)" stroke="none"><path fill="#2f9e44" d="M 2.40,0 Q 2.40,0 2.36,1.72 2.32,3.44 2.30,5.04 2.29,6.64 2.38,8.87 2.46,11.11 2.51,13.05 2.56,15 2.49,15.40 2.42,15.81 2.23,16.18 2.04,16.55 1.73,16.83 1.43,17.12 1.06,17.29 0.68,17.46 0.27,17.51 -0.13,17.55 -0.54,17.47 -0.94,17.38 -1.30,17.16 -1.65,16.95 -1.92,16.63 -2.19,16.32 -2.34,15.93 -2.50,15.55 -2.52,15.13 -2.54,14.72 -2.43,14.32 -2.32,13.92 -2.09,13.58 -1.86,13.23 -1.53,12.98 -1.20,12.73 -0.80,12.60 -0.41,12.47 0.00,12.47 0.41,12.47 0.80,12.60 1.20,12.73 1.53,12.98 1.86,13.23 2.09,13.58 2.32,13.92 2.43,14.32 2.54,14.72 2.52,15.13 2.50,15.55 2.34,15.93 2.19,16.32 1.92,16.63 1.65,16.95 1.30,17.16 0.94,17.38 0.54,17.47 0.13,17.55 -0.27,17.51 -0.68,17.46 -1.06,17.29 -1.43,17.12 -1.74,16.83 -2.04,16.55 -2.23,16.18 -2.42,15.81 -2.49,15.40 -2.56,14.99 -2.56,14.99 -2.56,15 -2.51,13.05 -2.46,11.11 -2.38,8.87 -2.29,6.64 -2.30,5.04 -2.32,3.44 -2.36,1.72 -2.40,0 -2.37,-0.28 -2.33,-0.57 -2.23,-0.84 -2.13,-1.11 -1.96,-1.35 -1.80,-1.59 -1.58,-1.78 -1.36,-1.98 -1.11,-2.11 -0.85,-2.25 -0.57,-2.32 -0.29,-2.39 0.00,-2.39 0.29,-2.39 0.57,-2.32 0.85,-2.25 1.11,-2.11 1.36,-1.98 1.58,-1.78 1.80,-1.59 1.96,-1.35 2.13,-1.11 2.23,-0.84 2.33,-0.57 2.37,-0.28 2.40,0.00 2.40,0.00 L 2.40,0 Z"></path></g><g transform="translate(219.5210470585525 106.36681019474136) rotate(0 6.5 12)" stroke="none"><path fill="#2f9e44" d="M 2.25,-0.37 Q 2.25,-0.37 2.50,1.35 2.75,3.08 3.09,4.93 3.42,6.77 3.65,8.23 3.89,9.69 3.86,12.10 3.82,14.52 4.11,16.23 4.39,17.95 4.61,19.00 4.83,20.06 4.84,20.31 4.85,20.56 4.80,20.80 4.76,21.04 4.65,21.27 4.55,21.50 4.39,21.69 4.24,21.88 4.04,22.04 3.84,22.19 3.62,22.29 3.39,22.39 3.14,22.43 2.90,22.47 2.65,22.45 2.40,22.44 2.17,22.36 1.93,22.28 1.72,22.15 1.51,22.02 1.33,21.84 1.16,21.67 1.03,21.45 0.91,21.24 0.83,21.00 0.76,20.76 0.77,19.40 0.79,18.03 0.67,16.50 0.56,14.96 0.87,12.93 1.18,10.89 2.62,9.38 4.06,7.87 5.53,7.52 7.01,7.16 8.22,7.10 9.42,7.05 10.69,7.58 11.96,8.11 12.70,9.03 13.43,9.95 14.09,11.09 14.76,12.24 15.32,13.28 15.88,14.32 16.06,15.70 16.25,17.08 15.85,19.24 15.45,21.41 14.68,23.09 13.92,24.77 12.42,25.81 10.92,26.86 9.11,27.10 7.30,27.33 5.67,27.37 4.03,27.41 3.49,27.32 2.94,27.24 2.45,26.99 1.96,26.73 1.58,26.34 1.19,25.94 0.95,25.44 0.72,24.94 0.65,24.40 0.59,23.85 0.70,23.31 0.81,22.77 1.09,22.29 1.37,21.81 1.79,21.45 2.20,21.09 2.71,20.88 3.22,20.67 3.78,20.63 4.33,20.60 4.86,20.74 5.39,20.88 5.85,21.19 6.31,21.49 6.65,21.93 6.99,22.36 7.17,22.89 7.36,23.41 7.36,23.96 7.37,24.51 7.20,25.04 7.03,25.56 6.70,26.00 6.37,26.45 5.91,26.76 5.46,27.08 4.93,27.23 4.40,27.38 3.85,27.36 3.30,27.34 2.78,27.14 2.27,26.94 1.84,26.58 1.42,26.23 1.13,25.76 0.84,25.29 0.71,24.75 0.59,24.22 0.64,23.67 0.70,23.12 0.92,22.61 1.15,22.11 1.53,21.71 1.90,21.30 2.39,21.04 2.87,20.77 3.41,20.68 3.96,20.58 3.96,20.58 3.96,20.58 6.50,20.77 9.05,20.95 9.38,19.85 9.70,18.74 9.77,17.42 9.84,16.09 9.10,14.54 8.37,12.98 6.94,13.17 5.50,13.36 5.40,14.85 5.29,16.34 5.06,18.20 4.83,20.06 4.84,20.31 4.85,20.56 4.80,20.80 4.76,21.04 4.65,21.27 4.55,21.50 4.39,21.69 4.24,21.88 4.04,22.04 3.84,22.19 3.62,22.29 3.39,22.39 3.14,22.43 2.90,22.47 2.65,22.45 2.40,22.44 2.17,22.36 1.93,22.28 1.72,22.15 1.51,22.02 1.33,21.84 1.16,21.67 1.03,21.45 0.91,21.24 0.83,21.00 0.76,20.76 0.71,19.68 0.65,18.59 0.30,16.62 -0.04,14.65 -0.22,12.44 -0.40,10.23 -0.52,8.94 -0.63,7.65 -1.12,5.73 -1.60,3.81 -1.92,2.09 -2.25,0.37 -2.26,0.10 -2.27,-0.17 -2.22,-0.44 -2.16,-0.71 -2.05,-0.96 -1.93,-1.21 -1.76,-1.42 -1.58,-1.63 -1.36,-1.80 -1.14,-1.97 -0.89,-2.08 -0.64,-2.18 -0.37,-2.23 -0.10,-2.28 0.17,-2.25 0.44,-2.23 0.70,-2.15 0.97,-2.06 1.20,-1.91 1.43,-1.77 1.62,-1.57 1.81,-1.37 1.95,-1.14 2.09,-0.90 2.17,-0.63 2.25,-0.37 2.25,-0.37 L 2.25,-0.37 Z"></path></g><g transform="translate(214.5210470585525 104.36681019474136) rotate(0 7 -0.5)" stroke="none"><path fill="#2f9e44" d="M -0.50,-2.54 Q -0.50,-2.54 0.93,-2.81 2.37,-3.08 3.67,-3.24 4.98,-3.40 6.12,-3.49 7.27,-3.57 8.66,-3.68 10.06,-3.79 12.02,-3.83 13.99,-3.87 14.45,-3.80 14.91,-3.72 15.32,-3.51 15.73,-3.29 16.05,-2.95 16.37,-2.61 16.57,-2.19 16.77,-1.77 16.82,-1.31 16.87,-0.85 16.77,-0.39 16.67,0.05 16.43,0.45 16.19,0.85 15.84,1.15 15.48,1.46 15.05,1.63 14.62,1.80 14.15,1.83 13.69,1.86 13.24,1.73 12.79,1.61 12.41,1.35 12.02,1.09 11.74,0.72 11.46,0.35 11.31,-0.08 11.16,-0.52 11.16,-0.99 11.16,-1.45 11.30,-1.90 11.45,-2.34 11.73,-2.71 12.01,-3.08 12.40,-3.34 12.78,-3.60 13.23,-3.73 13.68,-3.85 14.14,-3.83 14.61,-3.81 15.04,-3.63 15.47,-3.46 15.83,-3.16 16.18,-2.86 16.42,-2.46 16.67,-2.06 16.77,-1.61 16.87,-1.16 16.82,-0.69 16.77,-0.23 16.57,0.18 16.38,0.60 16.06,0.94 15.74,1.28 15.33,1.50 14.92,1.72 14.46,1.80 14.00,1.87 14.00,1.87 14.00,1.87 11.49,1.82 8.97,1.76 7.24,1.77 5.51,1.77 4.44,1.85 3.37,1.93 1.94,2.24 0.50,2.54 0.19,2.56 -0.11,2.59 -0.42,2.54 -0.73,2.48 -1.01,2.36 -1.30,2.24 -1.55,2.05 -1.80,1.86 -2.00,1.62 -2.19,1.37 -2.33,1.09 -2.46,0.81 -2.52,0.50 -2.58,0.19 -2.57,-0.11 -2.55,-0.42 -2.47,-0.72 -2.38,-1.02 -2.22,-1.29 -2.06,-1.56 -1.84,-1.79 -1.63,-2.01 -1.36,-2.18 -1.10,-2.34 -0.80,-2.44 -0.50,-2.54 -0.50,-2.54 L -0.50,-2.54 Z"></path></g><g transform="translate(225.5210470585525 94.36681019474136) rotate(0 8 4.5)" stroke="none"><path fill="#2f9e44" d="M 1.31,-2.18 Q 1.31,-2.18 2.72,-1.28 4.14,-0.37 5.45,0.66 6.76,1.70 7.89,2.72 9.02,3.74 10.33,3.96 11.63,4.18 12.98,4.21 14.33,4.24 15.51,4.74 16.70,5.24 16.86,5.54 17.03,5.85 17.31,6.05 17.59,6.25 17.82,6.52 18.05,6.78 18.20,7.09 18.36,7.40 18.44,7.74 18.52,8.08 18.51,8.43 18.50,8.77 18.42,9.11 18.33,9.45 18.16,9.75 17.99,10.06 17.76,10.31 17.53,10.57 17.24,10.76 16.95,10.95 16.62,11.07 16.29,11.19 15.95,11.23 15.60,11.26 15.26,11.22 14.91,11.17 14.59,11.04 14.27,10.91 11.64,11.47 9.01,12.03 8.52,11.96 8.04,11.88 7.60,11.65 7.17,11.42 6.83,11.07 6.49,10.71 6.28,10.27 6.07,9.82 6.01,9.33 5.96,8.85 6.06,8.36 6.17,7.88 6.42,7.46 6.67,7.04 7.04,6.72 7.42,6.40 7.87,6.21 8.33,6.03 8.82,6.00 9.31,5.97 9.78,6.10 10.26,6.23 10.67,6.50 11.07,6.78 11.37,7.17 11.67,7.56 11.83,8.02 11.99,8.49 11.99,8.98 12.00,9.47 11.84,9.94 11.69,10.41 11.39,10.80 11.10,11.19 10.69,11.47 10.28,11.75 9.81,11.88 9.34,12.01 8.85,11.99 8.36,11.97 7.90,11.79 7.44,11.61 7.06,11.29 6.69,10.97 6.43,10.55 6.18,10.13 6.07,9.65 5.96,9.17 6.01,8.68 6.06,8.20 6.27,7.75 6.47,7.30 6.81,6.94 7.14,6.58 7.58,6.35 8.01,6.12 8.50,6.04 8.98,5.96 8.98,5.96 8.98,5.96 11.34,5.99 13.70,6.03 15.37,5.94 17.03,5.85 17.31,6.05 17.59,6.25 17.82,6.52 18.05,6.78 18.20,7.09 18.36,7.40 18.44,7.74 18.52,8.08 18.51,8.43 18.50,8.77 18.42,9.11 18.33,9.45 18.16,9.75 17.99,10.06 17.76,10.31 17.53,10.57 17.24,10.76 16.95,10.95 16.62,11.07 16.29,11.19 15.95,11.23 15.60,11.26 15.26,11.22 14.91,11.17 14.59,11.04 14.27,10.91 14.04,10.29 13.82,9.66 12.34,9.48 10.87,9.29 9.29,8.95 7.71,8.62 6.75,7.99 5.78,7.37 4.75,6.44 3.73,5.51 2.67,4.67 1.60,3.82 0.14,3.00 -1.31,2.18 -1.55,2.00 -1.79,1.81 -1.98,1.56 -2.18,1.32 -2.30,1.04 -2.43,0.76 -2.49,0.46 -2.54,0.16 -2.53,-0.14 -2.51,-0.45 -2.42,-0.74 -2.33,-1.04 -2.17,-1.30 -2.01,-1.56 -1.79,-1.78 -1.58,-2.00 -1.31,-2.16 -1.05,-2.32 -0.76,-2.41 -0.46,-2.50 -0.16,-2.52 0.14,-2.54 0.44,-2.49 0.75,-2.43 1.03,-2.31 1.31,-2.18 1.31,-2.18 L 1.31,-2.18 Z"></path></g><g transform="translate(396.52104705855254 126.36681019474136) rotate(0 -6.5 5.5)" stroke="none"><path fill="#f08c00" d="M -1.88,1.88 Q -1.88,1.88 -2.71,1.05 -3.54,0.22 -5.24,0.08 -6.93,-0.04 -8.04,-0.03 -9.16,-0.01 -9.46,1.03 -9.77,2.08 -10.65,3.32 -11.53,4.57 -11.27,6.13 -11.01,7.69 -10.58,8.98 -10.15,10.28 -9.03,10.48 -7.91,10.69 -7.25,9.51 -6.59,8.33 -6.07,6.96 -5.55,5.59 -4.97,4.58 -4.39,3.57 -2.81,1.31 -1.23,-0.95 0.28,0.28 1.80,1.52 2.02,3.20 2.24,4.88 2.25,6.44 2.26,8.01 2.81,8.47 3.36,8.94 3.81,9.24 4.26,9.54 4.59,9.96 4.93,10.39 5.11,10.90 5.29,11.41 5.29,11.95 5.30,12.49 5.14,13.01 4.97,13.52 4.65,13.96 4.33,14.39 3.88,14.70 3.44,15.01 2.92,15.16 2.40,15.31 1.86,15.29 1.32,15.27 0.81,15.08 0.31,14.88 -0.10,14.54 -0.51,14.19 -0.80,13.73 -1.08,13.27 -1.21,12.75 -1.33,12.22 -1.28,11.68 -1.23,11.14 -1.01,10.65 -0.79,10.16 -0.42,9.76 -0.05,9.36 0.41,9.10 0.89,8.84 1.42,8.75 1.95,8.65 2.49,8.73 3.02,8.81 3.50,9.06 3.98,9.31 4.36,9.69 4.74,10.08 4.97,10.57 5.20,11.06 5.27,11.59 5.34,12.13 5.23,12.66 5.12,13.19 4.84,13.66 4.57,14.13 4.16,14.48 3.76,14.84 3.26,15.04 2.76,15.25 2.22,15.29 1.68,15.32 1.15,15.19 0.63,15.05 0.63,15.05 0.63,15.05 -1.04,13.49 -2.72,11.93 -3.49,9.97 -4.26,8.01 -4.26,6.46 -4.25,4.90 -4.08,3.68 -3.91,2.46 -2.46,3.70 -1.02,4.93 0.37,4.47 1.76,4.01 1.01,5.91 0.27,7.81 -0.19,9.12 -0.66,10.43 -1.89,12.22 -3.11,14.02 -4.38,15.24 -5.65,16.47 -7.05,16.79 -8.44,17.11 -10.47,16.62 -12.51,16.14 -13.46,15.40 -14.40,14.66 -15.40,12.76 -16.39,10.85 -16.83,9.14 -17.26,7.44 -17.41,6.04 -17.56,4.64 -17.04,2.80 -16.53,0.96 -15.78,-0.33 -15.02,-1.63 -14.42,-2.60 -13.82,-3.57 -12.89,-4.35 -11.96,-5.13 -10.56,-5.54 -9.16,-5.94 -7.83,-5.85 -6.50,-5.75 -4.55,-5.38 -2.61,-5.01 -1.26,-4.34 0.09,-3.67 0.98,-2.77 1.88,-1.88 2.08,-1.63 2.27,-1.37 2.41,-1.08 2.54,-0.79 2.60,-0.47 2.65,-0.16 2.63,0.15 2.61,0.48 2.52,0.78 2.42,1.09 2.26,1.36 2.09,1.64 1.86,1.86 1.64,2.09 1.36,2.26 1.09,2.42 0.78,2.52 0.47,2.62 0.15,2.63 -0.16,2.65 -0.47,2.60 -0.79,2.54 -1.08,2.41 -1.37,2.27 -1.63,2.08 -1.88,1.88 -1.88,1.88 L -1.88,1.88 Z"></path></g><g transform="translate(377.52104705855254 115.36681019474136) rotate(0 8.5 1.5)" stroke="none"><path fill="#f08c00" d="M 0.51,-2.57 Q 0.51,-2.57 1.98,-2.25 3.45,-1.93 4.46,-1.40 5.48,-0.86 6.81,-0.87 8.13,-0.87 9.59,-0.70 11.05,-0.53 12.24,-0.33 13.43,-0.13 15.22,-0.13 17.01,-0.13 17.51,-0.05 18.01,0.02 18.46,0.26 18.90,0.50 19.25,0.87 19.60,1.24 19.81,1.70 20.02,2.17 20.08,2.67 20.13,3.18 20.02,3.67 19.91,4.17 19.64,4.60 19.38,5.04 18.99,5.36 18.60,5.69 18.13,5.88 17.66,6.06 17.15,6.09 16.64,6.12 16.16,5.98 15.67,5.84 15.25,5.55 14.83,5.27 14.52,4.86 14.22,4.46 14.06,3.97 13.89,3.49 13.90,2.98 13.90,2.48 14.06,2.00 14.23,1.51 14.54,1.11 14.84,0.71 15.27,0.42 15.69,0.14 16.18,0.01 16.67,-0.12 17.17,-0.09 17.68,-0.06 18.15,0.12 18.62,0.31 19.01,0.64 19.40,0.97 19.66,1.41 19.92,1.84 20.02,2.34 20.13,2.84 20.07,3.34 20.02,3.85 19.80,4.31 19.59,4.77 19.24,5.13 18.89,5.50 18.44,5.74 17.99,5.97 17.48,6.05 16.98,6.13 16.98,6.13 16.98,6.13 14.48,6.04 11.97,5.95 10.46,5.38 8.94,4.80 7.43,4.61 5.92,4.42 4.11,3.75 2.29,3.08 0.89,2.82 -0.51,2.57 -0.81,2.47 -1.11,2.37 -1.38,2.20 -1.65,2.04 -1.87,1.81 -2.09,1.58 -2.25,1.31 -2.41,1.03 -2.50,0.73 -2.59,0.43 -2.60,0.11 -2.61,-0.20 -2.55,-0.51 -2.49,-0.82 -2.35,-1.10 -2.22,-1.39 -2.02,-1.64 -1.82,-1.88 -1.57,-2.07 -1.32,-2.26 -1.03,-2.39 -0.74,-2.51 -0.42,-2.57 -0.11,-2.62 0.19,-2.59 0.51,-2.57 0.51,-2.57 L 0.51,-2.57 Z"></path></g><g transform="translate(392.52104705855254 114.36681019474136) rotate(0 4.5 1.5)" stroke="none"><path fill="#f08c00" d="M 0,-2.65 Q 0,-2.65 1.15,-2.66 2.3,-2.68 4.03,-2.60 5.76,-2.53 7.92,-1.68 10.09,-0.84 10.79,0.54 11.49,1.92 11.17,3.40 10.86,4.88 9.90,5.70 8.95,6.52 7.70,6.78 6.44,7.04 4.76,7.13 3.09,7.22 2.57,7.15 2.05,7.08 1.58,6.85 1.12,6.62 0.75,6.25 0.38,5.88 0.15,5.41 -0.08,4.94 -0.15,4.43 -0.22,3.91 -0.12,3.40 -0.02,2.89 0.22,2.43 0.48,1.98 0.87,1.63 1.26,1.28 1.74,1.07 2.21,0.87 2.73,0.82 3.25,0.78 3.76,0.91 4.27,1.03 4.71,1.31 5.15,1.59 5.47,2.00 5.80,2.41 5.98,2.90 6.16,3.38 6.18,3.91 6.19,4.43 6.04,4.93 5.88,5.43 5.58,5.85 5.28,6.27 4.85,6.58 4.43,6.88 3.93,7.04 3.43,7.19 2.91,7.18 2.39,7.16 1.90,6.98 1.41,6.80 1.00,6.48 0.60,6.15 0.32,5.71 0.03,5.27 -0.08,4.76 -0.21,4.26 -0.17,3.74 -0.12,3.22 0.07,2.74 0.28,2.26 0.63,1.87 0.97,1.48 1.43,1.23 1.88,0.97 2.39,0.87 2.91,0.77 2.91,0.77 2.90,0.77 4.52,0.83 6.14,0.88 5.85,2.26 5.55,3.63 3.92,3.16 2.3,2.68 1.15,2.66 0,2.65 -0.31,2.61 -0.63,2.57 -0.93,2.45 -1.23,2.34 -1.49,2.16 -1.75,1.98 -1.96,1.74 -2.18,1.50 -2.32,1.22 -2.47,0.93 -2.55,0.62 -2.63,0.31 -2.63,-0.00 -2.63,-0.31 -2.55,-0.62 -2.47,-0.93 -2.32,-1.22 -2.18,-1.50 -1.96,-1.74 -1.75,-1.98 -1.49,-2.16 -1.23,-2.34 -0.93,-2.45 -0.63,-2.57 -0.31,-2.61 0.00,-2.65 0.00,-2.65 L 0,-2.65 Z"></path></g><g transform="translate(407.52104705855254 135.36681019474136) rotate(0 4.5 1.5)" stroke="none"><path fill="#f08c00" d="M 0.74,-2.23 Q 0.74,-2.23 2.45,-1.60 4.16,-0.97 5.35,-0.42 6.55,0.13 8.04,0.36 9.53,0.60 9.90,0.75 10.27,0.89 10.57,1.15 10.87,1.41 11.08,1.75 11.28,2.09 11.37,2.48 11.45,2.87 11.40,3.27 11.36,3.66 11.19,4.02 11.02,4.38 10.75,4.67 10.47,4.96 10.12,5.14 9.77,5.33 9.38,5.39 8.99,5.45 8.59,5.39 8.20,5.32 7.85,5.13 7.50,4.95 7.23,4.66 6.96,4.37 6.79,4.00 6.62,3.64 6.58,3.25 6.54,2.85 6.63,2.46 6.72,2.08 6.92,1.74 7.13,1.40 7.43,1.14 7.74,0.88 8.11,0.74 8.48,0.59 8.87,0.57 9.27,0.55 9.65,0.66 10.04,0.77 10.36,0.99 10.69,1.22 10.93,1.54 11.17,1.85 11.30,2.23 11.42,2.61 11.42,3.00 11.42,3.40 11.29,3.78 11.16,4.15 10.92,4.47 10.68,4.79 10.35,5.01 10.02,5.23 9.63,5.33 9.25,5.44 8.85,5.42 8.46,5.39 8.46,5.39 8.46,5.39 5.60,4.33 2.73,3.27 0.99,2.75 -0.74,2.23 -1.00,2.11 -1.25,1.99 -1.47,1.81 -1.69,1.63 -1.86,1.40 -2.03,1.17 -2.14,0.91 -2.26,0.65 -2.30,0.37 -2.35,0.09 -2.32,-0.18 -2.30,-0.46 -2.21,-0.73 -2.12,-1.00 -1.97,-1.24 -1.82,-1.48 -1.61,-1.68 -1.41,-1.88 -1.16,-2.02 -0.92,-2.16 -0.65,-2.24 -0.37,-2.32 -0.09,-2.33 0.18,-2.34 0.46,-2.29 0.74,-2.23 0.74,-2.23 L 0.74,-2.23 Z"></path></g><g transform="translate(427.52104705855254 136.36681019474136) rotate(0 6 14)" stroke="none"><path fill="#f08c00" d="M 2.29,-0.38 Q 2.29,-0.38 2.54,1.34 2.79,3.08 2.92,4.77 3.05,6.47 3.15,7.76 3.24,9.05 3.31,10.18 3.38,11.31 3.41,12.66 3.44,14.01 3.33,17.53 3.23,21.06 3.25,22.48 3.28,23.90 3.39,25.45 3.51,27.01 3.47,27.31 3.43,27.61 3.33,27.89 3.22,28.18 3.05,28.43 2.88,28.68 2.65,28.88 2.42,29.08 2.15,29.22 1.89,29.36 1.59,29.43 1.30,29.50 1.00,29.50 0.69,29.50 0.40,29.43 0.10,29.36 -0.15,29.22 -0.42,29.08 -0.65,28.88 -0.87,28.68 -1.05,28.43 -1.22,28.18 -1.33,27.90 -1.43,27.61 -1.47,27.31 -1.51,27.01 -1.57,25.56 -1.64,24.10 -1.72,22.54 -1.79,20.98 -1.48,18.75 -1.17,16.52 -0.65,15.53 -0.13,14.53 1.41,13.02 2.97,11.52 5.11,11.26 7.24,11.00 9.31,11.37 11.39,11.73 12.87,12.78 14.35,13.83 14.70,15.16 15.04,16.50 15.09,17.58 15.13,18.67 14.67,20.07 14.22,21.47 13.31,22.38 12.40,23.29 10.56,24.13 8.71,24.97 7.70,25.50 6.69,26.02 3.87,26.22 1.06,26.41 0.51,26.34 -0.03,26.26 -0.52,26.01 -1.01,25.76 -1.40,25.36 -1.79,24.97 -2.03,24.47 -2.27,23.97 -2.34,23.42 -2.41,22.87 -2.30,22.33 -2.20,21.79 -1.92,21.31 -1.64,20.83 -1.23,20.46 -0.81,20.10 -0.30,19.88 0.20,19.67 0.75,19.63 1.30,19.59 1.84,19.73 2.37,19.87 2.84,20.17 3.30,20.47 3.64,20.90 3.99,21.34 4.17,21.86 4.36,22.38 4.37,22.93 4.38,23.49 4.21,24.01 4.05,24.54 3.72,24.99 3.39,25.44 2.94,25.75 2.49,26.07 1.96,26.23 1.43,26.39 0.87,26.37 0.32,26.35 -0.19,26.15 -0.71,25.96 -1.13,25.61 -1.56,25.26 -1.86,24.79 -2.15,24.32 -2.28,23.78 -2.41,23.24 -2.36,22.69 -2.31,22.14 -2.08,21.63 -1.86,21.13 -1.49,20.72 -1.11,20.31 -0.63,20.04 -0.15,19.77 0.39,19.67 0.93,19.58 0.93,19.58 0.93,19.58 2.89,19.64 4.85,19.70 5.85,19.23 6.85,18.75 8.42,18.16 9.99,17.56 8.74,17.34 7.49,17.12 5.90,17.68 4.32,18.25 4.05,19.61 3.79,20.98 3.72,22.54 3.64,24.10 3.57,25.56 3.51,27.01 3.47,27.31 3.43,27.61 3.33,27.89 3.22,28.18 3.05,28.43 2.88,28.68 2.65,28.88 2.42,29.08 2.15,29.22 1.89,29.36 1.59,29.43 1.30,29.50 1.00,29.50 0.69,29.50 0.40,29.43 0.10,29.36 -0.15,29.22 -0.42,29.08 -0.65,28.88 -0.87,28.68 -1.05,28.43 -1.22,28.18 -1.33,27.90 -1.43,27.61 -1.47,27.31 -1.51,27.01 -1.39,25.45 -1.28,23.90 -1.26,22.48 -1.23,21.06 -1.35,17.55 -1.46,14.04 -1.46,12.72 -1.45,11.41 -1.42,10.32 -1.40,9.24 -1.40,8.02 -1.41,6.81 -1.52,5.31 -1.64,3.81 -1.97,2.10 -2.29,0.38 -2.31,0.10 -2.32,-0.17 -2.26,-0.45 -2.21,-0.72 -2.09,-0.98 -1.97,-1.23 -1.79,-1.45 -1.62,-1.67 -1.39,-1.84 -1.17,-2.01 -0.91,-2.12 -0.65,-2.23 -0.38,-2.28 -0.10,-2.32 0.17,-2.30 0.45,-2.28 0.72,-2.19 0.99,-2.10 1.22,-1.95 1.46,-1.81 1.66,-1.60 1.85,-1.40 1.99,-1.16 2.13,-0.92 2.21,-0.65 2.29,-0.38 2.29,-0.38 L 2.29,-0.38 Z"></path></g><g transform="translate(424.52104705855254 128.36681019474136) rotate(0 6.5 2.5)" stroke="none"><path fill="#f08c00" d="M 1.85,-1.85 Q 1.85,-1.85 2.63,-1.05 3.41,-0.25 5.47,0.44 7.53,1.13 10.42,1.64 13.31,2.15 13.76,2.27 14.20,2.40 14.59,2.66 14.97,2.92 15.25,3.29 15.53,3.66 15.68,4.10 15.82,4.54 15.82,5.00 15.82,5.46 15.67,5.90 15.52,6.34 15.24,6.71 14.96,7.08 14.58,7.34 14.19,7.60 13.75,7.72 13.30,7.85 12.84,7.82 12.37,7.79 11.94,7.62 11.51,7.45 11.16,7.15 10.81,6.85 10.57,6.45 10.33,6.05 10.23,5.60 10.13,5.14 10.18,4.68 10.23,4.22 10.43,3.80 10.63,3.38 10.95,3.05 11.27,2.71 11.68,2.49 12.09,2.28 12.54,2.20 13.00,2.13 13.46,2.20 13.92,2.28 14.33,2.50 14.73,2.72 15.05,3.05 15.37,3.39 15.56,3.81 15.76,4.23 15.81,4.70 15.86,5.16 15.76,5.61 15.66,6.06 15.42,6.46 15.18,6.86 14.82,7.16 14.47,7.45 14.04,7.63 13.60,7.80 13.14,7.82 12.68,7.84 12.68,7.84 12.68,7.84 10.56,7.25 8.45,6.65 7.38,6.49 6.31,6.32 5.20,5.63 4.09,4.93 2.06,4.31 0.03,3.70 -0.90,2.77 -1.85,1.85 -2.04,1.60 -2.24,1.35 -2.37,1.06 -2.50,0.78 -2.56,0.46 -2.61,0.15 -2.59,-0.15 -2.57,-0.47 -2.48,-0.77 -2.39,-1.07 -2.22,-1.34 -2.06,-1.61 -1.84,-1.84 -1.61,-2.06 -1.34,-2.22 -1.07,-2.39 -0.77,-2.48 -0.47,-2.57 -0.15,-2.59 0.15,-2.61 0.46,-2.56 0.78,-2.50 1.06,-2.37 1.35,-2.24 1.60,-2.04 1.85,-1.85 1.85,-1.85 L 1.85,-1.85 Z"></path></g><g transform="translate(435.52104705855254 126.36681019474136) rotate(0 4.5 5.5)" stroke="none"><path fill="#f08c00" d="M 2.02,-1.44 Q 2.02,-1.44 3.33,0.65 4.65,2.75 5.54,3.84 6.42,4.93 7.20,6.06 7.97,7.19 9.19,9.23 10.41,11.28 8.77,12.42 7.13,13.56 5.98,13.67 4.82,13.79 2.91,13.83 1.00,13.87 0.54,13.79 0.09,13.72 -0.31,13.50 -0.73,13.29 -1.05,12.95 -1.37,12.61 -1.56,12.19 -1.76,11.77 -1.81,11.31 -1.86,10.85 -1.76,10.39 -1.67,9.94 -1.43,9.54 -1.19,9.14 -0.84,8.84 -0.48,8.54 -0.05,8.37 0.37,8.19 0.83,8.17 1.30,8.14 1.75,8.26 2.19,8.39 2.58,8.65 2.96,8.90 3.25,9.27 3.53,9.64 3.68,10.08 3.83,10.52 3.83,10.99 3.83,11.45 3.68,11.89 3.54,12.33 3.26,12.70 2.98,13.07 2.59,13.34 2.21,13.60 1.76,13.72 1.31,13.85 0.85,13.82 0.39,13.80 -0.04,13.63 -0.47,13.46 -0.82,13.16 -1.18,12.86 -1.42,12.46 -1.66,12.07 -1.76,11.61 -1.86,11.16 -1.81,10.70 -1.76,10.23 -1.57,9.81 -1.38,9.39 -1.06,9.05 -0.74,8.71 -0.33,8.50 0.07,8.28 0.53,8.20 0.99,8.12 0.99,8.12 0.99,8.12 2.85,8.15 4.71,8.17 5.75,8.58 6.79,8.98 6.03,10.21 5.27,11.44 4.66,10.55 4.04,9.67 3.48,8.68 2.91,7.69 2.00,6.49 1.09,5.29 -0.46,3.37 -2.02,1.44 -2.16,1.18 -2.31,0.92 -2.39,0.63 -2.46,0.33 -2.47,0.03 -2.47,-0.26 -2.40,-0.55 -2.34,-0.84 -2.20,-1.11 -2.07,-1.38 -1.87,-1.60 -1.68,-1.83 -1.43,-2.01 -1.19,-2.18 -0.91,-2.29 -0.63,-2.40 -0.33,-2.44 -0.03,-2.48 0.25,-2.45 0.55,-2.42 0.83,-2.32 1.12,-2.22 1.37,-2.05 1.62,-1.89 1.82,-1.66 2.02,-1.44 2.02,-1.44 L 2.02,-1.44 Z"></path></g></svg>