<svg version="1.1" xmlns="http://www.w3.org/2000/svg" viewBox="0 0 705.362334667195 501.80026795644955" width="705.362334667195" height="501.80026795644955" class="excalidraw-svg"><!-- svg-source:excalidraw --><metadata></metadata><defs><style class="style-fonts">
      </style></defs><rect x="0" y="0" width="705.362334667195" height="501.80026795644955" fill="#ffffff"></rect><g stroke-linecap="round"><g transform="translate(10.807586143538344 429.06116637832775) rotate(0 341.87358119005916 -1.2434664405278824)"><path d="M-0.81 0.21 C113.4 -0.06, 570.31 -2.44, 684.55 -2.7 M0.97 -0.73 C115.07 -0.77, 569.71 -1.15, 683.52 -1.6" stroke="#1e1e1e" stroke-width="2" fill="none"></path></g><g transform="translate(10.807586143538344 429.06116637832775) rotate(0 341.87358119005916 -1.2434664405278824)"><path d="M660.05 7 C666.14 4.82, 670.05 2.92, 683.52 -1.6 M660.05 7 C667.47 4.02, 675.4 2.18, 683.52 -1.6" stroke="#1e1e1e" stroke-width="2" fill="none"></path></g><g transform="translate(10.807586143538344 429.06116637832775) rotate(0 341.87358119005916 -1.2434664405278824)"><path d="M660.01 -10.1 C665.96 -8.15, 669.88 -5.93, 683.52 -1.6 M660.01 -10.1 C667.35 -7.23, 675.29 -3.22, 683.52 -1.6" stroke="#1e1e1e" stroke-width="2" fill="none"></path></g></g><mask></mask><g stroke-linecap="round"><g transform="translate(314.91813680570357 490.7468764517893) rotate(0 0.09456446468724522 -239.84674247356455)"><path d="M-0.8 -1.02 C-0.8 -80.93, 0.23 -399.38, 0.54 -479.07 M0.99 1.05 C0.82 -79.21, -0.1 -400.39, -0.12 -480.75" stroke="#1e1e1e" stroke-width="2" fill="none"></path></g><g transform="translate(314.91813680570357 490.7468764517893) rotate(0 0.09456446468724522 -239.84674247356455)"><path d="M8.47 -457.27 C3.72 -464.56, 3.85 -471.84, -0.12 -480.75 M8.47 -457.27 C5.98 -465.26, 1.84 -474.29, -0.12 -480.75" stroke="#1e1e1e" stroke-width="2" fill="none"></path></g><g transform="translate(314.91813680570357 490.7468764517893) rotate(0 0.09456446468724522 -239.84674247356455)"><path d="M-8.63 -457.24 C-7.45 -464.43, -1.39 -471.72, -0.12 -480.75 M-8.63 -457.24 C-4.89 -465.14, -2.81 -474.18, -0.12 -480.75" stroke="#1e1e1e" stroke-width="2" fill="none"></path></g></g><mask></mask><g stroke-linecap="round"><g transform="translate(126.15986398091135 12.682623382462566) rotate(0 93.65710117699659 209.39622666592558)"><path d="M0.13 0.22 C1.44 13.13, 5.2 50.86, 7.41 76.34 C9.61 101.82, 11.06 128.32, 13.37 153.1 C15.68 177.89, 17.96 198.91, 21.27 225.04 C24.58 251.17, 29.31 282.7, 33.22 309.88 C37.13 337.07, 41.72 370.19, 44.73 388.17 C47.75 406.14, 49.65 416.89, 51.31 417.73 C52.98 418.57, 52.38 406.53, 54.72 393.22 C57.07 379.91, 59.74 360.67, 65.38 337.86 C71.02 315.05, 81.23 278.89, 88.57 256.39 C95.9 233.88, 100.67 221.87, 109.38 202.85 C118.09 183.82, 130.17 158.35, 140.82 142.23 C151.47 126.11, 165.32 114.8, 173.28 106.12 C181.24 97.43, 186.16 92.83, 188.58 90.12 M-1.26 -0.71 C-0.07 12.44, 4.06 51.61, 6.46 77.47 C8.86 103.34, 10.66 130.22, 13.14 154.48 C15.62 178.75, 18.2 197.15, 21.35 223.08 C24.5 249.01, 27.93 282.66, 32.03 310.07 C36.14 337.47, 42.6 369.3, 45.98 387.54 C49.37 405.77, 51.01 418.55, 52.34 419.46 C53.66 420.38, 52.04 406.88, 53.93 393.03 C55.83 379.19, 57.77 359.31, 63.71 336.38 C69.64 313.46, 81.95 277.59, 89.52 255.49 C97.1 233.39, 100.26 222.7, 109.15 203.78 C118.04 184.86, 132.18 158.35, 142.84 141.99 C153.51 125.63, 165.56 114.35, 173.15 105.63 C180.75 96.9, 185.91 92.43, 188.43 89.64" stroke="#1e1e1e" stroke-width="2" fill="none"></path></g></g><mask></mask><g stroke-linecap="round"><g transform="translate(316.7687081079074 290.2683187130394) rotate(0 85.00457804641131 -69.90628290177824)"><path d="M0.64 -0.08 C2.75 1.85, 8.55 6.71, 12.81 11.16 C17.08 15.61, 21.35 21.56, 26.25 26.6 C31.15 31.65, 36.53 33.87, 42.23 41.43 C47.93 49, 54.36 61.18, 60.44 72.02 C66.52 82.86, 73.24 95.26, 78.73 106.49 C84.22 117.72, 89.68 137.74, 93.38 139.41 C97.07 141.08, 97.39 127.77, 100.91 116.5 C104.43 105.23, 109.73 90.62, 114.49 71.78 C119.25 52.93, 124.81 26.01, 129.49 3.43 C134.18 -19.16, 138.83 -40.92, 142.6 -63.75 C146.36 -86.57, 149.22 -113.53, 152.09 -133.54 C154.95 -153.56, 157.24 -164.48, 159.8 -183.84 C162.36 -203.19, 165.67 -233.91, 167.44 -249.67 C169.2 -265.43, 169.85 -273.62, 170.4 -278.39 M-0.48 -1.17 C1.55 0.45, 7.58 5.09, 12.44 9.39 C17.3 13.69, 23.65 19.2, 28.68 24.62 C33.71 30.05, 37.02 34.05, 42.63 41.95 C48.23 49.84, 56.57 61.39, 62.3 72.01 C68.03 82.62, 72.26 94.59, 77.01 105.65 C81.76 116.72, 86.46 136.7, 90.8 138.39 C95.15 140.08, 99.34 126.55, 103.09 115.79 C106.85 105.04, 109.31 92.62, 113.34 73.85 C117.36 55.07, 122.39 26.44, 127.22 3.15 C132.05 -20.13, 137.88 -43.11, 142.32 -65.88 C146.76 -88.65, 151.02 -113.63, 153.86 -133.48 C156.71 -153.33, 157.24 -165.56, 159.4 -184.99 C161.57 -204.43, 165.03 -234.38, 166.88 -250.1 C168.72 -265.83, 169.68 -274.82, 170.49 -279.36" stroke="#1e1e1e" stroke-width="2" fill="none"></path></g></g><mask></mask><g stroke-linecap="round" transform="translate(310.60013710056126 99.6594745860433) rotate(0 4.626428255509637 4.009571154775003)"><path d="M5.16 0.04 C6.13 -0.02, 7.46 0.32, 8.1 0.91 C8.73 1.5, 8.95 2.73, 8.96 3.58 C8.97 4.42, 8.69 5.32, 8.15 5.98 C7.61 6.64, 6.64 7.23, 5.71 7.55 C4.79 7.88, 3.47 8.24, 2.61 7.91 C1.76 7.58, 0.98 6.44, 0.58 5.58 C0.18 4.71, -0.07 3.58, 0.19 2.72 C0.44 1.86, 1.27 0.84, 2.11 0.43 C2.96 0.01, 4.76 0.26, 5.24 0.23 C5.73 0.2, 5.04 0.21, 5.02 0.25 M4.3 -0.05 C5.24 -0.22, 6.84 -0.2, 7.55 0.24 C8.27 0.67, 8.36 1.66, 8.59 2.59 C8.83 3.52, 9.22 4.93, 8.95 5.83 C8.68 6.73, 7.9 7.62, 6.97 7.99 C6.03 8.35, 4.38 8.36, 3.34 8.01 C2.29 7.65, 1.33 6.58, 0.72 5.86 C0.12 5.15, -0.39 4.49, -0.3 3.72 C-0.21 2.95, 0.5 1.84, 1.27 1.26 C2.03 0.68, 3.86 0.45, 4.28 0.22 C4.71 -0.01, 3.9 -0.17, 3.82 -0.12" stroke="#1e1e1e" stroke-width="2" fill="none"></path></g></svg>