<svg version="1.1" xmlns="http://www.w3.org/2000/svg" viewBox="0 0 750.6978343486786 573.6325557097792" width="750.6978343486786" height="573.6325557097792" class="excalidraw-svg"><!-- svg-source:excalidraw --><metadata></metadata><defs><style class="style-fonts">
      </style></defs><rect x="0" y="0" width="750.6978343486786" height="573.6325557097792" fill="#ffffff"></rect><g stroke-linecap="round"><g transform="translate(10.924475036561489 374.9658686980605) rotate(0 364.4244421377778 0.06370842181071978)"><path d="M-0.92 0.27 C120.65 0.32, 607.91 0.79, 729.77 0.93 M0.79 -0.64 C122.21 -0.97, 607.52 -0.7, 729.06 -0.7" stroke="#1e1e1e" stroke-width="2" fill="none"></path></g><g transform="translate(10.924475036561489 374.9658686980605) rotate(0 364.4244421377778 0.06370842181071978)"><path d="M705.56 7.84 C713.68 5.95, 722.5 3.99, 729.06 -0.7 M705.56 7.84 C714.01 4.26, 723.77 1.29, 729.06 -0.7" stroke="#1e1e1e" stroke-width="2" fill="none"></path></g><g transform="translate(10.924475036561489 374.9658686980605) rotate(0 364.4244421377778 0.06370842181071978)"><path d="M705.57 -9.26 C713.77 -5.54, 722.59 -1.88, 729.06 -0.7 M705.57 -9.26 C714.07 -6.16, 723.83 -2.46, 729.06 -0.7" stroke="#1e1e1e" stroke-width="2" fill="none"></path></g></g><mask></mask><g stroke-linecap="round"><g transform="translate(272.257849059999 548.299242721498) rotate(0 0.15117248048075993 -268.65337939480787)"><path d="M-0.45 -1.06 C-0.46 -90.75, -0.23 -448.78, -0.17 -538.3 M1.51 0.99 C1.34 -88.49, -0.81 -447.26, -1.21 -536.92" stroke="#1e1e1e" stroke-width="2" fill="none"></path></g><g transform="translate(272.257849059999 548.299242721498) rotate(0 0.15117248048075993 -268.65337939480787)"><path d="M7.47 -513.47 C3.23 -520.56, 2 -527.17, -1.21 -536.92 M7.47 -513.47 C4.18 -520.96, 3.03 -526.98, -1.21 -536.92" stroke="#1e1e1e" stroke-width="2" fill="none"></path></g><g transform="translate(272.257849059999 548.299242721498) rotate(0 0.15117248048075993 -268.65337939480787)"><path d="M-9.63 -513.38 C-8.93 -520.43, -5.23 -527.07, -1.21 -536.92 M-9.63 -513.38 C-8.04 -520.84, -4.3 -526.88, -1.21 -536.92" stroke="#1e1e1e" stroke-width="2" fill="none"></path></g></g><mask></mask><g transform="translate(172.257849059999 563.6325557097792) rotate(0 227.66668701171875 -229.33334350585938)" stroke="none"><path fill="#1e1e1e" d="M -2.58,-2.34 Q -2.58,-2.34 -0.77,-4.55 1.03,-6.75 2.90,-9.03 4.77,-11.31 8.03,-14.81 11.29,-18.32 14.07,-21.09 16.84,-23.86 19.76,-26.68 22.68,-29.50 25.19,-32.21 27.70,-34.93 31.67,-38.25 35.64,-41.57 39.33,-45.14 43.02,-48.70 47.51,-53.10 52.00,-57.50 56.84,-61.90 61.68,-66.29 66.65,-70.46 71.61,-74.64 77.77,-79.48 83.93,-84.33 89.62,-88.69 95.30,-93.04 100.54,-97.52 105.77,-102.00 110.96,-105.89 116.16,-109.78 120.85,-113.15 125.54,-116.52 130.79,-120.25 136.04,-123.98 141.17,-127.49 146.29,-131.00 151.29,-134.75 156.29,-138.51 161.34,-142.06 166.39,-145.61 171.42,-149.03 176.44,-152.45 181.00,-155.97 185.56,-159.48 190.44,-162.94 195.32,-166.40 199.48,-169.39 203.64,-172.37 207.80,-176.06 211.96,-179.74 216.30,-183.28 220.64,-186.83 224.95,-190.43 229.26,-194.02 232.94,-197.59 236.62,-201.17 240.72,-205.03 244.82,-208.89 247.65,-211.84 250.47,-214.79 253.16,-218.08 255.85,-221.36 257.84,-224.19 259.83,-227.03 261.32,-229.43 262.81,-231.84 265.12,-234.43 267.44,-237.02 269.61,-239.92 271.79,-242.83 274.38,-245.92 276.98,-249.01 280.08,-252.38 283.18,-255.75 285.99,-259.19 288.79,-262.63 292.12,-266.95 295.44,-271.27 299.19,-276.01 302.94,-280.74 306.63,-285.59 310.33,-290.44 315.77,-297.15 321.22,-303.85 325.46,-308.81 329.71,-313.77 332.83,-317.57 335.95,-321.37 338.87,-324.44 341.79,-327.50 343.56,-329.96 345.32,-332.41 346.70,-334.76 348.08,-337.12 349.69,-339.33 351.31,-341.54 352.54,-343.63 353.78,-345.73 355.62,-348.05 357.46,-350.37 359.59,-352.70 361.73,-355.03 364.25,-357.39 366.78,-359.76 369.09,-362.15 371.40,-364.55 374.22,-367.52 377.03,-370.49 379.83,-373.49 382.63,-376.50 385.15,-379.20 387.67,-381.90 389.31,-384.15 390.94,-386.39 392.56,-388.71 394.17,-391.03 395.79,-393.38 397.40,-395.73 398.97,-397.59 400.54,-399.46 402.49,-402.36 404.45,-405.26 406.04,-407.51 407.64,-409.75 410.00,-413.05 412.36,-416.34 414.77,-418.73 417.18,-421.12 418.91,-423.18 420.64,-425.25 423.08,-427.99 425.53,-430.74 428.28,-433.40 431.03,-436.05 433.49,-438.45 435.95,-440.85 438.03,-443.27 440.11,-445.69 441.72,-447.77 443.33,-449.85 444.46,-451.91 445.59,-453.97 447.04,-455.98 448.48,-457.99 450.09,-460.47 451.70,-462.95 452.48,-463.41 453.26,-463.88 454.15,-464.07 455.04,-464.27 455.94,-464.17 456.84,-464.07 457.67,-463.68 458.49,-463.30 459.15,-462.68 459.80,-462.05 460.23,-461.25 460.65,-460.44 460.80,-459.55 460.94,-458.65 460.79,-457.75 460.64,-456.86 460.22,-456.06 459.79,-455.25 459.13,-454.63 458.47,-454.01 457.64,-453.63 456.82,-453.25 455.92,-453.15 455.01,-453.06 454.13,-453.25 453.24,-453.45 452.46,-453.92 451.68,-454.39 451.10,-455.08 450.51,-455.78 450.18,-456.62 449.84,-457.47 449.80,-458.37 449.75,-459.28 449.99,-460.16 450.24,-461.03 450.75,-461.78 451.26,-462.53 451.99,-463.08 452.71,-463.63 453.57,-463.92 454.43,-464.20 455.34,-464.20 456.25,-464.20 457.11,-463.91 457.97,-463.62 458.69,-463.06 459.41,-462.51 459.92,-461.76 460.43,-461.01 460.67,-460.13 460.91,-459.26 460.86,-458.35 460.81,-457.44 460.47,-456.60 460.13,-455.76 459.54,-455.07 458.95,-454.37 458.95,-454.38 458.95,-454.38 458.32,-453.75 457.69,-453.12 455.86,-450.88 454.02,-448.65 452.17,-446.36 450.32,-444.08 448.55,-442.06 446.78,-440.04 444.51,-437.33 442.24,-434.61 439.87,-432.15 437.50,-429.69 435.21,-427.22 432.92,-424.75 430.71,-421.75 428.51,-418.75 426.51,-416.30 424.51,-413.86 422.66,-411.95 420.81,-410.05 418.27,-406.96 415.72,-403.87 412.95,-400.19 410.17,-396.52 407.21,-393.62 404.25,-390.72 402.47,-388.43 400.69,-386.13 398.84,-383.84 396.99,-381.54 394.98,-379.23 392.97,-376.93 390.51,-374.33 388.06,-371.74 385.47,-368.60 382.88,-365.45 380.23,-362.08 377.58,-358.70 375.14,-356.09 372.71,-353.47 370.39,-351.26 368.07,-349.06 366.01,-346.94 363.96,-344.82 362.25,-342.99 360.55,-341.16 358.85,-338.91 357.16,-336.65 355.49,-334.93 353.82,-333.21 351.98,-330.83 350.13,-328.45 347.93,-326.08 345.73,-323.71 342.92,-320.84 340.11,-317.97 336.97,-314.11 333.83,-310.26 329.66,-305.33 325.48,-300.40 320.13,-293.74 314.78,-287.09 311.11,-282.16 307.43,-277.24 303.78,-272.49 300.13,-267.75 296.85,-263.30 293.58,-258.86 290.79,-255.19 287.99,-251.52 285.13,-248.09 282.26,-244.66 279.84,-241.66 277.42,-238.66 275.00,-235.37 272.58,-232.08 270.41,-230.00 268.24,-227.93 266.38,-225.68 264.52,-223.42 262.25,-220.71 259.98,-217.99 257.15,-214.53 254.32,-211.07 251.37,-208.06 248.42,-205.06 244.35,-201.23 240.28,-197.40 236.45,-193.69 232.62,-189.99 228.29,-186.37 223.96,-182.76 219.70,-179.28 215.43,-175.80 211.07,-171.95 206.71,-168.11 202.53,-165.11 198.36,-162.11 193.57,-158.71 188.77,-155.31 184.09,-151.71 179.41,-148.10 174.42,-144.70 169.42,-141.29 164.44,-137.79 159.46,-134.29 154.37,-130.46 149.28,-126.64 144.20,-123.15 139.12,-119.66 133.88,-115.93 128.65,-112.20 124.01,-108.86 119.36,-105.51 114.32,-101.71 109.27,-97.92 103.94,-93.33 98.61,-88.74 92.97,-84.38 87.34,-80.03 81.28,-75.20 75.22,-70.38 70.38,-66.23 65.54,-62.09 60.85,-57.72 56.16,-53.35 51.74,-48.86 47.33,-44.37 43.60,-40.55 39.86,-36.72 36.30,-33.49 32.73,-30.25 30.12,-27.46 27.52,-24.67 24.71,-21.75 21.91,-18.83 19.34,-16.21 16.76,-13.59 13.75,-9.83 10.74,-6.06 8.68,-3.87 6.62,-1.67 4.60,0.33 2.58,2.34 2.26,2.62 1.94,2.89 1.57,3.08 1.19,3.27 0.78,3.37 0.37,3.47 -0.04,3.46 -0.46,3.45 -0.87,3.35 -1.27,3.24 -1.64,3.04 -2.01,2.84 -2.33,2.56 -2.64,2.28 -2.87,1.93 -3.11,1.58 -3.25,1.18 -3.40,0.79 -3.44,0.37 -3.49,-0.04 -3.43,-0.46 -3.37,-0.87 -3.22,-1.27 -3.06,-1.66 -2.82,-2.00 -2.58,-2.34 -2.58,-2.34 L -2.58,-2.34 Z"></path></g><g transform="translate(250.9244750365615 333.63255570977924) rotate(0 1.000030517578125 13.33331298828125)" stroke="none"><path fill="#1e1e1e" d="M 4.38,2.92 Q 4.38,2.92 3.28,4.68 2.18,6.43 0.96,8.65 -0.24,10.87 -1.64,12.60 -3.05,14.33 -2.99,16.61 -2.94,18.90 -2.82,21.33 -2.69,23.77 -4.60,22.46 -6.50,21.16 -3.95,22.16 -1.41,23.17 -3.90,22.93 -6.40,22.69 -4.05,21.90 -1.69,21.12 -1.06,19.00 -0.42,16.89 0.64,14.51 1.71,12.13 3.66,10.19 5.62,8.25 4.13,9.84 2.64,11.43 3.39,9.29 4.14,7.16 3.96,4.82 3.77,2.49 2.63,1.85 1.48,1.21 1.03,0.07 0.58,-1.06 0.52,-2.29 0.46,-3.51 0.79,-4.69 1.12,-5.87 1.82,-6.89 2.51,-7.90 3.49,-8.64 4.47,-9.38 5.63,-9.77 6.80,-10.15 8.02,-10.15 9.25,-10.14 10.41,-9.75 11.58,-9.35 12.55,-8.60 13.52,-7.86 14.21,-6.84 14.89,-5.82 15.22,-4.64 15.54,-3.45 15.47,-2.23 15.40,-1.00 14.94,0.13 14.48,1.27 13.68,2.20 12.88,3.13 11.83,3.76 10.77,4.39 9.57,4.65 8.37,4.91 7.16,4.77 5.94,4.63 4.82,4.11 3.71,3.59 2.82,2.74 1.94,1.89 1.37,0.81 0.80,-0.27 0.60,-1.48 0.41,-2.69 0.61,-3.90 0.82,-5.11 1.40,-6.20 1.97,-7.28 2.87,-8.12 3.76,-8.96 4.88,-9.47 6.00,-9.98 7.22,-10.11 8.44,-10.24 9.64,-9.97 10.83,-9.70 11.88,-9.06 12.93,-8.42 13.72,-7.48 14.51,-6.55 14.51,-6.55 14.51,-6.55 16.16,-4.90 17.80,-3.25 18.35,-0.71 18.89,1.82 18.86,4.19 18.83,6.56 18.64,8.77 18.46,10.98 17.70,13.16 16.95,15.34 15.39,17.13 13.83,18.91 12.91,20.99 11.98,23.06 10.99,24.96 10.00,26.85 8.32,28.84 6.64,30.83 3.84,32.76 1.04,34.69 -1.46,35.38 -3.96,36.08 -6.10,35.39 -8.24,34.69 -10.96,33.22 -13.68,31.74 -14.87,28.86 -16.05,25.98 -15.94,23.40 -15.83,20.83 -15.64,18.38 -15.45,15.94 -14.79,13.53 -14.13,11.13 -11.94,7.91 -9.76,4.68 -8.27,2.57 -6.78,0.46 -5.58,-1.23 -4.38,-2.92 -3.97,-3.40 -3.56,-3.89 -3.04,-4.26 -2.52,-4.62 -1.93,-4.86 -1.34,-5.09 -0.71,-5.18 -0.08,-5.27 0.54,-5.20 1.17,-5.14 1.77,-4.92 2.37,-4.70 2.90,-4.35 3.43,-4.00 3.86,-3.53 4.29,-3.06 4.59,-2.50 4.90,-1.94 5.06,-1.33 5.22,-0.71 5.23,-0.08 5.24,0.55 5.10,1.17 4.96,1.79 4.67,2.35 4.38,2.92 4.38,2.92 L 4.38,2.92 Z"></path></g><g transform="translate(536.9244750365615 358.9658686980605) rotate(0 0 8)" stroke="none"><path fill="#1e1e1e" d="M 5.19,0 Q 5.19,0 5.27,1.53 5.36,3.06 5.55,5.73 5.75,8.40 5.90,12.20 6.06,16 5.90,16.96 5.75,17.93 5.29,18.80 4.83,19.67 4.11,20.34 3.40,21.02 2.51,21.43 1.62,21.84 0.64,21.95 -0.32,22.05 -1.28,21.84 -2.24,21.63 -3.08,21.13 -3.92,20.62 -4.56,19.87 -5.20,19.12 -5.56,18.21 -5.92,17.30 -5.97,16.32 -6.03,15.34 -5.77,14.39 -5.50,13.45 -4.95,12.63 -4.40,11.82 -3.62,11.23 -2.84,10.63 -1.91,10.32 -0.98,10.01 0.00,10.01 0.98,10.01 1.91,10.32 2.84,10.63 3.62,11.23 4.40,11.82 4.95,12.64 5.50,13.45 5.77,14.39 6.03,15.34 5.97,16.32 5.92,17.30 5.56,18.21 5.19,19.12 4.56,19.87 3.92,20.62 3.08,21.13 2.24,21.63 1.28,21.84 0.32,22.05 -0.64,21.95 -1.62,21.84 -2.51,21.43 -3.40,21.02 -4.11,20.34 -4.83,19.67 -5.29,18.80 -5.75,17.93 -5.90,16.96 -6.06,15.99 -6.06,15.99 -6.06,16 -5.90,12.20 -5.75,8.40 -5.55,5.73 -5.36,3.06 -5.27,1.53 -5.19,0 -5.11,-0.62 -5.04,-1.24 -4.81,-1.82 -4.59,-2.41 -4.24,-2.92 -3.88,-3.44 -3.41,-3.85 -2.94,-4.27 -2.39,-4.56 -1.84,-4.85 -1.23,-5.00 -0.62,-5.15 0.00,-5.15 0.62,-5.15 1.23,-5.00 1.84,-4.85 2.39,-4.56 2.94,-4.27 3.41,-3.85 3.88,-3.44 4.24,-2.92 4.59,-2.41 4.81,-1.82 5.04,-1.24 5.11,-0.62 5.19,0.00 5.19,0.00 L 5.19,0 Z"></path></g><g transform="translate(536.9244750365615 389.63255570977924) rotate(0 2.66668701171875 25.333343505859375)" stroke="none"><path fill="#1e1e1e" d="M 5.19,-0.37 Q 5.19,-0.37 5.39,2.31 5.58,4.99 6.12,7.95 6.66,10.91 6.87,13.47 7.09,16.03 7.87,18.28 8.64,20.53 9.41,22.64 10.18,24.74 10.35,27.24 10.53,29.74 10.92,31.90 11.31,34.06 11.75,36.29 12.20,38.53 12.26,40.83 12.33,43.14 12.40,46.90 12.46,50.66 12.28,51.80 12.09,52.94 11.55,53.96 11.01,54.98 10.17,55.77 9.33,56.57 8.28,57.05 7.24,57.54 6.09,57.66 4.94,57.79 3.81,57.54 2.69,57.29 1.70,56.70 0.71,56.10 -0.03,55.22 -0.78,54.34 -1.20,53.27 -1.63,52.19 -1.69,51.04 -1.76,49.89 -1.45,48.78 -1.14,47.66 -0.49,46.71 0.15,45.75 1.07,45.06 1.99,44.36 3.08,43.99 4.17,43.62 5.33,43.62 6.48,43.62 7.58,43.99 8.67,44.36 9.59,45.06 10.51,45.76 11.16,46.71 11.80,47.67 12.11,48.78 12.42,49.89 12.36,51.04 12.30,52.20 11.87,53.27 11.44,54.34 10.69,55.22 9.95,56.10 8.96,56.70 7.97,57.29 6.84,57.54 5.71,57.79 4.57,57.66 3.42,57.54 2.37,57.05 1.32,56.57 0.48,55.77 -0.34,54.98 -0.88,53.96 -1.42,52.94 -1.61,51.80 -1.80,50.66 -1.80,50.66 -1.80,50.66 -1.76,47.72 -1.72,44.77 -1.33,42.41 -0.94,40.04 -1.49,36.55 -2.05,33.06 -2.17,30.22 -2.30,27.38 -2.68,25.08 -3.05,22.78 -3.77,19.52 -4.48,16.27 -4.41,14.08 -4.34,11.89 -4.57,8.81 -4.81,5.73 -5.00,3.05 -5.19,0.37 -5.16,-0.25 -5.13,-0.88 -4.95,-1.48 -4.77,-2.08 -4.45,-2.62 -4.13,-3.16 -3.69,-3.61 -3.25,-4.06 -2.72,-4.39 -2.19,-4.73 -1.59,-4.92 -0.99,-5.11 -0.36,-5.16 0.25,-5.20 0.87,-5.09 1.49,-4.99 2.07,-4.74 2.64,-4.48 3.14,-4.10 3.64,-3.72 4.03,-3.23 4.43,-2.74 4.69,-2.17 4.95,-1.60 5.07,-0.98 5.19,-0.37 5.19,-0.37 L 5.19,-0.37 Z"></path></g><g transform="translate(298.9244750365615 489.63255570977924) rotate(0 8 0)" stroke="none"><path fill="#1e1e1e" d="M 0,-5.06 Q 0,-5.06 2.10,-5.13 4.21,-5.20 6.42,-5.39 8.63,-5.57 12.31,-5.77 16,-5.97 16.95,-5.82 17.90,-5.66 18.76,-5.21 19.61,-4.75 20.28,-4.05 20.94,-3.35 21.35,-2.47 21.76,-1.59 21.86,-0.63 21.96,0.32 21.76,1.26 21.55,2.21 21.05,3.04 20.55,3.87 19.81,4.49 19.08,5.12 18.18,5.48 17.28,5.83 16.31,5.89 15.35,5.94 14.42,5.68 13.48,5.42 12.68,4.88 11.88,4.33 11.30,3.56 10.71,2.79 10.40,1.88 10.10,0.96 10.10,-0.00 10.10,-0.96 10.40,-1.88 10.71,-2.80 11.30,-3.57 11.88,-4.34 12.69,-4.88 13.49,-5.42 14.42,-5.68 15.35,-5.94 16.32,-5.89 17.28,-5.83 18.18,-5.47 19.08,-5.12 19.82,-4.49 20.55,-3.86 21.05,-3.04 21.55,-2.21 21.76,-1.26 21.96,-0.32 21.86,0.63 21.75,1.60 21.35,2.47 20.94,3.35 20.28,4.05 19.61,4.76 18.76,5.21 17.90,5.66 16.95,5.82 15.99,5.97 15.99,5.97 16,5.97 12.31,5.77 8.63,5.57 6.42,5.39 4.21,5.20 2.10,5.13 0,5.06 -0.60,4.99 -1.21,4.91 -1.78,4.70 -2.35,4.48 -2.85,4.13 -3.35,3.79 -3.76,3.33 -4.16,2.87 -4.45,2.33 -4.73,1.79 -4.88,1.20 -5.02,0.61 -5.02,-0.00 -5.02,-0.61 -4.88,-1.20 -4.73,-1.79 -4.45,-2.33 -4.16,-2.87 -3.76,-3.33 -3.35,-3.79 -2.85,-4.13 -2.35,-4.48 -1.78,-4.70 -1.21,-4.91 -0.60,-4.99 0.00,-5.06 0.00,-5.06 L 0,-5.06 Z"></path></g><g transform="translate(336.257849059999 472.9658686980605) rotate(0 0 19.333343505859375)" stroke="none"><path fill="#1e1e1e" d="M 5.32,0 Q 5.32,0 5.36,2.3 5.39,4.6 5.54,7.11 5.68,9.62 5.85,12.73 6.02,15.83 6.11,18.11 6.20,20.39 6.26,23.02 6.32,25.64 6.42,27.78 6.51,29.91 6.62,32.04 6.72,34.17 6.76,36.41 6.80,38.66 6.63,39.75 6.45,40.84 5.93,41.81 5.42,42.78 4.62,43.54 3.82,44.30 2.82,44.76 1.82,45.22 0.72,45.34 -0.36,45.46 -1.44,45.22 -2.52,44.99 -3.46,44.42 -4.40,43.85 -5.12,43.01 -5.83,42.17 -6.24,41.15 -6.64,40.12 -6.70,39.02 -6.76,37.92 -6.47,36.86 -6.17,35.80 -5.56,34.89 -4.94,33.98 -4.06,33.31 -3.18,32.65 -2.14,32.29 -1.10,31.94 0.00,31.94 1.10,31.94 2.14,32.29 3.19,32.65 4.06,33.31 4.94,33.98 5.56,34.89 6.17,35.80 6.47,36.87 6.76,37.93 6.70,39.03 6.64,40.13 6.24,41.15 5.83,42.17 5.11,43.01 4.40,43.85 3.46,44.42 2.51,44.99 1.44,45.22 0.36,45.46 -0.72,45.34 -1.82,45.22 -2.82,44.76 -3.82,44.30 -4.62,43.54 -5.42,42.78 -5.93,41.81 -6.45,40.83 -6.63,39.75 -6.80,38.66 -6.80,38.66 -6.80,38.66 -6.76,36.41 -6.72,34.17 -6.62,32.04 -6.51,29.91 -6.42,27.78 -6.32,25.64 -6.26,23.02 -6.20,20.39 -6.11,18.11 -6.02,15.83 -5.85,12.73 -5.68,9.62 -5.54,7.11 -5.39,4.6 -5.36,2.3 -5.32,0 -5.25,-0.63 -5.17,-1.27 -4.94,-1.87 -4.71,-2.47 -4.35,-3.00 -3.98,-3.53 -3.50,-3.95 -3.02,-4.38 -2.45,-4.68 -1.88,-4.98 -1.26,-5.13 -0.64,-5.28 0.00,-5.28 0.64,-5.28 1.26,-5.13 1.88,-4.98 2.45,-4.68 3.02,-4.38 3.50,-3.95 3.98,-3.53 4.35,-3.00 4.71,-2.47 4.94,-1.87 5.17,-1.27 5.25,-0.63 5.32,0.00 5.32,0.00 L 5.32,0 Z"></path></g><g transform="translate(462.9244750365615 68.96586869806049) rotate(0 -1 -2)" stroke="none"><path fill="#1e1e1e" d="M -4.03,2.42 Q -4.03,2.42 -5.25,0.12 -6.47,-2.17 -6.64,-2.93 -6.81,-3.69 -6.74,-4.47 -6.66,-5.25 -6.34,-5.96 -6.01,-6.67 -5.48,-7.24 -4.95,-7.81 -4.26,-8.19 -3.57,-8.56 -2.80,-8.69 -2.03,-8.82 -1.26,-8.70 -0.49,-8.58 0.19,-8.22 0.89,-7.86 1.43,-7.30 1.97,-6.74 2.30,-6.03 2.64,-5.32 2.73,-4.55 2.82,-3.77 2.66,-3.01 2.49,-2.24 2.10,-1.57 1.70,-0.90 1.11,-0.39 0.52,0.11 -0.20,0.41 -0.92,0.70 -1.70,0.75 -2.48,0.80 -3.23,0.60 -3.99,0.39 -4.64,-0.03 -5.29,-0.46 -5.76,-1.08 -6.24,-1.70 -6.50,-2.44 -6.75,-3.18 -6.76,-3.96 -6.77,-4.74 -6.52,-5.48 -6.28,-6.22 -5.81,-6.85 -5.34,-7.47 -4.70,-7.92 -4.06,-8.36 -3.31,-8.58 -2.56,-8.79 -1.77,-8.75 -0.99,-8.72 -0.27,-8.44 0.45,-8.15 1.05,-7.65 1.65,-7.15 2.06,-6.48 2.47,-5.82 2.47,-5.82 2.47,-5.82 3.25,-4.12 4.03,-2.42 4.26,-1.90 4.49,-1.38 4.59,-0.82 4.69,-0.26 4.66,0.29 4.62,0.86 4.45,1.40 4.28,1.94 3.98,2.43 3.69,2.91 3.29,3.31 2.88,3.71 2.40,4.00 1.91,4.29 1.37,4.46 0.83,4.63 0.26,4.66 -0.30,4.69 -0.85,4.59 -1.41,4.48 -1.93,4.25 -2.44,4.01 -2.89,3.66 -3.33,3.31 -3.68,2.86 -4.03,2.42 -4.03,2.42 L -4.03,2.42 Z"></path></g><g transform="translate(464.9244750365615 66.96586869806049) rotate(0 -9 44.00001525878906)" stroke="none"><path fill="#1e1e1e" d="M -1.36,2.26 Q -1.36,2.26 -2.33,1.71 -3.29,1.15 -4.39,0.71 -5.48,0.27 -6.78,0.32 -8.08,0.37 -9.42,0.68 -10.76,0.99 -11.50,1.87 -12.24,2.75 -12.82,4.30 -13.40,5.85 -13.55,7.16 -13.70,8.46 -14.05,10.56 -14.39,12.66 -14.54,14.65 -14.68,16.65 -14.79,18.18 -14.89,19.70 -14.92,20.93 -14.96,22.16 -14.75,23.75 -14.55,25.34 -14.10,26.50 -13.65,27.65 -13.21,28.84 -12.76,30.03 -12.37,31.11 -11.97,32.18 -11.40,33.31 -10.82,34.44 -11.46,33.07 -12.09,31.69 -11.46,29.97 -10.82,28.26 -10.44,26.34 -10.07,24.42 -9.72,22.44 -9.37,20.45 -9.00,18.88 -8.62,17.32 -8.28,15.87 -7.94,14.43 -7.31,13.19 -6.68,11.95 -6.31,10.56 -5.94,9.17 -5.77,8.77 -5.59,8.37 -5.44,7.99 -5.30,7.61 -5.07,7.28 -4.84,6.95 -4.53,6.68 -4.23,6.42 -3.87,6.23 -3.51,6.04 -3.12,5.95 -2.73,5.85 -2.32,5.86 -1.92,5.86 -1.53,5.96 -1.13,6.06 -0.78,6.24 -0.42,6.43 -0.12,6.70 0.17,6.97 0.40,7.31 0.63,7.64 0.77,8.02 0.91,8.40 0.96,8.80 1.00,9.20 0.95,9.60 0.90,10.00 0.94,11.07 0.98,12.14 0.84,14.22 0.70,16.30 -0.05,20.24 -0.80,24.17 -1.37,26.53 -1.95,28.90 -2.14,30.58 -2.33,32.26 -2.35,33.55 -2.38,34.83 -2.37,36.13 -2.36,37.43 -2.82,39.36 -3.28,41.28 -3.41,42.66 -3.54,44.03 -3.79,45.52 -4.04,47.01 -4.14,48.43 -4.23,49.86 -4.32,51.62 -4.41,53.38 -4.40,54.71 -4.38,56.04 -4.34,57.18 -4.29,58.32 -4.20,60.21 -4.11,62.10 -4.02,63.53 -3.94,64.97 -3.87,66.51 -3.81,68.05 -3.83,69.38 -3.84,70.70 -3.82,72.82 -3.80,74.93 -3.79,76.01 -3.78,77.08 -3.78,79.31 -3.77,81.55 -3.73,83.21 -3.69,84.87 -3.64,86.09 -3.60,87.31 -3.84,88.36 -4.09,89.41 -5.83,91.28 -7.57,93.16 -9.05,92.89 -10.52,92.62 -11.85,91.07 -13.18,89.53 -13.99,88.11 -14.80,86.68 -15.27,85.23 -15.73,83.78 -16.36,81.26 -16.99,78.73 -17.64,76.90 -18.28,75.06 -18.96,73.38 -19.65,71.70 -19.97,70.07 -20.29,68.45 -20.72,66.98 -21.14,65.51 -21.20,64.22 -21.26,62.93 -21.15,61.08 -21.03,59.24 -20.49,58.21 -19.95,57.18 -18.49,55.79 -17.03,54.40 -16.70,53.95 -16.36,53.51 -15.90,53.20 -15.44,52.89 -14.91,52.74 -14.38,52.59 -13.82,52.61 -13.27,52.64 -12.75,52.85 -12.24,53.05 -11.81,53.41 -11.39,53.77 -11.10,54.24 -10.81,54.72 -10.69,55.26 -10.57,55.80 -10.63,56.35 -10.69,56.90 -10.92,57.41 -11.15,57.91 -11.53,58.32 -11.91,58.72 -12.40,58.98 -12.89,59.24 -13.44,59.33 -13.98,59.43 -14.53,59.34 -15.08,59.25 -15.57,58.99 -16.06,58.73 -16.45,58.33 -16.83,57.93 -17.06,57.43 -17.30,56.92 -17.36,56.37 -17.42,55.82 -17.30,55.28 -17.19,54.73 -16.90,54.26 -16.62,53.78 -16.19,53.42 -15.77,53.06 -15.26,52.85 -14.74,52.65 -14.19,52.62 -13.63,52.58 -13.10,52.73 -12.56,52.88 -12.10,53.19 -11.64,53.50 -11.31,53.94 -10.97,54.38 -10.79,54.91 -10.61,55.43 -10.61,55.99 -10.61,56.54 -10.78,57.07 -10.96,57.59 -10.96,57.59 -10.96,57.59 -12.96,59.15 -14.96,60.71 -14.83,61.78 -14.71,62.86 -14.82,63.95 -14.92,65.04 -14.53,66.82 -14.14,68.59 -13.78,69.99 -13.43,71.38 -12.75,73.28 -12.08,75.17 -11.72,76.29 -11.36,77.40 -11.01,78.69 -10.66,79.98 -10.15,81.79 -9.64,83.61 -8.58,85.29 -7.51,86.97 -8.62,87.10 -9.72,87.22 -9.68,86.04 -9.64,84.87 -9.59,83.21 -9.55,81.55 -9.55,79.31 -9.54,77.08 -9.53,76.01 -9.52,74.93 -9.50,72.82 -9.48,70.70 -9.47,68.51 -9.46,66.32 -9.38,64.95 -9.30,63.57 -9.20,61.99 -9.11,60.42 -9.05,59.35 -9.00,58.28 -8.94,57.13 -8.89,55.97 -8.83,54.62 -8.77,53.26 -8.76,51.40 -8.76,49.53 -8.63,47.85 -8.50,46.17 -8.23,44.85 -7.95,43.53 -7.74,41.92 -7.54,40.30 -7.20,38.80 -6.86,37.30 -6.79,35.94 -6.72,34.58 -6.58,33.21 -6.45,31.84 -6.28,29.99 -6.11,28.14 -5.83,25.80 -5.54,23.46 -5.18,19.93 -4.82,16.41 -5.04,14.47 -5.27,12.53 -5.43,10.45 -5.59,8.37 -5.44,7.99 -5.30,7.61 -5.07,7.28 -4.84,6.95 -4.53,6.68 -4.23,6.42 -3.87,6.23 -3.51,6.04 -3.12,5.95 -2.73,5.85 -2.32,5.86 -1.92,5.86 -1.53,5.96 -1.13,6.06 -0.78,6.24 -0.42,6.43 -0.12,6.70 0.17,6.97 0.40,7.31 0.63,7.64 0.77,8.02 0.91,8.40 0.96,8.80 1.00,9.20 0.95,9.60 0.90,10.00 0.34,11.01 -0.22,12.02 -0.73,13.69 -1.24,15.37 -1.63,16.39 -2.01,17.40 -2.39,18.86 -2.77,20.31 -3.24,21.81 -3.71,23.31 -4.05,25.35 -4.40,27.40 -4.93,29.84 -5.46,32.29 -5.94,33.63 -6.42,34.97 -6.71,36.00 -7.00,37.03 -7.88,38.24 -8.76,39.44 -10.58,39.83 -12.40,40.22 -13.88,39.36 -15.36,38.50 -15.82,37.33 -16.27,36.17 -16.69,35.08 -17.11,33.99 -17.46,32.93 -17.81,31.88 -18.22,30.75 -18.62,29.63 -19.26,28.04 -19.90,26.45 -20.46,24.30 -21.01,22.15 -21.03,20.90 -21.05,19.64 -21.10,16.99 -21.14,14.34 -21.06,12.51 -20.98,10.67 -20.80,9.60 -20.61,8.53 -20.32,7.12 -20.04,5.72 -19.64,4.28 -19.24,2.85 -18.86,1.54 -18.48,0.24 -17.60,-1.22 -16.72,-2.68 -15.82,-3.58 -14.93,-4.47 -13.89,-4.85 -12.84,-5.24 -11.51,-5.49 -10.17,-5.75 -9.09,-5.72 -8.00,-5.69 -6.92,-5.61 -5.85,-5.53 -4.73,-5.29 -3.62,-5.05 -2.07,-4.25 -0.53,-3.45 0.41,-2.86 1.36,-2.26 1.61,-2.07 1.86,-1.87 2.06,-1.62 2.25,-1.37 2.39,-1.08 2.52,-0.79 2.58,-0.48 2.64,-0.16 2.62,0.14 2.60,0.46 2.51,0.77 2.41,1.07 2.25,1.35 2.08,1.62 1.86,1.85 1.63,2.07 1.36,2.24 1.09,2.40 0.78,2.50 0.48,2.60 0.16,2.62 -0.15,2.64 -0.46,2.58 -0.77,2.52 -1.07,2.39 -1.36,2.26 -1.36,2.26 L -1.36,2.26 Z"></path></g><g transform="translate(480.257849059999 84.96586869806049) rotate(0 1.33331298828125 13.666671752929688)" stroke="none"><path fill="#1e1e1e" d="M 2.57,0 Q 2.57,0 2.47,1.91 2.36,3.83 2.38,5.22 2.39,6.61 2.49,8.38 2.59,10.15 2.67,11.29 2.75,12.43 2.82,13.73 2.89,15.02 2.94,16.35 2.99,17.68 3.04,18.82 3.08,19.96 3.71,21.87 4.34,23.78 5.03,24.97 5.72,26.16 5.83,26.68 5.94,27.19 5.87,27.72 5.81,28.25 5.58,28.72 5.35,29.20 4.98,29.58 4.61,29.96 4.14,30.21 3.67,30.45 3.14,30.53 2.62,30.60 2.10,30.51 1.57,30.42 1.11,30.16 0.64,29.91 0.28,29.52 -0.06,29.13 -0.28,28.65 -0.50,28.16 -0.55,27.64 -0.60,27.11 -0.48,26.59 -0.36,26.07 -0.08,25.62 0.19,25.17 0.60,24.84 1.01,24.50 1.51,24.31 2.00,24.12 2.53,24.10 3.06,24.08 3.57,24.22 4.08,24.37 4.51,24.68 4.95,24.98 5.26,25.41 5.58,25.83 5.74,26.34 5.90,26.84 5.89,27.37 5.89,27.90 5.71,28.40 5.54,28.90 5.21,29.32 4.88,29.74 4.44,30.03 4.00,30.32 3.48,30.46 2.97,30.59 2.44,30.55 1.91,30.52 1.42,30.32 0.93,30.11 0.54,29.76 0.14,29.42 -0.12,28.96 -0.39,28.50 -0.39,28.50 -0.39,28.50 -1.40,26.11 -2.41,23.71 -2.75,21.83 -3.08,19.96 -3.04,18.82 -2.99,17.68 -2.94,16.35 -2.89,15.02 -2.82,13.73 -2.75,12.43 -2.67,11.29 -2.59,10.15 -2.49,8.38 -2.39,6.61 -2.38,5.22 -2.36,3.83 -2.47,1.91 -2.57,0 -2.54,-0.30 -2.50,-0.61 -2.39,-0.90 -2.28,-1.19 -2.10,-1.45 -1.92,-1.70 -1.69,-1.91 -1.46,-2.12 -1.18,-2.26 -0.91,-2.41 -0.61,-2.48 -0.31,-2.55 0.00,-2.55 0.31,-2.55 0.61,-2.48 0.91,-2.41 1.18,-2.26 1.46,-2.12 1.69,-1.91 1.92,-1.70 2.10,-1.45 2.28,-1.19 2.39,-0.90 2.50,-0.61 2.54,-0.30 2.57,0.00 2.57,0.00 L 2.57,0 Z"></path></g><g transform="translate(491.59116204828024 88.96586869806049) rotate(0 9.333343505859375 13.666671752929688)" stroke="none"><path fill="#1e1e1e" d="M 1.19,-2.38 Q 1.19,-2.38 2.34,-1.81 3.49,-1.23 4.93,-0.32 6.38,0.57 7.40,1.74 8.43,2.90 8.88,3.97 9.32,5.04 10.12,6.34 10.92,7.63 11.63,8.94 12.34,10.26 13.25,11.80 14.16,13.35 14.92,14.77 15.68,16.20 16.15,17.35 16.62,18.49 17.40,19.67 18.18,20.86 18.82,21.74 19.46,22.62 20.09,23.61 20.73,24.61 21.11,25.01 21.49,25.41 21.72,25.91 21.95,26.41 22.01,26.96 22.07,27.51 21.96,28.05 21.84,28.59 21.55,29.06 21.27,29.54 20.85,29.90 20.43,30.25 19.91,30.46 19.40,30.66 18.85,30.70 18.30,30.73 17.76,30.58 17.23,30.43 16.77,30.12 16.31,29.81 15.98,29.37 15.64,28.93 15.47,28.41 15.29,27.88 15.29,27.33 15.29,26.78 15.47,26.26 15.64,25.73 15.98,25.29 16.31,24.85 16.77,24.54 17.22,24.23 17.76,24.08 18.29,23.93 18.84,23.96 19.39,23.99 19.91,24.19 20.42,24.40 20.84,24.76 21.26,25.11 21.55,25.59 21.83,26.06 21.95,26.60 22.07,27.14 22.01,27.69 21.96,28.24 21.72,28.74 21.49,29.24 21.11,29.64 20.73,30.05 20.24,30.31 19.76,30.57 19.21,30.66 18.66,30.75 18.12,30.66 17.57,30.57 17.08,30.31 16.60,30.05 16.60,30.05 16.60,30.05 15.04,28.05 13.49,26.04 13.06,25.03 12.63,24.01 11.62,22.55 10.62,21.09 9.95,19.44 9.29,17.78 8.57,16.42 7.86,15.06 7.26,14.10 6.67,13.14 6.06,11.90 5.46,10.65 4.80,9.45 4.14,8.24 3.50,6.61 2.86,4.97 1.98,4.25 1.10,3.53 -0.04,2.96 -1.19,2.38 -1.46,2.20 -1.72,2.03 -1.94,1.79 -2.16,1.55 -2.32,1.27 -2.47,0.99 -2.55,0.68 -2.64,0.37 -2.64,0.05 -2.65,-0.26 -2.58,-0.58 -2.51,-0.89 -2.36,-1.18 -2.22,-1.47 -2.01,-1.71 -1.80,-1.96 -1.54,-2.14 -1.28,-2.33 -0.98,-2.45 -0.68,-2.57 -0.37,-2.62 -0.05,-2.66 0.26,-2.63 0.58,-2.60 0.89,-2.49 1.19,-2.38 1.19,-2.38 L 1.19,-2.38 Z"></path></g><g transform="translate(508.257849059999 82.29921220391986) rotate(0 -5.33331298828125 12.333328247070312)" stroke="none"><path fill="#1e1e1e" d="M 2.24,1.28 Q 2.24,1.28 1.45,2.60 0.66,3.93 0.22,5.09 -0.22,6.26 -0.62,7.28 -1.01,8.29 -1.67,9.33 -2.33,10.37 -2.87,11.36 -3.42,12.35 -4.13,14.01 -4.85,15.67 -5.25,16.85 -5.65,18.03 -5.96,19.05 -6.26,20.08 -6.88,22.49 -7.50,24.89 -7.62,25.39 -7.74,25.89 -8.01,26.32 -8.28,26.76 -8.68,27.08 -9.08,27.41 -9.56,27.59 -10.04,27.77 -10.55,27.79 -11.06,27.81 -11.55,27.66 -12.04,27.51 -12.46,27.22 -12.88,26.92 -13.18,26.51 -13.49,26.10 -13.64,25.61 -13.80,25.12 -13.79,24.61 -13.78,24.09 -13.61,23.61 -13.43,23.13 -13.12,22.72 -12.80,22.32 -12.37,22.04 -11.94,21.76 -11.44,21.63 -10.95,21.51 -10.44,21.54 -9.92,21.58 -9.45,21.78 -8.98,21.98 -8.59,22.31 -8.21,22.65 -7.95,23.10 -7.70,23.54 -7.60,24.04 -7.49,24.55 -7.56,25.06 -7.62,25.56 -7.85,26.03 -8.07,26.49 -8.43,26.85 -8.79,27.22 -9.25,27.45 -9.70,27.68 -10.21,27.76 -10.72,27.83 -11.22,27.74 -11.73,27.65 -12.18,27.40 -12.62,27.15 -12.97,26.77 -13.32,26.39 -13.52,25.92 -13.73,25.45 -13.78,24.94 -13.82,24.43 -13.82,24.43 -13.82,24.43 -13.41,22.71 -13.00,20.98 -12.54,19.78 -12.07,18.58 -11.65,17.50 -11.22,16.41 -10.61,14.98 -10.00,13.55 -9.03,11.64 -8.07,9.72 -7.37,8.51 -6.68,7.29 -5.79,5.87 -4.91,4.44 -4.32,2.94 -3.72,1.43 -2.98,0.07 -2.24,-1.28 -2.05,-1.53 -1.87,-1.78 -1.63,-1.97 -1.38,-2.17 -1.10,-2.31 -0.82,-2.44 -0.52,-2.50 -0.21,-2.57 0.09,-2.56 0.40,-2.55 0.70,-2.46 1.00,-2.38 1.27,-2.22 1.54,-2.07 1.76,-1.85 1.99,-1.64 2.16,-1.37 2.32,-1.11 2.42,-0.82 2.52,-0.52 2.55,-0.21 2.58,0.09 2.53,0.40 2.48,0.70 2.36,0.99 2.24,1.28 2.24,1.28 L 2.24,1.28 Z"></path></g><g transform="translate(518.257849059999 74.96586869806049) rotate(0 3.33331298828125 19.333343505859375)" stroke="none"><path fill="#1e1e1e" d="M 1.85,-1.85 Q 1.85,-1.85 2.82,-0.86 3.80,0.12 4.63,1.86 5.46,3.61 6.37,5.59 7.27,7.57 7.90,9.29 8.54,11.01 8.95,12.16 9.37,13.31 9.52,14.59 9.67,15.87 9.73,17.21 9.78,18.54 9.83,20.18 9.89,21.81 9.93,23.44 9.97,25.07 9.72,26.84 9.48,28.62 9.14,29.81 8.81,31.01 8.37,32.43 7.94,33.86 7.17,34.83 6.40,35.80 6.26,37.01 6.12,38.22 3.91,40.11 1.71,41.99 1.15,42.07 0.59,42.15 0.04,42.05 -0.51,41.95 -1.00,41.67 -1.50,41.40 -1.88,40.98 -2.26,40.56 -2.49,40.05 -2.71,39.53 -2.76,38.97 -2.81,38.40 -2.68,37.85 -2.55,37.30 -2.25,36.82 -1.94,36.35 -1.51,35.99 -1.07,35.63 -0.54,35.43 -0.01,35.23 0.54,35.22 1.11,35.20 1.65,35.36 2.19,35.52 2.65,35.85 3.12,36.17 3.45,36.63 3.78,37.09 3.95,37.63 4.12,38.17 4.11,38.73 4.10,39.30 3.91,39.83 3.71,40.36 3.36,40.80 3.01,41.25 2.54,41.55 2.06,41.86 1.52,42.00 0.97,42.14 0.40,42.10 -0.15,42.06 -0.67,41.84 -1.19,41.62 -1.61,41.24 -2.04,40.87 -2.32,40.38 -2.60,39.89 -2.71,39.33 -2.82,38.78 -2.75,38.22 -2.68,37.66 -2.43,37.15 -2.18,36.64 -1.78,36.24 -1.39,35.84 -0.88,35.58 -0.38,35.33 -0.38,35.33 -0.38,35.33 -0.22,35.19 -0.06,35.05 0.26,34.01 0.59,32.98 1.31,31.96 2.04,30.95 2.42,29.50 2.81,28.05 3.08,26.56 3.36,25.07 3.40,23.44 3.44,21.82 3.49,20.20 3.54,18.59 3.56,17.36 3.59,16.14 3.58,15.06 3.58,13.97 3.26,12.61 2.95,11.24 2.28,9.46 1.61,7.68 0.82,5.69 0.03,3.71 -0.91,2.78 -1.85,1.85 -2.04,1.60 -2.24,1.35 -2.37,1.06 -2.50,0.77 -2.55,0.46 -2.61,0.15 -2.59,-0.15 -2.57,-0.47 -2.48,-0.77 -2.38,-1.07 -2.22,-1.34 -2.06,-1.61 -1.83,-1.83 -1.61,-2.06 -1.34,-2.22 -1.07,-2.38 -0.77,-2.48 -0.47,-2.57 -0.15,-2.59 0.15,-2.61 0.46,-2.55 0.77,-2.49 1.06,-2.37 1.35,-2.24 1.60,-2.04 1.85,-1.85 1.85,-1.85 L 1.85,-1.85 Z"></path></g><g transform="translate(400.9244750365615 395.63255570977924) rotate(0 8.333343505859375 13)" stroke="none"><path fill="#1e1e1e" d="M -2.27,-1.36 Q -2.27,-1.36 -1.72,-2.33 -1.16,-3.30 0.28,-4.75 1.72,-6.20 3.33,-5.86 4.93,-5.52 5.70,-4.63 6.48,-3.74 7.37,-2.37 8.26,-1.00 8.96,0.30 9.66,1.60 10.29,3.31 10.92,5.01 11.40,6.35 11.87,7.69 12.56,9.55 13.24,11.41 13.42,12.46 13.60,13.52 13.97,14.98 14.35,16.43 15.03,18.09 15.71,19.75 16.34,20.94 16.98,22.13 17.45,24.02 17.92,25.92 18.96,27.65 20.01,29.38 20.02,29.93 20.03,30.48 19.87,31.00 19.70,31.53 19.38,31.97 19.05,32.42 18.60,32.74 18.15,33.05 17.63,33.21 17.10,33.37 16.55,33.35 16.00,33.33 15.48,33.14 14.97,32.95 14.54,32.60 14.11,32.25 13.82,31.79 13.53,31.32 13.40,30.78 13.27,30.25 13.32,29.70 13.36,29.15 13.58,28.65 13.81,28.14 14.18,27.74 14.55,27.33 15.03,27.06 15.51,26.79 16.05,26.69 16.59,26.59 17.14,26.67 17.68,26.75 18.17,27.00 18.67,27.24 19.05,27.64 19.44,28.03 19.68,28.52 19.92,29.02 19.99,29.56 20.06,30.11 19.96,30.65 19.85,31.19 19.57,31.67 19.30,32.15 18.89,32.51 18.48,32.88 17.97,33.09 17.46,33.30 16.91,33.34 16.36,33.39 15.83,33.25 15.30,33.11 14.83,32.81 14.37,32.51 14.03,32.08 13.69,31.65 13.50,31.13 13.31,30.61 13.31,30.61 13.31,30.61 12.61,29.60 11.90,28.59 11.65,27.19 11.41,25.80 10.64,24.33 9.87,22.86 9.58,21.70 9.28,20.54 8.64,19.01 8.00,17.47 7.65,16.00 7.31,14.53 7.03,13.06 6.75,11.60 5.98,9.95 5.21,8.30 4.93,7.02 4.65,5.75 4.02,4.44 3.39,3.13 2.80,1.91 2.22,0.69 1.62,-0.39 1.01,-1.49 2.24,-1.01 3.46,-0.53 2.87,0.41 2.27,1.36 2.08,1.62 1.88,1.87 1.63,2.07 1.38,2.27 1.09,2.40 0.79,2.53 0.48,2.59 0.16,2.65 -0.15,2.63 -0.47,2.61 -0.77,2.52 -1.08,2.42 -1.35,2.26 -1.63,2.09 -1.85,1.87 -2.08,1.64 -2.25,1.37 -2.42,1.09 -2.51,0.79 -2.61,0.48 -2.63,0.16 -2.65,-0.15 -2.59,-0.46 -2.54,-0.78 -2.40,-1.07 -2.27,-1.36 -2.27,-1.36 L -2.27,-1.36 Z"></path></g><g transform="translate(417.59116204828024 396.9658686980605) rotate(0 -8.666656494140625 14)" stroke="none"><path fill="#1e1e1e" d="M 2.33,0.93 Q 2.33,0.93 1.44,2.79 0.54,4.66 0.05,5.90 -0.44,7.14 -1.04,8.46 -1.64,9.78 -2.09,11.21 -2.53,12.65 -3.19,13.86 -3.86,15.07 -4.82,16.46 -5.78,17.84 -6.74,18.89 -7.70,19.94 -9.29,21.99 -10.87,24.03 -11.91,25.45 -12.95,26.87 -13.61,28.11 -14.28,29.35 -14.57,29.80 -14.87,30.25 -15.29,30.58 -15.72,30.92 -16.23,31.10 -16.73,31.28 -17.27,31.29 -17.81,31.30 -18.33,31.13 -18.84,30.97 -19.28,30.65 -19.71,30.33 -20.02,29.89 -20.34,29.45 -20.49,28.93 -20.64,28.41 -20.62,27.87 -20.60,27.33 -20.41,26.83 -20.22,26.32 -19.87,25.90 -19.53,25.49 -19.07,25.20 -18.61,24.91 -18.09,24.79 -17.56,24.66 -17.03,24.71 -16.49,24.76 -15.99,24.98 -15.50,25.20 -15.10,25.57 -14.70,25.93 -14.44,26.41 -14.18,26.88 -14.09,27.41 -13.99,27.94 -14.07,28.48 -14.15,29.01 -14.39,29.49 -14.64,29.97 -15.02,30.35 -15.41,30.73 -15.90,30.96 -16.38,31.20 -16.92,31.26 -17.46,31.33 -17.98,31.22 -18.51,31.12 -18.98,30.84 -19.45,30.57 -19.80,30.17 -20.16,29.76 -20.37,29.26 -20.58,28.76 -20.61,28.23 -20.65,27.69 -20.52,27.16 -20.38,26.64 -20.38,26.64 -20.38,26.64 -18.81,24.31 -17.24,21.98 -15.95,20.72 -14.66,19.46 -13.76,18.00 -12.86,16.54 -11.85,15.59 -10.85,14.64 -9.72,13.56 -8.58,12.48 -7.91,11.55 -7.24,10.62 -6.57,9.20 -5.90,7.77 -5.29,6.54 -4.69,5.31 -4.15,4.15 -3.61,3.00 -2.97,1.03 -2.33,-0.93 -2.19,-1.20 -2.04,-1.46 -1.83,-1.68 -1.63,-1.91 -1.38,-2.08 -1.12,-2.24 -0.84,-2.35 -0.55,-2.45 -0.25,-2.48 0.04,-2.51 0.34,-2.47 0.64,-2.43 0.92,-2.31 1.20,-2.20 1.45,-2.02 1.70,-1.85 1.89,-1.62 2.09,-1.39 2.23,-1.12 2.36,-0.84 2.43,-0.55 2.50,-0.25 2.49,0.04 2.49,0.34 2.41,0.64 2.33,0.93 2.33,0.93 L 2.33,0.93 Z"></path></g><g transform="translate(425.59116204828024 420.9658686980605) rotate(0 7.666656494140625 7.3333740234375)" stroke="none"><path fill="#1e1e1e" d="M 2.63,0 Q 2.63,0 2.62,1.34 2.62,2.68 2.70,4.15 2.78,5.62 2.84,6.70 2.91,7.79 2.95,8.87 3.00,9.95 3.87,10.74 4.74,11.52 5.79,11.72 6.85,11.91 7.77,10.94 8.69,9.96 9.53,8.95 10.38,7.93 11.19,6.90 12.01,5.88 10.81,4.93 9.60,3.98 8.74,2.80 7.88,1.62 6.85,2.31 5.82,3.00 4.32,3.34 2.83,3.67 2.24,3.60 1.65,3.54 1.11,3.28 0.57,3.03 0.14,2.61 -0.28,2.20 -0.55,1.67 -0.83,1.14 -0.92,0.55 -1.01,-0.02 -0.91,-0.61 -0.81,-1.20 -0.52,-1.72 -0.24,-2.25 0.18,-2.65 0.62,-3.06 1.16,-3.31 1.71,-3.55 2.30,-3.61 2.89,-3.67 3.47,-3.54 4.05,-3.40 4.56,-3.09 5.07,-2.78 5.45,-2.32 5.83,-1.87 6.05,-1.31 6.26,-0.76 6.29,-0.16 6.32,0.42 6.15,1.00 5.99,1.57 5.65,2.06 5.31,2.55 4.84,2.91 4.36,3.26 3.79,3.45 3.23,3.63 2.63,3.63 2.04,3.62 1.47,3.43 0.91,3.23 0.44,2.87 -0.02,2.51 -0.35,2.01 -0.68,1.51 -0.84,0.94 -0.99,0.36 -0.96,-0.22 -0.92,-0.82 -0.69,-1.37 -0.47,-1.92 -0.08,-2.37 0.30,-2.82 0.81,-3.12 1.33,-3.43 1.91,-3.55 2.49,-3.67 2.49,-3.67 2.49,-3.67 4.85,-4.00 7.22,-4.32 8.51,-4.26 9.80,-4.20 10.89,-3.95 11.98,-3.71 12.94,-2.83 13.89,-1.95 14.68,-1.14 15.47,-0.34 16.13,0.59 16.79,1.52 17.43,2.47 18.08,3.43 18.44,5.22 18.79,7.02 18.20,8.56 17.60,10.10 16.64,11.04 15.67,11.97 14.93,13.39 14.19,14.82 12.71,16.39 11.23,17.96 10.15,18.35 9.06,18.73 7.92,18.73 6.79,18.73 5.55,18.67 4.31,18.60 2.58,18.05 0.86,17.50 -0.04,16.10 -0.95,14.71 -1.63,13.53 -2.31,12.34 -2.65,11.34 -3.00,10.33 -2.95,9.06 -2.91,7.79 -2.84,6.70 -2.78,5.62 -2.70,4.15 -2.62,2.68 -2.62,1.34 -2.63,0 -2.59,-0.31 -2.55,-0.62 -2.44,-0.92 -2.33,-1.22 -2.14,-1.48 -1.96,-1.74 -1.73,-1.95 -1.49,-2.16 -1.21,-2.31 -0.93,-2.46 -0.62,-2.53 -0.31,-2.61 0.00,-2.61 0.31,-2.61 0.62,-2.53 0.93,-2.46 1.21,-2.31 1.49,-2.16 1.73,-1.95 1.96,-1.74 2.15,-1.48 2.33,-1.22 2.44,-0.92 2.55,-0.62 2.59,-0.31 2.63,0.00 2.63,0.00 L 2.63,0 Z"></path></g></svg>