<svg version="1.1" xmlns="http://www.w3.org/2000/svg" viewBox="0 0 294.9047521676128 294.9047521676128" width="294.9047521676128" height="294.9047521676128" class="excalidraw-svg"><!-- svg-source:excalidraw --><metadata></metadata><defs><style class="style-fonts">
      </style></defs><rect x="0" y="0" width="294.9047521676128" height="294.9047521676128" fill="#ffffff"></rect><g stroke-linecap="round" transform="translate(10 10) rotate(0 137.4523760838064 137.4523760838064)"><path d="M201.54 16.78 C214.97 21.59, 226.91 33.27, 237.1 44.01 C247.3 54.75, 256.63 67.69, 262.7 81.24 C268.77 94.79, 272.25 110.61, 273.52 125.3 C274.8 140, 273.92 154.99, 270.35 169.41 C266.78 183.83, 259.96 199.14, 252.09 211.8 C244.22 224.45, 234.56 235.94, 223.14 245.32 C211.72 254.7, 197.74 263.15, 183.59 268.07 C169.44 272.99, 153.08 274.93, 138.25 274.82 C123.42 274.71, 108.71 272.23, 94.63 267.4 C80.55 262.58, 65.86 255.03, 53.79 245.89 C41.72 236.76, 30.39 224.76, 22.22 212.59 C14.06 200.43, 8.38 187.18, 4.82 172.92 C1.26 158.67, -0.21 142.12, 0.87 127.07 C1.96 112.02, 5.62 96.45, 11.31 82.64 C16.99 68.83, 25.16 54.99, 35 44.2 C44.84 33.4, 57.19 24.74, 70.35 17.87 C83.51 10.99, 99.27 5.48, 113.94 2.95 C128.62 0.42, 142.43 -0.33, 158.4 2.71 C174.37 5.75, 199.81 16.85, 209.75 21.21 C219.7 25.58, 219.02 27.12, 218.05 28.88 M189.21 9.4 C203.27 12.58, 215.41 23.88, 226.75 33.86 C238.1 43.85, 249.81 56.61, 257.3 69.32 C264.79 82.02, 268.82 95.72, 271.69 110.08 C274.55 124.43, 276.13 140.66, 274.49 155.44 C272.84 170.22, 268.65 185.32, 261.81 198.78 C254.98 212.25, 244.2 225.73, 233.48 236.21 C222.76 246.69, 210.59 255.12, 197.49 261.66 C184.39 268.2, 169.98 273.52, 154.89 275.45 C139.79 277.37, 121.61 276.76, 106.91 273.2 C92.2 269.63, 78.94 262.21, 66.67 254.07 C54.39 245.94, 42.8 235.48, 33.24 224.38 C23.68 213.28, 14.95 201.37, 9.32 187.48 C3.69 173.59, -0.15 156.17, -0.56 141.03 C-0.97 125.9, 2.42 110.83, 6.87 96.67 C11.32 82.51, 17.57 68.09, 26.12 56.08 C34.67 44.06, 45.81 33.04, 58.18 24.57 C70.56 16.1, 86.1 9.22, 100.39 5.24 C114.68 1.26, 129.33 -0.18, 143.93 0.67 C158.53 1.53, 180.53 8.49, 187.98 10.35 C195.44 12.2, 189.32 9.64, 188.65 11.8" stroke="#a5d8ff" stroke-width="2" fill="none"></path></g><g stroke-linecap="round"><g transform="translate(15.697190057847308 112.43454029041533) rotate(0.064822834165633 131.9191108209765 -16.133200390978672)"><path d="M0.4 -0.93 C0.95 -2.38, 0.81 -6.46, 3.81 -8.97 C6.81 -11.48, 11.48 -13.72, 18.38 -15.99 C25.29 -18.26, 33.83 -20.34, 45.25 -22.6 C56.68 -24.85, 73.22 -27.99, 86.94 -29.53 C100.65 -31.07, 114.47 -31.49, 127.55 -31.83 C140.63 -32.18, 151.69 -32.7, 165.42 -31.6 C179.15 -30.49, 197.34 -27.51, 209.96 -25.2 C222.57 -22.88, 233.04 -20.45, 241.12 -17.71 C249.2 -14.97, 254.71 -11.72, 258.43 -8.77 C262.15 -5.81, 262.45 -1.49, 263.44 0" stroke="#a5d8ff" stroke-width="2.5" fill="none" stroke-dasharray="8 10"></path></g></g><mask></mask><g stroke-linecap="round"><g transform="translate(15.161115307748219 146.18324276607382) rotate(180.3396083825934 132.04609626532172 -17.628577814696218)"><path d="M0.26 -0.9 C0.94 -2.45, 1.24 -7.08, 4.48 -10.19 C7.71 -13.3, 12.76 -16.72, 19.67 -19.54 C26.57 -22.37, 34.47 -24.9, 45.92 -27.17 C57.38 -29.43, 74.82 -31.75, 88.39 -33.14 C101.95 -34.54, 114.16 -35.38, 127.32 -35.52 C140.48 -35.66, 154.9 -34.95, 167.35 -33.97 C179.81 -32.99, 190.22 -31.93, 202.05 -29.65 C213.89 -27.36, 230.31 -22.65, 238.37 -20.27 C246.42 -17.89, 246.86 -17.16, 250.4 -15.38 C253.94 -13.59, 257.12 -11.81, 259.58 -9.57 C262.04 -7.32, 264.46 -3.06, 265.16 -1.9 M-1.07 1.24 C-0.62 -0.04, -0.6 -5.54, 3.28 -8.77 C7.15 -12, 15.03 -15.26, 22.18 -18.15 C29.32 -21.03, 35.33 -23.66, 46.13 -26.07 C56.94 -28.48, 73.29 -30.87, 87.02 -32.61 C100.75 -34.34, 115.05 -36.62, 128.51 -36.49 C141.98 -36.36, 155.16 -32.86, 167.81 -31.84 C180.45 -30.83, 192.37 -32.1, 204.36 -30.41 C216.36 -28.71, 232.02 -24.17, 239.78 -21.67 C247.55 -19.18, 247.55 -17.09, 250.95 -15.43 C254.34 -13.78, 257.94 -13.91, 260.15 -11.75 C262.37 -9.59, 263.65 -4.39, 264.26 -2.49" stroke="#a5d8ff" stroke-width="2" fill="none"></path></g></g><mask></mask><g stroke-linecap="round"><g transform="translate(14.691840383864928 183.06698585411496) rotate(0.064822834165633 131.8237135512507 -15.351163465479846)"><path d="M-0.15 0.79 C0.77 -0.53, 1.18 -6.19, 4.35 -8.82 C7.52 -11.46, 11.84 -12.65, 18.87 -15.03 C25.91 -17.4, 35.27 -20.76, 46.58 -23.07 C57.89 -25.37, 73.15 -27.51, 86.75 -28.85 C100.34 -30.19, 114.93 -30.76, 128.15 -31.09 C141.38 -31.43, 152.45 -31.9, 166.1 -30.86 C179.76 -29.81, 197.43 -27.29, 210.09 -24.83 C222.76 -22.36, 233.85 -18.82, 242.09 -16.08 C250.33 -13.33, 255.92 -10.99, 259.54 -8.37 C263.15 -5.75, 263.12 -1.56, 263.8 -0.37" stroke="#a5d8ff" stroke-width="2.5" fill="none" stroke-dasharray="8 10"></path></g></g><mask></mask><g stroke-linecap="round"><g transform="translate(14.155765633765782 216.81568832977345) rotate(180.3396083825934 132.24880613549252 -17.119933454589166)"><path d="M0.8 -0.75 C1.65 -2.42, 1.6 -6.02, 4.97 -9.23 C8.33 -12.44, 14.2 -17.14, 20.99 -20.02 C27.79 -22.89, 34.4 -24.43, 45.74 -26.49 C57.07 -28.55, 75.28 -31.02, 88.99 -32.4 C102.7 -33.78, 114.92 -34.58, 128 -34.78 C141.09 -34.98, 154.99 -34.73, 167.49 -33.6 C180 -32.47, 191.03 -30.3, 203.03 -28.01 C215.03 -25.73, 231.52 -21.92, 239.47 -19.87 C247.43 -17.83, 247.53 -17.23, 250.76 -15.75 C253.99 -14.26, 256.81 -13.48, 258.86 -10.97 C260.91 -8.46, 262.35 -2.17, 263.07 -0.68 M-0.24 1.47 C0.47 -0.61, 0.56 -7.57, 4.03 -10.96 C7.49 -14.35, 13.57 -15.91, 20.54 -18.87 C27.51 -21.82, 34.61 -25.98, 45.85 -28.7 C57.08 -31.41, 73.99 -34.02, 87.94 -35.14 C101.9 -36.25, 116.21 -35.4, 129.55 -35.36 C142.9 -35.33, 155.91 -36.18, 168.02 -34.94 C180.12 -33.7, 190.56 -30.23, 202.19 -27.92 C213.82 -25.61, 229.59 -23.06, 237.81 -21.07 C246.03 -19.08, 247.96 -17.8, 251.5 -16 C255.04 -14.19, 256.85 -12.8, 259.06 -10.24 C261.26 -7.68, 264.1 -1.81, 264.74 -0.63" stroke="#a5d8ff" stroke-width="2" fill="none"></path></g></g><mask></mask><g stroke-linecap="round"><g transform="translate(18.304389324599526 112.45237608380648) rotate(0 49.912241712585086 -14.580291805043817)"><path d="M-0.37 0.08 C16.15 -4.85, 83.49 -24.46, 100.2 -29.24" stroke="#e8590c" stroke-width="2.5" fill="none" stroke-dasharray="8 10"></path></g></g><mask></mask><g stroke-linecap="round"><g transform="translate(17.304389324599526 113.45237608380648) rotate(0 87.56813688538968 14.835594645515084)"><path d="M0.81 0.38 C29.74 5.19, 145.32 24.41, 174.33 29.29" stroke="#e8590c" stroke-width="2.5" fill="none" stroke-dasharray="8 10"></path></g></g><mask></mask><g stroke-linecap="round"><g transform="translate(188.30438932459953 143.45237608380648) rotate(0 43.90734260417521 -15.165153858438133)"><path d="M-0.04 0.63 C14.7 -4.41, 73 -25.85, 87.85 -30.96" stroke="#e8590c" stroke-width="2.5" fill="none" stroke-dasharray="8 10"></path></g></g><mask></mask><g stroke-linecap="round"><g transform="translate(111.30438932459953 83.45237608380648) rotate(0 83.93041645623744 14.132759037241343)"><path d="M0.56 1.14 C28.35 5.84, 139.21 23.08, 167.3 27.12" stroke="#e8590c" stroke-width="2.5" fill="none" stroke-dasharray="8 10"></path></g></g><mask></mask><g stroke-linecap="round"><g transform="translate(18.304389324599526 111.45237608380648) rotate(0 -0.1848889436572847 36.925800719484684)"><path d="M0.54 -0.11 C0.31 12.33, -0.44 61.46, -0.91 73.96" stroke="#e8590c" stroke-width="2.5" fill="none" stroke-dasharray="8 10"></path></g></g><mask></mask><g stroke-linecap="round"><g transform="translate(18.304389324599526 186.45237608380648) rotate(0 86.59068652726711 15.92935771010816)"><path d="M-0.81 0.08 C28.16 5.56, 145.05 26.34, 174 31.77" stroke="#e8590c" stroke-width="2.5" fill="none" stroke-dasharray="8 10"></path></g></g><mask></mask><g stroke-linecap="round"><g transform="translate(191.30438932459953 143.45237608380648) rotate(0 1.8337510135024786 37.59517277814447)"><path d="M0.67 0.02 C1.34 12.4, 2.55 62.66, 3 75.17" stroke="#e8590c" stroke-width="2.5" fill="none" stroke-dasharray="8 10"></path></g></g><mask></mask><g stroke-linecap="round"><g transform="translate(109.30438932459953 84.45237608380648) rotate(0 -0.011690927082433689 34.80899626351893)"><path d="M-0.07 0.49 C0.1 12.02, 0.08 57.98, -0.07 69.12" stroke="#e8590c" stroke-width="2.5" fill="none" stroke-dasharray="8 10"></path></g></g><mask></mask><g stroke-linecap="round"><g transform="translate(19.304389324599526 186.45237608380648) rotate(0 45.51832263730467 -17.047974666580558)"><path d="M0.51 -1 C15.53 -6.42, 75.63 -27.57, 90.53 -33.1" stroke="#e8590c" stroke-width="2.5" fill="none" stroke-dasharray="8 10"></path></g></g><mask></mask><g stroke-linecap="round"><g transform="translate(109.30438932459953 152.45237608380648) rotate(0 83.32634533904493 15.815861037746073)"><path d="M-0.57 0.75 C27.27 6.04, 139.12 26.1, 167.22 30.89" stroke="#1e1e1e" stroke-width="2.5" fill="none" stroke-dasharray="8 10"></path></g></g><mask></mask><g stroke-linecap="round"><g transform="translate(279.3043893245995 110.45237608380648) rotate(0 -0.8355263080447912 37.50958436988294)"><path d="M0.27 0.59 C-0.21 13.19, -1.44 61.97, -1.95 74.42" stroke="#1e1e1e" stroke-width="2.5" fill="none" stroke-dasharray="8 10"></path></g></g><mask></mask><g stroke-linecap="round"><g transform="translate(279.3043893245995 183.45237608380648) rotate(0 -41.81127819679678 16.090162422880532)"><path d="M-0.01 0.37 C-13.85 5.68, -69.46 26.56, -83.61 31.81" stroke="#1e1e1e" stroke-width="2.5" fill="none" stroke-dasharray="8 10"></path></g></g><mask></mask><g stroke-linecap="round"><g transform="translate(198.30438932459953 215.45237608380648) rotate(0 38.42521276809275 -51.3544713947922)"><path d="M-0.65 -0.47 C12.31 -17.4, 64.27 -85.44, 77.5 -102.24" stroke="#1e1e1e" stroke-width="2.5" fill="none" stroke-dasharray="8 10"></path></g></g><mask></mask><g stroke-linecap="round"><g transform="translate(108.30438932459953 155.45237608380648) rotate(0 83.59824321530759 -21.601753887161614)"><path d="M0.64 0.32 C28.44 -7.1, 138.81 -36.38, 166.56 -43.53" stroke="#1e1e1e" stroke-width="2.5" fill="none" stroke-dasharray="8 10"></path></g></g><mask></mask><g stroke-linecap="round"><g transform="translate(110.30438932459953 153.45237608380648) rotate(0 42.337153521552686 31.237638869509098)"><path d="M0.69 1.13 C14.63 11.16, 70.34 51.16, 83.98 61.35" stroke="#1e1e1e" stroke-width="2.5" fill="none" stroke-dasharray="8 10"></path></g></g><mask></mask></svg>