<svg version="1.1" xmlns="http://www.w3.org/2000/svg" viewBox="0 0 1234.382411955497 504.0444144343062" width="1234.382411955497" height="504.0444144343062" class="excalidraw-svg"><!-- svg-source:excalidraw --><metadata></metadata><defs><style class="style-fonts">
      </style></defs><rect x="0" y="0" width="1234.382411955497" height="504.0444144343062" fill="#ffffff"></rect><g stroke-linecap="round"><g transform="translate(13.492209150532176 275.28643809024385) rotate(0 605.042619586146 -2.4684281209818195)"><path d="M-0.8 -0.4 C200.59 -0.86, 1006.75 -2.06, 1208.64 -2.69 M0.97 -1.65 C202.73 -2.48, 1009.33 -4.25, 1210.89 -4.54" stroke="#1e1e1e" stroke-width="2" fill="none"></path></g><g transform="translate(13.492209150532176 275.28643809024385) rotate(0 605.042619586146 -2.4684281209818195)"><path d="M1187.41 4.06 C1194.27 -0.01, 1203.32 0.45, 1210.89 -4.54 M1187.41 4.06 C1192.55 3.29, 1198.08 0.28, 1210.89 -4.54" stroke="#1e1e1e" stroke-width="2" fill="none"></path></g><g transform="translate(13.492209150532176 275.28643809024385) rotate(0 605.042619586146 -2.4684281209818195)"><path d="M1187.38 -13.04 C1194.25 -11.63, 1203.32 -5.69, 1210.89 -4.54 M1187.38 -13.04 C1192.52 -10.06, 1198.06 -9.32, 1210.89 -4.54" stroke="#1e1e1e" stroke-width="2" fill="none"></path></g></g><mask></mask><g stroke-linecap="round"><g transform="translate(502.2199236479927 491.31050445454804) rotate(0 0.3239981048048364 -240.22501923975375)"><path d="M-0.55 -1.15 C-0.3 -81.15, 0.35 -399.73, 0.52 -479.53 M1.36 0.86 C1.5 -79.53, -0.38 -401.42, -0.72 -481.31" stroke="#1e1e1e" stroke-width="2" fill="none"></path></g><g transform="translate(502.2199236479927 491.31050445454804) rotate(0 0.3239981048048364 -240.22501923975375)"><path d="M7.95 -457.86 C4.07 -463.88, 5.19 -469.07, -0.72 -481.31 M7.95 -457.86 C6.25 -465.48, 3.4 -471.95, -0.72 -481.31" stroke="#1e1e1e" stroke-width="2" fill="none"></path></g><g transform="translate(502.2199236479927 491.31050445454804) rotate(0 0.3239981048048364 -240.22501923975375)"><path d="M-9.15 -457.78 C-9.34 -463.74, -4.53 -468.94, -0.72 -481.31 M-9.15 -457.78 C-5.39 -465.38, -2.77 -471.88, -0.72 -481.31" stroke="#1e1e1e" stroke-width="2" fill="none"></path></g></g><mask></mask><g stroke-linecap="round"><g transform="translate(11.353357008311264 306.29979415244594) rotate(0 600.5096661690227 -31.12771336839122)"><path d="M-1.08 -0.62 C2.74 -1.74, 14.88 -1.46, 23.6 -6.88 C32.31 -12.3, 41.39 -24.46, 51.22 -33.13 C61.05 -41.8, 74.28 -53.83, 82.6 -58.9 C90.92 -63.98, 95.46 -63.75, 101.16 -63.58 C106.86 -63.4, 109.36 -63.41, 116.8 -57.86 C124.23 -52.3, 135.68 -39.45, 145.75 -30.23 C155.83 -21.01, 168.78 -8.17, 177.23 -2.54 C185.69 3.09, 190.22 3.77, 196.49 3.57 C202.77 3.37, 206.49 2.01, 214.9 -3.74 C223.3 -9.5, 236.24 -21.86, 246.94 -30.96 C257.63 -40.07, 270.47 -53.3, 279.05 -58.37 C287.63 -63.43, 292.14 -62.11, 298.41 -61.35 C304.69 -60.6, 304.43 -63.63, 316.68 -53.85 C328.94 -44.07, 359.06 -12.36, 371.95 -2.65 C384.84 7.05, 387.15 4.18, 394.03 4.37 C400.92 4.56, 405.05 4.12, 413.25 -1.52 C421.45 -7.16, 432.4 -19.93, 443.24 -29.48 C454.07 -39.04, 470.43 -52.71, 478.26 -58.85 C486.09 -64.98, 485.3 -65.97, 490.24 -66.28 C495.18 -66.59, 499.84 -66.14, 507.92 -60.71 C516.01 -55.27, 528.42 -43.2, 538.75 -33.67 C549.09 -24.15, 561.23 -9.69, 569.91 -3.55 C578.59 2.59, 584.15 3.48, 590.85 3.17 C597.55 2.86, 601.37 0.72, 610.12 -5.41 C618.87 -11.53, 633.51 -24.61, 643.35 -33.59 C653.2 -42.56, 661.88 -53.88, 669.2 -59.25 C676.52 -64.63, 681.27 -65.94, 687.29 -65.83 C693.3 -65.72, 697.4 -64.04, 705.29 -58.58 C713.18 -53.12, 725.01 -41.95, 734.62 -33.06 C744.23 -24.18, 754.22 -10.73, 762.94 -5.24 C771.67 0.25, 778.98 0.82, 786.98 -0.11 C794.98 -1.03, 802.48 -5.43, 810.93 -10.79 C819.39 -16.15, 828.58 -24.4, 837.71 -32.26 C846.84 -40.13, 858.16 -52.86, 865.7 -57.98 C873.24 -63.1, 877.03 -63.26, 882.95 -62.97 C888.87 -62.68, 893.67 -61.02, 901.24 -56.23 C908.81 -51.45, 917.96 -43.35, 928.37 -34.26 C938.77 -25.17, 954.7 -8.28, 963.68 -1.71 C972.67 4.86, 975.71 5.56, 982.3 5.15 C988.89 4.74, 994.39 2.24, 1003.23 -4.16 C1012.07 -10.56, 1024.87 -23.51, 1035.33 -33.26 C1045.8 -43.01, 1058.75 -56.9, 1066.02 -62.65 C1073.29 -68.4, 1074.06 -68.03, 1078.98 -67.74 C1083.89 -67.46, 1087.49 -66.94, 1095.5 -60.93 C1103.5 -54.92, 1116.77 -40.88, 1127.01 -31.71 C1137.25 -22.54, 1147.81 -11.4, 1156.95 -5.92 C1166.09 -0.45, 1174.39 1.5, 1181.85 1.13 C1189.32 0.77, 1198.52 -6.52, 1201.73 -8.09 M0.55 1.67 C4.17 0.72, 14.39 0.07, 22.68 -5.58 C30.98 -11.24, 40.38 -23.56, 50.34 -32.27 C60.29 -40.98, 74.14 -52.7, 82.42 -57.84 C90.7 -62.98, 94.58 -62.93, 100.02 -63.11 C105.46 -63.29, 107.39 -64.15, 115.05 -58.92 C122.72 -53.69, 135.83 -41.12, 146 -31.73 C156.17 -22.33, 167.9 -8.25, 176.06 -2.53 C184.22 3.2, 188.34 2.86, 194.97 2.61 C201.59 2.37, 207.01 1.42, 215.81 -4.01 C224.61 -9.43, 236.95 -20.76, 247.77 -29.95 C258.58 -39.13, 272.17 -53.72, 280.7 -59.11 C289.24 -64.51, 293.13 -63.18, 298.99 -62.33 C304.85 -61.47, 303.58 -63.87, 315.87 -53.96 C328.16 -44.06, 360.05 -12.84, 372.73 -2.92 C385.42 7.01, 385.41 5.28, 391.98 5.58 C398.56 5.89, 403.32 4.64, 412.21 -1.1 C421.09 -6.84, 434.51 -18.77, 445.31 -28.87 C456.11 -38.98, 469.47 -55.24, 476.99 -61.7 C484.52 -68.17, 485.39 -68.18, 490.46 -67.66 C495.52 -67.15, 499.32 -64.6, 507.4 -58.6 C515.48 -52.6, 528.42 -40.73, 538.92 -31.64 C549.42 -22.54, 561.5 -9.66, 570.4 -4.03 C579.3 1.6, 585.41 2.26, 592.31 2.15 C599.22 2.04, 603.17 1.32, 611.83 -4.7 C620.49 -10.71, 635.01 -24.85, 644.28 -33.96 C653.55 -43.07, 660.57 -54.3, 667.43 -59.36 C674.28 -64.42, 679.05 -64.7, 685.4 -64.33 C691.76 -63.95, 697.64 -62.1, 705.56 -57.11 C713.48 -52.12, 723.39 -42.8, 732.93 -34.36 C742.47 -25.92, 753.82 -12.49, 762.8 -6.47 C771.78 -0.45, 779.1 2.04, 786.8 1.74 C794.51 1.45, 800.83 -2.75, 809.02 -8.24 C817.21 -13.73, 826.75 -22.76, 835.95 -31.19 C845.15 -39.61, 856.35 -53.19, 864.24 -58.78 C872.13 -64.37, 876.85 -64.91, 883.29 -64.72 C889.72 -64.53, 895.27 -62.54, 902.85 -57.63 C910.44 -52.72, 918.78 -44.74, 928.81 -35.28 C938.84 -25.82, 953.85 -7.63, 963.05 -0.89 C972.25 5.86, 977.28 5.7, 984 5.19 C990.72 4.69, 994.65 2.35, 1003.34 -3.94 C1012.04 -10.24, 1025.92 -22.73, 1036.18 -32.58 C1046.44 -42.42, 1057.8 -57.3, 1064.89 -63 C1071.99 -68.71, 1073.68 -67.15, 1078.74 -66.81 C1083.8 -66.48, 1087.39 -66.82, 1095.25 -61 C1103.11 -55.17, 1115.69 -40.92, 1125.89 -31.86 C1136.08 -22.8, 1147.12 -11.89, 1156.44 -6.65 C1165.76 -1.41, 1174.2 -0.02, 1181.81 -0.44 C1189.42 -0.87, 1198.71 -7.94, 1202.1 -9.21" stroke="#f08c00" stroke-width="2" fill="none"></path></g></g><mask></mask><g stroke-linecap="round"><g transform="translate(512.9141843590969 17.554754952633232) rotate(0 330.11149109808946 125.57631841143159)"><path d="M-1.16 1.03 C-0.67 13.31, -1.03 45.93, 2.24 74.09 C5.51 102.26, 11.42 147.07, 18.48 170.03 C25.53 192.98, 32.53 201.62, 44.55 211.84 C56.58 222.06, 72.5 226.5, 90.62 231.35 C108.74 236.2, 131.21 238.32, 153.27 240.95 C175.34 243.57, 191.77 245.63, 223 247.11 C254.22 248.58, 306.69 249.54, 340.6 249.81 C374.52 250.08, 373.03 248.59, 426.5 248.72 C479.96 248.86, 622.49 250.28, 661.38 250.63 M0.44 0.52 C1.34 12.91, 1.54 46.85, 4.44 75.23 C7.35 103.61, 11.17 147.91, 17.86 170.78 C24.56 193.64, 32.66 202.36, 44.61 212.44 C56.56 222.51, 71.8 226.69, 89.56 231.22 C107.33 235.76, 128.84 237.17, 151.21 239.65 C173.58 242.12, 191.88 244.43, 223.79 246.07 C255.69 247.71, 309.07 248.77, 342.65 249.51 C376.23 250.24, 372.54 250.38, 425.28 250.47 C478.01 250.57, 619.96 249.86, 659.07 250.09" stroke="#1971c2" stroke-width="2" fill="none"></path></g></g><mask></mask><g stroke-linecap="round"><g transform="translate(491.5256629368886 492.3799305256585) rotate(0 -240.67940894657 -105.93742060101114)"><path d="M0.17 -0.62 C-1.23 -12.7, -4.04 -50.63, -7.96 -73.38 C-11.89 -96.13, -18.14 -121.14, -23.39 -137.11 C-28.64 -153.09, -30.68 -160.83, -39.45 -169.23 C-48.21 -177.63, -62.95 -182.83, -76 -187.51 C-89.06 -192.18, -90.09 -194.06, -117.76 -197.28 C-145.44 -200.5, -207.12 -204.78, -242.05 -206.83 C-276.98 -208.88, -295.34 -208.71, -327.36 -209.56 C-359.37 -210.42, -408.44 -211.54, -434.14 -211.96 C-459.83 -212.37, -473.48 -211.94, -481.53 -212.05 M-1.2 1.66 C-2.83 -10.18, -5.87 -49.26, -9.16 -72.19 C-12.46 -95.12, -15.47 -119.9, -20.99 -135.92 C-26.5 -151.93, -32.9 -159.7, -42.23 -168.26 C-51.56 -176.83, -64.5 -182.25, -76.95 -187.3 C-89.41 -192.36, -89.63 -195.68, -116.98 -198.59 C-144.33 -201.49, -205.79 -202.95, -241.03 -204.74 C-276.28 -206.53, -296.07 -207.87, -328.44 -209.32 C-360.81 -210.77, -409.81 -212.99, -435.22 -213.45 C-460.63 -213.91, -473 -212.42, -480.91 -212.09" stroke="#1971c2" stroke-width="2" fill="none"></path></g></g><mask></mask></svg>