<svg version="1.1" xmlns="http://www.w3.org/2000/svg" viewBox="0 0 711.5780758756865 600.7196726268809" width="711.5780758756865" height="600.7196726268809" class="excalidraw-svg"><!-- svg-source:excalidraw --><metadata></metadata><defs><style class="style-fonts">
      </style></defs><rect x="0" y="0" width="711.5780758756865" height="600.7196726268809" fill="#ffffff"></rect><g stroke-linecap="round"><g transform="translate(10.667226113379002 390.55983742624517) rotate(0 345.12181182446426 0.09057057418988279)"><path d="M-0.67 0.33 C114.14 0.4, 573.42 1.1, 688.59 0.94 M1.18 -0.54 C116.41 -0.84, 576.09 -0.83, 690.91 -0.68" stroke="#1e1e1e" stroke-width="2" fill="none"></path></g><g transform="translate(10.667226113379002 390.55983742624517) rotate(0 345.12181182446426 0.09057057418988279)"><path d="M667.41 7.86 C674.43 4.38, 681.96 4.96, 690.91 -0.68 M667.41 7.86 C672.78 5.67, 679.69 3.52, 690.91 -0.68" stroke="#1e1e1e" stroke-width="2" fill="none"></path></g><g transform="translate(10.667226113379002 390.55983742624517) rotate(0 345.12181182446426 0.09057057418988279)"><path d="M667.42 -9.25 C674.51 -7.98, 682.04 -2.68, 690.91 -0.68 M667.42 -9.25 C672.91 -7.19, 679.81 -5.1, 690.91 -0.68" stroke="#1e1e1e" stroke-width="2" fill="none"></path></g></g><mask></mask><g stroke-linecap="round"><g transform="translate(130.667226113379 589.2265244379639) rotate(0 0.3929317483026864 -288.8666881245235)"><path d="M-0.52 -0.74 C-0.42 -97.4, -0.01 -482.97, 0.21 -579.23 M1.41 1.49 C1.41 -95.08, -0.47 -480.99, -0.62 -577.98" stroke="#1e1e1e" stroke-width="2" fill="none"></path></g><g transform="translate(130.667226113379 589.2265244379639) rotate(0 0.3929317483026864 -288.8666881245235)"><path d="M8.01 -554.52 C4.34 -560.45, 2.33 -565.68, -0.62 -577.98 M8.01 -554.52 C4.56 -562.34, 2.33 -570.29, -0.62 -577.98" stroke="#1e1e1e" stroke-width="2" fill="none"></path></g><g transform="translate(130.667226113379 589.2265244379639) rotate(0 0.3929317483026864 -288.8666881245235)"><path d="M-9.09 -554.46 C-8.21 -560.33, -5.66 -565.58, -0.62 -577.98 M-9.09 -554.46 C-6.87 -562.16, -3.45 -570.13, -0.62 -577.98" stroke="#1e1e1e" stroke-width="2" fill="none"></path></g></g><mask></mask><g transform="translate(154.0006001368165 24.559837426245167) rotate(0 197.00003051757812 172.66665649414062)" stroke="none"><path fill="#1e1e1e" d="M 4.53,-0.79 Q 4.53,-0.79 5.06,2.46 5.60,5.72 6.40,8.18 7.20,10.64 7.92,15.30 8.63,19.96 9.51,23.47 10.39,26.98 11.12,29.71 11.84,32.45 12.71,34.69 13.58,36.94 14.43,39.36 15.27,41.78 16.05,43.89 16.83,46.01 17.43,48.94 18.03,51.87 18.78,54.28 19.52,56.69 20.37,59.98 21.21,63.27 22.11,66.32 23.02,69.37 23.95,72.63 24.88,75.89 25.77,79.67 26.65,83.45 27.47,87.60 28.28,91.74 29.15,95.80 30.01,99.85 31.23,103.96 32.45,108.08 33.64,111.57 34.83,115.07 35.96,118.49 37.08,121.91 38.18,125.04 39.28,128.18 40.09,130.76 40.90,133.34 41.52,135.82 42.13,138.30 43.63,142.08 45.13,145.86 46.61,149.85 48.09,153.84 48.62,155.93 49.15,158.02 49.59,160.28 50.03,162.55 51.55,166.29 53.08,170.04 53.75,173.14 54.43,176.25 55.94,180.01 57.46,183.78 59.02,187.38 60.58,190.98 62.10,194.08 63.63,197.17 64.52,199.24 65.40,201.30 67.19,204.73 68.98,208.15 70.06,211.07 71.14,213.99 72.20,216.27 73.27,218.54 74.38,221.28 75.48,224.03 76.73,227.26 77.97,230.49 79.48,233.42 80.99,236.35 82.47,240.05 83.95,243.75 85.65,247.71 87.36,251.67 89.32,254.96 91.29,258.25 93.32,261.43 95.35,264.61 97.35,267.17 99.35,269.73 101.14,272.26 102.92,274.79 106.10,278.46 109.29,282.13 112.28,285.55 115.27,288.97 117.58,293.11 119.88,297.25 121.54,299.60 123.20,301.96 124.73,304.10 126.27,306.24 127.49,308.27 128.70,310.30 130.92,312.73 133.14,315.16 135.27,317.63 137.39,320.10 139.45,321.99 141.50,323.87 144.29,326.26 147.08,328.64 149.89,330.45 152.71,332.26 155.24,333.93 157.77,335.60 159.89,336.97 162.02,338.35 164.54,339.76 167.07,341.17 169.51,342.21 171.94,343.24 175.24,344.16 178.54,345.08 181.08,345.17 183.62,345.25 186.39,345.27 189.16,345.29 192.14,345.01 195.11,344.72 198.34,343.87 201.56,343.02 203.88,342.29 206.21,341.57 209.50,340.44 212.80,339.31 216.01,337.81 219.22,336.30 221.12,335.36 223.03,334.41 225.00,333.45 226.96,332.49 228.90,331.33 230.83,330.17 233.20,328.83 235.57,327.50 237.67,326.03 239.77,324.55 242.29,322.99 244.81,321.43 246.99,319.83 249.18,318.24 251.59,316.54 254.00,314.83 256.28,313.08 258.56,311.32 261.17,309.40 263.79,307.49 265.54,305.62 267.30,303.74 269.29,301.55 271.29,299.36 273.26,297.00 275.23,294.63 276.73,292.39 278.23,290.15 280.28,287.85 282.33,285.56 283.94,283.51 285.55,281.47 287.19,279.26 288.84,277.05 291.33,272.75 293.83,268.44 296.27,264.69 298.72,260.93 300.14,257.93 301.57,254.93 302.46,252.09 303.34,249.24 304.29,246.48 305.24,243.73 306.18,241.19 307.11,238.65 308.36,234.18 309.61,229.71 310.76,226.92 311.91,224.13 313.45,221.00 315.00,217.88 316.40,214.89 317.81,211.91 319.71,208.86 321.61,205.81 323.05,203.17 324.49,200.53 326.12,197.65 327.74,194.77 329.17,191.66 330.60,188.56 331.78,185.37 332.96,182.18 335.23,177.29 337.50,172.40 339.05,168.39 340.59,164.37 341.24,161.52 341.89,158.67 342.78,155.31 343.67,151.95 344.58,148.88 345.50,145.81 346.67,142.70 347.84,139.59 348.88,136.35 349.93,133.11 351.49,129.31 353.05,125.52 354.90,119.70 356.75,113.89 357.97,109.51 359.19,105.14 360.31,101.13 361.42,97.12 362.38,93.62 363.34,90.12 364.28,86.73 365.22,83.33 365.67,80.64 366.11,77.95 367.12,74.80 368.13,71.65 369.06,69.10 370.00,66.56 370.91,64.16 371.82,61.76 372.73,59.12 373.65,56.48 374.36,54.04 375.07,51.60 375.97,48.93 376.86,46.26 377.57,43.59 378.28,40.93 378.95,38.62 379.62,36.32 380.28,33.11 380.94,29.90 381.82,26.83 382.69,23.76 382.98,21.63 383.27,19.49 383.76,15.95 384.24,12.42 384.54,10.24 384.83,8.06 385.42,4.61 386.00,1.16 386.56,-1.83 387.12,-4.83 387.15,-5.83 387.18,-6.84 387.39,-7.92 387.59,-9.01 388.13,-9.97 388.68,-10.93 389.50,-11.67 390.32,-12.40 391.33,-12.84 392.34,-13.28 393.44,-13.37 394.54,-13.46 395.61,-13.19 396.68,-12.93 397.61,-12.33 398.54,-11.74 399.24,-10.88 399.93,-10.02 400.31,-8.99 400.69,-7.95 400.72,-6.85 400.75,-5.75 400.43,-4.69 400.11,-3.64 399.46,-2.74 398.82,-1.84 397.93,-1.20 397.03,-0.56 395.98,-0.23 394.92,0.08 393.82,0.06 392.72,0.03 391.68,-0.34 390.64,-0.72 389.78,-1.41 388.92,-2.10 388.33,-3.03 387.73,-3.96 387.47,-5.03 387.20,-6.10 387.29,-7.20 387.38,-8.30 387.81,-9.32 388.25,-10.33 388.98,-11.15 389.72,-11.97 390.68,-12.52 391.64,-13.06 392.72,-13.27 393.81,-13.48 394.90,-13.33 395.99,-13.18 396.98,-12.69 397.97,-12.20 398.75,-11.42 399.53,-10.64 400.02,-9.66 400.51,-8.67 400.66,-7.57 400.81,-6.48 400.81,-6.48 400.81,-6.48 399.96,-1.93 399.12,2.62 398.40,5.76 397.68,8.91 397.28,11.40 396.89,13.89 396.34,16.05 395.79,18.21 395.19,20.27 394.59,22.34 393.98,24.68 393.37,27.02 392.28,29.69 391.19,32.37 390.06,35.88 388.93,39.39 388.18,41.41 387.42,43.43 386.58,46.41 385.74,49.40 384.80,51.93 383.86,54.45 382.95,57.01 382.05,59.57 380.96,62.38 379.87,65.19 378.76,67.50 377.66,69.81 376.57,72.04 375.48,74.26 374.43,76.92 373.38,79.58 372.58,82.44 371.78,85.30 370.70,88.65 369.63,92.00 368.54,95.36 367.46,98.71 366.46,102.72 365.46,106.72 364.43,111.27 363.39,115.83 361.74,122.00 360.09,128.18 358.82,131.86 357.54,135.53 356.44,139.04 355.34,142.55 354.16,145.40 352.98,148.25 351.96,151.10 350.94,153.94 350.00,157.29 349.05,160.64 348.09,163.63 347.14,166.63 345.80,170.97 344.46,175.31 342.65,180.15 340.85,185.00 339.65,188.48 338.45,191.96 336.99,195.52 335.53,199.08 333.96,201.98 332.38,204.87 330.82,207.69 329.26,210.52 327.68,213.10 326.11,215.69 324.76,218.76 323.42,221.83 322.09,224.82 320.76,227.82 319.66,230.41 318.57,233.01 317.71,235.08 316.85,237.16 316.05,239.56 315.24,241.96 314.17,244.35 313.09,246.73 312.03,249.26 310.96,251.79 309.80,255.05 308.63,258.32 307.05,261.59 305.46,264.85 303.53,268.63 301.60,272.40 299.20,277.69 296.80,282.98 295.05,285.31 293.30,287.64 291.43,289.96 289.56,292.28 287.93,293.95 286.31,295.61 284.57,298.17 282.83,300.74 280.79,303.36 278.75,305.99 276.72,308.33 274.69,310.66 272.38,313.13 270.07,315.59 267.64,317.58 265.20,319.56 262.82,321.57 260.43,323.57 258.18,325.30 255.93,327.03 253.46,329.01 250.99,331.00 248.87,332.43 246.74,333.87 244.24,335.84 241.73,337.82 239.57,339.18 237.42,340.55 235.02,342.14 232.62,343.72 228.88,345.67 225.13,347.62 221.58,349.30 218.02,350.99 215.79,351.95 213.56,352.91 209.98,354.02 206.41,355.12 202.00,356.43 197.58,357.73 193.36,358.21 189.13,358.68 185.28,358.63 181.43,358.57 178.87,358.29 176.31,358.02 172.83,357.19 169.35,356.36 166.79,355.20 164.23,354.03 160.97,352.30 157.71,350.57 155.25,348.97 152.78,347.37 150.49,345.68 148.20,343.99 145.73,342.25 143.27,340.52 140.06,338.01 136.86,335.50 134.87,333.46 132.88,331.43 130.98,329.31 129.07,327.18 127.41,324.72 125.75,322.25 124.28,320.55 122.82,318.84 120.77,315.07 118.73,311.29 117.34,309.07 115.95,306.85 114.33,304.35 112.71,301.84 108.92,296.40 105.13,290.96 103.58,289.12 102.04,287.28 100.67,285.20 99.30,283.11 97.78,281.15 96.25,279.19 94.77,276.75 93.29,274.31 91.22,271.49 89.16,268.67 87.03,265.51 84.91,262.35 82.50,258.84 80.10,255.32 77.84,251.39 75.57,247.46 74.03,244.32 72.48,241.18 70.48,237.94 68.48,234.70 66.89,231.51 65.29,228.33 64.22,225.92 63.15,223.50 61.80,220.85 60.45,218.20 59.45,215.84 58.45,213.48 56.54,209.71 54.63,205.94 53.10,202.31 51.57,198.67 50.27,195.20 48.96,191.74 47.33,187.65 45.70,183.55 44.79,181.03 43.88,178.52 43.42,176.28 42.96,174.05 42.05,171.72 41.15,169.40 40.04,164.80 38.94,160.20 38.25,156.65 37.56,153.09 36.45,148.89 35.34,144.69 34.59,142.30 33.84,139.91 33.53,137.59 33.23,135.27 32.78,132.85 32.34,130.43 31.38,127.21 30.42,124.00 29.40,120.60 28.38,117.21 27.25,113.68 26.12,110.16 24.57,105.87 23.03,101.58 21.89,97.59 20.76,93.60 19.58,89.64 18.41,85.68 17.30,82.10 16.20,78.53 15.17,75.33 14.13,72.12 13.12,68.97 12.10,65.82 11.13,62.63 10.15,59.44 9.33,56.54 8.52,53.63 8.14,51.27 7.77,48.91 7.15,46.68 6.54,44.46 5.91,42.09 5.28,39.72 4.49,37.00 3.70,34.28 3.22,31.66 2.74,29.03 1.68,25.33 0.63,21.64 -0.49,17.46 -1.62,13.29 -2.46,10.30 -3.30,7.30 -3.91,4.05 -4.53,0.79 -4.56,0.24 -4.59,-0.30 -4.48,-0.85 -4.38,-1.39 -4.15,-1.90 -3.92,-2.40 -3.57,-2.84 -3.23,-3.27 -2.79,-3.61 -2.35,-3.95 -1.84,-4.17 -1.33,-4.40 -0.79,-4.49 -0.24,-4.59 0.30,-4.55 0.85,-4.52 1.38,-4.35 1.91,-4.18 2.38,-3.89 2.86,-3.60 3.25,-3.20 3.64,-2.81 3.92,-2.33 4.20,-1.86 4.37,-1.32 4.53,-0.79 4.53,-0.79 L 4.53,-0.79 Z"></path></g><g transform="translate(337.33391312509775 296.55983742624517) rotate(0 -1.66668701171875 109.33334350585938)" stroke="none"><path fill="#1e1e1e" d="M 5.23,0 Q 5.23,0 5.32,1.53 5.40,3.06 5.58,5.46 5.76,7.86 5.90,10.13 6.04,12.40 6.17,15.18 6.30,17.96 6.37,20.11 6.43,22.25 6.49,24.63 6.54,27.02 6.62,29.82 6.70,32.62 6.76,34.80 6.83,36.98 6.90,39.66 6.97,42.34 6.73,44.84 6.49,47.34 6.45,49.88 6.41,52.43 6.42,55.20 6.44,57.97 6.47,60.64 6.49,63.31 6.51,65.84 6.53,68.36 6.28,72.10 6.04,75.85 5.97,78.50 5.90,81.16 5.90,84.17 5.89,87.18 5.86,91.06 5.82,94.94 5.83,97.62 5.85,100.30 5.89,102.70 5.94,105.09 5.96,107.36 5.98,109.63 5.57,113.04 5.17,116.44 5.30,119.07 5.42,121.71 5.40,124.85 5.38,127.99 5.37,130.21 5.36,132.42 5.33,135.01 5.30,137.59 5.28,140.16 5.26,142.73 5.26,144.92 5.25,147.10 5.01,149.90 4.77,152.69 4.62,155.45 4.46,158.21 4.44,160.62 4.42,163.03 4.19,165.71 3.97,168.39 3.90,171.27 3.84,174.15 3.87,176.81 3.90,179.48 3.91,182.15 3.93,184.82 3.93,187.57 3.94,190.31 3.94,193.40 3.94,196.50 3.93,198.78 3.93,201.06 3.94,203.81 3.95,206.56 3.96,208.77 3.98,210.97 4.01,214.82 4.03,218.66 3.84,219.84 3.65,221.01 3.09,222.07 2.53,223.12 1.66,223.94 0.80,224.76 -0.27,225.26 -1.36,225.76 -2.54,225.89 -3.73,226.02 -4.89,225.76 -6.06,225.51 -7.08,224.89 -8.10,224.28 -8.87,223.37 -9.64,222.46 -10.08,221.35 -10.53,220.25 -10.59,219.05 -10.65,217.86 -10.34,216.72 -10.02,215.57 -9.35,214.58 -8.68,213.59 -7.73,212.87 -6.78,212.15 -5.65,211.77 -4.52,211.39 -3.33,211.39 -2.13,211.39 -1.01,211.77 0.11,212.15 1.06,212.87 2.01,213.59 2.68,214.58 3.35,215.57 3.67,216.72 3.99,217.87 3.92,219.06 3.86,220.25 3.42,221.36 2.98,222.46 2.20,223.37 1.43,224.28 0.41,224.89 -0.60,225.51 -1.77,225.76 -2.93,226.02 -4.12,225.89 -5.30,225.76 -6.38,225.26 -7.47,224.76 -8.33,223.94 -9.20,223.12 -9.75,222.07 -10.31,221.01 -10.51,219.84 -10.70,218.66 -10.70,218.66 -10.70,218.66 -10.67,214.82 -10.65,210.97 -10.63,208.77 -10.61,206.56 -10.60,203.81 -10.59,201.06 -10.60,198.78 -10.61,196.50 -10.61,193.40 -10.61,190.31 -10.60,187.57 -10.59,184.82 -10.58,182.15 -10.57,179.47 -10.52,176.76 -10.48,174.04 -10.39,171.35 -10.29,168.65 -10.01,165.80 -9.74,162.95 -9.71,160.47 -9.69,157.98 -9.73,155.58 -9.77,153.18 -9.51,150.14 -9.25,147.10 -9.26,144.92 -9.26,142.73 -9.28,140.16 -9.30,137.59 -9.33,135.01 -9.36,132.42 -9.37,130.21 -9.38,127.99 -9.40,125.70 -9.42,123.40 -9.41,121.26 -9.40,119.12 -9.28,116.62 -9.17,114.12 -8.91,111.88 -8.64,109.63 -8.63,107.36 -8.61,105.09 -8.56,102.70 -8.52,100.30 -8.50,97.62 -8.48,94.94 -8.53,91.67 -8.58,88.41 -8.56,85.75 -8.54,83.09 -8.51,80.89 -8.49,78.69 -8.31,75.92 -8.14,73.16 -8.00,70.76 -7.86,68.36 -7.84,65.83 -7.82,63.31 -7.80,60.63 -7.77,57.95 -7.73,55.09 -7.70,52.24 -7.62,49.51 -7.55,46.78 -7.26,44.56 -6.97,42.34 -6.90,39.66 -6.83,36.98 -6.76,34.80 -6.70,32.62 -6.62,29.82 -6.54,27.02 -6.49,24.63 -6.43,22.25 -6.37,20.11 -6.30,17.96 -6.17,15.18 -6.04,12.40 -5.90,10.13 -5.76,7.86 -5.58,5.46 -5.40,3.06 -5.32,1.53 -5.23,0 -5.16,-0.62 -5.08,-1.25 -4.86,-1.84 -4.63,-2.43 -4.27,-2.95 -3.92,-3.47 -3.44,-3.89 -2.97,-4.31 -2.41,-4.60 -1.85,-4.89 -1.24,-5.04 -0.63,-5.19 0.00,-5.19 0.63,-5.19 1.24,-5.04 1.85,-4.89 2.41,-4.60 2.97,-4.31 3.44,-3.89 3.92,-3.47 4.27,-2.95 4.63,-2.43 4.86,-1.84 5.08,-1.25 5.16,-0.62 5.23,0.00 5.23,0.00 L 5.23,0 Z"></path></g><g transform="translate(354.667226113379 397.8931504145264) rotate(0 9.666656494140625 14)" stroke="none"><path fill="#1e1e1e" d="M 1.46,-2.19 Q 1.46,-2.19 2.60,-1.41 3.75,-0.64 5.29,0.44 6.83,1.54 8.16,2.75 9.49,3.95 10.45,5.06 11.41,6.17 11.83,7.16 12.24,8.15 13.34,9.34 14.43,10.52 14.98,11.64 15.53,12.76 16.07,14.01 16.61,15.25 17.33,16.66 18.05,18.07 18.93,18.95 19.82,19.83 20.53,21.10 21.24,22.37 21.99,24.99 22.74,27.61 22.71,28.17 22.68,28.72 22.48,29.24 22.28,29.76 21.92,30.18 21.56,30.60 21.09,30.89 20.61,31.18 20.07,31.30 19.53,31.42 18.97,31.36 18.42,31.31 17.92,31.08 17.41,30.84 17.01,30.46 16.60,30.08 16.34,29.59 16.08,29.10 15.99,28.55 15.89,28.01 15.98,27.46 16.07,26.91 16.33,26.42 16.59,25.93 16.99,25.54 17.39,25.16 17.90,24.92 18.40,24.69 18.95,24.63 19.50,24.57 20.05,24.68 20.59,24.80 21.07,25.09 21.54,25.37 21.90,25.79 22.26,26.22 22.47,26.73 22.68,27.25 22.71,27.80 22.74,28.36 22.60,28.89 22.45,29.43 22.14,29.89 21.83,30.35 21.39,30.69 20.95,31.02 20.42,31.20 19.89,31.38 19.34,31.38 18.78,31.39 18.26,31.21 17.73,31.03 17.29,30.70 16.84,30.36 16.53,29.91 16.22,29.45 16.07,28.91 15.92,28.38 15.92,28.38 15.92,28.38 15.80,26.36 15.69,24.33 14.71,23.32 13.74,22.31 12.55,20.48 11.36,18.65 10.65,16.98 9.94,15.31 9.33,14.15 8.73,12.98 7.71,11.78 6.69,10.58 5.93,8.97 5.16,7.37 3.90,6.11 2.64,4.85 1.74,4.28 0.84,3.71 -0.30,2.95 -1.46,2.19 -1.70,1.98 -1.94,1.77 -2.12,1.52 -2.31,1.26 -2.43,0.96 -2.54,0.67 -2.59,0.35 -2.63,0.04 -2.60,-0.27 -2.56,-0.58 -2.46,-0.88 -2.35,-1.18 -2.17,-1.45 -1.99,-1.71 -1.76,-1.92 -1.53,-2.14 -1.25,-2.29 -0.97,-2.44 -0.66,-2.52 -0.35,-2.60 -0.04,-2.61 0.27,-2.62 0.58,-2.54 0.89,-2.47 1.17,-2.33 1.46,-2.19 1.46,-2.19 L 1.46,-2.19 Z"></path></g><g transform="translate(373.33391312509775 398.55983742624517) rotate(0 -7.66668701171875 12.666656494140625)" stroke="none"><path fill="#1e1e1e" d="M 2.37,1.18 Q 2.37,1.18 2.02,1.97 1.67,2.75 0.54,4.42 -0.58,6.08 -0.96,7.33 -1.35,8.58 -2.13,10.11 -2.90,11.64 -3.59,12.76 -4.27,13.88 -4.82,15.01 -5.36,16.14 -6.13,17.45 -6.90,18.76 -7.40,19.75 -7.89,20.75 -8.41,21.84 -8.92,22.94 -9.69,23.83 -10.47,24.73 -11.59,26.21 -12.71,27.68 -13.15,28.04 -13.60,28.40 -14.13,28.59 -14.67,28.79 -15.24,28.80 -15.81,28.82 -16.35,28.65 -16.90,28.48 -17.36,28.15 -17.82,27.82 -18.15,27.35 -18.49,26.89 -18.65,26.34 -18.82,25.80 -18.80,25.23 -18.79,24.66 -18.59,24.13 -18.39,23.59 -18.04,23.15 -17.68,22.70 -17.20,22.40 -16.72,22.09 -16.16,21.95 -15.61,21.82 -15.04,21.86 -14.47,21.91 -13.95,22.14 -13.43,22.36 -13.00,22.74 -12.58,23.12 -12.30,23.62 -12.02,24.12 -11.91,24.68 -11.81,25.24 -11.88,25.80 -11.96,26.37 -12.22,26.88 -12.47,27.39 -12.87,27.79 -13.28,28.19 -13.79,28.44 -14.30,28.70 -14.86,28.77 -15.43,28.85 -15.99,28.74 -16.55,28.63 -17.04,28.35 -17.54,28.07 -17.92,27.65 -18.30,27.22 -18.52,26.70 -18.75,26.17 -18.79,25.61 -18.84,25.04 -18.70,24.49 -18.56,23.93 -18.25,23.45 -17.95,22.97 -17.95,22.97 -17.95,22.97 -16.27,21.23 -14.59,19.49 -14.18,18.15 -13.77,16.82 -13.00,15.88 -12.24,14.94 -11.66,13.94 -11.08,12.94 -10.24,11.53 -9.40,10.13 -8.75,9.16 -8.10,8.20 -7.56,7.26 -7.01,6.32 -6.19,4.67 -5.37,3.02 -4.29,1.66 -3.20,0.30 -2.79,-0.44 -2.37,-1.18 -2.20,-1.45 -2.02,-1.72 -1.78,-1.94 -1.55,-2.15 -1.27,-2.31 -0.99,-2.46 -0.68,-2.55 -0.37,-2.63 -0.05,-2.63 0.26,-2.64 0.58,-2.57 0.89,-2.50 1.18,-2.36 1.46,-2.21 1.71,-2.01 1.95,-1.80 2.14,-1.54 2.33,-1.28 2.44,-0.98 2.56,-0.68 2.61,-0.36 2.65,-0.05 2.62,0.26 2.59,0.58 2.48,0.88 2.37,1.18 2.37,1.18 L 2.37,1.18 Z"></path></g><g transform="translate(386.00053910166025 420.55983742624517) rotate(0 1.000030517578125 16)" stroke="none"><path fill="#1e1e1e" d="M 2.42,1.04 Q 2.42,1.04 1.83,2.37 1.24,3.70 0.79,5.41 0.34,7.12 0.30,8.33 0.26,9.55 0.03,10.61 -0.20,11.67 -0.61,13.32 -1.03,14.98 -1.21,16.43 -1.40,17.89 -1.37,19.33 -1.34,20.76 -1.32,21.84 -1.31,22.92 -1.30,24.27 -1.29,25.62 -0.54,26.79 0.19,27.96 0.53,29.08 0.86,30.20 1.52,29.32 2.18,28.44 1.41,29.20 0.65,29.95 0.52,28.59 0.40,27.22 0.75,26.16 1.11,25.09 1.47,23.31 1.83,21.53 2.05,20.30 2.26,19.07 2.61,17.96 2.96,16.85 2.98,15.65 3.00,14.46 2.99,13.14 2.98,11.82 2.97,10.49 2.96,9.15 2.97,8.05 2.98,6.94 2.41,6.03 1.84,5.13 1.51,4.02 1.19,2.92 0.78,2.50 0.37,2.08 0.11,1.55 -0.13,1.03 -0.21,0.44 -0.28,-0.13 -0.17,-0.70 -0.05,-1.28 0.23,-1.78 0.53,-2.29 0.97,-2.68 1.41,-3.07 1.95,-3.29 2.49,-3.52 3.07,-3.56 3.66,-3.60 4.22,-3.46 4.79,-3.31 5.28,-2.99 5.77,-2.67 6.14,-2.21 6.50,-1.75 6.70,-1.20 6.89,-0.64 6.90,-0.06 6.91,0.52 6.74,1.08 6.56,1.64 6.21,2.11 5.87,2.58 5.39,2.92 4.91,3.26 4.34,3.42 3.78,3.59 3.20,3.57 2.61,3.55 2.06,3.34 1.51,3.13 1.06,2.76 0.61,2.39 0.30,1.89 -0.00,1.39 -0.14,0.82 -0.27,0.25 -0.22,-0.32 -0.17,-0.90 0.06,-1.44 0.30,-1.98 0.69,-2.41 1.09,-2.84 1.60,-3.12 2.11,-3.41 2.69,-3.51 3.27,-3.62 3.85,-3.53 4.43,-3.45 4.95,-3.18 5.47,-2.92 5.47,-2.92 5.47,-2.92 6.55,-1.05 7.63,0.81 8.71,2.69 9.79,4.56 10.07,5.70 10.34,6.85 10.35,8.00 10.36,9.15 10.35,10.49 10.34,11.82 10.32,13.17 10.31,14.53 10.26,15.74 10.21,16.95 9.95,18.23 9.69,19.51 9.29,20.62 8.89,21.72 8.55,23.38 8.21,25.03 7.87,26.37 7.53,27.71 7.42,28.93 7.31,30.16 6.89,31.32 6.47,32.47 5.75,33.25 5.03,34.04 3.25,34.79 1.48,35.54 0.36,35.49 -0.75,35.45 -2.13,35.07 -3.51,34.69 -4.74,32.92 -5.97,31.14 -6.75,29.54 -7.53,27.93 -7.78,26.81 -8.03,25.70 -8.02,24.31 -8.02,22.92 -7.99,21.45 -7.96,19.98 -7.93,18.88 -7.89,17.78 -7.82,16.68 -7.76,15.58 -7.00,13.95 -6.25,12.33 -6.03,11.21 -5.82,10.08 -5.53,8.60 -5.25,7.12 -4.73,5.52 -4.22,3.92 -3.88,2.79 -3.54,1.66 -2.98,0.31 -2.42,-1.04 -2.26,-1.31 -2.10,-1.59 -1.88,-1.82 -1.66,-2.04 -1.39,-2.21 -1.12,-2.38 -0.82,-2.48 -0.52,-2.58 -0.20,-2.61 0.11,-2.63 0.42,-2.58 0.74,-2.53 1.03,-2.40 1.32,-2.28 1.57,-2.09 1.83,-1.90 2.03,-1.65 2.23,-1.40 2.37,-1.11 2.50,-0.83 2.57,-0.51 2.63,-0.20 2.61,0.11 2.60,0.42 2.51,0.73 2.42,1.04 2.42,1.04 L 2.42,1.04 Z"></path></g><g transform="translate(551.3339131250978 381.2265244379639) rotate(0 0 7.33331298828125)" stroke="none"><path fill="#1e1e1e" d="M 2.65,0 Q 2.65,0 2.67,1.15 2.69,2.3 2.76,3.65 2.83,5.00 2.89,6.34 2.95,7.67 3.02,8.90 3.09,10.13 3.12,12.40 3.16,14.66 3.08,15.17 2.99,15.67 2.75,16.12 2.51,16.58 2.14,16.93 1.77,17.28 1.31,17.49 0.84,17.71 0.33,17.76 -0.17,17.82 -0.67,17.71 -1.17,17.60 -1.60,17.34 -2.04,17.07 -2.37,16.68 -2.71,16.29 -2.89,15.82 -3.08,15.34 -3.11,14.83 -3.14,14.32 -3.00,13.83 -2.87,13.33 -2.58,12.91 -2.29,12.49 -1.88,12.18 -1.48,11.87 -0.99,11.70 -0.51,11.54 0.00,11.54 0.51,11.54 0.99,11.70 1.48,11.87 1.88,12.18 2.29,12.49 2.58,12.91 2.87,13.33 3.00,13.83 3.14,14.32 3.11,14.83 3.08,15.34 2.89,15.82 2.71,16.29 2.37,16.68 2.04,17.07 1.60,17.34 1.17,17.60 0.67,17.71 0.17,17.82 -0.33,17.76 -0.84,17.71 -1.31,17.49 -1.77,17.28 -2.14,16.93 -2.51,16.58 -2.75,16.12 -2.99,15.67 -3.08,15.17 -3.16,14.66 -3.16,14.66 -3.16,14.66 -3.12,12.40 -3.09,10.13 -3.02,8.90 -2.95,7.67 -2.89,6.34 -2.83,5.00 -2.76,3.65 -2.69,2.3 -2.67,1.15 -2.65,0 -2.61,-0.31 -2.57,-0.63 -2.46,-0.93 -2.35,-1.23 -2.17,-1.49 -1.98,-1.76 -1.74,-1.97 -1.50,-2.18 -1.22,-2.33 -0.94,-2.48 -0.63,-2.56 -0.32,-2.63 0.00,-2.63 0.32,-2.63 0.63,-2.56 0.94,-2.48 1.22,-2.33 1.50,-2.18 1.74,-1.97 1.98,-1.76 2.17,-1.49 2.35,-1.23 2.46,-0.93 2.57,-0.63 2.61,-0.31 2.65,0.00 2.65,0.00 L 2.65,0 Z"></path></g><g transform="translate(552.0005391016603 417.8931504145264) rotate(0 1 18.66668701171875)" stroke="none"><path fill="#1e1e1e" d="M 2.51,-0.50 Q 2.51,-0.50 2.74,0.44 2.97,1.39 3.18,2.81 3.40,4.23 3.71,6.45 4.01,8.67 4.19,10.03 4.37,11.40 4.48,12.70 4.59,14.00 4.66,15.14 4.72,16.28 4.75,17.35 4.79,18.42 4.79,19.64 4.80,20.86 4.82,21.95 4.83,23.05 4.88,24.64 4.94,26.23 5.01,27.51 5.08,28.79 5.15,30.14 5.22,31.50 5.27,32.83 5.33,34.17 5.34,35.75 5.35,37.33 5.26,37.86 5.17,38.40 4.92,38.88 4.66,39.36 4.27,39.73 3.88,40.10 3.38,40.33 2.89,40.56 2.35,40.62 1.81,40.68 1.28,40.56 0.75,40.44 0.29,40.16 -0.17,39.88 -0.52,39.47 -0.87,39.06 -1.07,38.55 -1.27,38.05 -1.30,37.51 -1.33,36.97 -1.18,36.44 -1.04,35.92 -0.73,35.47 -0.43,35.02 -0.00,34.69 0.43,34.37 0.94,34.19 1.45,34.02 2.00,34.02 2.54,34.02 3.05,34.19 3.57,34.37 4.00,34.70 4.43,35.02 4.73,35.47 5.04,35.92 5.18,36.44 5.33,36.97 5.30,37.51 5.27,38.05 5.07,38.55 4.87,39.06 4.52,39.47 4.16,39.88 3.70,40.16 3.23,40.44 2.71,40.56 2.18,40.68 1.64,40.62 1.10,40.56 0.61,40.33 0.11,40.10 -0.27,39.73 -0.66,39.36 -0.92,38.88 -1.17,38.40 -1.26,37.86 -1.35,37.33 -1.35,37.33 -1.35,37.33 -1.34,35.75 -1.33,34.17 -1.27,32.83 -1.22,31.50 -1.15,30.15 -1.08,28.79 -1.01,27.51 -0.94,26.23 -0.89,24.65 -0.84,23.06 -0.83,21.98 -0.82,20.89 -0.83,19.70 -0.84,18.51 -0.86,16.48 -0.88,14.44 -0.96,13.34 -1.04,12.24 -1.39,9.62 -1.74,7.01 -1.97,4.72 -2.20,2.43 -2.35,1.46 -2.51,0.50 -2.53,0.19 -2.56,-0.11 -2.51,-0.41 -2.46,-0.72 -2.33,-1.00 -2.21,-1.29 -2.02,-1.53 -1.84,-1.78 -1.60,-1.97 -1.36,-2.17 -1.08,-2.30 -0.80,-2.43 -0.49,-2.49 -0.19,-2.55 0.11,-2.54 0.42,-2.52 0.71,-2.44 1.01,-2.35 1.28,-2.19 1.54,-2.04 1.77,-1.82 1.99,-1.61 2.15,-1.35 2.32,-1.08 2.41,-0.79 2.51,-0.50 2.51,-0.50 L 2.51,-0.50 Z"></path></g></svg>