<svg version="1.1" xmlns="http://www.w3.org/2000/svg" viewBox="0 0 664.4411868065173 471.96233540918877" width="664.4411868065173" height="471.96233540918877" class="excalidraw-svg"><!-- svg-source:excalidraw --><metadata></metadata><defs><style class="style-fonts">
      </style></defs><rect x="0" y="0" width="664.4411868065173" height="471.96233540918877" fill="#ffffff"></rect><g stroke-linecap="round"><g transform="translate(10.875907085463382 358.06226129290246) rotate(0 321.34468631779527 -0.40959141769807417)"><path d="M-0.88 -0.11 C106.56 -0.29, 536.12 -0.85, 643.57 -1.17 M0.87 -1.21 C108.25 -1.17, 535.6 0.39, 642.65 0.4" stroke="#1e1e1e" stroke-width="2" fill="none"></path></g><g transform="translate(10.875907085463382 358.06226129290246) rotate(0 321.34468631779527 -0.40959141769807417)"><path d="M619.14 8.9 C623.91 7.39, 629.13 5.97, 642.65 0.4 M619.14 8.9 C624.68 5.98, 629.37 4.15, 642.65 0.4" stroke="#1e1e1e" stroke-width="2" fill="none"></path></g><g transform="translate(10.875907085463382 358.06226129290246) rotate(0 321.34468631779527 -0.40959141769807417)"><path d="M619.18 -8.2 C623.92 -6.11, 629.14 -3.94, 642.65 0.4 M619.18 -8.2 C624.67 -7.18, 629.35 -5.06, 642.65 0.4" stroke="#1e1e1e" stroke-width="2" fill="none"></path></g></g><mask></mask><g stroke-linecap="round"><g transform="translate(294.62904798146144 462.2480797644352) rotate(0 -0.7251397276612721 -226.26691205984082)"><path d="M-0.6 -0.29 C-1 -75.3, -1.69 -375.21, -1.59 -450.45 M1.28 -1.48 C0.62 -76.82, -2.49 -377.36, -2.73 -452.25" stroke="#1e1e1e" stroke-width="2" fill="none"></path></g></g><mask></mask><g stroke-linecap="round"><g transform="translate(114.44886780128121 19.76478013827841) rotate(0 179.92608312358573 165.96680567519925)"><path d="M-0.27 0.22 C0.73 7.75, 3.81 29.04, 5.56 44.26 C7.31 59.48, 8.13 73.82, 10.23 91.52 C12.33 109.21, 15.38 131.41, 18.13 150.44 C20.89 169.48, 23.42 187.15, 26.78 205.74 C30.13 224.33, 34.94 243.93, 38.26 261.99 C41.59 280.05, 44.51 301.94, 46.73 314.11 C48.94 326.27, 49.64 333.44, 51.55 334.97 C53.46 336.5, 55.89 329.23, 58.18 323.28 C60.47 317.34, 61.82 310.78, 65.29 299.3 C68.77 287.82, 73.49 269.8, 79.03 254.41 C84.57 239.02, 91.03 223.23, 98.51 206.95 C105.99 190.66, 116.52 169.67, 123.92 156.71 C131.33 143.76, 136.48 137.81, 142.94 129.21 C149.4 120.6, 156.96 110.75, 162.68 105.08 C168.4 99.4, 172.32 95.19, 177.28 95.15 C182.24 95.11, 186.75 100.08, 192.43 104.83 C198.11 109.59, 204.72 115.79, 211.36 123.67 C218 131.56, 224.64 140.84, 232.28 152.12 C239.92 163.41, 249.72 176.54, 257.2 191.38 C264.68 206.22, 271.27 224.82, 277.15 241.17 C283.03 257.51, 287.78 273.4, 292.49 289.47 C297.19 305.55, 302.18 332.63, 305.39 337.63 C308.6 342.63, 309.27 329.62, 311.74 319.49 C314.2 309.35, 316.81 295.11, 320.19 276.82 C323.57 258.53, 328.63 231.54, 332.02 209.75 C335.41 187.96, 337.42 169.57, 340.53 146.07 C343.65 122.56, 347.53 94.22, 350.69 68.72 C353.85 43.21, 358.28 5.47, 359.51 -6.94 M1.78 -0.72 C2.72 7.01, 3.58 29.62, 4.95 45.23 C6.32 60.84, 7.74 75.3, 10.01 92.94 C12.28 110.58, 15.98 132.71, 18.57 151.06 C21.16 169.4, 22.54 184.63, 25.53 203.02 C28.51 221.42, 32.77 243.06, 36.48 261.44 C40.18 279.81, 44.92 301.13, 47.77 313.25 C50.62 325.37, 52.13 332.7, 53.58 334.16 C55.04 335.63, 54.94 327.98, 56.49 322.06 C58.04 316.14, 59.14 310.3, 62.89 298.64 C66.65 286.98, 73.22 267.52, 79.02 252.09 C84.81 236.67, 90.12 222.04, 97.66 206.1 C105.19 190.16, 116.72 169.19, 124.22 156.44 C131.71 143.69, 136.19 137.73, 142.63 129.61 C149.06 121.48, 157.42 113.26, 162.83 107.68 C168.23 102.11, 170.33 96.57, 175.06 96.17 C179.78 95.77, 185.35 100.65, 191.17 105.28 C197 109.92, 202.85 116.06, 210.03 123.98 C217.21 131.89, 226.81 141.77, 234.24 152.77 C241.66 163.78, 247.53 174.94, 254.57 190.01 C261.61 205.07, 270.08 226.79, 276.47 243.16 C282.85 259.53, 287.97 272.53, 292.86 288.23 C297.74 303.93, 302.39 331.79, 305.79 337.37 C309.19 342.96, 311.12 331.83, 313.26 321.72 C315.41 311.6, 315.9 295.41, 318.65 276.68 C321.4 257.95, 326.39 231.12, 329.76 209.35 C333.13 187.58, 335.19 169.76, 338.87 146.06 C342.55 122.36, 348.29 92.44, 351.83 67.13 C355.38 41.83, 358.85 6.54, 360.13 -5.79" stroke="#1e1e1e" stroke-width="2" fill="none"></path></g></g><mask></mask></svg>