<svg version="1.1" xmlns="http://www.w3.org/2000/svg" viewBox="0 0 578.041359647968 501.39758005491797" width="578.041359647968" height="501.39758005491797" class="excalidraw-svg"><!-- svg-source:excalidraw --><metadata></metadata><defs><style class="style-fonts">
      </style></defs><rect x="0" y="0" width="578.041359647968" height="501.39758005491797" fill="#ffffff"></rect><g stroke-linecap="round" transform="translate(12.071316428395193 302.6220399778661) rotate(0 48.0812903637577 11.91267258772416)"><path d="M26.04 1.19 C33.77 0.24, 47.44 0, 56.87 0.42 C66.31 0.83, 76.01 1.92, 82.64 3.66 C89.27 5.39, 95.45 8.6, 96.65 10.82 C97.85 13.03, 94.28 14.86, 89.85 16.96 C85.42 19.06, 78.44 22.24, 70.06 23.43 C61.67 24.61, 49.01 24.62, 39.55 24.07 C30.09 23.52, 19.72 21.88, 13.3 20.13 C6.88 18.38, 2.46 15.81, 1.03 13.57 C-0.4 11.33, 0.12 8.92, 4.73 6.68 C9.35 4.45, 24.55 0.94, 28.72 0.16 C32.9 -0.63, 29.62 1.66, 29.8 1.95 M46.73 0.64 C55.64 0.66, 67.34 2.46, 75.09 3.51 C82.84 4.56, 89.87 5.03, 93.23 6.93 C96.59 8.84, 97.75 12.49, 95.23 14.93 C92.72 17.37, 85.96 19.97, 78.13 21.58 C70.29 23.19, 57.85 24.48, 48.23 24.58 C38.61 24.67, 28.08 23.42, 20.41 22.14 C12.74 20.86, 5.03 19.16, 2.2 16.89 C-0.62 14.62, 0.67 10.93, 3.44 8.54 C6.21 6.15, 11.47 4.12, 18.83 2.55 C26.18 0.98, 42.93 -0.43, 47.58 -0.88 C52.23 -1.34, 46.7 -0.33, 46.74 -0.17" stroke="#1971c2" stroke-width="2" fill="none"></path></g><g stroke-linecap="round"><g transform="translate(109.6546896455014 314.5347126532789) rotate(0 -0.3625940727976058 49.2294864256117)"><path d="M0 0 C0.41 32.59, -2.78 68.15, 0 98.46 M0 0 C0.26 35.27, 0.81 67.92, 0 98.46" stroke="#1971c2" stroke-width="2" fill="none"></path></g></g><mask></mask><g stroke-linecap="round"><g transform="translate(12.38161392743524 312.91121701665566) rotate(0 -0.59580967819889 48.012938613704165)"><path d="M0 0 C-1.46 20.02, 1.1 40.62, -1.22 96.03 M0 0 C0.23 28.1, -1.24 58.46, -1.22 96.03" stroke="#e03131" stroke-width="2" fill="none"></path></g></g><mask></mask><g stroke-linecap="round"><g transform="translate(11.194584426436705 411.2730598135056) rotate(0.064822834165633 48.6358594847605 -5.9533929983797975)"><path d="M-0.03 0.58 C0.39 0.27, 0.43 -2.12, 1.6 -3 C2.78 -3.88, 4.34 -3.66, 7.04 -4.71 C9.73 -5.76, 13.66 -8.42, 17.76 -9.29 C21.87 -10.17, 26.58 -9.45, 31.67 -9.93 C36.75 -10.42, 43.2 -11.85, 48.27 -12.2 C53.34 -12.55, 57.14 -12.66, 62.1 -12.06 C67.06 -11.45, 73.42 -9.34, 78.03 -8.56 C82.64 -7.77, 86.63 -8.24, 89.76 -7.33 C92.89 -6.42, 95.61 -4.11, 96.81 -3.11 C98.01 -2.1, 96.58 -1.6, 96.95 -1.29" stroke="#1971c2" stroke-width="2.5" fill="none" stroke-dasharray="8 10"></path></g></g><mask></mask><g stroke-linecap="round"><g transform="translate(10.99549233801082 423.80694553801834) rotate(180.3396083825934 48.43480251945944 -7.35020521757076)"><path d="M0.28 0 C0.6 -0.52, 0.54 -1.19, 1.87 -2.55 C3.2 -3.91, 5.83 -7.08, 8.26 -8.16 C10.69 -9.25, 12.19 -8.3, 16.44 -9.06 C20.68 -9.81, 28.47 -11.94, 33.72 -12.69 C38.98 -13.43, 43.2 -13.66, 47.95 -13.51 C52.7 -13.37, 57.66 -12.11, 62.21 -11.81 C66.76 -11.52, 70.73 -12.5, 75.25 -11.76 C79.78 -11.03, 86.55 -8.17, 89.36 -7.38 C92.17 -6.58, 90.79 -7.42, 92.11 -7 C93.43 -6.57, 96.33 -5.88, 97.29 -4.82 C98.24 -3.76, 97.76 -1.35, 97.85 -0.64 M-1.03 -1.05 C-0.86 -1.93, -0.54 -3.03, 0.94 -4.07 C2.42 -5.11, 5.29 -6.12, 7.86 -7.29 C10.42 -8.45, 12.19 -10.21, 16.34 -11.07 C20.49 -11.93, 27.83 -11.84, 32.77 -12.44 C37.7 -13.05, 40.96 -14.63, 45.97 -14.7 C50.98 -14.76, 58.11 -13.76, 62.82 -12.81 C67.52 -11.86, 70.04 -9.68, 74.22 -9 C78.4 -8.31, 84.89 -9.47, 87.91 -8.69 C90.93 -7.91, 91.24 -5.05, 92.34 -4.32 C93.44 -3.59, 93.84 -4.86, 94.51 -4.33 C95.17 -3.79, 95.73 -1.58, 96.3 -1.09" stroke="#1971c2" stroke-width="2" fill="none"></path></g></g><mask></mask><g transform="translate(60.73650944663535 312.87883210215085) rotate(0 0.00002793819074042858 0.000027938190754639436)" stroke="none"><path fill="#1e1e1e" d="M 3.14,-3.14 Q 3.14,-3.14 3.55,-2.55 3.97,-1.97 4.18,-1.28 4.40,-0.59 4.38,0.11 4.36,0.83 4.11,1.51 3.86,2.18 3.41,2.74 2.96,3.30 2.36,3.69 1.75,4.07 1.05,4.25 0.36,4.42 -0.35,4.36 -1.07,4.30 -1.73,4.02 -2.39,3.74 -2.92,3.26 -3.46,2.78 -3.81,2.15 -4.16,1.53 -4.30,0.82 -4.43,0.11 -4.34,-0.59 -4.24,-1.30 -3.92,-1.94 -3.60,-2.59 -3.09,-3.09 -2.59,-3.60 -1.94,-3.92 -1.30,-4.24 -0.59,-4.34 0.12,-4.43 0.82,-4.30 1.53,-4.16 2.15,-3.81 2.78,-3.46 3.26,-2.92 3.74,-2.39 4.02,-1.73 4.31,-1.07 4.36,-0.35 4.42,0.36 4.25,1.05 4.07,1.75 3.69,2.36 3.30,2.96 2.74,3.41 2.18,3.86 1.51,4.11 0.83,4.36 0.11,4.38 -0.60,4.40 -1.28,4.18 -1.97,3.97 -2.55,3.55 -3.14,3.13 -3.14,3.14 -3.14,3.14 -3.47,2.71 -3.80,2.29 -4.02,1.80 -4.24,1.32 -4.33,0.79 -4.43,0.26 -4.40,-0.26 -4.36,-0.80 -4.20,-1.31 -4.04,-1.82 -3.77,-2.28 -3.49,-2.73 -3.11,-3.11 -2.73,-3.49 -2.28,-3.77 -1.82,-4.05 -1.31,-4.20 -0.80,-4.36 -0.26,-4.40 0.26,-4.43 0.79,-4.33 1.32,-4.24 1.80,-4.02 2.29,-3.80 2.71,-3.47 3.14,-3.14 3.14,-3.14 L 3.14,-3.14 Z"></path></g><g transform="translate(61.854037076338244 407.8686806268977) rotate(0 0.00002793819074042858 0.000027938190754639436)" stroke="none"><path fill="#1e1e1e" d="M 3.14,-3.14 Q 3.14,-3.14 3.55,-2.55 3.97,-1.97 4.18,-1.28 4.40,-0.59 4.38,0.11 4.36,0.83 4.11,1.51 3.86,2.18 3.41,2.74 2.96,3.30 2.36,3.69 1.75,4.07 1.05,4.25 0.36,4.42 -0.35,4.36 -1.07,4.30 -1.73,4.02 -2.39,3.74 -2.92,3.26 -3.46,2.78 -3.81,2.15 -4.16,1.53 -4.30,0.82 -4.43,0.11 -4.34,-0.59 -4.24,-1.30 -3.92,-1.94 -3.60,-2.59 -3.09,-3.09 -2.59,-3.60 -1.94,-3.92 -1.30,-4.24 -0.59,-4.34 0.12,-4.43 0.82,-4.30 1.53,-4.16 2.15,-3.81 2.78,-3.46 3.26,-2.92 3.74,-2.39 4.02,-1.73 4.31,-1.07 4.36,-0.35 4.42,0.36 4.25,1.05 4.07,1.75 3.69,2.36 3.30,2.96 2.74,3.41 2.18,3.86 1.51,4.11 0.83,4.36 0.11,4.38 -0.60,4.40 -1.28,4.18 -1.97,3.97 -2.55,3.55 -3.14,3.13 -3.14,3.14 -3.14,3.14 -3.47,2.71 -3.80,2.29 -4.02,1.80 -4.24,1.32 -4.33,0.79 -4.43,0.26 -4.40,-0.26 -4.36,-0.80 -4.20,-1.31 -4.04,-1.82 -3.77,-2.28 -3.49,-2.73 -3.11,-3.11 -2.73,-3.49 -2.28,-3.77 -1.82,-4.05 -1.31,-4.20 -0.80,-4.36 -0.26,-4.40 0.26,-4.43 0.79,-4.33 1.32,-4.24 1.80,-4.02 2.29,-3.80 2.71,-3.47 3.14,-3.14 3.14,-3.14 L 3.14,-3.14 Z"></path></g><g stroke-linecap="round"><g transform="translate(60.73650944663535 311.761304472448) rotate(0 0.28056405883970115 55.184109036977986)"><path d="M0.31 -0.28 C0.32 18.15, 0.25 92.12, 0.25 110.65" stroke="#343a40" stroke-width="2.5" fill="none" stroke-dasharray="8 10"></path></g></g><mask></mask><g stroke-linecap="round"><g transform="translate(61.29527326148681 312.3200682872995) rotate(0 -0.35005224742828034 -28.296907484920638)"><path d="M0.13 0.24 C0.03 -8.99, 0.66 -45.52, 0.58 -54.92 M-1.26 -0.68 C-1.52 -10.32, 0.19 -47.73, 0.23 -56.83" stroke="#1e1e1e" stroke-width="2" fill="none"></path></g></g><mask></mask><g stroke-linecap="round"><g transform="translate(61.854037076338244 423.51406744273834) rotate(0 -0.42547236706307956 22.901935081554143)"><path d="M-0.03 -0.03 C-0.04 7.68, -0.34 38.2, -0.44 45.89 M-0.72 -0.53 C-0.75 7.28, -0.76 38.49, -0.82 46.33" stroke="#1e1e1e" stroke-width="2" fill="none"></path></g></g><mask></mask><g stroke-linecap="round"><g transform="translate(12.682821369410505 313.9963597318538) rotate(0 23.053409715292545 0.18393906769344426)"><path d="M-0.22 0.53 C7.42 0.52, 38.65 -0.07, 46.33 -0.16 M0.67 0.32 C8.2 0.4, 38.16 0.41, 45.87 0.46" stroke="#c2255c" stroke-width="2" fill="none"></path></g></g><mask></mask><g stroke-linecap="round"><g transform="translate(13.241585184261936 409.54497207145204) rotate(0 24.38970460703321 -0.02499036278751987)"><path d="M0.12 0.45 C8.3 0.41, 40.44 -0.37, 48.66 -0.5" stroke="#e03131" stroke-width="2.5" fill="none" stroke-dasharray="8 10"></path></g></g><mask></mask><g stroke-linecap="round" transform="translate(161.44706174773333 289.5543629689313) rotate(0 76.80341402098414 76.80341402098412)"><path d="M88.11 0.35 C98.88 0.93, 110.26 7.33, 119.42 13.55 C128.59 19.77, 137.52 28.17, 143.11 37.69 C148.7 47.2, 151.95 59.43, 152.95 70.63 C153.94 81.84, 152.95 94.5, 149.09 104.92 C145.22 115.33, 138.04 125.54, 129.78 133.14 C121.53 140.73, 110.23 147.34, 99.58 150.47 C88.93 153.61, 76.78 153.65, 65.88 151.94 C54.97 150.24, 43.47 146.23, 34.14 140.24 C24.81 134.25, 15.62 125.63, 9.91 116.01 C4.2 106.4, 0.81 93.72, -0.12 82.53 C-1.05 71.33, 0.47 58.98, 4.33 48.85 C8.19 38.72, 14.95 29.15, 23.04 21.76 C31.13 14.37, 40.87 7.71, 52.87 4.51 C64.87 1.32, 86.49 2.28, 95.05 2.58 C103.62 2.89, 104.31 5.2, 104.25 6.34 M83.19 -1.2 C93.69 -1.59, 106.37 4.29, 116.01 10.26 C125.65 16.23, 134.82 25.41, 141.03 34.63 C147.24 43.84, 151.74 54.41, 153.29 65.53 C154.84 76.66, 153.73 90.79, 150.34 101.39 C146.94 112, 140.71 121.28, 132.93 129.15 C125.15 137.03, 114.23 144.64, 103.65 148.67 C93.07 152.7, 80.69 154.47, 69.47 153.34 C58.26 152.22, 45.59 147.62, 36.39 141.93 C27.19 136.23, 20.44 128.08, 14.29 119.19 C8.13 110.29, 1.2 99.31, -0.56 88.55 C-2.31 77.8, 0.32 65.4, 3.75 54.68 C7.18 43.96, 12.43 32.5, 20 24.22 C27.58 15.94, 38.87 8.9, 49.21 5.02 C59.55 1.15, 76.5 1.32, 82.04 0.98 C87.57 0.63, 82.58 1.69, 82.43 2.96" stroke="#e03131" stroke-width="2" fill="none"></path></g><g stroke-linecap="round"><g transform="translate(162.12499378692493 366.11100259239913) rotate(0.064822834165633 76.16017801523644 -9.739988554997353)"><path d="M0.34 -1.17 C0.52 -1.91, -0.68 -2.64, 1 -3.98 C2.69 -5.31, 6.05 -7.68, 10.44 -9.18 C14.83 -10.69, 20.71 -11.59, 27.35 -12.98 C33.98 -14.38, 42.47 -16.72, 50.26 -17.55 C58.04 -18.38, 66.29 -17.86, 74.06 -17.96 C81.83 -18.05, 88.82 -18.59, 96.87 -18.11 C104.92 -17.62, 115.1 -16.39, 122.37 -15.04 C129.65 -13.69, 136.06 -11.69, 140.52 -10.02 C144.98 -8.36, 147.18 -6.5, 149.13 -5.05 C151.08 -3.6, 151.59 -2.02, 152.23 -1.33" stroke="#1971c2" stroke-width="2.5" fill="none" stroke-dasharray="8 10"></path></g></g><mask></mask><g stroke-linecap="round"><g transform="translate(161.81468405847502 385.64661903175363) rotate(180.3396083825934 76.3856422771099 -10.295245825574057)"><path d="M-1.05 0.69 C-0.71 -0.08, 0.12 -3.84, 2.39 -5.83 C4.65 -7.81, 8.52 -9.49, 12.54 -11.22 C16.56 -12.94, 20.04 -14.93, 26.51 -16.18 C32.99 -17.43, 43.34 -18.02, 51.39 -18.72 C59.44 -19.42, 67.1 -20.15, 74.81 -20.38 C82.53 -20.61, 90.53 -20.69, 97.71 -20.12 C104.89 -19.54, 111.28 -18.33, 117.91 -16.93 C124.55 -15.53, 133.06 -12.82, 137.52 -11.71 C141.98 -10.59, 142.57 -11.09, 144.68 -10.23 C146.8 -9.36, 148.98 -7.95, 150.2 -6.54 C151.43 -5.14, 151.7 -2.53, 152.04 -1.79 M0.59 0.01 C0.71 -0.46, -0.74 -2.68, 1.19 -4.32 C3.11 -5.95, 7.9 -7.97, 12.15 -9.8 C16.41 -11.63, 20.38 -13.96, 26.7 -15.32 C33.03 -16.69, 42.39 -17, 50.11 -17.99 C57.83 -18.99, 64.93 -21.26, 73.02 -21.28 C81.12 -21.31, 91.32 -18.8, 98.68 -18.15 C106.05 -17.5, 110.49 -18.24, 117.2 -17.4 C123.9 -16.55, 134.27 -14.13, 138.93 -13.09 C143.6 -12.05, 143.23 -12.36, 145.18 -11.14 C147.13 -9.93, 149.2 -7.22, 150.64 -5.8 C152.08 -4.39, 153.58 -3.65, 153.82 -2.67" stroke="#1971c2" stroke-width="2" fill="none"></path></g></g><mask></mask><g stroke-linecap="round"><g transform="translate(238.16778612259557 289.8071343552665) rotate(0 -1.7443381438177958 76.13626244748022)"><path d="M-0.99 -1.11 C-1.41 24.32, -2.2 127.82, -2.5 153.39" stroke="#1971c2" stroke-width="2.5" fill="none" stroke-dasharray="8 10"></path></g></g><mask></mask><g transform="translate(237.6090223077441 367.4753046196183) rotate(0 0.000027938190742204938 0.000027938190754639436)" stroke="none"><path fill="#e03131" d="M 3.14,-3.14 Q 3.14,-3.14 3.55,-2.55 3.97,-1.97 4.18,-1.28 4.40,-0.59 4.38,0.11 4.36,0.83 4.11,1.51 3.86,2.18 3.41,2.74 2.96,3.30 2.36,3.69 1.75,4.07 1.05,4.25 0.36,4.42 -0.35,4.36 -1.07,4.30 -1.73,4.02 -2.39,3.74 -2.92,3.26 -3.46,2.78 -3.81,2.15 -4.16,1.53 -4.30,0.82 -4.43,0.11 -4.34,-0.59 -4.24,-1.30 -3.92,-1.94 -3.60,-2.59 -3.09,-3.09 -2.59,-3.60 -1.94,-3.92 -1.30,-4.24 -0.59,-4.34 0.12,-4.43 0.82,-4.30 1.53,-4.16 2.15,-3.81 2.78,-3.46 3.26,-2.92 3.74,-2.39 4.02,-1.73 4.31,-1.07 4.36,-0.35 4.42,0.36 4.25,1.05 4.07,1.75 3.69,2.36 3.30,2.96 2.74,3.41 2.18,3.86 1.51,4.11 0.83,4.36 0.11,4.38 -0.60,4.40 -1.28,4.18 -1.97,3.97 -2.55,3.55 -3.14,3.13 -3.14,3.14 -3.14,3.14 -3.47,2.71 -3.80,2.29 -4.02,1.80 -4.24,1.32 -4.33,0.79 -4.43,0.26 -4.40,-0.26 -4.36,-0.80 -4.20,-1.31 -4.04,-1.82 -3.77,-2.28 -3.49,-2.73 -3.11,-3.11 -2.73,-3.49 -2.28,-3.77 -1.82,-4.05 -1.31,-4.20 -0.80,-4.36 -0.26,-4.40 0.26,-4.43 0.79,-4.33 1.32,-4.24 1.80,-4.02 2.29,-3.80 2.71,-3.47 3.14,-3.14 3.14,-3.14 L 3.14,-3.14 Z"></path></g><g stroke-linecap="round"><g transform="translate(237.05025849289268 290.365898170118) rotate(0 -0.009663442196323757 -19.34136987115349)"><path d="M0.39 -0.45 C0.31 -6.85, -0.3 -31.79, -0.41 -38.24" stroke="#1971c2" stroke-width="2.5" fill="none" stroke-dasharray="8 10"></path></g></g><mask></mask><g stroke-linecap="round"><g transform="translate(237.6090223077441 443.4671834394158) rotate(0 -0.4281404489427292 24.18704716233661)"><path d="M-0.44 0.44 C-0.57 8.36, -0.39 40.09, -0.37 47.93" stroke="#1971c2" stroke-width="2.5" fill="none" stroke-dasharray="8 10"></path></g></g><mask></mask><g stroke-linecap="round" transform="translate(11.876318506511154 97.09690395027121) rotate(0 25.98251739059252 55.8763814851452)"><path d="M0 0 C14.02 0.54, 31.86 -1.56, 51.97 0 M0 0 C16.77 0.38, 34.35 0.14, 51.97 0 M51.97 0 C51.84 31.55, 52.4 65.69, 51.97 111.75 M51.97 0 C53.06 42.56, 53.65 86.92, 51.97 111.75 M51.97 111.75 C41.65 113.88, 27.46 111.28, 0 111.75 M51.97 111.75 C33.46 111.36, 13.76 111.56, 0 111.75 M0 111.75 C1.88 72.09, -1.29 33.89, 0 0 M0 111.75 C-0.29 70.19, -1.13 30.07, 0 0" stroke="#e03131" stroke-width="2" fill="none"></path></g><g stroke-linecap="round"><g transform="translate(63.282589472844734 65.80613031858991) rotate(0 0.25575985197994555 87.2485409234188)"><path d="M-0.67 -0.98 C-0.51 27.95, 0.32 144.74, 0.51 173.88 M1.18 1.12 C1.26 30.24, 0.03 146.45, -0.16 175.48" stroke="#343a40" stroke-width="2" fill="none"></path></g></g><mask></mask><g stroke-linecap="round" transform="translate(172.0492026408321 96.40323461573723) rotate(0 59.22896437425391 59.228964374253906)"><path d="M59.94 -0.51 C68.69 -1.47, 79.93 2.16, 88.03 6.68 C96.13 11.2, 103.58 18.93, 108.56 26.6 C113.53 34.28, 117.04 43.75, 117.88 52.74 C118.72 61.73, 117.05 71.8, 113.59 80.53 C110.13 89.26, 103.93 99.17, 97.13 105.11 C90.32 111.04, 81.47 114.09, 72.76 116.12 C64.05 118.16, 53.7 119.58, 44.86 117.31 C36.02 115.04, 26.49 108.73, 19.73 102.48 C12.97 96.24, 7.59 88.49, 4.28 79.85 C0.98 71.21, -1.35 59.91, -0.12 50.64 C1.12 41.38, 6.06 31.68, 11.68 24.24 C17.31 16.8, 24.66 9.97, 33.63 6.01 C42.59 2.06, 59.67 1.29, 65.49 0.51 C71.31 -0.26, 68.66 0.46, 68.55 1.37 M31.62 6.77 C38.74 1.6, 48.27 -0.22, 57.57 -0.3 C66.86 -0.38, 79.08 2, 87.39 6.27 C95.71 10.54, 102.55 17.94, 107.45 25.34 C112.35 32.74, 115.48 41.88, 116.79 50.66 C118.09 59.45, 118.29 69.41, 115.27 78.06 C112.25 86.71, 105.3 96.05, 98.67 102.55 C92.04 109.05, 84.32 114.42, 75.49 117.07 C66.66 119.71, 55.04 120.39, 45.69 118.42 C36.33 116.45, 26.35 111.68, 19.37 105.24 C12.39 98.8, 6.84 88.41, 3.81 79.76 C0.77 71.11, -0.06 62.3, 1.15 53.34 C2.36 44.39, 6.33 33.88, 11.05 26.04 C15.78 18.2, 26.02 9.37, 29.51 6.3 C33 3.24, 31.15 6.59, 32.01 7.63" stroke="#e03131" stroke-width="2" fill="none"></path></g><g stroke-linecap="round" transform="translate(235.5005384858497 59.92120531241801) rotate(0 60.90525581880827 89.40221037623232)"><path d="M1.19 -0.1 L122.49 -1.51 L122.04 179.88 L-0.24 178.61" stroke="none" stroke-width="0" fill="#ffffff"></path><path d="M0 0 C29.58 -1.98, 55.1 -1.61, 121.81 0 M0 0 C45.58 -1.7, 90.43 -1.16, 121.81 0 M121.81 0 C122.58 61.06, 123.66 124.46, 121.81 178.8 M121.81 0 C120.93 49.31, 121.02 100.64, 121.81 178.8 M121.81 178.8 C77.56 179.13, 32.54 176.56, 0 178.8 M121.81 178.8 C72.44 179.19, 24.13 179.32, 0 178.8 M0 178.8 C1.06 136.01, 0.1 96.78, 0 0 M0 178.8 C1.8 113.99, 1.46 51.17, 0 0" stroke="#ffffff" stroke-width="2" fill="none"></path></g><g stroke-linecap="round"><g transform="translate(234.89222686138868 48.286260819756535) rotate(0 0.6656254007593283 100.29810476583563)"><path d="M0 0 C-0.43 75.46, 0.75 148.26, 1.68 200.6 M0 0 C-0.94 48.29, 0.19 98.39, 1.68 200.6" stroke="#1971c2" stroke-width="2" fill="none"></path></g></g><mask></mask><g stroke-linecap="round"><g transform="translate(349.51016992309053 407.0600555613378) rotate(0.064822834165633 109.53061412100692 -13.499297734505717)"><path d="M0.57 0.67 C0.89 -0.48, -0.25 -4.07, 2.39 -6.46 C5.04 -8.84, 10.71 -11.54, 16.45 -13.65 C22.2 -15.76, 27.85 -17.18, 36.88 -19.1 C45.91 -21.02, 59.17 -23.72, 70.64 -25.14 C82.12 -26.57, 94.57 -27.47, 105.72 -27.64 C116.87 -27.81, 126.35 -27.17, 137.57 -26.17 C148.79 -25.17, 162.63 -23.83, 173.05 -21.65 C183.47 -19.47, 193.35 -15.61, 200.08 -13.1 C206.81 -10.58, 210.34 -8.46, 213.41 -6.55 C216.48 -4.65, 217.9 -2.53, 218.49 -1.68" stroke="#1971c2" stroke-width="2.5" fill="none" stroke-dasharray="8 10"></path></g></g><mask></mask><g stroke-linecap="round"><g transform="translate(349.0676215119625 434.92078702738513) rotate(180.3396083825934 109.17392268913575 -15.155902832877047)"><path d="M-0.54 0.21 C0.2 -1.38, 2.26 -6.06, 4.97 -8.86 C7.69 -11.66, 10.45 -14.19, 15.76 -16.58 C21.06 -18.97, 27.18 -21.17, 36.79 -23.19 C46.39 -25.22, 61.84 -27.69, 73.39 -28.73 C84.95 -29.76, 95.37 -29.38, 106.12 -29.41 C116.86 -29.43, 127.59 -29.97, 137.88 -28.89 C148.17 -27.81, 158 -25.09, 167.83 -22.95 C177.66 -20.81, 190.2 -17.48, 196.85 -16.05 C203.5 -14.62, 205.03 -15.46, 207.73 -14.37 C210.42 -13.28, 211.18 -11.74, 213.04 -9.5 C214.9 -7.27, 218 -2.49, 218.88 -0.93 M1.38 -0.73 C1.99 -2.23, 1.71 -5.2, 4.49 -7.65 C7.27 -10.1, 12.76 -12.96, 18.08 -15.43 C23.4 -17.91, 27.38 -20.25, 36.41 -22.5 C45.43 -24.75, 60.93 -27.61, 72.23 -28.93 C83.53 -30.25, 93.22 -30.73, 104.22 -30.43 C115.21 -30.14, 127.75 -28.44, 138.22 -27.18 C148.7 -25.91, 157.05 -24.52, 167.08 -22.84 C177.11 -21.16, 191.44 -18.95, 198.4 -17.09 C205.36 -15.24, 206.43 -13.07, 208.84 -11.71 C211.26 -10.36, 211.4 -10.72, 212.91 -8.96 C214.41 -7.2, 216.91 -2.59, 217.89 -1.15" stroke="#1971c2" stroke-width="2" fill="none"></path></g></g><mask></mask><g stroke-linecap="round"><g transform="translate(400.84958748705276 288.8883895890103) rotate(0.064822834165633 58.244040703458765 -6.745587381370143)"><path d="M0.88 -0.63 C1.05 -1.3, -0.56 -2.67, 0.47 -3.84 C1.49 -5.01, 3.68 -6.45, 7.04 -7.65 C10.4 -8.86, 15.39 -10.19, 20.65 -11.05 C25.91 -11.92, 32.89 -12.17, 38.61 -12.85 C44.33 -13.53, 49.26 -15.13, 54.97 -15.15 C60.67 -15.17, 66.86 -13.8, 72.84 -12.97 C78.83 -12.15, 85.35 -10.94, 90.89 -10.18 C96.43 -9.42, 102.52 -9.35, 106.09 -8.43 C109.66 -7.51, 110.69 -6.06, 112.32 -4.65 C113.95 -3.24, 115.36 -0.86, 115.86 0.05 M-0.11 1.66 C0.46 1.14, 1.04 -1.07, 2.61 -2.47 C4.18 -3.87, 6.21 -5.4, 9.31 -6.74 C12.41 -8.09, 16.51 -9.6, 21.2 -10.55 C25.9 -11.5, 31.67 -12.02, 37.48 -12.45 C43.3 -12.88, 50.03 -12.89, 56.08 -13.13 C62.12 -13.36, 67.59 -14.36, 73.76 -13.87 C79.93 -13.38, 87.92 -11.37, 93.09 -10.18 C98.26 -8.99, 101.51 -7.48, 104.77 -6.7 C108.03 -5.93, 110.67 -6.87, 112.64 -5.54 C114.61 -4.22, 116.36 0.14, 116.6 1.24" stroke="#1971c2" stroke-width="2" fill="none"></path></g></g><mask></mask><g stroke-linecap="round"><g transform="translate(400.61579640363055 303.60675808971473) rotate(180.3396083825934 57.55262334599831 -8.244924526427269)"><path d="M-1.08 -0.32 C-1.07 -1.07, -0.79 -3.56, 0.97 -5.12 C2.74 -6.69, 6.2 -8.61, 9.49 -9.72 C12.78 -10.84, 15.99 -10.82, 20.72 -11.82 C25.45 -12.82, 31.97 -15.24, 37.89 -15.72 C43.81 -16.2, 50.49 -14.97, 56.23 -14.68 C61.96 -14.4, 66.84 -14.18, 72.31 -14.01 C77.78 -13.83, 83.85 -14.36, 89.06 -13.63 C94.27 -12.91, 100.05 -10.83, 103.57 -9.67 C107.09 -8.5, 108.56 -7.7, 110.18 -6.65 C111.79 -5.6, 112.58 -4.35, 113.28 -3.39 C113.98 -2.43, 114.21 -1.4, 114.38 -0.91 M0.55 -1.53 C0.84 -2.09, 1.65 -2.75, 3.06 -3.99 C4.48 -5.24, 5.99 -7.88, 9.03 -9 C12.07 -10.12, 16.19 -9.55, 21.31 -10.7 C26.44 -11.86, 34.29 -15.17, 39.78 -15.93 C45.27 -16.69, 48.79 -15.43, 54.25 -15.27 C59.71 -15.12, 66.83 -15.74, 72.52 -15.01 C78.2 -14.28, 82.95 -12.06, 88.38 -10.87 C93.81 -9.67, 101.89 -8.49, 105.11 -7.83 C108.33 -7.17, 106.26 -7.3, 107.7 -6.9 C109.14 -6.5, 112.33 -6.35, 113.74 -5.44 C115.16 -4.53, 116.13 -2.16, 116.19 -1.44" stroke="#1971c2" stroke-width="2" fill="none"></path></g></g><mask></mask><g stroke-linecap="round"><g transform="translate(400.0970773360833 288.82121687022453) rotate(0 -25.077450070618397 58.60796914160318)"><path d="M0 0 C-12.13 25.1, -23.26 49.82, -50.15 117.22 M0 0 C-15.27 35.64, -31.54 70.85, -50.15 117.22" stroke="#1971c2" stroke-width="2" fill="none"></path></g></g><mask></mask><g stroke-linecap="round"><g transform="translate(515.6224112388498 288.25767161048486) rotate(0 25.640963931580018 59.735043961692725)"><path d="M0 0 C7.66 24.89, 19.91 46.88, 51.28 119.47 M0 0 C10.32 24.64, 22.07 47.69, 51.28 119.47" stroke="#1971c2" stroke-width="2" fill="none"></path></g></g><mask></mask><g stroke-linecap="round"><g transform="translate(462.1679311059121 10) rotate(0 -0.076737577408025 120.69819546180196)"><path d="M0 0 C0.19 49.26, 0 99.08, 0.71 241.4 M0 0 C-1.67 76.86, -0.65 155.69, 0.71 241.4" stroke="#1971c2" stroke-width="2" fill="none"></path></g></g><mask></mask><g stroke-linecap="round"><g transform="translate(402.8901191335478 77.13390753496674) rotate(0 28.56762022764545 0.46719647223739)"><path d="M0 0 C13.48 1.07, 26.08 1.41, 57.14 0 M0 0 C14.43 0.47, 29.77 0.59, 57.14 0" stroke="#c2255c" stroke-width="2" fill="none"></path></g></g><mask></mask><g stroke-linecap="round"><g transform="translate(402.17592862785676 78.56228854634912) rotate(0 -23.925381940653082 70.70486006342244)"><path d="M0 0 C-14.64 41.18, -25.88 82.63, -47.85 141.41 M0 0 C-13.9 44.44, -29.44 88.96, -47.85 141.41" stroke="#c2255c" stroke-width="2" fill="none"></path></g></g><mask></mask><g stroke-linecap="round"><g transform="translate(353.61097424085943 218.54362766181157) rotate(0 53.921383179680745 -0.10662610536880379)"><path d="M0 0 C27.34 -0.73, 56.24 0.17, 107.84 0 M0 0 C42.13 -0.57, 82.94 0.33, 107.84 0" stroke="#c2255c" stroke-width="2" fill="none"></path></g></g><mask></mask></svg>