<svg version="1.1" xmlns="http://www.w3.org/2000/svg" viewBox="0 0 441.76186010246545 498.364451099507" width="441.76186010246545" height="498.364451099507" class="excalidraw-svg"><!-- svg-source:excalidraw --><metadata></metadata><defs><style class="style-fonts">
      </style></defs><rect x="0" y="0" width="441.76186010246545" height="498.364451099507" fill="#ffffff"></rect><g stroke-linecap="round"><g transform="translate(10.474406931921834 327.37215324542444) rotate(0 210.4065231193109 0.06795595084326145)"><path d="M-0.47 0.7 C69.93 0.5, 350.95 -0.66, 421.29 -0.56 M1.48 0.03 C71.86 -0.13, 350.6 0.51, 420.55 0.4" stroke="#1e1e1e" stroke-width="2" fill="none"></path></g><g transform="translate(10.474406931921834 327.37215324542444) rotate(0 210.4065231193109 0.06795595084326145)"><path d="M397.05 8.93 C402.99 7.93, 404.79 6.63, 420.55 0.4 M397.05 8.93 C405.45 4.99, 414.79 1.8, 420.55 0.4" stroke="#1e1e1e" stroke-width="2" fill="none"></path></g><g transform="translate(10.474406931921834 327.37215324542444) rotate(0 210.4065231193109 0.06795595084326145)"><path d="M397.06 -8.17 C403.09 -5.67, 404.89 -3.46, 420.55 0.4 M397.06 -8.17 C405.62 -5.92, 414.96 -2.93, 420.55 0.4" stroke="#1e1e1e" stroke-width="2" fill="none"></path></g></g><mask></mask><g stroke-linecap="round"><g transform="translate(202.48096769847277 485.7504463070992) rotate(0 -0.47279311060547036 -235.41305119265724)"><path d="M0.24 0.18 C0.11 -78.06, 0.26 -391.02, 0.15 -469.17 M-1.09 -0.76 C-1.46 -79.4, -0.66 -392.72, -0.72 -471.01" stroke="#1e1e1e" stroke-width="2" fill="none"></path></g><g transform="translate(202.48096769847277 485.7504463070992) rotate(0 -0.47279311060547036 -235.41305119265724)"><path d="M7.81 -447.51 C4.81 -456.18, 2.16 -466.11, -0.72 -471.01 M7.81 -447.51 C4.87 -456.25, 1.61 -466.21, -0.72 -471.01" stroke="#1e1e1e" stroke-width="2" fill="none"></path></g><g transform="translate(202.48096769847277 485.7504463070992) rotate(0 -0.47279311060547036 -235.41305119265724)"><path d="M-9.3 -447.53 C-5.79 -456.23, -1.93 -466.15, -0.72 -471.01 M-9.3 -447.53 C-5.67 -456.11, -2.38 -466.06, -0.72 -471.01" stroke="#1e1e1e" stroke-width="2" fill="none"></path></g></g><mask></mask><g stroke-linecap="round"><g transform="translate(200.31140204009367 53.464488875062216) rotate(0 -70.46696213392178 217.69438524656297)"><path d="M-0.98 1.01 C-4.25 3.66, -12.14 8.48, -18.86 15.25 C-25.58 22.01, -34.14 31.79, -41.31 41.57 C-48.48 51.36, -55.39 60.18, -61.89 73.98 C-68.38 87.79, -74.78 108.33, -80.27 124.41 C-85.75 140.49, -88.73 146.17, -94.79 170.45 C-100.84 194.74, -111.88 246.14, -116.61 270.13 C-121.34 294.11, -120.39 296.17, -123.16 314.37 C-125.93 332.58, -130.18 359.26, -133.26 379.35 C-136.34 399.44, -140.22 425.8, -141.64 434.9 M0.71 0.49 C-2.78 3.41, -12.55 10.33, -19.74 16.81 C-26.93 23.3, -35.42 29.73, -42.4 39.42 C-49.39 49.1, -55.11 60.71, -61.67 74.91 C-68.22 89.12, -76.46 108.86, -81.74 124.62 C-87.01 140.39, -87.6 144.9, -93.3 169.49 C-99.01 194.08, -110.91 248, -115.97 272.16 C-121.02 296.33, -120.54 296.79, -123.64 314.49 C-126.73 332.19, -131.68 358.38, -134.56 378.37 C-137.44 398.35, -139.74 425.07, -140.92 434.4" stroke="#1e1e1e" stroke-width="2" fill="none"></path></g></g><mask></mask><g stroke-linecap="round"><g transform="translate(202.48096769847277 447.7830472854649) rotate(0 70.30834183601301 -218.42837272331738)"><path d="M-0.21 -1.11 C2.08 -2.82, 9.35 -6.38, 14.26 -10.77 C19.18 -15.15, 23.06 -19.93, 29.28 -27.44 C35.49 -34.94, 44.83 -45.65, 51.55 -55.81 C58.26 -65.97, 64.76 -77.65, 69.56 -88.39 C74.36 -99.12, 75.84 -105.62, 80.34 -120.22 C84.84 -134.82, 91.55 -155.77, 96.55 -176.01 C101.55 -196.25, 106.07 -222.34, 110.37 -241.66 C114.66 -260.97, 118.87 -273.26, 122.34 -291.89 C125.8 -310.52, 128.63 -336.31, 131.15 -353.42 C133.66 -370.54, 135.86 -380.65, 137.44 -394.59 C139.02 -408.54, 140.01 -430.28, 140.64 -437.11 M-1.79 0.93 C0.32 -1.04, 7.84 -7.79, 13.4 -12.28 C18.96 -16.76, 25.19 -18.94, 31.59 -26 C37.99 -33.07, 45.71 -44.29, 51.81 -54.67 C57.9 -65.05, 63.21 -77.14, 68.16 -88.27 C73.11 -99.4, 76.66 -106.67, 81.5 -121.44 C86.34 -136.22, 92.02 -156.86, 97.19 -176.93 C102.37 -197, 108.63 -222.56, 112.57 -241.87 C116.5 -261.17, 117.65 -274.09, 120.82 -292.74 C123.99 -311.39, 128.78 -336.98, 131.57 -353.76 C134.37 -370.55, 135.78 -379.47, 137.59 -393.47 C139.39 -407.47, 141.79 -430.72, 142.4 -437.78" stroke="#1e1e1e" stroke-width="2" fill="none"></path></g></g><mask></mask><g stroke-linecap="round" transform="translate(198.14183638171457 49.12535755830402) rotate(0 4.067935609460818 3.5255441948660575)"><path d="M3.86 -0.05 C4.62 -0.14, 5.77 0.06, 6.41 0.54 C7.06 1.02, 7.46 2.06, 7.72 2.83 C7.98 3.6, 8.33 4.49, 7.96 5.19 C7.59 5.89, 6.29 6.77, 5.48 7.04 C4.67 7.31, 3.94 7.08, 3.09 6.8 C2.24 6.52, 0.87 6.02, 0.39 5.36 C-0.09 4.7, 0.02 3.61, 0.22 2.84 C0.41 2.07, 0.95 1.18, 1.57 0.72 C2.18 0.27, 3.5 0.16, 3.91 0.1 C4.33 0.03, 4.11 0.29, 4.07 0.33 M3.91 -0.34 C4.84 -0.4, 6.2 0.31, 6.9 0.89 C7.6 1.47, 7.97 2.44, 8.11 3.13 C8.25 3.83, 8.17 4.4, 7.75 5.09 C7.32 5.77, 6.45 6.92, 5.55 7.26 C4.66 7.59, 3.16 7.4, 2.36 7.1 C1.56 6.8, 1.13 6.11, 0.75 5.45 C0.38 4.79, 0.02 3.93, 0.1 3.16 C0.18 2.4, 0.58 1.38, 1.23 0.86 C1.87 0.34, 3.51 0.19, 3.96 0.03 C4.42 -0.12, 3.96 -0.09, 3.95 -0.06" stroke="#1e1e1e" stroke-width="2" fill="none"></path></g></svg>