<svg version="1.1" xmlns="http://www.w3.org/2000/svg" viewBox="0 0 224.69271241910755 196" width="224.69271241910755" height="196" class="excalidraw-svg"><!-- svg-source:excalidraw --><metadata></metadata><defs><style class="style-fonts">
      </style></defs><rect x="0" y="0" width="224.69271241910755" height="196" fill="#ffffff"></rect><g stroke-linecap="round" transform="translate(10 53) rotate(0 49 66.5)"><path d="M24.5 0 C39.66 -0.23, 51.78 0.92, 73.5 0 M24.5 0 C37.81 1.26, 50.12 0.94, 73.5 0 M73.5 0 C91.49 -0.55, 96.82 8.72, 98 24.5 M73.5 0 C88.6 1.85, 98.82 10.42, 98 24.5 M98 24.5 C99.57 40.74, 98.28 61.58, 98 108.5 M98 24.5 C98.27 47.67, 98.88 69.79, 98 108.5 M98 108.5 C97.64 123.09, 88.29 134.45, 73.5 133 M98 108.5 C99.81 125.1, 90.93 131.99, 73.5 133 M73.5 133 C54.27 133.07, 37.82 131.5, 24.5 133 M73.5 133 C60.69 132.3, 48.24 131.81, 24.5 133 M24.5 133 C9.84 132.58, 1.52 124.53, 0 108.5 M24.5 133 C7.05 131.26, -0.1 122.7, 0 108.5 M0 108.5 C-1.3 88.21, 0.82 70.64, 0 24.5 M0 108.5 C-0.21 85.47, -1 62.94, 0 24.5 M0 24.5 C0.85 6.5, 10.03 -1.4, 24.5 0 M0 24.5 C-2.23 6.95, 7.58 1.88, 24.5 0" stroke="#1e1e1e" stroke-width="2" fill="none"></path></g><g stroke-linecap="round"><g transform="translate(62 119) rotate(0 75.85852975733577 0.6754394506197485)"><path d="M-0.98 -0.54 C24.48 -0.53, 127.09 0.55, 152.69 0.92 M0.71 1.79 C25.98 1.83, 126.43 1.72, 151.58 1.89" stroke="#e03131" stroke-width="2" fill="none"></path></g><g transform="translate(62 119) rotate(0 75.85852975733577 0.6754394506197485)"><path d="M128.07 10.39 C134.1 7.54, 140.2 4.88, 151.58 1.89 M128.07 10.39 C135.38 8.02, 141.75 5.75, 151.58 1.89" stroke="#e03131" stroke-width="2" fill="none"></path></g><g transform="translate(62 119) rotate(0 75.85852975733577 0.6754394506197485)"><path d="M128.11 -6.71 C134.25 -4.47, 140.34 -2.05, 151.58 1.89 M128.11 -6.71 C135.36 -4.39, 141.72 -1.97, 151.58 1.89" stroke="#e03131" stroke-width="2" fill="none"></path></g></g><mask></mask><g stroke-linecap="round"><g transform="translate(60.5 119.5133) rotate(0 48.98368255607784 -52.0659855666846)"><path d="M-0.41 0.71 C15.91 -16.94, 82.02 -87.24, 98.38 -104.85 M1.58 0.04 C17.68 -16.92, 80.92 -86.18, 97.36 -103.48" stroke="#2f9e44" stroke-width="2" fill="none"></path></g><g transform="translate(60.5 119.5133) rotate(0 48.98368255607784 -52.0659855666846)"><path d="M87.63 -80.45 C91.93 -88.48, 93.5 -97.37, 97.36 -103.48 M87.63 -80.45 C90.75 -86.14, 93.59 -92.08, 97.36 -103.48" stroke="#2f9e44" stroke-width="2" fill="none"></path></g><g transform="translate(60.5 119.5133) rotate(0 48.98368255607784 -52.0659855666846)"><path d="M75.11 -92.1 C83.78 -96.11, 89.62 -101.03, 97.36 -103.48 M75.11 -92.1 C81.52 -94.78, 87.72 -97.6, 97.36 -103.48" stroke="#2f9e44" stroke-width="2" fill="none"></path></g></g><mask></mask><g transform="translate(137 138) rotate(0 7 -2)" stroke="none"><path fill="#e03131" d="M 0,-2.60 Q 0,-2.60 1.42,-2.58 2.85,-2.57 4.22,-3.17 5.59,-3.77 7.35,-4.61 9.11,-5.45 11.03,-6.10 12.95,-6.75 13.42,-6.84 13.88,-6.94 14.35,-6.88 14.83,-6.82 15.26,-6.61 15.68,-6.40 16.02,-6.07 16.37,-5.74 16.58,-5.31 16.80,-4.89 16.87,-4.42 16.94,-3.95 16.85,-3.48 16.77,-3.01 16.54,-2.59 16.31,-2.18 15.96,-1.86 15.61,-1.53 15.17,-1.34 14.74,-1.15 14.26,-1.10 13.79,-1.06 13.33,-1.17 12.86,-1.28 12.46,-1.53 12.05,-1.78 11.75,-2.15 11.45,-2.52 11.28,-2.96 11.11,-3.41 11.09,-3.88 11.07,-4.36 11.21,-4.82 11.34,-5.27 11.62,-5.66 11.89,-6.05 12.27,-6.33 12.66,-6.62 13.11,-6.76 13.57,-6.91 14.04,-6.90 14.52,-6.89 14.97,-6.73 15.41,-6.57 15.79,-6.28 16.16,-5.98 16.42,-5.59 16.69,-5.19 16.81,-4.73 16.93,-4.27 16.89,-3.79 16.86,-3.32 16.68,-2.88 16.49,-2.44 16.18,-2.08 15.86,-1.72 15.45,-1.48 15.04,-1.24 15.04,-1.24 15.04,-1.24 12.72,-0.60 10.39,0.03 9.23,0.51 8.06,0.98 6.97,1.47 5.87,1.95 4.38,2.26 2.89,2.57 1.44,2.58 0,2.60 -0.31,2.56 -0.62,2.52 -0.91,2.41 -1.20,2.30 -1.46,2.12 -1.72,1.94 -1.93,1.71 -2.14,1.47 -2.28,1.20 -2.43,0.92 -2.50,0.61 -2.58,0.31 -2.58,-0.00 -2.58,-0.31 -2.50,-0.61 -2.43,-0.92 -2.28,-1.20 -2.14,-1.47 -1.93,-1.71 -1.72,-1.94 -1.46,-2.12 -1.20,-2.30 -0.91,-2.41 -0.62,-2.52 -0.31,-2.56 0.00,-2.60 0.00,-2.60 L 0,-2.60 Z"></path></g><g transform="translate(143 140) rotate(0 -3 14.5)" stroke="none"><path fill="#e03131" d="M 2.27,0.56 Q 2.27,0.56 1.28,3.98 0.29,7.40 -0.15,10.17 -0.59,12.94 -0.75,14.71 -0.90,16.49 -1.22,18.00 -1.54,19.52 -1.93,21.66 -2.31,23.80 -3.06,26.96 -3.81,30.12 -4.05,30.44 -4.29,30.76 -4.61,30.99 -4.94,31.22 -5.32,31.33 -5.70,31.44 -6.10,31.42 -6.50,31.40 -6.87,31.26 -7.24,31.11 -7.55,30.86 -7.85,30.61 -8.06,30.27 -8.27,29.93 -8.36,29.54 -8.45,29.15 -8.41,28.76 -8.37,28.36 -8.21,28.00 -8.04,27.64 -7.77,27.34 -7.50,27.05 -7.15,26.86 -6.80,26.67 -6.41,26.60 -6.02,26.54 -5.63,26.60 -5.23,26.66 -4.88,26.84 -4.53,27.02 -4.25,27.31 -3.97,27.60 -3.80,27.95 -3.63,28.31 -3.59,28.71 -3.54,29.10 -3.62,29.49 -3.70,29.88 -3.90,30.23 -4.11,30.57 -4.41,30.83 -4.71,31.09 -5.08,31.24 -5.44,31.39 -5.84,31.42 -6.24,31.44 -6.62,31.34 -7.01,31.24 -7.34,31.02 -7.67,30.80 -7.91,30.48 -8.16,30.17 -8.29,29.79 -8.42,29.42 -8.42,29.02 -8.42,28.62 -8.30,28.24 -8.18,27.86 -8.18,27.86 -8.18,27.87 -7.64,26.46 -7.11,25.06 -6.87,23.81 -6.64,22.56 -6.02,20.53 -5.40,18.50 -5.01,17.33 -4.63,16.16 -4.47,14.31 -4.31,12.47 -4.03,9.43 -3.74,6.39 -3.01,2.91 -2.27,-0.56 -2.17,-0.83 -2.07,-1.09 -1.91,-1.33 -1.75,-1.56 -1.54,-1.75 -1.32,-1.93 -1.07,-2.06 -0.82,-2.19 -0.55,-2.26 -0.27,-2.33 0.00,-2.33 0.29,-2.33 0.56,-2.26 0.84,-2.19 1.09,-2.06 1.34,-1.92 1.55,-1.74 1.76,-1.55 1.92,-1.31 2.08,-1.08 2.18,-0.81 2.28,-0.55 2.31,-0.27 2.34,0.00 2.31,0.28 2.27,0.57 2.27,0.56 L 2.27,0.56 Z"></path></g><g transform="translate(140 150) rotate(0 5.5 -1)" stroke="none"><path fill="#e03131" d="M -0.37,-2.26 Q -0.37,-2.26 1.35,-2.51 3.08,-2.76 4.58,-3.14 6.09,-3.52 8.38,-3.91 10.67,-4.31 11.05,-4.30 11.43,-4.29 11.78,-4.16 12.14,-4.03 12.43,-3.79 12.73,-3.56 12.93,-3.24 13.14,-2.92 13.23,-2.56 13.32,-2.19 13.29,-1.81 13.26,-1.44 13.11,-1.09 12.96,-0.74 12.71,-0.46 12.46,-0.18 12.13,0.00 11.80,0.18 11.43,0.25 11.06,0.33 10.69,0.28 10.32,0.23 9.98,0.06 9.64,-0.10 9.37,-0.36 9.10,-0.63 8.94,-0.97 8.77,-1.30 8.71,-1.68 8.66,-2.05 8.73,-2.42 8.80,-2.79 8.99,-3.12 9.17,-3.45 9.45,-3.70 9.73,-3.96 10.08,-4.11 10.43,-4.26 10.80,-4.29 11.18,-4.32 11.55,-4.23 11.91,-4.14 12.23,-3.94 12.55,-3.74 12.79,-3.44 13.02,-3.15 13.15,-2.79 13.28,-2.44 13.30,-2.06 13.31,-1.69 13.20,-1.32 13.09,-0.96 12.87,-0.66 12.65,-0.35 12.34,-0.13 12.04,0.08 11.68,0.19 11.32,0.31 11.32,0.31 11.32,0.31 9.25,0.52 7.18,0.74 5.50,1.17 3.81,1.61 2.09,1.94 0.37,2.26 0.10,2.27 -0.17,2.28 -0.44,2.23 -0.71,2.17 -0.96,2.06 -1.21,1.94 -1.43,1.77 -1.64,1.59 -1.81,1.37 -1.98,1.15 -2.09,0.90 -2.20,0.64 -2.24,0.37 -2.29,0.10 -2.27,-0.17 -2.25,-0.45 -2.16,-0.71 -2.07,-0.97 -1.93,-1.21 -1.78,-1.44 -1.58,-1.63 -1.38,-1.82 -1.14,-1.96 -0.90,-2.10 -0.64,-2.18 -0.37,-2.26 -0.37,-2.26 L -0.37,-2.26 Z"></path></g><g transform="translate(154.5 160) rotate(0 4 6)" stroke="none"><path fill="#e03131" d="M 0.97,-2.43 Q 0.97,-2.43 2.39,-1.83 3.82,-1.22 5.32,-0.92 6.82,-0.62 7.78,0.08 8.74,0.79 9.19,3.01 9.64,5.24 9.18,6.27 8.72,7.30 8.24,8.92 7.76,10.53 6.87,11.53 5.99,12.53 4.43,13.65 2.87,14.76 1.42,15.01 -0.03,15.25 -1.18,15.00 -2.33,14.75 -1.95,14.76 -1.58,14.77 -1.99,14.74 -2.39,14.70 -2.77,14.57 -3.16,14.43 -3.50,14.21 -3.84,13.99 -4.12,13.70 -4.39,13.40 -4.59,13.05 -4.79,12.69 -4.90,12.30 -5.01,11.91 -5.02,11.51 -5.03,11.10 -4.94,10.71 -4.86,10.31 -4.68,9.95 -4.50,9.58 -4.24,9.27 -3.98,8.96 -3.66,8.72 -3.33,8.48 -2.95,8.32 -2.58,8.17 -2.18,8.11 -1.78,8.05 -0.26,7.90 1.26,7.76 2.63,7.79 4.00,7.82 6.99,7.78 9.99,7.75 10.51,7.83 11.03,7.91 11.49,8.16 11.96,8.41 12.32,8.79 12.68,9.17 12.90,9.64 13.13,10.12 13.18,10.64 13.24,11.17 13.13,11.68 13.02,12.19 12.75,12.64 12.47,13.10 12.07,13.44 11.67,13.78 11.19,13.97 10.70,14.17 10.17,14.20 9.65,14.23 9.14,14.09 8.63,13.95 8.20,13.65 7.76,13.36 7.44,12.94 7.13,12.52 6.96,12.02 6.79,11.52 6.79,11.00 6.79,10.47 6.95,9.97 7.12,9.48 7.44,9.06 7.76,8.64 8.19,8.34 8.63,8.05 9.13,7.91 9.64,7.76 10.16,7.79 10.69,7.82 11.18,8.01 11.67,8.21 12.07,8.55 12.47,8.89 12.74,9.34 13.01,9.79 13.13,10.30 13.24,10.82 13.18,11.34 13.13,11.86 12.91,12.34 12.69,12.82 12.33,13.20 11.96,13.58 11.50,13.83 11.04,14.07 10.52,14.16 10.00,14.24 10.00,14.24 10.00,14.24 7.05,14.24 4.10,14.24 2.84,14.31 1.57,14.38 -0.00,14.58 -1.58,14.77 -1.99,14.74 -2.39,14.70 -2.77,14.57 -3.16,14.43 -3.50,14.21 -3.84,13.99 -4.12,13.70 -4.39,13.40 -4.59,13.05 -4.79,12.69 -4.90,12.30 -5.01,11.91 -5.02,11.51 -5.03,11.10 -4.94,10.71 -4.86,10.31 -4.68,9.95 -4.50,9.58 -4.24,9.27 -3.98,8.96 -3.66,8.72 -3.33,8.48 -2.95,8.33 -2.58,8.17 -2.18,8.11 -1.78,8.05 -0.60,8.49 0.56,8.94 1.89,8.08 3.22,7.23 3.60,5.71 3.98,4.18 2.95,3.85 1.92,3.52 0.47,2.98 -0.97,2.43 -1.25,2.28 -1.52,2.13 -1.76,1.91 -1.99,1.70 -2.16,1.44 -2.34,1.17 -2.45,0.87 -2.55,0.58 -2.59,0.26 -2.62,-0.04 -2.57,-0.36 -2.53,-0.67 -2.41,-0.96 -2.30,-1.26 -2.11,-1.51 -1.93,-1.77 -1.69,-1.98 -1.45,-2.18 -1.16,-2.32 -0.88,-2.46 -0.57,-2.53 -0.26,-2.60 0.04,-2.60 0.36,-2.59 0.66,-2.51 0.97,-2.43 0.97,-2.43 L 0.97,-2.43 Z"></path></g><g transform="translate(100 11) rotate(0 11.5 1)" stroke="none"><path fill="#2f9e44" d="M -0.51,-2.58 Q -0.51,-2.58 0.92,-2.85 2.36,-3.12 4.08,-3.39 5.79,-3.67 6.98,-3.77 8.16,-3.87 9.70,-3.96 11.25,-4.04 13.43,-3.70 15.62,-3.35 17.36,-2.47 19.10,-1.59 21.48,-0.68 23.86,0.22 24.29,0.43 24.71,0.64 25.04,0.98 25.37,1.31 25.57,1.73 25.78,2.16 25.84,2.62 25.90,3.09 25.81,3.55 25.72,4.01 25.49,4.42 25.25,4.83 24.90,5.14 24.55,5.46 24.11,5.64 23.68,5.82 23.21,5.86 22.74,5.89 22.29,5.78 21.83,5.66 21.43,5.41 21.04,5.15 20.75,4.78 20.45,4.41 20.29,3.97 20.13,3.53 20.12,3.06 20.11,2.59 20.25,2.14 20.40,1.69 20.67,1.31 20.95,0.93 21.33,0.65 21.72,0.38 22.17,0.25 22.62,0.11 23.09,0.12 23.56,0.14 24.00,0.31 24.44,0.47 24.81,0.77 25.17,1.06 25.42,1.46 25.67,1.86 25.79,2.32 25.90,2.78 25.86,3.24 25.81,3.71 25.63,4.15 25.44,4.58 25.12,4.93 24.80,5.27 24.39,5.50 23.98,5.73 23.52,5.82 23.06,5.90 22.59,5.84 22.12,5.77 22.12,5.77 22.13,5.77 19.37,4.65 16.62,3.53 15.48,3.01 14.34,2.50 13.29,2.29 12.24,2.09 10.75,2.02 9.26,1.95 7.74,1.88 6.22,1.82 4.80,1.89 3.38,1.97 1.95,2.28 0.51,2.58 0.20,2.61 -0.11,2.63 -0.43,2.58 -0.74,2.53 -1.03,2.40 -1.32,2.28 -1.58,2.08 -1.83,1.89 -2.03,1.65 -2.23,1.40 -2.37,1.11 -2.50,0.82 -2.57,0.51 -2.63,0.20 -2.61,-0.11 -2.60,-0.43 -2.51,-0.73 -2.42,-1.04 -2.26,-1.32 -2.10,-1.59 -1.88,-1.82 -1.66,-2.05 -1.39,-2.22 -1.12,-2.39 -0.82,-2.49 -0.51,-2.58 -0.51,-2.58 L -0.51,-2.58 Z"></path></g><g transform="translate(104 10) rotate(0 -0.5 16.5)" stroke="none"><path fill="#2f9e44" d="M 2.23,0 Q 2.23,0 2.14,2.01 2.05,4.02 1.98,6.03 1.91,8.03 1.83,10.90 1.75,13.76 1.70,15.84 1.65,17.92 1.73,19.38 1.81,20.84 1.98,22.42 2.14,24.00 2.27,25.40 2.39,26.79 2.08,28.51 1.76,30.23 1.62,31.78 1.47,33.32 1.35,33.71 1.24,34.10 1.00,34.42 0.77,34.75 0.44,34.99 0.11,35.23 -0.26,35.35 -0.65,35.47 -1.05,35.46 -1.46,35.45 -1.84,35.31 -2.21,35.17 -2.53,34.92 -2.85,34.67 -3.06,34.33 -3.28,33.99 -3.38,33.60 -3.48,33.21 -3.45,32.80 -3.42,32.40 -3.26,32.03 -3.10,31.66 -2.83,31.36 -2.57,31.06 -2.22,30.86 -1.86,30.66 -1.47,30.58 -1.07,30.50 -0.67,30.55 -0.27,30.61 0.08,30.78 0.44,30.96 0.73,31.25 1.02,31.53 1.20,31.89 1.38,32.25 1.43,32.65 1.49,33.05 1.42,33.45 1.34,33.85 1.14,34.20 0.95,34.55 0.65,34.82 0.35,35.09 -0.01,35.25 -0.38,35.41 -0.79,35.45 -1.19,35.48 -1.58,35.39 -1.97,35.29 -2.31,35.08 -2.65,34.86 -2.91,34.55 -3.16,34.23 -3.30,33.85 -3.44,33.47 -3.46,33.07 -3.47,32.67 -3.47,32.67 -3.47,32.67 -3.19,31.00 -2.91,29.33 -2.65,28.05 -2.39,26.78 -2.27,25.39 -2.14,24.00 -1.98,22.42 -1.81,20.84 -1.73,19.38 -1.65,17.92 -1.70,15.84 -1.75,13.76 -1.83,10.90 -1.91,8.03 -1.98,6.03 -2.05,4.02 -2.14,2.01 -2.23,0 -2.20,-0.26 -2.16,-0.53 -2.07,-0.78 -1.97,-1.03 -1.82,-1.25 -1.67,-1.48 -1.46,-1.65 -1.26,-1.83 -1.02,-1.96 -0.79,-2.08 -0.53,-2.15 -0.26,-2.21 0.00,-2.21 0.26,-2.21 0.53,-2.15 0.79,-2.08 1.03,-1.96 1.26,-1.83 1.46,-1.65 1.67,-1.48 1.82,-1.25 1.97,-1.03 2.07,-0.78 2.16,-0.53 2.20,-0.26 2.23,0.00 2.23,0.00 L 2.23,0 Z"></path></g><g transform="translate(102 28) rotate(0 6.5 -2)" stroke="none"><path fill="#2f9e44" d="M -1.41,-2.12 Q -1.41,-2.12 0.38,-3.15 2.19,-4.18 3.33,-4.80 4.47,-5.41 6.10,-5.91 7.74,-6.41 9.61,-6.12 11.48,-5.83 13.02,-5.08 14.56,-4.33 14.89,-4.02 15.22,-3.71 15.44,-3.31 15.65,-2.91 15.73,-2.46 15.80,-2.01 15.73,-1.56 15.66,-1.11 15.45,-0.71 15.24,-0.31 14.91,0.00 14.59,0.31 14.17,0.50 13.76,0.70 13.31,0.75 12.86,0.80 12.42,0.71 11.97,0.61 11.58,0.38 11.19,0.15 10.89,-0.19 10.60,-0.53 10.43,-0.95 10.25,-1.37 10.23,-1.83 10.20,-2.28 10.32,-2.72 10.44,-3.16 10.69,-3.54 10.94,-3.91 11.30,-4.19 11.66,-4.47 12.09,-4.62 12.52,-4.76 12.98,-4.77 13.43,-4.77 13.86,-4.63 14.30,-4.49 14.66,-4.21 15.02,-3.94 15.28,-3.56 15.54,-3.19 15.66,-2.75 15.79,-2.32 15.76,-1.86 15.74,-1.41 15.58,-0.98 15.41,-0.56 15.12,-0.21 14.83,0.13 14.44,0.36 14.05,0.60 13.61,0.70 13.16,0.80 12.71,0.75 12.26,0.71 11.85,0.52 11.43,0.33 11.43,0.33 11.43,0.33 9.52,-0.48 7.61,-1.30 6.16,-0.85 4.70,-0.41 3.06,0.85 1.41,2.12 1.14,2.26 0.86,2.40 0.56,2.47 0.26,2.54 -0.04,2.53 -0.34,2.53 -0.64,2.45 -0.94,2.37 -1.21,2.22 -1.48,2.08 -1.71,1.87 -1.94,1.66 -2.11,1.40 -2.28,1.15 -2.38,0.86 -2.49,0.57 -2.52,0.26 -2.55,-0.04 -2.51,-0.34 -2.47,-0.65 -2.35,-0.93 -2.24,-1.22 -2.06,-1.47 -1.88,-1.72 -1.65,-1.92 -1.41,-2.12 -1.41,-2.12 L -1.41,-2.12 Z"></path></g><g transform="translate(118 34) rotate(0 0 4.5)" stroke="none"><path fill="#2f9e44" d="M 2.49,0 Q 2.49,0 2.52,1.15 2.55,2.3 2.58,3.36 2.61,4.42 2.69,6.71 2.77,9 2.70,9.44 2.63,9.88 2.42,10.28 2.21,10.68 1.88,10.99 1.55,11.29 1.15,11.48 0.74,11.67 0.29,11.72 -0.15,11.77 -0.58,11.67 -1.02,11.58 -1.41,11.34 -1.79,11.11 -2.09,10.77 -2.38,10.43 -2.54,10.01 -2.71,9.59 -2.73,9.14 -2.76,8.69 -2.64,8.26 -2.52,7.83 -2.26,7.46 -2.01,7.08 -1.65,6.81 -1.30,6.54 -0.87,6.40 -0.44,6.25 0.00,6.25 0.44,6.25 0.87,6.40 1.30,6.54 1.65,6.81 2.01,7.08 2.26,7.46 2.52,7.83 2.64,8.26 2.76,8.70 2.73,9.14 2.71,9.59 2.54,10.01 2.38,10.43 2.08,10.77 1.79,11.11 1.41,11.34 1.02,11.58 0.58,11.67 0.14,11.77 -0.29,11.72 -0.74,11.67 -1.15,11.48 -1.56,11.29 -1.88,10.99 -2.21,10.68 -2.42,10.28 -2.63,9.88 -2.70,9.44 -2.77,8.99 -2.77,8.99 -2.77,9 -2.69,6.71 -2.61,4.42 -2.58,3.36 -2.55,2.3 -2.52,1.15 -2.49,0 -2.45,-0.29 -2.41,-0.59 -2.31,-0.87 -2.20,-1.15 -2.03,-1.40 -1.86,-1.65 -1.64,-1.85 -1.41,-2.05 -1.14,-2.19 -0.88,-2.33 -0.59,-2.40 -0.30,-2.47 0.00,-2.47 0.30,-2.47 0.59,-2.40 0.88,-2.33 1.14,-2.19 1.41,-2.05 1.64,-1.85 1.86,-1.65 2.03,-1.40 2.20,-1.15 2.31,-0.87 2.41,-0.59 2.45,-0.29 2.49,0.00 2.49,0.00 L 2.49,0 Z"></path></g></svg>