<svg version="1.1" xmlns="http://www.w3.org/2000/svg" viewBox="0 0 807.5985839867685 734.9866470733006" width="807.5985839867685" height="734.9866470733006" class="excalidraw-svg"><!-- svg-source:excalidraw --><metadata></metadata><defs><style class="style-fonts">
      </style></defs><rect x="0" y="0" width="807.5985839867685" height="734.9866470733006" fill="#ffffff"></rect><g stroke-linecap="round" transform="translate(209.7366927833948 176.1284302897751) rotate(0 192 192)"><path d="M154.47 4.59 C169.65 -1.93, 187.81 -1.34, 204.8 -0.18 C221.8 0.99, 240.19 5.49, 256.45 11.58 C272.71 17.67, 288.11 26.55, 302.36 36.35 C316.61 46.14, 330.82 56.93, 341.97 70.34 C353.11 83.76, 362.45 100.97, 369.25 116.82 C376.06 132.67, 380.72 148.63, 382.79 165.45 C384.86 182.28, 384.24 200.58, 381.68 217.78 C379.13 234.98, 374.43 252.66, 367.46 268.64 C360.5 284.63, 350.69 300.34, 339.91 313.71 C329.12 327.09, 316.84 338.88, 302.75 348.89 C288.66 358.9, 271.77 368.09, 255.38 373.79 C238.99 379.49, 221.44 382.08, 204.42 383.1 C187.4 384.11, 170.06 383.26, 153.27 379.89 C136.48 376.53, 119.01 370.94, 103.67 362.9 C88.33 354.86, 74.01 343.54, 61.21 331.66 C48.41 319.77, 35.98 306.36, 26.88 291.59 C17.78 276.83, 10.93 259.61, 6.61 243.06 C2.29 226.51, 0.94 209.41, 0.97 192.29 C1 175.17, 2.12 157.06, 6.8 140.34 C11.48 123.61, 20.08 106.92, 29.03 91.95 C37.99 76.97, 48.03 62.34, 60.53 50.49 C73.02 38.64, 86.63 28.84, 103.99 20.86 C121.34 12.88, 152.9 5.35, 164.67 2.6 C176.43 -0.15, 174.12 1.2, 174.58 4.35 M240.44 7.15 C256.95 8.4, 272.98 17.44, 287.83 25.79 C302.67 34.14, 317.24 45.14, 329.51 57.25 C341.79 69.37, 353.29 83.52, 361.46 98.47 C369.63 113.42, 375.03 129.9, 378.54 146.95 C382.05 163.99, 383.12 183.15, 382.51 200.72 C381.89 218.29, 379.83 236.15, 374.86 252.35 C369.88 268.55, 362.42 283.81, 352.66 297.92 C342.89 312.03, 329.37 325.54, 316.26 337.02 C303.14 348.49, 289.57 359.31, 273.97 366.76 C258.36 374.2, 239.93 379.03, 222.63 381.68 C205.32 384.32, 187.41 384.48, 170.15 382.63 C152.89 380.78, 135.09 377.13, 119.04 370.58 C102.99 364.03, 87.58 353.9, 73.87 343.33 C60.17 332.76, 47.11 320.81, 36.81 307.16 C26.52 293.52, 17.97 277.62, 12.13 261.45 C6.29 245.27, 3.12 227.33, 1.78 210.11 C0.43 192.88, 1.3 175.15, 4.06 158.12 C6.81 141.09, 10.7 123.47, 18.31 107.94 C25.92 92.42, 38.25 77.8, 49.73 64.96 C61.21 52.11, 72.94 40.16, 87.21 30.89 C101.47 21.61, 118.8 14.6, 135.3 9.31 C151.8 4.02, 168.79 -0.34, 186.22 -0.83 C203.64 -1.32, 231.15 4.63, 239.86 6.37 C248.57 8.11, 239.58 6.58, 238.48 9.59" stroke="#1e1e1e" stroke-width="2" fill="none"></path></g><g stroke-linecap="round"><g transform="translate(11.736692783394801 366.1284302897751) rotate(0 392.06259920998946 0.2535284375339799)"><path d="M-0.18 0.95 C62.26 1.09, 243.43 -0.17, 374.44 -0.1 C505.44 -0.04, 717.39 1.1, 785.86 1.35 M-1.74 0.4 C60.51 0.73, 241.98 1.06, 373.19 0.86 C504.41 0.65, 716.8 -1.11, 785.55 -0.81" stroke="#1e1e1e" stroke-width="2" fill="none"></path></g><g transform="translate(11.736692783394801 366.1284302897751) rotate(0 392.06259920998946 0.2535284375339799)"><path d="M762.07 7.79 C770.36 4.45, 773.57 4.4, 785.55 -0.81 M762.07 7.79 C768.8 5.42, 776.9 1.72, 785.55 -0.81" stroke="#1e1e1e" stroke-width="2" fill="none"></path></g><g transform="translate(11.736692783394801 366.1284302897751) rotate(0 392.06259920998946 0.2535284375339799)"><path d="M762.04 -9.31 C770.2 -7.81, 773.42 -3.03, 785.55 -0.81 M762.04 -9.31 C768.81 -6.06, 776.92 -4.12, 785.55 -0.81" stroke="#1e1e1e" stroke-width="2" fill="none"></path></g></g><mask></mask><g stroke-linecap="round"><g transform="translate(402.7366927833948 724.1284302897751) rotate(0 -0.19665873242211518 -356.63510675312483)"><path d="M-1.03 -1.15 C-1.05 -120.01, 0.13 -595.5, 0.26 -714.13 M0.63 0.86 C0.44 -117.71, -0.26 -593.4, -0.56 -712.66" stroke="#1e1e1e" stroke-width="2" fill="none"></path></g><g transform="translate(402.7366927833948 724.1284302897751) rotate(0 -0.19665873242211518 -356.63510675312483)"><path d="M8.04 -689.18 C3.46 -696.63, 2.31 -705.3, -0.56 -712.66 M8.04 -689.18 C5.04 -698.91, 1.51 -707.25, -0.56 -712.66" stroke="#1e1e1e" stroke-width="2" fill="none"></path></g><g transform="translate(402.7366927833948 724.1284302897751) rotate(0 -0.19665873242211518 -356.63510675312483)"><path d="M-9.06 -689.15 C-7.96 -696.47, -3.42 -705.14, -0.56 -712.66 M-9.06 -689.15 C-5.38 -698.77, -2.22 -707.12, -0.56 -712.66" stroke="#1e1e1e" stroke-width="2" fill="none"></path></g></g><mask></mask><g stroke-linecap="round"><g transform="translate(401.7366927833948 367.1284302897751) rotate(0 146.4840492405882 -139.01022959725466)"><path d="M-0.16 -0.32 C49.12 -46.37, 245.82 -229.93, 294.68 -275.72 M-1.71 -1.54 C47.56 -48.02, 244.58 -231.79, 294.08 -277.7" stroke="#1e1e1e" stroke-width="2" fill="none"></path></g></g><mask></mask><g transform="translate(362.7366927833948 312.1284302897751) rotate(0 4.5 16.5)" stroke="none"><path fill="#1e1e1e" d="M 3.94,3.37 Q 3.94,3.37 2.22,5.39 0.50,7.41 -1.17,9.49 -2.85,11.57 -3.74,13.62 -4.64,15.68 -4.66,18.21 -4.69,20.74 -2.54,21.49 -0.39,22.23 0.57,24.80 1.55,27.36 4.16,24.64 6.78,21.91 8.32,19.48 9.86,17.05 11.29,13.55 12.72,10.05 9.65,9.36 6.57,8.67 5.72,8.41 4.88,8.15 3.79,7.62 2.70,7.10 1.84,6.25 0.98,5.41 0.43,4.33 -0.10,3.26 -0.28,2.06 -0.45,0.87 -0.24,-0.31 -0.02,-1.50 0.55,-2.55 1.13,-3.61 2.02,-4.43 2.91,-5.24 4.02,-5.73 5.12,-6.22 6.32,-6.33 7.53,-6.44 8.70,-6.16 9.87,-5.88 10.90,-5.24 11.92,-4.60 12.69,-3.67 13.45,-2.73 13.88,-1.60 14.31,-0.47 14.35,0.72 14.40,1.93 14.05,3.09 13.71,4.24 13.02,5.23 12.32,6.22 11.35,6.93 10.38,7.65 9.23,8.01 8.08,8.38 6.87,8.36 5.66,8.34 4.52,7.93 3.39,7.53 2.44,6.78 1.49,6.03 0.83,5.02 0.17,4.01 -0.12,2.84 -0.42,1.67 -0.34,0.47 -0.25,-0.72 0.20,-1.84 0.67,-2.95 1.47,-3.86 2.26,-4.76 3.31,-5.37 4.35,-5.97 5.54,-6.21 6.72,-6.45 7.92,-6.30 9.11,-6.15 9.11,-6.15 9.11,-6.15 13.05,-4.52 16.99,-2.89 19.61,-1.62 22.24,-0.35 24.20,2.55 26.16,5.46 26.50,9.13 26.83,12.80 25.45,15.86 24.06,18.92 23.29,21.38 22.53,23.84 21.18,26.04 19.83,28.25 17.55,30.65 15.26,33.05 13.95,34.79 12.63,36.53 8.87,38.29 5.12,40.06 2.82,39.82 0.53,39.59 -1.78,38.88 -4.10,38.17 -5.96,37.01 -7.83,35.85 -10.08,32.76 -12.33,29.68 -14.26,27.28 -16.18,24.87 -16.70,22.05 -17.22,19.23 -16.89,16.29 -16.57,13.35 -15.39,11.31 -14.22,9.28 -12.61,6.71 -11.01,4.14 -9.20,2.39 -7.40,0.63 -5.67,-1.36 -3.94,-3.37 -3.47,-3.79 -3.01,-4.22 -2.46,-4.52 -1.91,-4.82 -1.31,-4.98 -0.70,-5.14 -0.08,-5.15 0.54,-5.16 1.15,-5.02 1.76,-4.88 2.31,-4.60 2.87,-4.31 3.35,-3.91 3.82,-3.50 4.19,-2.99 4.55,-2.48 4.78,-1.90 5.01,-1.32 5.10,-0.70 5.18,-0.08 5.12,0.53 5.05,1.15 4.84,1.74 4.63,2.33 4.28,2.85 3.94,3.37 3.94,3.37 L 3.94,3.37 Z"></path></g><g transform="translate(529.7366927833948 157.1284302897751) rotate(0 0 21)" stroke="none"><path fill="#1e1e1e" d="M 5.23,0 Q 5.23,0 5.30,2.01 5.36,4.02 5.50,6.76 5.64,9.49 5.80,12.09 5.97,14.70 6.12,17.25 6.27,19.81 6.40,22.78 6.53,25.74 6.61,28.23 6.69,30.71 6.75,33.28 6.81,35.85 6.86,38.92 6.91,42 6.73,43.10 6.55,44.20 6.02,45.19 5.50,46.18 4.69,46.95 3.87,47.72 2.86,48.19 1.84,48.66 0.73,48.78 -0.37,48.90 -1.46,48.66 -2.55,48.42 -3.51,47.84 -4.47,47.26 -5.19,46.41 -5.92,45.56 -6.33,44.52 -6.75,43.48 -6.81,42.36 -6.87,41.25 -6.57,40.17 -6.27,39.09 -5.64,38.17 -5.01,37.24 -4.12,36.56 -3.23,35.89 -2.17,35.53 -1.11,35.17 0.00,35.17 1.11,35.17 2.17,35.53 3.23,35.89 4.12,36.56 5.01,37.24 5.64,38.17 6.27,39.09 6.57,40.17 6.87,41.25 6.81,42.37 6.75,43.48 6.33,44.52 5.92,45.56 5.19,46.41 4.47,47.26 3.51,47.84 2.55,48.42 1.46,48.66 0.37,48.90 -0.73,48.78 -1.85,48.66 -2.86,48.19 -3.88,47.72 -4.69,46.95 -5.50,46.18 -6.02,45.19 -6.55,44.20 -6.73,43.10 -6.91,41.99 -6.91,41.99 -6.91,42 -6.86,38.92 -6.81,35.85 -6.75,33.28 -6.69,30.71 -6.61,28.23 -6.53,25.74 -6.40,22.78 -6.27,19.81 -6.12,17.25 -5.97,14.70 -5.80,12.09 -5.64,9.49 -5.50,6.76 -5.36,4.02 -5.30,2.01 -5.23,0 -5.16,-0.62 -5.08,-1.25 -4.86,-1.84 -4.63,-2.43 -4.27,-2.95 -3.91,-3.47 -3.44,-3.89 -2.97,-4.30 -2.41,-4.60 -1.85,-4.89 -1.24,-5.04 -0.63,-5.19 0.00,-5.19 0.63,-5.19 1.24,-5.04 1.85,-4.89 2.41,-4.60 2.97,-4.30 3.44,-3.89 3.92,-3.47 4.27,-2.95 4.63,-2.43 4.86,-1.84 5.08,-1.25 5.16,-0.62 5.23,0.00 5.23,0.00 L 5.23,0 Z"></path></g><g transform="translate(527.7366927833948 151.1284302897751) rotate(0 12 6.5)" stroke="none"><path fill="#1e1e1e" d="M -1.81,-4.83 Q -1.81,-4.83 0.47,-5.72 2.75,-6.61 5.38,-7.79 8.01,-8.97 10.48,-9.39 12.96,-9.81 16.08,-9.27 19.19,-8.73 21.28,-7.56 23.37,-6.40 25.14,-4.79 26.92,-3.19 27.98,-0.45 29.03,2.28 29.32,5.91 29.61,9.54 28.42,11.76 27.23,13.98 25.38,16.08 23.53,18.18 20.22,19.65 16.90,21.12 15.05,22.22 13.19,23.32 9.11,23.71 5.03,24.10 3.90,23.92 2.76,23.74 1.74,23.21 0.72,22.68 -0.06,21.85 -0.86,21.02 -1.34,19.98 -1.83,18.93 -1.96,17.79 -2.10,16.65 -1.85,15.53 -1.61,14.40 -1.03,13.41 -0.44,12.42 0.42,11.67 1.30,10.92 2.36,10.49 3.43,10.06 4.58,9.99 5.72,9.92 6.83,10.23 7.94,10.53 8.90,11.17 9.85,11.81 10.56,12.72 11.26,13.63 11.63,14.72 12.00,15.81 12.01,16.96 12.02,18.11 11.65,19.20 11.29,20.29 10.60,21.21 9.91,22.13 8.96,22.78 8.01,23.43 6.91,23.74 5.80,24.06 4.65,24.00 3.50,23.95 2.43,23.53 1.36,23.11 0.48,22.37 -0.39,21.63 -0.99,20.64 -1.58,19.66 -1.84,18.54 -2.09,17.42 -1.97,16.27 -1.85,15.13 -1.38,14.08 -0.90,13.04 -0.11,12.20 0.66,11.36 1.68,10.82 2.69,10.27 3.82,10.08 4.96,9.89 4.96,9.89 4.96,9.89 6.43,10.24 7.91,10.59 10.92,9.44 13.92,8.30 16.20,8.44 18.47,8.58 17.07,5.66 15.68,2.74 13.19,2.26 10.69,1.79 8.56,2.48 6.44,3.16 4.12,4.00 1.81,4.83 1.20,4.98 0.60,5.13 -0.01,5.12 -0.64,5.12 -1.24,4.97 -1.85,4.82 -2.40,4.53 -2.95,4.24 -3.41,3.82 -3.88,3.41 -4.23,2.89 -4.58,2.38 -4.80,1.80 -5.02,1.21 -5.09,0.59 -5.16,-0.01 -5.08,-0.63 -5.01,-1.25 -4.78,-1.83 -4.56,-2.41 -4.21,-2.92 -3.85,-3.44 -3.38,-3.85 -2.91,-4.26 -2.36,-4.55 -1.81,-4.83 -1.81,-4.83 L -1.81,-4.83 Z"></path></g><g stroke-linecap="round"><g transform="translate(540.7366927833948 235.1284302897751) rotate(0 1.9406405251612853 65.83879006056581)"><path d="M0.79 0.15 C1.57 22.39, 3.76 110.43, 4.13 132.5 M-0.25 -0.82 C0.43 21.14, 2.32 108.74, 3.25 130.63" stroke="#1e1e1e" stroke-width="2" fill="none"></path></g></g><mask></mask><g transform="translate(550.7366927833948 387.1284302897751) rotate(0 -9 20.5)" stroke="none"><path fill="#1e1e1e" d="M 4.12,2.89 Q 4.12,2.89 2.02,5.68 -0.08,8.48 -0.98,10.72 -1.88,12.96 -2.91,15.51 -3.93,18.05 -4.55,20.15 -5.16,22.24 -6.14,26.49 -7.12,30.74 -7.98,33.22 -8.84,35.70 -9.83,37.79 -10.83,39.87 -12.08,41.95 -13.33,44.03 -13.94,44.69 -14.55,45.36 -15.33,45.79 -16.12,46.23 -17.01,46.39 -17.89,46.55 -18.78,46.43 -19.67,46.30 -20.47,45.89 -21.28,45.48 -21.91,44.84 -22.54,44.20 -22.93,43.39 -23.32,42.58 -23.44,41.69 -23.55,40.80 -23.38,39.92 -23.20,39.03 -22.75,38.25 -22.30,37.47 -21.63,36.88 -20.95,36.28 -20.12,35.94 -19.29,35.59 -18.39,35.52 -17.50,35.46 -16.63,35.68 -15.75,35.91 -15.00,36.40 -14.25,36.89 -13.69,37.59 -13.13,38.30 -12.83,39.15 -12.53,39.99 -12.51,40.89 -12.49,41.79 -12.76,42.65 -13.03,43.51 -13.57,44.23 -14.10,44.96 -14.83,45.48 -15.57,46.00 -16.43,46.25 -17.29,46.51 -18.19,46.48 -19.09,46.45 -19.93,46.13 -20.77,45.81 -21.47,45.24 -22.17,44.67 -22.64,43.91 -23.12,43.15 -23.33,42.27 -23.54,41.40 -23.46,40.50 -23.38,39.61 -23.02,38.78 -22.65,37.96 -22.66,37.96 -22.66,37.96 -21.55,36.42 -20.45,34.88 -18.86,31.62 -17.27,28.36 -16.65,25.92 -16.04,23.48 -15.34,21.30 -14.65,19.12 -13.78,16.73 -12.92,14.34 -11.83,11.75 -10.73,9.16 -9.34,6.09 -7.96,3.01 -6.04,0.06 -4.12,-2.89 -3.72,-3.34 -3.31,-3.79 -2.81,-4.13 -2.31,-4.47 -1.74,-4.68 -1.17,-4.90 -0.57,-4.97 0.03,-5.04 0.63,-4.96 1.23,-4.88 1.80,-4.66 2.37,-4.44 2.86,-4.09 3.36,-3.75 3.76,-3.29 4.16,-2.83 4.44,-2.29 4.72,-1.75 4.86,-1.16 5.00,-0.57 5.00,0.03 4.99,0.64 4.84,1.22 4.70,1.81 4.41,2.35 4.12,2.89 4.12,2.89 L 4.12,2.89 Z"></path></g><g transform="translate(552.7366927833948 391.1284302897751) rotate(0 14.5 17.5)" stroke="none"><path fill="#1e1e1e" d="M 4.84,-1.61 Q 4.84,-1.61 5.71,0.97 6.57,3.56 7.37,7.67 8.17,11.79 8.25,14.46 8.32,17.13 8.28,20.26 8.23,23.39 8.29,25.57 8.35,27.75 8.76,29.20 9.16,30.64 9.09,31.31 9.01,31.98 8.77,32.61 8.53,33.24 8.15,33.80 7.77,34.35 7.27,34.80 6.77,35.25 6.17,35.57 5.57,35.88 4.92,36.05 4.26,36.21 3.59,36.22 2.92,36.22 2.26,36.06 1.60,35.90 1.00,35.59 0.41,35.28 -0.09,34.83 -0.60,34.39 -0.98,33.83 -1.37,33.28 -1.61,32.65 -1.85,32.02 -1.94,31.35 -2.02,30.68 -1.31,28.60 -0.60,26.51 0.43,22.37 1.47,18.23 2.06,16.04 2.65,13.84 3.81,10.42 4.98,7.00 6.59,3.66 8.20,0.32 8.79,-0.68 9.38,-1.70 9.72,-2.39 10.07,-3.08 10.56,-3.67 11.06,-4.26 11.69,-4.71 12.31,-5.16 13.03,-5.46 13.74,-5.75 14.50,-5.86 15.27,-5.97 16.03,-5.89 16.80,-5.82 17.53,-5.56 18.26,-5.31 18.90,-4.88 19.55,-4.46 20.07,-3.90 20.60,-3.33 20.97,-2.66 21.35,-1.98 21.55,-1.24 21.75,-0.49 21.77,0.27 21.79,1.04 21.62,1.79 21.46,2.55 23.66,3.90 25.87,5.25 26.97,7.13 28.07,9.02 29.70,12.48 31.33,15.93 32.23,18.80 33.13,21.66 33.86,25.46 34.59,29.25 35.13,31.32 35.67,33.38 35.76,34.49 35.84,35.60 35.57,36.67 35.29,37.75 34.68,38.68 34.08,39.62 33.21,40.31 32.34,41.00 31.29,41.38 30.25,41.75 29.13,41.77 28.02,41.80 26.96,41.46 25.90,41.13 25.00,40.48 24.10,39.82 23.46,38.91 22.82,38.01 22.50,36.94 22.18,35.88 22.22,34.77 22.25,33.65 22.65,32.61 23.04,31.57 23.74,30.71 24.44,29.85 25.38,29.26 26.32,28.66 27.40,28.40 28.48,28.14 29.59,28.24 30.70,28.34 31.72,28.78 32.74,29.23 33.56,29.98 34.38,30.73 34.92,31.70 35.46,32.67 35.66,33.76 35.87,34.86 35.71,35.96 35.55,37.06 35.05,38.05 34.55,39.04 33.76,39.82 32.97,40.60 31.97,41.09 30.97,41.58 29.86,41.72 28.76,41.86 27.67,41.65 26.58,41.43 25.62,40.88 24.65,40.32 23.92,39.49 23.18,38.66 22.75,37.63 22.31,36.61 22.32,36.61 22.32,36.61 21.62,32.86 20.92,29.11 20.28,26.25 19.64,23.39 19.23,21.23 18.83,19.08 17.72,16.48 16.61,13.87 15.02,11.75 13.43,9.63 12.14,7.44 10.85,5.25 10.12,1.77 9.38,-1.69 9.72,-2.39 10.07,-3.08 10.56,-3.67 11.06,-4.26 11.69,-4.71 12.31,-5.16 13.02,-5.46 13.74,-5.75 14.50,-5.86 15.27,-5.97 16.03,-5.89 16.80,-5.82 17.53,-5.56 18.26,-5.31 18.90,-4.88 19.55,-4.46 20.07,-3.90 20.60,-3.33 20.97,-2.66 21.35,-1.98 21.55,-1.24 21.75,-0.49 21.77,0.27 21.79,1.04 21.63,1.79 21.46,2.55 20.85,3.08 20.25,3.62 18.89,5.66 17.53,7.70 16.50,9.91 15.47,12.13 14.50,14.47 13.52,16.81 12.88,19.12 12.24,21.43 11.56,23.86 10.88,26.28 10.02,28.46 9.16,30.64 9.09,31.31 9.01,31.98 8.77,32.61 8.53,33.24 8.15,33.80 7.77,34.35 7.27,34.80 6.77,35.25 6.17,35.57 5.57,35.88 4.92,36.05 4.27,36.21 3.59,36.22 2.92,36.22 2.26,36.06 1.60,35.90 1.01,35.59 0.41,35.28 -0.09,34.83 -0.60,34.39 -0.98,33.84 -1.37,33.28 -1.61,32.65 -1.85,32.02 -1.94,31.35 -2.02,30.68 -2.20,29.25 -2.38,27.81 -2.35,25.65 -2.31,23.49 -2.41,20.45 -2.52,17.42 -2.57,15.06 -2.63,12.69 -2.88,9.74 -3.12,6.78 -3.98,4.20 -4.84,1.61 -4.96,1.01 -5.08,0.40 -5.06,-0.20 -5.03,-0.82 -4.86,-1.41 -4.69,-2.00 -4.38,-2.53 -4.07,-3.06 -3.65,-3.51 -3.22,-3.95 -2.70,-4.28 -2.18,-4.61 -1.60,-4.80 -1.01,-5.00 -0.40,-5.05 0.20,-5.10 0.81,-5.00 1.42,-4.90 1.98,-4.66 2.55,-4.41 3.04,-4.04 3.53,-3.67 3.92,-3.20 4.31,-2.72 4.57,-2.16 4.84,-1.61 4.84,-1.61 L 4.84,-1.61 Z"></path></g><g transform="translate(445.7366927833948 345.1284302897751) rotate(0 5.5 9)" stroke="none"><path fill="#e03131" d="M 3.91,-2.30 Q 3.91,-2.30 6.57,2.71 9.23,7.72 10.59,10.13 11.96,12.53 13.23,13.86 14.50,15.18 14.86,15.82 15.21,16.45 15.35,17.16 15.49,17.88 15.39,18.60 15.29,19.32 14.96,19.97 14.64,20.62 14.13,21.13 13.61,21.65 12.96,21.97 12.31,22.29 11.59,22.39 10.87,22.49 10.16,22.35 9.44,22.21 8.81,21.85 8.18,21.49 7.69,20.95 7.21,20.41 6.92,19.74 6.64,19.08 6.58,18.35 6.52,17.63 6.69,16.92 6.87,16.22 7.26,15.60 7.65,14.99 8.22,14.54 8.79,14.08 9.47,13.83 10.15,13.58 10.88,13.56 11.60,13.54 12.30,13.76 12.99,13.97 13.58,14.40 14.17,14.82 14.60,15.41 15.02,16.00 15.23,16.70 15.45,17.39 15.43,18.12 15.41,18.85 15.15,19.53 14.90,20.21 14.45,20.78 13.99,21.34 13.38,21.73 12.77,22.12 12.06,22.30 11.36,22.47 10.63,22.41 9.91,22.35 9.24,22.07 8.57,21.78 8.03,21.29 7.49,20.81 7.49,20.81 7.49,20.81 5.95,18.64 4.42,16.47 3.34,14.14 2.26,11.82 -0.82,7.06 -3.91,2.30 -4.13,1.80 -4.35,1.29 -4.44,0.75 -4.53,0.21 -4.49,-0.32 -4.45,-0.87 -4.28,-1.39 -4.12,-1.91 -3.83,-2.37 -3.54,-2.84 -3.15,-3.22 -2.75,-3.60 -2.28,-3.88 -1.81,-4.16 -1.28,-4.32 -0.76,-4.47 -0.21,-4.50 0.32,-4.53 0.86,-4.42 1.40,-4.32 1.90,-4.08 2.39,-3.85 2.82,-3.51 3.25,-3.17 3.58,-2.73 3.91,-2.30 3.91,-2.30 L 3.91,-2.30 Z"></path></g><g transform="translate(461.7366927833948 335.1284302897751) rotate(0 10.5 8)" stroke="none"><path fill="#e03131" d="M 0.75,-5.25 Q 0.75,-5.25 2.84,-5.00 4.92,-4.74 7.57,-3.50 10.21,-2.25 12.40,-0.80 14.59,0.64 16.90,2.17 19.21,3.70 21.40,6.50 23.58,9.30 23.42,9.73 23.25,10.16 23.77,10.73 24.28,11.31 24.65,12.00 25.01,12.69 25.20,13.44 25.39,14.19 25.39,14.97 25.39,15.75 25.21,16.50 25.03,17.26 24.67,17.95 24.31,18.63 23.80,19.22 23.29,19.80 22.65,20.25 22.01,20.69 21.29,20.97 20.56,21.25 19.79,21.34 19.02,21.44 18.25,21.35 17.48,21.26 16.75,20.98 16.02,20.71 15.38,20.27 14.74,19.83 13.81,18.44 12.89,17.04 12.72,16.01 12.55,14.98 12.72,13.96 12.89,12.93 13.38,12.01 13.87,11.09 14.63,10.37 15.39,9.66 16.34,9.22 17.28,8.78 18.32,8.67 19.36,8.56 20.37,8.79 21.39,9.01 22.28,9.55 23.18,10.09 23.85,10.89 24.52,11.68 24.91,12.65 25.29,13.62 25.35,14.66 25.40,15.70 25.12,16.71 24.84,17.71 24.25,18.57 23.66,19.43 22.83,20.06 22.00,20.69 21.01,21.02 20.03,21.36 18.98,21.35 17.94,21.35 16.95,21.02 15.97,20.68 15.14,20.05 14.31,19.42 13.73,18.55 13.14,17.69 12.86,16.68 12.59,15.68 12.65,14.64 12.70,13.60 13.09,12.63 13.48,11.66 14.16,10.87 14.83,10.08 15.73,9.54 16.62,9.00 17.64,8.78 18.66,8.56 19.69,8.67 20.73,8.79 21.68,9.23 22.62,9.67 23.38,10.39 24.13,11.11 23.69,10.63 23.25,10.15 23.77,10.73 24.28,11.31 24.65,12.00 25.01,12.69 25.20,13.44 25.39,14.19 25.39,14.97 25.39,15.75 25.21,16.50 25.03,17.26 24.67,17.95 24.31,18.63 23.80,19.22 23.29,19.80 22.65,20.24 22.01,20.69 21.29,20.97 20.56,21.25 19.79,21.34 19.02,21.44 18.25,21.35 17.48,21.26 16.75,20.98 16.02,20.71 15.38,20.27 14.74,19.83 14.19,18.62 13.64,17.41 12.37,15.11 11.10,12.80 9.19,11.21 7.27,9.62 5.20,7.76 3.12,5.89 1.18,5.57 -0.75,5.25 -1.36,5.09 -1.98,4.92 -2.54,4.61 -3.10,4.30 -3.58,3.87 -4.05,3.43 -4.40,2.90 -4.75,2.36 -4.97,1.76 -5.18,1.16 -5.24,0.52 -5.31,-0.11 -5.22,-0.74 -5.13,-1.38 -4.89,-1.97 -4.65,-2.56 -4.27,-3.08 -3.90,-3.60 -3.41,-4.02 -2.92,-4.43 -2.35,-4.72 -1.77,-5.00 -1.15,-5.14 -0.52,-5.28 0.11,-5.27 0.75,-5.25 0.75,-5.25 L 0.75,-5.25 Z"></path></g><g transform="translate(481.7366927833948 303.1284302897751) rotate(0 11.5 14.5)" stroke="none"><path fill="#e03131" d="M 3.20,-4.11 Q 3.20,-4.11 5.73,-2.03 8.26,0.05 10.35,1.84 12.45,3.64 15.00,5.94 17.55,8.25 18.98,10.14 20.41,12.02 21.48,13.89 22.56,15.75 23.58,17.67 24.61,19.59 25.35,25.77 26.09,31.95 25.49,32.69 24.88,33.42 24.08,33.93 23.27,34.43 22.34,34.65 21.41,34.87 20.46,34.79 19.51,34.70 18.64,34.31 17.77,33.93 17.07,33.28 16.36,32.64 15.90,31.80 15.44,30.97 15.27,30.03 15.10,29.09 15.24,28.15 15.38,27.21 15.81,26.36 16.24,25.51 16.93,24.84 17.61,24.17 18.47,23.76 19.33,23.34 20.27,23.22 21.22,23.11 22.15,23.30 23.09,23.48 23.91,23.96 24.74,24.44 25.37,25.16 25.99,25.87 26.36,26.75 26.73,27.63 26.80,28.58 26.86,29.54 26.62,30.46 26.38,31.38 25.86,32.18 25.34,32.98 24.59,33.57 23.84,34.16 22.94,34.48 22.04,34.79 21.09,34.81 20.14,34.83 19.23,34.54 18.32,34.25 17.55,33.68 16.78,33.12 16.23,32.34 15.69,31.56 15.42,30.64 15.15,29.73 15.18,28.77 15.22,27.82 15.56,26.93 15.90,26.04 15.90,26.04 15.90,26.04 15.98,26.79 16.06,27.53 14.36,24.34 12.65,21.15 11.57,18.78 10.48,16.40 8.11,13.84 5.74,11.27 3.91,9.63 2.08,7.99 -0.55,6.05 -3.20,4.11 -3.65,3.67 -4.09,3.23 -4.42,2.69 -4.75,2.15 -4.94,1.55 -5.13,0.95 -5.17,0.33 -5.21,-0.29 -5.09,-0.91 -4.98,-1.53 -4.73,-2.11 -4.47,-2.68 -4.08,-3.18 -3.70,-3.67 -3.20,-4.06 -2.71,-4.45 -2.14,-4.71 -1.56,-4.97 -0.95,-5.09 -0.33,-5.20 0.29,-5.17 0.92,-5.13 1.52,-4.95 2.12,-4.76 2.66,-4.44 3.20,-4.11 3.20,-4.11 L 3.20,-4.11 Z"></path></g><g transform="translate(501.7366927833948 279.1284302897751) rotate(0 10 13.5)" stroke="none"><path fill="#e03131" d="M 1.28,-5.13 Q 1.28,-5.13 3.59,-4.58 5.89,-4.04 9.91,-1.92 13.92,0.20 15.50,2.30 17.09,4.40 18.27,6.42 19.46,8.44 20.85,11.08 22.25,13.71 23.14,16.02 24.04,18.33 24.57,20.51 25.09,22.68 25.67,24.01 26.24,25.33 26.34,26.37 26.45,27.41 26.21,28.43 25.98,29.45 25.43,30.34 24.88,31.23 24.08,31.90 23.27,32.57 22.30,32.95 21.32,33.32 20.28,33.37 19.23,33.42 18.23,33.13 17.22,32.84 16.36,32.24 15.50,31.64 14.88,30.80 14.25,29.97 13.93,28.97 13.60,27.98 13.61,26.93 13.63,25.88 13.97,24.90 14.31,23.91 14.96,23.08 15.60,22.26 16.47,21.68 17.34,21.10 18.35,20.83 19.36,20.56 20.41,20.63 21.45,20.70 22.42,21.09 23.39,21.49 24.18,22.17 24.97,22.86 25.50,23.76 26.03,24.66 26.24,25.69 26.45,26.71 26.33,27.75 26.21,28.79 25.76,29.73 25.31,30.68 24.58,31.43 23.85,32.18 22.93,32.66 22.00,33.14 20.96,33.30 19.93,33.46 18.90,33.28 17.87,33.10 16.95,32.60 16.03,32.10 15.32,31.33 14.61,30.57 14.18,29.61 13.75,28.66 13.75,28.66 13.75,28.66 13.09,26.38 12.43,24.09 11.73,20.38 11.03,16.66 9.34,13.74 7.65,10.83 5.47,8.58 3.30,6.34 1.00,5.73 -1.28,5.13 -1.87,4.90 -2.47,4.67 -2.99,4.31 -3.52,3.95 -3.94,3.47 -4.36,2.99 -4.66,2.42 -4.95,1.86 -5.10,1.24 -5.25,0.62 -5.25,-0.01 -5.25,-0.65 -5.09,-1.27 -4.94,-1.89 -4.64,-2.45 -4.34,-3.02 -3.92,-3.49 -3.49,-3.97 -2.97,-4.33 -2.44,-4.69 -1.84,-4.91 -1.24,-5.14 -0.61,-5.21 0.01,-5.29 0.65,-5.21 1.28,-5.13 1.28,-5.13 L 1.28,-5.13 Z"></path></g><g transform="translate(723.7366927833948 47.12843028977511) rotate(0 0.5 37)" stroke="none"><path fill="#e03131" d="M 4.73,-1.57 Q 4.73,-1.57 5.88,2.83 7.03,7.23 7.93,10.63 8.84,14.02 9.38,16.46 9.92,18.90 10.40,21.86 10.88,24.82 11.64,27.86 12.40,30.89 12.14,35.58 11.88,40.26 10.66,43.99 9.44,47.71 8.75,49.82 8.06,51.92 7.47,54.54 6.88,57.16 6.06,59.43 5.25,61.71 3.67,63.79 2.08,65.87 1.05,68.25 0.01,70.62 -1.11,72.60 -2.24,74.58 -4.98,77.04 -7.72,79.49 -10.96,79.97 -14.21,80.44 -17.27,80.10 -20.33,79.77 -23.64,76.81 -26.95,73.85 -28.07,70.92 -29.19,67.99 -29.39,65.79 -29.60,63.60 -29.27,60.56 -28.93,57.52 -27.78,53.60 -26.63,49.68 -25.91,46.60 -25.18,43.53 -23.92,41.01 -22.65,38.48 -21.79,36.21 -20.93,33.94 -19.02,30.76 -17.11,27.58 -14.38,26.08 -11.64,24.57 -9.36,24.34 -7.08,24.10 -4.88,24.51 -2.69,24.91 0.28,26.05 3.26,27.19 5.73,28.00 8.20,28.81 10.96,30.27 13.71,31.74 16.11,33.17 18.51,34.60 20.64,34.94 22.78,35.29 23.53,35.02 24.27,34.76 25.42,34.99 26.57,35.22 27.58,35.81 28.60,36.40 29.37,37.28 30.14,38.16 30.59,39.24 31.04,40.32 31.13,41.49 31.21,42.66 30.91,43.80 30.62,44.93 29.98,45.91 29.33,46.89 28.41,47.62 27.49,48.34 26.39,48.73 25.28,49.12 24.11,49.14 22.94,49.16 21.82,48.81 20.70,48.45 19.76,47.75 18.82,47.06 18.14,46.10 17.47,45.14 17.14,44.02 16.81,42.89 16.85,41.72 16.90,40.55 17.31,39.45 17.73,38.36 18.47,37.45 19.22,36.55 20.21,35.93 21.21,35.31 22.35,35.04 23.49,34.77 24.66,34.88 25.82,34.98 26.89,35.46 27.97,35.94 28.83,36.73 29.69,37.52 30.26,38.55 30.82,39.57 31.03,40.73 31.24,41.88 31.07,43.04 30.90,44.20 30.36,45.24 29.83,46.29 28.99,47.11 28.15,47.93 27.10,48.44 26.04,48.94 24.88,49.09 23.72,49.23 23.72,49.23 23.72,49.23 21.09,49.02 18.46,48.80 15.93,48.06 13.39,47.32 9.96,45.66 6.52,44.00 4.48,42.88 2.44,41.76 -0.63,40.49 -3.71,39.22 -6.09,39.27 -8.46,39.32 -9.45,41.74 -10.43,44.16 -11.25,46.13 -12.07,48.10 -12.90,50.63 -13.72,53.16 -14.54,55.85 -15.37,58.55 -15.73,60.70 -16.10,62.85 -16.32,65.13 -16.53,67.41 -14.37,67.36 -12.21,67.30 -10.70,65.17 -9.19,63.03 -7.21,60.15 -5.23,57.26 -4.27,54.48 -3.30,51.71 -1.92,48.20 -0.54,44.69 0.19,41.93 0.93,39.17 1.13,36.60 1.32,34.03 1.51,31.34 1.70,28.66 1.34,25.95 0.98,23.24 0.74,19.77 0.50,16.30 -0.38,13.15 -1.28,10.01 -3.00,5.79 -4.73,1.57 -4.85,0.98 -4.97,0.39 -4.95,-0.20 -4.92,-0.80 -4.76,-1.38 -4.59,-1.95 -4.29,-2.48 -3.99,-3.00 -3.57,-3.43 -3.15,-3.86 -2.64,-4.19 -2.13,-4.51 -1.56,-4.70 -0.99,-4.89 -0.39,-4.94 0.20,-4.98 0.79,-4.89 1.39,-4.79 1.94,-4.55 2.49,-4.32 2.98,-3.96 3.46,-3.59 3.84,-3.13 4.22,-2.66 4.47,-2.12 4.73,-1.57 4.73,-1.57 L 4.73,-1.57 Z"></path></g><g transform="translate(606.7366927833948 209.1284302897751) rotate(0 -5 22.5)" stroke="none"><path fill="#e03131" d="M 4.36,2.90 Q 4.36,2.90 2.58,5.45 0.80,8.01 -1.21,11.21 -3.23,14.42 -3.58,17.39 -3.93,20.35 -3.46,23.12 -2.98,25.89 -2.31,29.69 -1.65,33.50 -0.61,35.67 0.43,37.84 1.87,38.82 3.31,39.80 4.03,40.63 4.75,41.46 5.16,42.47 5.58,43.48 5.65,44.57 5.72,45.66 5.43,46.71 5.15,47.77 4.55,48.68 3.94,49.59 3.08,50.26 2.22,50.93 1.19,51.29 0.15,51.65 -0.93,51.66 -2.02,51.67 -3.06,51.33 -4.10,50.99 -4.97,50.34 -5.85,49.69 -6.47,48.79 -7.10,47.89 -7.40,46.84 -7.70,45.79 -7.65,44.70 -7.60,43.61 -7.21,42.59 -6.82,41.57 -6.12,40.73 -5.42,39.89 -4.49,39.32 -3.56,38.75 -2.49,38.50 -1.43,38.26 -0.34,38.36 0.74,38.47 1.73,38.92 2.73,39.37 3.53,40.11 4.33,40.86 4.85,41.82 5.37,42.78 5.56,43.85 5.75,44.93 5.58,46.01 5.42,47.09 4.91,48.06 4.41,49.03 3.63,49.79 2.84,50.55 1.85,51.02 0.87,51.48 -0.21,51.61 -1.29,51.74 -2.36,51.52 -3.43,51.29 -4.37,50.74 -5.32,50.18 -5.32,50.19 -5.31,50.19 -8.28,47.39 -11.24,44.60 -12.45,41.75 -13.65,38.91 -14.09,36.50 -14.52,34.09 -14.94,30.94 -15.36,27.79 -15.72,25.36 -16.07,22.93 -15.91,20.03 -15.75,17.14 -15.07,14.60 -14.39,12.07 -13.09,9.92 -11.78,7.76 -9.74,5.05 -7.70,2.33 -6.03,-0.28 -4.36,-2.90 -3.95,-3.38 -3.54,-3.86 -3.02,-4.23 -2.51,-4.60 -1.92,-4.83 -1.33,-5.07 -0.71,-5.15 -0.08,-5.24 0.54,-5.17 1.17,-5.11 1.76,-4.89 2.36,-4.68 2.88,-4.33 3.41,-3.98 3.84,-3.51 4.26,-3.04 4.57,-2.49 4.87,-1.93 5.03,-1.32 5.19,-0.71 5.20,-0.08 5.21,0.54 5.07,1.16 4.93,1.78 4.64,2.34 4.36,2.90 4.36,2.90 L 4.36,2.90 Z"></path></g><g transform="translate(627.7366927833948 216.1284302897751) rotate(0 13.5 17.5)" stroke="none"><path fill="#e03131" d="M 3.06,-4.08 Q 3.06,-4.08 5.36,-2.34 7.66,-0.59 10.33,2.60 13.00,5.80 14.79,8.32 16.58,10.84 18.51,13.69 20.45,16.55 22.00,18.54 23.55,20.53 24.99,22.17 26.43,23.81 27.55,25.72 28.68,27.63 29.87,29.16 31.07,30.69 31.65,31.45 32.23,32.21 32.54,33.12 32.84,34.03 32.84,34.99 32.85,35.95 32.54,36.86 32.23,37.77 31.65,38.53 31.08,39.29 30.28,39.83 29.49,40.37 28.56,40.63 27.64,40.89 26.68,40.84 25.73,40.78 24.83,40.43 23.94,40.08 23.21,39.46 22.48,38.84 21.99,38.01 21.49,37.19 21.28,36.26 21.08,35.32 21.18,34.37 21.28,33.41 21.68,32.54 22.09,31.67 22.75,30.98 23.40,30.28 24.25,29.83 25.10,29.38 26.04,29.22 26.99,29.07 27.94,29.22 28.88,29.38 29.73,29.83 30.58,30.27 31.24,30.97 31.90,31.66 32.30,32.53 32.70,33.40 32.81,34.36 32.91,35.31 32.71,36.25 32.50,37.18 32.01,38.01 31.52,38.83 30.78,39.45 30.05,40.07 29.16,40.43 28.27,40.78 27.32,40.84 26.36,40.89 25.43,40.63 24.51,40.38 23.72,39.84 22.92,39.30 22.92,39.30 22.92,39.30 20.71,36.33 18.50,33.36 16.95,30.67 15.40,27.99 13.44,24.88 11.48,21.78 10.07,19.04 8.67,16.30 7.26,14.19 5.85,12.07 3.69,9.78 1.53,7.49 -0.76,5.79 -3.06,4.08 -3.50,3.65 -3.95,3.23 -4.28,2.71 -4.61,2.19 -4.80,1.60 -5.00,1.02 -5.05,0.41 -5.10,-0.20 -5.00,-0.80 -4.90,-1.41 -4.66,-1.98 -4.42,-2.54 -4.05,-3.04 -3.68,-3.53 -3.20,-3.92 -2.73,-4.31 -2.17,-4.57 -1.62,-4.84 -1.01,-4.96 -0.41,-5.08 0.19,-5.06 0.81,-5.04 1.40,-4.87 1.99,-4.69 2.53,-4.39 3.06,-4.08 3.06,-4.08 L 3.06,-4.08 Z"></path></g><g transform="translate(655.7366927833948 215.1284302897751) rotate(0 -15 16.5)" stroke="none"><path fill="#e03131" d="M 2.93,3.91 Q 2.93,3.91 0.63,5.64 -1.65,7.37 -4.90,10.48 -8.14,13.60 -10.19,16.01 -12.24,18.41 -13.92,20.58 -15.60,22.75 -17.46,25.28 -19.32,27.81 -20.72,29.69 -22.12,31.57 -24.11,34.07 -26.11,36.56 -26.78,37.09 -27.45,37.62 -28.25,37.90 -29.06,38.19 -29.91,38.20 -30.76,38.22 -31.58,37.96 -32.39,37.70 -33.08,37.19 -33.77,36.69 -34.26,35.99 -34.75,35.29 -34.99,34.47 -35.23,33.65 -35.20,32.80 -35.17,31.94 -34.86,31.15 -34.56,30.35 -34.02,29.69 -33.48,29.03 -32.75,28.58 -32.03,28.12 -31.20,27.93 -30.37,27.73 -29.52,27.81 -28.66,27.89 -27.88,28.23 -27.10,28.58 -26.47,29.16 -25.84,29.73 -25.43,30.48 -25.02,31.23 -24.87,32.07 -24.72,32.91 -24.84,33.76 -24.97,34.60 -25.35,35.36 -25.74,36.12 -26.35,36.72 -26.96,37.32 -27.73,37.69 -28.50,38.06 -29.35,38.16 -30.20,38.27 -31.03,38.10 -31.87,37.93 -32.61,37.50 -33.35,37.07 -33.91,36.43 -34.47,35.79 -34.80,35.00 -35.13,34.21 -35.19,33.36 -35.25,32.51 -35.04,31.68 -34.82,30.86 -34.35,30.14 -33.88,29.43 -33.88,29.43 -33.88,29.43 -32.74,28.29 -31.60,27.14 -29.35,24.73 -27.09,22.31 -25.18,19.52 -23.27,16.73 -21.49,14.49 -19.71,12.26 -17.68,9.71 -15.65,7.16 -11.59,3.34 -7.54,-0.47 -5.23,-2.19 -2.93,-3.91 -2.42,-4.21 -1.91,-4.50 -1.34,-4.67 -0.78,-4.83 -0.19,-4.85 0.39,-4.88 0.97,-4.76 1.55,-4.64 2.08,-4.38 2.62,-4.13 3.07,-3.76 3.53,-3.38 3.88,-2.91 4.24,-2.44 4.47,-1.90 4.70,-1.35 4.79,-0.77 4.89,-0.19 4.84,0.39 4.79,0.98 4.60,1.54 4.42,2.10 4.10,2.60 3.78,3.10 3.36,3.50 2.93,3.91 2.93,3.91 L 2.93,3.91 Z"></path></g><g transform="translate(688.7366927833948 251.1284302897751) rotate(0 -3.5 6.5)" stroke="none"><path fill="#e03131" d="M 4.90,1.22 Q 4.90,1.22 4.38,3.53 3.85,5.85 2.71,9.03 1.57,12.21 -0.90,14.80 -3.37,17.40 -4.17,17.86 -4.97,18.32 -5.87,18.51 -6.78,18.69 -7.69,18.58 -8.61,18.46 -9.44,18.06 -10.27,17.66 -10.93,17.02 -11.59,16.37 -12.00,15.55 -12.42,14.73 -12.56,13.82 -12.69,12.90 -12.53,12.00 -12.37,11.09 -11.92,10.28 -11.48,9.47 -10.80,8.85 -10.12,8.23 -9.27,7.85 -8.43,7.48 -7.51,7.40 -6.60,7.31 -5.70,7.52 -4.80,7.74 -4.02,8.22 -3.24,8.71 -2.65,9.42 -2.07,10.14 -1.74,11.00 -1.41,11.86 -1.38,12.78 -1.34,13.70 -1.60,14.59 -1.86,15.47 -2.39,16.22 -2.92,16.98 -3.66,17.53 -4.41,18.07 -5.28,18.35 -6.16,18.63 -7.09,18.62 -8.01,18.60 -8.88,18.29 -9.74,17.99 -10.47,17.42 -11.19,16.85 -11.70,16.08 -12.20,15.30 -12.44,14.41 -12.67,13.52 -12.60,12.60 -12.54,11.68 -12.18,10.83 -11.83,9.98 -11.22,9.29 -10.61,8.59 -10.61,8.59 -10.62,8.59 -9.62,8.06 -8.63,7.53 -7.39,5.44 -6.15,3.34 -5.53,1.06 -4.90,-1.22 -4.69,-1.79 -4.47,-2.36 -4.12,-2.86 -3.77,-3.36 -3.31,-3.77 -2.86,-4.17 -2.31,-4.45 -1.77,-4.73 -1.18,-4.88 -0.59,-5.02 0.01,-5.02 0.62,-5.02 1.21,-4.87 1.81,-4.72 2.34,-4.43 2.88,-4.15 3.34,-3.74 3.79,-3.34 4.14,-2.83 4.48,-2.33 4.70,-1.76 4.91,-1.19 4.98,-0.58 5.05,0.01 4.98,0.62 4.90,1.22 4.90,1.22 L 4.90,1.22 Z"></path></g><g transform="translate(712.7366927833948 212.1284302897751) rotate(0 10.5 7.5)" stroke="none"><path fill="#e03131" d="M 2.22,-4.45 Q 2.22,-4.45 4.54,-3.33 6.87,-2.21 9.10,-0.68 11.33,0.83 13.30,2.25 15.27,3.67 17.26,5.12 19.25,6.58 21.89,8.71 24.53,10.84 25.10,11.51 25.67,12.19 26.00,13.01 26.32,13.83 26.37,14.71 26.42,15.59 26.18,16.44 25.94,17.29 25.45,18.02 24.95,18.75 24.25,19.28 23.55,19.81 22.71,20.10 21.87,20.38 20.99,20.38 20.11,20.38 19.27,20.09 18.44,19.81 17.74,19.28 17.03,18.74 16.54,18.01 16.04,17.28 15.81,16.43 15.57,15.58 15.62,14.70 15.67,13.82 16.00,13.00 16.32,12.18 16.90,11.51 17.47,10.84 18.22,10.38 18.98,9.93 19.84,9.74 20.70,9.55 21.58,9.65 22.46,9.74 23.26,10.11 24.06,10.48 24.70,11.09 25.34,11.70 25.75,12.48 26.16,13.26 26.31,14.13 26.45,15.00 26.30,15.87 26.16,16.74 25.75,17.52 25.33,18.30 24.69,18.90 24.05,19.51 23.25,19.88 22.45,20.25 21.57,20.35 20.70,20.44 19.83,20.25 18.97,20.06 18.22,19.60 17.46,19.15 17.46,19.15 17.46,19.15 15.19,17.10 12.91,15.05 10.96,13.56 9.01,12.08 5.67,9.44 2.32,6.81 0.05,5.63 -2.22,4.45 -2.73,4.12 -3.23,3.79 -3.63,3.35 -4.04,2.91 -4.33,2.38 -4.62,1.85 -4.77,1.27 -4.93,0.69 -4.94,0.09 -4.95,-0.50 -4.82,-1.08 -4.69,-1.67 -4.42,-2.21 -4.15,-2.75 -3.76,-3.20 -3.37,-3.66 -2.89,-4.01 -2.40,-4.36 -1.84,-4.59 -1.28,-4.81 -0.69,-4.89 -0.09,-4.98 0.50,-4.92 1.09,-4.86 1.66,-4.65 2.22,-4.45 2.22,-4.45 L 2.22,-4.45 Z"></path></g><g transform="translate(742.7366927833948 208.1284302897751) rotate(0 -5.5 24.5)" stroke="none"><path fill="#e03131" d="M 5.10,0 Q 5.10,0 4.98,3.45 4.86,6.91 4.20,10.52 3.53,14.12 3.02,16.94 2.50,19.76 2.41,22.85 2.33,25.93 1.99,28.67 1.66,31.40 1.38,34.49 1.11,37.59 0.25,39.82 -0.61,42.05 -1.79,44.83 -2.96,47.61 -4.30,49.87 -5.63,52.13 -6.27,52.90 -6.91,53.68 -7.77,54.21 -8.62,54.74 -9.60,54.96 -10.58,55.19 -11.58,55.10 -12.58,55.00 -13.50,54.59 -14.42,54.18 -15.15,53.50 -15.89,52.82 -16.37,51.93 -16.86,51.05 -17.03,50.06 -17.21,49.07 -17.06,48.08 -16.91,47.09 -16.45,46.19 -15.99,45.30 -15.27,44.60 -14.54,43.90 -13.64,43.46 -12.73,43.03 -11.73,42.91 -10.74,42.79 -9.75,42.99 -8.77,43.20 -7.90,43.70 -7.03,44.21 -6.37,44.97 -5.71,45.73 -5.33,46.66 -4.95,47.58 -4.88,48.59 -4.81,49.59 -5.07,50.56 -5.33,51.53 -5.88,52.37 -6.43,53.21 -7.23,53.83 -8.02,54.45 -8.97,54.78 -9.91,55.11 -10.92,55.12 -11.92,55.14 -12.88,54.83 -13.84,54.52 -14.64,53.92 -15.45,53.32 -16.03,52.50 -16.60,51.67 -16.88,50.71 -17.16,49.74 -17.12,48.74 -17.08,47.73 -16.72,46.80 -16.36,45.86 -16.36,45.86 -16.36,45.86 -14.51,43.23 -12.66,40.59 -11.42,38.00 -10.19,35.41 -9.72,32.60 -9.25,29.79 -8.65,27.54 -8.05,25.29 -7.49,21.63 -6.93,17.97 -6.38,15.20 -5.83,12.43 -5.35,9.66 -4.86,6.88 -4.98,3.44 -5.10,0 -5.02,-0.61 -4.95,-1.22 -4.73,-1.79 -4.51,-2.37 -4.16,-2.87 -3.81,-3.38 -3.35,-3.79 -2.89,-4.20 -2.35,-4.48 -1.80,-4.77 -1.21,-4.91 -0.61,-5.06 0.00,-5.06 0.61,-5.06 1.21,-4.91 1.81,-4.77 2.35,-4.48 2.89,-4.19 3.35,-3.79 3.82,-3.38 4.16,-2.87 4.51,-2.37 4.73,-1.79 4.95,-1.22 5.02,-0.61 5.10,0.00 5.10,0.00 L 5.10,0 Z"></path></g><g transform="translate(765.7366927833948 186.1284302897751) rotate(0 9 36)" stroke="none"><path fill="#e03131" d="M 2.50,-4.17 Q 2.50,-4.17 5.34,-2.38 8.19,-0.59 10.38,1.20 12.58,3.00 14.94,5.73 17.30,8.45 19.25,12.44 21.21,16.43 21.65,19.22 22.10,22.01 22.43,24.95 22.76,27.89 22.78,31.69 22.81,35.49 22.93,37.91 23.05,40.34 22.85,42.64 22.64,44.95 22.12,47.56 21.60,50.17 20.35,52.69 19.11,55.20 17.79,58.11 16.48,61.01 14.71,64.26 12.94,67.52 12.12,70.44 11.29,73.36 10.91,74.33 10.52,75.30 9.85,76.10 9.18,76.89 8.29,77.43 7.40,77.97 6.38,78.20 5.36,78.43 4.33,78.32 3.29,78.21 2.34,77.77 1.39,77.34 0.64,76.62 -0.11,75.91 -0.60,74.99 -1.09,74.07 -1.27,73.04 -1.44,72.01 -1.27,70.98 -1.11,69.96 -0.62,69.03 -0.13,68.11 0.61,67.39 1.36,66.67 2.31,66.23 3.25,65.79 4.29,65.68 5.33,65.56 6.34,65.78 7.36,66.00 8.26,66.54 9.15,67.07 9.83,67.87 10.51,68.66 10.89,69.63 11.28,70.59 11.34,71.63 11.40,72.67 11.13,73.68 10.85,74.68 10.27,75.55 9.68,76.41 8.86,77.05 8.03,77.68 7.04,78.01 6.05,78.35 5.01,78.35 3.97,78.35 2.98,78.02 1.99,77.69 1.16,77.07 0.33,76.44 -0.25,75.58 -0.83,74.72 -1.12,73.71 -1.40,72.71 -1.34,71.67 -1.29,70.63 -1.29,70.63 -1.29,70.63 -0.07,67.07 1.13,63.50 2.87,60.49 4.61,57.49 5.86,55.11 7.11,52.73 9.42,49.25 11.73,45.76 12.23,43.20 12.72,40.63 12.70,38.31 12.67,35.98 12.35,32.67 12.03,29.36 11.54,26.39 11.06,23.42 10.50,20.30 9.94,17.19 8.74,14.79 7.55,12.40 5.43,9.94 3.30,7.49 0.40,5.83 -2.50,4.17 -2.96,3.81 -3.43,3.45 -3.79,2.99 -4.16,2.53 -4.40,1.99 -4.64,1.46 -4.75,0.88 -4.86,0.31 -4.82,-0.27 -4.79,-0.86 -4.62,-1.42 -4.44,-1.98 -4.14,-2.48 -3.84,-2.99 -3.43,-3.40 -3.01,-3.82 -2.51,-4.13 -2.01,-4.43 -1.45,-4.61 -0.89,-4.78 -0.30,-4.82 0.27,-4.86 0.85,-4.75 1.43,-4.65 1.97,-4.41 2.50,-4.17 2.50,-4.17 L 2.50,-4.17 Z"></path></g><g transform="translate(504.7366927833948 327.1284302897751) rotate(0 4.5 12.5)" stroke="none"><path fill="#e03131" d="M 3.70,-3.70 Q 3.70,-3.70 5.18,-2.30 6.67,-0.91 8.51,1.15 10.35,3.22 11.51,5.20 12.67,7.17 13.79,9.72 14.92,12.26 15.09,14.40 15.26,16.54 15.37,18.83 15.48,21.12 15.50,23.06 15.52,24.99 15.35,26.04 15.18,27.08 14.69,28.01 14.19,28.95 13.43,29.67 12.66,30.40 11.70,30.84 10.74,31.29 9.69,31.40 8.64,31.52 7.61,31.29 6.58,31.06 5.67,30.52 4.77,29.97 4.08,29.17 3.40,28.36 3.01,27.38 2.62,26.40 2.56,25.35 2.50,24.29 2.79,23.27 3.07,22.25 3.66,21.38 4.25,20.51 5.09,19.87 5.94,19.23 6.94,18.89 7.94,18.55 8.99,18.55 10.05,18.55 11.05,18.89 12.05,19.23 12.89,19.86 13.74,20.50 14.33,21.38 14.92,22.25 15.20,23.27 15.49,24.29 15.43,25.34 15.37,26.40 14.98,27.38 14.59,28.36 13.91,29.17 13.22,29.97 12.32,30.52 11.41,31.06 10.38,31.29 9.35,31.52 8.30,31.40 7.25,31.29 6.29,30.84 5.33,30.40 4.56,29.67 3.80,28.95 3.30,28.01 2.81,27.08 2.64,26.04 2.47,25.00 2.47,25.00 2.47,25.00 2.52,22.49 2.56,19.99 2.99,17.22 3.42,14.46 2.54,12.44 1.66,10.43 0.37,8.54 -0.92,6.66 -2.31,5.18 -3.70,3.70 -4.09,3.20 -4.48,2.70 -4.74,2.13 -5.00,1.55 -5.11,0.93 -5.22,0.31 -5.19,-0.31 -5.15,-0.94 -4.96,-1.54 -4.77,-2.15 -4.45,-2.69 -4.12,-3.23 -3.67,-3.67 -3.23,-4.12 -2.68,-4.45 -2.14,-4.77 -1.54,-4.96 -0.94,-5.15 -0.31,-5.19 0.31,-5.22 0.93,-5.11 1.55,-5.00 2.13,-4.74 2.71,-4.48 3.20,-4.09 3.70,-3.70 3.70,-3.70 L 3.70,-3.70 Z"></path></g><g transform="translate(519.7366927833948 300.1284302897751) rotate(0 3.5 13)" stroke="none"><path fill="#e03131" d="M 3.30,-3.96 Q 3.30,-3.96 5.07,-2.56 6.83,-1.15 8.70,1.26 10.58,3.68 11.29,5.69 12.00,7.70 12.52,10.32 13.05,12.94 13.18,15.34 13.32,17.74 13.43,19.99 13.55,22.24 13.57,24.12 13.59,25.99 13.42,27.05 13.24,28.10 12.74,29.04 12.25,29.99 11.47,30.72 10.70,31.45 9.73,31.90 8.76,32.35 7.70,32.46 6.64,32.58 5.60,32.35 4.55,32.12 3.64,31.57 2.73,31.02 2.03,30.21 1.34,29.39 0.95,28.40 0.55,27.41 0.50,26.35 0.44,25.28 0.72,24.25 1.01,23.23 1.61,22.34 2.21,21.46 3.06,20.81 3.91,20.17 4.92,19.83 5.93,19.49 7.00,19.49 8.06,19.49 9.07,19.83 10.08,20.17 10.93,20.81 11.78,21.46 12.38,22.34 12.98,23.23 13.27,24.26 13.55,25.28 13.49,26.35 13.44,27.41 13.04,28.40 12.65,29.40 11.95,30.21 11.26,31.02 10.35,31.57 9.43,32.12 8.39,32.35 7.35,32.58 6.29,32.46 5.23,32.35 4.26,31.90 3.29,31.45 2.52,30.72 1.74,29.98 1.24,29.04 0.74,28.10 0.57,27.05 0.40,25.99 0.40,25.99 0.40,26.00 0.42,24.12 0.44,22.24 0.55,20.00 0.66,17.77 0.87,14.84 1.07,11.92 0.57,9.41 0.06,6.90 -1.62,5.43 -3.30,3.96 -3.73,3.51 -4.15,3.06 -4.46,2.51 -4.77,1.97 -4.93,1.37 -5.10,0.77 -5.12,0.15 -5.14,-0.46 -5.01,-1.07 -4.88,-1.68 -4.60,-2.24 -4.33,-2.80 -3.93,-3.28 -3.53,-3.76 -3.03,-4.12 -2.53,-4.49 -1.96,-4.73 -1.38,-4.97 -0.77,-5.06 -0.15,-5.16 0.46,-5.10 1.08,-5.04 1.67,-4.84 2.26,-4.64 2.78,-4.30 3.30,-3.96 3.30,-3.96 L 3.30,-3.96 Z"></path></g><g transform="translate(29.7366927833948 638.1284302897751) rotate(0 0.00004999999998744897 0.00005000000000165983)" stroke="none"><path fill="#e03131" d="M 3.14,-3.14 Q 3.14,-3.14 3.55,-2.55 3.97,-1.97 4.18,-1.28 4.40,-0.59 4.38,0.11 4.36,0.83 4.11,1.51 3.86,2.18 3.41,2.74 2.96,3.30 2.36,3.69 1.75,4.08 1.05,4.25 0.36,4.42 -0.35,4.36 -1.07,4.31 -1.73,4.02 -2.39,3.74 -2.92,3.26 -3.46,2.78 -3.81,2.15 -4.16,1.53 -4.30,0.82 -4.43,0.11 -4.34,-0.59 -4.24,-1.30 -3.92,-1.94 -3.60,-2.59 -3.09,-3.09 -2.59,-3.60 -1.94,-3.92 -1.30,-4.24 -0.59,-4.34 0.12,-4.43 0.82,-4.30 1.53,-4.16 2.15,-3.81 2.78,-3.46 3.26,-2.92 3.74,-2.39 4.02,-1.73 4.31,-1.07 4.36,-0.35 4.42,0.36 4.25,1.05 4.07,1.75 3.69,2.36 3.30,2.96 2.74,3.41 2.18,3.86 1.51,4.11 0.83,4.36 0.11,4.38 -0.60,4.40 -1.28,4.18 -1.97,3.97 -2.55,3.55 -3.14,3.13 -3.14,3.14 -3.14,3.14 -3.47,2.71 -3.80,2.29 -4.02,1.80 -4.24,1.32 -4.33,0.79 -4.43,0.26 -4.40,-0.26 -4.36,-0.80 -4.20,-1.31 -4.04,-1.82 -3.77,-2.28 -3.49,-2.73 -3.11,-3.11 -2.73,-3.49 -2.28,-3.77 -1.82,-4.05 -1.31,-4.20 -0.80,-4.36 -0.26,-4.40 0.26,-4.43 0.79,-4.33 1.32,-4.24 1.80,-4.02 2.29,-3.80 2.71,-3.47 3.14,-3.14 3.14,-3.14 L 3.14,-3.14 Z"></path></g></svg>