<svg version="1.1" xmlns="http://www.w3.org/2000/svg" viewBox="0 0 903.4250648275017 672.7466090440751" width="903.4250648275017" height="672.7466090440751" class="excalidraw-svg"><!-- svg-source:excalidraw --><metadata></metadata><defs><style class="style-fonts">
      </style></defs><rect x="0" y="0" width="903.4250648275017" height="672.7466090440751" fill="#ffffff"></rect><g stroke-linecap="round"><g transform="translate(358.4721283804346 279.9151575945318) rotate(0 106.74837491288781 -2.0945799924433146)"><path d="M0.89 -1.03 C36.44 -1.68, 177.35 -2.82, 212.61 -3.16" stroke="#e03131" stroke-width="1.5" fill="none" stroke-dasharray="8 9"></path></g></g><mask></mask><g stroke-linecap="round"><g transform="translate(11.472128380434583 444.9151575945318) rotate(0 440.2404040333163 0.3279090642914735)"><path d="M-0.01 -0.76 C146.75 -0.84, 733.09 -0.74, 879.85 -0.8 M-1.47 1.45 C145.7 1.54, 735.13 0.62, 881.95 0.32" stroke="#1e1e1e" stroke-width="2" fill="none"></path></g><g transform="translate(11.472128380434583 444.9151575945318) rotate(0 440.2404040333163 0.3279090642914735)"><path d="M858.48 8.91 C862.86 4.92, 868.43 3.98, 881.95 0.32 M858.48 8.91 C863.2 7.6, 867.5 4.87, 881.95 0.32" stroke="#1e1e1e" stroke-width="2" fill="none"></path></g><g transform="translate(11.472128380434583 444.9151575945318) rotate(0 440.2404040333163 0.3279090642914735)"><path d="M858.45 -8.19 C862.79 -8.07, 868.36 -4.92, 881.95 0.32 M858.45 -8.19 C863.21 -5.96, 867.51 -5.15, 881.95 0.32" stroke="#1e1e1e" stroke-width="2" fill="none"></path></g></g><mask></mask><g stroke-linecap="round"><g transform="translate(121.47212838043458 662.9151575945318) rotate(0 -0.006386319176129973 -326.5418530724943)"><path d="M0.94 -0.17 C1.11 -108.86, 0.35 -544.17, -0.01 -652.92 M-0.02 -1.3 C0.08 -109.8, -1.15 -543.46, -0.96 -651.86" stroke="#1e1e1e" stroke-width="2" fill="none"></path></g><g transform="translate(121.47212838043458 662.9151575945318) rotate(0 -0.006386319176129973 -326.5418530724943)"><path d="M7.61 -628.37 C5.64 -633.37, 2.55 -640.36, -0.96 -651.86 M7.61 -628.37 C4.83 -634.44, 2.52 -639.71, -0.96 -651.86" stroke="#1e1e1e" stroke-width="2" fill="none"></path></g><g transform="translate(121.47212838043458 662.9151575945318) rotate(0 -0.006386319176129973 -326.5418530724943)"><path d="M-9.49 -628.36 C-7.78 -633.49, -7.19 -640.49, -0.96 -651.86 M-9.49 -628.36 C-8.1 -634.58, -6.23 -639.86, -0.96 -651.86" stroke="#1e1e1e" stroke-width="2" fill="none"></path></g></g><mask></mask><g transform="translate(115.47212838043458 132.91515759453182) rotate(0 12.5 10)" stroke="none"><path fill="#1e1e1e" d="M 0,-2.22 Q 0,-2.22 6.04,-2.10 12.09,-1.98 15.46,-0.99 18.84,-0.01 20.37,0.65 21.90,1.32 22.78,2.02 23.66,2.72 24.42,4.61 25.18,6.51 25.64,9.07 26.11,11.62 26.42,13.07 26.73,14.52 26.67,16.02 26.61,17.53 25.85,18.48 25.10,19.44 23.90,19.83 22.71,20.21 21.23,20.81 19.76,21.41 18.65,21.96 17.55,22.52 16.48,22.65 15.42,22.78 14.15,22.88 12.88,22.98 11.31,23.06 9.75,23.13 7.52,22.01 5.29,20.89 4.80,19.92 4.30,18.94 4.13,17.40 3.95,15.87 3.92,14.76 3.88,13.65 3.63,12.07 3.39,10.49 2.97,8.97 2.54,7.44 1.75,5.24 0.95,3.03 0.87,2.52 0.78,2.01 0.86,1.49 0.95,0.98 1.19,0.52 1.43,0.06 1.81,-0.29 2.18,-0.65 2.65,-0.87 3.12,-1.09 3.64,-1.15 4.16,-1.20 4.67,-1.09 5.17,-0.98 5.62,-0.72 6.07,-0.45 6.41,-0.06 6.74,0.33 6.94,0.81 7.13,1.29 7.16,1.81 7.19,2.33 7.05,2.83 6.92,3.33 6.63,3.77 6.34,4.20 5.92,4.51 5.51,4.83 5.02,5.00 4.53,5.17 4.01,5.17 3.49,5.17 2.99,5.00 2.50,4.84 2.08,4.53 1.67,4.21 1.38,3.78 1.08,3.35 0.94,2.85 0.80,2.35 0.83,1.83 0.85,1.31 1.04,0.83 1.24,0.35 1.57,-0.04 1.91,-0.44 2.35,-0.71 2.80,-0.98 3.30,-1.09 3.81,-1.20 4.33,-1.15 4.84,-1.09 5.32,-0.88 5.79,-0.66 6.17,-0.30 6.55,0.04 6.79,0.50 7.04,0.96 7.04,0.96 7.04,0.96 7.75,3.10 8.45,5.24 8.96,7.10 9.47,8.96 9.85,11.19 10.22,13.41 10.48,15.15 10.74,16.90 12.27,16.95 13.81,17.01 15.22,17.02 16.64,17.04 18.16,16.61 19.68,16.18 21.08,15.74 22.49,15.31 22.27,13.94 22.05,12.57 21.28,9.84 20.51,7.11 20.33,5.92 20.15,4.74 19.01,4.10 17.87,3.46 14.96,2.72 12.05,1.98 6.02,2.10 0,2.22 -0.26,2.19 -0.53,2.16 -0.78,2.06 -1.03,1.97 -1.25,1.82 -1.47,1.66 -1.65,1.46 -1.83,1.26 -1.95,1.02 -2.08,0.79 -2.14,0.52 -2.21,0.26 -2.21,-0.00 -2.21,-0.26 -2.14,-0.52 -2.08,-0.79 -1.95,-1.02 -1.83,-1.26 -1.65,-1.46 -1.47,-1.66 -1.25,-1.82 -1.03,-1.97 -0.78,-2.06 -0.53,-2.16 -0.26,-2.19 0.00,-2.22 0.00,-2.22 L 0,-2.22 Z"></path></g><g transform="translate(95.47212838043458 127.91515759453182) rotate(0 0 24.5)" stroke="none"><path fill="#1e1e1e" d="M 1.94,0.38 Q 1.94,0.38 1.70,1.83 1.45,3.27 1.33,4.90 1.21,6.53 1.35,12.06 1.49,17.59 1.52,22.01 1.55,26.44 1.82,30.28 2.10,34.12 2.20,36.65 2.31,39.19 2.47,40.55 2.62,41.92 2.68,43.67 2.74,45.42 2.85,47.20 2.96,48.97 2.91,49.29 2.86,49.60 2.72,49.89 2.57,50.17 2.34,50.39 2.12,50.61 1.83,50.75 1.54,50.88 1.23,50.92 0.91,50.96 0.60,50.89 0.29,50.83 0.01,50.67 -0.25,50.51 -0.46,50.27 -0.67,50.03 -0.79,49.73 -0.91,49.44 -0.93,49.12 -0.95,48.80 -0.87,48.50 -0.79,48.19 -0.61,47.92 -0.44,47.66 -0.19,47.46 0.06,47.27 0.36,47.16 0.66,47.06 0.97,47.05 1.29,47.05 1.60,47.15 1.90,47.25 2.15,47.44 2.41,47.63 2.59,47.89 2.77,48.15 2.86,48.46 2.95,48.76 2.93,49.08 2.92,49.40 2.80,49.69 2.69,49.99 2.49,50.24 2.28,50.48 2.01,50.65 1.74,50.81 1.43,50.89 1.12,50.96 0.81,50.93 0.49,50.89 0.20,50.76 -0.08,50.63 -0.31,50.42 -0.55,50.20 -0.70,49.92 -0.85,49.64 -0.91,49.33 -0.96,49.02 -0.96,49.02 -0.96,49.02 -0.89,47.24 -0.82,45.47 -0.81,43.77 -0.80,42.07 -0.76,40.71 -0.72,39.36 -0.90,36.87 -1.08,34.39 -1.46,30.45 -1.85,26.52 -2.02,22.13 -2.19,17.74 -2.52,12.00 -2.85,6.25 -2.73,4.36 -2.60,2.47 -2.27,1.04 -1.94,-0.38 -1.87,-0.61 -1.79,-0.84 -1.67,-1.04 -1.54,-1.25 -1.37,-1.41 -1.20,-1.58 -0.99,-1.70 -0.78,-1.82 -0.55,-1.89 -0.32,-1.96 -0.08,-1.97 0.15,-1.98 0.38,-1.93 0.62,-1.88 0.83,-1.78 1.05,-1.68 1.24,-1.53 1.42,-1.38 1.57,-1.19 1.71,-1.00 1.81,-0.78 1.90,-0.56 1.94,-0.32 1.98,-0.08 1.96,0.15 1.94,0.39 1.94,0.38 L 1.94,0.38 Z"></path></g><g transform="translate(132.47212838043458 151.91515759453182) rotate(0 112.5 138)" stroke="none"><path fill="#1e1e1e" d="M 1.51,-0.54 Q 1.51,-0.54 2.62,2.62 3.73,5.80 4.77,8.89 5.81,11.98 6.55,15.08 7.29,18.18 7.88,20.92 8.47,23.67 9.00,26.57 9.54,29.48 9.77,33.67 10.01,37.86 10.10,41.05 10.19,44.25 10.51,46.69 10.83,49.12 11.02,51.08 11.20,53.03 11.84,54.50 12.49,55.98 12.77,58.31 13.05,60.63 13.43,62.95 13.81,65.27 14.52,66.99 15.24,68.71 15.58,71.11 15.93,73.50 16.33,76.16 16.74,78.83 16.92,81.75 17.09,84.68 18.01,88.36 18.92,92.05 19.89,96.26 20.86,100.48 22.12,104.52 23.38,108.56 24.49,112.01 25.61,115.47 26.38,118.72 27.16,121.96 28.33,126.17 29.51,130.38 31.14,134.11 32.76,137.84 34.06,141.81 35.36,145.79 36.48,149.48 37.60,153.17 38.38,156.80 39.15,160.43 39.77,163.99 40.39,167.55 41.21,170.72 42.03,173.90 42.68,177.02 43.33,180.15 44.17,183.14 45.00,186.13 46.44,188.41 47.88,190.69 49.13,193.23 50.37,195.76 51.48,198.27 52.58,200.79 53.62,202.98 54.65,205.17 55.95,207.83 57.25,210.48 58.10,212.51 58.96,214.54 59.68,215.54 60.40,216.55 61.52,218.41 62.63,220.27 63.29,221.35 63.96,222.42 64.57,223.83 65.19,225.24 65.74,226.31 66.28,227.39 67.02,228.63 67.76,229.87 68.24,230.86 68.71,231.86 69.37,233.31 70.02,234.76 70.63,236.34 71.24,237.92 72.16,239.60 73.08,241.27 74.08,242.91 75.08,244.54 75.88,246.20 76.68,247.86 77.51,248.92 78.34,249.98 79.73,251.70 81.11,253.43 81.75,254.83 82.38,256.23 82.90,257.64 83.42,259.06 84.59,260.46 85.76,261.86 86.73,263.63 87.69,265.40 88.45,266.70 89.22,268.00 90.18,268.91 91.15,269.82 92.10,271.53 93.04,273.24 93.50,274.22 93.95,275.20 95.38,276.93 96.82,278.65 97.46,280.06 98.11,281.47 98.85,282.36 99.60,283.25 100.56,284.65 101.52,286.06 102.53,287.03 103.55,287.99 104.46,289.35 105.37,290.72 105.35,289.34 105.33,287.96 105.95,287.05 106.58,286.14 107.88,283.83 109.18,281.52 110.00,279.57 110.81,277.62 111.37,276.36 111.93,275.10 112.75,273.54 113.57,271.97 114.54,269.87 115.50,267.76 116.11,266.59 116.71,265.41 117.61,264.03 118.51,262.64 119.85,260.58 121.18,258.52 121.94,257.54 122.70,256.56 123.65,255.54 124.60,254.52 125.09,253.56 125.57,252.59 126.57,251.29 127.57,249.99 128.25,249.16 128.92,248.33 129.70,247.09 130.47,245.86 131.84,243.87 133.22,241.88 135.02,239.31 136.82,236.74 137.84,235.32 138.86,233.89 140.28,230.67 141.71,227.46 142.44,226.12 143.17,224.78 143.75,223.85 144.34,222.92 145.43,220.28 146.52,217.63 147.66,215.23 148.81,212.82 149.53,211.20 150.26,209.59 151.55,207.69 152.84,205.79 153.56,204.23 154.28,202.67 154.87,200.93 155.47,199.18 156.69,196.87 157.91,194.56 159.92,191.81 161.93,189.06 163.59,186.27 165.25,183.48 166.52,180.63 167.79,177.77 168.92,175.10 170.05,172.43 170.80,169.93 171.55,167.42 172.76,163.99 173.96,160.57 175.07,158.20 176.18,155.84 176.55,154.11 176.92,152.37 177.42,150.18 177.91,147.98 178.72,145.53 179.53,143.09 180.47,140.88 181.40,138.67 182.36,136.32 183.33,133.97 183.66,132.21 183.99,130.44 184.44,128.49 184.89,126.53 186.27,122.21 187.65,117.89 188.51,113.84 189.36,109.80 190.03,106.89 190.69,103.98 191.23,102.11 191.77,100.23 192.28,98.33 192.79,96.44 193.23,94.96 193.67,93.47 194.14,91.78 194.60,90.09 195.07,88.46 195.54,86.83 196.01,85.26 196.47,83.69 197.30,82.03 198.13,80.37 198.33,79.31 198.52,78.26 199.35,76.25 200.17,74.25 200.50,72.18 200.83,70.12 200.95,68.34 201.06,66.56 201.78,64.19 202.49,61.82 203.09,59.76 203.68,57.69 203.82,56.29 203.95,54.88 205.56,49.30 207.17,43.71 208.16,40.51 209.14,37.30 209.55,34.89 209.95,32.48 210.05,30.85 210.15,29.22 210.80,27.64 211.45,26.07 212.32,23.92 213.19,21.76 214.19,19.63 215.18,17.49 215.86,15.26 216.55,13.03 217.11,11.15 217.68,9.28 218.51,7.51 219.35,5.74 219.57,4.33 219.79,2.93 220.15,0.63 220.50,-1.67 220.53,-3.23 220.57,-4.79 220.60,-6.27 220.63,-7.75 220.60,-8.98 220.58,-10.20 220.54,-11.29 220.50,-12.38 220.41,-13.74 220.32,-15.10 220.28,-13.89 220.23,-12.69 220.24,-11.42 220.25,-10.16 220.22,-8.96 220.19,-7.77 220.35,-6.62 220.51,-5.48 220.12,-6.48 219.72,-7.48 220.54,-8.76 221.36,-10.03 221.12,-10.50 220.87,-10.97 220.79,-11.50 220.71,-12.03 220.80,-12.55 220.89,-13.07 221.14,-13.54 221.40,-14.01 221.79,-14.37 222.18,-14.73 222.66,-14.95 223.15,-15.17 223.67,-15.22 224.20,-15.27 224.72,-15.15 225.24,-15.04 225.69,-14.76 226.15,-14.48 226.49,-14.07 226.83,-13.66 227.02,-13.17 227.21,-12.67 227.23,-12.14 227.26,-11.61 227.11,-11.10 226.96,-10.59 226.66,-10.15 226.36,-9.71 225.93,-9.40 225.51,-9.08 225.00,-8.91 224.50,-8.75 223.96,-8.75 223.43,-8.76 222.93,-8.93 222.43,-9.11 222.01,-9.43 221.59,-9.76 221.29,-10.20 221.00,-10.64 220.86,-11.16 220.73,-11.67 220.76,-12.20 220.79,-12.73 220.99,-13.22 221.20,-13.72 221.54,-14.12 221.89,-14.52 222.35,-14.79 222.81,-15.06 223.33,-15.17 223.85,-15.28 224.38,-15.21 224.90,-15.15 225.38,-14.92 225.86,-14.70 226.25,-14.33 226.63,-13.96 226.63,-13.96 226.63,-13.96 226.67,-10.37 226.71,-6.79 225.33,-4.66 223.96,-2.53 222.81,-1.61 221.66,-0.70 220.28,-0.45 218.89,-0.20 217.58,-0.68 216.26,-1.17 215.45,-2.19 214.63,-3.22 214.22,-5.49 213.81,-7.77 213.78,-8.98 213.75,-10.18 213.78,-11.54 213.81,-12.90 213.92,-14.19 214.03,-15.48 214.37,-16.80 214.72,-18.11 216.19,-19.14 217.67,-20.16 218.89,-20.52 220.11,-20.88 222.09,-20.44 224.07,-20.00 224.73,-19.05 225.38,-18.10 225.52,-16.60 225.67,-15.09 225.57,-13.73 225.47,-12.36 225.43,-11.26 225.38,-10.15 225.33,-8.91 225.28,-7.67 225.26,-6.07 225.23,-4.47 224.84,-2.52 224.46,-0.57 223.81,1.55 223.16,3.68 222.69,5.41 222.21,7.14 221.41,8.67 220.60,10.20 220.01,12.03 219.42,13.87 218.73,16.31 218.04,18.75 217.16,20.84 216.29,22.93 215.46,25.30 214.63,27.68 213.98,28.66 213.34,29.63 213.10,31.28 212.85,32.94 212.46,35.55 212.07,38.16 211.17,41.37 210.27,44.57 208.80,50.00 207.34,55.43 207.00,56.96 206.67,58.48 206.15,60.60 205.63,62.71 205.09,64.77 204.55,66.83 204.40,68.70 204.25,70.58 203.98,73.05 203.70,75.52 203.09,77.43 202.48,79.34 202.00,80.73 201.53,82.11 200.78,83.49 200.04,84.86 199.50,86.38 198.96,87.90 198.43,89.47 197.89,91.05 197.35,92.84 196.80,94.63 196.22,95.92 195.64,97.22 195.10,99.16 194.55,101.10 193.96,102.84 193.37,104.58 192.73,107.47 192.09,110.37 191.22,114.55 190.36,118.74 189.05,122.97 187.74,127.20 187.26,129.13 186.79,131.06 186.31,133.02 185.82,134.98 184.87,137.35 183.91,139.72 183.03,141.83 182.15,143.94 181.40,146.26 180.65,148.58 180.18,150.82 179.71,153.07 179.16,155.02 178.62,156.97 177.57,159.22 176.52,161.46 175.35,164.83 174.18,168.20 173.40,170.85 172.62,173.50 171.51,176.21 170.39,178.91 169.09,181.94 167.78,184.96 166.09,187.89 164.40,190.83 162.57,193.41 160.75,196.00 159.72,198.14 158.69,200.27 158.04,202.22 157.39,204.16 156.53,205.88 155.68,207.61 154.62,209.36 153.56,211.11 152.82,212.68 152.08,214.25 151.12,216.64 150.17,219.03 148.42,222.94 146.66,226.85 145.93,227.98 145.20,229.10 144.30,231.28 143.39,233.46 142.79,234.84 142.18,236.22 141.21,237.58 140.23,238.94 138.69,241.58 137.15,244.21 136.08,246.35 135.00,248.48 133.45,250.89 131.89,253.30 131.18,254.23 130.47,255.15 129.64,256.72 128.80,258.30 127.35,260.02 125.89,261.74 125.15,262.97 124.40,264.21 123.49,265.69 122.57,267.16 122.07,268.51 121.58,269.86 120.62,270.99 119.66,272.13 119.34,273.43 119.02,274.73 118.52,275.69 118.02,276.66 117.30,277.72 116.57,278.79 115.91,280.12 115.26,281.45 114.87,282.63 114.48,283.82 113.78,285.86 113.09,287.90 112.14,289.42 111.19,290.94 110.71,291.94 110.23,292.94 109.13,294.51 108.02,296.08 106.46,296.52 104.90,296.95 103.49,296.36 102.08,295.78 101.31,294.98 100.54,294.19 99.73,293.25 98.93,292.30 98.00,291.25 97.08,290.21 96.54,289.19 96.00,288.18 94.93,286.84 93.86,285.51 93.17,283.94 92.49,282.36 91.51,281.32 90.53,280.28 89.57,279.01 88.61,277.73 88.10,276.65 87.59,275.57 86.87,273.97 86.16,272.38 85.09,270.96 84.02,269.55 83.02,267.73 82.02,265.91 81.51,264.61 81.00,263.31 80.03,262.05 79.05,260.80 78.55,259.43 78.04,258.06 77.18,256.12 76.32,254.17 75.68,253.27 75.03,252.36 74.09,250.95 73.14,249.54 72.48,248.10 71.81,246.65 70.71,245.04 69.62,243.43 68.31,241.52 66.99,239.61 66.42,238.18 65.84,236.75 64.86,234.45 63.88,232.15 63.03,230.69 62.19,229.24 61.70,228.04 61.22,226.85 60.77,225.61 60.32,224.38 59.81,223.29 59.31,222.20 58.50,220.14 57.68,218.08 57.11,216.82 56.54,215.56 55.71,213.60 54.89,211.64 53.58,208.96 52.27,206.29 51.22,204.07 50.18,201.84 49.10,199.38 48.02,196.92 46.83,194.50 45.64,192.08 44.06,189.47 42.48,186.87 41.62,183.78 40.76,180.69 40.12,177.62 39.49,174.56 38.64,171.28 37.80,168.00 37.19,164.49 36.58,160.98 35.83,157.46 35.08,153.94 33.97,150.27 32.85,146.61 31.60,142.75 30.34,138.88 28.65,134.99 26.97,131.09 25.77,126.84 24.58,122.58 23.83,119.43 23.08,116.29 21.96,112.82 20.84,109.35 19.54,105.22 18.25,101.08 17.27,96.89 16.29,92.70 15.33,88.78 14.37,84.86 14.18,82.06 14.00,79.26 13.56,76.58 13.13,73.90 12.83,71.84 12.54,69.77 11.77,67.77 11.00,65.76 10.57,63.38 10.14,61.00 9.88,59.02 9.63,57.04 9.00,55.15 8.38,53.27 8.28,51.37 8.18,49.47 7.84,46.90 7.51,44.34 7.40,41.17 7.30,38.01 7.07,34.00 6.84,29.99 6.29,27.13 5.74,24.27 5.13,21.56 4.52,18.86 3.77,15.90 3.03,12.94 1.95,9.89 0.86,6.84 -0.32,3.69 -1.51,0.54 -1.55,0.36 -1.59,0.17 -1.59,-0.02 -1.59,-0.21 -1.54,-0.40 -1.49,-0.59 -1.40,-0.76 -1.31,-0.93 -1.18,-1.07 -1.04,-1.21 -0.88,-1.32 -0.72,-1.43 -0.54,-1.50 -0.36,-1.56 -0.17,-1.58 0.02,-1.60 0.21,-1.58 0.40,-1.55 0.58,-1.48 0.76,-1.41 0.92,-1.30 1.08,-1.18 1.20,-1.04 1.33,-0.89 1.42,-0.72 1.51,-0.54 1.51,-0.54 L 1.51,-0.54 Z"></path></g><g transform="translate(355.4721283804346 147.91515759453182) rotate(0 0 5)" stroke="none"><path fill="#1e1e1e" d="M 2.35,0 Q 2.35,0 2.31,1.72 2.27,3.44 2.30,4.75 2.34,6.06 2.40,8.03 2.45,10 2.39,10.39 2.32,10.78 2.14,11.13 1.95,11.48 1.66,11.76 1.37,12.03 1.01,12.20 0.65,12.36 0.26,12.41 -0.13,12.45 -0.52,12.36 -0.90,12.28 -1.25,12.07 -1.59,11.87 -1.84,11.57 -2.10,11.26 -2.25,10.89 -2.40,10.52 -2.42,10.13 -2.44,9.73 -2.33,9.35 -2.23,8.96 -2.00,8.63 -1.78,8.30 -1.46,8.06 -1.15,7.82 -0.77,7.70 -0.39,7.57 0.00,7.57 0.39,7.57 0.77,7.70 1.15,7.82 1.46,8.06 1.78,8.31 2.00,8.63 2.23,8.96 2.33,9.35 2.44,9.73 2.42,10.13 2.40,10.52 2.25,10.89 2.10,11.26 1.84,11.57 1.59,11.87 1.25,12.07 0.90,12.28 0.52,12.36 0.13,12.45 -0.26,12.41 -0.65,12.36 -1.01,12.20 -1.37,12.03 -1.66,11.76 -1.95,11.48 -2.14,11.13 -2.32,10.78 -2.39,10.39 -2.45,9.99 -2.45,9.99 -2.45,10 -2.40,8.03 -2.34,6.06 -2.30,4.75 -2.27,3.44 -2.31,1.72 -2.35,0 -2.31,-0.28 -2.28,-0.56 -2.18,-0.82 -2.08,-1.09 -1.92,-1.32 -1.76,-1.55 -1.54,-1.74 -1.33,-1.93 -1.08,-2.06 -0.83,-2.19 -0.55,-2.26 -0.28,-2.33 0.00,-2.33 0.28,-2.33 0.55,-2.26 0.83,-2.19 1.08,-2.06 1.33,-1.93 1.54,-1.74 1.76,-1.55 1.92,-1.32 2.08,-1.09 2.18,-0.82 2.28,-0.56 2.31,-0.28 2.35,0.00 2.35,0.00 L 2.35,0 Z"></path></g><g stroke-linecap="round"><g transform="translate(357.4721283804346 147.91515759453182) rotate(0 -1.471881569228831 147.3476062990725)"><path d="M-0.96 -0.53 C-1.17 48.83, -2.09 245.78, -1.97 295.23" stroke="#1e1e1e" stroke-width="1.5" fill="none" stroke-dasharray="8 9"></path></g></g><mask></mask><g transform="translate(347.4721283804346 495.9151575945318) rotate(0 15.5 20)" stroke="none"><path fill="#1e1e1e" d="M -1.77,-1.42 Q -1.77,-1.42 0.62,-4.22 3.03,-7.02 5.68,-8.92 8.33,-10.81 10.36,-11.87 12.38,-12.92 13.53,-13.50 14.68,-14.08 15.88,-14.41 17.09,-14.74 18.52,-14.88 19.95,-15.03 21.62,-14.79 23.29,-14.55 25.39,-14.14 27.50,-13.74 28.65,-12.77 29.80,-11.81 30.56,-10.77 31.31,-9.73 32.12,-7.68 32.93,-5.63 33.33,-3.76 33.73,-1.89 33.93,-0.52 34.13,0.84 34.24,2.03 34.35,3.21 34.46,5.22 34.58,7.24 33.23,12.05 31.89,16.86 30.99,19.64 30.08,22.42 27.87,26.62 25.66,30.82 23.54,34.03 21.41,37.23 20.23,38.88 19.04,40.54 16.69,42.75 14.35,44.97 12.15,46.50 9.95,48.02 8.53,49.23 7.11,50.43 5.43,51.14 3.74,51.84 2.76,52.28 1.77,52.72 1.44,53.42 1.11,54.12 0.87,54.18 0.64,54.25 0.40,54.26 0.15,54.27 -0.08,54.22 -0.31,54.17 -0.53,54.06 -0.75,53.95 -0.94,53.80 -1.13,53.64 -1.27,53.45 -1.42,53.25 -1.51,53.03 -1.61,52.80 -1.65,52.56 -1.68,52.32 -1.66,52.08 -1.64,51.84 -1.56,51.61 -1.48,51.37 -1.35,51.17 -1.22,50.96 -1.04,50.80 -0.87,50.63 -0.65,50.51 -0.44,50.39 1.19,50.53 2.84,50.68 4.45,50.65 6.05,50.62 7.46,50.62 8.87,50.63 10.03,50.60 11.19,50.57 12.75,50.08 14.30,49.59 15.38,49.28 16.46,48.96 18.18,48.59 19.89,48.22 20.97,47.98 22.05,47.74 23.51,47.53 24.97,47.31 26.97,47.25 28.98,47.20 29.43,47.27 29.88,47.34 30.28,47.55 30.68,47.76 30.99,48.09 31.30,48.41 31.50,48.82 31.69,49.23 31.74,49.68 31.79,50.13 31.70,50.58 31.60,51.02 31.37,51.41 31.14,51.80 30.79,52.09 30.45,52.39 30.03,52.56 29.61,52.73 29.16,52.75 28.71,52.78 28.27,52.66 27.83,52.54 27.46,52.29 27.08,52.04 26.80,51.68 26.53,51.32 26.38,50.89 26.24,50.46 26.23,50.01 26.23,49.56 26.37,49.13 26.52,48.70 26.79,48.33 27.06,47.97 27.43,47.72 27.81,47.46 28.24,47.34 28.68,47.21 29.13,47.24 29.58,47.26 30.00,47.42 30.43,47.59 30.77,47.88 31.12,48.17 31.35,48.56 31.59,48.95 31.69,49.39 31.79,49.83 31.74,50.28 31.70,50.73 31.51,51.14 31.32,51.55 31.01,51.88 30.70,52.22 30.30,52.43 29.90,52.64 29.45,52.72 29.01,52.79 29.01,52.79 29.01,52.79 26.62,52.77 24.23,52.75 22.68,52.90 21.13,53.04 19.48,53.53 17.83,54.03 15.75,54.41 13.66,54.80 12.46,55.10 11.27,55.40 10.04,55.36 8.81,55.31 6.55,55.18 4.29,55.04 2.70,54.58 1.11,54.12 0.87,54.18 0.64,54.25 0.40,54.26 0.15,54.27 -0.08,54.22 -0.31,54.17 -0.53,54.06 -0.75,53.95 -0.94,53.80 -1.13,53.64 -1.27,53.45 -1.42,53.25 -1.51,53.03 -1.61,52.80 -1.65,52.56 -1.68,52.32 -1.66,52.08 -1.64,51.84 -1.56,51.61 -1.48,51.37 -1.35,51.17 -1.22,50.96 -1.04,50.80 -0.87,50.63 -0.66,50.51 -0.44,50.39 -0.32,50.08 -0.20,49.78 1.21,49.21 2.64,48.63 3.92,48.32 5.20,48.00 6.71,46.79 8.22,45.59 10.20,44.15 12.18,42.72 14.26,40.67 16.34,38.63 17.45,37.02 18.56,35.41 20.48,32.29 22.40,29.17 24.30,25.25 26.20,21.33 26.84,18.53 27.49,15.74 28.43,11.49 29.38,7.25 29.39,6.10 29.40,4.96 29.41,3.18 29.42,1.39 29.33,0.23 29.23,-0.93 28.93,-2.32 28.63,-3.71 27.79,-5.29 26.96,-6.86 26.32,-8.05 25.68,-9.24 24.09,-9.71 22.51,-10.18 21.35,-10.45 20.19,-10.72 18.14,-10.65 16.09,-10.59 15.06,-10.27 14.03,-9.96 12.27,-8.91 10.52,-7.87 8.34,-6.17 6.16,-4.47 3.97,-1.52 1.77,1.42 1.58,1.61 1.38,1.80 1.15,1.94 0.91,2.08 0.65,2.16 0.38,2.24 0.11,2.25 -0.16,2.27 -0.43,2.22 -0.70,2.16 -0.94,2.05 -1.19,1.93 -1.41,1.76 -1.62,1.59 -1.79,1.37 -1.96,1.15 -2.07,0.90 -2.18,0.65 -2.22,0.38 -2.27,0.11 -2.25,-0.15 -2.23,-0.43 -2.15,-0.69 -2.06,-0.95 -1.92,-1.19 -1.77,-1.42 -1.77,-1.42 L -1.77,-1.42 Z"></path></g><g transform="translate(239.47212838043458 465.9151575945318) rotate(0 0.5 35)" stroke="none"><path fill="#1e1e1e" d="M 1.59,0 Q 1.59,0 1.64,1.72 1.68,3.44 1.63,5.90 1.58,8.36 1.54,11.13 1.51,13.90 1.48,16.80 1.45,19.70 1.43,22.95 1.41,26.20 1.40,29.30 1.38,32.41 1.37,34.88 1.36,37.34 1.36,39.83 1.35,42.32 1.62,44.44 1.90,46.56 2.13,48.10 2.36,49.63 2.49,51.17 2.63,52.71 2.60,55.39 2.57,58.06 2.66,59.48 2.76,60.89 2.85,62.07 2.94,63.25 3.02,64.33 3.10,65.40 2.59,68.25 2.08,71.10 1.85,71.40 1.62,71.70 1.30,71.92 0.99,72.13 0.62,72.24 0.25,72.34 -0.12,72.32 -0.50,72.30 -0.85,72.16 -1.21,72.02 -1.50,71.77 -1.79,71.52 -1.99,71.20 -2.18,70.87 -2.27,70.50 -2.35,70.13 -2.31,69.75 -2.27,69.37 -2.11,69.02 -1.95,68.67 -1.69,68.40 -1.42,68.12 -1.09,67.94 -0.75,67.76 -0.37,67.70 -0.00,67.64 0.37,67.70 0.74,67.76 1.08,67.94 1.42,68.12 1.68,68.39 1.94,68.67 2.11,69.02 2.27,69.36 2.31,69.74 2.35,70.12 2.27,70.49 2.19,70.86 1.99,71.19 1.79,71.52 1.50,71.77 1.21,72.01 0.86,72.16 0.51,72.30 0.12,72.32 -0.25,72.34 -0.61,72.24 -0.98,72.14 -1.30,71.92 -1.61,71.71 -1.85,71.41 -2.08,71.10 -2.20,70.74 -2.32,70.38 -2.32,70.00 -2.32,69.62 -2.20,69.25 -2.08,68.89 -2.08,68.89 -2.08,68.89 -1.59,67.15 -1.11,65.41 -1.03,64.34 -0.95,63.26 -0.87,62.09 -0.79,60.92 -0.71,59.50 -0.63,58.09 -0.71,55.46 -0.78,52.83 -0.75,51.36 -0.72,49.88 -0.73,48.39 -0.75,46.91 -1.05,44.61 -1.35,42.32 -1.36,39.83 -1.36,37.34 -1.37,34.88 -1.38,32.41 -1.40,29.30 -1.41,26.20 -1.43,22.95 -1.45,19.70 -1.48,16.80 -1.51,13.90 -1.54,11.13 -1.58,8.36 -1.63,5.90 -1.68,3.44 -1.64,1.72 -1.59,0 -1.57,-0.19 -1.54,-0.38 -1.47,-0.56 -1.41,-0.74 -1.30,-0.89 -1.19,-1.05 -1.04,-1.18 -0.90,-1.31 -0.73,-1.40 -0.56,-1.48 -0.37,-1.53 -0.19,-1.58 0.00,-1.58 0.19,-1.58 0.37,-1.53 0.56,-1.48 0.73,-1.40 0.90,-1.31 1.04,-1.18 1.19,-1.05 1.30,-0.89 1.41,-0.74 1.47,-0.56 1.54,-0.38 1.57,-0.19 1.59,0.00 1.59,0.00 L 1.59,0 Z"></path></g><g transform="translate(355.4721283804346 273.9151575945318) rotate(0 0 5.5)" stroke="none"><path fill="#1e1e1e" d="M 0.51,2.58 Q 0.51,2.58 -0.88,2.83 -2.29,3.09 -2.91,4.33 -3.53,5.58 -2.28,6.69 -1.03,7.80 0.58,7.81 2.20,7.82 3.28,7.98 4.37,8.14 3.54,7.46 2.71,6.78 2.71,5.47 2.70,4.17 2.69,2.08 2.68,-0.00 2.77,-0.53 2.86,-1.05 3.11,-1.53 3.36,-2.00 3.75,-2.37 4.14,-2.74 4.62,-2.96 5.11,-3.19 5.64,-3.24 6.18,-3.30 6.70,-3.19 7.22,-3.07 7.68,-2.79 8.14,-2.52 8.49,-2.11 8.83,-1.70 9.03,-1.20 9.23,-0.70 9.26,-0.17 9.29,0.36 9.14,0.87 9.00,1.39 8.70,1.83 8.40,2.27 7.97,2.60 7.54,2.92 7.04,3.09 6.53,3.26 5.99,3.26 5.46,3.26 4.95,3.09 4.44,2.92 4.02,2.60 3.59,2.27 3.29,1.83 2.99,1.38 2.85,0.87 2.70,0.35 2.73,-0.17 2.76,-0.71 2.96,-1.21 3.16,-1.70 3.51,-2.11 3.85,-2.52 4.31,-2.80 4.77,-3.07 5.29,-3.19 5.82,-3.30 6.35,-3.24 6.88,-3.19 7.37,-2.96 7.86,-2.73 8.24,-2.37 8.63,-2.00 8.88,-1.52 9.13,-1.05 9.22,-0.52 9.31,0.00 9.31,0.00 9.31,0.00 9.28,2.93 9.26,5.85 9.20,7.08 9.14,8.32 9.02,9.39 8.91,10.47 8.43,11.47 7.95,12.47 6.83,13.14 5.70,13.81 3.79,13.89 1.88,13.97 0.41,13.92 -1.06,13.88 -2.77,13.48 -4.48,13.07 -5.66,12.36 -6.84,11.64 -7.93,9.41 -9.02,7.18 -8.91,6.02 -8.80,4.86 -7.94,3.33 -7.08,1.79 -6.44,0.61 -5.80,-0.56 -4.62,-1.25 -3.45,-1.94 -1.98,-2.26 -0.51,-2.58 -0.20,-2.60 0.11,-2.63 0.42,-2.57 0.74,-2.52 1.03,-2.40 1.32,-2.27 1.57,-2.08 1.83,-1.89 2.03,-1.64 2.23,-1.39 2.36,-1.11 2.50,-0.82 2.56,-0.51 2.62,-0.20 2.61,0.11 2.59,0.43 2.50,0.73 2.41,1.04 2.25,1.31 2.09,1.59 1.87,1.81 1.65,2.04 1.38,2.21 1.11,2.38 0.81,2.48 0.51,2.58 0.51,2.58 L 0.51,2.58 Z"></path></g><g transform="translate(360.4721283804346 288.9151575945318) rotate(0 104 71)" stroke="none"><path fill="#1e1e1e" d="M 1.48,-0.49 Q 1.48,-0.49 2.31,2.10 3.14,4.70 5.19,9.79 7.24,14.88 8.15,19.19 9.06,23.51 9.71,26.43 10.36,29.36 11.19,31.98 12.03,34.61 12.96,37.48 13.89,40.34 14.58,43.02 15.26,45.70 16.60,47.49 17.94,49.27 19.16,51.32 20.38,53.37 21.22,55.46 22.05,57.55 22.70,59.60 23.35,61.64 24.45,64.15 25.55,66.66 26.61,69.51 27.68,72.36 28.97,75.25 30.26,78.13 31.68,81.09 33.09,84.04 34.00,86.51 34.91,88.97 35.85,91.11 36.79,93.25 37.99,94.92 39.19,96.59 40.56,98.17 41.92,99.74 43.72,102.51 45.52,105.29 46.59,106.65 47.66,108.02 48.94,109.79 50.22,111.55 51.58,113.12 52.94,114.69 54.57,115.86 56.21,117.02 57.34,117.77 58.47,118.53 59.58,119.42 60.70,120.31 61.65,120.84 62.61,121.37 64.23,122.96 65.86,124.55 67.06,125.34 68.26,126.13 69.18,126.77 70.09,127.41 71.44,128.46 72.78,129.51 74.32,130.27 75.85,131.03 77.34,131.85 78.82,132.68 80.05,133.29 81.28,133.90 83.22,135.18 85.17,136.47 86.56,137.21 87.95,137.96 89.31,138.52 90.68,139.08 92.27,139.99 93.86,140.89 95.57,141.87 97.28,142.86 98.94,143.88 100.59,144.91 102.44,146.29 104.28,147.66 105.62,148.42 106.96,149.18 108.11,149.74 109.27,150.30 110.19,150.86 111.11,151.42 112.08,151.92 113.05,152.42 115.03,151.98 117.00,151.53 117.95,150.85 118.89,150.17 119.86,149.68 120.83,149.18 122.14,148.34 123.46,147.49 124.90,146.41 126.33,145.32 127.56,144.19 128.79,143.06 129.71,142.19 130.62,141.33 132.69,138.15 134.75,134.98 136.40,132.91 138.05,130.83 138.56,129.56 139.07,128.29 140.35,126.20 141.62,124.10 144.54,120.29 147.46,116.48 148.99,114.62 150.52,112.76 152.29,110.04 154.05,107.32 155.69,104.71 157.33,102.11 158.28,100.42 159.23,98.74 160.21,97.12 161.19,95.50 161.83,93.80 162.47,92.10 163.73,90.30 164.99,88.50 166.41,86.90 167.83,85.29 169.27,83.53 170.71,81.76 171.87,79.92 173.03,78.08 174.46,76.34 175.89,74.60 176.98,72.56 178.08,70.52 179.14,68.93 180.21,67.34 180.83,65.91 181.45,64.49 182.35,62.70 183.25,60.92 184.24,59.03 185.22,57.14 185.90,55.27 186.57,53.39 187.44,51.82 188.32,50.24 188.52,48.98 188.73,47.72 189.12,46.40 189.52,45.09 189.94,43.72 190.37,42.35 191.21,40.55 192.06,38.75 193.04,36.88 194.03,35.01 194.30,33.76 194.56,32.51 194.96,30.36 195.35,28.21 195.86,26.33 196.36,24.45 196.83,22.93 197.30,21.41 197.77,20.14 198.23,18.88 198.69,17.56 199.14,16.24 199.63,14.81 200.11,13.39 200.71,10.42 201.31,7.45 201.40,6.38 201.50,5.32 201.86,3.21 202.23,1.11 202.26,-0.59 202.30,-2.29 202.65,-3.90 203.00,-5.52 203.86,-7.42 204.73,-9.32 205.13,-11.38 205.53,-13.43 205.67,-13.81 205.80,-14.19 206.05,-14.51 206.30,-14.83 206.63,-15.05 206.97,-15.28 207.36,-15.38 207.76,-15.48 208.16,-15.46 208.56,-15.43 208.94,-15.28 209.31,-15.12 209.62,-14.86 209.92,-14.59 210.13,-14.24 210.33,-13.89 210.41,-13.50 210.49,-13.10 210.45,-12.70 210.40,-12.30 210.22,-11.93 210.05,-11.57 209.77,-11.28 209.48,-10.99 209.12,-10.80 208.76,-10.62 208.36,-10.55 207.96,-10.49 207.57,-10.56 207.17,-10.63 206.81,-10.83 206.46,-11.02 206.18,-11.32 205.91,-11.62 205.74,-11.99 205.58,-12.36 205.54,-12.76 205.50,-13.16 205.59,-13.56 205.68,-13.95 205.90,-14.29 206.11,-14.64 206.42,-14.90 206.73,-15.15 207.11,-15.30 207.49,-15.44 207.89,-15.46 208.30,-15.48 208.68,-15.36 209.07,-15.25 209.41,-15.02 209.74,-14.79 209.98,-14.46 210.22,-14.14 210.34,-13.75 210.47,-13.37 210.46,-12.96 210.46,-12.56 210.46,-12.56 210.46,-12.56 209.82,-10.04 209.17,-7.52 208.62,-5.94 208.06,-4.37 207.79,-3.20 207.53,-2.04 207.44,-0.67 207.36,0.69 206.81,2.22 206.27,3.75 206.14,4.86 206.02,5.97 205.79,7.12 205.56,8.28 205.28,10.22 205.00,12.16 204.70,13.51 204.40,14.86 203.89,16.32 203.38,17.78 202.85,19.18 202.31,20.58 201.80,21.66 201.29,22.75 200.81,24.04 200.33,25.34 199.96,27.39 199.59,29.43 198.94,31.49 198.29,33.55 197.79,35.05 197.28,36.56 196.46,38.46 195.63,40.36 194.92,42.02 194.22,43.69 193.69,45.06 193.16,46.44 192.66,47.52 192.17,48.59 191.64,50.25 191.10,51.91 190.24,53.15 189.37,54.40 188.66,56.45 187.95,58.50 187.03,60.42 186.11,62.35 185.23,64.14 184.35,65.92 183.49,67.49 182.63,69.06 181.56,70.44 180.50,71.83 179.28,74.09 178.06,76.35 176.76,77.97 175.46,79.59 174.24,81.59 173.02,83.59 171.58,85.45 170.14,87.30 168.85,88.82 167.56,90.33 166.49,91.80 165.43,93.28 164.65,95.22 163.88,97.17 162.88,98.71 161.87,100.26 160.88,101.96 159.88,103.67 158.28,106.33 156.69,108.98 154.91,111.89 153.13,114.79 151.72,116.69 150.31,118.60 147.67,122.29 145.03,125.98 144.05,127.99 143.06,130.01 142.32,131.66 141.58,133.31 140.27,135.41 138.97,137.50 136.79,141.43 134.61,145.35 133.65,146.30 132.70,147.26 131.76,148.12 130.82,148.99 129.38,149.90 127.93,150.82 126.35,151.90 124.76,152.98 123.17,153.59 121.58,154.19 120.14,155.11 118.70,156.04 116.78,156.65 114.87,157.27 112.25,156.63 109.63,155.99 108.47,154.89 107.32,153.80 106.17,153.08 105.02,152.36 103.65,151.46 102.27,150.56 100.44,149.39 98.61,148.21 97.03,147.30 95.44,146.38 93.60,145.51 91.75,144.63 90.37,143.86 88.99,143.09 87.44,142.43 85.88,141.76 84.45,140.98 83.03,140.19 81.05,139.22 79.07,138.25 77.84,137.61 76.61,136.98 75.02,136.22 73.42,135.47 72.45,134.89 71.49,134.31 70.03,133.05 68.58,131.79 67.31,130.50 66.05,129.20 64.75,128.19 63.46,127.19 61.94,125.90 60.41,124.61 59.35,123.78 58.30,122.95 57.38,121.99 56.47,121.03 55.54,120.14 54.61,119.24 52.74,117.89 50.86,116.54 49.40,114.89 47.93,113.24 46.61,111.48 45.29,109.72 44.30,108.22 43.31,106.71 41.62,104.09 39.93,101.46 38.49,99.79 37.05,98.12 35.72,96.21 34.38,94.31 33.41,92.10 32.44,89.89 31.57,87.53 30.71,85.18 29.28,82.20 27.85,79.21 26.52,76.25 25.20,73.29 24.15,70.51 23.11,67.72 21.95,65.08 20.80,62.44 20.20,60.48 19.59,58.53 18.85,56.62 18.10,54.72 16.94,52.78 15.78,50.83 14.24,48.63 12.70,46.44 12.01,43.81 11.32,41.18 10.38,38.31 9.43,35.44 8.55,32.71 7.66,29.97 6.98,27.03 6.30,24.09 5.43,20.03 4.56,15.96 2.43,10.80 0.30,5.64 -0.58,3.07 -1.48,0.49 -1.51,0.30 -1.55,0.12 -1.54,-0.06 -1.54,-0.25 -1.48,-0.43 -1.43,-0.61 -1.34,-0.77 -1.24,-0.93 -1.11,-1.07 -0.98,-1.21 -0.82,-1.31 -0.66,-1.41 -0.49,-1.47 -0.31,-1.53 -0.12,-1.54 0.06,-1.56 0.24,-1.53 0.43,-1.50 0.60,-1.42 0.78,-1.35 0.93,-1.23 1.08,-1.12 1.20,-0.98 1.32,-0.83 1.40,-0.66 1.48,-0.49 1.48,-0.49 L 1.48,-0.49 Z"></path></g><g stroke-linecap="round"><g transform="translate(570.4721283804346 277.9151575945318) rotate(0 1.9838432528078584 83.49765628799796)"><path d="M1.08 0.78 C1.49 28.39, 2.66 138.44, 2.89 166.21" stroke="#1e1e1e" stroke-width="1.5" fill="none" stroke-dasharray="8 9"></path></g></g><mask></mask><g transform="translate(577.4721283804346 374.9151575945318) rotate(0 69.5 33)" stroke="none"><path fill="#1e1e1e" d="M 1.14,-2.28 Q 1.14,-2.28 2.32,-1.70 3.50,-1.11 4.37,-0.35 5.24,0.41 5.91,1.39 6.58,2.37 7.69,4.28 8.80,6.18 10.16,8.54 11.52,10.89 12.59,12.57 13.66,14.25 14.70,15.76 15.75,17.28 16.45,18.90 17.15,20.53 17.78,22.03 18.41,23.54 19.18,24.99 19.94,26.44 20.80,27.95 21.67,29.46 22.40,31.11 23.14,32.77 23.90,33.79 24.65,34.81 25.38,35.96 26.12,37.12 26.88,38.00 27.64,38.89 28.61,40.27 29.57,41.66 30.48,42.70 31.38,43.75 32.68,45.78 33.98,47.80 34.74,48.70 35.50,49.59 36.50,51.47 37.50,53.34 38.19,54.23 38.87,55.12 39.98,55.67 41.10,56.22 42.47,57.52 43.84,58.83 45.22,59.17 46.60,59.52 48.34,60.07 50.09,60.63 51.82,61.14 53.56,61.65 55.27,62.19 56.98,62.72 58.06,63.14 59.15,63.55 60.23,63.58 61.32,63.61 62.63,64.00 63.94,64.40 65.91,64.99 67.88,65.58 69.10,65.56 70.32,65.54 71.79,65.53 73.26,65.53 74.83,65.58 76.40,65.64 77.63,64.91 78.85,64.18 80.52,63.43 82.20,62.68 83.90,61.63 85.60,60.58 86.88,59.70 88.16,58.82 89.62,57.86 91.08,56.89 92.45,55.71 93.83,54.53 94.91,53.82 96.00,53.12 97.43,51.87 98.87,50.61 99.93,49.92 100.99,49.22 102.42,47.86 103.84,46.49 104.72,45.66 105.59,44.82 106.73,43.11 107.87,41.41 108.70,40.68 109.52,39.95 110.33,38.81 111.14,37.67 111.82,36.54 112.50,35.41 113.12,33.44 113.73,31.48 114.21,30.40 114.70,29.31 115.31,27.80 115.93,26.29 116.79,25.00 117.65,23.70 118.65,21.52 119.66,19.34 120.52,17.22 121.39,15.10 122.00,13.86 122.61,12.62 123.14,11.34 123.67,10.06 124.61,8.30 125.56,6.53 126.49,4.69 127.43,2.85 127.26,1.43 127.09,0.00 127.49,-1.17 127.89,-2.35 129.42,-3.87 130.95,-5.39 132.48,-5.73 134.00,-6.07 135.10,-6.13 136.21,-6.20 138.41,-5.51 140.61,-4.81 141.02,-4.48 141.42,-4.15 141.71,-3.71 141.99,-3.26 142.11,-2.75 142.23,-2.24 142.19,-1.72 142.14,-1.19 141.93,-0.71 141.72,-0.23 141.37,0.15 141.02,0.54 140.56,0.79 140.10,1.05 139.58,1.15 139.07,1.24 138.54,1.17 138.02,1.09 137.56,0.86 137.09,0.62 136.72,0.25 136.35,-0.11 136.12,-0.59 135.88,-1.06 135.82,-1.58 135.75,-2.10 135.85,-2.62 135.95,-3.13 136.21,-3.59 136.47,-4.04 136.87,-4.39 137.26,-4.74 137.74,-4.95 138.23,-5.15 138.75,-5.19 139.28,-5.23 139.79,-5.10 140.30,-4.97 140.74,-4.69 141.18,-4.40 141.50,-3.99 141.83,-3.58 142.01,-3.08 142.19,-2.59 142.20,-2.06 142.21,-1.54 142.05,-1.04 141.90,-0.54 141.59,-0.11 141.28,0.30 140.85,0.61 140.42,0.91 139.92,1.06 139.42,1.22 138.89,1.20 138.36,1.18 137.87,1.00 137.38,0.81 137.38,0.81 137.38,0.81 136.84,0.52 136.31,0.22 135.00,-0.03 133.69,-0.28 133.24,0.81 132.80,1.92 132.53,3.29 132.26,4.67 131.56,5.54 130.85,6.42 130.45,7.51 130.06,8.60 129.40,10.31 128.74,12.02 128.20,13.51 127.66,15.01 127.10,16.22 126.55,17.43 126.01,18.84 125.47,20.24 124.52,21.85 123.57,23.46 123.25,25.06 122.93,26.66 121.95,28.06 120.97,29.45 120.44,30.57 119.92,31.68 119.11,33.52 118.31,35.35 117.87,36.76 117.44,38.17 116.74,39.47 116.04,40.77 114.95,42.63 113.86,44.50 112.23,46.23 110.60,47.96 109.77,48.81 108.94,49.66 107.68,50.91 106.42,52.17 105.43,53.29 104.44,54.41 103.04,55.49 101.64,56.56 100.54,57.53 99.44,58.50 98.06,59.56 96.69,60.62 95.56,61.59 94.43,62.56 92.98,63.54 91.52,64.53 90.28,65.18 89.04,65.83 87.02,67.24 85.00,68.65 84.04,69.13 83.08,69.62 81.68,70.18 80.28,70.74 77.55,71.59 74.82,72.45 73.52,72.45 72.21,72.44 71.12,72.41 70.03,72.38 68.65,72.27 67.26,72.15 65.34,71.64 63.41,71.13 62.22,70.73 61.04,70.34 59.77,70.28 58.51,70.21 57.33,70.05 56.16,69.89 54.28,68.92 52.41,67.95 51.43,67.50 50.46,67.04 49.33,66.87 48.19,66.70 46.82,65.73 45.44,64.77 43.31,63.99 41.19,63.21 40.34,62.32 39.50,61.43 38.33,60.64 37.16,59.86 36.09,58.89 35.02,57.91 34.28,56.80 33.54,55.69 32.55,54.20 31.56,52.72 30.34,51.12 29.12,49.52 28.43,48.21 27.73,46.90 26.69,45.69 25.65,44.48 24.73,43.26 23.82,42.03 22.88,40.84 21.93,39.65 21.35,38.62 20.77,37.59 19.79,36.19 18.80,34.78 18.16,33.44 17.51,32.09 16.47,30.59 15.43,29.10 14.41,27.54 13.40,25.98 12.56,24.46 11.72,22.94 11.30,21.94 10.89,20.94 10.42,19.81 9.95,18.68 8.91,16.97 7.87,15.26 7.25,14.24 6.63,13.22 6.12,12.15 5.61,11.08 4.33,8.93 3.05,6.79 2.07,5.10 1.09,3.41 -0.02,2.85 -1.14,2.28 -1.39,2.11 -1.65,1.94 -1.86,1.71 -2.07,1.49 -2.22,1.22 -2.36,0.95 -2.44,0.65 -2.52,0.35 -2.53,0.04 -2.54,-0.25 -2.47,-0.55 -2.40,-0.85 -2.26,-1.13 -2.12,-1.40 -1.92,-1.64 -1.73,-1.87 -1.48,-2.05 -1.23,-2.23 -0.94,-2.35 -0.65,-2.46 -0.35,-2.50 -0.05,-2.55 0.25,-2.52 0.56,-2.49 0.85,-2.38 1.14,-2.28 1.14,-2.28 L 1.14,-2.28 Z"></path></g><g stroke-linecap="round"><g transform="translate(716.4721283804346 372.9151575945318) rotate(0 1.1583756129617484 35.08552168831229)"><path d="M1.04 0.31 C1.33 11.99, 1.28 58.49, 1.27 69.87" stroke="#1e1e1e" stroke-width="1.5" fill="none" stroke-dasharray="8 9"></path></g></g><mask></mask><g stroke-linecap="round"><g transform="translate(348.4721283804346 277.9151575945318) rotate(0 -118.5509685613215 1.1299043646806837)"><path d="M-1.16 1.02 C-40.4 1.38, -197.01 1.19, -235.94 1.17" stroke="#e03131" stroke-width="1.5" fill="none" stroke-dasharray="8 9"></path></g></g><mask></mask><g stroke-linecap="round"><g transform="translate(574.4721283804346 367.9151575945318) rotate(0 70.8261329077184 0.9615884758532047)"><path d="M0.12 -0.35 C23.62 0.22, 118.19 1.94, 141.53 2.28" stroke="#1e1e1e" stroke-width="1.5" fill="none" stroke-dasharray="8 9"></path></g></g><mask></mask><g stroke-linecap="round"><g transform="translate(574.4721283804346 367.9151575945318) rotate(0 -229.18148756995797 1.8135105587542029)"><path d="M-0.34 -0.68 C-76.52 0.2, -381.57 3.25, -458.03 4.31" stroke="#1e1e1e" stroke-width="1.5" fill="none" stroke-dasharray="8 9"></path></g></g><mask></mask><g transform="translate(68.47212838043458 265.9151575945318) rotate(0 15.5 1.5)" stroke="none"><path fill="#1e1e1e" d="M 0.90,-2.10 Q 0.90,-2.10 2.86,-1.12 4.81,-0.14 6.35,0.16 7.88,0.48 9.36,0.60 10.84,0.72 12.33,0.75 13.81,0.79 15.58,0.85 17.35,0.90 18.79,0.63 20.23,0.37 22.18,-0.33 24.13,-1.04 25.87,-1.27 27.61,-1.50 29.29,-1.56 30.97,-1.62 31.39,-1.56 31.81,-1.49 32.19,-1.30 32.56,-1.10 32.86,-0.80 33.15,-0.49 33.34,-0.11 33.52,0.27 33.57,0.69 33.62,1.11 33.53,1.53 33.44,1.94 33.23,2.31 33.01,2.68 32.69,2.95 32.37,3.23 31.98,3.39 31.58,3.55 31.16,3.58 30.74,3.61 30.33,3.50 29.92,3.39 29.56,3.15 29.21,2.92 28.95,2.58 28.69,2.25 28.55,1.85 28.41,1.45 28.40,1.02 28.40,0.60 28.53,0.19 28.66,-0.20 28.92,-0.54 29.17,-0.88 29.52,-1.13 29.87,-1.37 30.28,-1.49 30.69,-1.60 31.11,-1.58 31.53,-1.57 31.93,-1.41 32.33,-1.26 32.65,-0.99 32.98,-0.71 33.20,-0.35 33.43,0.00 33.52,0.41 33.62,0.83 33.57,1.25 33.53,1.67 33.36,2.06 33.18,2.45 32.89,2.76 32.60,3.07 32.23,3.27 31.86,3.48 31.44,3.55 31.02,3.62 31.02,3.62 31.02,3.62 28.61,3.58 26.20,3.54 24.79,3.59 23.38,3.64 22.16,4.04 20.94,4.44 19.12,4.72 17.30,5.01 15.47,5.00 13.63,5.00 12.03,4.91 10.44,4.81 8.74,4.62 7.04,4.43 5.13,4.01 3.23,3.59 1.16,2.85 -0.90,2.10 -1.14,1.96 -1.38,1.83 -1.58,1.63 -1.77,1.44 -1.92,1.21 -2.07,0.97 -2.16,0.71 -2.24,0.45 -2.26,0.17 -2.29,-0.09 -2.24,-0.37 -2.20,-0.64 -2.09,-0.89 -1.98,-1.15 -1.81,-1.37 -1.65,-1.59 -1.43,-1.76 -1.22,-1.94 -0.97,-2.05 -0.72,-2.17 -0.45,-2.23 -0.17,-2.28 0.09,-2.27 0.37,-2.26 0.63,-2.18 0.90,-2.10 0.90,-2.10 L 0.90,-2.10 Z"></path></g><g transform="translate(77.47212838043458 280.9151575945318) rotate(0 13 10)" stroke="none"><path fill="#1e1e1e" d="M 0.36,-2.53 Q 0.36,-2.53 2.35,-2.11 4.34,-1.69 5.45,-1.62 6.56,-1.55 8.14,-1.58 9.72,-1.61 11.65,-1.16 13.57,-0.72 14.33,0.17 15.10,1.06 15.39,2.62 15.68,4.18 15.74,5.29 15.80,6.41 15.50,7.83 15.19,9.25 14.73,11.02 14.26,12.79 13.34,14.08 12.41,15.38 11.08,16.69 9.75,18.00 9.06,18.97 8.36,19.95 7.47,20.75 6.58,21.54 5.17,22.08 3.77,22.62 3.43,22.70 3.08,22.78 2.73,22.77 2.38,22.77 2.03,22.68 1.69,22.59 1.38,22.42 1.07,22.26 0.81,22.02 0.55,21.78 0.35,21.49 0.16,21.20 0.04,20.86 -0.08,20.53 -0.11,20.18 -0.15,19.83 -0.10,19.48 -0.06,19.13 0.06,18.80 0.19,18.47 0.40,18.19 0.60,17.90 0.87,17.67 1.13,17.44 1.45,17.28 1.76,17.12 3.65,17.08 5.54,17.03 7.97,17.24 10.39,17.45 13.15,17.61 15.91,17.77 18.24,17.89 20.56,18.01 23.28,17.94 26.00,17.87 26.34,17.92 26.67,17.98 26.98,18.14 27.28,18.30 27.52,18.55 27.76,18.80 27.90,19.11 28.04,19.43 28.08,19.77 28.12,20.11 28.04,20.45 27.97,20.78 27.79,21.08 27.62,21.37 27.35,21.60 27.09,21.82 26.77,21.95 26.45,22.07 26.11,22.09 25.76,22.11 25.43,22.02 25.10,21.93 24.82,21.73 24.53,21.54 24.32,21.26 24.12,20.99 24.01,20.66 23.90,20.34 23.90,19.99 23.90,19.65 24.01,19.32 24.12,19.00 24.32,18.72 24.53,18.45 24.82,18.26 25.10,18.06 25.43,17.97 25.77,17.88 26.11,17.90 26.45,17.92 26.77,18.05 27.09,18.17 27.35,18.40 27.62,18.62 27.79,18.91 27.97,19.21 28.05,19.54 28.12,19.88 28.08,20.22 28.04,20.57 27.90,20.88 27.75,21.19 27.52,21.44 27.28,21.69 26.98,21.85 26.67,22.01 26.33,22.07 25.99,22.12 25.99,22.12 25.99,22.12 23.28,22.05 20.56,21.98 18.23,22.10 15.91,22.21 13.14,22.37 10.38,22.52 7.07,22.57 3.77,22.62 3.43,22.70 3.08,22.78 2.73,22.77 2.38,22.77 2.03,22.68 1.69,22.59 1.38,22.42 1.07,22.26 0.81,22.02 0.55,21.78 0.35,21.49 0.16,21.20 0.04,20.86 -0.08,20.53 -0.11,20.18 -0.15,19.83 -0.10,19.48 -0.06,19.13 0.06,18.80 0.19,18.48 0.40,18.19 0.60,17.90 0.87,17.67 1.13,17.44 1.45,17.28 1.76,17.12 2.85,16.93 3.95,16.75 4.82,15.50 5.69,14.25 6.69,13.03 7.70,11.81 8.47,10.63 9.25,9.46 9.65,8.02 10.06,6.58 9.83,5.06 9.60,3.55 7.82,3.37 6.05,3.18 4.87,3.01 3.70,2.84 1.66,2.68 -0.36,2.53 -0.65,2.45 -0.95,2.37 -1.22,2.22 -1.49,2.07 -1.72,1.86 -1.94,1.65 -2.11,1.39 -2.28,1.14 -2.39,0.84 -2.49,0.55 -2.52,0.25 -2.55,-0.05 -2.51,-0.35 -2.46,-0.66 -2.35,-0.94 -2.23,-1.23 -2.05,-1.48 -1.87,-1.73 -1.64,-1.93 -1.40,-2.13 -1.13,-2.27 -0.85,-2.40 -0.55,-2.47 -0.25,-2.54 0.05,-2.53 0.36,-2.53 0.36,-2.53 L 0.36,-2.53 Z"></path></g><g transform="translate(85.47212838043458 235.91515759453182) rotate(0 0 18)" stroke="none"><path fill="#1e1e1e" d="M 2.09,0 Q 2.09,0 1.98,2.87 1.88,5.75 1.80,8.40 1.73,11.06 1.67,13.63 1.61,16.20 1.57,18.44 1.53,20.68 1.57,22.50 1.61,24.31 1.67,25.95 1.72,27.58 1.81,28.85 1.90,30.12 1.98,31.23 2.06,32.35 2.13,34.17 2.21,36 2.15,36.35 2.09,36.70 1.93,37.02 1.76,37.33 1.50,37.58 1.24,37.83 0.91,37.98 0.59,38.13 0.23,38.17 -0.11,38.21 -0.46,38.13 -0.81,38.05 -1.12,37.87 -1.43,37.68 -1.66,37.41 -1.89,37.14 -2.02,36.80 -2.16,36.47 -2.18,36.11 -2.20,35.76 -2.10,35.41 -2.00,35.07 -1.80,34.77 -1.60,34.47 -1.32,34.26 -1.03,34.04 -0.69,33.92 -0.35,33.81 0.00,33.81 0.35,33.81 0.69,33.92 1.03,34.04 1.32,34.26 1.60,34.47 1.80,34.77 2.00,35.07 2.10,35.41 2.20,35.76 2.18,36.11 2.16,36.47 2.02,36.80 1.89,37.14 1.66,37.41 1.43,37.68 1.12,37.87 0.81,38.05 0.46,38.13 0.11,38.21 -0.23,38.17 -0.59,38.13 -0.91,37.98 -1.24,37.83 -1.50,37.58 -1.76,37.33 -1.93,37.02 -2.09,36.70 -2.15,36.35 -2.21,35.99 -2.21,35.99 -2.21,36 -2.13,34.17 -2.06,32.35 -1.98,31.23 -1.90,30.12 -1.81,28.85 -1.72,27.58 -1.67,25.95 -1.61,24.31 -1.57,22.50 -1.53,20.68 -1.57,18.44 -1.61,16.20 -1.67,13.63 -1.73,11.06 -1.80,8.40 -1.88,5.75 -1.98,2.87 -2.09,0 -2.06,-0.25 -2.03,-0.50 -1.94,-0.73 -1.85,-0.97 -1.71,-1.18 -1.56,-1.38 -1.37,-1.55 -1.18,-1.72 -0.96,-1.84 -0.74,-1.95 -0.49,-2.01 -0.25,-2.07 0.00,-2.07 0.25,-2.07 0.49,-2.01 0.74,-1.95 0.96,-1.84 1.18,-1.72 1.37,-1.55 1.56,-1.38 1.71,-1.18 1.85,-0.97 1.94,-0.73 2.03,-0.50 2.06,-0.25 2.09,0.00 2.09,0.00 L 2.09,0 Z"></path></g><g transform="translate(72.47212838043458 362.9151575945318) rotate(0 13.5 -1.5)" stroke="none"><path fill="#1e1e1e" d="M 0,-2.27 Q 0,-2.27 1.43,-2.29 2.87,-2.31 4.63,-2.27 6.39,-2.23 7.81,-2.49 9.22,-2.75 11.02,-3.10 12.82,-3.44 14.76,-3.84 16.69,-4.23 18.48,-4.45 20.28,-4.68 23.61,-4.97 26.95,-5.26 27.31,-5.21 27.67,-5.16 28.00,-4.99 28.33,-4.83 28.59,-4.57 28.84,-4.31 29.01,-3.98 29.17,-3.65 29.21,-3.28 29.26,-2.92 29.19,-2.56 29.12,-2.20 28.94,-1.88 28.75,-1.56 28.48,-1.32 28.20,-1.08 27.87,-0.93 27.53,-0.79 27.16,-0.76 26.80,-0.74 26.44,-0.83 26.09,-0.92 25.78,-1.12 25.47,-1.32 25.24,-1.60 25.01,-1.89 24.89,-2.24 24.77,-2.58 24.76,-2.95 24.75,-3.31 24.86,-3.66 24.97,-4.01 25.19,-4.31 25.40,-4.61 25.70,-4.82 26.00,-5.03 26.35,-5.14 26.70,-5.24 27.07,-5.23 27.44,-5.22 27.78,-5.09 28.12,-4.96 28.41,-4.73 28.69,-4.50 28.89,-4.19 29.08,-3.88 29.17,-3.52 29.26,-3.16 29.22,-2.80 29.19,-2.43 29.04,-2.10 28.90,-1.76 28.65,-1.49 28.40,-1.22 28.08,-1.04 27.76,-0.86 27.40,-0.80 27.04,-0.73 27.04,-0.73 27.04,-0.73 23.89,-0.73 20.74,-0.73 19.17,-0.56 17.60,-0.40 15.67,0.12 13.74,0.65 11.87,1.13 10.00,1.60 8.20,1.91 6.40,2.23 4.63,2.27 2.87,2.31 1.43,2.29 0,2.27 -0.27,2.24 -0.54,2.21 -0.80,2.11 -1.05,2.01 -1.28,1.86 -1.51,1.70 -1.69,1.50 -1.87,1.29 -2.00,1.05 -2.13,0.80 -2.19,0.54 -2.26,0.27 -2.26,-0.00 -2.26,-0.27 -2.19,-0.54 -2.13,-0.80 -2.00,-1.05 -1.87,-1.29 -1.69,-1.50 -1.51,-1.70 -1.28,-1.86 -1.05,-2.01 -0.80,-2.11 -0.54,-2.21 -0.27,-2.24 0.00,-2.27 0.00,-2.27 L 0,-2.27 Z"></path></g><g transform="translate(87.47212838043458 360.9151575945318) rotate(0 4 16)" stroke="none"><path fill="#1e1e1e" d="M 1.75,0.87 Q 1.75,0.87 0.86,2.58 -0.03,4.28 -0.27,5.44 -0.51,6.61 -1.35,8.64 -2.20,10.67 -2.45,12.24 -2.70,13.80 -3.49,16.59 -4.29,19.37 -4.93,21.67 -5.57,23.97 -6.14,26.09 -6.72,28.21 -6.84,29.32 -6.96,30.42 -4.80,30.14 -2.65,29.85 -1.00,29.41 0.63,28.97 2.63,28.50 4.63,28.03 6.12,27.73 7.61,27.43 9.25,27.13 10.88,26.83 12.37,26.79 13.85,26.75 15.41,26.67 16.98,26.60 17.36,26.66 17.74,26.72 18.09,26.90 18.43,27.08 18.70,27.36 18.97,27.64 19.13,27.99 19.30,28.34 19.34,28.72 19.39,29.11 19.31,29.48 19.23,29.86 19.03,30.20 18.83,30.53 18.54,30.78 18.25,31.04 17.89,31.18 17.53,31.33 17.14,31.35 16.75,31.38 16.38,31.28 16.01,31.18 15.68,30.96 15.36,30.75 15.12,30.44 14.89,30.13 14.76,29.77 14.63,29.40 14.63,29.01 14.63,28.63 14.75,28.26 14.87,27.89 15.10,27.58 15.33,27.27 15.65,27.05 15.97,26.83 16.35,26.72 16.72,26.62 17.10,26.63 17.49,26.65 17.85,26.79 18.21,26.93 18.51,27.18 18.81,27.43 19.01,27.76 19.21,28.09 19.30,28.47 19.39,28.85 19.35,29.23 19.31,29.62 19.15,29.97 18.99,30.32 18.72,30.61 18.46,30.89 18.12,31.07 17.78,31.26 17.40,31.32 17.01,31.39 17.01,31.39 17.01,31.39 15.46,31.34 13.90,31.29 12.52,31.29 11.14,31.28 9.67,31.24 8.20,31.21 6.87,31.35 5.53,31.48 3.59,32.04 1.65,32.61 -0.56,33.24 -2.78,33.87 -4.81,33.78 -6.85,33.70 -8.15,33.07 -9.45,32.45 -9.90,31.24 -10.36,30.04 -10.02,28.75 -9.68,27.47 -9.18,25.32 -8.68,23.18 -8.15,20.85 -7.61,18.52 -6.99,15.83 -6.37,13.13 -6.00,11.28 -5.63,9.42 -5.01,7.47 -4.39,5.52 -3.90,4.06 -3.41,2.61 -2.58,0.86 -1.75,-0.87 -1.62,-1.07 -1.49,-1.27 -1.32,-1.43 -1.14,-1.59 -0.93,-1.70 -0.73,-1.82 -0.50,-1.88 -0.27,-1.94 -0.03,-1.94 0.19,-1.95 0.42,-1.90 0.65,-1.84 0.87,-1.74 1.08,-1.63 1.26,-1.48 1.44,-1.32 1.58,-1.13 1.71,-0.94 1.80,-0.72 1.89,-0.50 1.92,-0.27 1.96,-0.03 1.93,0.19 1.91,0.43 1.83,0.65 1.75,0.87 1.75,0.87 L 1.75,0.87 Z"></path></g><g transform="translate(91.47212838043458 371.9151575945318) rotate(0 0 18.5)" stroke="none"><path fill="#1e1e1e" d="M 1.76,0 Q 1.76,0 1.70,2.87 1.64,5.75 1.59,10.13 1.55,14.51 1.51,17.24 1.48,19.97 1.46,22.56 1.43,25.16 1.42,27.41 1.40,29.66 1.39,31.77 1.38,33.88 1.48,35.44 1.57,37 1.53,37.25 1.49,37.50 1.37,37.72 1.25,37.95 1.06,38.12 0.88,38.30 0.65,38.41 0.42,38.51 0.16,38.54 -0.08,38.57 -0.33,38.51 -0.58,38.46 -0.80,38.33 -1.02,38.20 -1.18,38.00 -1.35,37.81 -1.44,37.57 -1.53,37.33 -1.55,37.08 -1.56,36.82 -1.49,36.58 -1.42,36.33 -1.28,36.12 -1.14,35.91 -0.94,35.76 -0.73,35.60 -0.49,35.52 -0.25,35.44 0.00,35.44 0.25,35.44 0.49,35.52 0.73,35.60 0.94,35.76 1.14,35.91 1.28,36.12 1.42,36.33 1.49,36.58 1.56,36.82 1.55,37.08 1.53,37.33 1.44,37.57 1.34,37.81 1.18,38.00 1.01,38.20 0.80,38.33 0.58,38.46 0.33,38.51 0.08,38.57 -0.16,38.54 -0.42,38.51 -0.65,38.41 -0.88,38.30 -1.06,38.12 -1.25,37.95 -1.37,37.72 -1.49,37.50 -1.53,37.25 -1.57,36.99 -1.57,36.99 -1.57,37 -1.48,35.44 -1.38,33.88 -1.39,31.77 -1.40,29.66 -1.42,27.41 -1.43,25.16 -1.46,22.56 -1.48,19.97 -1.51,17.24 -1.55,14.51 -1.59,10.13 -1.64,5.75 -1.70,2.87 -1.76,0 -1.73,-0.21 -1.71,-0.42 -1.63,-0.62 -1.56,-0.81 -1.44,-0.99 -1.31,-1.16 -1.16,-1.31 -1.00,-1.45 -0.81,-1.54 -0.62,-1.64 -0.41,-1.69 -0.21,-1.75 0.00,-1.75 0.21,-1.75 0.41,-1.69 0.62,-1.64 0.81,-1.54 1.00,-1.45 1.16,-1.31 1.31,-1.16 1.44,-0.99 1.56,-0.81 1.63,-0.62 1.71,-0.42 1.73,-0.21 1.76,0.00 1.76,0.00 L 1.76,0 Z"></path></g><g transform="translate(88.47212838043458 327.9151575945318) rotate(0 0 14.5)" stroke="none"><path fill="#1e1e1e" d="M 2.22,0 Q 2.22,0 2.10,2.3 1.98,4.6 1.96,6.43 1.94,8.28 2.00,9.63 2.06,10.99 2.12,12.14 2.19,13.29 2.31,14.97 2.44,16.66 2.46,17.90 2.49,19.15 2.33,21.41 2.18,23.66 2.24,26.33 2.29,29 2.23,29.36 2.17,29.73 2.00,30.06 1.83,30.39 1.56,30.64 1.29,30.90 0.95,31.05 0.61,31.21 0.24,31.25 -0.12,31.29 -0.48,31.21 -0.85,31.13 -1.17,30.94 -1.48,30.75 -1.72,30.46 -1.97,30.18 -2.10,29.83 -2.24,29.49 -2.26,29.12 -2.28,28.75 -2.18,28.39 -2.08,28.03 -1.87,27.72 -1.66,27.41 -1.37,27.19 -1.07,26.96 -0.72,26.84 -0.37,26.73 0.00,26.73 0.37,26.73 0.72,26.84 1.07,26.96 1.37,27.19 1.67,27.41 1.87,27.72 2.08,28.03 2.18,28.39 2.28,28.75 2.26,29.12 2.24,29.49 2.10,29.84 1.97,30.18 1.72,30.46 1.48,30.75 1.16,30.94 0.85,31.13 0.48,31.21 0.12,31.29 -0.24,31.25 -0.61,31.21 -0.95,31.05 -1.29,30.90 -1.56,30.64 -1.83,30.39 -2.00,30.06 -2.17,29.73 -2.23,29.36 -2.29,28.99 -2.29,28.99 -2.29,29 -2.24,26.33 -2.18,23.66 -2.33,21.41 -2.49,19.15 -2.46,17.90 -2.44,16.66 -2.31,14.97 -2.19,13.29 -2.12,12.14 -2.06,10.99 -2.00,9.63 -1.94,8.28 -1.96,6.43 -1.98,4.6 -2.10,2.3 -2.22,0 -2.19,-0.26 -2.15,-0.53 -2.06,-0.78 -1.96,-1.03 -1.81,-1.25 -1.66,-1.47 -1.46,-1.65 -1.26,-1.82 -1.02,-1.95 -0.78,-2.07 -0.52,-2.14 -0.26,-2.20 0.00,-2.20 0.26,-2.20 0.52,-2.14 0.78,-2.07 1.02,-1.95 1.26,-1.82 1.46,-1.65 1.66,-1.47 1.81,-1.25 1.96,-1.03 2.06,-0.78 2.15,-0.53 2.19,-0.26 2.22,0.00 2.22,0.00 L 2.22,0 Z"></path></g><g transform="translate(469.4721283804346 464.9151575945318) rotate(0 11.5 18)" stroke="none"><path fill="#1e1e1e" d="M 0.49,-2.47 Q 0.49,-2.47 1.93,-2.18 3.36,-1.88 4.72,-1.44 6.07,-1.01 7.80,-0.14 9.53,0.71 11.57,1.39 13.60,2.08 14.47,2.80 15.33,3.53 15.97,4.86 16.60,6.20 16.12,7.73 15.65,9.26 12.90,12.88 10.16,16.50 8.80,17.75 7.44,19.01 6.23,19.91 5.02,20.81 4.08,22.01 3.13,23.20 2.86,23.37 2.60,23.54 2.30,23.64 2.00,23.74 1.69,23.77 1.37,23.79 1.06,23.74 0.75,23.70 0.46,23.57 0.17,23.45 -0.07,23.26 -0.33,23.07 -0.53,22.83 -0.73,22.59 -0.86,22.30 -1.00,22.02 -1.06,21.71 -1.13,21.40 -1.12,21.09 -1.11,20.77 -1.02,20.47 -0.93,20.17 -0.78,19.89 -0.62,19.62 -0.40,19.39 -0.18,19.16 1.65,19.24 3.50,19.33 5.88,19.40 8.27,19.48 10.20,19.60 12.13,19.71 13.53,19.70 14.93,19.68 16.10,19.64 17.27,19.60 18.98,19.63 20.70,19.67 22.05,20.14 23.41,20.62 24.31,21.97 25.20,23.33 25.05,24.51 24.91,25.68 24.05,26.75 23.18,27.82 22.38,28.87 21.57,29.92 20.52,31.08 19.47,32.24 18.29,33.17 17.12,34.11 15.58,34.84 14.05,35.57 11.68,36.49 9.32,37.41 7.57,38.01 5.82,38.61 5.38,38.67 4.94,38.74 4.50,38.65 4.07,38.57 3.68,38.36 3.29,38.14 2.99,37.81 2.69,37.49 2.52,37.08 2.34,36.67 2.30,36.23 2.26,35.79 2.37,35.36 2.47,34.93 2.71,34.55 2.94,34.18 3.29,33.90 3.63,33.62 4.05,33.46 4.46,33.31 4.91,33.29 5.35,33.28 5.77,33.40 6.20,33.53 6.56,33.79 6.92,34.04 7.18,34.40 7.44,34.76 7.58,35.19 7.71,35.61 7.70,36.05 7.69,36.50 7.54,36.91 7.39,37.33 7.11,37.68 6.84,38.02 6.47,38.27 6.09,38.51 5.66,38.62 5.23,38.73 4.79,38.69 4.35,38.66 3.94,38.49 3.53,38.31 3.20,38.02 2.87,37.73 2.65,37.34 2.43,36.96 2.34,36.52 2.26,36.09 2.31,35.65 2.37,35.21 2.56,34.81 2.76,34.41 3.07,34.09 3.38,33.78 3.78,33.58 4.17,33.38 4.17,33.38 4.17,33.38 5.64,32.97 7.12,32.56 9.42,31.59 11.72,30.63 13.50,29.60 15.29,28.57 16.12,27.57 16.95,26.57 18.20,25.45 19.46,24.32 18.36,24.35 17.26,24.38 16.08,24.33 14.91,24.29 13.50,24.25 12.09,24.22 10.12,24.30 8.16,24.39 5.64,23.79 3.13,23.20 2.86,23.37 2.60,23.54 2.30,23.64 2.00,23.74 1.69,23.77 1.37,23.79 1.06,23.74 0.75,23.70 0.46,23.57 0.17,23.45 -0.07,23.26 -0.33,23.07 -0.53,22.83 -0.73,22.59 -0.86,22.30 -1.00,22.02 -1.06,21.71 -1.13,21.40 -1.12,21.09 -1.11,20.77 -1.02,20.47 -0.93,20.17 -0.78,19.89 -0.62,19.62 -0.40,19.39 -0.18,19.16 0.14,18.67 0.47,18.18 1.33,17.52 2.20,16.87 3.18,16.21 4.15,15.55 5.23,14.48 6.31,13.40 8.16,10.88 10.01,8.36 11.01,7.36 12.01,6.35 10.89,6.12 9.77,5.89 8.67,5.48 7.57,5.07 5.99,4.43 4.41,3.80 3.39,3.41 2.38,3.03 0.94,2.75 -0.49,2.47 -0.78,2.38 -1.07,2.28 -1.33,2.12 -1.59,1.96 -1.80,1.74 -2.01,1.52 -2.16,1.26 -2.32,0.99 -2.40,0.70 -2.49,0.41 -2.50,0.11 -2.52,-0.19 -2.46,-0.49 -2.40,-0.79 -2.27,-1.06 -2.14,-1.34 -1.94,-1.57 -1.75,-1.81 -1.51,-1.99 -1.27,-2.18 -0.99,-2.30 -0.71,-2.42 -0.41,-2.47 -0.11,-2.52 0.19,-2.50 0.49,-2.47 0.49,-2.47 L 0.49,-2.47 Z"></path></g><g transform="translate(578.4721283804346 464.9151575945318) rotate(0 1 15.5)" stroke="none"><path fill="#1e1e1e" d="M 1.29,1.29 Q 1.29,1.29 -0.17,2.69 -1.64,4.10 -3.07,6.00 -4.50,7.91 -6.03,9.92 -7.55,11.92 -9.01,14.68 -10.47,17.43 -11.69,20.05 -12.90,22.66 -13.31,23.91 -13.72,25.16 -12.07,26.09 -10.42,27.02 -8.51,27.69 -6.60,28.37 -4.15,28.68 -1.70,28.99 0.23,29.11 2.17,29.23 4.02,29.01 5.87,28.79 7.32,28.59 8.77,28.40 10.62,27.77 12.47,27.14 15.21,26.90 17.95,26.66 18.33,26.71 18.70,26.77 19.04,26.94 19.37,27.11 19.64,27.38 19.90,27.65 20.07,27.99 20.23,28.33 20.28,28.70 20.33,29.08 20.26,29.45 20.18,29.82 19.99,30.15 19.80,30.47 19.52,30.72 19.24,30.97 18.89,31.12 18.54,31.27 18.16,31.29 17.79,31.32 17.42,31.23 17.05,31.13 16.74,30.93 16.42,30.72 16.19,30.42 15.95,30.13 15.82,29.77 15.70,29.42 15.69,29.04 15.68,28.66 15.80,28.30 15.91,27.94 16.13,27.63 16.36,27.33 16.67,27.11 16.97,26.89 17.34,26.78 17.70,26.68 18.08,26.69 18.45,26.70 18.81,26.84 19.16,26.97 19.46,27.21 19.75,27.45 19.95,27.77 20.15,28.09 20.24,28.46 20.33,28.83 20.29,29.20 20.26,29.58 20.11,29.92 19.95,30.27 19.70,30.55 19.44,30.83 19.11,31.01 18.78,31.20 18.41,31.26 18.04,31.33 18.04,31.33 18.04,31.33 16.42,31.32 14.80,31.31 13.28,31.32 11.77,31.33 10.40,31.61 9.02,31.88 7.63,31.89 6.24,31.90 4.11,32.14 1.98,32.39 -0.03,32.26 -2.05,32.13 -4.84,31.85 -7.64,31.57 -9.95,30.86 -12.27,30.15 -14.17,28.85 -16.07,27.54 -16.41,26.09 -16.75,24.64 -16.13,23.06 -15.51,21.47 -14.30,18.77 -13.09,16.07 -11.56,13.08 -10.03,10.10 -8.58,8.06 -7.13,6.02 -5.62,3.83 -4.10,1.64 -2.69,0.17 -1.29,-1.29 -1.11,-1.42 -0.94,-1.56 -0.74,-1.65 -0.54,-1.74 -0.32,-1.78 -0.11,-1.82 0.10,-1.81 0.32,-1.79 0.54,-1.73 0.75,-1.66 0.93,-1.55 1.12,-1.43 1.28,-1.28 1.43,-1.12 1.55,-0.93 1.66,-0.75 1.73,-0.53 1.79,-0.32 1.81,-0.10 1.82,0.11 1.78,0.32 1.74,0.54 1.65,0.74 1.56,0.94 1.42,1.11 1.29,1.29 1.29,1.29 L 1.29,1.29 Z"></path></g><g transform="translate(583.4721283804346 466.9151575945318) rotate(0 0 29)" stroke="none"><path fill="#1e1e1e" d="M 1.89,0 Q 1.89,0 1.81,2.87 1.74,5.75 1.68,9.27 1.62,12.79 1.58,19.17 1.54,25.56 1.50,30.57 1.47,35.58 1.45,40.01 1.43,44.45 1.41,47.48 1.40,50.51 1.44,52.38 1.49,54.24 1.60,56.12 1.71,58 1.66,58.27 1.62,58.54 1.49,58.79 1.36,59.03 1.16,59.22 0.96,59.41 0.70,59.53 0.45,59.64 0.18,59.67 -0.09,59.70 -0.36,59.65 -0.63,59.59 -0.87,59.44 -1.10,59.30 -1.28,59.09 -1.46,58.88 -1.56,58.62 -1.67,58.36 -1.68,58.09 -1.70,57.81 -1.62,57.54 -1.55,57.28 -1.39,57.05 -1.24,56.82 -1.02,56.65 -0.80,56.48 -0.53,56.39 -0.27,56.31 0.00,56.31 0.27,56.31 0.53,56.39 0.80,56.48 1.02,56.65 1.24,56.82 1.39,57.05 1.55,57.28 1.62,57.54 1.70,57.81 1.68,58.09 1.67,58.36 1.56,58.62 1.46,58.88 1.28,59.09 1.10,59.30 0.87,59.44 0.63,59.59 0.36,59.65 0.09,59.70 -0.18,59.67 -0.45,59.64 -0.70,59.53 -0.96,59.41 -1.16,59.22 -1.36,59.03 -1.49,58.79 -1.62,58.54 -1.66,58.27 -1.71,57.99 -1.71,57.99 -1.71,58 -1.60,56.12 -1.49,54.24 -1.44,52.38 -1.40,50.51 -1.41,47.48 -1.43,44.45 -1.45,40.01 -1.47,35.58 -1.50,30.57 -1.54,25.56 -1.58,19.17 -1.62,12.79 -1.68,9.27 -1.74,5.75 -1.81,2.87 -1.89,0 -1.86,-0.22 -1.84,-0.45 -1.76,-0.66 -1.68,-0.88 -1.55,-1.07 -1.42,-1.25 -1.24,-1.40 -1.07,-1.56 -0.87,-1.66 -0.67,-1.77 -0.45,-1.82 -0.22,-1.88 0.00,-1.88 0.22,-1.88 0.45,-1.82 0.67,-1.77 0.87,-1.66 1.07,-1.56 1.24,-1.40 1.42,-1.25 1.55,-1.06 1.68,-0.88 1.76,-0.66 1.84,-0.45 1.86,-0.22 1.89,0.00 1.89,0.00 L 1.89,0 Z"></path></g><g transform="translate(650.4721283804346 457.9151575945318) rotate(0 3 33.5)" stroke="none"><path fill="#1e1e1e" d="M 2.27,0 Q 2.27,0 2.15,4.60 2.02,9.20 1.64,13.51 1.25,17.83 0.76,20.84 0.28,23.85 1.11,24.75 1.95,25.64 3.95,25.21 5.94,24.78 7.10,24.69 8.26,24.61 9.66,24.48 11.06,24.36 12.27,24.36 13.48,24.35 15.62,25.44 17.75,26.52 19.03,27.18 20.30,27.84 21.22,28.67 22.14,29.50 22.69,30.79 23.23,32.07 23.59,33.60 23.94,35.14 24.06,37.14 24.19,39.14 23.82,41.83 23.46,44.51 22.96,46.79 22.46,49.06 22.01,50.70 21.56,52.35 20.73,53.83 19.89,55.31 18.94,56.53 18.00,57.75 17.44,58.72 16.89,59.69 16.02,61.00 15.16,62.31 14.59,63.58 14.02,64.85 13.35,65.97 12.68,67.09 11.44,67.90 10.20,68.70 8.34,68.95 6.47,69.20 5.20,69.30 3.93,69.41 2.80,69.47 1.67,69.53 -0.56,69.57 -2.81,69.61 -4.05,69.62 -5.28,69.63 -7.90,68.53 -10.52,67.43 -12.08,66.74 -13.64,66.05 -15.77,64.24 -17.89,62.43 -18.07,62.09 -18.25,61.74 -18.31,61.36 -18.37,60.98 -18.31,60.61 -18.25,60.23 -18.06,59.89 -17.88,59.55 -17.60,59.28 -17.32,59.02 -16.97,58.86 -16.62,58.70 -16.24,58.66 -15.86,58.62 -15.48,58.71 -15.11,58.79 -14.78,58.99 -14.45,59.19 -14.20,59.48 -13.95,59.78 -13.81,60.14 -13.67,60.49 -13.65,60.88 -13.63,61.26 -13.74,61.63 -13.84,62.00 -14.06,62.32 -14.28,62.64 -14.58,62.87 -14.89,63.10 -15.26,63.22 -15.62,63.34 -16.01,63.34 -16.39,63.34 -16.75,63.22 -17.12,63.09 -17.42,62.86 -17.73,62.62 -17.94,62.30 -18.16,61.98 -18.26,61.61 -18.36,61.24 -18.34,60.86 -18.31,60.47 -18.17,60.12 -18.03,59.76 -17.78,59.47 -17.53,59.18 -17.20,58.98 -16.87,58.78 -16.49,58.70 -16.11,58.62 -15.73,58.66 -15.35,58.71 -15.00,58.87 -14.65,59.03 -14.37,59.30 -14.10,59.56 -14.10,59.56 -14.10,59.56 -12.97,60.72 -11.84,61.88 -10.35,62.49 -8.86,63.11 -7.01,63.73 -5.16,64.35 -4.00,64.36 -2.83,64.36 -1.38,64.34 0.06,64.31 1.85,64.34 3.64,64.38 4.79,64.35 5.94,64.31 7.92,63.63 9.90,62.95 10.64,61.39 11.37,59.82 12.23,58.53 13.08,57.23 13.87,56.12 14.66,55.01 15.51,54.04 16.36,53.08 17.06,52.13 17.76,51.17 18.21,49.79 18.66,48.41 18.92,46.27 19.18,44.13 19.25,41.85 19.32,39.57 19.12,38.00 18.91,36.42 18.43,34.32 17.95,32.21 16.69,31.57 15.43,30.92 13.27,30.29 11.12,29.65 9.78,29.58 8.43,29.50 7.36,29.50 6.29,29.49 5.19,29.52 4.08,29.55 2.72,29.72 1.35,29.89 0.17,29.58 -0.99,29.27 -1.91,28.52 -2.84,27.77 -2.95,25.58 -3.07,23.39 -2.73,20.49 -2.40,17.58 -2.21,13.39 -2.02,9.19 -2.15,4.59 -2.27,0 -2.24,-0.27 -2.21,-0.54 -2.11,-0.80 -2.01,-1.05 -1.86,-1.28 -1.70,-1.51 -1.49,-1.69 -1.29,-1.87 -1.05,-2.00 -0.80,-2.13 -0.54,-2.19 -0.27,-2.26 0.00,-2.26 0.27,-2.26 0.54,-2.19 0.80,-2.13 1.05,-2.00 1.29,-1.87 1.49,-1.69 1.70,-1.51 1.86,-1.28 2.01,-1.05 2.11,-0.80 2.21,-0.54 2.24,-0.27 2.27,0.00 2.27,0.00 L 2.27,0 Z"></path></g><g transform="translate(655.4721283804346 471.9151575945318) rotate(0 9.5 0)" stroke="none"><path fill="#1e1e1e" d="M 0,-2.53 Q 0,-2.53 2.58,-2.37 5.17,-2.21 6.56,-2.24 7.94,-2.27 9.48,-2.39 11.02,-2.50 12.12,-2.59 13.21,-2.68 16.10,-2.78 19,-2.88 19.46,-2.80 19.92,-2.73 20.33,-2.51 20.74,-2.29 21.06,-1.95 21.38,-1.61 21.58,-1.19 21.77,-0.77 21.82,-0.30 21.87,0.15 21.77,0.61 21.67,1.06 21.43,1.46 21.19,1.86 20.84,2.16 20.48,2.46 20.05,2.64 19.61,2.81 19.15,2.83 18.68,2.86 18.23,2.74 17.78,2.61 17.40,2.35 17.01,2.09 16.73,1.72 16.45,1.34 16.30,0.90 16.15,0.46 16.15,-0.00 16.15,-0.46 16.30,-0.90 16.45,-1.35 16.73,-1.72 17.01,-2.09 17.40,-2.35 17.79,-2.61 18.23,-2.74 18.68,-2.86 19.15,-2.83 19.62,-2.81 20.05,-2.64 20.48,-2.46 20.84,-2.16 21.19,-1.86 21.43,-1.46 21.67,-1.06 21.77,-0.61 21.87,-0.15 21.82,0.30 21.77,0.77 21.58,1.19 21.38,1.61 21.06,1.95 20.74,2.29 20.33,2.51 19.91,2.73 19.45,2.80 18.99,2.88 18.99,2.88 19,2.88 16.10,2.78 13.21,2.68 12.12,2.59 11.02,2.50 9.48,2.39 7.94,2.27 6.56,2.24 5.17,2.21 2.58,2.37 0,2.53 -0.30,2.49 -0.60,2.45 -0.89,2.35 -1.17,2.24 -1.42,2.06 -1.67,1.89 -1.88,1.66 -2.08,1.43 -2.22,1.16 -2.36,0.89 -2.44,0.60 -2.51,0.30 -2.51,-0.00 -2.51,-0.30 -2.44,-0.60 -2.36,-0.89 -2.22,-1.16 -2.08,-1.43 -1.88,-1.66 -1.67,-1.89 -1.42,-2.06 -1.17,-2.24 -0.89,-2.35 -0.60,-2.45 -0.30,-2.49 0.00,-2.53 0.00,-2.53 L 0,-2.53 Z"></path></g><g transform="translate(747.4721283804346 448.9151575945318) rotate(0 -14.5 28.5)" stroke="none"><path fill="#1e1e1e" d="M 0.83,1.46 Q 0.83,1.46 -1.20,2.56 -3.23,3.67 -4.27,4.49 -5.30,5.30 -6.84,6.90 -8.37,8.50 -9.29,9.59 -10.22,10.69 -11.13,12.34 -12.05,14.00 -13.39,16.24 -14.73,18.47 -16.47,21.16 -18.22,23.84 -20.64,28.92 -23.07,33.99 -24.41,36.75 -25.76,39.51 -26.24,41.19 -26.72,42.87 -26.86,44.36 -27.01,45.86 -27.01,47.07 -27.01,48.28 -27.04,49.66 -27.08,51.04 -25.56,51.68 -24.04,52.32 -23.07,53.22 -22.11,54.13 -20.34,52.48 -18.56,50.83 -17.51,49.66 -16.46,48.49 -16.09,47.34 -15.71,46.20 -17.70,45.27 -19.69,44.34 -21.19,43.79 -22.69,43.24 -23.71,42.57 -24.73,41.91 -26.85,41.00 -28.97,40.09 -29.25,39.72 -29.53,39.35 -29.68,38.91 -29.83,38.46 -29.83,38.00 -29.83,37.53 -29.69,37.09 -29.54,36.65 -29.26,36.28 -28.98,35.91 -28.59,35.65 -28.21,35.39 -27.76,35.26 -27.31,35.14 -26.85,35.16 -26.38,35.19 -25.95,35.36 -25.52,35.53 -25.16,35.83 -24.81,36.13 -24.57,36.53 -24.33,36.93 -24.22,37.38 -24.12,37.84 -24.17,38.30 -24.22,38.76 -24.42,39.18 -24.61,39.61 -24.93,39.94 -25.25,40.28 -25.66,40.50 -26.07,40.72 -26.53,40.79 -26.99,40.87 -27.45,40.80 -27.91,40.72 -28.32,40.50 -28.73,40.29 -29.05,39.95 -29.37,39.61 -29.57,39.19 -29.76,38.77 -29.82,38.31 -29.87,37.84 -29.77,37.39 -29.67,36.93 -29.43,36.54 -29.19,36.14 -28.83,35.83 -28.48,35.53 -28.05,35.36 -27.62,35.19 -27.15,35.16 -26.69,35.14 -26.24,35.26 -25.79,35.38 -25.41,35.64 -25.02,35.91 -25.02,35.90 -25.02,35.90 -24.11,36.28 -23.19,36.66 -22.05,37.43 -20.91,38.21 -19.44,38.64 -17.97,39.07 -16.19,39.63 -14.42,40.18 -13.44,40.84 -12.46,41.50 -11.61,42.75 -10.76,44.01 -10.65,45.12 -10.53,46.23 -11.07,47.84 -11.60,49.45 -12.26,50.47 -12.93,51.48 -14.17,53.01 -15.42,54.53 -16.92,55.86 -18.41,57.19 -20.14,57.81 -21.86,58.43 -24.05,57.44 -26.24,56.46 -27.17,55.86 -28.11,55.26 -29.48,53.74 -30.86,52.21 -30.77,50.10 -30.68,47.99 -30.48,46.68 -30.28,45.38 -29.94,43.66 -29.60,41.95 -28.95,40.12 -28.31,38.29 -27.00,35.52 -25.69,32.74 -23.23,27.49 -20.76,22.24 -19.11,19.57 -17.46,16.90 -16.23,14.67 -15.01,12.44 -13.94,10.33 -12.87,8.23 -11.82,7.25 -10.78,6.27 -9.05,4.33 -7.31,2.39 -6.06,1.66 -4.81,0.92 -2.82,-0.26 -0.83,-1.46 -0.64,-1.54 -0.46,-1.62 -0.26,-1.65 -0.06,-1.68 0.14,-1.66 0.34,-1.65 0.53,-1.58 0.72,-1.51 0.90,-1.41 1.07,-1.30 1.21,-1.15 1.35,-1.00 1.45,-0.83 1.55,-0.65 1.60,-0.45 1.66,-0.26 1.67,-0.05 1.67,0.14 1.63,0.34 1.59,0.54 1.50,0.72 1.42,0.90 1.29,1.06 1.16,1.22 0.99,1.34 0.83,1.46 0.83,1.46 L 0.83,1.46 Z"></path></g><g stroke-linecap="round"><g transform="translate(108.80411104788271 343.1539795207976) rotate(0 264.3882941713159 0.13449321196338815)"><path d="M0.15 0.95 C88.19 0.68, 440.39 -0.18, 528.62 -0.69" stroke="#e03131" stroke-width="1.5" fill="none" stroke-dasharray="8 9"></path></g></g><mask></mask><g transform="translate(580.739090961586 255.58640525109564) rotate(0 13.17388285473396 13.948817140306517)" stroke="none"><path fill="#e03131" d="M 0.69,-1.85 Q 0.69,-1.85 2.47,-1.14 4.26,-0.43 7.89,2.50 11.51,5.43 13.91,8.06 16.31,10.68 18.45,13.63 20.59,16.57 22.15,18.94 23.71,21.31 24.82,22.67 25.94,24.04 26.91,25.53 27.88,27.02 27.98,27.29 28.08,27.56 28.09,27.84 28.10,28.13 28.02,28.40 27.93,28.68 27.77,28.91 27.60,29.14 27.37,29.31 27.13,29.48 26.86,29.56 26.59,29.65 26.30,29.64 26.01,29.63 25.74,29.54 25.47,29.44 25.25,29.26 25.02,29.08 24.87,28.84 24.72,28.60 24.65,28.32 24.58,28.04 24.60,27.75 24.62,27.47 24.73,27.20 24.85,26.94 25.04,26.73 25.23,26.51 25.48,26.37 25.73,26.23 26.01,26.17 26.29,26.12 26.58,26.16 26.86,26.20 27.12,26.32 27.37,26.45 27.58,26.65 27.78,26.86 27.91,27.11 28.04,27.37 28.08,27.65 28.12,27.94 28.06,28.22 28.01,28.50 27.87,28.75 27.73,29.00 27.51,29.19 27.30,29.39 27.04,29.50 26.77,29.61 26.49,29.64 26.20,29.66 25.92,29.59 25.64,29.52 25.40,29.37 25.16,29.21 24.98,28.99 24.80,28.77 24.80,28.77 24.80,28.77 24.13,27.36 23.46,25.96 22.35,24.46 21.25,22.96 19.68,20.69 18.10,18.41 16.02,15.66 13.93,12.92 11.63,10.54 9.33,8.17 6.10,5.64 2.86,3.11 1.08,2.48 -0.69,1.85 -0.90,1.74 -1.11,1.63 -1.29,1.47 -1.47,1.31 -1.61,1.12 -1.74,0.92 -1.83,0.70 -1.91,0.48 -1.94,0.24 -1.97,0.00 -1.94,-0.22 -1.92,-0.46 -1.83,-0.68 -1.75,-0.91 -1.61,-1.10 -1.48,-1.30 -1.30,-1.46 -1.12,-1.62 -0.91,-1.73 -0.70,-1.84 -0.47,-1.90 -0.24,-1.96 -0.00,-1.96 0.23,-1.96 0.46,-1.90 0.69,-1.85 0.69,-1.85 L 0.69,-1.85 Z"></path></g><g transform="translate(624.1354109536508 247.06212810979724) rotate(0 -15.886152854237992 23.635495709963806)" stroke="none"><path fill="#e03131" d="M 1.59,0.68 Q 1.59,0.68 -0.46,5.33 -2.52,9.99 -3.62,12.62 -4.73,15.24 -5.13,16.95 -5.52,18.66 -6.45,20.66 -7.39,22.66 -7.91,24.30 -8.43,25.93 -9.41,27.85 -10.40,29.77 -11.49,31.87 -12.58,33.97 -13.74,35.99 -14.89,38.02 -15.78,39.60 -16.67,41.17 -16.96,42.50 -17.25,43.84 -18.00,45.19 -18.75,46.55 -19.87,47.28 -21.00,48.01 -22.28,48.60 -23.56,49.19 -25.19,49.55 -26.83,49.91 -29.43,49.62 -32.03,49.33 -32.48,49.22 -32.93,49.10 -33.31,48.85 -33.70,48.59 -33.99,48.23 -34.27,47.86 -34.42,47.43 -34.58,46.99 -34.58,46.53 -34.59,46.07 -34.45,45.63 -34.31,45.19 -34.03,44.82 -33.76,44.45 -33.38,44.18 -33.00,43.92 -32.56,43.79 -32.12,43.66 -31.66,43.68 -31.19,43.69 -30.76,43.86 -30.33,44.02 -29.97,44.32 -29.62,44.61 -29.37,45.00 -29.13,45.40 -29.02,45.85 -28.92,46.30 -28.96,46.76 -29.01,47.22 -29.19,47.64 -29.38,48.06 -29.69,48.40 -30.01,48.74 -30.41,48.96 -30.82,49.18 -31.27,49.26 -31.73,49.35 -32.18,49.28 -32.64,49.21 -33.05,49.00 -33.46,48.79 -33.78,48.46 -34.11,48.13 -34.31,47.71 -34.51,47.29 -34.56,46.84 -34.62,46.38 -34.53,45.92 -34.43,45.47 -34.20,45.07 -33.97,44.67 -33.62,44.37 -33.27,44.07 -32.85,43.89 -32.42,43.71 -31.96,43.68 -31.50,43.65 -31.50,43.65 -31.50,43.65 -29.97,44.05 -28.43,44.45 -26.99,44.46 -25.55,44.47 -24.31,44.13 -23.07,43.78 -22.03,43.26 -20.99,42.74 -20.17,41.15 -19.35,39.56 -18.39,38.08 -17.44,36.61 -16.36,34.61 -15.28,32.61 -14.25,30.48 -13.23,28.35 -12.37,26.60 -11.51,24.86 -10.86,23.11 -10.20,21.37 -9.41,19.62 -8.62,17.86 -8.10,15.98 -7.58,14.09 -6.54,11.40 -5.49,8.71 -3.54,4.01 -1.59,-0.68 -1.48,-0.86 -1.38,-1.04 -1.23,-1.19 -1.09,-1.34 -0.91,-1.45 -0.73,-1.56 -0.54,-1.63 -0.34,-1.69 -0.13,-1.71 0.07,-1.73 0.27,-1.69 0.48,-1.66 0.67,-1.58 0.86,-1.49 1.03,-1.37 1.20,-1.24 1.33,-1.08 1.46,-0.92 1.55,-0.73 1.64,-0.54 1.68,-0.34 1.72,-0.13 1.71,0.07 1.71,0.28 1.65,0.48 1.59,0.68 1.59,0.68 L 1.59,0.68 Z"></path></g><g transform="translate(627.235148095941 271.0850909625473) rotate(0 8.524277141298398 0.3874671427862779)" stroke="none"><path fill="#e03131" d="M 0.32,-2.27 Q 0.32,-2.27 1.88,-2.05 3.44,-1.82 4.90,-1.73 6.36,-1.64 8.31,-1.51 10.26,-1.38 11.54,-1.42 12.83,-1.45 14.73,-1.87 16.64,-2.29 17.01,-2.30 17.39,-2.30 17.75,-2.19 18.11,-2.07 18.41,-1.85 18.72,-1.62 18.93,-1.31 19.15,-1.00 19.26,-0.64 19.36,-0.28 19.34,0.09 19.33,0.47 19.19,0.82 19.06,1.17 18.82,1.46 18.58,1.75 18.26,1.95 17.93,2.15 17.57,2.24 17.20,2.32 16.82,2.29 16.45,2.25 16.10,2.10 15.76,1.94 15.48,1.69 15.20,1.43 15.02,1.10 14.84,0.77 14.78,0.40 14.71,0.02 14.77,-0.34 14.82,-0.71 15.00,-1.05 15.17,-1.38 15.44,-1.65 15.71,-1.91 16.05,-2.07 16.39,-2.24 16.77,-2.28 17.14,-2.33 17.51,-2.25 17.88,-2.17 18.21,-1.98 18.53,-1.79 18.78,-1.51 19.03,-1.22 19.17,-0.87 19.32,-0.52 19.34,-0.15 19.37,0.22 19.27,0.58 19.17,0.95 18.97,1.26 18.76,1.58 18.46,1.81 18.16,2.04 17.81,2.17 17.45,2.29 17.45,2.29 17.45,2.29 15.12,2.62 12.78,2.95 11.48,2.88 10.17,2.81 8.13,2.86 6.08,2.91 4.44,2.81 2.79,2.71 1.23,2.49 -0.32,2.27 -0.59,2.20 -0.86,2.13 -1.10,2.00 -1.34,1.86 -1.55,1.67 -1.75,1.48 -1.90,1.25 -2.06,1.02 -2.15,0.76 -2.24,0.50 -2.27,0.22 -2.30,-0.04 -2.26,-0.32 -2.22,-0.59 -2.11,-0.85 -2.01,-1.11 -1.85,-1.33 -1.69,-1.56 -1.47,-1.74 -1.26,-1.92 -1.01,-2.04 -0.77,-2.16 -0.49,-2.22 -0.22,-2.29 0.04,-2.28 0.32,-2.27 0.32,-2.27 L 0.32,-2.27 Z"></path></g><g transform="translate(628.7850166670862 284.25897381728123) rotate(0 8.136809998512149 0.38746714278630634)" stroke="none"><path fill="#e03131" d="M 0.40,-2.45 Q 0.40,-2.45 1.74,-2.23 3.08,-2.02 4.62,-1.90 6.17,-1.77 7.74,-1.71 9.30,-1.65 10.42,-1.67 11.54,-1.70 13.91,-1.73 16.28,-1.75 16.68,-1.68 17.08,-1.62 17.44,-1.42 17.81,-1.23 18.09,-0.93 18.37,-0.63 18.54,-0.26 18.71,0.10 18.75,0.51 18.80,0.91 18.71,1.31 18.62,1.71 18.41,2.06 18.19,2.41 17.88,2.68 17.57,2.94 17.19,3.09 16.81,3.24 16.40,3.26 15.99,3.29 15.59,3.17 15.20,3.06 14.86,2.83 14.52,2.60 14.28,2.28 14.03,1.95 13.90,1.56 13.77,1.17 13.77,0.76 13.77,0.35 13.90,-0.02 14.04,-0.41 14.28,-0.74 14.53,-1.06 14.87,-1.29 15.21,-1.52 15.61,-1.63 16.00,-1.74 16.41,-1.71 16.82,-1.69 17.20,-1.54 17.58,-1.39 17.89,-1.12 18.20,-0.85 18.41,-0.50 18.62,-0.15 18.71,0.24 18.80,0.64 18.75,1.05 18.71,1.45 18.53,1.83 18.36,2.20 18.08,2.49 17.79,2.79 17.43,2.98 17.07,3.17 16.67,3.24 16.26,3.30 16.26,3.30 16.26,3.30 13.86,3.25 11.46,3.20 10.32,3.14 9.19,3.08 7.54,3.06 5.90,3.04 4.08,2.98 2.26,2.91 0.92,2.68 -0.40,2.45 -0.69,2.36 -0.98,2.28 -1.24,2.13 -1.50,1.98 -1.71,1.77 -1.93,1.56 -2.09,1.31 -2.25,1.05 -2.34,0.77 -2.43,0.48 -2.46,0.18 -2.48,-0.11 -2.43,-0.40 -2.38,-0.70 -2.26,-0.97 -2.14,-1.25 -1.96,-1.49 -1.78,-1.73 -1.55,-1.91 -1.32,-2.10 -1.04,-2.23 -0.77,-2.36 -0.48,-2.42 -0.18,-2.48 0.10,-2.46 0.40,-2.45 0.40,-2.45 L 0.40,-2.45 Z"></path></g><g transform="translate(653.5829138054089 278.83443381827317) rotate(0 9.686678569657317 -0.7749342855725843)" stroke="none"><path fill="#e03131" d="M -0.25,-2.33 Q -0.25,-2.33 1.75,-2.45 3.77,-2.56 5.94,-2.77 8.11,-2.97 10.00,-3.11 11.89,-3.24 13.13,-3.37 14.37,-3.51 16.86,-3.67 19.36,-3.83 19.72,-3.77 20.09,-3.71 20.41,-3.54 20.74,-3.37 21.00,-3.10 21.25,-2.83 21.41,-2.50 21.56,-2.16 21.61,-1.80 21.65,-1.43 21.57,-1.07 21.49,-0.71 21.30,-0.39 21.11,-0.08 20.83,0.15 20.55,0.39 20.21,0.53 19.87,0.67 19.50,0.69 19.13,0.71 18.78,0.62 18.42,0.52 18.11,0.31 17.81,0.11 17.58,-0.17 17.36,-0.47 17.24,-0.82 17.12,-1.17 17.12,-1.54 17.12,-1.90 17.23,-2.25 17.35,-2.60 17.57,-2.90 17.79,-3.19 18.10,-3.40 18.40,-3.61 18.76,-3.71 19.11,-3.81 19.48,-3.79 19.85,-3.77 20.19,-3.64 20.54,-3.50 20.82,-3.27 21.10,-3.03 21.29,-2.71 21.48,-2.40 21.56,-2.04 21.65,-1.68 21.61,-1.31 21.57,-0.94 21.42,-0.61 21.26,-0.27 21.01,-0.00 20.76,0.26 20.43,0.43 20.11,0.60 19.74,0.66 19.38,0.73 19.38,0.73 19.38,0.73 16.97,0.65 14.56,0.58 13.36,0.56 12.17,0.54 10.41,0.68 8.66,0.81 6.45,1.24 4.24,1.67 2.25,2.00 0.25,2.33 -0.02,2.32 -0.30,2.32 -0.58,2.25 -0.85,2.18 -1.10,2.05 -1.35,1.91 -1.56,1.72 -1.77,1.53 -1.93,1.30 -2.08,1.06 -2.18,0.80 -2.28,0.53 -2.31,0.25 -2.34,-0.02 -2.30,-0.30 -2.27,-0.58 -2.16,-0.84 -2.06,-1.11 -1.90,-1.34 -1.74,-1.57 -1.52,-1.75 -1.31,-1.94 -1.06,-2.07 -0.80,-2.20 -0.53,-2.26 -0.25,-2.33 -0.25,-2.33 L -0.25,-2.33 Z"></path></g><g transform="translate(660.5573223755621 283.4840395317087) rotate(0 9.299211426871011 6.586941427366952)" stroke="none"><path fill="#e03131" d="M 1.28,-2.24 Q 1.28,-2.24 2.80,-1.28 4.32,-0.32 5.30,0.28 6.27,0.89 7.69,1.40 9.11,1.91 10.08,3.63 11.05,5.35 10.80,6.54 10.54,7.72 9.47,8.78 8.39,9.85 7.69,11.35 7.00,12.85 7.43,11.58 7.87,10.31 9.38,10.11 10.90,9.92 12.07,9.61 13.25,9.30 15.90,9.20 18.55,9.11 19.07,9.19 19.60,9.27 20.07,9.51 20.54,9.75 20.91,10.13 21.28,10.51 21.51,10.99 21.74,11.47 21.81,12.00 21.87,12.53 21.77,13.05 21.66,13.57 21.39,14.03 21.12,14.48 20.72,14.83 20.32,15.18 19.83,15.39 19.34,15.59 18.81,15.63 18.28,15.66 17.77,15.53 17.26,15.39 16.81,15.10 16.37,14.81 16.04,14.39 15.71,13.97 15.54,13.47 15.36,12.97 15.35,12.44 15.35,11.91 15.51,11.40 15.67,10.90 15.99,10.47 16.30,10.04 16.74,9.74 17.17,9.43 17.68,9.29 18.19,9.14 18.72,9.16 19.26,9.18 19.75,9.37 20.25,9.56 20.66,9.90 21.07,10.24 21.35,10.69 21.63,11.14 21.75,11.65 21.87,12.17 21.82,12.70 21.77,13.23 21.55,13.71 21.34,14.20 20.98,14.59 20.62,14.98 20.15,15.23 19.68,15.49 19.16,15.58 18.64,15.68 18.64,15.68 18.64,15.68 15.90,15.73 13.16,15.79 12.00,16.06 10.84,16.33 9.69,16.31 8.55,16.30 6.46,15.77 4.37,15.25 3.41,14.35 2.44,13.45 2.66,11.30 2.88,9.15 3.14,8.06 3.39,6.98 4.57,6.48 5.74,5.97 3.82,4.93 1.91,3.89 0.31,3.06 -1.28,2.24 -1.53,2.05 -1.78,1.87 -1.98,1.63 -2.18,1.39 -2.31,1.11 -2.45,0.83 -2.51,0.52 -2.57,0.21 -2.56,-0.09 -2.55,-0.40 -2.46,-0.70 -2.38,-1.00 -2.22,-1.27 -2.07,-1.54 -1.85,-1.77 -1.64,-1.99 -1.38,-2.16 -1.11,-2.33 -0.82,-2.43 -0.52,-2.53 -0.21,-2.55 0.09,-2.58 0.40,-2.53 0.70,-2.48 0.99,-2.36 1.28,-2.24 1.28,-2.24 L 1.28,-2.24 Z"></path></g><g transform="translate(664.431993803425 239.3127852540714) rotate(0 0 11.236547140802458)" stroke="none"><path fill="#e03131" d="M 2.48,0 Q 2.48,0 2.46,1.55 2.44,3.11 2.45,4.45 2.47,5.78 2.43,7.46 2.39,9.14 2.37,10.74 2.35,12.35 2.37,13.70 2.39,15.05 2.49,16.95 2.58,18.84 2.61,20.66 2.64,22.47 2.57,22.89 2.50,23.31 2.30,23.69 2.10,24.07 1.79,24.36 1.48,24.66 1.09,24.84 0.70,25.02 0.28,25.07 -0.14,25.11 -0.56,25.02 -0.98,24.93 -1.34,24.71 -1.71,24.49 -1.99,24.16 -2.26,23.83 -2.42,23.43 -2.58,23.04 -2.60,22.61 -2.63,22.18 -2.51,21.77 -2.40,21.36 -2.16,21.00 -1.92,20.65 -1.58,20.39 -1.23,20.13 -0.83,19.99 -0.42,19.86 0.00,19.86 0.42,19.86 0.83,19.99 1.24,20.13 1.58,20.39 1.92,20.65 2.16,21.00 2.40,21.36 2.51,21.77 2.63,22.18 2.60,22.61 2.58,23.04 2.42,23.44 2.26,23.83 1.99,24.16 1.71,24.49 1.34,24.71 0.97,24.93 0.56,25.02 0.14,25.11 -0.28,25.07 -0.70,25.02 -1.09,24.84 -1.48,24.66 -1.79,24.36 -2.10,24.07 -2.30,23.69 -2.50,23.31 -2.57,22.89 -2.64,22.47 -2.64,22.47 -2.64,22.47 -2.61,20.66 -2.58,18.84 -2.49,16.95 -2.39,15.05 -2.37,13.70 -2.35,12.35 -2.37,10.74 -2.39,9.14 -2.43,7.46 -2.47,5.78 -2.45,4.45 -2.44,3.11 -2.46,1.55 -2.48,0 -2.44,-0.29 -2.41,-0.59 -2.30,-0.87 -2.20,-1.15 -2.03,-1.40 -1.86,-1.64 -1.63,-1.84 -1.41,-2.04 -1.14,-2.18 -0.88,-2.32 -0.59,-2.39 -0.29,-2.46 0.00,-2.46 0.29,-2.46 0.59,-2.39 0.88,-2.32 1.14,-2.18 1.41,-2.04 1.63,-1.84 1.86,-1.64 2.03,-1.40 2.20,-1.15 2.30,-0.87 2.41,-0.59 2.44,-0.29 2.48,0.00 2.48,0.00 L 2.48,0 Z"></path></g><g transform="translate(651.2581109486912 332.3048995227814) rotate(0 4.262138570649199 2.3248028567177528)" stroke="none"><path fill="#e03131" d="M 0.96,-2.24 Q 0.96,-2.24 2.50,-1.53 4.04,-0.82 5.07,-0.30 6.10,0.21 8.12,1.38 10.13,2.54 10.42,2.86 10.72,3.17 10.90,3.56 11.07,3.95 11.12,4.37 11.16,4.80 11.07,5.22 10.98,5.64 10.75,6.00 10.53,6.37 10.20,6.64 9.87,6.92 9.48,7.08 9.08,7.23 8.65,7.25 8.22,7.28 7.81,7.16 7.40,7.04 7.04,6.80 6.69,6.56 6.43,6.22 6.17,5.87 6.04,5.47 5.90,5.06 5.91,4.63 5.91,4.20 6.05,3.80 6.19,3.39 6.45,3.05 6.71,2.71 7.06,2.47 7.42,2.24 7.83,2.12 8.24,2.01 8.67,2.04 9.10,2.06 9.50,2.22 9.89,2.38 10.22,2.66 10.55,2.94 10.76,3.31 10.98,3.68 11.07,4.09 11.16,4.51 11.12,4.94 11.07,5.36 10.89,5.75 10.70,6.14 10.41,6.45 10.11,6.76 9.73,6.96 9.35,7.16 8.93,7.23 8.51,7.29 8.08,7.22 7.66,7.15 7.28,6.95 6.91,6.75 6.91,6.75 6.91,6.75 6.05,5.96 5.19,5.16 3.69,4.33 2.18,3.50 0.61,2.87 -0.96,2.24 -1.21,2.09 -1.46,1.94 -1.68,1.74 -1.89,1.53 -2.04,1.28 -2.20,1.04 -2.29,0.76 -2.38,0.48 -2.41,0.18 -2.43,-0.10 -2.38,-0.39 -2.34,-0.68 -2.22,-0.95 -2.10,-1.22 -1.93,-1.45 -1.75,-1.69 -1.52,-1.87 -1.29,-2.06 -1.03,-2.18 -0.76,-2.31 -0.47,-2.37 -0.19,-2.43 0.10,-2.41 0.39,-2.40 0.67,-2.32 0.96,-2.24 0.96,-2.24 L 0.96,-2.24 Z"></path></g><g transform="translate(662.1071909467073 326.1054252382007) rotate(0 -7.361875712939536 14.336284283092795)" stroke="none"><path fill="#e03131" d="M 2.48,0 Q 2.48,0 2.37,2.00 2.25,4.01 2.02,5.69 1.79,7.37 1.46,8.98 1.13,10.58 1.05,12.65 0.98,14.71 0.46,16.88 -0.05,19.05 -0.51,20.34 -0.96,21.63 -1.30,22.78 -1.64,23.94 -2.58,25.58 -3.52,27.22 -4.50,28.21 -5.47,29.20 -7.06,29.99 -8.64,30.78 -11.54,31.32 -14.44,31.85 -14.96,31.81 -15.48,31.77 -15.95,31.57 -16.43,31.37 -16.82,31.03 -17.20,30.68 -17.46,30.23 -17.72,29.78 -17.82,29.28 -17.91,28.77 -17.85,28.26 -17.78,27.74 -17.55,27.28 -17.32,26.81 -16.96,26.45 -16.60,26.08 -16.13,25.85 -15.67,25.61 -15.16,25.54 -14.65,25.47 -14.14,25.57 -13.63,25.66 -13.18,25.91 -12.73,26.17 -12.38,26.55 -12.03,26.93 -11.83,27.41 -11.62,27.88 -11.57,28.40 -11.53,28.91 -11.65,29.42 -11.78,29.92 -12.05,30.36 -12.33,30.79 -12.73,31.12 -13.13,31.44 -13.62,31.62 -14.10,31.81 -14.62,31.82 -15.14,31.84 -15.63,31.69 -16.13,31.54 -16.55,31.24 -16.97,30.94 -17.27,30.52 -17.58,30.10 -17.73,29.61 -17.89,29.11 -17.87,28.60 -17.86,28.08 -17.69,27.59 -17.51,27.11 -17.19,26.70 -16.86,26.30 -16.43,26.02 -16.00,25.74 -15.49,25.61 -14.99,25.48 -14.99,25.48 -14.99,25.48 -13.54,25.37 -12.08,25.25 -10.90,25.01 -9.72,24.77 -8.50,23.67 -7.27,22.57 -6.76,21.30 -6.26,20.03 -5.52,18.42 -4.79,16.82 -4.35,15.64 -3.91,14.47 -3.80,13.25 -3.70,12.03 -3.49,10.85 -3.29,9.66 -2.99,8.19 -2.68,6.72 -2.46,5.36 -2.25,4.00 -2.37,2.00 -2.48,0 -2.45,-0.29 -2.41,-0.59 -2.31,-0.87 -2.20,-1.15 -2.03,-1.40 -1.86,-1.65 -1.63,-1.85 -1.41,-2.04 -1.14,-2.18 -0.88,-2.32 -0.59,-2.39 -0.30,-2.47 0.00,-2.47 0.30,-2.47 0.59,-2.39 0.88,-2.32 1.14,-2.18 1.41,-2.04 1.63,-1.85 1.86,-1.65 2.03,-1.40 2.20,-1.15 2.31,-0.87 2.41,-0.59 2.45,-0.29 2.48,0.00 2.48,0.00 L 2.48,0 Z"></path></g><g transform="translate(667.5317309457153 338.5043738073621) rotate(0 8.524277141298455 -1.5498685711451685)" stroke="none"><path fill="#e03131" d="M -0.52,-2.34 Q -0.52,-2.34 1.50,-2.67 3.54,-3.00 4.65,-3.26 5.76,-3.51 7.87,-3.75 9.98,-3.99 11.40,-4.18 12.82,-4.38 14.57,-4.96 16.33,-5.54 16.74,-5.59 17.15,-5.64 17.55,-5.55 17.95,-5.47 18.31,-5.26 18.66,-5.05 18.94,-4.74 19.21,-4.43 19.36,-4.05 19.52,-3.67 19.55,-3.26 19.58,-2.85 19.47,-2.45 19.37,-2.06 19.14,-1.71 18.91,-1.37 18.59,-1.12 18.26,-0.86 17.88,-0.73 17.49,-0.59 17.08,-0.58 16.66,-0.58 16.27,-0.71 15.88,-0.83 15.55,-1.08 15.22,-1.32 14.98,-1.66 14.75,-2.00 14.63,-2.39 14.52,-2.79 14.54,-3.20 14.55,-3.61 14.70,-3.99 14.85,-4.38 15.11,-4.70 15.37,-5.01 15.72,-5.23 16.07,-5.45 16.47,-5.54 16.87,-5.63 17.28,-5.59 17.69,-5.55 18.07,-5.39 18.44,-5.22 18.75,-4.94 19.05,-4.66 19.25,-4.30 19.44,-3.94 19.52,-3.53 19.59,-3.13 19.53,-2.72 19.46,-2.31 19.28,-1.95 19.09,-1.58 18.79,-1.29 18.50,-1.01 18.13,-0.83 17.76,-0.65 17.76,-0.65 17.76,-0.65 15.66,-0.10 13.56,0.44 10.86,0.70 8.17,0.96 6.32,1.09 4.47,1.21 2.50,1.78 0.52,2.34 0.23,2.37 -0.05,2.40 -0.34,2.36 -0.62,2.32 -0.89,2.21 -1.16,2.10 -1.40,1.93 -1.63,1.76 -1.82,1.54 -2.01,1.32 -2.13,1.06 -2.26,0.80 -2.33,0.51 -2.39,0.23 -2.38,-0.05 -2.38,-0.34 -2.30,-0.62 -2.22,-0.90 -2.08,-1.15 -1.94,-1.41 -1.75,-1.62 -1.55,-1.83 -1.31,-1.99 -1.06,-2.15 -0.79,-2.25 -0.52,-2.34 -0.52,-2.34 L -0.52,-2.34 Z"></path></g><g transform="translate(671.4064023735782 343.1539795207976) rotate(0 6.974408570153287 0.7749342855725843)" stroke="none"><path fill="#e03131" d="M 0.99,-2.47 Q 0.99,-2.47 2.10,-2.04 3.22,-1.60 4.31,-1.49 5.40,-1.38 6.50,-1.40 7.59,-1.42 8.83,-1.46 10.07,-1.50 12.01,-1.52 13.95,-1.54 14.44,-1.45 14.93,-1.37 15.37,-1.14 15.82,-0.90 16.16,-0.54 16.50,-0.18 16.71,0.27 16.92,0.72 16.98,1.22 17.03,1.71 16.92,2.20 16.81,2.69 16.56,3.12 16.30,3.55 15.92,3.87 15.54,4.19 15.07,4.38 14.61,4.56 14.11,4.59 13.61,4.62 13.13,4.48 12.64,4.35 12.23,4.07 11.82,3.79 11.51,3.39 11.21,2.99 11.05,2.52 10.89,2.04 10.89,1.54 10.89,1.04 11.05,0.57 11.21,0.10 11.52,-0.29 11.82,-0.69 12.23,-0.97 12.65,-1.25 13.13,-1.38 13.61,-1.52 14.11,-1.49 14.61,-1.46 15.07,-1.28 15.54,-1.09 15.92,-0.77 16.30,-0.44 16.56,-0.02 16.82,0.40 16.92,0.89 17.03,1.38 16.98,1.88 16.92,2.37 16.71,2.83 16.50,3.28 16.16,3.64 15.81,4.01 15.37,4.24 14.93,4.47 14.44,4.55 13.94,4.64 13.94,4.64 13.94,4.64 11.99,4.61 10.04,4.59 8.75,4.53 7.46,4.48 6.13,4.36 4.79,4.24 3.01,3.82 1.22,3.39 0.11,2.93 -0.99,2.47 -1.27,2.32 -1.55,2.16 -1.79,1.95 -2.02,1.73 -2.20,1.46 -2.38,1.19 -2.49,0.89 -2.60,0.59 -2.63,0.27 -2.66,-0.04 -2.62,-0.36 -2.57,-0.68 -2.46,-0.98 -2.34,-1.28 -2.15,-1.54 -1.96,-1.80 -1.72,-2.01 -1.47,-2.22 -1.18,-2.36 -0.90,-2.51 -0.58,-2.58 -0.27,-2.65 0.04,-2.64 0.36,-2.64 0.68,-2.56 0.99,-2.47 0.99,-2.47 L 0.99,-2.47 Z"></path></g><g transform="translate(693.1045623696107 338.5043738073621) rotate(0 11.624014283588735 -1.5498685711451685)" stroke="none"><path fill="#e03131" d="M 0,-2.55 Q 0,-2.55 1.11,-2.58 2.22,-2.61 3.58,-2.60 4.95,-2.60 7.34,-3.10 9.73,-3.60 11.21,-3.93 12.69,-4.26 14.55,-4.59 16.41,-4.92 17.81,-5.03 19.22,-5.14 21.10,-5.56 22.97,-5.98 23.44,-5.94 23.91,-5.91 24.34,-5.73 24.77,-5.55 25.13,-5.24 25.48,-4.93 25.71,-4.53 25.95,-4.12 26.04,-3.67 26.13,-3.21 26.08,-2.74 26.02,-2.28 25.82,-1.86 25.61,-1.43 25.29,-1.10 24.96,-0.76 24.54,-0.55 24.12,-0.34 23.66,-0.27 23.20,-0.20 22.74,-0.28 22.28,-0.37 21.87,-0.59 21.46,-0.82 21.14,-1.16 20.82,-1.51 20.63,-1.94 20.44,-2.36 20.40,-2.83 20.36,-3.30 20.46,-3.75 20.57,-4.21 20.82,-4.60 21.07,-5.00 21.43,-5.30 21.79,-5.60 22.23,-5.76 22.66,-5.93 23.13,-5.95 23.60,-5.97 24.05,-5.83 24.50,-5.70 24.88,-5.43 25.27,-5.16 25.54,-4.79 25.82,-4.41 25.96,-3.96 26.11,-3.52 26.10,-3.05 26.09,-2.58 25.94,-2.14 25.78,-1.70 25.49,-1.33 25.20,-0.96 24.81,-0.71 24.42,-0.45 23.96,-0.33 23.51,-0.21 23.51,-0.21 23.51,-0.21 21.46,0.15 19.41,0.52 18.13,0.49 16.84,0.46 15.35,0.56 13.87,0.66 12.36,1.05 10.86,1.44 9.38,1.79 7.91,2.13 6.43,2.37 4.96,2.60 3.59,2.60 2.22,2.61 1.11,2.58 0,2.55 -0.30,2.51 -0.61,2.47 -0.89,2.36 -1.18,2.26 -1.43,2.08 -1.69,1.91 -1.89,1.68 -2.10,1.45 -2.24,1.17 -2.38,0.90 -2.46,0.60 -2.53,0.30 -2.53,-0.00 -2.53,-0.30 -2.46,-0.60 -2.38,-0.90 -2.24,-1.17 -2.10,-1.45 -1.89,-1.68 -1.69,-1.91 -1.43,-2.08 -1.18,-2.26 -0.89,-2.36 -0.61,-2.47 -0.30,-2.51 0.00,-2.55 0.00,-2.55 L 0,-2.55 Z"></path></g><g transform="translate(701.6288395109091 344.70384809194275) rotate(0 3.099737142290337 8.524277141298427)" stroke="none"><path fill="#e03131" d="M 0,-2.63 Q 0,-2.63 1.11,-2.65 2.22,-2.67 3.44,-2.75 4.65,-2.82 6.73,-2.39 8.81,-1.97 9.50,-1.14 10.19,-0.31 9.88,2.26 9.57,4.83 8.91,6.04 8.24,7.26 7.44,8.54 6.64,9.81 5.88,10.65 5.12,11.48 3.58,12.20 2.04,12.93 1.65,12.99 1.26,13.05 0.89,13.08 0.51,13.12 0.14,13.07 -0.22,13.01 -0.57,12.87 -0.91,12.73 -1.22,12.51 -1.52,12.29 -1.76,12.00 -2.00,11.72 -2.17,11.38 -2.34,11.05 -2.42,10.68 -2.50,10.32 -2.49,9.94 -2.48,9.57 -2.39,9.21 -2.29,8.84 -2.11,8.52 -1.92,8.19 -1.67,7.91 -1.41,7.64 -1.10,7.43 -0.79,7.23 -0.44,7.10 -0.08,6.98 1.69,7.29 3.47,7.60 4.58,7.93 5.69,8.26 7.24,8.72 8.80,9.19 9.57,12.14 10.34,15.10 9.39,16.50 8.44,17.90 7.54,18.53 6.64,19.15 5.68,19.67 4.73,20.18 3.52,20.35 2.32,20.52 -1.05,19.82 -4.43,19.12 -4.83,18.70 -5.23,18.29 -5.48,17.78 -5.72,17.26 -5.79,16.69 -5.86,16.12 -5.74,15.56 -5.63,15.00 -5.34,14.50 -5.05,14.01 -4.62,13.63 -4.18,13.25 -3.65,13.03 -3.12,12.82 -2.55,12.78 -1.98,12.74 -1.42,12.89 -0.87,13.03 -0.39,13.35 0.08,13.67 0.43,14.12 0.78,14.57 0.97,15.11 1.16,15.65 1.17,16.23 1.17,16.80 1.00,17.35 0.82,17.89 0.48,18.35 0.14,18.81 -0.32,19.14 -0.79,19.47 -1.34,19.63 -1.89,19.79 -2.47,19.76 -3.04,19.74 -3.58,19.53 -4.11,19.33 -4.55,18.96 -4.99,18.60 -5.30,18.11 -5.60,17.62 -5.73,17.06 -5.86,16.50 -5.80,15.93 -5.75,15.36 -5.51,14.84 -5.28,14.31 -4.89,13.89 -4.50,13.47 -3.99,13.20 -3.49,12.92 -2.93,12.82 -2.36,12.72 -1.79,12.81 -1.23,12.90 -0.72,13.16 -0.21,13.42 -0.21,13.42 -0.21,13.42 1.05,13.64 2.33,13.85 3.29,12.87 4.25,11.89 5.23,11.17 6.20,10.45 6.02,12.61 5.85,14.76 4.56,14.48 3.26,14.20 2.26,13.62 1.26,13.05 0.89,13.08 0.51,13.12 0.14,13.07 -0.22,13.01 -0.57,12.87 -0.91,12.73 -1.22,12.51 -1.52,12.29 -1.76,12.01 -2.00,11.72 -2.17,11.38 -2.34,11.05 -2.42,10.68 -2.50,10.32 -2.49,9.94 -2.48,9.57 -2.39,9.21 -2.29,8.84 -2.11,8.52 -1.92,8.19 -1.67,7.91 -1.41,7.64 -1.10,7.43 -0.79,7.23 -0.44,7.10 -0.08,6.98 0.78,6.88 1.65,6.79 2.27,5.68 2.88,4.57 3.77,3.69 4.65,2.82 3.44,2.75 2.22,2.67 1.11,2.65 0,2.63 -0.31,2.59 -0.63,2.55 -0.92,2.44 -1.22,2.33 -1.48,2.15 -1.74,1.97 -1.95,1.73 -2.16,1.49 -2.31,1.21 -2.46,0.93 -2.53,0.62 -2.61,0.31 -2.61,-0.00 -2.61,-0.31 -2.53,-0.62 -2.46,-0.93 -2.31,-1.21 -2.16,-1.49 -1.95,-1.73 -1.74,-1.97 -1.48,-2.15 -1.22,-2.33 -0.92,-2.44 -0.63,-2.55 -0.31,-2.59 0.00,-2.63 0.00,-2.63 L 0,-2.63 Z"></path></g><g transform="translate(704.7285766531993 307.50700238445876) rotate(0 1.5498685711451685 12.011481426375042)" stroke="none"><path fill="#e03131" d="M 2.26,-1.13 Q 2.26,-1.13 3.04,0.70 3.83,2.54 4.30,4.18 4.77,5.82 5.01,6.98 5.24,8.15 5.36,9.37 5.48,10.59 5.61,12.18 5.75,13.76 5.85,15.10 5.96,16.44 6.04,17.84 6.12,19.24 6.16,21.63 6.20,24.02 6.12,24.51 6.04,25.01 5.80,25.45 5.57,25.90 5.20,26.24 4.84,26.59 4.38,26.80 3.93,27.01 3.43,27.07 2.93,27.12 2.44,27.01 1.94,26.90 1.51,26.64 1.08,26.39 0.76,26.00 0.43,25.62 0.25,25.15 0.06,24.69 0.03,24.18 0.01,23.68 0.14,23.20 0.28,22.71 0.56,22.30 0.84,21.88 1.24,21.58 1.64,21.27 2.12,21.11 2.59,20.95 3.10,20.95 3.60,20.95 4.07,21.11 4.55,21.27 4.95,21.58 5.35,21.88 5.63,22.30 5.91,22.71 6.05,23.20 6.18,23.68 6.16,24.18 6.13,24.69 5.94,25.15 5.76,25.62 5.43,26.00 5.11,26.39 4.67,26.64 4.24,26.90 3.75,27.01 3.26,27.12 2.76,27.07 2.26,27.01 1.81,26.80 1.35,26.59 0.99,26.24 0.62,25.90 0.39,25.45 0.15,25.01 0.07,24.51 -0.00,24.02 -0.00,24.02 -0.00,24.02 0.03,21.63 0.07,19.24 0.15,17.85 0.22,16.45 0.31,15.16 0.41,13.87 0.46,12.38 0.50,10.90 0.40,8.95 0.30,7.00 0.01,5.79 -0.27,4.58 -1.26,2.85 -2.26,1.13 -2.36,0.84 -2.46,0.55 -2.49,0.25 -2.52,-0.04 -2.48,-0.35 -2.44,-0.65 -2.33,-0.93 -2.21,-1.21 -2.03,-1.46 -1.86,-1.71 -1.62,-1.91 -1.39,-2.10 -1.12,-2.24 -0.85,-2.38 -0.55,-2.44 -0.25,-2.51 0.04,-2.51 0.35,-2.50 0.64,-2.42 0.94,-2.34 1.21,-2.20 1.47,-2.05 1.70,-1.84 1.92,-1.63 2.09,-1.38 2.26,-1.13 2.26,-1.13 L 2.26,-1.13 Z"></path></g><g transform="translate(575.3145509625779 367.17694237354766) rotate(0 -1.5498685711451117 4.6496057134355055)" stroke="none"><path fill="#e03131" d="M -0.52,2.60 Q -0.52,2.60 -1.63,2.39 -2.75,2.19 -4.11,2.15 -5.47,2.10 -5.02,3.42 -4.57,4.73 -4.54,5.87 -4.52,7.01 -3.31,6.81 -2.11,6.61 -1.06,5.91 -0.02,5.21 0.56,2.97 1.15,0.72 1.25,0.16 1.35,-0.38 1.62,-0.88 1.90,-1.37 2.31,-1.75 2.73,-2.14 3.24,-2.37 3.76,-2.60 4.32,-2.65 4.88,-2.70 5.43,-2.57 5.98,-2.44 6.46,-2.15 6.94,-1.85 7.30,-1.41 7.66,-0.98 7.86,-0.45 8.06,0.07 8.09,0.63 8.11,1.20 7.95,1.74 7.79,2.28 7.47,2.74 7.14,3.21 6.69,3.54 6.24,3.88 5.70,4.05 5.16,4.22 4.60,4.21 4.03,4.21 3.50,4.02 2.97,3.83 2.52,3.48 2.08,3.13 1.77,2.66 1.46,2.19 1.31,1.64 1.17,1.10 1.21,0.53 1.25,-0.02 1.46,-0.54 1.68,-1.06 2.05,-1.49 2.42,-1.91 2.91,-2.20 3.40,-2.48 3.95,-2.59 4.51,-2.71 5.07,-2.64 5.63,-2.57 6.14,-2.33 6.65,-2.08 7.05,-1.69 7.45,-1.29 7.71,-0.79 7.97,-0.29 8.05,0.26 8.14,0.82 8.14,0.82 8.14,0.82 7.56,4.11 6.98,7.41 6.36,8.32 5.73,9.24 4.88,10.09 4.03,10.94 2.88,11.88 1.72,12.82 -0.59,13.16 -2.91,13.51 -4.20,13.45 -5.49,13.40 -6.76,13.17 -8.02,12.95 -8.85,12.22 -9.67,11.49 -10.35,10.09 -11.03,8.69 -10.98,7.34 -10.94,6.00 -10.90,4.84 -10.85,3.69 -10.77,2.51 -10.68,1.32 -10.21,-0.08 -9.75,-1.50 -8.75,-2.28 -7.75,-3.06 -6.42,-3.30 -5.10,-3.53 -3.40,-3.31 -1.70,-3.08 -0.59,-2.84 0.52,-2.60 0.82,-2.50 1.12,-2.40 1.39,-2.23 1.67,-2.06 1.89,-1.83 2.11,-1.60 2.27,-1.32 2.43,-1.05 2.52,-0.74 2.61,-0.43 2.63,-0.11 2.64,0.20 2.58,0.51 2.52,0.83 2.38,1.12 2.24,1.41 2.04,1.65 1.84,1.90 1.59,2.10 1.33,2.29 1.04,2.42 0.74,2.54 0.43,2.59 0.11,2.65 -0.20,2.62 -0.52,2.60 -0.52,2.60 L -0.52,2.60 Z"></path></g><g transform="translate(360.65775385897234 271.8600252481199) rotate(0 -5.037072856221812 6.58694142736698)" stroke="none"><path fill="#e03131" d="M 0.98,2.46 Q 0.98,2.46 -0.12,2.92 -1.23,3.37 -2.72,3.80 -4.22,4.22 -5.24,4.75 -6.25,5.28 -6.92,6.14 -7.58,6.99 -7.57,8.06 -7.56,9.13 -6.36,9.43 -5.16,9.73 -4.34,8.81 -3.52,7.88 -3.07,6.76 -2.61,5.63 -2.70,4.32 -2.78,3.01 -2.68,2.45 -2.57,1.88 -2.29,1.38 -2.01,0.87 -1.58,0.49 -1.15,0.10 -0.62,-0.12 -0.09,-0.35 0.47,-0.40 1.05,-0.45 1.61,-0.31 2.17,-0.17 2.65,0.13 3.14,0.43 3.50,0.88 3.86,1.33 4.07,1.87 4.27,2.41 4.28,2.99 4.30,3.56 4.13,4.11 3.97,4.67 3.63,5.14 3.30,5.60 2.83,5.94 2.36,6.28 1.81,6.45 1.26,6.62 0.69,6.61 0.11,6.60 -0.42,6.40 -0.96,6.20 -1.41,5.84 -1.86,5.48 -2.18,5.00 -2.49,4.51 -2.63,3.96 -2.77,3.40 -2.73,2.82 -2.68,2.25 -2.45,1.72 -2.23,1.19 -1.85,0.76 -1.46,0.33 -0.96,0.04 -0.46,-0.23 0.09,-0.35 0.66,-0.46 1.23,-0.38 1.80,-0.30 2.32,-0.05 2.84,0.19 3.25,0.60 3.66,1.01 3.91,1.52 4.17,2.04 4.25,2.61 4.33,3.18 4.33,3.18 4.33,3.18 4.12,5.57 3.91,7.97 3.07,9.61 2.23,11.25 1.61,12.18 0.99,13.11 0.24,13.90 -0.51,14.70 -1.54,15.38 -2.57,16.07 -4.45,16.30 -6.33,16.52 -7.59,16.37 -8.85,16.22 -11.09,14.81 -13.34,13.41 -13.73,11.24 -14.11,9.08 -14.07,7.89 -14.03,6.70 -13.79,5.20 -13.56,3.70 -12.64,2.45 -11.73,1.20 -10.34,0.58 -8.95,-0.04 -7.42,-0.69 -5.88,-1.34 -4.55,-1.46 -3.22,-1.59 -2.10,-2.03 -0.98,-2.46 -0.67,-2.54 -0.36,-2.62 -0.04,-2.63 0.27,-2.63 0.58,-2.56 0.89,-2.49 1.18,-2.35 1.46,-2.21 1.71,-2.00 1.95,-1.79 2.14,-1.53 2.32,-1.27 2.44,-0.97 2.56,-0.68 2.60,-0.36 2.65,-0.04 2.62,0.27 2.58,0.58 2.47,0.88 2.37,1.19 2.19,1.45 2.01,1.72 1.78,1.94 1.54,2.15 1.26,2.31 0.98,2.46 0.98,2.46 L 0.98,2.46 Z"></path></g><g transform="translate(122.75292818818923 133.14678813062744) rotate(0 1.9373357139314464 8.911744284084705)" stroke="none"><path fill="#e03131" d="M 0.98,2.45 Q 0.98,2.45 -0.12,2.91 -1.23,3.37 -2.44,4.79 -3.66,6.21 -4.13,7.19 -4.60,8.16 -3.86,9.06 -3.12,9.95 -2.03,10.35 -0.95,10.75 0.83,11.33 2.63,11.90 4.21,12.65 5.80,13.41 6.67,12.22 7.55,11.03 7.82,9.70 8.09,8.37 8.08,6.96 8.08,5.55 6.51,4.88 4.93,4.21 2.46,4.31 -0.00,4.41 -0.58,4.31 -1.16,4.21 -1.68,3.94 -2.20,3.66 -2.60,3.23 -3.01,2.81 -3.25,2.27 -3.50,1.74 -3.56,1.15 -3.63,0.57 -3.50,0.00 -3.37,-0.57 -3.07,-1.07 -2.76,-1.58 -2.31,-1.96 -1.87,-2.34 -1.32,-2.55 -0.77,-2.77 -0.19,-2.80 0.39,-2.83 0.96,-2.68 1.53,-2.52 2.01,-2.19 2.50,-1.86 2.85,-1.39 3.21,-0.92 3.40,-0.36 3.58,0.19 3.58,0.77 3.58,1.36 3.39,1.92 3.21,2.48 2.85,2.94 2.49,3.41 2.00,3.74 1.52,4.07 0.95,4.23 0.38,4.38 -0.19,4.35 -0.78,4.32 -1.33,4.10 -1.87,3.88 -2.32,3.50 -2.77,3.12 -3.07,2.62 -3.37,2.11 -3.50,1.54 -3.63,0.96 -3.56,0.38 -3.50,-0.20 -3.25,-0.73 -3.00,-1.26 -2.60,-1.69 -2.19,-2.12 -1.67,-2.39 -1.15,-2.67 -0.57,-2.76 0.00,-2.86 0.00,-2.86 0.00,-2.86 2.81,-2.80 5.61,-2.75 6.80,-2.34 7.99,-1.93 9.25,-1.70 10.51,-1.47 11.44,-0.90 12.37,-0.33 13.35,0.87 14.32,2.08 14.72,3.24 15.12,4.41 15.14,5.61 15.16,6.81 15.12,8.20 15.08,9.58 14.86,11.13 14.65,12.68 13.90,13.90 13.15,15.11 12.51,16.16 11.88,17.21 10.89,18.37 9.90,19.53 8.96,20.04 8.01,20.54 6.21,20.33 4.41,20.12 2.90,19.52 1.38,18.93 -0.06,18.42 -1.51,17.91 -3.13,17.04 -4.75,16.17 -5.70,15.64 -6.65,15.11 -7.43,14.36 -8.21,13.62 -9.12,12.80 -10.04,11.97 -10.47,10.81 -10.89,9.65 -10.83,8.55 -10.77,7.45 -10.10,5.90 -9.42,4.35 -8.56,3.47 -7.69,2.59 -7.10,1.53 -6.52,0.47 -4.87,-0.55 -3.22,-1.58 -2.10,-2.02 -0.98,-2.45 -0.67,-2.54 -0.36,-2.62 -0.04,-2.62 0.27,-2.63 0.58,-2.56 0.89,-2.49 1.17,-2.34 1.46,-2.20 1.70,-1.99 1.95,-1.79 2.13,-1.53 2.32,-1.27 2.44,-0.97 2.55,-0.67 2.60,-0.36 2.64,-0.04 2.61,0.26 2.58,0.58 2.47,0.88 2.36,1.18 2.18,1.45 2.01,1.71 1.77,1.93 1.54,2.15 1.26,2.30 0.98,2.45 0.98,2.45 L 0.98,2.45 Z"></path></g></svg>