<svg version="1.1" xmlns="http://www.w3.org/2000/svg" viewBox="0 0 918.8396429736167 378.5890171639621" width="918.8396429736167" height="378.5890171639621" class="excalidraw-svg"><!-- svg-source:excalidraw --><metadata></metadata><defs><style class="style-fonts">
      </style></defs><rect x="0" y="0" width="918.8396429736167" height="378.5890171639621" fill="#ffffff"></rect><g stroke-linecap="round"><g transform="translate(45.333343505859375 215.68432926274835) rotate(0 430.93468515471557 -0.2561783988028763)"><path d="M-0.12 0.38 C143.61 0.19, 719.4 -0.69, 863.51 -0.89 M-1.64 -0.47 C141.79 -0.55, 718.02 0.09, 862.3 0.18" stroke="#1e1e1e" stroke-width="2" fill="none"></path></g><g transform="translate(45.333343505859375 215.68432926274835) rotate(0 430.93468515471557 -0.2561783988028763)"><path d="M838.8 8.71 C848.68 4.54, 855.84 2.87, 862.3 0.18 M838.8 8.71 C843.35 7.68, 848.71 5.02, 862.3 0.18" stroke="#1e1e1e" stroke-width="2" fill="none"></path></g><g transform="translate(45.333343505859375 215.68432926274835) rotate(0 430.93468515471557 -0.2561783988028763)"><path d="M838.81 -8.39 C848.73 -5.81, 855.87 -0.74, 862.3 0.18 M838.81 -8.39 C843.41 -5.48, 848.76 -4.19, 862.3 0.18" stroke="#1e1e1e" stroke-width="2" fill="none"></path></g></g><mask></mask><g stroke-linecap="round"><g transform="translate(405.3333740234375 337.68432926274835) rotate(0 -0.2462643844284571 -163.79801469817755)"><path d="M0.59 0.09 C0.69 -54.35, -0.11 -271.29, -0.08 -325.94 M-0.56 -0.91 C-0.56 -55.75, -1.23 -273.32, -1.07 -327.68" stroke="#1e1e1e" stroke-width="2" fill="none"></path></g><g transform="translate(405.3333740234375 337.68432926274835) rotate(0 -0.2462643844284571 -163.79801469817755)"><path d="M7.49 -304.2 C5.44 -309.96, 4.44 -314.19, -1.07 -327.68 M7.49 -304.2 C6.47 -309.09, 3.29 -312.77, -1.07 -327.68" stroke="#1e1e1e" stroke-width="2" fill="none"></path></g><g transform="translate(405.3333740234375 337.68432926274835) rotate(0 -0.2462643844284571 -163.79801469817755)"><path d="M-9.61 -304.19 C-7.52 -310.04, -4.4 -314.27, -1.07 -327.68 M-9.61 -304.19 C-7.15 -309.23, -6.84 -312.91, -1.07 -327.68" stroke="#1e1e1e" stroke-width="2" fill="none"></path></g></g><mask></mask><g stroke-linecap="round"><g transform="translate(401.3333740234375 141.01767276860772) rotate(0 -29.599432905465363 37.75190102048218)"><path d="M0.11 -0.83 C-9.74 11.76, -48.64 63.35, -58.47 76.34 M-1.29 1.35 C-11.33 13.5, -49.57 62.06, -59.31 74.39" stroke="#1e1e1e" stroke-width="2" fill="none"></path></g></g><mask></mask><g stroke-linecap="round"><g transform="translate(405.3333740234375 139.01767276860772) rotate(0 34.925436232835054 39.62747910164297)"><path d="M0.3 1.19 C12.1 14, 58.91 64.34, 70.85 76.85 M-1 0.77 C10.59 13.81, 57.56 65.72, 69.65 78.49" stroke="#1e1e1e" stroke-width="2" fill="none"></path></g></g><mask></mask><g transform="translate(299.3333740234375 261.01770328618585) rotate(0 15.666656494140625 -1.66668701171875)" stroke="none"><path fill="#1e1e1e" d="M 0,-5.31 Q 0,-5.31 2.3,-5.35 4.6,-5.38 8.04,-5.51 11.48,-5.64 14.73,-5.74 17.97,-5.84 20.76,-6.81 23.54,-7.77 27.37,-8.78 31.21,-9.79 32.24,-9.64 33.28,-9.49 34.21,-9.02 35.14,-8.55 35.88,-7.80 36.61,-7.06 37.07,-6.12 37.52,-5.18 37.66,-4.14 37.79,-3.10 37.58,-2.07 37.38,-1.05 36.86,-0.14 36.33,0.75 35.55,1.45 34.77,2.14 33.80,2.54 32.84,2.95 31.79,3.03 30.75,3.10 29.74,2.84 28.72,2.58 27.85,2.01 26.97,1.44 26.32,0.62 25.67,-0.19 25.32,-1.18 24.97,-2.16 24.95,-3.21 24.93,-4.25 25.24,-5.25 25.56,-6.25 26.18,-7.09 26.79,-7.94 27.65,-8.54 28.50,-9.14 29.51,-9.44 30.51,-9.74 31.55,-9.71 32.60,-9.67 33.58,-9.30 34.56,-8.93 35.37,-8.27 36.18,-7.61 36.73,-6.72 37.29,-5.83 37.53,-4.82 37.78,-3.80 37.68,-2.76 37.59,-1.72 37.17,-0.76 36.75,0.19 36.04,0.96 35.34,1.74 34.42,2.24 33.51,2.75 32.48,2.94 31.45,3.13 31.45,3.13 31.45,3.13 30.66,2.64 29.87,2.15 27.59,3.04 25.31,3.93 21.64,4.89 17.97,5.84 14.73,5.74 11.48,5.64 8.04,5.51 4.6,5.38 2.3,5.35 0,5.31 -0.63,5.23 -1.27,5.16 -1.87,4.93 -2.47,4.70 -2.99,4.34 -3.52,3.97 -3.95,3.49 -4.37,3.01 -4.67,2.45 -4.97,1.88 -5.12,1.26 -5.27,0.64 -5.27,-0.00 -5.27,-0.64 -5.12,-1.26 -4.97,-1.88 -4.67,-2.45 -4.37,-3.02 -3.94,-3.49 -3.52,-3.97 -2.99,-4.34 -2.47,-4.70 -1.87,-4.93 -1.27,-5.16 -0.63,-5.23 0.00,-5.31 0.00,-5.31 L 0,-5.31 Z"></path></g><g transform="translate(352 243.01770328618585) rotate(0 0 20.666656494140625)" stroke="none"><path fill="#1e1e1e" d="M 5.29,0 Q 5.29,0 5.26,2.87 5.22,5.75 5.36,9.54 5.49,13.33 5.60,16.83 5.71,20.32 5.81,23.30 5.91,26.28 6.05,29.58 6.20,32.88 6.32,35.15 6.44,37.41 6.48,39.37 6.53,41.33 6.36,42.37 6.18,43.41 5.69,44.35 5.19,45.28 4.43,46.01 3.66,46.73 2.70,47.18 1.74,47.62 0.69,47.74 -0.35,47.85 -1.38,47.62 -2.41,47.40 -3.32,46.85 -4.22,46.31 -4.91,45.50 -5.59,44.69 -5.98,43.71 -6.37,42.73 -6.43,41.68 -6.49,40.62 -6.20,39.60 -5.92,38.59 -5.33,37.71 -4.74,36.84 -3.89,36.20 -3.05,35.56 -2.05,35.22 -1.05,34.88 0.00,34.88 1.05,34.88 2.05,35.22 3.06,35.56 3.90,36.20 4.74,36.84 5.33,37.71 5.92,38.59 6.21,39.61 6.49,40.62 6.43,41.68 6.37,42.73 5.98,43.72 5.59,44.70 4.91,45.50 4.22,46.31 3.32,46.85 2.41,47.40 1.38,47.62 0.35,47.85 -0.69,47.74 -1.74,47.62 -2.70,47.18 -3.66,46.73 -4.43,46.01 -5.20,45.28 -5.69,44.35 -6.18,43.41 -6.36,42.37 -6.53,41.33 -6.53,41.33 -6.53,41.33 -6.48,39.37 -6.44,37.41 -6.32,35.15 -6.20,32.88 -6.05,29.58 -5.91,26.28 -5.81,23.30 -5.71,20.32 -5.60,16.83 -5.49,13.33 -5.36,9.54 -5.22,5.75 -5.26,2.87 -5.29,0 -5.21,-0.63 -5.14,-1.26 -4.91,-1.86 -4.68,-2.46 -4.32,-2.98 -3.96,-3.51 -3.48,-3.93 -3.00,-4.35 -2.44,-4.65 -1.87,-4.95 -1.25,-5.10 -0.63,-5.25 0.00,-5.25 0.63,-5.25 1.25,-5.10 1.87,-4.95 2.44,-4.65 3.00,-4.35 3.48,-3.93 3.96,-3.51 4.32,-2.98 4.68,-2.46 4.91,-1.86 5.14,-1.26 5.21,-0.63 5.29,0.00 5.29,0.00 L 5.29,0 Z"></path></g><g transform="translate(436.66668701171875 84.3510162744671) rotate(0 0 15.333328247070312)" stroke="none"><path fill="#1e1e1e" d="M 5.22,0 Q 5.22,0 5.22,2.68 5.22,5.36 5.38,8.19 5.53,11.02 5.66,13.55 5.80,16.08 5.97,18.65 6.13,21.22 6.27,23.72 6.40,26.22 6.45,28.44 6.49,30.66 6.32,31.70 6.15,32.74 5.66,33.67 5.17,34.60 4.41,35.32 3.64,36.04 2.69,36.48 1.73,36.92 0.69,37.04 -0.35,37.15 -1.37,36.93 -2.40,36.70 -3.30,36.16 -4.20,35.62 -4.88,34.81 -5.56,34.01 -5.95,33.04 -6.34,32.06 -6.40,31.01 -6.46,29.96 -6.18,28.95 -5.89,27.93 -5.30,27.06 -4.71,26.19 -3.88,25.55 -3.04,24.92 -2.04,24.58 -1.05,24.25 0.00,24.25 1.05,24.25 2.04,24.58 3.04,24.92 3.88,25.56 4.71,26.19 5.30,27.06 5.89,27.93 6.18,28.95 6.46,29.96 6.40,31.01 6.34,32.06 5.95,33.04 5.56,34.01 4.88,34.82 4.20,35.62 3.30,36.16 2.40,36.70 1.37,36.93 0.35,37.15 -0.69,37.04 -1.74,36.92 -2.69,36.48 -3.64,36.04 -4.41,35.32 -5.17,34.59 -5.66,33.66 -6.16,32.74 -6.32,31.70 -6.49,30.66 -6.49,30.66 -6.49,30.66 -6.45,28.44 -6.40,26.22 -6.27,23.72 -6.13,21.22 -5.97,18.65 -5.80,16.08 -5.66,13.55 -5.53,11.02 -5.38,8.19 -5.22,5.36 -5.22,2.68 -5.22,0 -5.15,-0.62 -5.07,-1.25 -4.85,-1.84 -4.62,-2.42 -4.27,-2.94 -3.91,-3.46 -3.44,-3.88 -2.96,-4.30 -2.41,-4.59 -1.85,-4.88 -1.24,-5.03 -0.62,-5.19 0.00,-5.18 0.63,-5.18 1.24,-5.03 1.85,-4.88 2.41,-4.59 2.97,-4.30 3.44,-3.88 3.91,-3.46 4.27,-2.94 4.62,-2.42 4.85,-1.83 5.07,-1.25 5.15,-0.62 5.22,0.00 5.22,0.00 L 5.22,0 Z"></path></g><g transform="translate(486.66668701171875 241.68432926274835) rotate(0 0 16.333343505859375)" stroke="none"><path fill="#1e1e1e" d="M 5.24,0.43 Q 5.24,0.43 5.08,2.73 4.93,5.04 4.97,7.24 5.01,9.44 5.15,11.79 5.28,14.14 5.42,16.77 5.55,19.40 5.67,21.97 5.80,24.55 6.48,27.67 7.15,30.79 7.28,31.88 7.41,32.96 7.19,34.03 6.96,35.10 6.41,36.05 5.85,36.99 5.02,37.70 4.20,38.42 3.19,38.83 2.18,39.25 1.08,39.32 -0.00,39.38 -1.05,39.10 -2.11,38.82 -3.02,38.21 -3.93,37.61 -4.60,36.75 -5.27,35.88 -5.63,34.85 -5.99,33.82 -6.00,32.72 -6.01,31.63 -5.67,30.59 -5.33,29.55 -4.67,28.68 -4.02,27.80 -3.12,27.18 -2.22,26.56 -1.17,26.25 -0.12,25.95 0.96,26.00 2.05,26.05 3.07,26.45 4.09,26.84 4.93,27.54 5.77,28.24 6.34,29.17 6.92,30.10 7.16,31.17 7.40,32.23 7.30,33.32 7.19,34.41 6.74,35.41 6.29,36.40 5.54,37.20 4.80,38.00 3.84,38.52 2.88,39.04 1.80,39.23 0.72,39.42 -0.35,39.25 -1.43,39.08 -2.40,38.58 -3.37,38.08 -4.13,37.29 -4.89,36.50 -5.35,35.52 -5.82,34.53 -5.82,34.53 -5.82,34.53 -5.98,33.28 -6.13,32.02 -6.63,28.29 -7.14,24.55 -7.01,21.97 -6.88,19.39 -6.74,16.75 -6.61,14.10 -6.42,11.57 -6.24,9.04 -5.97,6.59 -5.70,4.15 -5.47,1.86 -5.24,-0.43 -5.11,-1.05 -4.98,-1.67 -4.71,-2.25 -4.43,-2.82 -4.03,-3.31 -3.63,-3.80 -3.12,-4.18 -2.61,-4.56 -2.03,-4.80 -1.45,-5.05 -0.82,-5.15 -0.19,-5.25 0.43,-5.20 1.06,-5.15 1.66,-4.94 2.26,-4.74 2.80,-4.40 3.33,-4.06 3.77,-3.60 4.21,-3.14 4.52,-2.59 4.84,-2.04 5.01,-1.43 5.19,-0.82 5.21,-0.19 5.24,0.43 5.24,0.43 L 5.24,0.43 Z"></path></g><g stroke-linecap="round"><g transform="translate(344 60.3510162744671) rotate(0 -0.2836915332824006 153.99265341944994)"><path d="M0.43 -0.25 C0.41 51.02, -0.89 257.04, -0.99 308.24" stroke="#1e1e1e" stroke-width="1.5" fill="none" stroke-dasharray="8 9"></path></g></g><mask></mask><g stroke-linecap="round"><g transform="translate(344 215.68432926274835) rotate(0 -26.749530322607605 -35.0094077846501)"><path d="M-1.09 -0.89 C-9.87 -12.58, -44.74 -59.6, -53.41 -71.27 M0.54 1.25 C-8.29 -10.13, -45.05 -57.31, -54.04 -69.7" stroke="#1e1e1e" stroke-width="1" fill="none"></path></g></g><mask></mask><g stroke-linecap="round"><g transform="translate(289.3333740234375 143.68432926274835) rotate(0 -25.67152485571802 34.67140447936952)"><path d="M-0.96 1.18 C-9.62 12.57, -43.16 56.34, -51.66 67.61 M0.74 0.75 C-8.01 12.33, -43.23 57.02, -52.08 68.59" stroke="#1e1e1e" stroke-width="1" fill="none"></path></g></g><mask></mask><g stroke-linecap="round"><g transform="translate(473.3333740234375 214.3510162744671) rotate(0 35.46294757537544 40.5397986716032)"><path d="M-0.74 -0.52 C11.01 12.86, 59.44 66.59, 71.66 80.27 M1.08 1.83 C12.54 15.38, 58.7 68.62, 70.54 81.6" stroke="#1e1e1e" stroke-width="1" fill="none"></path></g></g><mask></mask><g stroke-linecap="round"><g transform="translate(544.6666870117188 293.68432926274835) rotate(0 32.32314132198692 -38.59250687174499)"><path d="M0.91 0.81 C11.86 -12.3, 54.04 -65.02, 64.72 -78 M-0.08 0.19 C10.87 -12.83, 53.34 -64.17, 64.16 -76.81" stroke="#1e1e1e" stroke-width="1" fill="none"></path></g></g><mask></mask><g transform="translate(747.3333740234375 213.01767276860772) rotate(0 0.00004999999998744897 0.00004999999999988347)" stroke="none"><path fill="#1e1e1e" d="M 1.57,-1.57 Q 1.57,-1.57 1.77,-1.27 1.98,-0.98 2.09,-0.64 2.20,-0.29 2.19,0.05 2.18,0.41 2.05,0.75 1.93,1.09 1.70,1.37 1.48,1.65 1.18,1.84 0.87,2.04 0.52,2.12 0.18,2.21 -0.17,2.18 -0.53,2.15 -0.86,2.01 -1.19,1.87 -1.46,1.63 -1.73,1.39 -1.90,1.07 -2.08,0.76 -2.15,0.41 -2.21,0.05 -2.17,-0.29 -2.12,-0.65 -1.96,-0.97 -1.80,-1.29 -1.54,-1.54 -1.29,-1.80 -0.97,-1.96 -0.65,-2.12 -0.29,-2.17 0.06,-2.21 0.41,-2.15 0.76,-2.08 1.07,-1.90 1.39,-1.73 1.63,-1.46 1.87,-1.19 2.01,-0.86 2.15,-0.53 2.18,-0.17 2.21,0.18 2.12,0.52 2.03,0.87 1.84,1.18 1.65,1.48 1.37,1.70 1.09,1.93 0.75,2.05 0.41,2.18 0.05,2.19 -0.30,2.20 -0.64,2.09 -0.98,1.98 -1.27,1.77 -1.57,1.56 -1.57,1.57 -1.57,1.57 -1.73,1.35 -1.90,1.14 -2.01,0.90 -2.12,0.66 -2.16,0.39 -2.21,0.13 -2.20,-0.13 -2.18,-0.40 -2.10,-0.65 -2.02,-0.91 -1.88,-1.14 -1.74,-1.36 -1.55,-1.55 -1.36,-1.74 -1.14,-1.88 -0.91,-2.02 -0.65,-2.10 -0.40,-2.18 -0.13,-2.20 0.13,-2.21 0.39,-2.16 0.66,-2.12 0.90,-2.01 1.14,-1.90 1.35,-1.73 1.57,-1.57 1.57,-1.57 L 1.57,-1.57 Z"></path></g><g transform="translate(753.3333740234375 214.3510162744671) rotate(0 0.00004999999998744897 0.00004999999999988347)" stroke="none"><path fill="#1e1e1e" d="M 1.57,-1.57 Q 1.57,-1.57 1.77,-1.27 1.98,-0.98 2.09,-0.64 2.20,-0.29 2.19,0.05 2.18,0.41 2.05,0.75 1.93,1.09 1.70,1.37 1.48,1.65 1.18,1.84 0.87,2.04 0.52,2.12 0.18,2.21 -0.17,2.18 -0.53,2.15 -0.86,2.01 -1.19,1.87 -1.46,1.63 -1.73,1.39 -1.90,1.07 -2.08,0.76 -2.15,0.41 -2.21,0.05 -2.17,-0.29 -2.12,-0.65 -1.96,-0.97 -1.80,-1.29 -1.54,-1.54 -1.29,-1.80 -0.97,-1.96 -0.65,-2.12 -0.29,-2.17 0.06,-2.21 0.41,-2.15 0.76,-2.08 1.07,-1.90 1.39,-1.73 1.63,-1.46 1.87,-1.19 2.01,-0.86 2.15,-0.53 2.18,-0.17 2.21,0.18 2.12,0.52 2.03,0.87 1.84,1.18 1.65,1.48 1.37,1.70 1.09,1.93 0.75,2.05 0.41,2.18 0.05,2.19 -0.30,2.20 -0.64,2.09 -0.98,1.98 -1.27,1.77 -1.57,1.56 -1.57,1.57 -1.57,1.57 -1.73,1.35 -1.90,1.14 -2.01,0.90 -2.12,0.66 -2.16,0.39 -2.21,0.13 -2.20,-0.13 -2.18,-0.40 -2.10,-0.65 -2.02,-0.91 -1.88,-1.14 -1.74,-1.36 -1.55,-1.55 -1.36,-1.74 -1.14,-1.88 -0.91,-2.02 -0.65,-2.10 -0.40,-2.18 -0.13,-2.20 0.13,-2.21 0.39,-2.16 0.66,-2.12 0.90,-2.01 1.14,-1.90 1.35,-1.73 1.57,-1.57 1.57,-1.57 L 1.57,-1.57 Z"></path></g><g transform="translate(614.6666870117188 228.3510162744671) rotate(0 9.333343505859375 14.333343505859375)" stroke="none"><path fill="#1e1e1e" d="M -1.35,-2.25 Q -1.35,-2.25 -0.40,-2.84 0.54,-3.44 2.48,-4.04 4.42,-4.63 5.91,-4.76 7.40,-4.90 9.41,-4.18 11.41,-3.47 13.15,-1.80 14.90,-0.12 16.58,1.74 18.26,3.61 19.13,5.50 20.00,7.40 19.65,8.89 19.30,10.38 17.61,11.97 15.92,13.57 14.28,14.01 12.65,14.45 11.36,15.23 10.06,16.02 8.47,16.66 6.88,17.30 5.79,17.83 4.69,18.36 3.96,18.85 3.22,19.34 2.87,19.48 2.52,19.61 2.15,19.66 1.78,19.71 1.41,19.67 1.04,19.63 0.69,19.50 0.34,19.37 0.03,19.16 -0.27,18.95 -0.52,18.67 -0.77,18.39 -0.95,18.06 -1.12,17.73 -1.22,17.37 -1.31,17.01 -1.31,16.64 -1.31,16.26 -1.23,15.90 -1.14,15.53 -0.97,15.20 -0.80,14.87 -0.55,14.59 -0.31,14.31 -0.00,14.09 0.29,13.88 2.21,14.21 4.14,14.54 5.44,14.31 6.74,14.09 8.09,14.05 9.44,14.01 10.68,14.00 11.92,13.98 13.31,13.95 14.70,13.92 16.82,14.30 18.94,14.67 19.91,15.63 20.87,16.58 21.33,17.74 21.78,18.90 21.94,20.27 22.11,21.65 22.13,22.74 22.16,23.84 21.89,24.98 21.63,26.11 20.29,27.75 18.95,29.38 16.82,30.54 14.69,31.70 13.21,31.91 11.74,32.12 8.25,33.18 4.76,34.25 4.19,34.17 3.61,34.10 3.09,33.84 2.57,33.58 2.16,33.17 1.75,32.76 1.49,32.24 1.23,31.72 1.15,31.14 1.07,30.57 1.18,30.00 1.29,29.43 1.57,28.92 1.86,28.41 2.29,28.03 2.72,27.64 3.26,27.41 3.79,27.18 4.37,27.13 4.95,27.08 5.51,27.22 6.08,27.36 6.57,27.67 7.06,27.99 7.42,28.44 7.79,28.89 7.99,29.44 8.19,29.98 8.20,30.56 8.22,31.14 8.05,31.70 7.88,32.25 7.54,32.73 7.20,33.20 6.73,33.54 6.26,33.88 5.71,34.05 5.15,34.22 4.57,34.20 3.99,34.19 3.44,33.99 2.90,33.79 2.44,33.43 1.99,33.06 1.68,32.57 1.36,32.08 1.22,31.52 1.08,30.96 1.13,30.38 1.18,29.80 1.40,29.26 1.63,28.73 2.02,28.30 2.41,27.86 2.91,27.58 3.42,27.29 3.99,27.18 4.56,27.07 4.56,27.07 4.56,27.07 5.15,27.22 5.73,27.38 7.34,26.62 8.94,25.86 10.52,25.69 12.10,25.51 13.62,24.15 15.14,22.78 15.77,21.76 16.40,20.74 15.12,20.73 13.84,20.72 12.37,20.68 10.91,20.65 9.36,20.62 7.81,20.58 6.17,20.51 4.54,20.43 2.48,19.97 0.42,19.51 1.82,19.43 3.22,19.34 2.87,19.48 2.52,19.61 2.15,19.66 1.78,19.71 1.41,19.67 1.04,19.63 0.69,19.50 0.34,19.37 0.03,19.16 -0.27,18.95 -0.52,18.67 -0.77,18.39 -0.95,18.06 -1.12,17.73 -1.22,17.37 -1.31,17.01 -1.31,16.64 -1.31,16.26 -1.23,15.90 -1.14,15.53 -0.97,15.20 -0.80,14.87 -0.55,14.59 -0.31,14.31 -0.00,14.09 0.29,13.88 1.04,13.40 1.78,12.92 4.01,11.82 6.23,10.72 7.30,10.16 8.37,9.61 10.06,8.80 11.76,8.00 12.98,8.18 14.21,8.36 13.62,7.30 13.04,6.25 12.05,5.55 11.06,4.85 10.07,3.59 9.08,2.32 7.59,1.62 6.09,0.93 4.69,1.03 3.28,1.14 2.31,1.69 1.35,2.25 1.06,2.38 0.77,2.50 0.46,2.56 0.14,2.62 -0.16,2.60 -0.48,2.58 -0.78,2.48 -1.08,2.39 -1.35,2.22 -1.62,2.06 -1.84,1.83 -2.07,1.61 -2.23,1.34 -2.39,1.06 -2.49,0.76 -2.58,0.46 -2.60,0.14 -2.62,-0.16 -2.56,-0.47 -2.50,-0.78 -2.37,-1.07 -2.24,-1.36 -2.04,-1.61 -1.85,-1.86 -1.60,-2.05 -1.35,-2.25 -1.35,-2.25 L -1.35,-2.25 Z"></path></g><g transform="translate(758.666748046875 235.01770328618585) rotate(0 5.6666259765625 23)" stroke="none"><path fill="#1e1e1e" d="M 2.39,0 Q 2.39,0 2.25,2.49 2.10,4.98 2.14,6.42 2.17,7.86 2.15,9.63 2.12,11.39 2.14,12.90 2.16,14.42 2.21,15.52 2.26,16.61 1.36,18.49 0.46,20.36 0.20,21.53 -0.04,22.69 1.80,22.57 3.65,22.46 5.27,22.56 6.90,22.66 8.17,22.67 9.45,22.68 12.36,23.37 15.28,24.05 17.37,24.53 19.47,25.01 21.12,25.11 22.76,25.22 23.79,25.82 24.83,26.41 25.39,27.49 25.96,28.57 26.38,29.64 26.81,30.71 26.98,32.07 27.14,33.44 27.18,34.52 27.21,35.60 27.19,36.67 27.18,37.74 26.23,40.11 25.27,42.47 24.21,43.67 23.15,44.87 22.09,45.37 21.02,45.88 19.77,46.24 18.52,46.60 16.46,47.11 14.41,47.61 12.71,47.62 11.00,47.62 8.54,47.62 6.08,47.61 4.57,47.66 3.06,47.71 1.97,47.75 0.88,47.80 -0.21,47.83 -1.31,47.87 -2.74,48.52 -4.17,49.17 -6.32,48.99 -8.47,48.81 -9.93,48.10 -11.39,47.39 -12.95,46.11 -14.51,44.84 -14.91,44.47 -15.32,44.10 -15.58,43.62 -15.85,43.14 -15.95,42.60 -16.05,42.06 -15.97,41.52 -15.89,40.98 -15.65,40.49 -15.40,40.00 -15.01,39.61 -14.62,39.23 -14.13,38.99 -13.63,38.75 -13.09,38.68 -12.55,38.61 -12.01,38.72 -11.47,38.82 -11.00,39.10 -10.52,39.37 -10.16,39.78 -9.79,40.19 -9.58,40.70 -9.37,41.20 -9.33,41.75 -9.29,42.29 -9.42,42.82 -9.56,43.36 -9.86,43.82 -10.16,44.28 -10.59,44.62 -11.02,44.96 -11.53,45.14 -12.05,45.33 -12.60,45.34 -13.14,45.35 -13.67,45.18 -14.19,45.02 -14.63,44.70 -15.07,44.37 -15.39,43.93 -15.71,43.48 -15.86,42.95 -16.02,42.43 -16.00,41.88 -15.98,41.33 -15.79,40.82 -15.60,40.31 -15.25,39.88 -14.91,39.46 -14.44,39.17 -13.98,38.87 -13.45,38.74 -12.91,38.62 -12.37,38.66 -11.82,38.71 -11.32,38.93 -10.82,39.15 -10.82,39.15 -10.82,39.15 -8.91,40.63 -7.00,42.11 -6.00,42.60 -5.00,43.08 -3.16,42.27 -1.31,41.46 -0.22,41.49 0.87,41.53 1.96,41.57 3.05,41.61 4.54,41.64 6.03,41.68 8.39,41.60 10.76,41.52 12.66,41.33 14.56,41.14 15.61,40.78 16.66,40.43 17.99,40.14 19.32,39.86 20.06,38.80 20.81,37.75 20.79,36.68 20.78,35.61 20.81,34.30 20.85,32.99 20.76,31.74 20.66,30.50 18.50,30.01 16.33,29.52 14.90,29.21 13.48,28.90 11.44,28.42 9.39,27.94 8.09,27.92 6.79,27.90 5.05,27.93 3.31,27.96 1.79,27.84 0.27,27.72 -0.74,27.35 -1.76,26.98 -2.86,26.09 -3.96,25.20 -4.42,23.91 -4.87,22.61 -4.20,20.39 -3.53,18.17 -2.85,16.29 -2.16,14.42 -2.14,12.90 -2.12,11.39 -2.15,9.63 -2.17,7.86 -2.14,6.42 -2.10,4.98 -2.25,2.49 -2.39,0 -2.35,-0.28 -2.32,-0.57 -2.21,-0.84 -2.11,-1.11 -1.95,-1.34 -1.78,-1.58 -1.57,-1.77 -1.35,-1.96 -1.10,-2.10 -0.84,-2.23 -0.56,-2.30 -0.28,-2.37 0.00,-2.37 0.28,-2.37 0.56,-2.30 0.84,-2.23 1.10,-2.10 1.35,-1.96 1.57,-1.77 1.78,-1.58 1.95,-1.34 2.11,-1.11 2.21,-0.84 2.32,-0.57 2.35,-0.28 2.39,0.00 2.39,0.00 L 2.39,0 Z"></path></g><g transform="translate(756.666748046875 245.68432926274835) rotate(0 9 -1)" stroke="none"><path fill="#1e1e1e" d="M -1.19,-2.39 Q -1.19,-2.39 -0.43,-2.81 0.33,-3.23 1.58,-3.54 2.83,-3.85 4.50,-4.03 6.16,-4.21 8.03,-4.26 9.91,-4.31 11.34,-4.35 12.77,-4.39 14.82,-4.68 16.88,-4.98 17.38,-5.08 17.89,-5.18 18.40,-5.11 18.91,-5.04 19.37,-4.82 19.84,-4.59 20.20,-4.23 20.57,-3.87 20.80,-3.41 21.03,-2.95 21.11,-2.44 21.18,-1.93 21.08,-1.42 20.99,-0.91 20.74,-0.46 20.49,-0.01 20.11,0.32 19.73,0.67 19.25,0.87 18.78,1.08 18.27,1.12 17.76,1.17 17.25,1.05 16.75,0.93 16.32,0.65 15.88,0.38 15.56,-0.01 15.23,-0.41 15.05,-0.89 14.87,-1.38 14.85,-1.89 14.84,-2.41 14.99,-2.90 15.13,-3.39 15.43,-3.81 15.73,-4.23 16.15,-4.54 16.56,-4.84 17.06,-4.99 17.55,-5.15 18.06,-5.14 18.58,-5.13 19.06,-4.95 19.55,-4.78 19.95,-4.45 20.35,-4.13 20.63,-3.70 20.91,-3.27 21.04,-2.77 21.17,-2.27 21.13,-1.76 21.09,-1.24 20.89,-0.77 20.69,-0.30 20.35,0.08 20.00,0.47 19.56,0.72 19.11,0.98 19.11,0.98 19.11,0.98 16.49,1.37 13.86,1.77 12.49,1.74 11.13,1.70 9.60,1.67 8.08,1.64 6.60,1.63 5.12,1.62 3.92,1.66 2.73,1.70 1.96,2.04 1.19,2.39 0.89,2.50 0.58,2.61 0.26,2.64 -0.05,2.67 -0.37,2.63 -0.69,2.58 -0.99,2.46 -1.29,2.34 -1.55,2.15 -1.81,1.96 -2.02,1.72 -2.23,1.47 -2.37,1.18 -2.52,0.90 -2.59,0.58 -2.66,0.27 -2.65,-0.05 -2.65,-0.37 -2.56,-0.68 -2.48,-0.99 -2.32,-1.28 -2.17,-1.56 -1.95,-1.80 -1.73,-2.03 -1.46,-2.21 -1.19,-2.39 -1.19,-2.39 L -1.19,-2.39 Z"></path></g><g transform="translate(202 191.68432926274835) rotate(0 13 0)" stroke="none"><path fill="#1e1e1e" d="M 0,-2.64 Q 0,-2.64 1.34,-2.63 2.68,-2.63 3.82,-2.65 4.97,-2.67 6.51,-2.74 8.05,-2.81 9.78,-2.86 11.50,-2.91 13.29,-2.94 15.08,-2.96 16.85,-2.99 18.62,-3.02 20.30,-3.05 21.99,-3.07 23.99,-3.09 26,-3.12 26.49,-3.03 26.99,-2.95 27.44,-2.72 27.88,-2.48 28.23,-2.11 28.58,-1.75 28.79,-1.29 29.00,-0.83 29.06,-0.33 29.11,0.16 29.00,0.66 28.89,1.15 28.63,1.58 28.37,2.02 27.99,2.34 27.60,2.67 27.13,2.86 26.67,3.04 26.16,3.07 25.66,3.10 25.17,2.96 24.68,2.83 24.27,2.54 23.85,2.26 23.54,1.86 23.24,1.46 23.08,0.98 22.92,0.50 22.92,-0.00 22.92,-0.50 23.08,-0.98 23.24,-1.46 23.54,-1.86 23.85,-2.26 24.27,-2.54 24.69,-2.83 25.17,-2.96 25.66,-3.10 26.16,-3.07 26.67,-3.04 27.14,-2.86 27.60,-2.67 27.99,-2.34 28.37,-2.01 28.63,-1.58 28.89,-1.15 29.00,-0.66 29.11,-0.16 29.06,0.33 29.00,0.83 28.79,1.29 28.58,1.75 28.23,2.11 27.88,2.48 27.44,2.72 26.99,2.95 26.49,3.03 25.99,3.12 25.99,3.12 26,3.12 23.99,3.09 21.99,3.07 20.30,3.05 18.62,3.02 16.85,2.99 15.08,2.96 13.29,2.94 11.50,2.91 9.78,2.86 8.05,2.81 6.51,2.74 4.97,2.67 3.82,2.65 2.68,2.63 1.34,2.63 0,2.64 -0.31,2.60 -0.63,2.56 -0.92,2.45 -1.22,2.33 -1.48,2.15 -1.75,1.97 -1.96,1.73 -2.17,1.50 -2.32,1.21 -2.46,0.93 -2.54,0.62 -2.62,0.31 -2.62,-0.00 -2.62,-0.31 -2.54,-0.62 -2.46,-0.93 -2.32,-1.21 -2.17,-1.50 -1.96,-1.73 -1.75,-1.97 -1.48,-2.15 -1.22,-2.33 -0.92,-2.45 -0.63,-2.56 -0.31,-2.60 0.00,-2.64 0.00,-2.64 L 0,-2.64 Z"></path></g><g transform="translate(234 175.68432926274835) rotate(0 9.333343505859375 16)" stroke="none"><path fill="#1e1e1e" d="M 0,-2.64 Q 0,-2.64 1.15,-2.66 2.3,-2.68 3.37,-2.70 4.45,-2.72 6.26,-2.13 8.07,-1.55 9.25,-0.88 10.42,-0.22 11.15,1.45 11.89,3.12 12.11,4.41 12.33,5.70 12.38,7.14 12.44,8.59 12.48,9.82 12.52,11.05 12.55,12.18 12.58,13.30 12.25,14.88 11.93,16.46 11.20,17.35 10.47,18.23 8.96,19.00 7.46,19.77 6.17,19.92 4.89,20.06 4.27,19.90 3.65,19.74 3.24,19.70 2.82,19.65 2.43,19.51 2.04,19.37 1.69,19.14 1.34,18.91 1.06,18.60 0.77,18.29 0.57,17.93 0.37,17.56 0.26,17.16 0.16,16.75 0.15,16.34 0.14,15.92 0.23,15.51 0.33,15.10 0.51,14.73 0.70,14.36 0.97,14.04 1.24,13.72 1.58,13.48 1.92,13.24 2.31,13.08 2.70,12.92 3.11,12.87 3.53,12.81 5.05,12.66 6.57,12.52 8.16,12.50 9.75,12.48 11.13,12.49 12.52,12.50 13.86,12.48 15.19,12.46 16.92,12.95 18.64,13.44 19.36,14.23 20.08,15.03 20.90,16.18 21.73,17.34 21.95,18.87 22.18,20.39 21.88,22.33 21.58,24.27 20.92,25.20 20.26,26.13 19.32,27.37 18.39,28.60 17.09,29.35 15.79,30.10 14.59,31.21 13.40,32.32 12.10,32.83 10.80,33.35 9.49,33.69 8.17,34.03 6.58,34.76 5.00,35.49 4.42,35.56 3.83,35.63 3.26,35.51 2.68,35.39 2.17,35.09 1.67,34.79 1.28,34.35 0.90,33.90 0.67,33.36 0.45,32.81 0.41,32.22 0.37,31.64 0.53,31.07 0.68,30.50 1.00,30.01 1.33,29.52 1.79,29.16 2.26,28.80 2.82,28.60 3.37,28.41 3.96,28.40 4.55,28.40 5.11,28.58 5.67,28.76 6.14,29.12 6.61,29.47 6.95,29.95 7.28,30.44 7.45,31.00 7.61,31.57 7.58,32.16 7.56,32.74 7.34,33.29 7.13,33.84 6.75,34.29 6.38,34.75 5.88,35.05 5.37,35.36 4.80,35.49 4.23,35.63 3.64,35.57 3.05,35.51 2.52,35.27 1.98,35.03 1.55,34.62 1.12,34.22 0.84,33.71 0.56,33.19 0.46,32.61 0.36,32.03 0.45,31.45 0.54,30.87 0.81,30.34 1.08,29.82 1.50,29.41 1.93,29.00 2.46,28.75 2.99,28.50 2.99,28.50 2.99,28.50 4.69,27.77 6.38,27.04 7.46,26.83 8.54,26.63 9.53,26.13 10.53,25.62 11.88,24.64 13.24,23.65 14.16,22.75 15.07,21.85 15.13,20.69 15.19,19.53 13.86,19.51 12.52,19.49 11.14,19.50 9.75,19.51 8.21,19.50 6.66,19.49 5.16,19.62 3.65,19.74 3.24,19.70 2.82,19.65 2.43,19.51 2.04,19.37 1.69,19.14 1.34,18.91 1.06,18.60 0.77,18.29 0.57,17.93 0.37,17.56 0.26,17.16 0.16,16.75 0.15,16.34 0.14,15.92 0.23,15.51 0.33,15.10 0.51,14.73 0.70,14.36 0.97,14.04 1.24,13.72 1.58,13.48 1.92,13.24 2.31,13.08 2.70,12.92 3.11,12.87 3.52,12.81 4.80,13.06 6.08,13.30 6.11,12.18 6.14,11.07 6.17,9.85 6.20,8.64 6.19,7.07 6.19,5.51 5.54,4.28 4.89,3.06 3.59,2.87 2.3,2.68 1.15,2.66 0,2.64 -0.31,2.60 -0.63,2.56 -0.93,2.45 -1.22,2.34 -1.49,2.16 -1.75,1.98 -1.96,1.74 -2.17,1.50 -2.32,1.22 -2.47,0.93 -2.55,0.62 -2.62,0.31 -2.62,-0.00 -2.62,-0.31 -2.55,-0.62 -2.47,-0.93 -2.32,-1.22 -2.17,-1.50 -1.96,-1.74 -1.75,-1.98 -1.49,-2.16 -1.22,-2.34 -0.93,-2.45 -0.63,-2.56 -0.31,-2.60 0.00,-2.64 0.00,-2.64 L 0,-2.64 Z"></path></g><g transform="translate(110 239.01770328618585) rotate(0 4.66668701171875 0)" stroke="none"><path fill="#1e1e1e" d="M 0,-2.60 Q 0,-2.60 1.15,-2.62 2.3,-2.64 3.46,-2.72 4.62,-2.79 6.97,-2.85 9.33,-2.91 9.79,-2.83 10.26,-2.76 10.68,-2.54 11.09,-2.32 11.42,-1.97 11.74,-1.63 11.94,-1.20 12.14,-0.77 12.19,-0.31 12.24,0.15 12.14,0.61 12.04,1.07 11.79,1.48 11.55,1.88 11.19,2.19 10.83,2.49 10.39,2.67 9.95,2.84 9.48,2.87 9.01,2.89 8.56,2.77 8.10,2.64 7.71,2.38 7.32,2.11 7.04,1.74 6.75,1.36 6.60,0.91 6.45,0.47 6.45,-0.00 6.45,-0.47 6.60,-0.91 6.75,-1.36 7.04,-1.74 7.32,-2.11 7.71,-2.38 8.11,-2.64 8.56,-2.77 9.01,-2.89 9.48,-2.87 9.96,-2.84 10.39,-2.67 10.83,-2.49 11.19,-2.19 11.55,-1.88 11.79,-1.48 12.04,-1.07 12.14,-0.61 12.24,-0.15 12.19,0.31 12.14,0.78 11.94,1.20 11.74,1.63 11.42,1.97 11.09,2.32 10.67,2.54 10.26,2.76 9.79,2.83 9.33,2.91 9.33,2.91 9.33,2.91 6.97,2.85 4.62,2.79 3.46,2.72 2.3,2.64 1.15,2.62 0,2.60 -0.31,2.56 -0.62,2.52 -0.91,2.41 -1.21,2.30 -1.46,2.12 -1.72,1.94 -1.93,1.71 -2.14,1.47 -2.28,1.20 -2.43,0.92 -2.51,0.61 -2.58,0.31 -2.58,-0.00 -2.58,-0.31 -2.51,-0.61 -2.43,-0.92 -2.28,-1.20 -2.14,-1.47 -1.93,-1.71 -1.72,-1.94 -1.46,-2.12 -1.21,-2.30 -0.91,-2.41 -0.62,-2.52 -0.31,-2.56 0.00,-2.60 0.00,-2.60 L 0,-2.60 Z"></path></g><g transform="translate(126.66668701171875 231.01770328618585) rotate(0 8.666656494140625 15.666656494140625)" stroke="none"><path fill="#1e1e1e" d="M 2.62,0 Q 2.62,0 2.64,1.15 2.66,2.3 2.72,4.11 2.79,5.93 2.77,7.29 2.75,8.65 2.78,10.79 2.81,12.92 2.87,14.10 2.93,15.28 4.47,14.73 6.01,14.19 7.57,14.18 9.12,14.17 10.57,14.12 12.02,14.08 13.36,14.04 14.70,14.00 16.24,14.38 17.78,14.75 19.09,16.53 20.40,18.31 20.57,19.43 20.73,20.54 20.73,21.83 20.73,23.12 20.15,24.55 19.58,25.99 18.86,26.90 18.14,27.82 17.30,29.03 16.47,30.25 15.59,30.96 14.71,31.68 13.73,32.57 12.75,33.47 11.55,33.99 10.35,34.52 6.68,33.82 3.01,33.12 2.55,32.77 2.10,32.43 1.78,31.95 1.46,31.48 1.30,30.93 1.15,30.38 1.18,29.81 1.21,29.24 1.42,28.71 1.63,28.17 2.00,27.74 2.37,27.30 2.86,27.01 3.35,26.71 3.91,26.59 4.47,26.47 5.04,26.53 5.61,26.59 6.12,26.83 6.64,27.07 7.06,27.46 7.47,27.86 7.74,28.36 8.01,28.87 8.10,29.43 8.19,29.99 8.10,30.56 8.01,31.12 7.74,31.63 7.47,32.13 7.06,32.53 6.64,32.92 6.13,33.16 5.61,33.40 5.04,33.46 4.47,33.52 3.91,33.40 3.35,33.28 2.86,32.98 2.37,32.69 2.00,32.25 1.63,31.82 1.42,31.29 1.21,30.75 1.18,30.18 1.15,29.61 1.30,29.06 1.45,28.51 1.78,28.04 2.10,27.57 2.55,27.22 3.01,26.87 3.55,26.69 4.09,26.51 4.66,26.51 5.23,26.51 5.77,26.69 6.32,26.87 6.32,26.87 6.32,26.87 7.57,27.23 8.82,27.60 9.97,26.78 11.12,25.96 11.96,24.74 12.80,23.51 13.33,22.07 13.86,20.63 12.50,20.59 11.14,20.55 9.50,20.49 7.87,20.43 5.89,20.39 3.92,20.36 1.93,20.05 -0.04,19.75 -0.97,18.92 -1.91,18.10 -2.42,16.69 -2.93,15.28 -2.87,14.10 -2.81,12.92 -2.78,10.79 -2.75,8.65 -2.77,7.29 -2.79,5.93 -2.72,4.11 -2.66,2.3 -2.64,1.15 -2.62,0 -2.58,-0.31 -2.54,-0.62 -2.43,-0.92 -2.32,-1.21 -2.14,-1.48 -1.96,-1.74 -1.72,-1.95 -1.49,-2.16 -1.21,-2.30 -0.93,-2.45 -0.62,-2.52 -0.31,-2.60 0.00,-2.60 0.31,-2.60 0.62,-2.52 0.93,-2.45 1.21,-2.30 1.49,-2.15 1.72,-1.95 1.96,-1.74 2.14,-1.47 2.32,-1.21 2.43,-0.92 2.54,-0.62 2.58,-0.31 2.62,0.00 2.62,0.00 L 2.62,0 Z"></path></g><g transform="translate(130 237.01770328618585) rotate(0 4.333343505859375 -0.66668701171875)" stroke="none"><path fill="#1e1e1e" d="M -0.69,-2.44 Q -0.69,-2.44 0.64,-2.82 1.98,-3.20 3.43,-3.56 4.87,-3.91 6.75,-4.00 8.62,-4.09 9.07,-4.02 9.51,-3.96 9.90,-3.75 10.30,-3.55 10.61,-3.23 10.93,-2.91 11.12,-2.51 11.31,-2.10 11.37,-1.66 11.42,-1.22 11.33,-0.78 11.24,-0.34 11.02,0.03 10.79,0.42 10.45,0.71 10.12,1.01 9.71,1.18 9.29,1.35 8.85,1.38 8.40,1.41 7.97,1.30 7.54,1.18 7.16,0.94 6.79,0.69 6.52,0.34 6.24,-0.00 6.09,-0.42 5.94,-0.84 5.94,-1.29 5.93,-1.74 6.07,-2.16 6.20,-2.59 6.47,-2.95 6.74,-3.31 7.10,-3.56 7.47,-3.82 7.90,-3.94 8.33,-4.07 8.77,-4.05 9.22,-4.03 9.64,-3.87 10.05,-3.71 10.40,-3.43 10.74,-3.14 10.98,-2.77 11.21,-2.39 11.31,-1.95 11.42,-1.52 11.37,-1.07 11.33,-0.63 11.15,-0.22 10.97,0.18 10.67,0.51 10.36,0.84 9.97,1.05 9.58,1.27 9.14,1.34 8.70,1.42 8.70,1.42 8.70,1.42 7.15,1.44 5.59,1.45 4.48,1.56 3.37,1.67 2.03,2.05 0.69,2.44 0.39,2.48 0.09,2.53 -0.21,2.51 -0.51,2.48 -0.80,2.38 -1.09,2.28 -1.35,2.12 -1.61,1.96 -1.82,1.73 -2.03,1.51 -2.18,1.25 -2.33,0.98 -2.42,0.69 -2.50,0.39 -2.51,0.09 -2.52,-0.21 -2.46,-0.51 -2.40,-0.81 -2.27,-1.08 -2.14,-1.36 -1.94,-1.60 -1.75,-1.83 -1.50,-2.01 -1.26,-2.20 -0.97,-2.32 -0.69,-2.44 -0.69,-2.44 L -0.69,-2.44 Z"></path></g><g transform="translate(10 236.3510162744671) rotate(0 7.333343505859375 0.666656494140625)" stroke="none"><path fill="#1e1e1e" d="M 0,-2.64 Q 0,-2.64 0.95,-2.67 1.91,-2.70 3.23,-2.77 4.55,-2.84 6.15,-2.92 7.74,-3.01 8.97,-2.99 10.19,-2.97 13.04,-2.22 15.89,-1.47 16.30,-1.20 16.72,-0.93 17.03,-0.54 17.34,-0.15 17.51,0.30 17.67,0.77 17.68,1.26 17.70,1.76 17.55,2.23 17.40,2.71 17.11,3.11 16.82,3.51 16.41,3.79 16.01,4.08 15.53,4.22 15.06,4.37 14.56,4.35 14.07,4.33 13.60,4.16 13.14,3.99 12.75,3.67 12.37,3.36 12.10,2.94 11.84,2.52 11.72,2.04 11.61,1.56 11.65,1.07 11.69,0.57 11.89,0.12 12.09,-0.33 12.42,-0.69 12.76,-1.06 13.19,-1.30 13.62,-1.54 14.11,-1.63 14.60,-1.72 15.09,-1.66 15.58,-1.59 16.02,-1.36 16.46,-1.14 16.81,-0.79 17.16,-0.43 17.38,0.00 17.60,0.45 17.66,0.94 17.72,1.43 17.63,1.92 17.53,2.40 17.28,2.83 17.04,3.26 16.67,3.59 16.30,3.92 15.84,4.11 15.38,4.31 14.89,4.34 14.39,4.38 13.91,4.26 13.43,4.14 13.43,4.14 13.43,4.14 11.81,3.55 10.19,2.97 8.97,2.99 7.74,3.01 6.15,2.92 4.55,2.84 3.23,2.77 1.91,2.70 0.95,2.67 0,2.64 -0.31,2.60 -0.63,2.56 -0.93,2.45 -1.22,2.33 -1.48,2.15 -1.75,1.97 -1.96,1.73 -2.17,1.50 -2.32,1.21 -2.47,0.93 -2.54,0.62 -2.62,0.31 -2.62,-0.00 -2.62,-0.31 -2.54,-0.62 -2.47,-0.93 -2.32,-1.21 -2.17,-1.50 -1.96,-1.73 -1.75,-1.97 -1.48,-2.15 -1.22,-2.33 -0.92,-2.45 -0.63,-2.56 -0.31,-2.60 0.00,-2.64 0.00,-2.64 L 0,-2.64 Z"></path></g><g transform="translate(40 230.3510162744671) rotate(0 14 29.333343505859375)" stroke="none"><path fill="#1e1e1e" d="M 0,-2.29 Q 0,-2.29 1.91,-2.21 3.83,-2.14 5.98,-2.03 8.14,-1.92 9.82,-1.94 11.51,-1.95 13.18,-1.97 14.85,-1.98 16.33,-2.02 17.81,-2.06 19.01,-2.13 20.22,-2.19 21.69,-2.21 23.16,-2.23 24.37,-2.28 25.58,-2.32 26.65,-2.12 27.71,-1.91 28.66,-0.95 29.60,-0.00 29.81,1.13 30.02,2.26 29.81,3.88 29.60,5.50 28.51,7.15 27.41,8.80 26.91,10.17 26.41,11.53 25.37,13.49 24.32,15.45 23.82,17.06 23.32,18.67 22.38,20.73 21.44,22.80 20.81,24.53 20.18,26.26 19.74,28.28 19.30,30.29 18.89,32.00 18.47,33.70 17.95,35.93 17.43,38.15 17.25,39.79 17.08,41.43 17.06,43.06 17.05,44.69 16.83,46.55 16.61,48.42 16.33,49.97 16.04,51.51 15.73,53.29 15.42,55.07 15.35,56.91 15.28,58.76 15.18,59.28 15.08,59.81 14.82,60.27 14.55,60.73 14.16,61.09 13.76,61.44 13.27,61.65 12.78,61.86 12.25,61.90 11.72,61.94 11.20,61.81 10.68,61.68 10.24,61.39 9.79,61.10 9.46,60.69 9.13,60.27 8.94,59.77 8.76,59.27 8.75,58.74 8.74,58.21 8.89,57.70 9.05,57.19 9.36,56.76 9.68,56.33 10.11,56.02 10.54,55.71 11.05,55.55 11.56,55.40 12.09,55.42 12.63,55.43 13.13,55.62 13.62,55.80 14.04,56.14 14.45,56.47 14.74,56.92 15.02,57.37 15.15,57.89 15.28,58.41 15.23,58.94 15.19,59.47 14.97,59.96 14.76,60.44 14.40,60.84 14.05,61.23 13.58,61.49 13.12,61.75 12.60,61.85 12.07,61.95 11.55,61.88 11.02,61.80 10.54,61.57 10.07,61.33 9.69,60.95 9.32,60.57 9.08,60.09 8.85,59.62 8.78,59.09 8.71,58.56 8.71,58.56 8.71,58.56 8.81,56.62 8.91,54.68 9.22,53.53 9.52,52.38 9.73,51.15 9.95,49.92 10.28,48.36 10.62,46.80 10.80,45.70 10.98,44.59 11.06,42.78 11.14,40.97 11.25,39.83 11.36,38.68 11.59,37.55 11.82,36.42 12.14,35.31 12.46,34.20 12.68,32.77 12.90,31.34 13.20,30.28 13.51,29.23 13.73,27.63 13.96,26.03 14.64,24.02 15.33,22.01 15.69,20.92 16.05,19.83 16.72,18.50 17.39,17.16 17.71,15.99 18.03,14.82 19.21,12.24 20.39,9.66 20.99,8.74 21.58,7.81 22.71,6.15 23.83,4.49 24.68,3.41 25.53,2.32 24.34,2.28 23.16,2.23 21.69,2.21 20.22,2.19 19.01,2.13 17.81,2.06 16.33,2.02 14.85,1.98 13.18,1.97 11.51,1.95 9.82,1.94 8.14,1.92 5.98,2.03 3.83,2.14 1.91,2.21 0,2.29 -0.27,2.25 -0.54,2.22 -0.80,2.12 -1.06,2.02 -1.29,1.87 -1.51,1.71 -1.70,1.50 -1.88,1.30 -2.01,1.05 -2.14,0.81 -2.20,0.54 -2.27,0.27 -2.27,-0.00 -2.27,-0.27 -2.20,-0.54 -2.14,-0.81 -2.01,-1.05 -1.88,-1.30 -1.70,-1.50 -1.51,-1.71 -1.29,-1.87 -1.06,-2.02 -0.80,-2.12 -0.54,-2.22 -0.27,-2.25 0.00,-2.29 0.00,-2.29 L 0,-2.29 Z"></path></g><g stroke-linecap="round"><g transform="translate(608.295331327437 215.6207327076449) rotate(0 41.71913275540999 41.681156735713984)"><path d="M-0.3 0.18 C13.66 14.17, 69.81 70.35, 83.73 84.13 M1.75 -0.76 C15.54 12.87, 69.35 68.37, 82.75 82.49" stroke="#1e1e1e" stroke-width="1" fill="none"></path></g></g><mask></mask><g stroke-linecap="round"><g transform="translate(692.6877687899952 294.6644058232505) rotate(0 27.85266450948498 -40.08143707422702)"><path d="M-0.58 -0.44 C8.67 -13.78, 46.62 -66.43, 56.29 -79.73 M1.31 -1.71 C10.33 -14.88, 45.93 -65.31, 55.25 -78.23" stroke="#1e1e1e" stroke-width="1" fill="none"></path></g></g><mask></mask><g transform="translate(238.63245128550668 212.0548535356777) rotate(0 0.00005000000000165983 0.00004999999999988347)" stroke="none"><path fill="#1e1e1e" d="M 1.57,-1.57 Q 1.57,-1.57 1.77,-1.27 1.98,-0.98 2.09,-0.64 2.20,-0.29 2.19,0.05 2.18,0.41 2.05,0.75 1.93,1.09 1.70,1.37 1.48,1.65 1.18,1.84 0.87,2.04 0.52,2.12 0.18,2.21 -0.17,2.18 -0.53,2.15 -0.86,2.01 -1.19,1.87 -1.46,1.63 -1.73,1.39 -1.90,1.07 -2.08,0.76 -2.15,0.41 -2.21,0.05 -2.17,-0.29 -2.12,-0.65 -1.96,-0.97 -1.80,-1.29 -1.54,-1.54 -1.29,-1.80 -0.97,-1.96 -0.65,-2.12 -0.29,-2.17 0.06,-2.21 0.41,-2.15 0.76,-2.08 1.07,-1.90 1.39,-1.73 1.63,-1.46 1.87,-1.19 2.01,-0.86 2.15,-0.53 2.18,-0.17 2.21,0.18 2.12,0.52 2.03,0.87 1.84,1.18 1.65,1.48 1.37,1.70 1.09,1.93 0.75,2.05 0.41,2.18 0.05,2.19 -0.30,2.20 -0.64,2.09 -0.98,1.98 -1.27,1.77 -1.57,1.56 -1.57,1.57 -1.57,1.57 -1.73,1.35 -1.90,1.14 -2.01,0.90 -2.12,0.66 -2.16,0.39 -2.21,0.13 -2.20,-0.13 -2.18,-0.40 -2.10,-0.65 -2.02,-0.91 -1.88,-1.14 -1.74,-1.36 -1.55,-1.55 -1.36,-1.74 -1.14,-1.88 -0.91,-2.02 -0.65,-2.10 -0.40,-2.18 -0.13,-2.20 0.13,-2.21 0.39,-2.16 0.66,-2.12 0.90,-2.01 1.14,-1.90 1.35,-1.73 1.57,-1.57 1.57,-1.57 L 1.57,-1.57 Z"></path></g><g stroke-linecap="round"><g transform="translate(236.25523477819394 217.99800362595573) rotate(0 -23.260181747193016 32.86148036318366)"><path d="M-0.74 1.13 C-8.43 11.94, -39.2 53.26, -46.75 63.74 M1.08 0.67 C-6.7 11.75, -39.69 54.28, -47.6 65.05" stroke="#1e1e1e" stroke-width="1" fill="none"></path></g></g><mask></mask><g stroke-linecap="round"><g transform="translate(189.89880554262038 283.9667683073489) rotate(0 -25.883547490729285 -32.188763395906435)"><path d="M1.19 -0.79 C-7.79 -11.57, -44.21 -53.21, -52.95 -63.84 M0.35 1.41 C-8.3 -9.81, -41.94 -54.98, -50.59 -65.79" stroke="#1e1e1e" stroke-width="1" fill="none"></path></g></g><mask></mask><g stroke-linecap="round"><g transform="translate(139.3821658027524 216.21506403997216) rotate(0 -25.862451511282785 33.39014633759196)"><path d="M0.31 0.72 C-8.16 11.56, -42.82 54.58, -51.51 65.46 M-0.98 0.05 C-9.49 11.01, -43.49 55.52, -52.04 66.73" stroke="#1e1e1e" stroke-width="1" fill="none"></path></g></g><mask></mask><g stroke-linecap="round"><g transform="translate(87.67691780922803 286.9383161469889) rotate(0 -21.29883628825661 -34.37395328081294)"><path d="M0.84 0.15 C-6.48 -11.12, -36.15 -55.7, -43.44 -67.11 M-0.18 -0.82 C-7.15 -12.48, -33.82 -57.82, -41.06 -68.89" stroke="#1e1e1e" stroke-width="1" fill="none"></path></g></g><mask></mask><g transform="translate(746.1759563695032 215.02640137531768) rotate(0 0.00004999999998744897 0.00004999999999988347)" stroke="none"><path fill="#1e1e1e" d="M 1.57,-1.57 Q 1.57,-1.57 1.77,-1.27 1.98,-0.98 2.09,-0.64 2.20,-0.29 2.19,0.05 2.18,0.41 2.05,0.75 1.93,1.09 1.70,1.37 1.48,1.65 1.18,1.84 0.87,2.04 0.52,2.12 0.18,2.21 -0.17,2.18 -0.53,2.15 -0.86,2.01 -1.19,1.87 -1.46,1.63 -1.73,1.39 -1.90,1.07 -2.08,0.76 -2.15,0.41 -2.21,0.05 -2.17,-0.29 -2.12,-0.65 -1.96,-0.97 -1.80,-1.29 -1.54,-1.54 -1.29,-1.80 -0.97,-1.96 -0.65,-2.12 -0.29,-2.17 0.06,-2.21 0.41,-2.15 0.76,-2.08 1.07,-1.90 1.39,-1.73 1.63,-1.46 1.87,-1.19 2.01,-0.86 2.15,-0.53 2.18,-0.17 2.21,0.18 2.12,0.52 2.03,0.87 1.84,1.18 1.65,1.48 1.37,1.70 1.09,1.93 0.75,2.05 0.41,2.18 0.05,2.19 -0.30,2.20 -0.64,2.09 -0.98,1.98 -1.27,1.77 -1.57,1.56 -1.57,1.57 -1.57,1.57 -1.73,1.35 -1.90,1.14 -2.01,0.90 -2.12,0.66 -2.16,0.39 -2.21,0.13 -2.20,-0.13 -2.18,-0.40 -2.10,-0.65 -2.02,-0.91 -1.88,-1.14 -1.74,-1.36 -1.55,-1.55 -1.36,-1.74 -1.14,-1.88 -0.91,-2.02 -0.65,-2.10 -0.40,-2.18 -0.13,-2.20 0.13,-2.21 0.39,-2.16 0.66,-2.12 0.90,-2.01 1.14,-1.90 1.35,-1.73 1.57,-1.57 1.57,-1.57 L 1.57,-1.57 Z"></path></g><g stroke-linecap="round"><g transform="translate(746.7702332908324 216.21506403997216) rotate(0 30.525852625143784 -40.3272987209236)"><path d="M-1.06 0.41 C9.16 -12.9, 51.67 -67.79, 62.12 -81.07 M0.58 -0.42 C10.55 -13.5, 50.44 -66.53, 61.02 -79.97" stroke="#1e1e1e" stroke-width="1" fill="none"></path></g></g><mask></mask><g stroke-linecap="round"><g transform="translate(809.1731188002583 135.38845133838294) rotate(0 30.567881425602877 38.72317381921072)"><path d="M-1 -0.42 C9.23 12.95, 51.54 66, 62.13 79.13 M0.68 -1.69 C10.7 11.43, 51.11 63.81, 61.35 77.37" stroke="#1e1e1e" stroke-width="1" fill="none"></path></g></g><mask></mask><g transform="translate(866.8215712950588 237.61033907177534) rotate(0 11.589107308893404 25.852596791263096)" stroke="none"><path fill="#1e1e1e" d="M -0.22,-2.45 Q -0.22,-2.45 1.66,-2.53 3.55,-2.62 5.08,-2.71 6.61,-2.79 8.30,-2.80 9.99,-2.82 11.38,-2.85 12.78,-2.89 13.89,-2.94 14.99,-3.00 16.15,-3.04 17.31,-3.08 18.42,-3.17 19.53,-3.26 20.77,-3.35 22.01,-3.45 23.18,-2.92 24.34,-2.39 25.21,-0.84 26.07,0.69 26.15,2.39 26.24,4.09 25.81,6.21 25.38,8.33 25.09,10.32 24.80,12.31 24.23,14.07 23.66,15.83 22.60,18.01 21.54,20.18 21.05,21.43 20.56,22.67 19.56,24.31 18.55,25.95 18.07,27.69 17.59,29.43 17.55,30.77 17.50,32.11 17.28,33.16 17.06,34.21 16.25,35.89 15.45,37.58 15.33,39.16 15.21,40.74 14.97,42.77 14.74,44.79 14.41,46.10 14.08,47.41 13.69,50.43 13.29,53.45 13.02,53.93 12.75,54.41 12.35,54.77 11.94,55.14 11.44,55.36 10.94,55.58 10.39,55.63 9.84,55.68 9.31,55.55 8.77,55.42 8.31,55.12 7.85,54.83 7.50,54.41 7.15,53.98 6.96,53.47 6.77,52.95 6.75,52.40 6.73,51.85 6.89,51.33 7.05,50.80 7.37,50.36 7.69,49.91 8.13,49.59 8.57,49.26 9.10,49.10 9.62,48.94 10.17,48.95 10.72,48.96 11.24,49.15 11.75,49.33 12.18,49.67 12.61,50.02 12.91,50.48 13.21,50.94 13.34,51.47 13.48,52.00 13.44,52.55 13.39,53.10 13.18,53.60 12.97,54.11 12.60,54.52 12.24,54.93 11.76,55.20 11.28,55.47 10.75,55.58 10.21,55.68 9.66,55.61 9.12,55.54 8.63,55.30 8.13,55.06 7.74,54.67 7.35,54.29 7.11,53.80 6.86,53.31 6.78,52.76 6.71,52.22 6.81,51.68 6.91,51.14 6.91,51.14 6.91,51.14 7.18,49.16 7.46,47.18 7.69,45.98 7.92,44.79 8.28,43.63 8.64,42.47 8.70,40.67 8.75,38.88 8.88,37.81 9.01,36.74 9.32,35.71 9.64,34.68 10.39,32.76 11.14,30.83 11.37,29.25 11.60,27.67 12.09,26.05 12.57,24.42 13.54,22.77 14.50,21.12 15.39,18.97 16.28,16.82 16.92,15.31 17.57,13.80 18.07,12.41 18.56,11.01 18.83,9.43 19.10,7.84 19.59,6.01 20.08,4.17 21.05,3.22 22.01,2.26 20.78,2.16 19.54,2.07 18.43,1.98 17.32,1.89 16.17,1.86 15.02,1.83 13.92,1.78 12.82,1.74 11.45,1.73 10.07,1.72 8.45,1.77 6.83,1.82 5.40,1.88 3.96,1.94 2.09,2.19 0.22,2.45 -0.07,2.44 -0.37,2.43 -0.65,2.35 -0.94,2.27 -1.20,2.13 -1.46,1.98 -1.67,1.78 -1.89,1.57 -2.05,1.32 -2.21,1.07 -2.31,0.79 -2.40,0.51 -2.43,0.22 -2.46,-0.07 -2.41,-0.36 -2.37,-0.66 -2.25,-0.93 -2.14,-1.21 -1.96,-1.44 -1.79,-1.68 -1.56,-1.87 -1.33,-2.06 -1.07,-2.19 -0.80,-2.32 -0.51,-2.39 -0.22,-2.45 -0.22,-2.45 L -0.22,-2.45 Z"></path></g></svg>