<svg version="1.1" xmlns="http://www.w3.org/2000/svg" viewBox="0 0 547 625.2614933436737" width="547" height="625.2614933436737" class="excalidraw-svg"><!-- svg-source:excalidraw --><metadata></metadata><defs><style class="style-fonts">
      </style></defs><rect x="0" y="0" width="547" height="625.2614933436737" fill="#ffffff"></rect><g stroke-linecap="round"><g transform="translate(28 543.2614933436737) rotate(0 240.15451068169435 -4.564883930897338)"><path d="M0.07 -0.8 C80.51 -2.59, 401.3 -8.96, 481.67 -10.53 M-1.36 1.4 C78.98 -0.25, 400.05 -7.54, 480.55 -9.27" stroke="#1971c2" stroke-width="2" fill="none"></path></g><g transform="translate(28 543.2614933436737) rotate(0 240.15451068169435 -4.564883930897338)"><path d="M457.25 -0.2 C461.01 -2.75, 466.55 -3.74, 480.55 -9.27 M457.25 -0.2 C462.91 -3.71, 470.63 -6.39, 480.55 -9.27" stroke="#1971c2" stroke-width="2" fill="none"></path></g><g transform="translate(28 543.2614933436737) rotate(0 240.15451068169435 -4.564883930897338)"><path d="M456.87 -17.3 C460.74 -16.1, 466.37 -13.35, 480.55 -9.27 M456.87 -17.3 C462.67 -15.97, 470.5 -13.8, 480.55 -9.27" stroke="#1971c2" stroke-width="2" fill="none"></path></g></g><mask></mask><g stroke-linecap="round"><g transform="translate(29 543.2614933436737) rotate(0 204.63316885791718 -266.06833005305384)"><path d="M-0.83 -0.98 C67.53 -89.72, 341.94 -442.89, 410.1 -531.44 M0.93 1.12 C69.24 -87.45, 341.46 -444.57, 409.73 -533.26" stroke="#1e1e1e" stroke-width="2" fill="none"></path></g></g><mask></mask><g stroke-linecap="round"><g transform="translate(31 544.2614933436737) rotate(0 80.0758083280176 -105.3561982627958)"><path d="M-0.3 1.11 C26.27 -34.19, 133.69 -176.39, 160.45 -211.82 M1.75 0.65 C28.01 -34.44, 132.38 -174.5, 159.21 -210.19" stroke="#e03131" stroke-width="2" fill="none"></path></g><g transform="translate(31 544.2614933436737) rotate(0 80.0758083280176 -105.3561982627958)"><path d="M151.99 -186.26 C156.64 -196.45, 157.89 -206.06, 159.21 -210.19 M151.99 -186.26 C154.58 -194.11, 157.52 -202.81, 159.21 -210.19" stroke="#e03131" stroke-width="2" fill="none"></path></g><g transform="translate(31 544.2614933436737) rotate(0 80.0758083280176 -105.3561982627958)"><path d="M138.29 -196.5 C148.27 -202.68, 154.83 -208.32, 159.21 -210.19 M138.29 -196.5 C145.59 -200.71, 153.25 -205.87, 159.21 -210.19" stroke="#e03131" stroke-width="2" fill="none"></path></g></g><mask></mask><g transform="translate(519 544.2614933436737) rotate(0 -3.5 22)" stroke="none"><path fill="#1e1e1e" d="M 1.87,-0.53 Q 1.87,-0.53 2.38,1.50 2.88,3.55 2.80,6.38 2.73,9.21 2.07,12.45 1.42,15.69 -0.03,20.26 -1.49,24.82 -3.00,28.22 -4.51,31.63 -5.11,34.08 -5.71,36.53 -5.86,37.89 -6.01,39.26 -6.62,41.82 -7.23,44.38 -7.34,44.65 -7.45,44.92 -7.63,45.14 -7.82,45.37 -8.07,45.52 -8.32,45.67 -8.61,45.73 -8.89,45.80 -9.18,45.77 -9.47,45.73 -9.74,45.61 -10.00,45.49 -10.22,45.29 -10.43,45.09 -10.57,44.83 -10.70,44.58 -10.75,44.29 -10.80,44.00 -10.75,43.71 -10.71,43.42 -10.57,43.17 -10.43,42.91 -10.22,42.71 -10.01,42.50 -9.75,42.38 -9.48,42.26 -9.19,42.23 -8.90,42.19 -8.62,42.26 -8.33,42.32 -8.08,42.47 -7.83,42.62 -7.64,42.84 -7.45,43.06 -7.34,43.33 -7.23,43.60 -7.22,43.89 -7.20,44.19 -7.28,44.47 -7.36,44.75 -7.52,44.99 -7.68,45.23 -7.91,45.41 -8.15,45.59 -8.42,45.68 -8.70,45.77 -8.99,45.78 -9.28,45.78 -9.56,45.68 -9.84,45.59 -10.07,45.42 -10.30,45.24 -10.47,45.00 -10.63,44.76 -10.71,44.48 -10.79,44.19 -10.77,43.90 -10.76,43.61 -10.76,43.61 -10.76,43.61 -9.98,41.13 -9.20,38.65 -8.83,37.26 -8.45,35.86 -7.81,33.17 -7.17,30.48 -5.76,27.20 -4.35,23.92 -3.01,19.51 -1.66,15.10 -1.13,12.13 -0.60,9.15 -0.59,6.82 -0.58,4.49 -1.23,2.51 -1.87,0.53 -1.91,0.30 -1.95,0.07 -1.93,-0.16 -1.91,-0.39 -1.83,-0.62 -1.76,-0.84 -1.63,-1.04 -1.50,-1.24 -1.33,-1.40 -1.16,-1.56 -0.96,-1.68 -0.75,-1.80 -0.53,-1.86 -0.30,-1.92 -0.07,-1.93 0.16,-1.94 0.39,-1.89 0.62,-1.85 0.83,-1.74 1.05,-1.64 1.23,-1.49 1.41,-1.34 1.55,-1.15 1.69,-0.97 1.78,-0.75 1.87,-0.53 1.87,-0.53 L 1.87,-0.53 Z"></path></g><g transform="translate(522 547.2614933436737) rotate(0 4 22)" stroke="none"><path fill="#1e1e1e" d="M 0.87,-1.75 Q 0.87,-1.75 2.05,-1.24 3.23,-0.72 4.78,0.11 6.34,0.96 6.99,2.63 7.63,4.31 8.01,6.43 8.39,8.55 8.51,11.00 8.62,13.45 8.63,15.62 8.63,17.79 8.63,19.86 8.62,21.93 8.67,23.67 8.72,25.41 9.05,26.85 9.37,28.30 9.73,30.36 10.09,32.42 10.24,33.75 10.40,35.09 10.51,36.57 10.61,38.04 10.69,41.02 10.77,43.99 10.69,44.44 10.62,44.88 10.41,45.28 10.20,45.67 9.88,45.98 9.55,46.29 9.14,46.48 8.74,46.67 8.29,46.71 7.85,46.76 7.41,46.67 6.97,46.57 6.58,46.34 6.20,46.11 5.91,45.77 5.62,45.42 5.45,45.01 5.29,44.59 5.26,44.14 5.24,43.70 5.36,43.26 5.48,42.83 5.73,42.46 5.98,42.09 6.34,41.82 6.70,41.55 7.12,41.40 7.55,41.26 7.99,41.26 8.44,41.26 8.87,41.40 9.29,41.55 9.65,41.82 10.01,42.09 10.26,42.46 10.51,42.83 10.63,43.26 10.75,43.70 10.73,44.14 10.70,44.59 10.54,45.01 10.37,45.42 10.08,45.77 9.79,46.11 9.41,46.34 9.02,46.57 8.58,46.67 8.14,46.76 7.70,46.71 7.25,46.67 6.85,46.48 6.44,46.29 6.11,45.98 5.79,45.67 5.58,45.28 5.37,44.88 5.30,44.44 5.22,43.99 5.22,44.00 5.22,44.00 5.30,41.03 5.37,38.06 5.47,36.61 5.56,35.17 5.65,33.91 5.75,32.65 5.75,30.81 5.75,28.96 5.49,27.21 5.22,25.45 5.24,23.72 5.26,21.99 5.18,19.96 5.11,17.93 4.94,15.86 4.78,13.78 4.49,11.66 4.21,9.53 3.65,7.66 3.09,5.79 2.23,4.40 1.36,3.02 0.24,2.39 -0.87,1.75 -1.07,1.62 -1.27,1.49 -1.43,1.32 -1.59,1.14 -1.71,0.94 -1.82,0.73 -1.88,0.50 -1.94,0.27 -1.95,0.03 -1.95,-0.19 -1.90,-0.42 -1.85,-0.66 -1.74,-0.87 -1.63,-1.08 -1.48,-1.26 -1.33,-1.44 -1.14,-1.58 -0.94,-1.72 -0.72,-1.81 -0.50,-1.89 -0.27,-1.93 -0.03,-1.96 0.19,-1.94 0.43,-1.91 0.65,-1.83 0.87,-1.75 0.87,-1.75 L 0.87,-1.75 Z"></path></g><g transform="translate(503 574.2614933436737) rotate(0 17 -2.5)" stroke="none"><path fill="#1e1e1e" d="M -0.39,-2.38 Q -0.39,-2.38 1.33,-2.62 3.06,-2.86 4.45,-3.02 5.84,-3.18 7.67,-3.35 9.51,-3.53 10.67,-3.99 11.83,-4.45 13.00,-4.98 14.17,-5.50 15.63,-6.03 17.09,-6.56 18.45,-6.87 19.81,-7.17 21.31,-7.28 22.81,-7.40 24.68,-7.54 26.55,-7.67 27.84,-7.76 29.12,-7.84 31.56,-7.90 33.99,-7.96 34.47,-7.88 34.94,-7.80 35.36,-7.58 35.79,-7.36 36.12,-7.01 36.45,-6.66 36.65,-6.22 36.85,-5.79 36.90,-5.31 36.96,-4.84 36.85,-4.37 36.75,-3.90 36.50,-3.49 36.25,-3.08 35.89,-2.77 35.52,-2.46 35.08,-2.28 34.63,-2.10 34.15,-2.07 33.68,-2.05 33.21,-2.18 32.75,-2.30 32.35,-2.57 31.96,-2.84 31.67,-3.22 31.38,-3.61 31.22,-4.06 31.07,-4.51 31.07,-4.99 31.07,-5.47 31.22,-5.93 31.38,-6.38 31.67,-6.76 31.96,-7.15 32.35,-7.42 32.75,-7.69 33.21,-7.81 33.67,-7.94 34.15,-7.92 34.63,-7.89 35.08,-7.71 35.52,-7.54 35.89,-7.22 36.25,-6.91 36.50,-6.50 36.75,-6.09 36.85,-5.62 36.95,-5.16 36.90,-4.68 36.85,-4.20 36.65,-3.77 36.45,-3.33 36.12,-2.98 35.79,-2.64 35.37,-2.41 34.94,-2.19 34.47,-2.11 34.00,-2.03 34.00,-2.03 34.00,-2.03 31.57,-2.09 29.15,-2.14 27.90,-2.20 26.65,-2.27 24.91,-2.29 23.16,-2.31 20.98,-2.11 18.81,-1.90 17.49,-1.40 16.17,-0.91 14.88,-0.36 13.59,0.18 11.65,0.89 9.72,1.59 8.00,1.57 6.28,1.54 5.05,1.62 3.83,1.71 2.11,2.04 0.39,2.38 0.10,2.39 -0.18,2.40 -0.47,2.35 -0.75,2.29 -1.01,2.17 -1.28,2.04 -1.50,1.86 -1.73,1.68 -1.91,1.44 -2.08,1.21 -2.20,0.94 -2.31,0.68 -2.36,0.39 -2.41,0.10 -2.39,-0.18 -2.36,-0.47 -2.27,-0.75 -2.18,-1.02 -2.03,-1.27 -1.87,-1.52 -1.66,-1.72 -1.45,-1.92 -1.20,-2.07 -0.95,-2.21 -0.67,-2.30 -0.39,-2.38 -0.39,-2.38 L -0.39,-2.38 Z"></path></g><g transform="translate(20 568.2614933436737) rotate(0 0.5 13)" stroke="none"><path fill="#1e1e1e" d="M 1.45,1.93 Q 1.45,1.93 0.31,2.80 -0.83,3.66 -1.72,4.69 -2.62,5.73 -3.61,7.19 -4.61,8.66 -4.91,9.74 -5.21,10.82 -5.67,12.23 -6.13,13.65 -6.65,14.73 -7.16,15.82 -7.25,17.56 -7.34,19.30 -7.32,20.63 -7.30,21.97 -6.06,21.94 -4.82,21.91 -4.03,22.66 -3.25,23.41 -2.28,22.73 -1.31,22.04 -0.29,20.53 0.72,19.01 1.62,18.07 2.52,17.12 3.52,15.86 4.52,14.59 5.48,12.64 6.45,10.68 7.00,9.33 7.56,7.97 7.64,6.78 7.73,5.59 7.73,4.26 7.74,2.94 6.62,3.18 5.51,3.43 3.83,3.42 2.15,3.41 1.51,3.64 0.87,3.88 0.50,4.29 0.12,4.70 -0.36,4.97 -0.84,5.24 -1.39,5.34 -1.94,5.43 -2.49,5.35 -3.04,5.27 -3.54,5.02 -4.03,4.77 -4.42,4.37 -4.81,3.97 -5.05,3.47 -5.29,2.97 -5.36,2.42 -5.43,1.87 -5.32,1.32 -5.21,0.77 -4.93,0.29 -4.65,-0.18 -4.24,-0.55 -3.82,-0.91 -3.30,-1.13 -2.79,-1.34 -2.23,-1.38 -1.68,-1.42 -1.14,-1.28 -0.60,-1.14 -0.14,-0.84 0.32,-0.53 0.66,-0.09 1.01,0.33 1.19,0.86 1.38,1.38 1.39,1.94 1.40,2.50 1.23,3.03 1.06,3.56 0.73,4.00 0.40,4.45 -0.04,4.77 -0.50,5.09 -1.03,5.25 -1.57,5.41 -2.12,5.39 -2.68,5.37 -3.20,5.17 -3.72,4.97 -4.15,4.62 -4.58,4.26 -4.87,3.79 -5.17,3.32 -5.30,2.78 -5.43,2.24 -5.38,1.68 -5.32,1.13 -5.10,0.62 -4.87,0.11 -4.87,0.11 -4.87,0.11 -1.35,-1.64 2.17,-3.40 3.51,-3.39 4.85,-3.37 6.10,-3.27 7.34,-3.18 9.14,-2.57 10.93,-1.97 12.08,-0.99 13.23,-0.00 13.75,1.88 14.27,3.78 14.22,4.87 14.17,5.97 13.98,7.37 13.79,8.77 13.13,10.49 12.46,12.21 11.56,13.71 10.66,15.21 10.25,16.56 9.84,17.91 8.48,19.65 7.13,21.39 6.04,22.66 4.95,23.92 4.32,24.96 3.69,26.00 2.61,27.11 1.53,28.21 -0.69,28.65 -2.93,29.08 -4.36,28.81 -5.80,28.54 -6.63,27.82 -7.45,27.10 -8.72,26.61 -9.99,26.12 -10.86,25.36 -11.72,24.61 -12.18,23.37 -12.65,22.13 -12.52,20.54 -12.39,18.95 -12.26,17.50 -12.13,16.06 -11.29,14.12 -10.46,12.18 -9.98,10.77 -9.49,9.37 -8.92,7.88 -8.35,6.39 -7.29,4.51 -6.22,2.63 -4.99,1.20 -3.76,-0.21 -2.61,-1.07 -1.45,-1.93 -1.20,-2.08 -0.94,-2.23 -0.66,-2.31 -0.38,-2.39 -0.09,-2.40 0.19,-2.41 0.48,-2.35 0.76,-2.29 1.03,-2.17 1.29,-2.04 1.52,-1.86 1.75,-1.67 1.92,-1.44 2.10,-1.21 2.21,-0.94 2.32,-0.67 2.37,-0.38 2.42,-0.09 2.39,0.19 2.37,0.48 2.28,0.76 2.18,1.04 2.03,1.28 1.87,1.53 1.66,1.73 1.45,1.93 1.45,1.93 L 1.45,1.93 Z"></path></g><g transform="translate(151 303.2614933436737) rotate(0 1 15.5)" stroke="none"><path fill="#1e1e1e" d="M 2.26,-0.22 Q 2.26,-0.22 2.42,2.66 2.58,5.54 2.61,8.26 2.65,10.98 2.63,13.57 2.61,16.16 2.95,17.68 3.28,19.21 3.50,20.55 3.73,21.90 3.97,23.73 4.21,25.56 4.34,28.27 4.48,30.98 4.41,31.38 4.35,31.78 4.16,32.13 3.98,32.49 3.69,32.76 3.40,33.04 3.03,33.21 2.67,33.38 2.27,33.43 1.87,33.47 1.48,33.39 1.09,33.30 0.74,33.10 0.40,32.89 0.14,32.59 -0.11,32.28 -0.26,31.91 -0.42,31.54 -0.44,31.14 -0.46,30.74 -0.36,30.35 -0.25,29.96 -0.03,29.63 0.19,29.30 0.51,29.05 0.82,28.81 1.20,28.68 1.58,28.55 1.98,28.55 2.39,28.55 2.77,28.67 3.15,28.80 3.47,29.04 3.79,29.28 4.02,29.61 4.24,29.94 4.35,30.33 4.46,30.72 4.44,31.12 4.42,31.52 4.27,31.89 4.13,32.26 3.87,32.57 3.61,32.88 3.27,33.09 2.92,33.30 2.53,33.38 2.14,33.47 1.74,33.43 1.34,33.39 0.98,33.22 0.61,33.05 0.32,32.78 0.03,32.50 -0.15,32.15 -0.34,31.80 -0.41,31.40 -0.48,31.01 -0.48,31.01 -0.48,31.01 -0.38,28.34 -0.28,25.68 -0.20,23.99 -0.12,22.30 -0.16,21.08 -0.20,19.86 -0.48,18.05 -0.76,16.24 -0.89,13.69 -1.01,11.15 -1.22,8.55 -1.43,5.95 -1.85,3.08 -2.26,0.22 -2.25,-0.04 -2.25,-0.32 -2.18,-0.58 -2.11,-0.85 -1.97,-1.09 -1.84,-1.33 -1.65,-1.53 -1.47,-1.73 -1.24,-1.88 -1.01,-2.03 -0.75,-2.12 -0.49,-2.22 -0.22,-2.24 0.04,-2.27 0.31,-2.23 0.59,-2.19 0.84,-2.09 1.10,-1.99 1.32,-1.83 1.54,-1.67 1.72,-1.46 1.90,-1.25 2.02,-1.00 2.14,-0.76 2.20,-0.49 2.26,-0.22 2.26,-0.22 L 2.26,-0.22 Z"></path></g><g transform="translate(148 299.2614933436737) rotate(0 11.5 18.5)" stroke="none"><path fill="#1e1e1e" d="M 0,-2.63 Q 0,-2.63 1.17,-2.64 2.35,-2.66 3.57,-2.33 4.79,-2.00 6.05,-1.95 7.32,-1.90 8.42,-1.47 9.52,-1.04 11.18,-0.26 12.84,0.50 14.59,1.14 16.35,1.78 17.97,3.06 19.60,4.34 19.88,5.80 20.16,7.25 18.97,9.46 17.78,11.67 16.69,13.30 15.60,14.92 14.92,16.14 14.24,17.36 13.60,18.34 12.96,19.31 11.90,20.24 10.85,21.17 9.38,22.20 7.91,23.24 6.45,23.55 5.00,23.86 4.49,23.90 3.99,23.95 3.63,23.94 3.27,23.92 2.92,23.82 2.58,23.72 2.26,23.55 1.95,23.37 1.69,23.12 1.43,22.87 1.24,22.56 1.04,22.26 0.93,21.92 0.81,21.58 0.78,21.22 0.75,20.86 0.81,20.50 0.86,20.14 1.00,19.81 1.14,19.48 1.36,19.19 1.58,18.90 1.86,18.67 2.13,18.44 2.46,18.29 2.78,18.13 3.14,18.06 3.49,17.99 4.78,18.48 6.07,18.97 8.09,19.77 10.10,20.57 11.59,21.05 13.08,21.52 14.53,22.00 15.98,22.49 17.30,23.30 18.61,24.12 20.01,24.52 21.42,24.92 22.85,25.44 24.27,25.96 24.89,27.87 25.51,29.79 24.82,31.16 24.13,32.53 23.15,33.13 22.17,33.73 20.21,34.79 18.26,35.84 16.62,36.93 14.98,38.02 13.86,38.55 12.74,39.07 11.48,39.86 10.22,40.65 9.74,40.94 9.26,41.22 8.71,41.34 8.16,41.46 7.60,41.39 7.04,41.33 6.54,41.09 6.03,40.85 5.63,40.46 5.22,40.07 4.96,39.58 4.70,39.08 4.62,38.52 4.53,37.97 4.62,37.42 4.72,36.87 4.98,36.37 5.25,35.88 5.66,35.50 6.07,35.11 6.58,34.88 7.09,34.65 7.65,34.59 8.21,34.54 8.75,34.66 9.30,34.78 9.78,35.08 10.26,35.37 10.62,35.80 10.98,36.23 11.18,36.75 11.38,37.27 11.41,37.83 11.44,38.39 11.28,38.93 11.13,39.47 10.81,39.93 10.49,40.40 10.04,40.73 9.60,41.07 9.06,41.24 8.53,41.42 7.97,41.41 7.41,41.41 6.88,41.23 6.35,41.05 5.91,40.70 5.46,40.36 5.15,39.89 4.84,39.43 4.69,38.89 4.55,38.34 4.58,37.78 4.62,37.23 4.83,36.71 5.04,36.19 5.40,35.76 5.77,35.34 5.77,35.34 5.77,35.34 8.46,33.92 11.16,32.51 12.55,31.83 13.95,31.15 15.80,29.94 17.65,28.73 18.75,28.60 19.86,28.47 20.35,29.84 20.85,31.21 19.33,30.55 17.82,29.89 16.36,29.29 14.90,28.69 13.59,28.30 12.29,27.91 10.74,27.35 9.19,26.80 7.68,25.72 6.18,24.64 5.08,24.29 3.99,23.95 3.63,23.94 3.27,23.92 2.92,23.82 2.58,23.72 2.26,23.55 1.95,23.37 1.69,23.12 1.43,22.87 1.24,22.56 1.04,22.26 0.93,21.92 0.81,21.58 0.78,21.22 0.75,20.86 0.81,20.50 0.86,20.14 1.00,19.81 1.14,19.48 1.36,19.19 1.58,18.90 1.85,18.67 2.13,18.44 2.46,18.29 2.78,18.13 3.14,18.06 3.49,17.99 4.61,18.02 5.73,18.05 6.65,17.50 7.57,16.94 8.69,15.93 9.80,14.91 10.50,13.62 11.21,12.32 12.02,10.74 12.83,9.15 14.03,8.40 15.24,7.65 13.97,7.05 12.70,6.45 10.58,5.57 8.46,4.68 6.87,4.14 5.28,3.59 3.76,3.12 2.24,2.66 1.12,2.64 0,2.63 -0.31,2.59 -0.63,2.55 -0.92,2.44 -1.22,2.33 -1.48,2.15 -1.74,1.97 -1.95,1.73 -2.16,1.49 -2.31,1.21 -2.46,0.93 -2.53,0.62 -2.61,0.31 -2.61,-0.00 -2.61,-0.31 -2.53,-0.62 -2.46,-0.93 -2.31,-1.21 -2.16,-1.49 -1.95,-1.73 -1.74,-1.97 -1.48,-2.15 -1.22,-2.33 -0.92,-2.44 -0.63,-2.55 -0.31,-2.59 0.00,-2.63 0.00,-2.63 L 0,-2.63 Z"></path></g><g stroke-linecap="round"><g transform="translate(190 335.2614933436737) rotate(0 40.7994364079088 -53.205153834447266)"><path d="M-1.03 0.77 C12.72 -16.96, 68.79 -89.07, 82.63 -107.18 M0.63 0.13 C14.18 -17.34, 67.53 -87.88, 81.49 -105.74" stroke="#2f9e44" stroke-width="2" fill="none"></path></g><g transform="translate(190 335.2614933436737) rotate(0 40.7994364079088 -53.205153834447266)"><path d="M73.97 -81.89 C77.73 -89.81, 78.47 -98.2, 81.49 -105.74 M73.97 -81.89 C75.76 -86.99, 77.4 -93.35, 81.49 -105.74" stroke="#2f9e44" stroke-width="2" fill="none"></path></g><g transform="translate(190 335.2614933436737) rotate(0 40.7994364079088 -53.205153834447266)"><path d="M60.4 -92.31 C68.28 -96.89, 73.21 -102.07, 81.49 -105.74 M60.4 -92.31 C65.33 -95.07, 70.05 -99.07, 81.49 -105.74" stroke="#2f9e44" stroke-width="2" fill="none"></path></g></g><mask></mask><g transform="translate(61 397.2614933436737) rotate(0 9.5 16.5)" stroke="none"><path fill="#e03131" d="M 2.20,0 Q 2.20,0 2.08,2.58 1.97,5.17 1.88,7.42 1.79,9.67 2.07,11.34 2.34,13.02 3.05,15.71 3.75,18.41 3.85,20.01 3.96,21.61 4.02,23.16 4.08,24.71 4.15,25.94 4.21,27.17 4.25,28.56 4.28,29.94 4.35,30.82 4.41,31.69 4.37,31.98 4.34,32.27 4.24,32.54 4.14,32.82 3.97,33.06 3.81,33.30 3.59,33.49 3.37,33.69 3.11,33.82 2.86,33.96 2.57,34.03 2.29,34.10 2.00,34.10 1.71,34.10 1.43,34.03 1.14,33.96 0.89,33.83 0.63,33.70 0.41,33.50 0.19,33.31 0.02,33.07 -0.13,32.83 -0.24,32.56 -0.34,32.29 -0.38,32.00 -0.41,31.71 -0.14,29.39 0.12,27.07 0.55,25.66 0.98,24.26 1.47,22.34 1.97,20.42 2.50,19.47 3.03,18.52 3.53,17.42 4.03,16.31 5.03,15.06 6.04,13.81 6.97,13.26 7.90,12.71 9.42,12.36 10.95,12.01 12.07,11.94 13.20,11.86 15.31,12.44 17.43,13.03 18.41,14.30 19.40,15.57 20.27,17.38 21.15,19.19 21.61,20.93 22.07,22.67 22.16,23.90 22.26,25.14 21.84,27.30 21.42,29.46 20.79,30.36 20.15,31.26 19.08,32.42 18.02,33.58 17.02,34.20 16.03,34.82 14.89,35.43 13.76,36.03 12.34,36.22 10.93,36.41 9.85,36.44 8.77,36.48 7.25,36.49 5.74,36.51 3.49,35.79 1.23,35.06 0.79,34.70 0.35,34.33 0.05,33.85 -0.25,33.37 -0.38,32.81 -0.52,32.26 -0.47,31.69 -0.42,31.12 -0.19,30.59 0.03,30.07 0.42,29.65 0.80,29.23 1.30,28.95 1.80,28.67 2.36,28.57 2.92,28.46 3.49,28.55 4.06,28.63 4.57,28.88 5.08,29.14 5.48,29.55 5.88,29.96 6.13,30.47 6.38,30.98 6.45,31.55 6.52,32.12 6.41,32.68 6.30,33.24 6.02,33.73 5.73,34.23 5.30,34.61 4.88,34.98 4.35,35.21 3.82,35.43 3.25,35.47 2.68,35.51 2.13,35.37 1.58,35.23 1.10,34.92 0.62,34.61 0.26,34.16 -0.08,33.71 -0.28,33.17 -0.47,32.63 -0.48,32.06 -0.49,31.49 -0.32,30.95 -0.15,30.40 0.18,29.94 0.52,29.48 0.98,29.15 1.45,28.82 2.00,28.66 2.54,28.49 3.12,28.51 3.69,28.53 4.22,28.73 4.76,28.93 4.76,28.93 4.76,28.93 6.24,29.21 7.72,29.49 9.13,29.49 10.53,29.50 11.91,29.19 13.29,28.89 14.50,27.80 15.72,26.72 15.70,25.57 15.69,24.43 15.57,23.22 15.45,22.00 14.83,20.09 14.21,18.17 12.87,18.15 11.53,18.12 10.45,18.11 9.36,18.11 8.95,19.32 8.53,20.53 7.74,21.44 6.95,22.36 6.38,24.04 5.80,25.72 5.41,27.01 5.02,28.30 4.71,30.00 4.41,31.69 4.37,31.98 4.34,32.27 4.24,32.54 4.14,32.82 3.97,33.06 3.81,33.30 3.59,33.49 3.37,33.69 3.11,33.82 2.86,33.96 2.58,34.03 2.29,34.10 2.00,34.10 1.71,34.10 1.43,34.03 1.14,33.97 0.89,33.83 0.63,33.70 0.41,33.50 0.19,33.31 0.02,33.07 -0.13,32.83 -0.24,32.56 -0.34,32.29 -0.38,32.00 -0.41,31.71 -0.36,30.84 -0.30,29.96 -0.28,28.59 -0.25,27.22 -0.21,26.01 -0.17,24.79 -0.18,23.30 -0.18,21.81 -0.22,20.33 -0.26,18.85 -0.35,17.48 -0.45,16.12 -0.82,14.86 -1.19,13.60 -1.49,11.63 -1.79,9.67 -1.88,7.42 -1.97,5.17 -2.08,2.58 -2.20,0 -2.17,-0.26 -2.14,-0.52 -2.04,-0.77 -1.95,-1.02 -1.80,-1.24 -1.65,-1.46 -1.45,-1.63 -1.25,-1.81 -1.01,-1.93 -0.78,-2.06 -0.52,-2.12 -0.26,-2.18 0.00,-2.18 0.26,-2.18 0.52,-2.12 0.78,-2.06 1.01,-1.93 1.25,-1.81 1.45,-1.63 1.65,-1.46 1.80,-1.24 1.95,-1.02 2.04,-0.77 2.14,-0.52 2.17,-0.26 2.20,0.00 2.20,0.00 L 2.20,0 Z"></path></g><g transform="translate(45 394.2614933436737) rotate(0 15.5 -2.5)" stroke="none"><path fill="#e03131" d="M -0.42,-2.52 Q -0.42,-2.52 1.31,-2.74 3.05,-2.96 4.55,-3.32 6.05,-3.68 7.09,-3.92 8.13,-4.17 9.24,-4.30 10.35,-4.43 12.05,-4.78 13.75,-5.12 14.92,-5.73 16.09,-6.34 18.22,-7.03 20.35,-7.71 22.12,-7.83 23.89,-7.95 25.04,-8.01 26.18,-8.07 28.59,-8.12 30.99,-8.16 31.50,-8.08 32.00,-7.99 32.46,-7.75 32.91,-7.51 33.26,-7.14 33.61,-6.77 33.83,-6.31 34.04,-5.84 34.10,-5.33 34.15,-4.82 34.04,-4.32 33.93,-3.82 33.67,-3.39 33.41,-2.95 33.02,-2.62 32.63,-2.28 32.15,-2.10 31.68,-1.91 31.16,-1.88 30.65,-1.85 30.16,-1.99 29.67,-2.12 29.24,-2.41 28.82,-2.70 28.51,-3.11 28.20,-3.51 28.04,-4.00 27.87,-4.48 27.87,-4.99 27.87,-5.51 28.04,-5.99 28.20,-6.48 28.51,-6.88 28.82,-7.29 29.24,-7.58 29.67,-7.87 30.16,-8.00 30.65,-8.14 31.16,-8.11 31.67,-8.08 32.15,-7.89 32.63,-7.71 33.02,-7.37 33.41,-7.04 33.67,-6.60 33.93,-6.17 34.04,-5.67 34.15,-5.17 34.10,-4.66 34.04,-4.15 33.83,-3.68 33.61,-3.22 33.26,-2.85 32.91,-2.48 32.46,-2.24 32.00,-2.00 31.50,-1.91 30.99,-1.83 31.00,-1.83 31.00,-1.83 28.09,-1.89 25.18,-1.94 23.97,-1.97 22.76,-1.99 21.03,-1.89 19.31,-1.78 17.30,-0.88 15.29,0.01 13.01,0.33 10.73,0.65 8.98,0.77 7.22,0.89 5.53,1.35 3.84,1.81 2.13,2.16 0.42,2.52 0.11,2.53 -0.19,2.54 -0.49,2.48 -0.79,2.42 -1.07,2.29 -1.35,2.16 -1.59,1.97 -1.83,1.77 -2.02,1.53 -2.20,1.28 -2.32,1.00 -2.45,0.72 -2.50,0.41 -2.55,0.11 -2.52,-0.19 -2.50,-0.50 -2.40,-0.79 -2.31,-1.08 -2.14,-1.34 -1.98,-1.60 -1.76,-1.82 -1.54,-2.03 -1.27,-2.19 -1.01,-2.34 -0.71,-2.43 -0.41,-2.52 -0.41,-2.52 L -0.42,-2.52 Z"></path></g><g transform="translate(72 381.2614933436737) rotate(0 5.5 6)" stroke="none"><path fill="#e03131" d="M 0.51,-2.59 Q 0.51,-2.59 1.95,-2.28 3.40,-1.97 4.58,-1.50 5.77,-1.03 7.80,-0.59 9.82,-0.14 11.41,0.79 12.99,1.73 13.37,2.79 13.75,3.84 13.45,5.41 13.15,6.98 12.11,8.17 11.07,9.37 8.56,11.85 6.06,14.33 5.63,14.60 5.20,14.87 4.71,14.99 4.22,15.11 3.72,15.06 3.22,15.02 2.75,14.81 2.29,14.61 1.92,14.27 1.55,13.93 1.30,13.49 1.06,13.04 0.97,12.55 0.88,12.05 0.95,11.55 1.02,11.05 1.25,10.60 1.48,10.15 1.84,9.80 2.20,9.45 2.65,9.23 3.11,9.01 3.61,8.94 4.11,8.88 4.60,8.98 5.10,9.08 5.53,9.33 5.97,9.58 6.30,9.96 6.64,10.34 6.83,10.80 7.03,11.27 7.06,11.77 7.10,12.28 6.98,12.76 6.85,13.25 6.57,13.68 6.30,14.10 5.90,14.41 5.51,14.72 5.03,14.89 4.56,15.06 4.05,15.07 3.55,15.08 3.07,14.93 2.58,14.78 2.18,14.48 1.77,14.18 1.48,13.77 1.19,13.36 1.04,12.87 0.90,12.39 0.92,11.88 0.94,11.38 1.12,10.91 1.29,10.44 1.61,10.05 1.93,9.65 1.93,9.65 1.93,9.66 3.64,8.32 5.34,6.98 6.54,6.09 7.75,5.20 6.53,4.80 5.32,4.40 3.83,3.76 2.34,3.12 0.91,2.85 -0.51,2.59 -0.82,2.49 -1.12,2.39 -1.39,2.22 -1.66,2.05 -1.88,1.82 -2.10,1.59 -2.26,1.32 -2.42,1.04 -2.51,0.73 -2.60,0.43 -2.61,0.11 -2.63,-0.20 -2.57,-0.51 -2.50,-0.82 -2.37,-1.11 -2.23,-1.40 -2.03,-1.65 -1.83,-1.89 -1.58,-2.09 -1.32,-2.28 -1.03,-2.40 -0.74,-2.53 -0.43,-2.58 -0.11,-2.63 0.20,-2.61 0.51,-2.58 0.51,-2.59 L 0.51,-2.59 Z"></path></g><g transform="translate(173 263.2614933436737) rotate(0 11 0.5)" stroke="none"><path fill="#2f9e44" d="M 0.36,-2.54 Q 0.36,-2.54 2.35,-2.12 4.35,-1.70 5.45,-1.63 6.56,-1.55 8.27,-1.58 9.98,-1.61 11.79,-1.67 13.60,-1.73 14.87,-1.79 16.14,-1.86 17.47,-1.91 18.81,-1.97 20.40,-1.99 22.00,-2.01 22.48,-1.94 22.96,-1.86 23.39,-1.63 23.82,-1.40 24.16,-1.04 24.49,-0.69 24.70,-0.25 24.90,0.19 24.96,0.67 25.01,1.16 24.90,1.64 24.80,2.11 24.55,2.53 24.30,2.95 23.92,3.27 23.55,3.58 23.10,3.76 22.64,3.94 22.16,3.97 21.67,4.00 21.20,3.87 20.73,3.74 20.32,3.46 19.92,3.19 19.62,2.80 19.33,2.41 19.17,1.95 19.02,1.48 19.02,0.99 19.02,0.51 19.17,0.04 19.33,-0.41 19.62,-0.80 19.92,-1.19 20.32,-1.46 20.73,-1.74 21.20,-1.87 21.67,-2.00 22.16,-1.97 22.64,-1.94 23.10,-1.76 23.55,-1.58 23.92,-1.27 24.30,-0.95 24.55,-0.53 24.80,-0.11 24.91,0.36 25.01,0.83 24.96,1.32 24.90,1.80 24.70,2.25 24.49,2.69 24.16,3.04 23.82,3.40 23.39,3.63 22.96,3.86 22.48,3.94 21.99,4.01 21.99,4.01 21.99,4.01 19.60,3.97 17.20,3.92 16.08,3.86 14.96,3.79 13.31,3.72 11.65,3.64 9.98,3.52 8.31,3.40 7.18,3.30 6.05,3.19 4.87,3.02 3.69,2.85 1.66,2.69 -0.36,2.54 -0.66,2.46 -0.96,2.38 -1.23,2.23 -1.50,2.08 -1.73,1.87 -1.95,1.66 -2.13,1.40 -2.30,1.14 -2.40,0.85 -2.50,0.56 -2.53,0.25 -2.56,-0.05 -2.52,-0.36 -2.48,-0.66 -2.36,-0.95 -2.25,-1.24 -2.06,-1.49 -1.88,-1.74 -1.65,-1.94 -1.41,-2.14 -1.13,-2.28 -0.86,-2.42 -0.55,-2.48 -0.25,-2.55 0.05,-2.55 0.36,-2.54 0.36,-2.54 L 0.36,-2.54 Z"></path></g><g transform="translate(177 273.2614933436737) rotate(0 7 6.5)" stroke="none"><path fill="#2f9e44" d="M -0.64,-2.59 Q -0.64,-2.59 0.49,-2.89 1.64,-3.19 3.24,-3.47 4.84,-3.75 6.30,-3.84 7.77,-3.93 8.96,-3.99 10.16,-4.04 11.62,-3.69 13.08,-3.35 14.13,-2.38 15.17,-1.42 15.29,0.25 15.41,1.92 14.40,3.47 13.39,5.02 11.91,6.47 10.43,7.93 9.32,9.43 8.21,10.94 6.64,12.21 5.07,13.49 3.82,13.73 2.58,13.98 1.60,14.38 0.62,14.77 0.23,14.75 -0.15,14.73 -0.53,14.62 -0.90,14.51 -1.23,14.31 -1.57,14.11 -1.85,13.84 -2.13,13.56 -2.33,13.23 -2.54,12.90 -2.66,12.53 -2.78,12.16 -2.81,11.77 -2.83,11.38 -2.77,11.00 -2.70,10.61 -2.54,10.26 -2.39,9.90 -2.15,9.59 -1.91,9.28 -1.61,9.04 -1.31,8.79 -0.95,8.63 -0.60,8.46 -0.21,8.39 0.16,8.32 1.41,8.77 2.67,9.22 4.21,9.44 5.76,9.67 7.00,9.67 8.24,9.67 9.56,10.06 10.89,10.44 12.51,10.55 14.14,10.66 14.67,10.77 15.20,10.88 15.66,11.15 16.13,11.42 16.48,11.83 16.84,12.24 17.04,12.74 17.25,13.24 17.29,13.78 17.32,14.32 17.18,14.84 17.04,15.36 16.75,15.81 16.45,16.26 16.02,16.60 15.60,16.93 15.08,17.11 14.57,17.29 14.03,17.29 13.49,17.30 12.98,17.13 12.46,16.97 12.03,16.64 11.60,16.32 11.29,15.88 10.98,15.43 10.83,14.91 10.68,14.40 10.70,13.85 10.72,13.31 10.92,12.81 11.11,12.31 11.46,11.89 11.80,11.47 12.26,11.19 12.72,10.90 13.25,10.78 13.78,10.66 14.31,10.71 14.85,10.76 15.35,10.99 15.84,11.21 16.24,11.57 16.63,11.94 16.89,12.42 17.15,12.89 17.24,13.42 17.34,13.96 17.26,14.49 17.17,15.03 16.93,15.51 16.68,15.99 16.29,16.36 15.90,16.74 15.41,16.97 14.93,17.21 14.39,17.27 13.85,17.33 13.85,17.33 13.85,17.33 10.40,16.81 6.95,16.28 5.28,16.23 3.60,16.19 2.11,15.48 0.62,14.77 0.23,14.75 -0.15,14.73 -0.53,14.62 -0.90,14.51 -1.23,14.31 -1.57,14.11 -1.85,13.84 -2.13,13.56 -2.33,13.23 -2.54,12.90 -2.66,12.53 -2.78,12.16 -2.81,11.77 -2.83,11.38 -2.77,11.00 -2.70,10.61 -2.54,10.26 -2.39,9.90 -2.15,9.59 -1.91,9.28 -1.61,9.04 -1.31,8.79 -0.95,8.63 -0.60,8.46 -0.21,8.39 0.16,8.32 0.10,8.19 0.05,8.06 1.29,8.03 2.54,7.99 3.49,6.93 4.43,5.87 5.24,4.72 6.05,3.57 6.88,2.71 7.71,1.85 8.94,1.95 10.18,2.05 9.01,2.00 7.83,1.96 6.58,1.93 5.32,1.90 4.13,1.97 2.95,2.04 1.80,2.31 0.64,2.59 0.32,2.63 0.00,2.67 -0.31,2.63 -0.63,2.59 -0.93,2.48 -1.23,2.37 -1.49,2.18 -1.76,2.00 -1.97,1.76 -2.19,1.52 -2.34,1.24 -2.49,0.95 -2.57,0.64 -2.65,0.33 -2.65,0.00 -2.65,-0.31 -2.57,-0.62 -2.50,-0.93 -2.35,-1.22 -2.20,-1.51 -1.99,-1.75 -1.77,-1.99 -1.51,-2.17 -1.24,-2.36 -0.94,-2.47 -0.64,-2.59 -0.64,-2.59 L -0.64,-2.59 Z"></path></g><g transform="translate(190 236.2614933436737) rotate(0 -1.5 11)" stroke="none"><path fill="#2f9e44" d="M 2.44,0.81 Q 2.44,0.81 1.79,2.51 1.13,4.21 0.95,5.36 0.77,6.51 0.37,8.69 -0.02,10.87 -0.09,12.09 -0.17,13.32 -0.11,14.80 -0.05,16.27 -0.01,17.55 0.03,18.83 0.05,20.41 0.07,22.00 -0.00,22.49 -0.08,22.98 -0.31,23.42 -0.55,23.86 -0.91,24.20 -1.27,24.54 -1.72,24.75 -2.17,24.96 -2.67,25.01 -3.16,25.07 -3.65,24.96 -4.13,24.85 -4.56,24.59 -4.99,24.34 -5.31,23.96 -5.63,23.58 -5.81,23.12 -6.00,22.65 -6.02,22.16 -6.05,21.66 -5.92,21.18 -5.79,20.70 -5.51,20.29 -5.23,19.88 -4.83,19.58 -4.43,19.28 -3.96,19.12 -3.49,18.96 -2.99,18.96 -2.50,18.96 -2.02,19.12 -1.55,19.28 -1.16,19.58 -0.76,19.88 -0.48,20.29 -0.20,20.71 -0.07,21.18 0.05,21.66 0.02,22.16 0.00,22.66 -0.18,23.12 -0.36,23.58 -0.68,23.96 -1.01,24.34 -1.43,24.60 -1.86,24.85 -2.34,24.96 -2.83,25.07 -3.32,25.01 -3.82,24.96 -4.27,24.75 -4.72,24.54 -5.08,24.20 -5.44,23.85 -5.68,23.41 -5.91,22.98 -5.99,22.48 -6.07,21.99 -6.07,21.99 -6.07,21.99 -6.05,20.41 -6.02,18.83 -5.94,16.99 -5.86,15.16 -5.75,13.98 -5.64,12.80 -5.32,11.16 -4.99,9.51 -4.52,7.56 -4.04,5.61 -3.74,4.15 -3.43,2.68 -2.94,0.93 -2.44,-0.81 -2.31,-1.09 -2.17,-1.37 -1.98,-1.61 -1.78,-1.85 -1.53,-2.04 -1.28,-2.22 -1.00,-2.35 -0.71,-2.47 -0.41,-2.52 -0.10,-2.57 0.20,-2.54 0.51,-2.52 0.80,-2.42 1.10,-2.32 1.36,-2.16 1.62,-1.99 1.84,-1.77 2.05,-1.54 2.21,-1.27 2.36,-1.01 2.45,-0.71 2.54,-0.41 2.55,-0.10 2.56,0.20 2.50,0.51 2.44,0.81 2.44,0.81 L 2.44,0.81 Z"></path></g><g transform="translate(204 249.2614933436737) rotate(0 6 15.5)" stroke="none"><path fill="#2f9e44" d="M 2.47,-0.41 Q 2.47,-0.41 2.70,1.32 2.93,3.05 2.99,5.06 3.04,7.07 3.13,8.47 3.21,9.88 3.35,11.72 3.49,13.57 3.59,15.14 3.68,16.71 3.73,18.51 3.78,20.31 3.83,22.11 3.87,23.90 3.93,25.05 3.99,26.19 4.01,26.71 4.04,27.23 3.99,27.59 3.95,27.96 3.82,28.30 3.69,28.64 3.48,28.94 3.27,29.25 3.00,29.49 2.72,29.73 2.40,29.90 2.07,30.07 1.72,30.16 1.36,30.25 0.99,30.25 0.63,30.25 0.27,30.16 -0.07,30.07 -0.40,29.90 -0.72,29.73 -1.00,29.49 -1.27,29.25 -1.48,28.94 -1.69,28.64 -1.82,28.30 -1.95,27.96 -1.99,27.59 -2.04,27.23 -1.41,25.92 -0.78,24.60 -0.14,23.30 0.49,22.00 0.68,20.74 0.87,19.48 1.34,18.40 1.82,17.32 2.41,16.08 3.01,14.84 3.96,14.14 4.92,13.45 7.01,12.76 9.10,12.07 11.20,12.82 13.31,13.56 13.98,14.65 14.64,15.73 14.83,16.97 15.02,18.21 15.13,19.61 15.24,21.02 15.27,22.53 15.29,24.03 15.24,26.01 15.19,27.99 14.76,29.43 14.34,30.87 13.51,31.88 12.68,32.89 11.70,33.37 10.72,33.85 9.32,34.05 7.92,34.26 5.46,34.31 3.00,34.36 2.46,34.27 1.93,34.18 1.45,33.93 0.97,33.68 0.59,33.28 0.22,32.89 -0.00,32.39 -0.23,31.90 -0.29,31.36 -0.35,30.82 -0.24,30.29 -0.12,29.76 0.15,29.29 0.43,28.82 0.84,28.47 1.26,28.12 1.76,27.91 2.27,27.71 2.81,27.68 3.35,27.65 3.88,27.80 4.40,27.94 4.85,28.25 5.30,28.55 5.63,28.98 5.96,29.41 6.14,29.93 6.31,30.45 6.31,30.99 6.31,31.53 6.14,32.05 5.97,32.56 5.64,33.00 5.31,33.43 4.86,33.74 4.41,34.04 3.89,34.19 3.36,34.34 2.82,34.31 2.28,34.28 1.77,34.08 1.27,33.88 0.85,33.53 0.44,33.18 0.15,32.71 -0.12,32.24 -0.23,31.71 -0.35,31.18 -0.29,30.64 -0.24,30.10 -0.01,29.61 0.21,29.11 0.58,28.72 0.96,28.32 1.44,28.07 1.92,27.81 2.45,27.72 2.99,27.63 2.99,27.63 2.99,27.63 4.82,27.64 6.65,27.64 7.73,27.77 8.80,27.90 8.74,25.99 8.69,24.08 8.69,22.67 8.69,21.27 8.98,19.86 9.28,18.45 8.08,19.44 6.88,20.43 6.51,22.19 6.13,23.94 5.09,25.59 4.04,27.23 3.99,27.59 3.95,27.96 3.82,28.30 3.69,28.64 3.48,28.94 3.27,29.25 3.00,29.49 2.72,29.73 2.40,29.90 2.07,30.07 1.72,30.16 1.36,30.25 1.00,30.25 0.63,30.25 0.27,30.16 -0.07,30.07 -0.40,29.90 -0.72,29.73 -1.00,29.49 -1.27,29.25 -1.48,28.94 -1.69,28.64 -1.82,28.30 -1.95,27.96 -1.99,27.59 -2.04,27.23 -2.01,26.71 -1.99,26.19 -1.93,25.05 -1.87,23.90 -1.83,22.11 -1.78,20.31 -1.73,18.51 -1.69,16.72 -1.60,15.17 -1.52,13.62 -1.44,11.84 -1.36,10.05 -1.39,8.70 -1.41,7.36 -1.59,5.60 -1.78,3.84 -2.12,2.12 -2.47,0.41 -2.48,0.11 -2.49,-0.19 -2.44,-0.48 -2.38,-0.78 -2.25,-1.05 -2.12,-1.33 -1.93,-1.56 -1.74,-1.80 -1.50,-1.98 -1.26,-2.16 -0.98,-2.28 -0.70,-2.40 -0.40,-2.45 -0.11,-2.50 0.19,-2.48 0.49,-2.45 0.77,-2.36 1.06,-2.26 1.32,-2.10 1.57,-1.94 1.78,-1.73 1.99,-1.51 2.15,-1.25 2.30,-0.99 2.38,-0.70 2.47,-0.41 2.47,-0.41 L 2.47,-0.41 Z"></path></g><g transform="translate(200 241.2614933436737) rotate(0 7.5 1.5)" stroke="none"><path fill="#2f9e44" d="M 0.64,-2.58 Q 0.64,-2.58 1.79,-2.31 2.95,-2.03 4.38,-1.96 5.82,-1.89 7.01,-1.92 8.20,-1.95 10.02,-1.61 11.84,-1.27 13.62,-0.68 15.41,-0.08 15.89,0.06 16.37,0.20 16.78,0.50 17.19,0.79 17.48,1.20 17.78,1.61 17.93,2.09 18.08,2.57 18.06,3.07 18.05,3.57 17.88,4.05 17.71,4.52 17.39,4.91 17.08,5.31 16.65,5.58 16.23,5.85 15.74,5.97 15.25,6.10 14.75,6.06 14.25,6.02 13.79,5.82 13.32,5.62 12.95,5.28 12.57,4.95 12.33,4.51 12.08,4.07 11.98,3.58 11.88,3.09 11.95,2.59 12.02,2.09 12.24,1.64 12.46,1.18 12.82,0.83 13.17,0.47 13.63,0.25 14.08,0.02 14.57,-0.04 15.07,-0.11 15.57,-0.01 16.06,0.07 16.50,0.32 16.94,0.57 17.28,0.94 17.61,1.31 17.81,1.78 18.01,2.24 18.05,2.74 18.10,3.24 17.98,3.73 17.86,4.22 17.59,4.64 17.32,5.07 16.92,5.38 16.53,5.70 16.06,5.88 15.59,6.05 15.08,6.06 14.58,6.08 14.58,6.08 14.58,6.08 12.81,5.32 11.03,4.56 9.57,4.24 8.10,3.92 6.80,3.83 5.50,3.74 3.57,3.46 1.64,3.18 0.50,2.88 -0.64,2.58 -0.94,2.47 -1.24,2.35 -1.51,2.17 -1.77,1.99 -1.98,1.74 -2.19,1.50 -2.34,1.22 -2.49,0.93 -2.57,0.62 -2.64,0.31 -2.64,-0.00 -2.64,-0.33 -2.56,-0.64 -2.49,-0.95 -2.34,-1.23 -2.18,-1.52 -1.97,-1.76 -1.76,-2.00 -1.49,-2.18 -1.23,-2.36 -0.93,-2.47 -0.62,-2.59 -0.31,-2.62 0.00,-2.66 0.32,-2.62 0.64,-2.58 0.64,-2.58 L 0.64,-2.58 Z"></path></g><g transform="translate(213 236.2614933436737) rotate(0 4 4)" stroke="none"><path fill="#2f9e44" d="M 0.50,-2.54 Q 0.50,-2.54 1.94,-2.24 3.38,-1.93 4.74,-1.49 6.11,-1.04 7.51,-0.13 8.91,0.78 9.38,1.33 9.85,1.89 10.09,2.11 10.33,2.32 10.52,2.59 10.70,2.86 10.81,3.16 10.93,3.46 10.97,3.78 11.00,4.11 10.97,4.43 10.93,4.75 10.81,5.05 10.69,5.36 10.51,5.62 10.32,5.89 10.08,6.10 9.84,6.32 9.55,6.47 9.26,6.62 8.95,6.69 8.63,6.77 8.31,6.77 7.99,6.77 7.67,6.69 7.36,6.61 7.07,6.46 6.78,6.31 6.24,7.46 5.70,8.61 4.26,8.99 2.81,9.36 1.44,10.52 0.07,11.68 -0.38,11.79 -0.84,11.89 -1.30,11.84 -1.77,11.78 -2.19,11.59 -2.62,11.39 -2.96,11.07 -3.30,10.75 -3.52,10.33 -3.74,9.92 -3.81,9.46 -3.89,9.00 -3.81,8.53 -3.74,8.07 -3.52,7.66 -3.30,7.24 -2.96,6.92 -2.62,6.60 -2.20,6.40 -1.77,6.21 -1.30,6.15 -0.84,6.10 -0.38,6.20 0.07,6.31 0.47,6.55 0.87,6.79 1.17,7.15 1.48,7.50 1.65,7.94 1.82,8.37 1.85,8.84 1.87,9.31 1.75,9.76 1.62,10.21 1.36,10.60 1.10,10.99 0.72,11.27 0.35,11.55 -0.08,11.70 -0.53,11.85 -0.99,11.85 -1.46,11.85 -1.91,11.70 -2.35,11.55 -2.72,11.27 -3.10,10.99 -3.36,10.60 -3.62,10.21 -3.75,9.76 -3.87,9.31 -3.85,8.84 -3.82,8.37 -3.65,7.94 -3.48,7.50 -3.17,7.15 -2.87,6.79 -2.47,6.55 -2.07,6.31 -2.07,6.31 -2.07,6.31 -0.57,5.33 0.91,4.35 2.05,4.09 3.19,3.84 4.14,3.36 5.09,2.88 7.47,2.39 9.85,1.89 10.09,2.11 10.33,2.32 10.52,2.59 10.70,2.86 10.81,3.16 10.93,3.46 10.97,3.78 11.00,4.11 10.97,4.43 10.93,4.75 10.81,5.05 10.69,5.35 10.51,5.62 10.32,5.89 10.08,6.10 9.84,6.32 9.55,6.47 9.26,6.62 8.95,6.69 8.63,6.77 8.31,6.77 7.99,6.77 7.67,6.69 7.36,6.61 7.07,6.46 6.78,6.31 5.58,5.07 4.37,3.83 3.37,3.46 2.36,3.08 0.93,2.81 -0.50,2.54 -0.80,2.44 -1.10,2.34 -1.36,2.18 -1.63,2.01 -1.85,1.79 -2.06,1.56 -2.22,1.29 -2.38,1.02 -2.47,0.72 -2.56,0.42 -2.57,0.11 -2.58,-0.19 -2.52,-0.50 -2.46,-0.81 -2.33,-1.09 -2.19,-1.37 -2.00,-1.62 -1.80,-1.86 -1.55,-2.05 -1.30,-2.24 -1.01,-2.36 -0.73,-2.49 -0.42,-2.54 -0.11,-2.59 0.19,-2.56 0.50,-2.54 0.50,-2.54 L 0.50,-2.54 Z"></path></g><g transform="translate(249 180.2614933436737) rotate(0 3 12.5)" stroke="none"><path fill="#2f9e44" d="M 1.74,-1.39 Q 1.74,-1.39 2.86,0.09 3.98,1.58 4.83,4.26 5.67,6.94 5.96,9.55 6.25,12.17 6.39,14.12 6.53,16.06 6.63,17.76 6.73,19.46 7.32,21.76 7.91,24.05 8.01,24.38 8.11,24.71 8.10,25.05 8.09,25.40 7.97,25.72 7.85,26.05 7.63,26.31 7.42,26.58 7.13,26.77 6.84,26.95 6.50,27.04 6.17,27.12 5.82,27.09 5.48,27.06 5.16,26.93 4.85,26.79 4.59,26.56 4.33,26.33 4.16,26.03 3.99,25.73 3.93,25.39 3.86,25.05 3.91,24.71 3.96,24.37 4.11,24.06 4.26,23.75 4.51,23.51 4.75,23.26 5.06,23.11 5.37,22.96 5.71,22.91 6.05,22.86 6.39,22.93 6.73,22.99 7.03,23.16 7.33,23.33 7.56,23.59 7.79,23.85 7.93,24.16 8.06,24.48 8.09,24.83 8.12,25.17 8.04,25.50 7.95,25.84 7.77,26.13 7.58,26.42 7.31,26.64 7.04,26.85 6.72,26.97 6.40,27.09 6.05,27.10 5.71,27.11 5.38,27.01 5.05,26.90 4.77,26.70 4.49,26.50 4.29,26.22 4.08,25.94 4.08,25.94 4.08,25.94 3.59,22.77 3.09,19.59 3.07,17.96 3.05,16.32 2.91,14.48 2.77,12.64 2.40,10.39 2.03,8.14 1.32,6.15 0.61,4.16 -0.56,2.78 -1.74,1.39 -1.88,1.16 -2.02,0.93 -2.11,0.68 -2.19,0.42 -2.21,0.15 -2.23,-0.11 -2.18,-0.37 -2.13,-0.64 -2.03,-0.88 -1.92,-1.13 -1.75,-1.34 -1.59,-1.56 -1.38,-1.73 -1.17,-1.89 -0.93,-2.01 -0.68,-2.12 -0.42,-2.17 -0.15,-2.22 0.11,-2.21 0.38,-2.20 0.63,-2.12 0.89,-2.04 1.12,-1.90 1.35,-1.77 1.55,-1.58 1.74,-1.39 1.74,-1.39 L 1.74,-1.39 Z"></path></g><g transform="translate(249 180.2614933436737) rotate(0 11.5 13)" stroke="none"><path fill="#2f9e44" d="M 0,-2.65 Q 0,-2.65 1.43,-2.63 2.87,-2.61 4.44,-2.69 6.01,-2.76 7.11,-2.83 8.21,-2.90 9.93,-2.94 11.64,-2.97 12.98,-3.00 14.32,-3.02 15.71,-2.35 17.10,-1.67 17.51,0.82 17.93,3.32 16.98,4.47 16.03,5.63 13.99,6.84 11.95,8.05 10.65,9.09 9.35,10.13 10.44,9.43 11.53,8.73 12.71,9.21 13.89,9.68 14.96,10.17 16.04,10.67 17.37,11.10 18.70,11.53 20.35,12.07 21.99,12.61 23.80,13.68 25.60,14.75 25.93,16.25 26.26,17.75 25.90,19.12 25.54,20.49 24.40,22.01 23.27,23.52 21.63,24.83 19.99,26.15 18.87,26.71 17.76,27.27 16.79,27.80 15.83,28.32 13.02,28.87 10.22,29.42 9.67,29.37 9.11,29.31 8.61,29.08 8.10,28.86 7.69,28.48 7.29,28.10 7.02,27.62 6.76,27.13 6.66,26.58 6.56,26.03 6.65,25.49 6.73,24.94 6.99,24.44 7.24,23.95 7.64,23.56 8.04,23.18 8.54,22.94 9.04,22.70 9.59,22.63 10.14,22.57 10.69,22.68 11.23,22.79 11.71,23.07 12.19,23.35 12.55,23.77 12.91,24.19 13.13,24.71 13.34,25.22 13.37,25.77 13.41,26.33 13.27,26.86 13.13,27.40 12.82,27.86 12.51,28.33 12.07,28.67 11.64,29.01 11.11,29.19 10.59,29.37 10.03,29.38 9.48,29.39 8.95,29.22 8.42,29.04 7.98,28.71 7.53,28.38 7.21,27.93 6.90,27.47 6.74,26.94 6.59,26.40 6.61,25.85 6.64,25.29 6.84,24.78 7.04,24.26 7.39,23.83 7.74,23.40 8.22,23.11 8.69,22.82 9.23,22.70 9.77,22.57 9.77,22.57 9.77,22.57 11.82,22.09 13.86,21.60 15.08,20.98 16.31,20.36 17.19,19.65 18.07,18.94 19.22,19.03 20.38,19.11 18.84,18.58 17.31,18.04 16.24,17.55 15.17,17.06 13.07,16.14 10.97,15.22 9.88,15.16 8.79,15.11 7.11,14.63 5.43,14.16 4.10,12.33 2.76,10.50 4.03,8.01 5.30,5.52 6.35,4.59 7.40,3.65 9.13,2.73 10.85,1.80 12.12,1.21 13.40,0.61 13.68,1.82 13.97,3.02 12.81,3.00 11.64,2.97 9.93,2.94 8.21,2.90 7.11,2.83 6.01,2.76 4.44,2.69 2.87,2.61 1.43,2.63 0,2.65 -0.31,2.61 -0.63,2.57 -0.93,2.46 -1.23,2.34 -1.49,2.16 -1.75,1.98 -1.97,1.74 -2.18,1.50 -2.33,1.22 -2.47,0.94 -2.55,0.62 -2.63,0.31 -2.63,-0.00 -2.63,-0.31 -2.55,-0.63 -2.47,-0.94 -2.33,-1.22 -2.18,-1.50 -1.96,-1.74 -1.75,-1.98 -1.49,-2.16 -1.23,-2.34 -0.93,-2.46 -0.63,-2.57 -0.31,-2.61 0.00,-2.65 0.00,-2.65 L 0,-2.65 Z"></path></g><g transform="translate(269 166.2614933436737) rotate(0 0.5 5.5)" stroke="none"><path fill="#2f9e44" d="M 2.42,-0.60 Q 2.42,-0.60 2.74,0.53 3.05,1.68 3.21,3.22 3.36,4.77 3.45,5.97 3.53,7.18 3.60,9.07 3.68,10.95 3.62,11.38 3.55,11.81 3.36,12.20 3.16,12.59 2.85,12.89 2.54,13.20 2.15,13.39 1.75,13.57 1.32,13.63 0.89,13.68 0.46,13.59 0.04,13.51 -0.33,13.29 -0.70,13.07 -0.99,12.74 -1.28,12.42 -1.44,12.01 -1.61,11.61 -1.64,11.18 -1.67,10.74 -1.56,10.32 -1.45,9.90 -1.21,9.54 -0.97,9.18 -0.63,8.91 -0.29,8.64 0.11,8.49 0.52,8.35 0.96,8.34 1.39,8.34 1.80,8.47 2.22,8.60 2.57,8.86 2.92,9.12 3.17,9.47 3.42,9.83 3.54,10.25 3.66,10.66 3.65,11.10 3.63,11.53 3.47,11.94 3.32,12.35 3.04,12.68 2.77,13.02 2.40,13.25 2.03,13.48 1.60,13.58 1.18,13.68 0.75,13.64 0.31,13.60 -0.07,13.42 -0.47,13.24 -0.79,12.95 -1.11,12.65 -1.32,12.27 -1.53,11.89 -1.61,11.46 -1.68,11.04 -1.68,11.04 -1.68,11.04 -1.68,9.22 -1.68,7.41 -1.70,6.32 -1.73,5.23 -1.81,4.07 -1.90,2.91 -2.16,1.76 -2.42,0.60 -2.46,0.30 -2.50,0.00 -2.46,-0.29 -2.43,-0.59 -2.32,-0.87 -2.21,-1.15 -2.04,-1.40 -1.87,-1.65 -1.65,-1.85 -1.42,-2.05 -1.16,-2.19 -0.89,-2.33 -0.60,-2.40 -0.30,-2.48 -0.00,-2.48 0.29,-2.48 0.58,-2.41 0.87,-2.34 1.14,-2.20 1.41,-2.06 1.64,-1.86 1.86,-1.66 2.03,-1.41 2.21,-1.16 2.31,-0.88 2.42,-0.60 2.42,-0.60 L 2.42,-0.60 Z"></path></g><g transform="translate(261 538.2614933436737) rotate(0 -0.5 -1)" stroke="none"><path fill="#2f9e44" d="M -2.52,0.63 Q -2.52,0.63 -2.82,-0.51 -3.13,-1.66 -3.37,-2.58 -3.62,-3.51 -3.63,-3.84 -3.64,-4.17 -3.57,-4.49 -3.51,-4.81 -3.36,-5.11 -3.22,-5.40 -3.01,-5.66 -2.80,-5.91 -2.54,-6.11 -2.27,-6.31 -1.97,-6.43 -1.67,-6.56 -1.34,-6.61 -1.01,-6.66 -0.69,-6.63 -0.36,-6.61 -0.05,-6.50 0.26,-6.40 0.53,-6.22 0.81,-6.04 1.04,-5.80 1.26,-5.56 1.43,-5.28 1.59,-4.99 1.68,-4.67 1.77,-4.36 1.83,-3.00 1.89,-1.65 1.92,0.67 1.94,3.00 1.87,3.47 1.79,3.94 1.56,4.36 1.34,4.78 0.99,5.11 0.65,5.44 0.21,5.64 -0.21,5.84 -0.68,5.89 -1.16,5.94 -1.62,5.84 -2.09,5.73 -2.50,5.49 -2.91,5.24 -3.21,4.88 -3.52,4.51 -3.70,4.07 -3.87,3.63 -3.90,3.15 -3.93,2.67 -3.80,2.21 -3.67,1.75 -3.40,1.36 -3.13,0.97 -2.75,0.68 -2.37,0.39 -1.92,0.24 -1.47,0.09 -0.99,0.09 -0.51,0.09 -0.06,0.24 0.38,0.39 0.76,0.68 1.14,0.97 1.40,1.37 1.67,1.76 1.80,2.22 1.93,2.68 1.90,3.16 1.87,3.63 1.70,4.08 1.52,4.52 1.21,4.88 0.90,5.24 0.49,5.49 0.08,5.73 -0.37,5.84 -0.84,5.94 -1.31,5.89 -1.79,5.83 -2.22,5.63 -2.65,5.43 -3.00,5.10 -3.34,4.78 -3.57,4.35 -3.79,3.93 -3.87,3.46 -3.94,2.99 -3.94,2.99 -3.94,2.99 -3.78,-0.25 -3.62,-3.51 -3.63,-3.84 -3.64,-4.17 -3.57,-4.49 -3.51,-4.81 -3.36,-5.11 -3.22,-5.40 -3.01,-5.66 -2.80,-5.91 -2.54,-6.11 -2.27,-6.31 -1.97,-6.43 -1.67,-6.56 -1.34,-6.61 -1.01,-6.66 -0.69,-6.64 -0.36,-6.61 -0.05,-6.50 0.26,-6.40 0.53,-6.22 0.81,-6.04 1.04,-5.80 1.26,-5.56 1.43,-5.28 1.59,-4.99 1.68,-4.67 1.77,-4.36 1.87,-3.65 1.98,-2.93 2.25,-1.78 2.52,-0.63 2.56,-0.31 2.60,-0.00 2.56,0.30 2.52,0.61 2.41,0.90 2.30,1.20 2.12,1.45 1.95,1.71 1.71,1.92 1.48,2.13 1.20,2.28 0.92,2.42 0.62,2.50 0.32,2.58 0.00,2.58 -0.30,2.58 -0.60,2.50 -0.91,2.43 -1.19,2.28 -1.47,2.14 -1.70,1.93 -1.94,1.73 -2.11,1.47 -2.29,1.21 -2.41,0.92 -2.52,0.63 -2.52,0.63 L -2.52,0.63 Z"></path></g><g transform="translate(272 570.2614933436737) rotate(0 -5 22.5)" stroke="none"><path fill="#2f9e44" d="M 1.68,0.42 Q 1.68,0.42 0.76,3.85 -0.15,7.29 -1.13,10.77 -2.12,14.25 -2.83,17.41 -3.53,20.57 -4.13,23.36 -4.74,26.15 -5.28,29.04 -5.83,31.94 -6.36,34.62 -6.88,37.30 -7.72,39.29 -8.56,41.27 -8.61,41.44 -8.66,41.61 -8.76,41.76 -8.85,41.91 -8.98,42.03 -9.10,42.16 -9.25,42.25 -9.41,42.34 -9.57,42.39 -9.74,42.44 -9.92,42.45 -10.10,42.46 -10.27,42.42 -10.44,42.39 -10.60,42.32 -10.76,42.24 -10.90,42.13 -11.04,42.02 -11.15,41.88 -11.26,41.74 -11.33,41.58 -11.40,41.42 -11.43,41.24 -11.46,41.07 -11.45,40.89 -11.43,40.72 -11.34,41.24 -11.24,41.77 -11.33,41.55 -11.42,41.33 -11.44,41.09 -11.45,40.86 -11.39,40.63 -11.33,40.40 -11.20,40.20 -11.07,40.00 -10.89,39.86 -10.70,39.71 -10.47,39.63 -10.25,39.55 -10.01,39.55 -9.78,39.55 -9.55,39.62 -9.33,39.69 -9.14,39.83 -8.94,39.97 -8.81,40.17 -8.67,40.36 -8.61,40.59 -8.54,40.82 -8.55,41.05 -8.56,41.29 -8.64,41.51 -8.73,41.73 -8.88,41.92 -9.03,42.10 -9.23,42.22 -9.43,42.35 -9.67,42.40 -9.90,42.46 -10.13,42.43 -10.37,42.41 -10.58,42.32 -10.80,42.22 -10.98,42.06 -11.15,41.90 -11.26,41.69 -11.38,41.48 -11.42,41.25 -11.46,41.01 -11.42,40.78 -11.39,40.55 -11.28,40.33 -11.17,40.12 -11.00,39.96 -10.83,39.79 -10.62,39.69 -10.41,39.59 -10.17,39.56 -9.93,39.53 -9.70,39.58 -9.47,39.63 -9.27,39.75 -9.06,39.87 -8.81,40.57 -8.56,41.27 -8.61,41.44 -8.66,41.61 -8.76,41.76 -8.85,41.91 -8.98,42.03 -9.10,42.16 -9.25,42.25 -9.41,42.34 -9.57,42.39 -9.74,42.44 -9.92,42.45 -10.10,42.46 -10.27,42.42 -10.44,42.39 -10.60,42.32 -10.76,42.24 -10.90,42.13 -11.04,42.02 -11.15,41.88 -11.26,41.74 -11.33,41.58 -11.40,41.42 -11.43,41.24 -11.46,41.07 -11.45,40.89 -11.43,40.72 -10.51,38.75 -9.59,36.78 -9.08,34.11 -8.58,31.43 -8.06,28.50 -7.54,25.57 -6.98,22.76 -6.42,19.95 -5.76,16.70 -5.09,13.45 -4.19,9.98 -3.29,6.50 -2.49,3.04 -1.68,-0.42 -1.61,-0.61 -1.53,-0.81 -1.41,-0.98 -1.29,-1.15 -1.13,-1.29 -0.98,-1.43 -0.79,-1.52 -0.61,-1.62 -0.40,-1.67 -0.20,-1.72 0.00,-1.72 0.21,-1.72 0.41,-1.67 0.62,-1.62 0.80,-1.52 0.99,-1.42 1.14,-1.28 1.30,-1.14 1.42,-0.97 1.54,-0.80 1.61,-0.60 1.68,-0.41 1.71,-0.20 1.73,0.00 1.71,0.21 1.68,0.42 1.68,0.42 L 1.68,0.42 Z"></path></g><g transform="translate(271 578.2614933436737) rotate(0 6 18.5)" stroke="none"><path fill="#2f9e44" d="M 0.86,-1.72 Q 0.86,-1.72 2.18,-1.04 3.51,-0.37 4.40,1.43 5.29,3.23 5.99,6.22 6.69,9.22 7.22,11.31 7.76,13.40 8.82,16.57 9.87,19.74 10.62,22.90 11.36,26.07 11.94,28.23 12.52,30.38 12.88,31.94 13.24,33.50 13.54,35.14 13.83,36.78 13.82,37.07 13.80,37.37 13.70,37.65 13.59,37.93 13.40,38.16 13.21,38.39 12.95,38.55 12.70,38.70 12.41,38.77 12.12,38.84 11.82,38.81 11.52,38.78 11.25,38.66 10.97,38.54 10.75,38.33 10.54,38.13 10.39,37.87 10.25,37.60 10.20,37.31 10.15,37.02 10.19,36.72 10.24,36.42 10.37,36.16 10.51,35.89 10.73,35.68 10.94,35.48 11.21,35.35 11.48,35.22 11.78,35.18 12.08,35.15 12.37,35.21 12.66,35.27 12.92,35.42 13.18,35.57 13.37,35.80 13.57,36.03 13.68,36.30 13.80,36.58 13.82,36.88 13.83,37.18 13.76,37.46 13.68,37.75 13.52,38.00 13.35,38.25 13.11,38.44 12.88,38.62 12.60,38.72 12.31,38.82 12.01,38.82 11.72,38.82 11.43,38.73 11.15,38.64 10.91,38.46 10.67,38.28 10.50,38.03 10.33,37.79 10.24,37.50 10.16,37.21 10.16,37.21 10.16,37.21 10.07,35.64 9.98,34.06 9.82,32.63 9.66,31.19 9.01,29.00 8.36,26.81 7.57,23.82 6.79,20.82 5.59,17.61 4.40,14.40 3.69,12.31 2.99,10.22 2.03,6.44 1.08,2.67 0.11,2.19 -0.86,1.72 -1.05,1.60 -1.25,1.47 -1.41,1.30 -1.56,1.12 -1.68,0.92 -1.79,0.72 -1.85,0.49 -1.91,0.27 -1.91,0.03 -1.92,-0.19 -1.87,-0.42 -1.82,-0.64 -1.71,-0.85 -1.61,-1.06 -1.46,-1.24 -1.31,-1.42 -1.12,-1.55 -0.93,-1.69 -0.71,-1.78 -0.49,-1.86 -0.26,-1.90 -0.03,-1.93 0.19,-1.90 0.42,-1.88 0.64,-1.80 0.86,-1.72 0.86,-1.72 L 0.86,-1.72 Z"></path></g><g transform="translate(258 598.2614933436737) rotate(0 15.5 -6)" stroke="none"><path fill="#2f9e44" d="M -1.00,-2.00 Q -1.00,-2.00 0.75,-2.80 2.51,-3.60 5.90,-5.03 9.30,-6.47 12.14,-7.89 14.97,-9.30 17.04,-10.45 19.11,-11.60 20.32,-12.24 21.54,-12.89 23.48,-13.44 25.43,-14.00 28.20,-14.19 30.97,-14.39 31.35,-14.33 31.73,-14.27 32.08,-14.09 32.42,-13.92 32.69,-13.64 32.96,-13.36 33.13,-13.01 33.29,-12.66 33.34,-12.28 33.39,-11.89 33.31,-11.51 33.23,-11.13 33.03,-10.80 32.84,-10.47 32.54,-10.21 32.25,-9.96 31.89,-9.81 31.53,-9.66 31.15,-9.64 30.76,-9.61 30.39,-9.71 30.01,-9.81 29.69,-10.03 29.37,-10.24 29.13,-10.55 28.89,-10.85 28.76,-11.22 28.64,-11.58 28.63,-11.97 28.63,-12.36 28.75,-12.72 28.87,-13.09 29.10,-13.40 29.33,-13.71 29.65,-13.94 29.97,-14.16 30.34,-14.26 30.71,-14.37 31.10,-14.35 31.48,-14.34 31.85,-14.20 32.21,-14.06 32.50,-13.81 32.80,-13.56 33.01,-13.23 33.21,-12.90 33.30,-12.53 33.38,-12.15 33.35,-11.76 33.31,-11.38 33.15,-11.03 32.99,-10.67 32.73,-10.39 32.46,-10.11 32.12,-9.92 31.78,-9.74 31.40,-9.67 31.02,-9.60 31.02,-9.60 31.02,-9.60 28.45,-9.66 25.87,-9.71 24.44,-9.64 23.00,-9.57 21.87,-9.19 20.75,-8.80 18.67,-7.52 16.59,-6.23 13.73,-4.63 10.87,-3.03 7.63,-1.44 4.38,0.15 2.69,1.07 1.00,2.00 0.74,2.09 0.49,2.18 0.22,2.20 -0.04,2.23 -0.31,2.19 -0.57,2.16 -0.82,2.06 -1.07,1.96 -1.29,1.80 -1.51,1.64 -1.69,1.43 -1.86,1.23 -1.98,0.99 -2.10,0.75 -2.16,0.48 -2.22,0.22 -2.22,-0.04 -2.21,-0.31 -2.14,-0.57 -2.07,-0.83 -1.94,-1.07 -1.81,-1.30 -1.63,-1.50 -1.45,-1.70 -1.22,-1.85 -1.00,-2.00 -1.00,-2.00 L -1.00,-2.00 Z"></path></g><g transform="translate(293 567.2614933436737) rotate(0 -0.5 3.5)" stroke="none"><path fill="#2f9e44" d="M 2.30,0.46 Q 2.30,0.46 2.02,1.89 1.74,3.33 1.60,5.29 1.45,7.25 1.35,7.63 1.24,8.02 1.02,8.35 0.80,8.69 0.48,8.93 0.17,9.17 -0.20,9.30 -0.58,9.43 -0.98,9.44 -1.38,9.44 -1.76,9.31 -2.14,9.19 -2.46,8.95 -2.78,8.71 -3.01,8.38 -3.23,8.05 -3.34,7.66 -3.45,7.28 -3.43,6.88 -3.41,6.48 -3.27,6.10 -3.12,5.73 -2.86,5.43 -2.61,5.12 -2.26,4.91 -1.92,4.70 -1.53,4.61 -1.14,4.53 -0.74,4.57 -0.35,4.61 0.01,4.77 0.37,4.94 0.66,5.21 0.96,5.49 1.14,5.84 1.33,6.19 1.40,6.59 1.47,6.98 1.41,7.38 1.34,7.77 1.16,8.13 0.97,8.48 0.68,8.76 0.39,9.03 0.03,9.20 -0.32,9.37 -0.72,9.42 -1.12,9.46 -1.51,9.38 -1.90,9.30 -2.24,9.09 -2.59,8.89 -2.85,8.58 -3.11,8.28 -3.26,7.91 -3.41,7.54 -3.43,7.14 -3.45,6.74 -3.45,6.74 -3.45,6.74 -3.17,4.57 -2.89,2.41 -2.59,0.97 -2.30,-0.46 -2.21,-0.72 -2.12,-0.99 -1.97,-1.23 -1.82,-1.47 -1.62,-1.67 -1.41,-1.87 -1.17,-2.01 -0.92,-2.15 -0.65,-2.23 -0.38,-2.31 -0.10,-2.32 0.17,-2.34 0.45,-2.28 0.73,-2.23 0.99,-2.11 1.24,-1.98 1.46,-1.81 1.68,-1.63 1.85,-1.40 2.02,-1.18 2.14,-0.92 2.25,-0.66 2.29,-0.38 2.34,-0.10 2.32,0.17 2.30,0.46 2.30,0.46 L 2.30,0.46 Z"></path></g><g stroke-linecap="round"><g transform="translate(272 231.2614933436737) rotate(0 -7.070533389225602 152.914632906653)"><path d="M0 0.33 C-2.43 51.36, -12.04 254.11, -14.14 305.23 M-1.46 -0.54 C-3.58 50.7, -10.07 255.4, -12.03 306.37" stroke="#f08c00" stroke-width="2" fill="none"></path></g><g transform="translate(272 231.2614933436737) rotate(0 -7.070533389225602 152.914632906653)"><path d="M-19.76 282.59 C-16.79 288.68, -16.02 299.22, -12.03 306.37 M-19.76 282.59 C-15.79 292.31, -13.72 300.54, -12.03 306.37" stroke="#f08c00" stroke-width="2" fill="none"></path></g><g transform="translate(272 231.2614933436737) rotate(0 -7.070533389225602 152.914632906653)"><path d="M-2.67 283.19 C-5.43 289.07, -10.41 299.41, -12.03 306.37 M-2.67 283.19 C-5.34 292.69, -9.91 300.69, -12.03 306.37" stroke="#f08c00" stroke-width="2" fill="none"></path></g></g><mask></mask><g transform="translate(280 398.2614933436737) rotate(0 10.5 -0.5)" stroke="none"><path fill="#f08c00" d="M 0,-2.45 Q 0,-2.45 2.01,-2.33 4.02,-2.22 6.31,-2.10 8.59,-1.98 9.63,-2.30 10.66,-2.62 12.58,-2.96 14.49,-3.29 15.80,-3.42 17.10,-3.56 19.04,-3.61 20.99,-3.66 21.42,-3.59 21.84,-3.53 22.22,-3.32 22.61,-3.12 22.90,-2.81 23.20,-2.50 23.38,-2.11 23.56,-1.71 23.61,-1.29 23.66,-0.86 23.57,-0.43 23.48,-0.01 23.25,0.35 23.03,0.72 22.70,1.00 22.38,1.28 21.97,1.44 21.57,1.60 21.14,1.62 20.71,1.65 20.30,1.53 19.88,1.42 19.52,1.18 19.16,0.94 18.90,0.59 18.64,0.25 18.50,-0.15 18.36,-0.56 18.36,-0.99 18.36,-1.42 18.50,-1.83 18.64,-2.24 18.90,-2.58 19.16,-2.93 19.51,-3.17 19.87,-3.41 20.29,-3.53 20.70,-3.65 21.13,-3.62 21.56,-3.60 21.96,-3.44 22.37,-3.28 22.70,-3.00 23.03,-2.73 23.25,-2.36 23.47,-1.99 23.57,-1.57 23.66,-1.14 23.61,-0.72 23.57,-0.29 23.39,0.10 23.21,0.49 22.91,0.80 22.61,1.12 22.23,1.32 21.85,1.52 21.43,1.59 21.00,1.66 21.00,1.66 21.00,1.66 19.09,1.63 17.18,1.59 15.97,1.52 14.76,1.44 13.18,1.46 11.60,1.47 10.11,1.72 8.62,1.98 6.32,2.10 4.02,2.22 2.01,2.33 0,2.45 -0.29,2.41 -0.58,2.38 -0.86,2.27 -1.14,2.17 -1.38,2.00 -1.62,1.83 -1.82,1.61 -2.01,1.39 -2.15,1.13 -2.29,0.87 -2.36,0.58 -2.43,0.29 -2.43,-0.00 -2.43,-0.29 -2.36,-0.58 -2.29,-0.87 -2.15,-1.13 -2.01,-1.39 -1.82,-1.61 -1.62,-1.83 -1.38,-2.00 -1.14,-2.17 -0.86,-2.27 -0.58,-2.38 -0.29,-2.41 0.00,-2.45 0.00,-2.45 L 0,-2.45 Z"></path></g><g transform="translate(288 405.2614933436737) rotate(0 7 8)" stroke="none"><path fill="#f08c00" d="M 1.19,-2.38 Q 1.19,-2.38 2.34,-1.81 3.49,-1.23 4.43,-0.64 5.37,-0.05 6.60,0.51 7.83,1.07 8.89,1.84 9.96,2.61 10.76,4.04 11.55,5.47 11.37,6.81 11.19,8.15 10.28,9.93 9.37,11.70 7.90,13.30 6.42,14.89 5.20,16.15 3.98,17.41 3.50,17.64 3.02,17.87 2.72,18.11 2.42,18.35 2.08,18.51 1.73,18.66 1.35,18.73 0.98,18.81 0.60,18.78 0.21,18.76 -0.14,18.65 -0.51,18.54 -0.83,18.34 -1.16,18.15 -1.43,17.88 -1.71,17.61 -1.91,17.29 -2.11,16.96 -2.22,16.59 -2.34,16.23 -2.36,15.85 -2.39,15.47 -2.32,15.09 -2.25,14.72 -2.10,14.37 -1.94,14.02 -1.71,13.71 -1.48,13.41 0.64,13.53 2.77,13.65 4.16,13.23 5.54,12.82 7.12,12.81 8.70,12.80 11.35,12.77 14.00,12.75 14.51,12.83 15.03,12.92 15.50,13.16 15.96,13.41 16.32,13.79 16.68,14.17 16.90,14.65 17.13,15.13 17.18,15.65 17.24,16.17 17.13,16.68 17.01,17.20 16.74,17.65 16.47,18.10 16.07,18.44 15.67,18.78 15.18,18.97 14.69,19.17 14.17,19.20 13.64,19.22 13.14,19.08 12.63,18.94 12.20,18.65 11.76,18.35 11.44,17.93 11.12,17.52 10.96,17.02 10.79,16.52 10.79,15.99 10.79,15.47 10.96,14.97 11.13,14.47 11.44,14.05 11.76,13.64 12.20,13.34 12.63,13.05 13.14,12.91 13.64,12.77 14.17,12.79 14.69,12.82 15.18,13.02 15.67,13.21 16.07,13.55 16.47,13.89 16.74,14.34 17.01,14.79 17.13,15.31 17.24,15.82 17.18,16.34 17.13,16.87 16.90,17.34 16.68,17.82 16.32,18.20 15.96,18.58 15.50,18.83 15.03,19.07 14.51,19.16 13.99,19.24 13.99,19.24 13.99,19.24 12.01,19.23 10.02,19.22 8.47,19.20 6.93,19.18 5.20,19.16 3.46,19.14 2.28,19.11 1.10,19.09 0.06,18.56 -0.96,18.04 1.03,17.96 3.02,17.87 2.72,18.11 2.42,18.35 2.08,18.51 1.73,18.66 1.35,18.73 0.98,18.81 0.60,18.78 0.21,18.76 -0.14,18.65 -0.51,18.54 -0.83,18.34 -1.16,18.15 -1.43,17.88 -1.71,17.61 -1.91,17.29 -2.10,16.96 -2.22,16.60 -2.34,16.23 -2.36,15.85 -2.39,15.47 -2.32,15.09 -2.25,14.72 -2.10,14.37 -1.94,14.02 -1.71,13.71 -1.48,13.41 -0.91,13.17 -0.34,12.92 0.80,11.76 1.96,10.61 3.19,9.27 4.42,7.92 5.47,7.37 6.53,6.81 5.31,6.05 4.10,5.29 2.60,4.41 1.10,3.53 -0.04,2.96 -1.19,2.38 -1.46,2.20 -1.72,2.03 -1.94,1.79 -2.16,1.55 -2.31,1.27 -2.47,0.99 -2.55,0.68 -2.64,0.37 -2.64,0.05 -2.65,-0.26 -2.58,-0.58 -2.51,-0.89 -2.36,-1.18 -2.22,-1.47 -2.01,-1.71 -1.80,-1.96 -1.54,-2.14 -1.28,-2.33 -0.98,-2.45 -0.68,-2.57 -0.37,-2.62 -0.05,-2.66 0.26,-2.63 0.58,-2.60 0.89,-2.49 1.19,-2.38 1.19,-2.38 L 1.19,-2.38 Z"></path></g><g transform="translate(296 364.2614933436737) rotate(0 0 10.5)" stroke="none"><path fill="#f08c00" d="M 2.61,0 Q 2.61,0 2.59,1.43 2.58,2.87 2.60,4.06 2.62,5.24 2.65,6.32 2.67,7.40 2.67,8.72 2.67,10.04 2.73,11.83 2.79,13.61 2.84,15.29 2.90,16.96 2.92,18.98 2.95,21 2.88,21.47 2.80,21.94 2.57,22.36 2.35,22.79 2.00,23.11 1.65,23.44 1.22,23.64 0.79,23.85 0.31,23.90 -0.16,23.95 -0.62,23.85 -1.09,23.74 -1.50,23.50 -1.91,23.25 -2.22,22.88 -2.53,22.52 -2.71,22.08 -2.88,21.63 -2.91,21.15 -2.94,20.67 -2.81,20.21 -2.68,19.75 -2.41,19.36 -2.14,18.96 -1.76,18.67 -1.38,18.38 -0.93,18.23 -0.47,18.08 0.00,18.08 0.47,18.08 0.93,18.23 1.38,18.38 1.76,18.67 2.14,18.96 2.41,19.36 2.68,19.75 2.81,20.21 2.94,20.68 2.91,21.15 2.88,21.63 2.71,22.08 2.53,22.52 2.22,22.89 1.91,23.25 1.50,23.50 1.09,23.74 0.62,23.85 0.15,23.95 -0.31,23.90 -0.79,23.85 -1.22,23.64 -1.66,23.44 -2.00,23.11 -2.35,22.78 -2.57,22.36 -2.80,21.94 -2.88,21.47 -2.95,20.99 -2.95,20.99 -2.95,21 -2.92,18.98 -2.90,16.96 -2.84,15.29 -2.79,13.61 -2.73,11.83 -2.67,10.04 -2.67,8.72 -2.67,7.40 -2.65,6.32 -2.62,5.24 -2.60,4.06 -2.58,2.87 -2.59,1.43 -2.61,0 -2.57,-0.31 -2.53,-0.62 -2.42,-0.91 -2.31,-1.21 -2.13,-1.47 -1.95,-1.73 -1.71,-1.94 -1.48,-2.14 -1.20,-2.29 -0.92,-2.44 -0.62,-2.51 -0.31,-2.59 0.00,-2.59 0.31,-2.59 0.62,-2.51 0.92,-2.44 1.20,-2.29 1.48,-2.14 1.71,-1.94 1.95,-1.73 2.13,-1.47 2.31,-1.21 2.42,-0.91 2.53,-0.62 2.57,-0.31 2.61,0.00 2.61,0.00 L 2.61,0 Z"></path></g><g transform="translate(330 399.2614933436737) rotate(0 -0.5 1)" stroke="none"><path fill="#f08c00" d="M -2.60,0 Q -2.60,0 -2.53,-1.71 -2.47,-3.42 -3.08,-4.53 -3.69,-5.64 -5.22,-5.82 -6.75,-6.00 -7.95,-5.12 -9.16,-4.25 -9.40,-3.00 -9.64,-1.75 -9.72,-0.05 -9.80,1.64 -9.79,2.90 -9.78,4.16 -8.85,4.80 -7.92,5.45 -7.00,6.04 -6.08,6.63 -5.39,5.13 -4.69,3.63 -4.05,1.69 -3.41,-0.25 -3.32,-1.67 -3.23,-3.10 -2.84,-4.96 -2.44,-6.82 -2.33,-7.47 -2.21,-8.12 -2.04,-8.47 -1.87,-8.82 -1.61,-9.11 -1.36,-9.41 -1.05,-9.63 -0.73,-9.86 -0.37,-10.00 -0.01,-10.15 0.36,-10.20 0.74,-10.26 1.13,-10.22 1.51,-10.18 1.88,-10.05 2.24,-9.92 2.57,-9.70 2.89,-9.49 3.15,-9.21 3.42,-8.92 3.60,-8.58 3.79,-8.24 3.89,-7.87 3.99,-7.49 4.00,-7.10 4.01,-6.72 3.92,-6.34 3.83,-5.96 3.63,-3.31 3.42,-0.66 3.29,1.03 3.15,2.72 3.16,3.95 3.17,5.18 4.21,4.91 5.24,4.64 6.66,4.65 8.07,4.66 8.54,4.54 9.02,4.42 9.35,3.98 9.68,3.55 10.13,3.24 10.58,2.93 11.11,2.79 11.63,2.64 12.18,2.67 12.72,2.70 13.23,2.90 13.73,3.11 14.15,3.46 14.57,3.81 14.85,4.28 15.13,4.75 15.24,5.28 15.36,5.81 15.30,6.36 15.24,6.90 15.01,7.39 14.79,7.89 14.41,8.28 14.03,8.68 13.55,8.94 13.07,9.19 12.53,9.28 11.99,9.37 11.46,9.28 10.92,9.19 10.44,8.93 9.95,8.68 9.58,8.28 9.20,7.89 8.97,7.39 8.75,6.90 8.69,6.35 8.63,5.81 8.75,5.28 8.86,4.75 9.14,4.28 9.43,3.81 9.84,3.46 10.26,3.11 10.76,2.90 11.27,2.70 11.82,2.67 12.36,2.64 12.89,2.79 13.41,2.94 13.86,3.24 14.31,3.55 14.64,3.98 14.97,4.42 15.15,4.93 15.32,5.45 15.32,6.00 15.32,6.54 15.15,7.06 14.97,7.58 14.97,7.58 14.97,7.57 12.06,9.46 9.15,11.34 7.93,11.31 6.71,11.29 5.13,11.23 3.56,11.17 2.40,11.01 1.24,10.86 -0.09,10.02 -1.43,9.18 -2.28,7.13 -3.14,5.08 -3.07,3.74 -3.00,2.40 -2.80,0.31 -2.60,-1.77 -2.44,-3.67 -2.28,-5.57 -2.25,-6.85 -2.21,-8.12 -2.04,-8.47 -1.87,-8.82 -1.61,-9.11 -1.36,-9.41 -1.05,-9.63 -0.73,-9.86 -0.37,-10.00 -0.01,-10.15 0.36,-10.20 0.74,-10.26 1.13,-10.22 1.51,-10.18 1.88,-10.05 2.24,-9.92 2.57,-9.70 2.89,-9.49 3.15,-9.21 3.42,-8.92 3.60,-8.58 3.79,-8.24 3.89,-7.87 3.99,-7.49 4.00,-7.11 4.01,-6.72 3.92,-6.34 3.84,-5.96 3.48,-4.92 3.12,-3.89 2.99,-2.36 2.86,-0.83 2.32,1.20 1.79,3.24 1.52,4.61 1.25,5.98 0.72,7.42 0.19,8.85 -0.33,9.83 -0.85,10.80 -1.78,11.93 -2.71,13.06 -4.01,13.43 -5.30,13.80 -7.56,12.93 -9.81,12.05 -10.84,11.47 -11.86,10.88 -13.42,9.66 -14.99,8.43 -15.52,7.33 -16.04,6.23 -16.10,4.56 -16.15,2.89 -16.09,1.11 -16.03,-0.65 -15.94,-1.79 -15.84,-2.92 -15.08,-5.09 -14.32,-7.26 -13.63,-8.18 -12.93,-9.10 -11.14,-10.15 -9.35,-11.19 -8.14,-11.58 -6.93,-11.97 -5.47,-11.90 -4.01,-11.83 -2.47,-11.38 -0.93,-10.94 -0.01,-9.58 0.90,-8.22 1.39,-7.21 1.87,-6.20 2.17,-4.83 2.47,-3.47 2.53,-1.73 2.60,0 2.56,0.31 2.52,0.62 2.41,0.91 2.30,1.21 2.12,1.46 1.94,1.72 1.71,1.93 1.47,2.14 1.20,2.28 0.92,2.43 0.61,2.51 0.31,2.58 -0.00,2.58 -0.31,2.58 -0.61,2.51 -0.92,2.43 -1.20,2.28 -1.47,2.14 -1.71,1.93 -1.94,1.72 -2.12,1.46 -2.30,1.21 -2.41,0.91 -2.52,0.62 -2.56,0.31 -2.60,-0.00 -2.60,-0.00 L -2.60,0 Z"></path></g><g transform="translate(315 379.2614933436737) rotate(0 11.5 -0.5)" stroke="none"><path fill="#f08c00" d="M -0.82,-2.47 Q -0.82,-2.47 0.03,-2.79 0.88,-3.12 2.07,-3.33 3.25,-3.53 4.33,-3.62 5.41,-3.71 7.02,-3.68 8.64,-3.65 9.89,-3.67 11.14,-3.68 12.88,-3.75 14.63,-3.82 16.17,-3.87 17.72,-3.93 18.94,-3.98 20.16,-4.03 22.08,-4.05 23.99,-4.07 24.49,-3.99 24.98,-3.91 25.42,-3.68 25.86,-3.44 26.20,-3.08 26.54,-2.72 26.75,-2.27 26.96,-1.82 27.01,-1.32 27.07,-0.83 26.96,-0.34 26.85,0.13 26.60,0.56 26.34,0.99 25.96,1.31 25.58,1.63 25.12,1.82 24.66,2.00 24.16,2.03 23.66,2.05 23.18,1.92 22.70,1.79 22.29,1.51 21.88,1.23 21.58,0.83 21.28,0.44 21.12,-0.03 20.96,-0.50 20.96,-1.00 20.96,-1.49 21.12,-1.97 21.28,-2.44 21.58,-2.83 21.88,-3.23 22.29,-3.51 22.70,-3.79 23.18,-3.92 23.66,-4.05 24.16,-4.03 24.66,-4.00 25.12,-3.82 25.58,-3.63 25.96,-3.31 26.34,-2.99 26.60,-2.56 26.85,-2.13 26.96,-1.65 27.07,-1.16 27.01,-0.67 26.96,-0.17 26.75,0.27 26.54,0.72 26.20,1.08 25.86,1.45 25.42,1.68 24.98,1.91 24.49,1.99 23.99,2.07 23.99,2.07 24.00,2.07 22.08,2.05 20.16,2.03 18.94,1.98 17.72,1.93 16.18,1.88 14.64,1.82 12.91,1.77 11.18,1.71 9.95,1.72 8.72,1.72 7.21,1.79 5.70,1.86 4.13,1.91 2.56,1.97 1.69,2.22 0.82,2.47 0.51,2.53 0.20,2.59 -0.10,2.58 -0.41,2.57 -0.72,2.48 -1.02,2.39 -1.29,2.24 -1.56,2.08 -1.79,1.86 -2.01,1.64 -2.18,1.38 -2.35,1.11 -2.45,0.81 -2.55,0.52 -2.57,0.20 -2.60,-0.10 -2.55,-0.41 -2.50,-0.72 -2.37,-1.01 -2.25,-1.30 -2.06,-1.55 -1.87,-1.80 -1.63,-2.00 -1.39,-2.20 -1.10,-2.33 -0.82,-2.47 -0.82,-2.47 L -0.82,-2.47 Z"></path></g><g transform="translate(332 368.2614933436737) rotate(0 6.5 8.5)" stroke="none"><path fill="#f08c00" d="M 0.51,-2.56 Q 0.51,-2.56 1.96,-2.24 3.42,-1.93 4.98,-1.09 6.55,-0.24 7.46,0.37 8.38,0.99 9.65,1.44 10.93,1.89 11.94,2.37 12.94,2.85 13.90,4.15 14.87,5.45 14.76,6.97 14.65,8.48 13.86,9.36 13.07,10.23 12.16,11.02 11.25,11.80 9.89,13.98 8.53,16.16 7.52,17.85 6.52,19.54 6.21,19.90 5.90,20.26 5.49,20.51 5.07,20.75 4.61,20.85 4.14,20.95 3.66,20.90 3.19,20.84 2.75,20.64 2.32,20.44 1.97,20.10 1.63,19.77 1.41,19.35 1.18,18.92 1.11,18.45 1.03,17.98 1.11,17.50 1.20,17.03 1.42,16.61 1.65,16.19 2.00,15.86 2.35,15.53 2.78,15.34 3.22,15.14 3.70,15.09 4.17,15.04 4.64,15.15 5.11,15.25 5.52,15.50 5.93,15.75 6.23,16.12 6.54,16.48 6.72,16.93 6.89,17.38 6.91,17.86 6.94,18.33 6.81,18.79 6.67,19.26 6.40,19.65 6.13,20.04 5.75,20.33 5.37,20.62 4.91,20.77 4.46,20.92 3.98,20.92 3.50,20.91 3.04,20.76 2.59,20.60 2.21,20.31 1.83,20.02 1.57,19.62 1.30,19.22 1.17,18.76 1.05,18.30 1.08,17.82 1.11,17.34 1.29,16.90 1.47,16.45 1.47,16.45 1.47,16.45 3.28,13.73 5.08,11.00 5.79,9.51 6.49,8.02 8.21,6.58 9.92,5.14 9.25,6.04 8.57,6.94 6.92,6.11 5.27,5.27 3.80,4.18 2.32,3.08 0.90,2.82 -0.51,2.56 -0.81,2.46 -1.11,2.36 -1.37,2.19 -1.64,2.02 -1.86,1.80 -2.08,1.57 -2.24,1.30 -2.39,1.03 -2.48,0.73 -2.57,0.42 -2.59,0.11 -2.60,-0.19 -2.54,-0.50 -2.48,-0.81 -2.34,-1.10 -2.21,-1.38 -2.01,-1.63 -1.81,-1.87 -1.56,-2.06 -1.31,-2.25 -1.02,-2.38 -0.73,-2.50 -0.42,-2.55 -0.11,-2.60 0.19,-2.58 0.51,-2.56 0.51,-2.56 L 0.51,-2.56 Z"></path></g><g transform="translate(343 396.2614933436737) rotate(0 9.5 0)" stroke="none"><path fill="#f08c00" d="M 0,-2.62 Q 0,-2.62 1.43,-2.60 2.87,-2.59 5.01,-2.63 7.16,-2.68 8.26,-2.70 9.36,-2.72 11.43,-2.76 13.49,-2.80 16.24,-2.86 19,-2.92 19.46,-2.84 19.93,-2.77 20.35,-2.54 20.76,-2.32 21.09,-1.98 21.41,-1.64 21.61,-1.21 21.81,-0.78 21.86,-0.31 21.91,0.15 21.81,0.62 21.71,1.08 21.47,1.48 21.22,1.89 20.86,2.19 20.50,2.50 20.06,2.68 19.62,2.85 19.15,2.88 18.68,2.90 18.22,2.77 17.77,2.65 17.38,2.38 16.98,2.12 16.70,1.74 16.41,1.36 16.26,0.92 16.11,0.47 16.11,-0.00 16.11,-0.47 16.26,-0.92 16.41,-1.36 16.70,-1.74 16.98,-2.12 17.38,-2.38 17.77,-2.65 18.22,-2.78 18.68,-2.90 19.15,-2.88 19.62,-2.85 20.06,-2.68 20.50,-2.50 20.86,-2.19 21.22,-1.89 21.47,-1.48 21.71,-1.08 21.81,-0.61 21.91,-0.15 21.86,0.31 21.81,0.78 21.61,1.21 21.41,1.64 21.09,1.98 20.76,2.32 20.35,2.54 19.93,2.77 19.46,2.84 18.99,2.92 18.99,2.92 19,2.92 16.24,2.86 13.49,2.80 11.43,2.76 9.36,2.72 8.26,2.70 7.16,2.68 5.01,2.63 2.87,2.59 1.43,2.60 0,2.62 -0.31,2.58 -0.62,2.54 -0.92,2.43 -1.21,2.32 -1.47,2.14 -1.73,1.96 -1.94,1.72 -2.15,1.48 -2.30,1.20 -2.45,0.92 -2.52,0.62 -2.60,0.31 -2.60,-0.00 -2.60,-0.31 -2.52,-0.62 -2.45,-0.92 -2.30,-1.20 -2.15,-1.48 -1.94,-1.72 -1.73,-1.96 -1.47,-2.14 -1.21,-2.32 -0.92,-2.43 -0.62,-2.54 -0.31,-2.58 0.00,-2.62 0.00,-2.62 L 0,-2.62 Z"></path></g><g transform="translate(382 397.2614933436737) rotate(0 11.5 0)" stroke="none"><path fill="#f08c00" d="M 0,-2.45 Q 0,-2.45 1.72,-2.40 3.44,-2.35 5.33,-2.28 7.21,-2.21 8.59,-2.24 9.96,-2.27 11.41,-2.29 12.86,-2.30 14.05,-2.35 15.24,-2.39 16.60,-2.40 17.97,-2.42 20.48,-2.51 23,-2.60 23.41,-2.53 23.83,-2.47 24.20,-2.27 24.57,-2.07 24.86,-1.76 25.15,-1.46 25.33,-1.08 25.51,-0.69 25.55,-0.27 25.60,0.14 25.51,0.55 25.42,0.96 25.20,1.32 24.98,1.68 24.66,1.96 24.34,2.23 23.95,2.39 23.56,2.54 23.13,2.56 22.71,2.59 22.31,2.47 21.90,2.36 21.55,2.12 21.20,1.89 20.95,1.55 20.69,1.22 20.56,0.82 20.42,0.42 20.42,-0.00 20.42,-0.42 20.56,-0.82 20.69,-1.22 20.95,-1.55 21.20,-1.89 21.55,-2.13 21.90,-2.36 22.31,-2.47 22.71,-2.59 23.13,-2.56 23.56,-2.54 23.95,-2.39 24.34,-2.23 24.66,-1.96 24.98,-1.68 25.20,-1.32 25.42,-0.96 25.51,-0.55 25.60,-0.14 25.55,0.27 25.51,0.69 25.33,1.08 25.15,1.46 24.86,1.77 24.57,2.07 24.20,2.27 23.83,2.47 23.41,2.53 22.99,2.60 22.99,2.60 23,2.60 20.48,2.51 17.97,2.42 16.60,2.40 15.24,2.39 14.05,2.35 12.86,2.30 11.41,2.29 9.96,2.27 8.59,2.24 7.21,2.21 5.33,2.28 3.44,2.35 1.72,2.40 0,2.45 -0.29,2.42 -0.58,2.38 -0.86,2.27 -1.14,2.17 -1.38,2.00 -1.62,1.83 -1.82,1.61 -2.02,1.39 -2.15,1.13 -2.29,0.87 -2.36,0.58 -2.43,0.29 -2.43,-0.00 -2.43,-0.29 -2.36,-0.58 -2.29,-0.87 -2.15,-1.13 -2.02,-1.39 -1.82,-1.61 -1.62,-1.83 -1.38,-2.00 -1.14,-2.17 -0.86,-2.27 -0.58,-2.38 -0.29,-2.42 0.00,-2.45 0.00,-2.45 L 0,-2.45 Z"></path></g><g transform="translate(387 404.2614933436737) rotate(0 4 8.5)" stroke="none"><path fill="#f08c00" d="M 1.88,-1.88 Q 1.88,-1.88 2.74,-1.03 3.60,-0.19 5.51,0.37 7.41,0.94 9.13,2.24 10.85,3.55 11.24,4.73 11.62,5.91 11.37,7.22 11.11,8.54 9.47,10.19 7.84,11.84 6.84,12.41 5.84,12.97 4.84,13.49 3.84,14.00 2.64,14.68 1.44,15.35 0.25,15.99 -0.93,16.64 -2.50,17.08 -4.08,17.52 -3.79,15.56 -3.50,13.61 -0.96,13.84 1.58,14.07 2.85,14.11 4.13,14.16 5.25,14.16 6.36,14.17 8.01,14.12 9.67,14.08 11.83,14.06 14.00,14.03 14.47,14.11 14.94,14.19 15.37,14.41 15.79,14.64 16.12,14.99 16.45,15.33 16.65,15.77 16.85,16.20 16.90,16.68 16.95,17.16 16.85,17.62 16.75,18.09 16.50,18.50 16.25,18.91 15.89,19.22 15.52,19.53 15.08,19.71 14.63,19.89 14.15,19.91 13.67,19.94 13.21,19.81 12.75,19.68 12.35,19.41 11.96,19.14 11.67,18.76 11.38,18.38 11.22,17.93 11.07,17.47 11.07,16.99 11.07,16.51 11.22,16.06 11.38,15.61 11.67,15.22 11.96,14.84 12.36,14.57 12.75,14.31 13.21,14.18 13.68,14.05 14.15,14.08 14.63,14.10 15.08,14.28 15.52,14.46 15.89,14.77 16.25,15.08 16.50,15.49 16.75,15.90 16.85,16.37 16.95,16.84 16.90,17.31 16.85,17.79 16.65,18.22 16.45,18.66 16.12,19.01 15.79,19.35 15.36,19.58 14.94,19.80 14.47,19.88 13.99,19.96 13.99,19.96 13.99,19.96 11.82,19.93 9.65,19.90 7.97,19.84 6.29,19.78 5.14,19.76 3.99,19.74 2.66,19.71 1.32,19.69 -0.53,19.71 -2.39,19.72 -5.06,18.55 -7.73,17.39 -6.92,14.77 -6.11,12.14 -4.94,11.83 -3.77,11.52 -2.73,10.91 -1.69,10.31 0.54,8.92 2.78,7.54 4.54,7.20 6.31,6.86 5.25,6.19 4.18,5.53 2.95,5.20 1.72,4.88 0.78,4.26 -0.15,3.64 -1.01,2.76 -1.88,1.88 -2.08,1.63 -2.28,1.38 -2.41,1.08 -2.54,0.79 -2.60,0.47 -2.66,0.16 -2.64,-0.15 -2.62,-0.48 -2.52,-0.78 -2.43,-1.09 -2.26,-1.37 -2.10,-1.64 -1.87,-1.87 -1.64,-2.10 -1.37,-2.26 -1.09,-2.43 -0.78,-2.52 -0.48,-2.62 -0.15,-2.64 0.16,-2.66 0.47,-2.60 0.79,-2.54 1.08,-2.41 1.38,-2.28 1.63,-2.08 1.88,-1.88 1.88,-1.88 L 1.88,-1.88 Z"></path></g><g transform="translate(385 362.2614933436737) rotate(0 8.5 11)" stroke="none"><path fill="#f08c00" d="M -0.49,-2.47 Q -0.49,-2.47 0.94,-2.75 2.38,-3.02 4.41,-3.30 6.44,-3.58 8.49,-3.18 10.54,-2.77 11.36,-1.61 12.19,-0.45 12.15,1.06 12.11,2.59 11.66,3.74 11.21,4.88 9.51,6.51 7.81,8.13 7.09,9.07 6.37,10.01 5.23,10.99 4.10,11.97 3.38,13.34 2.66,14.71 2.43,14.96 2.19,15.20 1.90,15.38 1.61,15.56 1.29,15.66 0.97,15.77 0.63,15.79 0.29,15.82 -0.03,15.76 -0.37,15.70 -0.68,15.57 -0.99,15.43 -1.26,15.23 -1.53,15.02 -1.74,14.76 -1.96,14.49 -2.10,14.19 -2.24,13.88 -2.31,13.55 -2.37,13.21 -2.36,12.87 -2.34,12.53 -2.24,12.21 -2.15,11.88 -1.97,11.59 -1.80,11.30 0.46,11.11 2.73,10.93 3.70,10.42 4.67,9.91 5.92,9.63 7.17,9.35 8.92,9.20 10.67,9.05 12.06,9.37 13.45,9.70 15.00,10.48 16.55,11.26 17.95,13.14 19.35,15.01 19.16,16.13 18.97,17.24 17.98,18.40 16.99,19.57 16.02,20.58 15.04,21.60 13.96,22.32 12.89,23.04 11.85,23.53 10.81,24.03 8.02,25.19 5.24,26.35 4.69,26.30 4.15,26.25 3.66,26.03 3.16,25.81 2.76,25.44 2.36,25.07 2.09,24.60 1.83,24.12 1.73,23.59 1.64,23.05 1.71,22.52 1.79,21.98 2.04,21.49 2.29,21.01 2.67,20.63 3.06,20.25 3.55,20.01 4.04,19.77 4.58,19.71 5.12,19.64 5.65,19.74 6.18,19.85 6.66,20.12 7.13,20.40 7.48,20.80 7.84,21.21 8.05,21.71 8.26,22.22 8.30,22.76 8.34,23.30 8.21,23.83 8.07,24.35 7.77,24.81 7.47,25.26 7.05,25.60 6.62,25.94 6.11,26.12 5.60,26.30 5.05,26.31 4.51,26.32 3.99,26.16 3.47,25.99 3.03,25.67 2.60,25.35 2.28,24.90 1.97,24.46 1.82,23.94 1.66,23.42 1.68,22.87 1.70,22.33 1.89,21.82 2.09,21.31 2.43,20.89 2.78,20.47 3.24,20.18 3.70,19.90 4.23,19.77 4.76,19.64 4.76,19.64 4.75,19.64 5.78,19.24 6.81,18.84 8.12,18.16 9.42,17.48 10.39,16.74 11.36,15.99 12.43,14.97 13.50,13.95 13.97,15.05 14.44,16.15 13.10,15.81 11.76,15.48 10.52,15.26 9.28,15.04 8.14,15.09 6.99,15.14 5.84,15.58 4.68,16.02 2.88,16.12 1.07,16.22 1.87,15.47 2.66,14.71 2.43,14.96 2.19,15.20 1.90,15.38 1.61,15.56 1.29,15.66 0.97,15.77 0.63,15.79 0.29,15.82 -0.03,15.76 -0.37,15.70 -0.68,15.57 -0.99,15.43 -1.26,15.23 -1.53,15.02 -1.74,14.76 -1.96,14.49 -2.10,14.19 -2.24,13.88 -2.31,13.55 -2.37,13.21 -2.36,12.87 -2.34,12.53 -2.24,12.21 -2.15,11.88 -1.97,11.59 -1.80,11.30 -1.49,10.66 -1.18,10.02 0.46,8.37 2.11,6.72 3.08,5.45 4.04,4.19 5.38,2.96 6.72,1.73 5.04,1.80 3.36,1.87 1.93,2.17 0.49,2.47 0.19,2.49 -0.11,2.51 -0.41,2.46 -0.71,2.41 -0.99,2.29 -1.26,2.17 -1.51,1.99 -1.75,1.81 -1.94,1.57 -2.13,1.33 -2.26,1.06 -2.39,0.78 -2.45,0.49 -2.51,0.19 -2.50,-0.11 -2.48,-0.41 -2.40,-0.70 -2.31,-0.99 -2.16,-1.26 -2.00,-1.52 -1.79,-1.74 -1.58,-1.95 -1.32,-2.12 -1.07,-2.28 -0.78,-2.37 -0.49,-2.47 -0.49,-2.47 L -0.49,-2.47 Z"></path></g><g transform="translate(420 383.2614933436737) rotate(0 5.5 14.5)" stroke="none"><path fill="#f08c00" d="M 2.22,0 Q 2.22,0 2.19,1.72 2.17,3.44 2.17,5.04 2.18,6.64 2.19,8.18 2.20,9.71 2.37,11.67 2.53,13.63 2.59,15.75 2.66,17.87 2.77,19.33 2.88,20.79 2.95,22.29 3.01,23.78 3.09,24.99 3.16,26.20 2.64,28.17 2.12,30.15 0.30,30.36 -1.50,30.57 -2.49,29.31 -3.48,28.06 -3.62,26.50 -3.77,24.95 -3.45,22.68 -3.14,20.42 -2.27,18.87 -1.41,17.32 -0.60,15.38 0.19,13.44 1.48,12.61 2.77,11.78 4.32,11.44 5.88,11.09 7.14,11.03 8.40,10.96 9.58,11.40 10.76,11.83 11.98,12.41 13.19,13.00 13.90,13.98 14.60,14.95 14.89,17.13 15.17,19.31 15.22,20.69 15.26,22.07 15.20,24.03 15.14,25.99 14.63,27.13 14.12,28.28 13.11,29.46 12.10,30.64 10.91,31.31 9.71,31.99 8.30,32.20 6.88,32.40 4.44,32.44 2.00,32.47 1.45,32.38 0.89,32.29 0.39,32.03 -0.10,31.77 -0.48,31.36 -0.87,30.95 -1.11,30.44 -1.34,29.93 -1.41,29.37 -1.47,28.81 -1.35,28.26 -1.23,27.71 -0.94,27.23 -0.65,26.75 -0.22,26.38 0.20,26.02 0.72,25.81 1.24,25.60 1.80,25.57 2.37,25.54 2.91,25.69 3.45,25.84 3.92,26.15 4.38,26.47 4.72,26.91 5.07,27.36 5.25,27.89 5.43,28.43 5.43,28.99 5.43,29.55 5.25,30.09 5.07,30.62 4.73,31.07 4.39,31.52 3.93,31.83 3.46,32.15 2.92,32.30 2.38,32.45 1.81,32.42 1.25,32.39 0.73,32.19 0.21,31.98 -0.21,31.61 -0.64,31.25 -0.93,30.77 -1.22,30.29 -1.35,29.74 -1.47,29.19 -1.41,28.63 -1.35,28.07 -1.11,27.56 -0.88,27.05 -0.49,26.64 -0.10,26.23 0.38,25.96 0.88,25.70 1.44,25.61 1.99,25.52 1.99,25.52 1.99,25.52 4.36,26.01 6.73,26.49 7.72,25.14 8.71,23.78 8.71,22.38 8.72,20.97 9.08,19.43 9.45,17.88 7.97,17.48 6.50,17.07 5.37,17.20 4.24,17.34 3.27,19.49 2.30,21.65 2.08,22.72 1.86,23.78 1.60,25.33 1.34,26.88 0.07,26.56 -1.19,26.24 -1.13,25.04 -1.08,23.84 -1.06,22.39 -1.03,20.93 -1.03,19.51 -1.02,18.09 -1.20,16.13 -1.38,14.17 -1.79,11.95 -2.20,9.72 -2.19,8.18 -2.18,6.64 -2.17,5.04 -2.17,3.44 -2.19,1.72 -2.22,0 -2.18,-0.26 -2.15,-0.53 -2.06,-0.78 -1.96,-1.03 -1.81,-1.25 -1.66,-1.47 -1.46,-1.65 -1.26,-1.82 -1.02,-1.95 -0.78,-2.07 -0.52,-2.14 -0.26,-2.20 0.00,-2.20 0.26,-2.20 0.52,-2.14 0.78,-2.07 1.02,-1.95 1.26,-1.82 1.46,-1.65 1.66,-1.47 1.81,-1.25 1.96,-1.03 2.06,-0.78 2.15,-0.53 2.18,-0.26 2.22,0.00 2.22,0.00 L 2.22,0 Z"></path></g><g transform="translate(414 376.2614933436737) rotate(0 8 -1.5)" stroke="none"><path fill="#f08c00" d="M -0.97,-2.43 Q -0.97,-2.43 0.47,-2.97 1.93,-3.52 3.32,-3.85 4.71,-4.17 6.88,-4.79 9.04,-5.41 10.82,-5.59 12.59,-5.78 14.93,-5.18 17.28,-4.58 17.66,-4.31 18.04,-4.04 18.31,-3.66 18.58,-3.28 18.72,-2.83 18.86,-2.39 18.84,-1.92 18.83,-1.45 18.67,-1.01 18.51,-0.57 18.22,-0.21 17.92,0.14 17.53,0.40 17.14,0.65 16.68,0.76 16.23,0.87 15.76,0.84 15.30,0.80 14.87,0.61 14.44,0.43 14.09,0.12 13.74,-0.18 13.51,-0.59 13.28,-1.00 13.20,-1.46 13.11,-1.92 13.17,-2.38 13.23,-2.84 13.44,-3.26 13.65,-3.68 13.98,-4.01 14.31,-4.34 14.73,-4.55 15.15,-4.76 15.61,-4.82 16.07,-4.88 16.53,-4.79 16.99,-4.71 17.40,-4.48 17.80,-4.25 18.12,-3.90 18.43,-3.55 18.61,-3.12 18.80,-2.69 18.84,-2.23 18.87,-1.76 18.76,-1.31 18.65,-0.85 18.40,-0.46 18.15,-0.07 17.78,0.22 17.42,0.51 16.98,0.67 16.54,0.83 16.07,0.84 15.61,0.86 15.16,0.72 14.71,0.58 14.71,0.58 14.71,0.58 12.95,0.22 11.19,-0.13 9.74,-0.03 8.29,0.06 6.05,0.64 3.81,1.22 2.39,1.82 0.97,2.43 0.66,2.51 0.36,2.59 0.04,2.59 -0.26,2.60 -0.57,2.53 -0.88,2.46 -1.16,2.32 -1.44,2.18 -1.68,1.97 -1.92,1.77 -2.11,1.51 -2.29,1.25 -2.41,0.96 -2.53,0.67 -2.57,0.35 -2.61,0.04 -2.58,-0.26 -2.55,-0.58 -2.44,-0.87 -2.34,-1.17 -2.16,-1.43 -1.99,-1.70 -1.75,-1.91 -1.52,-2.12 -1.24,-2.28 -0.97,-2.43 -0.97,-2.43 L -0.97,-2.43 Z"></path></g><g transform="translate(426 368.2614933436737) rotate(0 7.5 4.5)" stroke="none"><path fill="#f08c00" d="M 0.43,-2.58 Q 0.43,-2.58 2.14,-2.22 3.86,-1.86 5.15,-1.41 6.44,-0.96 7.39,-0.43 8.33,0.08 9.55,0.61 10.78,1.14 12.30,2.06 13.82,2.98 14.73,3.57 15.64,4.16 16.18,6.67 16.72,9.18 15.41,10.07 14.10,10.97 12.94,11.07 11.78,11.17 10.26,11.23 8.74,11.28 6.97,12.21 5.19,13.13 4.66,13.24 4.13,13.35 3.59,13.28 3.05,13.22 2.56,12.98 2.07,12.75 1.68,12.37 1.29,11.99 1.04,11.51 0.80,11.02 0.72,10.48 0.64,9.95 0.73,9.41 0.83,8.88 1.09,8.40 1.35,7.92 1.75,7.56 2.15,7.19 2.65,6.97 3.14,6.75 3.68,6.70 4.23,6.64 4.75,6.77 5.28,6.89 5.74,7.18 6.21,7.47 6.55,7.89 6.90,8.31 7.09,8.81 7.29,9.32 7.31,9.86 7.33,10.41 7.18,10.93 7.02,11.45 6.71,11.89 6.40,12.34 5.96,12.66 5.52,12.99 5.01,13.15 4.49,13.32 3.95,13.31 3.40,13.30 2.89,13.12 2.38,12.94 1.95,12.60 1.52,12.27 1.22,11.81 0.93,11.36 0.79,10.83 0.65,10.31 0.69,9.77 0.73,9.23 0.93,8.72 1.14,8.22 1.50,7.81 1.86,7.40 2.33,7.13 2.80,6.86 2.80,6.86 2.80,6.86 3.95,6.26 5.10,5.66 6.31,5.20 7.51,4.74 9.10,4.75 10.68,4.76 11.65,5.23 12.61,5.70 12.71,7.46 12.80,9.22 11.56,8.41 10.31,7.60 8.96,6.68 7.62,5.75 6.57,5.15 5.53,4.54 4.28,3.78 3.03,3.01 1.30,2.79 -0.43,2.58 -0.73,2.49 -1.03,2.40 -1.30,2.24 -1.58,2.08 -1.80,1.86 -2.03,1.64 -2.20,1.38 -2.37,1.11 -2.46,0.81 -2.56,0.51 -2.59,0.19 -2.61,-0.11 -2.56,-0.42 -2.51,-0.73 -2.38,-1.02 -2.26,-1.31 -2.07,-1.57 -1.88,-1.82 -1.63,-2.02 -1.39,-2.21 -1.10,-2.35 -0.81,-2.48 -0.50,-2.54 -0.19,-2.61 0.11,-2.59 0.43,-2.58 0.43,-2.58 L 0.43,-2.58 Z"></path></g><g stroke-linecap="round"><g transform="translate(191 335.2614933436737) rotate(0 -5.3347712383046755 103.24370173253119)"><path d="M-0.91 -0.7 C-2.56 33.88, -9.01 172.63, -10.7 207.19 M0.82 1.55 C-0.89 35.85, -9.38 171.84, -11.49 205.69" stroke="#1e1e1e" stroke-width="2" fill="none"></path></g><g transform="translate(191 335.2614933436737) rotate(0 -5.3347712383046755 103.24370173253119)"><path d="M-18.56 181.71 C-18.14 187.83, -13.36 192.81, -11.49 205.69 M-18.56 181.71 C-15.23 190.01, -13.42 198.61, -11.49 205.69" stroke="#1e1e1e" stroke-width="2" fill="none"></path></g><g transform="translate(191 335.2614933436737) rotate(0 -5.3347712383046755 103.24370173253119)"><path d="M-1.49 182.77 C-5.03 188.52, -4.2 193.24, -11.49 205.69 M-1.49 182.77 C-4.23 190.61, -8.48 198.84, -11.49 205.69" stroke="#1e1e1e" stroke-width="2" fill="none"></path></g></g><mask></mask><g transform="translate(146 438.2614933436737) rotate(0 6 19)" stroke="none"><path fill="#1e1e1e" d="M 2.18,0 Q 2.18,0 2.06,2.58 1.95,5.17 1.86,7.42 1.78,9.67 1.71,12.06 1.65,14.46 1.60,16.62 1.56,18.79 1.64,20.29 1.72,21.78 1.81,22.99 1.90,24.21 1.98,25.29 2.07,26.38 2.20,27.74 2.34,29.10 2.44,30.45 2.55,31.80 2.59,32.43 2.64,33.06 2.60,33.38 2.56,33.70 2.45,33.99 2.33,34.29 2.15,34.55 1.97,34.82 1.73,35.03 1.50,35.24 1.21,35.39 0.93,35.53 0.62,35.61 0.31,35.69 -0.00,35.69 -0.31,35.69 -0.62,35.61 -0.93,35.53 -1.21,35.39 -1.50,35.24 -1.73,35.03 -1.97,34.82 -2.15,34.55 -2.33,34.29 -2.45,33.99 -2.56,33.70 -2.60,33.38 -2.64,33.06 -2.68,31.92 -2.72,30.79 -2.42,28.63 -2.12,26.48 -1.60,25.50 -1.09,24.52 -0.43,22.54 0.22,20.57 1.14,19.53 2.05,18.50 3.73,17.79 5.42,17.08 6.51,16.96 7.60,16.85 8.86,16.78 10.12,16.72 11.67,17.39 13.22,18.06 14.00,19.01 14.79,19.97 14.98,21.19 15.17,22.40 15.22,24.46 15.26,26.51 15.27,28.22 15.28,29.94 15.29,31.35 15.30,32.77 15.10,34.44 14.90,36.11 14.23,37.17 13.57,38.24 12.19,39.10 10.81,39.96 9.23,40.53 7.64,41.10 6.39,41.22 5.14,41.34 3.83,40.96 2.52,40.57 -0.04,39.44 -2.61,38.30 -2.91,37.83 -3.21,37.35 -3.34,36.80 -3.47,36.25 -3.42,35.69 -3.37,35.13 -3.15,34.61 -2.92,34.10 -2.54,33.68 -2.16,33.26 -1.67,32.99 -1.17,32.71 -0.62,32.61 -0.06,32.51 0.48,32.59 1.04,32.67 1.55,32.92 2.05,33.18 2.45,33.58 2.84,33.98 3.09,34.49 3.34,35.00 3.41,35.56 3.48,36.12 3.37,36.67 3.26,37.22 2.98,37.71 2.70,38.20 2.27,38.57 1.85,38.95 1.33,39.17 0.81,39.38 0.25,39.43 -0.30,39.47 -0.85,39.33 -1.40,39.19 -1.87,38.88 -2.34,38.57 -2.69,38.13 -3.04,37.69 -3.23,37.16 -3.42,36.63 -3.44,36.06 -3.45,35.50 -3.28,34.96 -3.11,34.42 -2.77,33.97 -2.44,33.51 -1.98,33.19 -1.52,32.86 -0.98,32.70 -0.44,32.54 0.11,32.56 0.68,32.58 1.21,32.77 1.73,32.97 2.17,33.33 2.61,33.69 2.61,33.69 2.61,33.69 4.57,33.88 6.53,34.07 7.60,34.06 8.67,34.05 8.68,32.59 8.68,31.13 8.70,29.85 8.71,28.56 8.67,26.67 8.62,24.77 9.43,24.04 10.24,23.30 9.16,23.31 8.08,23.32 6.70,23.19 5.31,23.07 4.94,24.38 4.57,25.69 3.92,26.95 3.27,28.22 2.99,29.50 2.72,30.79 2.68,31.92 2.64,33.06 2.60,33.38 2.56,33.70 2.45,33.99 2.33,34.29 2.15,34.55 1.97,34.82 1.73,35.03 1.50,35.24 1.21,35.39 0.93,35.53 0.62,35.61 0.31,35.69 0.00,35.69 -0.31,35.69 -0.62,35.61 -0.93,35.53 -1.21,35.39 -1.50,35.24 -1.73,35.03 -1.97,34.82 -2.15,34.55 -2.33,34.29 -2.45,33.99 -2.56,33.70 -2.60,33.38 -2.64,33.06 -2.59,32.43 -2.55,31.80 -2.44,30.45 -2.34,29.10 -2.20,27.74 -2.07,26.38 -1.98,25.29 -1.90,24.21 -1.81,22.99 -1.72,21.78 -1.64,20.29 -1.56,18.79 -1.60,16.62 -1.65,14.46 -1.71,12.06 -1.78,9.67 -1.86,7.42 -1.95,5.17 -2.06,2.58 -2.18,0 -2.14,-0.26 -2.11,-0.52 -2.02,-0.76 -1.93,-1.01 -1.78,-1.23 -1.63,-1.44 -1.43,-1.62 -1.23,-1.79 -1.00,-1.91 -0.77,-2.03 -0.51,-2.10 -0.26,-2.16 0.00,-2.16 0.26,-2.16 0.51,-2.10 0.77,-2.03 1.00,-1.91 1.23,-1.79 1.43,-1.62 1.63,-1.44 1.78,-1.22 1.93,-1.01 2.02,-0.76 2.11,-0.52 2.14,-0.26 2.18,0.00 2.18,0.00 L 2.18,0 Z"></path></g><g transform="translate(137 434.2614933436737) rotate(0 10 1.5)" stroke="none"><path fill="#1e1e1e" d="M 0,-2.59 Q 0,-2.59 1.43,-2.58 2.87,-2.57 4.10,-2.58 5.32,-2.59 7.14,-1.91 8.96,-1.22 10.58,-1.02 12.20,-0.82 14.01,-0.86 15.83,-0.90 18.30,-0.37 20.77,0.15 21.20,0.35 21.63,0.55 21.98,0.87 22.33,1.20 22.55,1.62 22.78,2.04 22.86,2.51 22.94,2.98 22.87,3.45 22.79,3.92 22.57,4.34 22.35,4.76 22.01,5.09 21.66,5.42 21.23,5.63 20.80,5.83 20.33,5.88 19.85,5.94 19.39,5.84 18.92,5.74 18.51,5.50 18.10,5.25 17.79,4.89 17.48,4.53 17.30,4.09 17.12,3.65 17.09,3.17 17.06,2.69 17.19,2.23 17.31,1.77 17.58,1.38 17.84,0.98 18.22,0.69 18.60,0.40 19.05,0.25 19.50,0.09 19.98,0.09 20.45,0.09 20.91,0.23 21.36,0.38 21.74,0.67 22.12,0.96 22.39,1.35 22.66,1.74 22.79,2.20 22.92,2.66 22.90,3.13 22.88,3.61 22.70,4.05 22.53,4.50 22.22,4.86 21.92,5.23 21.51,5.48 21.10,5.72 20.64,5.83 20.17,5.94 19.70,5.89 19.22,5.84 19.22,5.84 19.22,5.84 17.50,5.36 15.77,4.88 14.33,4.79 12.88,4.70 11.31,4.44 9.75,4.19 7.45,3.39 5.16,2.59 4.02,2.58 2.87,2.57 1.43,2.58 0,2.59 -0.31,2.55 -0.62,2.51 -0.91,2.40 -1.20,2.29 -1.46,2.11 -1.72,1.94 -1.92,1.70 -2.13,1.47 -2.28,1.19 -2.42,0.91 -2.50,0.61 -2.57,0.31 -2.57,-0.00 -2.57,-0.31 -2.50,-0.61 -2.42,-0.92 -2.28,-1.19 -2.13,-1.47 -1.92,-1.70 -1.72,-1.94 -1.46,-2.11 -1.20,-2.29 -0.91,-2.40 -0.62,-2.51 -0.31,-2.55 0.00,-2.59 0.00,-2.59 L 0,-2.59 Z"></path></g><g transform="translate(154 427.2614933436737) rotate(0 7.5 7)" stroke="none"><path fill="#1e1e1e" d="M 0.97,-2.44 Q 0.97,-2.44 2.40,-1.83 3.82,-1.23 5.46,-0.99 7.10,-0.75 8.13,-0.19 9.15,0.35 10.33,0.65 11.50,0.94 12.71,1.32 13.92,1.70 15.06,1.95 16.19,2.19 17.28,3.74 18.37,5.29 18.21,6.57 18.05,7.86 16.92,8.90 15.80,9.94 14.75,10.51 13.70,11.07 12.66,12.59 11.61,14.11 10.77,14.96 9.92,15.80 8.27,16.44 6.62,17.09 5.51,17.20 4.40,17.31 1.70,17.37 -0.98,17.43 -1.53,17.35 -2.08,17.26 -2.57,17.00 -3.07,16.74 -3.45,16.34 -3.83,15.94 -4.07,15.43 -4.31,14.93 -4.37,14.37 -4.43,13.82 -4.31,13.28 -4.19,12.73 -3.91,12.26 -3.62,11.78 -3.20,11.42 -2.78,11.05 -2.26,10.85 -1.75,10.64 -1.19,10.61 -0.64,10.57 -0.10,10.72 0.43,10.87 0.89,11.18 1.35,11.49 1.69,11.93 2.03,12.37 2.21,12.90 2.39,13.43 2.39,13.98 2.39,14.54 2.21,15.07 2.04,15.60 1.70,16.04 1.37,16.48 0.91,16.80 0.45,17.11 -0.08,17.26 -0.61,17.41 -1.17,17.38 -1.72,17.36 -2.24,17.15 -2.76,16.95 -3.18,16.59 -3.61,16.23 -3.90,15.75 -4.19,15.28 -4.31,14.74 -4.43,14.19 -4.37,13.64 -4.31,13.09 -4.08,12.58 -3.85,12.07 -3.47,11.67 -3.09,11.26 -2.59,11.00 -2.10,10.74 -1.56,10.65 -1.01,10.56 -1.01,10.56 -1.01,10.56 1.44,10.53 3.90,10.51 5.24,10.60 6.58,10.69 7.32,9.38 8.06,8.07 8.95,6.94 9.85,5.82 11.17,5.35 12.50,4.89 12.97,6.36 13.45,7.83 11.63,7.32 9.81,6.81 8.12,6.15 6.44,5.49 5.21,4.84 3.98,4.19 2.95,3.86 1.92,3.53 0.47,2.98 -0.97,2.44 -1.25,2.29 -1.53,2.13 -1.76,1.92 -2.00,1.70 -2.17,1.44 -2.35,1.18 -2.45,0.88 -2.56,0.58 -2.59,0.26 -2.63,-0.04 -2.58,-0.36 -2.54,-0.67 -2.42,-0.97 -2.30,-1.26 -2.12,-1.52 -1.93,-1.78 -1.69,-1.98 -1.45,-2.19 -1.17,-2.33 -0.88,-2.47 -0.57,-2.54 -0.26,-2.61 0.04,-2.61 0.36,-2.60 0.67,-2.52 0.97,-2.44 0.97,-2.44 L 0.97,-2.44 Z"></path></g><g transform="translate(163 454.2614933436737) rotate(0 9 1.5)" stroke="none"><path fill="#1e1e1e" d="M 0.97,-2.43 Q 0.97,-2.43 2.39,-1.82 3.82,-1.22 5.06,-0.67 6.29,-0.13 7.39,0.00 8.49,0.14 9.89,0.10 11.28,0.05 12.77,-0.01 14.26,-0.08 16.13,-0.10 18.00,-0.12 18.49,-0.04 18.99,0.04 19.44,0.27 19.89,0.51 20.23,0.88 20.58,1.24 20.79,1.70 21.00,2.16 21.06,2.66 21.11,3.16 21.01,3.66 20.90,4.15 20.64,4.58 20.38,5.02 19.99,5.34 19.60,5.67 19.14,5.86 18.67,6.05 18.16,6.07 17.66,6.10 17.17,5.96 16.68,5.83 16.26,5.55 15.85,5.26 15.54,4.86 15.24,4.46 15.07,3.98 14.91,3.50 14.91,2.99 14.91,2.49 15.07,2.01 15.24,1.53 15.54,1.13 15.85,0.73 16.27,0.44 16.68,0.16 17.17,0.02 17.66,-0.10 18.16,-0.07 18.67,-0.05 19.14,0.13 19.61,0.32 19.99,0.65 20.38,0.97 20.64,1.41 20.90,1.84 21.01,2.33 21.11,2.83 21.06,3.33 21.00,3.83 20.79,4.29 20.58,4.75 20.23,5.12 19.88,5.48 19.44,5.72 18.99,5.96 18.49,6.04 17.99,6.12 17.99,6.12 17.99,6.12 15.62,6.08 13.25,6.03 11.69,5.94 10.13,5.85 8.89,5.70 7.66,5.56 5.92,5.06 4.19,4.56 3.06,4.04 1.92,3.52 0.47,2.97 -0.97,2.43 -1.24,2.27 -1.52,2.12 -1.75,1.91 -1.99,1.70 -2.16,1.43 -2.34,1.17 -2.44,0.87 -2.55,0.58 -2.58,0.26 -2.61,-0.04 -2.57,-0.35 -2.53,-0.67 -2.41,-0.96 -2.29,-1.25 -2.11,-1.51 -1.92,-1.77 -1.68,-1.97 -1.44,-2.18 -1.16,-2.32 -0.88,-2.46 -0.57,-2.53 -0.26,-2.60 0.04,-2.59 0.36,-2.59 0.66,-2.51 0.97,-2.43 0.97,-2.43 L 0.97,-2.43 Z"></path></g><g transform="translate(199 440.2614933436737) rotate(0 3.5 15)" stroke="none"><path fill="#1e1e1e" d="M 2.25,0 Q 2.25,0 2.22,1.72 2.19,3.44 2.08,5.62 1.96,7.79 1.58,9.98 1.21,12.18 0.80,14.01 0.38,15.83 0.26,17.33 0.15,18.83 0.15,20.04 0.15,21.26 -0.30,23.08 -0.76,24.91 0.52,25.51 1.81,26.12 3.16,26.51 4.51,26.91 7.26,26.89 10.01,26.87 10.51,26.95 11.01,27.04 11.45,27.28 11.90,27.51 12.24,27.88 12.59,28.25 12.80,28.71 13.01,29.17 13.06,29.67 13.12,30.18 13.00,30.67 12.89,31.16 12.63,31.60 12.37,32.03 11.98,32.35 11.60,32.68 11.12,32.87 10.65,33.05 10.15,33.08 9.64,33.10 9.16,32.96 8.67,32.83 8.25,32.54 7.84,32.26 7.53,31.85 7.23,31.45 7.07,30.97 6.91,30.49 6.91,29.98 6.91,29.48 7.08,29.00 7.24,28.52 7.55,28.12 7.86,27.72 8.27,27.43 8.69,27.15 9.18,27.02 9.67,26.89 10.18,26.92 10.68,26.94 11.15,27.13 11.62,27.32 12.00,27.65 12.39,27.98 12.65,28.42 12.90,28.85 13.01,29.35 13.12,29.84 13.06,30.34 13.00,30.84 12.79,31.30 12.57,31.76 12.23,32.13 11.88,32.49 11.43,32.73 10.98,32.96 10.48,33.04 9.98,33.12 9.98,33.12 9.98,33.12 8.03,33.08 6.08,33.04 4.73,32.85 3.39,32.66 2.30,32.11 1.21,31.57 -0.05,31.16 -1.32,30.76 -2.44,30.03 -3.55,29.31 -4.38,28.12 -5.22,26.93 -5.17,25.31 -5.12,23.68 -4.52,22.35 -3.93,21.02 -3.78,19.72 -3.63,18.42 -3.40,16.71 -3.17,15.00 -2.76,13.34 -2.36,11.68 -2.16,9.73 -1.96,7.78 -2.08,5.61 -2.19,3.44 -2.22,1.72 -2.25,0 -2.21,-0.26 -2.18,-0.53 -2.08,-0.79 -1.99,-1.04 -1.83,-1.26 -1.68,-1.49 -1.48,-1.67 -1.27,-1.85 -1.03,-1.97 -0.79,-2.10 -0.53,-2.16 -0.27,-2.23 0.00,-2.23 0.27,-2.23 0.53,-2.16 0.79,-2.10 1.03,-1.97 1.27,-1.85 1.48,-1.67 1.68,-1.49 1.83,-1.26 1.99,-1.04 2.08,-0.79 2.18,-0.53 2.21,-0.26 2.25,0.00 2.25,0.00 L 2.25,0 Z"></path></g><g transform="translate(193 454.2614933436737) rotate(0 8 0)" stroke="none"><path fill="#1e1e1e" d="M 0,-2.63 Q 0,-2.63 1.43,-2.61 2.87,-2.60 5.01,-2.64 7.16,-2.69 8.26,-2.70 9.36,-2.72 10.73,-2.79 12.09,-2.86 14.04,-2.89 16,-2.92 16.46,-2.84 16.93,-2.77 17.35,-2.54 17.76,-2.32 18.09,-1.98 18.42,-1.64 18.61,-1.21 18.81,-0.78 18.86,-0.31 18.92,0.15 18.81,0.62 18.71,1.08 18.47,1.48 18.22,1.89 17.86,2.19 17.50,2.50 17.06,2.68 16.62,2.85 16.15,2.88 15.68,2.90 15.22,2.78 14.77,2.65 14.38,2.38 13.98,2.12 13.70,1.74 13.41,1.36 13.26,0.92 13.11,0.47 13.11,-0.00 13.11,-0.47 13.26,-0.92 13.41,-1.37 13.70,-1.74 13.98,-2.12 14.38,-2.38 14.77,-2.65 15.22,-2.78 15.68,-2.90 16.15,-2.88 16.62,-2.85 17.06,-2.68 17.50,-2.50 17.86,-2.19 18.22,-1.89 18.47,-1.48 18.71,-1.08 18.81,-0.61 18.92,-0.15 18.86,0.31 18.81,0.78 18.61,1.21 18.42,1.64 18.09,1.98 17.76,2.32 17.35,2.55 16.93,2.77 16.46,2.84 15.99,2.92 15.99,2.92 16,2.92 14.04,2.89 12.09,2.86 10.73,2.79 9.36,2.72 8.26,2.70 7.16,2.69 5.01,2.64 2.87,2.60 1.43,2.61 0,2.63 -0.31,2.59 -0.62,2.55 -0.92,2.44 -1.22,2.32 -1.48,2.14 -1.74,1.96 -1.95,1.73 -2.16,1.49 -2.31,1.21 -2.46,0.93 -2.53,0.62 -2.61,0.31 -2.61,-0.00 -2.61,-0.31 -2.53,-0.62 -2.46,-0.93 -2.31,-1.21 -2.16,-1.49 -1.95,-1.73 -1.74,-1.96 -1.48,-2.14 -1.22,-2.32 -0.92,-2.44 -0.62,-2.55 -0.31,-2.59 0.00,-2.63 0.00,-2.63 L 0,-2.63 Z"></path></g><g transform="translate(226 456.2614933436737) rotate(0 -0.5 5)" stroke="none"><path fill="#1e1e1e" d="M -1.75,1.05 Q -1.75,1.05 -2.62,-0.38 -3.48,-1.81 -4.37,-2.87 -5.26,-3.93 -6.35,-5.18 -7.44,-6.43 -7.54,-6.70 -7.63,-6.96 -7.66,-7.25 -7.69,-7.53 -7.65,-7.82 -7.62,-8.10 -7.51,-8.37 -7.40,-8.63 -7.24,-8.87 -7.07,-9.10 -6.85,-9.29 -6.64,-9.47 -6.38,-9.60 -6.13,-9.73 -5.85,-9.79 -5.57,-9.86 -5.28,-9.85 -5.00,-9.85 -4.72,-9.78 -4.44,-9.70 -4.19,-9.57 -3.94,-9.43 -3.73,-9.24 -3.52,-9.05 -3.36,-8.81 -3.20,-8.57 -4.04,-6.18 -4.88,-3.80 -5.17,-2.20 -5.45,-0.59 -5.91,1.18 -6.37,2.97 -7.25,5.19 -8.12,7.41 -8.74,9.18 -9.36,10.95 -9.87,12.36 -10.38,13.76 -9.39,14.49 -8.39,15.22 -7.41,14.41 -6.43,13.60 -6.24,12.50 -6.05,11.39 -6.04,10.25 -6.02,9.11 -5.67,7.18 -5.32,5.25 -4.85,3.68 -4.39,2.10 -4.26,1.44 -4.13,0.79 -3.95,0.45 -3.76,0.12 -3.51,-0.15 -3.25,-0.43 -2.93,-0.64 -2.62,-0.85 -2.26,-0.97 -1.90,-1.10 -1.53,-1.14 -1.15,-1.18 -0.78,-1.13 -0.40,-1.07 -0.05,-0.93 0.29,-0.79 0.60,-0.57 0.91,-0.35 1.16,-0.06 1.40,0.22 1.57,0.55 1.74,0.89 1.83,1.26 1.91,1.63 1.90,2.01 1.89,2.39 1.80,2.76 1.70,3.12 2.58,5.35 3.46,7.58 3.68,9.53 3.90,11.48 5.05,12.69 6.20,13.90 8.09,12.66 9.98,11.41 10.44,11.16 10.91,10.90 11.43,10.81 11.95,10.71 12.48,10.79 13.00,10.87 13.47,11.11 13.95,11.36 14.32,11.74 14.69,12.12 14.91,12.60 15.14,13.08 15.21,13.60 15.27,14.13 15.17,14.65 15.06,15.17 14.79,15.63 14.52,16.09 14.12,16.43 13.72,16.78 13.23,16.99 12.74,17.19 12.21,17.23 11.68,17.26 11.17,17.13 10.66,16.99 10.21,16.70 9.77,16.41 9.44,15.99 9.12,15.57 8.94,15.07 8.76,14.57 8.76,14.04 8.75,13.51 8.91,13.00 9.08,12.50 9.39,12.07 9.71,11.64 10.14,11.34 10.58,11.04 11.09,10.89 11.60,10.74 12.13,10.76 12.66,10.78 13.15,10.97 13.65,11.16 14.06,11.50 14.47,11.84 14.75,12.29 15.03,12.74 15.15,13.26 15.27,13.77 15.22,14.30 15.17,14.83 14.95,15.32 14.73,15.80 14.37,16.19 14.01,16.58 14.01,16.58 14.01,16.58 11.02,18.35 8.02,20.12 6.14,19.97 4.27,19.81 3.09,19.15 1.92,18.48 0.37,17.02 -1.16,15.55 -1.59,14.38 -2.02,13.21 -2.05,11.69 -2.08,10.18 -2.35,8.45 -2.63,6.73 -3.40,4.96 -4.16,3.19 -4.15,1.99 -4.13,0.79 -3.95,0.45 -3.76,0.12 -3.51,-0.15 -3.25,-0.43 -2.93,-0.64 -2.62,-0.85 -2.26,-0.97 -1.91,-1.10 -1.53,-1.14 -1.15,-1.18 -0.78,-1.13 -0.40,-1.07 -0.05,-0.93 0.29,-0.79 0.60,-0.57 0.91,-0.35 1.16,-0.06 1.40,0.22 1.57,0.55 1.74,0.89 1.82,1.26 1.91,1.63 1.90,2.01 1.89,2.39 1.80,2.76 1.70,3.12 1.27,4.33 0.85,5.55 0.43,6.80 0.00,8.04 -0.08,9.63 -0.17,11.21 -0.55,12.85 -0.93,14.48 -1.59,15.88 -2.25,17.28 -3.67,18.64 -5.09,19.99 -6.44,20.35 -7.79,20.72 -9.12,20.51 -10.45,20.30 -11.38,19.72 -12.32,19.13 -13.60,17.75 -14.88,16.36 -14.44,14.32 -13.99,12.29 -13.41,11.03 -12.82,9.77 -12.23,7.98 -11.63,6.18 -10.99,4.08 -10.36,1.97 -9.96,0.35 -9.57,-1.27 -8.50,-3.85 -7.44,-6.43 -7.54,-6.70 -7.63,-6.96 -7.66,-7.25 -7.69,-7.53 -7.65,-7.82 -7.62,-8.10 -7.51,-8.37 -7.40,-8.63 -7.24,-8.87 -7.07,-9.10 -6.85,-9.29 -6.64,-9.47 -6.38,-9.60 -6.13,-9.73 -5.85,-9.79 -5.57,-9.86 -5.28,-9.85 -5.00,-9.85 -4.72,-9.78 -4.44,-9.71 -4.19,-9.57 -3.94,-9.43 -3.73,-9.24 -3.52,-9.05 -3.36,-8.81 -3.20,-8.57 -2.57,-7.56 -1.94,-6.55 -0.95,-5.24 0.03,-3.93 0.89,-2.49 1.75,-1.05 1.85,-0.82 1.95,-0.60 2.00,-0.36 2.04,-0.11 2.03,0.12 2.01,0.37 1.94,0.61 1.86,0.84 1.73,1.05 1.60,1.26 1.43,1.44 1.25,1.61 1.04,1.74 0.83,1.87 0.59,1.94 0.36,2.01 0.11,2.03 -0.13,2.04 -0.37,1.99 -0.61,1.95 -0.84,1.85 -1.06,1.75 -1.25,1.59 -1.45,1.44 -1.60,1.24 -1.75,1.05 -1.75,1.05 L -1.75,1.05 Z"></path></g><g transform="translate(214 440.2614933436737) rotate(0 11 0)" stroke="none"><path fill="#1e1e1e" d="M 0,-2.51 Q 0,-2.51 1.43,-2.51 2.87,-2.50 4.63,-2.44 6.39,-2.38 8.00,-2.36 9.61,-2.34 10.87,-2.37 12.13,-2.41 13.24,-2.45 14.35,-2.49 15.72,-2.58 17.09,-2.67 19.54,-2.74 22,-2.81 22.44,-2.73 22.89,-2.66 23.30,-2.45 23.70,-2.23 24.01,-1.90 24.32,-1.57 24.51,-1.16 24.71,-0.75 24.76,-0.30 24.80,0.15 24.71,0.59 24.61,1.04 24.37,1.43 24.14,1.82 23.79,2.11 23.45,2.41 23.02,2.57 22.60,2.74 22.15,2.77 21.69,2.79 21.25,2.67 20.81,2.55 20.44,2.29 20.06,2.04 19.78,1.67 19.51,1.31 19.36,0.88 19.22,0.45 19.22,-0.00 19.22,-0.45 19.36,-0.88 19.51,-1.31 19.78,-1.68 20.06,-2.04 20.44,-2.29 20.81,-2.55 21.25,-2.67 21.69,-2.79 22.15,-2.77 22.60,-2.74 23.02,-2.57 23.45,-2.41 23.79,-2.11 24.14,-1.82 24.37,-1.43 24.61,-1.04 24.71,-0.59 24.80,-0.15 24.76,0.30 24.71,0.75 24.51,1.16 24.32,1.57 24.01,1.90 23.70,2.24 23.29,2.45 22.89,2.66 22.44,2.73 21.99,2.81 21.99,2.81 22,2.81 19.54,2.74 17.09,2.67 15.72,2.58 14.35,2.49 13.24,2.45 12.13,2.41 10.87,2.37 9.61,2.34 8.00,2.36 6.39,2.38 4.63,2.44 2.87,2.50 1.43,2.51 0,2.51 -0.30,2.48 -0.60,2.44 -0.88,2.33 -1.17,2.23 -1.42,2.05 -1.67,1.88 -1.87,1.65 -2.07,1.43 -2.21,1.16 -2.35,0.89 -2.42,0.59 -2.50,0.30 -2.50,-0.00 -2.50,-0.30 -2.42,-0.59 -2.35,-0.89 -2.21,-1.16 -2.07,-1.43 -1.87,-1.65 -1.67,-1.88 -1.42,-2.05 -1.17,-2.23 -0.88,-2.33 -0.60,-2.44 -0.30,-2.48 0.00,-2.51 0.00,-2.51 L 0,-2.51 Z"></path></g><g transform="translate(229 430.2614933436737) rotate(0 6 7)" stroke="none"><path fill="#1e1e1e" d="M 0,-2.63 Q 0,-2.63 1.22,-2.63 2.45,-2.63 4.08,-1.92 5.71,-1.21 6.94,-0.25 8.18,0.71 8.86,1.56 9.54,2.41 10.87,2.78 12.21,3.15 12.96,5.63 13.72,8.12 12.75,9.33 11.79,10.54 10.48,11.46 9.18,12.38 7.24,14.76 5.30,17.13 4.90,17.44 4.50,17.75 4.02,17.92 3.54,18.09 3.03,18.09 2.52,18.10 2.04,17.94 1.56,17.79 1.15,17.48 0.74,17.18 0.45,16.76 0.16,16.35 0.02,15.86 -0.11,15.37 -0.09,14.86 -0.07,14.36 0.10,13.88 0.29,13.41 0.61,13.02 0.93,12.63 1.37,12.36 1.80,12.09 2.29,11.98 2.79,11.86 3.29,11.91 3.80,11.96 4.26,12.17 4.73,12.38 5.10,12.72 5.47,13.07 5.72,13.51 5.96,13.96 6.05,14.46 6.13,14.96 6.06,15.46 5.98,15.96 5.75,16.41 5.52,16.87 5.15,17.22 4.79,17.57 4.33,17.79 3.87,18.01 3.37,18.07 2.86,18.13 2.36,18.03 1.87,17.93 1.43,17.67 0.99,17.41 0.66,17.03 0.32,16.65 0.13,16.18 -0.05,15.71 -0.09,15.20 -0.12,14.69 0.00,14.20 0.13,13.71 0.41,13.29 0.69,12.86 0.69,12.86 0.69,12.86 2.05,11.39 3.40,9.91 4.27,8.78 5.13,7.65 6.38,6.85 7.63,6.04 8.56,5.42 9.50,4.81 9.73,6.57 9.95,8.34 8.42,7.70 6.89,7.06 5.83,5.96 4.78,4.86 3.46,3.75 2.14,2.63 1.07,2.63 0,2.63 -0.31,2.59 -0.63,2.56 -0.92,2.44 -1.22,2.33 -1.48,2.15 -1.74,1.97 -1.95,1.73 -2.17,1.49 -2.31,1.21 -2.46,0.93 -2.54,0.62 -2.61,0.31 -2.61,-0.00 -2.61,-0.31 -2.54,-0.62 -2.46,-0.93 -2.31,-1.21 -2.17,-1.49 -1.95,-1.73 -1.74,-1.97 -1.48,-2.15 -1.22,-2.33 -0.92,-2.44 -0.63,-2.56 -0.31,-2.59 0.00,-2.63 0.00,-2.63 L 0,-2.63 Z"></path></g><g transform="translate(181 556.2614933436737) rotate(0 -4.5 16.5)" stroke="none"><path fill="#1e1e1e" d="M 1.46,-2.20 Q 1.46,-2.20 2.41,-1.56 3.37,-0.92 4.17,0.37 4.98,1.66 5.18,3.76 5.39,5.86 3.88,6.99 2.36,8.12 0.90,7.87 -0.56,7.62 -1.89,6.83 -3.21,6.04 -4.64,6.16 -6.07,6.27 -7.88,7.39 -9.69,8.51 -10.81,9.55 -11.92,10.59 -12.87,12.00 -13.81,13.42 -14.10,14.75 -14.39,16.07 -14.90,18.22 -15.40,20.37 -15.53,21.64 -15.66,22.90 -15.69,24.34 -15.71,25.77 -15.73,27.30 -15.75,28.84 -14.29,29.61 -12.83,30.39 -11.83,29.99 -10.83,29.58 -8.83,29.64 -6.82,29.70 -4.85,29.15 -2.88,28.61 -1.48,28.23 -0.09,27.86 1.07,26.98 2.23,26.10 3.81,25.44 5.39,24.79 6.55,23.32 7.71,21.85 8.11,21.54 8.51,21.23 8.99,21.07 9.47,20.90 9.98,20.90 10.49,20.90 10.97,21.06 11.45,21.22 11.86,21.52 12.26,21.83 12.55,22.25 12.84,22.66 12.97,23.15 13.11,23.64 13.09,24.15 13.06,24.65 12.88,25.13 12.69,25.60 12.36,25.99 12.04,26.38 11.60,26.64 11.17,26.90 10.67,27.02 10.18,27.13 9.67,27.07 9.17,27.02 8.71,26.81 8.25,26.60 7.88,26.25 7.51,25.91 7.27,25.46 7.03,25.01 6.94,24.51 6.86,24.01 6.94,23.51 7.02,23.01 7.25,22.56 7.49,22.11 7.86,21.76 8.22,21.41 8.68,21.19 9.14,20.98 9.65,20.92 10.15,20.86 10.65,20.97 11.14,21.08 11.58,21.34 12.01,21.59 12.35,21.98 12.68,22.37 12.87,22.84 13.06,23.31 13.09,23.81 13.12,24.32 12.98,24.81 12.85,25.30 12.57,25.72 12.28,26.14 12.28,26.14 12.28,26.14 10.19,28.23 8.10,30.31 7.05,30.78 6.01,31.24 5.00,31.66 3.99,32.08 2.93,32.79 1.87,33.49 0.41,34.04 -1.03,34.59 -2.41,35.07 -3.79,35.56 -5.28,35.92 -6.77,36.29 -8.01,36.33 -9.25,36.37 -10.76,36.35 -12.26,36.33 -14.05,36.10 -15.84,35.86 -17.42,34.85 -18.99,33.84 -20.13,32.78 -21.27,31.72 -21.75,30.42 -22.23,29.12 -22.24,27.40 -22.25,25.68 -22.19,24.07 -22.14,22.45 -22.06,21.36 -21.97,20.27 -21.51,18.55 -21.06,16.84 -20.85,15.21 -20.65,13.59 -20.25,12.33 -19.86,11.07 -18.77,9.49 -17.69,7.91 -17.12,6.94 -16.55,5.97 -15.29,4.86 -14.03,3.74 -12.78,3.06 -11.52,2.38 -10.18,1.45 -8.84,0.51 -6.79,0.15 -4.73,-0.20 -3.04,-0.02 -1.36,0.15 -0.34,0.72 0.66,1.28 1.53,2.22 2.39,3.16 1.23,3.19 0.07,3.22 -0.69,2.71 -1.46,2.20 -1.70,1.99 -1.95,1.78 -2.13,1.52 -2.32,1.26 -2.43,0.97 -2.55,0.67 -2.60,0.35 -2.64,0.04 -2.61,-0.27 -2.57,-0.59 -2.46,-0.89 -2.36,-1.19 -2.18,-1.45 -2.00,-1.72 -1.77,-1.93 -1.53,-2.15 -1.25,-2.30 -0.97,-2.45 -0.66,-2.53 -0.36,-2.61 -0.04,-2.62 0.27,-2.63 0.58,-2.55 0.89,-2.48 1.18,-2.34 1.46,-2.20 1.46,-2.20 L 1.46,-2.20 Z"></path></g><g transform="translate(88 548.2614933436737) rotate(0 2.5 15)" stroke="none"><path fill="#1e1e1e" d="M 2.32,0 Q 2.32,0 2.28,1.72 2.25,3.44 2.24,5.04 2.24,6.64 2.25,8.18 2.25,9.73 1.53,12.60 0.81,15.48 0.24,17.27 -0.31,19.06 -0.45,20.24 -0.59,21.43 -0.58,23.08 -0.57,24.72 -0.49,25.95 -0.41,27.17 1.40,26.72 3.22,26.27 5.58,26.13 7.95,25.99 8.43,26.07 8.91,26.14 9.34,26.36 9.77,26.58 10.11,26.93 10.45,27.27 10.66,27.71 10.87,28.15 10.93,28.63 10.99,29.11 10.90,29.59 10.80,30.06 10.55,30.48 10.31,30.90 9.95,31.22 9.58,31.54 9.13,31.73 8.68,31.92 8.20,31.95 7.72,31.98 7.25,31.86 6.78,31.74 6.37,31.47 5.96,31.20 5.66,30.82 5.37,30.44 5.20,29.98 5.04,29.52 5.03,29.04 5.03,28.55 5.18,28.09 5.32,27.63 5.61,27.24 5.90,26.85 6.30,26.57 6.69,26.29 7.16,26.15 7.63,26.02 8.11,26.04 8.60,26.06 9.05,26.23 9.50,26.40 9.88,26.71 10.25,27.02 10.51,27.43 10.77,27.84 10.88,28.32 10.99,28.79 10.94,29.27 10.90,29.75 10.70,30.20 10.50,30.64 10.17,31.00 9.85,31.36 9.42,31.59 8.99,31.82 8.52,31.91 8.04,32.00 8.04,32.00 8.04,32.00 6.58,32.00 5.13,32.01 3.67,32.08 2.22,32.15 0.77,32.41 -0.66,32.68 -2.28,32.33 -3.90,31.98 -4.60,31.04 -5.30,30.09 -5.43,28.60 -5.56,27.11 -5.43,25.81 -5.30,24.51 -5.02,22.61 -4.73,20.71 -4.42,19.30 -4.10,17.88 -3.61,16.25 -3.11,14.63 -2.68,12.17 -2.25,9.71 -2.25,8.17 -2.24,6.64 -2.24,5.04 -2.25,3.44 -2.28,1.72 -2.32,0 -2.28,-0.27 -2.25,-0.55 -2.15,-0.81 -2.05,-1.07 -1.89,-1.30 -1.73,-1.53 -1.52,-1.72 -1.31,-1.91 -1.07,-2.04 -0.82,-2.17 -0.55,-2.23 -0.27,-2.30 0.00,-2.30 0.27,-2.30 0.55,-2.23 0.82,-2.17 1.07,-2.04 1.31,-1.91 1.52,-1.72 1.73,-1.53 1.89,-1.30 2.05,-1.07 2.15,-0.81 2.25,-0.55 2.28,-0.27 2.32,0.00 2.32,0.00 L 2.32,0 Z"></path></g><g transform="translate(76 562.2614933436737) rotate(0 13.5 -0.5)" stroke="none"><path fill="#1e1e1e" d="M 0,-2.38 Q 0,-2.38 2.3,-2.24 4.6,-2.10 6.43,-2.07 8.28,-2.03 9.91,-2.04 11.55,-2.05 12.60,-2.37 13.64,-2.68 15.18,-2.86 16.73,-3.04 17.94,-3.14 19.16,-3.25 20.26,-3.32 21.36,-3.39 24.17,-3.50 26.98,-3.61 27.40,-3.54 27.82,-3.47 28.19,-3.28 28.57,-3.08 28.86,-2.77 29.15,-2.47 29.33,-2.09 29.51,-1.70 29.56,-1.28 29.60,-0.86 29.51,-0.45 29.43,-0.04 29.21,0.32 28.99,0.68 28.67,0.95 28.35,1.23 27.96,1.39 27.57,1.54 27.14,1.57 26.72,1.59 26.31,1.48 25.91,1.37 25.56,1.13 25.21,0.90 24.95,0.56 24.69,0.23 24.56,-0.16 24.42,-0.56 24.42,-0.99 24.42,-1.41 24.55,-1.81 24.68,-2.21 24.94,-2.55 25.19,-2.88 25.54,-3.12 25.89,-3.36 26.30,-3.48 26.70,-3.59 27.12,-3.57 27.55,-3.55 27.94,-3.39 28.33,-3.24 28.66,-2.97 28.98,-2.69 29.20,-2.33 29.42,-1.97 29.51,-1.56 29.60,-1.15 29.56,-0.73 29.51,-0.31 29.34,0.07 29.16,0.45 28.87,0.76 28.58,1.07 28.21,1.27 27.84,1.47 27.42,1.54 27.00,1.61 27.00,1.61 27.01,1.61 25.25,1.57 23.49,1.53 21.43,1.46 19.37,1.40 18.24,1.40 17.11,1.40 15.85,1.47 14.59,1.53 13.08,1.79 11.58,2.05 9.93,2.04 8.28,2.03 6.43,2.07 4.6,2.10 2.3,2.24 0,2.38 -0.28,2.35 -0.57,2.31 -0.83,2.21 -1.10,2.11 -1.34,1.94 -1.58,1.78 -1.77,1.57 -1.96,1.35 -2.09,1.10 -2.23,0.84 -2.29,0.56 -2.36,0.28 -2.36,-0.00 -2.36,-0.28 -2.29,-0.56 -2.23,-0.84 -2.09,-1.10 -1.96,-1.35 -1.77,-1.57 -1.58,-1.78 -1.34,-1.94 -1.10,-2.11 -0.83,-2.21 -0.57,-2.31 -0.28,-2.35 0.00,-2.38 0.00,-2.38 L 0,-2.38 Z"></path></g><g transform="translate(116 562.2614933436737) rotate(0 -1.5 6)" stroke="none"><path fill="#1e1e1e" d="M -1.87,1.87 Q -1.87,1.87 -2.73,1.03 -3.59,0.18 -4.79,0.02 -5.99,-0.13 -6.83,1.54 -7.66,3.21 -8.60,5.07 -9.54,6.94 -9.68,8.83 -9.82,10.72 -8.46,11.20 -7.10,11.68 -5.97,9.99 -4.83,8.30 -4.17,7.25 -3.52,6.21 -2.81,4.72 -2.11,3.24 -1.25,1.85 -0.39,0.47 -0.17,0.17 0.03,-0.12 0.31,-0.36 0.59,-0.60 0.92,-0.76 1.26,-0.93 1.61,-1.01 1.97,-1.09 2.34,-1.08 2.71,-1.07 3.07,-0.98 3.42,-0.88 3.75,-0.70 4.07,-0.53 4.34,-0.27 4.61,-0.02 4.82,0.27 5.02,0.58 5.14,0.93 5.27,1.28 5.30,1.64 5.34,2.01 5.29,2.38 5.23,2.74 5.10,3.08 4.96,3.42 5.12,2.20 5.28,0.97 5.62,2.27 5.95,3.57 6.04,5.26 6.13,6.95 6.17,8.07 6.21,9.20 8.15,8.93 10.08,8.65 10.61,8.76 11.15,8.86 11.62,9.12 12.09,9.39 12.45,9.79 12.81,10.19 13.02,10.69 13.24,11.19 13.28,11.73 13.33,12.26 13.20,12.79 13.07,13.31 12.77,13.77 12.48,14.22 12.06,14.56 11.64,14.90 11.13,15.09 10.63,15.28 10.09,15.29 9.55,15.31 9.03,15.15 8.51,14.99 8.07,14.67 7.63,14.36 7.32,13.92 7.00,13.48 6.84,12.96 6.68,12.45 6.70,11.91 6.71,11.37 6.90,10.86 7.09,10.35 7.42,9.93 7.76,9.51 8.22,9.22 8.67,8.93 9.20,8.80 9.72,8.66 10.26,8.71 10.80,8.75 11.30,8.97 11.79,9.18 12.20,9.54 12.60,9.90 12.86,10.37 13.13,10.84 13.23,11.37 13.34,11.90 13.26,12.44 13.19,12.97 12.95,13.46 12.71,13.94 12.33,14.33 11.95,14.71 11.46,14.95 10.98,15.19 10.44,15.26 9.91,15.34 9.91,15.34 9.91,15.34 6.95,15.03 3.99,14.73 3.02,14.23 2.04,13.74 0.90,11.48 -0.22,9.23 -0.20,8.16 -0.17,7.10 -0.03,5.61 0.10,4.13 -0.14,2.30 -0.39,0.47 -0.17,0.17 0.03,-0.12 0.31,-0.36 0.59,-0.60 0.92,-0.76 1.25,-0.93 1.61,-1.01 1.97,-1.09 2.34,-1.08 2.71,-1.07 3.07,-0.98 3.42,-0.88 3.75,-0.70 4.07,-0.53 4.34,-0.27 4.61,-0.02 4.82,0.27 5.02,0.58 5.14,0.93 5.27,1.28 5.30,1.64 5.34,2.01 5.29,2.38 5.23,2.74 5.10,3.08 4.96,3.42 4.46,4.06 3.96,4.70 3.15,5.95 2.33,7.20 1.92,8.19 1.50,9.18 0.79,10.43 0.07,11.68 -0.79,13.13 -1.67,14.57 -3.24,16.15 -4.81,17.73 -6.86,17.98 -8.91,18.23 -10.31,18.03 -11.70,17.82 -12.68,17.34 -13.65,16.87 -14.47,15.87 -15.30,14.87 -15.71,13.41 -16.11,11.96 -16.04,10.18 -15.97,8.40 -15.49,6.30 -15.02,4.21 -14.55,3.24 -14.07,2.27 -13.19,0.55 -12.32,-1.16 -10.93,-2.70 -9.54,-4.25 -7.20,-5.01 -4.86,-5.76 -3.28,-5.31 -1.70,-4.86 -0.77,-4.25 0.14,-3.63 1.01,-2.75 1.87,-1.87 2.07,-1.62 2.27,-1.37 2.40,-1.08 2.53,-0.79 2.59,-0.47 2.65,-0.16 2.63,0.15 2.61,0.47 2.51,0.78 2.42,1.09 2.25,1.36 2.09,1.63 1.86,1.86 1.63,2.09 1.36,2.25 1.09,2.42 0.78,2.51 0.47,2.61 0.15,2.63 -0.16,2.65 -0.47,2.59 -0.79,2.53 -1.08,2.40 -1.37,2.27 -1.62,2.07 -1.87,1.87 -1.87,1.87 L -1.87,1.87 Z"></path></g><g transform="translate(103 551.2614933436737) rotate(0 10.5 -1)" stroke="none"><path fill="#1e1e1e" d="M 0,-2.60 Q 0,-2.60 1.43,-2.59 2.87,-2.58 4.05,-2.60 5.23,-2.62 6.34,-2.87 7.44,-3.12 8.71,-3.28 9.97,-3.44 11.60,-3.98 13.22,-4.53 14.93,-4.69 16.63,-4.85 18.81,-4.90 20.98,-4.94 21.46,-4.87 21.93,-4.79 22.35,-4.57 22.77,-4.35 23.10,-4.00 23.43,-3.66 23.63,-3.23 23.83,-2.79 23.89,-2.32 23.94,-1.85 23.84,-1.38 23.74,-0.91 23.49,-0.50 23.25,-0.09 22.89,0.21 22.52,0.52 22.08,0.69 21.64,0.87 21.16,0.90 20.69,0.93 20.23,0.80 19.77,0.68 19.37,0.41 18.97,0.14 18.68,-0.23 18.39,-0.60 18.24,-1.06 18.09,-1.51 18.08,-1.98 18.08,-2.46 18.23,-2.91 18.38,-3.37 18.67,-3.75 18.96,-4.13 19.35,-4.40 19.75,-4.67 20.21,-4.80 20.67,-4.93 21.14,-4.90 21.62,-4.88 22.06,-4.70 22.51,-4.53 22.87,-4.22 23.24,-3.91 23.48,-3.50 23.73,-3.10 23.84,-2.63 23.94,-2.17 23.89,-1.69 23.84,-1.22 23.64,-0.78 23.44,-0.35 23.12,-0.00 22.79,0.34 22.37,0.56 21.95,0.79 21.48,0.87 21.01,0.94 21.01,0.94 21.01,0.94 18.13,0.93 15.26,0.92 14.08,0.96 12.91,1.00 10.71,1.48 8.51,1.97 6.88,2.29 5.25,2.62 4.06,2.60 2.87,2.58 1.43,2.59 0,2.60 -0.31,2.56 -0.62,2.53 -0.91,2.42 -1.21,2.30 -1.47,2.13 -1.72,1.95 -1.93,1.71 -2.14,1.48 -2.29,1.20 -2.43,0.92 -2.51,0.61 -2.58,0.31 -2.58,-0.00 -2.58,-0.31 -2.51,-0.61 -2.43,-0.92 -2.29,-1.20 -2.14,-1.48 -1.93,-1.71 -1.72,-1.95 -1.47,-2.13 -1.21,-2.30 -0.91,-2.42 -0.62,-2.53 -0.31,-2.56 0.00,-2.60 0.00,-2.60 L 0,-2.60 Z"></path></g><g transform="translate(122 545.2614933436737) rotate(0 6.5 5.5)" stroke="none"><path fill="#1e1e1e" d="M 2.22,-1.48 Q 2.22,-1.48 2.81,-0.63 3.41,0.21 4.42,1.02 5.43,1.83 6.63,2.41 7.83,2.99 9.08,2.91 10.33,2.84 11.59,2.82 12.84,2.80 12.89,2.80 12.93,2.79 13.32,2.84 13.70,2.89 14.06,3.03 14.42,3.16 14.74,3.38 15.05,3.60 15.31,3.89 15.56,4.18 15.74,4.53 15.92,4.87 16.01,5.24 16.10,5.62 16.10,6.00 16.10,6.39 16.01,6.76 15.91,7.14 15.73,7.48 15.55,7.82 15.30,8.11 15.04,8.40 14.72,8.61 14.40,8.83 14.04,8.97 13.68,9.10 13.30,9.15 12.92,9.19 11.33,11.03 9.75,12.87 9.38,13.26 9.01,13.65 8.53,13.90 8.05,14.15 7.52,14.24 6.99,14.32 6.46,14.24 5.93,14.15 5.45,13.90 4.98,13.64 4.61,13.25 4.24,12.86 4.01,12.37 3.79,11.88 3.73,11.35 3.67,10.81 3.79,10.28 3.90,9.76 4.18,9.30 4.46,8.84 4.87,8.49 5.28,8.14 5.78,7.94 6.28,7.74 6.82,7.71 7.36,7.69 7.88,7.83 8.40,7.98 8.84,8.28 9.29,8.58 9.61,9.01 9.94,9.44 10.11,9.95 10.28,10.46 10.28,11.00 10.28,11.54 10.11,12.05 9.93,12.56 9.61,12.99 9.28,13.41 8.83,13.72 8.39,14.02 7.87,14.16 7.35,14.30 6.81,14.28 6.27,14.25 5.77,14.05 5.27,13.85 4.86,13.50 4.45,13.15 4.18,12.68 3.90,12.22 3.79,11.70 3.67,11.17 3.73,10.64 3.79,10.10 4.02,9.61 4.24,9.12 4.24,9.12 4.24,9.12 5.88,7.51 7.51,5.89 8.87,5.07 10.22,4.25 11.58,3.52 12.93,2.79 13.32,2.84 13.70,2.89 14.06,3.03 14.42,3.16 14.74,3.38 15.05,3.60 15.31,3.89 15.56,4.18 15.74,4.53 15.92,4.87 16.01,5.24 16.10,5.62 16.10,6.00 16.10,6.39 16.01,6.76 15.91,7.14 15.73,7.48 15.55,7.82 15.30,8.11 15.04,8.39 14.72,8.61 14.40,8.83 14.04,8.97 13.68,9.10 13.30,9.15 12.92,9.19 12.87,9.19 12.82,9.19 11.50,9.15 10.17,9.11 9.00,9.01 7.82,8.91 6.17,8.38 4.52,7.85 3.36,7.17 2.20,6.48 0.54,4.86 -1.11,3.23 -1.66,2.35 -2.22,1.48 -2.36,1.19 -2.51,0.90 -2.58,0.59 -2.65,0.27 -2.65,-0.04 -2.64,-0.36 -2.56,-0.67 -2.48,-0.98 -2.32,-1.27 -2.17,-1.55 -1.95,-1.79 -1.73,-2.02 -1.47,-2.20 -1.20,-2.38 -0.90,-2.49 -0.59,-2.60 -0.27,-2.63 0.04,-2.67 0.36,-2.62 0.68,-2.58 0.98,-2.46 1.28,-2.34 1.54,-2.15 1.80,-1.97 2.01,-1.72 2.22,-1.48 2.22,-1.48 L 2.22,-1.48 Z"></path></g></svg>