<svg version="1.1" xmlns="http://www.w3.org/2000/svg" viewBox="0 0 1591.5128007292747 419.4915239930153" width="1591.5128007292747" height="419.4915239930153" class="excalidraw-svg"><!-- svg-source:excalidraw --><metadata></metadata><defs><style class="style-fonts">
      </style></defs><rect x="0" y="0" width="1591.5128007292747" height="419.4915239930153" fill="#ffffff"></rect><g stroke-linecap="round"><g transform="translate(10.899626807495906 212.62473795823752) rotate(0 784.8567735571414 -0.8123927785654139)"><path d="M-0.9 -0.29 C260.91 -0.27, 1308.81 0.33, 1570.61 0.25 M0.83 -1.48 C262.56 -1.86, 1308.6 -2.01, 1569.99 -1.75" stroke="#1e1e1e" stroke-width="2" fill="none"></path></g><g transform="translate(10.899626807495906 212.62473795823752) rotate(0 784.8567735571414 -0.8123927785654139)"><path d="M1546.49 6.79 C1552.57 5.6, 1560.02 2.11, 1569.99 -1.75 M1546.49 6.79 C1552.06 3.95, 1558.38 2.08, 1569.99 -1.75" stroke="#1e1e1e" stroke-width="2" fill="none"></path></g><g transform="translate(10.899626807495906 212.62473795823752) rotate(0 784.8567735571414 -0.8123927785654139)"><path d="M1546.5 -10.31 C1552.6 -6.72, 1560.05 -5.44, 1569.99 -1.75 M1546.5 -10.31 C1551.9 -9.18, 1558.22 -7.09, 1569.99 -1.75" stroke="#1e1e1e" stroke-width="2" fill="none"></path></g></g><mask></mask><g stroke-linecap="round"><g transform="translate(766.2329703133553 408.6247379582375) rotate(0 0.12969177424911038 -198.87897596172988)"><path d="M0.7 0.87 C0.58 -65.71, -0.9 -332.08, -0.97 -398.62 M-0.39 0.28 C-0.12 -66.16, 1.23 -330.87, 1.23 -397.07" stroke="#1e1e1e" stroke-width="2" fill="none"></path></g><g transform="translate(766.2329703133553 408.6247379582375) rotate(0 0.12969177424911038 -198.87897596172988)"><path d="M9.71 -373.55 C8.63 -381.69, 4.88 -386.24, 1.23 -397.07 M9.71 -373.55 C6.38 -380.72, 4.11 -389.17, 1.23 -397.07" stroke="#1e1e1e" stroke-width="2" fill="none"></path></g><g transform="translate(766.2329703133553 408.6247379582375) rotate(0 0.12969177424911038 -198.87897596172988)"><path d="M-7.39 -373.6 C-3.69 -381.83, -2.66 -386.36, 1.23 -397.07 M-7.39 -373.6 C-5.17 -380.78, -1.9 -389.21, 1.23 -397.07" stroke="#1e1e1e" stroke-width="2" fill="none"></path></g></g><mask></mask><g stroke-linecap="round"><g transform="translate(768.2329703133553 146.62473795823752) rotate(0 33.10560116515494 31.94458686446771)"><path d="M-0.86 0 C9.77 10.44, 53.64 53.11, 64.7 63.61 M0.88 -1.05 C11.83 9.48, 56.42 54.14, 67.07 64.94" stroke="#1e1e1e" stroke-width="2" fill="none"></path></g></g><mask></mask><g stroke-linecap="round"><g transform="translate(763.5662833016365 147.29142496995627) rotate(0 -22.187012844383716 32.0187334087491)"><path d="M0.59 -0.21 C-6.65 10.53, -36.56 54.45, -44.24 65.4 M-0.56 -1.36 C-7.85 8.95, -37.88 52.84, -44.97 63.66" stroke="#1e1e1e" stroke-width="2" fill="none"></path></g></g><mask></mask><g stroke-linecap="round"><g transform="translate(653.1273691482004 146.68018161134793) rotate(0 32.363984027579434 32.41736662440002)"><path d="M-0.03 0.66 C10.52 11.22, 53.22 52.86, 64.15 63.57 M-1.51 -0.04 C9.31 10.67, 55.17 54.37, 66.24 64.88" stroke="#1e1e1e" stroke-width="2" fill="none"></path></g></g><mask></mask><g stroke-linecap="round"><g transform="translate(654.419983157739 146.6060045494884) rotate(0 -21.616639442499725 32.56207192575559)"><path d="M-0.46 1.04 C-7.73 11.71, -36.54 52.83, -44.09 63.61 M1.51 0.53 C-5.83 11.36, -37.24 54.03, -44.74 64.59" stroke="#1e1e1e" stroke-width="2" fill="none"></path></g></g><mask></mask><g stroke-linecap="round"><g transform="translate(949.7533571811765 212.6060045494884) rotate(0 -22.920329170962788 32.63094097351655)"><path d="M0.51 0.11 C-6.88 10.93, -37.45 53.69, -45.15 64.63 M-0.69 -0.88 C-8.2 10.17, -39.24 55.34, -46.35 66.14" stroke="#1e1e1e" stroke-width="2" fill="none"></path></g></g><mask></mask><g stroke-linecap="round"><g transform="translate(835.7939951247629 214.01346408205106) rotate(0 32.523613547533756 31.973924339562657)"><path d="M0.07 0.27 C11.2 10.9, 55.42 54.05, 66.4 64.58 M-1.36 -0.64 C9.75 9.57, 54.86 51.91, 66.02 62.77" stroke="#1e1e1e" stroke-width="2" fill="none"></path></g></g><mask></mask><g stroke-linecap="round"><g transform="translate(951.794056159919 213.34683810548856) rotate(0 32.60564949698747 31.931240419670935)"><path d="M-0.34 -1.06 C10.46 9.64, 54.61 54.26, 65.55 64.92 M1.68 1 C12.27 11.31, 54.24 52.84, 64.72 63.28" stroke="#1e1e1e" stroke-width="2" fill="none"></path></g></g><mask></mask><g stroke-linecap="round"><g transform="translate(1063.1533605194743 213.99379698472097) rotate(0 -22.665705678984523 32.994705428835005)"><path d="M0.3 1.11 C-7.36 11.83, -38.14 53.36, -45.63 64.1 M-1 0.65 C-8.33 11.53, -36.03 54.84, -43.43 65.34" stroke="#1e1e1e" stroke-width="2" fill="none"></path></g></g><mask></mask><g stroke-linecap="round"><g transform="translate(1107.1533605194743 147.99379698472097) rotate(0 -22.417681775614597 32.936510770972816)"><path d="M0.69 0.6 C-6.8 11.23, -37.94 53.73, -45.53 64.54 M-0.41 -0.14 C-7.47 10.62, -35.72 55.41, -43.27 66.01" stroke="#1e1e1e" stroke-width="2" fill="none"></path></g></g><mask></mask><g stroke-linecap="round"><g transform="translate(611.8199864960368 211.32717100815847) rotate(0 -22.54256421521306 32.412445702031256)"><path d="M0.59 -0.82 C-6.98 10.02, -37.15 54.74, -44.71 65.64 M-0.55 1.37 C-8.36 11.83, -38.18 53.28, -45.68 64.03" stroke="#1e1e1e" stroke-width="2" fill="none"></path></g></g><mask></mask><g stroke-linecap="round"><g transform="translate(331.81995597845855 149.32710997300222) rotate(0 -22.661626955270762 32.304195879027255)"><path d="M0.15 0.18 C-7.13 10.68, -36.94 53.55, -44.58 64.13 M-1.23 -0.77 C-8.58 10.4, -38.46 54.52, -45.48 65.38" stroke="#1e1e1e" stroke-width="2" fill="none"></path></g></g><mask></mask><g stroke-linecap="round"><g transform="translate(503.1532994843179 213.32717100815847) rotate(0 -22.062466419329866 32.00430967970751)"><path d="M0.75 -0.44 C-6.44 10.63, -36.44 54.98, -44.18 65.72 M-0.32 -1.71 C-7.53 9.1, -37.71 53.04, -44.87 64.15" stroke="#1e1e1e" stroke-width="2" fill="none"></path></g></g><mask></mask><g stroke-linecap="round"><g transform="translate(1220.4867345429116 147.32717100815847) rotate(0 -21.81654364481568 32.018773697763685)"><path d="M0.62 -0.31 C-6.57 10.48, -36.25 54.81, -43.77 65.56 M-0.51 -1.52 C-7.73 8.87, -36.81 52.78, -44.25 63.9" stroke="#1e1e1e" stroke-width="2" fill="none"></path></g></g><mask></mask><g stroke-linecap="round"><g transform="translate(330.375982742384 148.6508136186749) rotate(0 33.003737939000125 31.2430893843621)"><path d="M0.86 -0.16 C11.85 10.41, 55.55 52.14, 66.15 62.84 M-0.14 -1.28 C10.74 9.43, 54.45 52.65, 65.63 63.77" stroke="#1e1e1e" stroke-width="2" fill="none"></path></g></g><mask></mask><g stroke-linecap="round"><g transform="translate(393.70932624824337 212.6508136186749) rotate(0 32.259239878132945 31.82986254348419)"><path d="M-1.1 -1.11 C9.83 9.39, 54.68 52.68, 65.62 63.5 M0.52 0.91 C11.31 11.55, 53.73 54.09, 64.82 64.77" stroke="#1e1e1e" stroke-width="2" fill="none"></path></g></g><mask></mask><g stroke-linecap="round"><g transform="translate(503.0426087189465 211.9841876421124) rotate(0 31.99056296758354 32.27522966340184)"><path d="M-0.83 -1.09 C10 9.44, 53.75 53.18, 64.81 64.07 M0.93 0.96 C11.58 11.61, 52.93 54.85, 63.59 65.64" stroke="#1e1e1e" stroke-width="2" fill="none"></path></g></g><mask></mask><g stroke-linecap="round"><g transform="translate(1223.042669754103 147.31750063039365) rotate(0 32.534274556115236 31.791469578072427)"><path d="M-0.39 -0.68 C10.48 10.18, 54.65 53.48, 65.46 64.26 M1.6 1.58 C12.31 12.13, 53.7 51.65, 64.58 62.28" stroke="#1e1e1e" stroke-width="2" fill="none"></path></g></g><mask></mask><g stroke-linecap="round"><g transform="translate(1108.375921707228 151.9841876421124) rotate(0 33.45494438298044 31.364557830989362)"><path d="M0.86 -0.45 C11.64 10.1, 54.08 53.8, 64.68 64.46 M-0.14 -1.73 C11.03 8.97, 55.87 51.53, 67.05 62.58" stroke="#1e1e1e" stroke-width="2" fill="none"></path></g></g><mask></mask><g transform="translate(830.2329703133553 223.95811198167502) rotate(0 0.333343505859375 14.33331298828125)" stroke="none"><path fill="#1e1e1e" d="M 2.64,0 Q 2.64,0 2.61,1.53 2.57,3.06 2.65,4.83 2.72,6.60 3.05,7.94 3.38,9.28 3.50,10.77 3.61,12.27 3.69,13.53 3.77,14.79 3.80,16.02 3.84,17.25 3.88,18.68 3.93,20.10 3.97,21.40 4.01,22.71 4.01,25.69 4.01,28.66 3.92,29.20 3.84,29.73 3.58,30.21 3.33,30.69 2.93,31.06 2.54,31.43 2.05,31.66 1.56,31.89 1.02,31.95 0.48,32.01 -0.04,31.89 -0.57,31.77 -1.03,31.49 -1.50,31.21 -1.85,30.80 -2.20,30.39 -2.40,29.88 -2.60,29.38 -2.63,28.84 -2.66,28.30 -2.51,27.78 -2.37,27.25 -2.06,26.81 -1.76,26.36 -1.33,26.03 -0.90,25.70 -0.38,25.53 0.12,25.36 0.66,25.36 1.20,25.36 1.72,25.53 2.23,25.70 2.66,26.03 3.09,26.36 3.40,26.81 3.70,27.26 3.85,27.78 3.99,28.30 3.96,28.84 3.93,29.38 3.73,29.89 3.53,30.39 3.18,30.80 2.83,31.21 2.36,31.49 1.90,31.77 1.37,31.89 0.84,32.01 0.30,31.95 -0.23,31.89 -0.72,31.66 -1.21,31.43 -1.60,31.06 -2.00,30.69 -2.25,30.21 -2.50,29.73 -2.59,29.20 -2.68,28.66 -2.68,28.66 -2.68,28.66 -2.67,26.63 -2.65,24.60 -2.64,22.70 -2.63,20.81 -2.58,19.63 -2.54,18.45 -2.50,17.35 -2.47,16.25 -2.41,14.79 -2.36,13.33 -2.33,12.23 -2.30,11.13 -2.31,9.98 -2.33,8.84 -2.53,7.74 -2.72,6.63 -2.65,4.85 -2.57,3.06 -2.61,1.53 -2.64,0 -2.60,-0.31 -2.56,-0.63 -2.45,-0.92 -2.33,-1.22 -2.15,-1.48 -1.97,-1.75 -1.73,-1.96 -1.50,-2.17 -1.21,-2.32 -0.93,-2.47 -0.62,-2.54 -0.31,-2.62 0.00,-2.62 0.31,-2.62 0.62,-2.54 0.93,-2.47 1.21,-2.32 1.50,-2.17 1.73,-1.96 1.97,-1.75 2.15,-1.48 2.33,-1.22 2.45,-0.92 2.56,-0.63 2.60,-0.31 2.64,0.00 2.64,0.00 L 2.64,0 Z"></path></g><g transform="translate(835.5662833016365 249.95811198167502) rotate(0 0.00004999999998744897 0.00005000000000165983)" stroke="none"><path fill="#1e1e1e" d="M 0.78,-0.78 Q 0.78,-0.78 0.89,-0.63 0.99,-0.49 1.04,-0.32 1.10,-0.14 1.09,0.02 1.09,0.20 1.02,0.37 0.96,0.54 0.85,0.68 0.74,0.82 0.59,0.92 0.43,1.02 0.26,1.06 0.09,1.10 -0.08,1.09 -0.26,1.07 -0.43,1.00 -0.59,0.93 -0.73,0.81 -0.86,0.69 -0.95,0.53 -1.04,0.38 -1.07,0.20 -1.10,0.03 -1.08,-0.14 -1.06,-0.32 -0.98,-0.48 -0.90,-0.64 -0.77,-0.77 -0.64,-0.90 -0.48,-0.98 -0.32,-1.06 -0.14,-1.08 0.03,-1.10 0.20,-1.07 0.38,-1.04 0.53,-0.95 0.69,-0.86 0.81,-0.73 0.93,-0.59 1.00,-0.43 1.07,-0.26 1.09,-0.08 1.10,0.09 1.06,0.26 1.01,0.43 0.92,0.59 0.82,0.74 0.68,0.85 0.54,0.96 0.37,1.02 0.20,1.09 0.02,1.09 -0.15,1.10 -0.32,1.04 -0.49,0.99 -0.63,0.88 -0.78,0.78 -0.78,0.78 -0.78,0.78 -0.86,0.67 -0.95,0.57 -1.00,0.45 -1.06,0.33 -1.08,0.19 -1.10,0.06 -1.10,-0.06 -1.09,-0.20 -1.05,-0.32 -1.01,-0.45 -0.94,-0.57 -0.87,-0.68 -0.77,-0.77 -0.68,-0.87 -0.57,-0.94 -0.45,-1.01 -0.32,-1.05 -0.20,-1.09 -0.06,-1.10 0.06,-1.10 0.19,-1.08 0.33,-1.06 0.45,-1.00 0.57,-0.95 0.67,-0.86 0.78,-0.78 0.78,-0.78 L 0.78,-0.78 Z"></path></g><g transform="translate(938.2329703133553 162.62473795823752) rotate(0 10.666656494140625 16.333343505859375)" stroke="none"><path fill="#1e1e1e" d="M -0.89,-0.89 Q -0.89,-0.89 -0.30,-1.46 0.29,-2.02 0.85,-2.39 1.42,-2.75 2.17,-2.94 2.92,-3.12 4.02,-3.22 5.11,-3.32 5.75,-3.33 6.39,-3.34 7.24,-3.38 8.09,-3.41 8.83,-3.39 9.57,-3.38 10.84,-3.28 12.11,-3.19 12.85,-3.19 13.58,-3.20 14.68,-3.23 15.78,-3.27 16.81,-3.30 17.83,-3.33 18.76,-3.02 19.69,-2.70 20.37,-1.60 21.06,-0.49 21.43,0.26 21.81,1.03 22.00,2.09 22.19,3.14 22.27,3.95 22.35,4.77 22.39,5.50 22.44,6.23 22.51,7.14 22.58,8.05 22.58,8.82 22.57,9.58 22.36,10.31 22.14,11.03 21.82,11.58 21.50,12.13 20.96,12.86 20.42,13.58 19.71,14.21 19.00,14.83 18.58,15.24 18.16,15.64 17.63,16.28 17.09,16.93 16.43,17.76 15.76,18.60 15.06,19.38 14.35,20.16 13.89,20.70 13.44,21.25 12.78,21.76 12.13,22.26 11.59,22.52 11.06,22.79 9.97,22.98 8.88,23.18 8.84,23.20 8.79,23.22 8.64,23.21 8.49,23.20 8.35,23.16 8.21,23.11 8.08,23.03 7.95,22.96 7.84,22.85 7.74,22.74 7.66,22.61 7.58,22.48 7.54,22.34 7.49,22.20 7.48,22.05 7.47,21.90 7.50,21.75 7.53,21.60 7.59,21.46 7.65,21.33 7.75,21.21 7.84,21.09 7.96,21.00 8.08,20.91 8.21,20.84 8.35,20.78 8.50,20.76 8.65,20.73 9.55,20.44 10.46,20.16 11.47,20.07 12.49,19.98 13.96,19.69 15.42,19.40 15.95,19.35 16.49,19.31 17.49,19.27 18.49,19.23 19.51,19.30 20.52,19.37 21.08,19.78 21.64,20.19 21.86,20.97 22.07,21.76 22.12,22.79 22.17,23.82 22.18,24.82 22.19,25.82 22.14,26.56 22.08,27.30 21.56,28.12 21.04,28.94 20.73,29.43 20.43,29.91 20.05,30.40 19.66,30.90 18.95,31.76 18.25,32.62 17.59,33.48 16.93,34.34 16.37,34.70 15.81,35.06 14.86,35.18 13.90,35.31 13.08,35.63 12.26,35.95 11.22,36.04 10.17,36.13 8.08,36.15 6.00,36.18 5.76,36.14 5.51,36.10 5.30,35.99 5.08,35.87 4.91,35.70 4.74,35.52 4.64,35.29 4.53,35.07 4.50,34.83 4.48,34.58 4.53,34.34 4.58,34.10 4.71,33.89 4.83,33.68 5.02,33.52 5.21,33.36 5.44,33.27 5.67,33.18 5.91,33.16 6.16,33.15 6.39,33.22 6.63,33.28 6.83,33.42 7.04,33.56 7.19,33.75 7.34,33.95 7.42,34.18 7.49,34.41 7.49,34.66 7.50,34.90 7.42,35.14 7.34,35.37 7.19,35.57 7.04,35.76 6.84,35.90 6.64,36.04 6.40,36.11 6.16,36.17 5.92,36.16 5.67,36.15 5.44,36.06 5.21,35.97 5.03,35.81 4.84,35.65 4.71,35.44 4.58,35.23 4.53,34.99 4.48,34.75 4.50,34.50 4.53,34.26 4.63,34.03 4.74,33.81 4.90,33.63 5.07,33.45 5.29,33.34 5.51,33.22 5.75,33.18 5.99,33.14 5.99,33.14 5.99,33.14 7.62,33.14 9.26,33.14 10.15,33.13 11.03,33.12 11.59,33.07 12.14,33.01 13.33,32.71 14.52,32.41 14.95,32.05 15.37,31.69 16.13,30.92 16.89,30.15 17.42,29.26 17.94,28.38 18.35,27.70 18.75,27.03 18.94,26.43 19.13,25.83 19.12,25.28 19.11,24.72 19.10,23.79 19.08,22.87 19.39,22.41 19.70,21.96 19.11,22.04 18.52,22.11 17.60,22.12 16.68,22.12 15.71,22.17 14.74,22.23 14.10,22.48 13.46,22.72 12.51,22.72 11.56,22.73 10.90,22.77 10.24,22.81 9.51,23.01 8.79,23.22 8.64,23.21 8.49,23.20 8.35,23.16 8.21,23.11 8.08,23.03 7.95,22.96 7.84,22.85 7.74,22.74 7.66,22.61 7.58,22.48 7.54,22.34 7.49,22.20 7.48,22.05 7.47,21.90 7.50,21.75 7.53,21.60 7.59,21.46 7.65,21.33 7.75,21.21 7.84,21.09 7.96,21.00 8.08,20.91 8.21,20.84 8.35,20.78 8.50,20.76 8.65,20.73 9.15,20.72 9.66,20.71 10.29,20.62 10.92,20.52 11.43,20.20 11.94,19.88 12.41,19.39 12.89,18.91 13.49,18.16 14.08,17.42 14.67,16.47 15.25,15.52 15.86,14.66 16.47,13.81 16.95,13.40 17.42,12.98 17.90,12.59 18.38,12.19 18.84,11.43 19.30,10.66 19.69,10.10 20.08,9.54 20.07,8.81 20.06,8.09 20.10,7.21 20.13,6.33 20.12,5.65 20.10,4.97 20.04,4.26 19.98,3.55 19.84,2.82 19.70,2.09 19.31,1.37 18.91,0.65 18.36,-0.00 17.80,-0.66 16.79,-0.69 15.78,-0.72 14.68,-0.76 13.58,-0.79 12.85,-0.79 12.11,-0.80 10.84,-0.70 9.57,-0.61 8.83,-0.59 8.10,-0.57 7.26,-0.60 6.42,-0.62 5.81,-0.62 5.20,-0.61 4.29,-0.59 3.39,-0.56 2.70,-0.42 2.00,-0.27 1.45,0.31 0.89,0.89 0.77,0.99 0.65,1.08 0.51,1.14 0.37,1.20 0.22,1.23 0.07,1.26 -0.07,1.25 -0.22,1.24 -0.37,1.20 -0.52,1.15 -0.65,1.07 -0.78,0.99 -0.88,0.88 -0.99,0.78 -1.07,0.65 -1.15,0.51 -1.20,0.37 -1.24,0.22 -1.25,0.07 -1.26,-0.07 -1.23,-0.22 -1.20,-0.37 -1.14,-0.51 -1.08,-0.65 -0.99,-0.77 -0.89,-0.89 -0.89,-0.89 L -0.89,-0.89 Z"></path></g><g transform="translate(942.2329703133553 162.62473795823752) rotate(0 14.333343505859375 15)" stroke="none"><path fill="#1e1e1e" d="M -1.32,-2.21 Q -1.32,-2.21 -0.38,-2.81 0.56,-3.41 2.72,-4.00 4.87,-4.59 5.96,-4.66 7.05,-4.73 9.49,-4.75 11.93,-4.77 13.10,-4.78 14.27,-4.79 15.53,-4.79 16.79,-4.78 18.41,-4.84 20.02,-4.90 21.40,-4.95 22.79,-4.99 24.12,-5.06 25.45,-5.12 27.34,-4.92 29.22,-4.72 30.18,-2.84 31.13,-0.96 30.82,0.11 30.52,1.19 29.98,2.23 29.44,3.27 28.37,5.22 27.30,7.16 26.60,8.10 25.89,9.04 24.67,9.95 23.45,10.86 21.91,12.06 20.37,13.26 19.22,14.03 18.07,14.79 16.77,16.25 15.48,17.71 14.39,18.30 13.31,18.90 12.27,20.02 11.23,21.14 11.06,21.44 10.90,21.74 10.54,21.95 10.18,22.15 9.78,22.27 9.38,22.38 8.97,22.40 8.55,22.41 8.15,22.33 7.74,22.25 7.37,22.07 6.99,21.89 6.67,21.63 6.35,21.36 6.10,21.03 5.85,20.70 5.69,20.32 5.53,19.94 5.46,19.53 5.40,19.12 5.43,18.70 5.47,18.29 5.60,17.90 5.73,17.50 5.95,17.15 6.18,16.80 6.48,16.52 6.78,16.23 8.65,16.02 10.52,15.80 11.85,15.85 13.19,15.89 15.08,15.96 16.97,16.02 18.84,16.79 20.72,17.56 22.04,17.78 23.35,18.01 24.93,18.48 26.51,18.95 27.26,19.80 28.01,20.66 28.28,21.73 28.56,22.80 28.25,24.96 27.94,27.13 27.05,28.16 26.15,29.19 24.78,30.34 23.42,31.49 22.54,32.39 21.66,33.29 20.28,33.90 18.90,34.50 17.64,34.64 16.38,34.77 14.75,35.12 13.12,35.46 11.64,35.50 10.16,35.54 8.08,35.56 6.00,35.57 5.43,35.47 4.85,35.38 4.34,35.11 3.83,34.84 3.44,34.42 3.04,34.00 2.80,33.48 2.55,32.95 2.49,32.38 2.43,31.80 2.55,31.24 2.68,30.67 2.97,30.18 3.27,29.68 3.71,29.31 4.15,28.93 4.69,28.72 5.23,28.51 5.80,28.47 6.38,28.44 6.94,28.60 7.50,28.75 7.97,29.08 8.45,29.40 8.80,29.86 9.15,30.32 9.34,30.87 9.52,31.42 9.52,31.99 9.52,32.57 9.34,33.12 9.15,33.67 8.80,34.13 8.45,34.59 7.97,34.91 7.50,35.24 6.94,35.39 6.38,35.55 5.80,35.52 5.23,35.48 4.69,35.27 4.15,35.06 3.71,34.68 3.27,34.31 2.97,33.81 2.68,33.32 2.55,32.75 2.43,32.19 2.49,31.61 2.55,31.04 2.80,30.51 3.04,29.99 3.44,29.57 3.83,29.15 4.34,28.88 4.85,28.61 5.43,28.52 6.00,28.42 5.99,28.42 5.99,28.42 8.58,28.43 11.17,28.44 12.49,28.47 13.81,28.51 15.81,28.17 17.81,27.83 19.13,26.89 20.45,25.95 21.66,25.24 22.87,24.52 21.38,24.27 19.90,24.01 18.31,23.32 16.72,22.62 14.85,22.67 12.99,22.71 11.94,22.22 10.90,21.74 10.54,21.95 10.18,22.15 9.78,22.27 9.38,22.38 8.97,22.40 8.55,22.41 8.15,22.33 7.74,22.25 7.37,22.07 6.99,21.89 6.67,21.63 6.35,21.36 6.10,21.03 5.85,20.70 5.69,20.32 5.53,19.94 5.46,19.53 5.40,19.12 5.43,18.70 5.47,18.29 5.60,17.90 5.73,17.51 5.95,17.16 6.18,16.80 6.48,16.52 6.77,16.23 6.85,16.07 6.92,15.90 7.81,15.14 8.70,14.37 10.04,13.06 11.38,11.75 12.24,10.85 13.11,9.96 14.22,9.24 15.32,8.51 16.52,7.73 17.73,6.94 19.12,6.09 20.52,5.24 21.63,3.98 22.74,2.71 23.13,1.45 23.53,0.19 24.65,-1.03 25.78,-2.26 25.61,-0.56 25.45,1.12 24.12,1.06 22.79,0.99 21.41,0.95 20.02,0.90 18.41,0.84 16.80,0.79 15.54,0.80 14.28,0.80 13.12,0.80 11.96,0.80 10.60,0.83 9.23,0.87 7.33,0.88 5.43,0.90 4.35,1.00 3.26,1.11 2.29,1.66 1.32,2.21 1.04,2.34 0.75,2.46 0.45,2.52 0.14,2.57 -0.16,2.55 -0.47,2.53 -0.77,2.44 -1.06,2.35 -1.33,2.18 -1.59,2.02 -1.81,1.80 -2.03,1.58 -2.19,1.31 -2.35,1.05 -2.44,0.75 -2.54,0.45 -2.55,0.14 -2.57,-0.16 -2.51,-0.47 -2.46,-0.77 -2.33,-1.05 -2.20,-1.34 -2.01,-1.58 -1.81,-1.83 -1.57,-2.02 -1.32,-2.21 -1.32,-2.21 L -1.32,-2.21 Z"></path></g><g transform="translate(1074.899657325074 231.95811198167502) rotate(0 7.3333740234375 14.666656494140625)" stroke="none"><path fill="#1e1e1e" d="M 2.46,-0.82 Q 2.46,-0.82 2.96,0.92 3.46,2.68 3.95,4.59 4.44,6.50 4.59,7.83 4.74,9.16 4.82,10.51 4.89,11.87 6.25,11.71 7.61,11.56 9.44,11.71 11.27,11.85 12.63,11.87 13.99,11.89 15.91,12.02 17.83,12.15 19.60,12.21 21.37,12.28 23.38,12.48 25.39,12.68 26.61,14.35 27.84,16.02 27.89,17.50 27.95,18.99 27.13,20.35 26.31,21.71 25.56,22.47 24.80,23.22 22.97,23.82 21.15,24.42 20.03,25.06 18.91,25.70 17.86,26.30 16.81,26.90 15.47,27.29 14.13,27.69 12.74,27.82 11.35,27.96 9.11,28.53 6.87,29.10 5.39,29.81 3.91,30.53 2.08,30.98 0.26,31.43 -1.53,31.84 -3.32,32.26 -4.90,32.40 -6.48,32.53 -9.32,31.72 -12.16,30.91 -12.58,30.59 -13.01,30.28 -13.31,29.84 -13.62,29.41 -13.76,28.90 -13.91,28.39 -13.89,27.86 -13.87,27.33 -13.68,26.84 -13.49,26.34 -13.15,25.94 -12.82,25.53 -12.37,25.25 -11.91,24.97 -11.40,24.85 -10.88,24.73 -10.36,24.78 -9.83,24.83 -9.34,25.04 -8.86,25.26 -8.47,25.62 -8.08,25.98 -7.83,26.44 -7.57,26.91 -7.48,27.43 -7.39,27.95 -7.46,28.48 -7.54,29.00 -7.79,29.47 -8.03,29.94 -8.41,30.31 -8.79,30.68 -9.27,30.91 -9.74,31.14 -10.27,31.20 -10.80,31.27 -11.31,31.16 -11.83,31.05 -12.29,30.79 -12.75,30.52 -13.10,30.12 -13.45,29.72 -13.65,29.23 -13.85,28.74 -13.89,28.21 -13.92,27.68 -13.79,27.17 -13.65,26.66 -13.36,26.22 -13.07,25.77 -12.65,25.45 -12.23,25.12 -11.73,24.95 -11.23,24.77 -10.70,24.76 -10.17,24.76 -9.67,24.92 -9.17,25.08 -9.17,25.08 -9.17,25.08 -7.86,25.59 -6.56,26.10 -5.41,26.11 -4.25,26.13 -3.06,25.86 -1.87,25.59 -0.64,25.52 0.57,25.45 2.00,25.20 3.43,24.94 5.55,24.17 7.67,23.41 9.25,22.90 10.84,22.39 12.50,22.24 14.17,22.08 15.14,21.55 16.11,21.01 18.58,19.93 21.04,18.85 22.28,18.13 23.51,17.41 22.44,17.23 21.37,17.04 19.60,17.11 17.82,17.17 15.90,17.30 13.98,17.42 12.61,17.44 11.25,17.45 9.38,17.58 7.52,17.71 5.61,17.64 3.71,17.57 2.14,17.05 0.58,16.54 -0.14,15.40 -0.86,14.25 -0.88,13.08 -0.90,11.90 -0.85,10.64 -0.80,9.37 -0.77,8.28 -0.75,7.19 -0.95,5.70 -1.16,4.21 -1.81,2.52 -2.46,0.82 -2.53,0.51 -2.59,0.20 -2.58,-0.10 -2.56,-0.41 -2.48,-0.72 -2.39,-1.02 -2.23,-1.29 -2.08,-1.56 -1.86,-1.79 -1.64,-2.01 -1.38,-2.18 -1.11,-2.35 -0.81,-2.45 -0.51,-2.55 -0.20,-2.57 0.10,-2.60 0.41,-2.55 0.72,-2.50 1.01,-2.37 1.30,-2.25 1.55,-2.06 1.80,-1.87 2.00,-1.63 2.20,-1.39 2.33,-1.10 2.46,-0.82 2.46,-0.82 L 2.46,-0.82 Z"></path></g><g transform="translate(1077.5662833016365 234.62473795823752) rotate(0 10.66668701171875 -0.33331298828125)" stroke="none"><path fill="#1e1e1e" d="M -0.42,-2.54 Q -0.42,-2.54 0.72,-2.75 1.87,-2.96 3.25,-3.07 4.64,-3.17 5.99,-3.21 7.34,-3.25 8.87,-3.24 10.40,-3.23 12.64,-3.28 14.88,-3.34 16.46,-3.41 18.04,-3.48 19.68,-3.50 21.33,-3.52 21.79,-3.45 22.24,-3.37 22.65,-3.16 23.06,-2.94 23.38,-2.60 23.70,-2.27 23.89,-1.85 24.09,-1.43 24.14,-0.97 24.19,-0.51 24.09,-0.05 23.99,0.39 23.75,0.78 23.51,1.18 23.16,1.48 22.80,1.78 22.37,1.95 21.94,2.12 21.48,2.15 21.02,2.17 20.57,2.05 20.13,1.93 19.74,1.67 19.36,1.41 19.08,1.04 18.80,0.67 18.65,0.23 18.50,-0.20 18.50,-0.66 18.50,-1.12 18.65,-1.56 18.80,-2.00 19.08,-2.37 19.36,-2.74 19.74,-3.00 20.13,-3.26 20.57,-3.38 21.02,-3.51 21.48,-3.48 21.94,-3.46 22.37,-3.29 22.80,-3.11 23.16,-2.81 23.51,-2.51 23.75,-2.12 23.99,-1.72 24.09,-1.27 24.19,-0.82 24.14,-0.36 24.09,0.09 23.89,0.52 23.70,0.94 23.38,1.27 23.06,1.61 22.65,1.82 22.24,2.04 21.78,2.12 21.33,2.19 21.33,2.19 21.33,2.19 19.68,2.17 18.04,2.15 16.46,2.08 14.89,2.01 12.67,1.97 10.45,1.94 8.97,1.98 7.48,2.02 6.23,2.05 4.98,2.08 3.85,2.14 2.72,2.20 1.57,2.37 0.42,2.54 0.11,2.55 -0.19,2.56 -0.50,2.50 -0.80,2.44 -1.08,2.31 -1.36,2.18 -1.60,1.98 -1.85,1.79 -2.03,1.54 -2.22,1.29 -2.34,1.01 -2.47,0.72 -2.52,0.42 -2.57,0.11 -2.54,-0.19 -2.52,-0.50 -2.42,-0.79 -2.33,-1.09 -2.16,-1.35 -2.00,-1.62 -1.77,-1.83 -1.55,-2.05 -1.28,-2.20 -1.01,-2.36 -0.72,-2.45 -0.42,-2.54 -0.42,-2.54 L -0.42,-2.54 Z"></path></g><g transform="translate(1160.2330313485115 233.95811198167502) rotate(0 12.33331298828125 19.666656494140625)" stroke="none"><path fill="#1e1e1e" d="M 0,-2.59 Q 0,-2.59 1.15,-2.61 2.3,-2.63 3.55,-2.64 4.81,-2.65 5.91,-2.67 7.02,-2.69 8.45,-2.67 9.88,-2.65 11.06,-2.67 12.25,-2.68 13.32,-2.70 14.40,-2.73 15.98,-2.79 17.57,-2.85 19.04,-2.94 20.51,-3.02 22.30,-2.99 24.10,-2.96 25.18,-2.44 26.26,-1.93 27.01,-0.15 27.76,1.62 27.59,3.42 27.41,5.23 27.04,6.96 26.66,8.70 26.36,10.70 26.07,12.69 25.89,14.91 25.71,17.13 25.68,18.34 25.65,19.55 25.67,21.13 25.70,22.71 25.76,24.27 25.82,25.82 25.86,27.37 25.91,28.91 25.92,30.48 25.92,32.04 25.93,33.69 25.93,35.34 25.94,37.33 25.95,39.33 25.87,39.85 25.78,40.38 25.53,40.85 25.28,41.32 24.90,41.69 24.51,42.05 24.03,42.28 23.54,42.50 23.01,42.56 22.48,42.62 21.96,42.50 21.44,42.39 20.99,42.11 20.53,41.84 20.18,41.43 19.84,41.03 19.64,40.53 19.45,40.04 19.42,39.50 19.39,38.97 19.53,38.46 19.67,37.95 19.97,37.50 20.27,37.06 20.70,36.74 21.12,36.42 21.62,36.25 22.13,36.08 22.66,36.08 23.19,36.08 23.70,36.25 24.20,36.42 24.63,36.74 25.05,37.06 25.35,37.50 25.65,37.95 25.79,38.46 25.94,38.97 25.91,39.50 25.88,40.04 25.68,40.53 25.48,41.03 25.14,41.43 24.79,41.84 24.34,42.11 23.88,42.39 23.36,42.50 22.84,42.62 22.31,42.56 21.78,42.50 21.30,42.28 20.81,42.05 20.43,41.69 20.04,41.32 19.79,40.85 19.54,40.38 19.45,39.85 19.37,39.33 19.37,39.33 19.37,39.33 19.38,37.33 19.39,35.34 19.40,33.69 19.40,32.04 19.41,30.48 19.42,28.91 19.46,27.37 19.50,25.82 19.57,24.25 19.63,22.69 19.68,21.08 19.73,19.47 19.73,18.23 19.73,16.98 19.80,14.31 19.88,11.63 20.11,9.84 20.33,8.04 20.73,6.02 21.12,3.99 22.26,3.47 23.40,2.96 21.95,2.99 20.51,3.02 19.04,2.94 17.57,2.85 15.98,2.79 14.40,2.73 13.32,2.70 12.25,2.68 11.06,2.67 9.88,2.65 8.45,2.67 7.02,2.69 5.91,2.67 4.81,2.65 3.55,2.64 2.3,2.63 1.15,2.61 0,2.59 -0.31,2.55 -0.62,2.51 -0.91,2.40 -1.20,2.29 -1.46,2.11 -1.72,1.94 -1.92,1.70 -2.13,1.47 -2.28,1.19 -2.42,0.92 -2.50,0.61 -2.57,0.31 -2.57,-0.00 -2.57,-0.31 -2.50,-0.61 -2.42,-0.92 -2.28,-1.19 -2.13,-1.47 -1.92,-1.70 -1.72,-1.94 -1.46,-2.12 -1.20,-2.29 -0.91,-2.40 -0.62,-2.51 -0.31,-2.55 0.00,-2.59 0.00,-2.59 L 0,-2.59 Z"></path></g><g transform="translate(1304.2330313485115 239.95811198167502) rotate(0 -11.66668701171875 14.999969482421875)" stroke="none"><path fill="#1e1e1e" d="M -2.35,1.17 Q -2.35,1.17 -2.93,0.02 -3.52,-1.13 -3.88,-2.46 -4.24,-3.79 -5.11,-5.31 -5.97,-6.84 -7.04,-8.28 -8.11,-9.71 -9.72,-11.52 -11.32,-13.32 -13.06,-13.62 -14.80,-13.91 -16.04,-13.98 -17.28,-14.05 -17.57,-12.52 -17.86,-10.99 -18.47,-9.35 -19.08,-7.72 -19.49,-6.57 -19.90,-5.42 -20.03,-4.22 -20.17,-3.02 -20.17,-1.67 -20.18,-0.31 -19.40,0.47 -18.63,1.27 -17.24,1.60 -15.84,1.93 -14.54,2.29 -13.24,2.65 -12.09,3.32 -10.93,3.99 -12.17,4.35 -13.41,4.70 -13.78,3.33 -14.15,1.95 -14.18,0.56 -14.21,-0.83 -14.15,-1.26 -14.10,-1.68 -13.95,-2.08 -13.80,-2.48 -13.56,-2.83 -13.31,-3.18 -12.99,-3.46 -12.67,-3.75 -12.30,-3.95 -11.92,-4.14 -11.50,-4.25 -11.09,-4.35 -10.66,-4.35 -10.23,-4.35 -9.82,-4.25 -9.40,-4.14 -9.03,-3.95 -8.65,-3.75 -8.33,-3.46 -8.01,-3.18 -7.77,-2.83 -7.52,-2.48 -7.37,-2.08 -7.22,-1.68 -7.17,-1.25 -7.12,-0.83 -7.13,0.28 -7.14,1.39 -7.25,2.59 -7.35,3.78 -6.58,5.43 -5.82,7.09 -5.62,8.90 -5.42,10.72 -5.14,12.50 -4.86,14.28 -4.79,15.83 -4.72,17.37 -4.57,18.71 -4.42,20.05 -4.24,21.54 -4.06,23.03 -4.02,24.44 -3.98,25.84 -3.97,27.19 -3.96,28.54 -3.93,30.14 -3.91,31.74 -3.90,32.97 -3.90,34.19 -3.89,35.31 -3.87,36.44 -3.85,37.62 -3.83,38.80 -3.82,40.51 -3.82,42.22 -3.80,44.77 -3.78,47.33 -3.88,47.89 -3.97,48.46 -4.24,48.97 -4.51,49.47 -4.92,49.87 -5.34,50.26 -5.86,50.50 -6.38,50.74 -6.95,50.81 -7.52,50.87 -8.08,50.74 -8.64,50.62 -9.13,50.33 -9.62,50.03 -9.99,49.59 -10.37,49.16 -10.58,48.62 -10.79,48.09 -10.82,47.52 -10.85,46.94 -10.70,46.39 -10.55,45.84 -10.22,45.36 -9.90,44.89 -9.44,44.54 -8.99,44.20 -8.44,44.01 -7.90,43.83 -7.33,43.83 -6.75,43.83 -6.21,44.01 -5.67,44.20 -5.21,44.54 -4.75,44.89 -4.43,45.37 -4.11,45.84 -3.96,46.39 -3.80,46.95 -3.84,47.52 -3.87,48.09 -4.08,48.62 -4.29,49.16 -4.66,49.59 -5.03,50.03 -5.53,50.33 -6.02,50.62 -6.58,50.74 -7.14,50.87 -7.71,50.81 -8.28,50.74 -8.80,50.50 -9.32,50.26 -9.73,49.87 -10.15,49.47 -10.42,48.97 -10.69,48.46 -10.78,47.89 -10.87,47.33 -10.87,47.33 -10.87,47.33 -10.86,45.28 -10.85,43.24 -10.85,41.97 -10.85,40.71 -10.83,39.40 -10.81,38.10 -10.79,36.66 -10.77,35.23 -10.77,33.94 -10.77,32.65 -10.75,31.58 -10.74,30.50 -10.71,29.00 -10.69,27.49 -10.68,26.20 -10.68,24.90 -10.75,23.27 -10.81,21.64 -11.05,20.49 -11.29,19.34 -11.32,17.66 -11.35,15.99 -11.43,14.72 -11.52,13.45 -11.80,11.68 -12.09,9.91 -12.23,8.76 -12.37,7.62 -13.18,5.96 -13.98,4.30 -14.08,2.85 -14.18,1.39 -14.19,0.28 -14.21,-0.83 -14.15,-1.26 -14.10,-1.68 -13.95,-2.08 -13.80,-2.48 -13.56,-2.83 -13.31,-3.18 -12.99,-3.46 -12.67,-3.75 -12.30,-3.95 -11.92,-4.14 -11.50,-4.25 -11.09,-4.35 -10.66,-4.35 -10.23,-4.35 -9.82,-4.25 -9.40,-4.14 -9.03,-3.95 -8.65,-3.75 -8.33,-3.46 -8.01,-3.18 -7.77,-2.83 -7.52,-2.48 -7.37,-2.08 -7.22,-1.68 -7.17,-1.25 -7.12,-0.83 -7.14,0.19 -7.16,1.22 -7.18,2.60 -7.21,3.98 -7.25,5.04 -7.29,6.10 -7.84,7.60 -8.39,9.10 -9.47,9.61 -10.55,10.12 -12.67,9.76 -14.80,9.40 -15.83,8.91 -16.85,8.41 -18.28,8.04 -19.71,7.67 -21.85,6.79 -23.99,5.92 -25.12,4.39 -26.25,2.85 -26.35,1.21 -26.44,-0.42 -26.36,-1.98 -26.28,-3.53 -25.93,-5.44 -25.58,-7.35 -25.21,-8.53 -24.83,-9.70 -24.48,-10.84 -24.13,-11.98 -23.71,-14.09 -23.29,-16.20 -22.22,-17.54 -21.16,-18.87 -19.13,-19.72 -17.11,-20.57 -15.96,-20.47 -14.82,-20.37 -13.43,-19.95 -12.05,-19.53 -10.86,-19.13 -9.68,-18.73 -8.57,-18.22 -7.46,-17.71 -6.88,-16.54 -6.29,-15.37 -4.84,-14.15 -3.39,-12.93 -2.79,-12.04 -2.20,-11.15 -1.21,-9.32 -0.23,-7.48 0.49,-5.47 1.22,-3.46 1.78,-2.32 2.35,-1.17 2.46,-0.87 2.57,-0.58 2.60,-0.26 2.63,0.05 2.59,0.36 2.54,0.68 2.42,0.97 2.30,1.27 2.12,1.52 1.93,1.78 1.69,1.99 1.45,2.19 1.16,2.34 0.88,2.48 0.57,2.55 0.26,2.62 -0.05,2.61 -0.36,2.60 -0.67,2.52 -0.98,2.44 -1.26,2.29 -1.53,2.13 -1.77,1.92 -2.00,1.70 -2.18,1.44 -2.35,1.17 -2.35,1.17 L -2.35,1.17 Z"></path></g><g transform="translate(702.899657325074 243.95811198167502) rotate(0 9.666656494140625 -0.66668701171875)" stroke="none"><path fill="#1e1e1e" d="M 0,-2.33 Q 0,-2.33 2.10,-2.20 4.21,-2.07 6.26,-1.99 8.30,-1.91 10.13,-1.90 11.96,-1.89 13.12,-1.97 14.28,-2.05 15.35,-2.12 16.42,-2.19 16.79,-2.09 17.17,-1.99 17.33,-2.32 17.50,-2.65 17.75,-2.91 18.01,-3.16 18.34,-3.33 18.67,-3.49 19.03,-3.54 19.39,-3.59 19.75,-3.52 20.11,-3.45 20.43,-3.27 20.75,-3.09 20.99,-2.81 21.23,-2.54 21.38,-2.21 21.52,-1.87 21.55,-1.51 21.58,-1.14 21.49,-0.79 21.40,-0.43 21.20,-0.13 21.01,0.17 20.72,0.40 20.44,0.63 20.09,0.75 19.75,0.88 19.39,0.89 19.02,0.90 18.67,0.79 18.32,0.68 18.03,0.47 17.73,0.26 17.52,-0.03 17.30,-0.33 17.20,-0.68 17.09,-1.03 17.10,-1.39 17.11,-1.76 17.24,-2.10 17.36,-2.44 17.59,-2.73 17.82,-3.01 18.13,-3.21 18.44,-3.40 18.79,-3.49 19.15,-3.58 19.51,-3.55 19.88,-3.52 20.21,-3.37 20.55,-3.23 20.82,-2.99 21.09,-2.74 21.27,-2.42 21.45,-2.10 21.52,-1.75 21.59,-1.39 21.54,-1.02 21.49,-0.66 21.49,-0.66 21.49,-0.66 18.95,0.76 16.42,2.19 15.35,2.12 14.28,2.05 13.12,1.97 11.96,1.89 10.13,1.90 8.30,1.91 6.26,1.99 4.21,2.07 2.10,2.20 0,2.33 -0.27,2.30 -0.55,2.26 -0.82,2.16 -1.08,2.06 -1.31,1.90 -1.54,1.74 -1.73,1.53 -1.92,1.32 -2.05,1.07 -2.18,0.82 -2.25,0.55 -2.32,0.28 -2.32,-0.00 -2.32,-0.28 -2.25,-0.55 -2.18,-0.82 -2.05,-1.07 -1.92,-1.32 -1.73,-1.53 -1.54,-1.74 -1.31,-1.90 -1.08,-2.06 -0.82,-2.16 -0.55,-2.26 -0.27,-2.30 0.00,-2.33 0.00,-2.33 L 0,-2.33 Z"></path></g><g transform="translate(716.899657325074 227.95811198167502) rotate(0 3.33331298828125 16.666656494140625)" stroke="none"><path fill="#1e1e1e" d="M 2.58,0 Q 2.58,0 2.55,1.53 2.53,3.06 2.70,4.30 2.87,5.55 3.48,7.00 4.08,8.46 4.56,9.76 5.04,11.06 5.74,12.67 6.45,14.28 7.20,15.72 7.96,17.17 8.16,18.52 8.35,19.86 8.41,21.04 8.46,22.23 8.51,23.89 8.55,25.56 8.60,27.03 8.64,28.51 9.20,30.24 9.76,31.97 9.89,32.50 10.03,33.03 9.99,33.57 9.95,34.12 9.74,34.62 9.52,35.13 9.16,35.54 8.80,35.95 8.33,36.22 7.85,36.49 7.31,36.60 6.78,36.71 6.24,36.64 5.69,36.57 5.20,36.33 4.71,36.09 4.32,35.71 3.93,35.32 3.68,34.83 3.44,34.34 3.36,33.80 3.28,33.26 3.38,32.72 3.48,32.19 3.74,31.71 4.01,31.23 4.42,30.86 4.82,30.49 5.32,30.27 5.82,30.05 6.37,30.00 6.91,29.96 7.44,30.08 7.98,30.21 8.44,30.50 8.90,30.80 9.25,31.22 9.59,31.64 9.79,32.15 9.98,32.67 10.00,33.21 10.02,33.76 9.86,34.28 9.70,34.81 9.39,35.26 9.07,35.70 8.63,36.02 8.19,36.35 7.66,36.51 7.14,36.68 6.60,36.66 6.05,36.65 5.53,36.47 5.02,36.28 4.59,35.94 4.16,35.60 3.86,35.15 3.57,34.69 3.57,34.69 3.57,34.69 2.79,31.60 2.02,28.51 2.06,27.03 2.10,25.56 2.14,23.91 2.19,22.26 2.29,20.54 2.40,18.82 1.72,17.22 1.03,15.62 0.57,14.28 0.10,12.95 -0.71,10.64 -1.54,8.34 -1.82,7.29 -2.11,6.25 -2.32,4.65 -2.53,3.06 -2.55,1.53 -2.58,0 -2.54,-0.30 -2.50,-0.61 -2.39,-0.90 -2.28,-1.20 -2.11,-1.45 -1.93,-1.71 -1.70,-1.91 -1.46,-2.12 -1.19,-2.27 -0.91,-2.41 -0.61,-2.49 -0.31,-2.56 0.00,-2.56 0.31,-2.56 0.61,-2.49 0.91,-2.41 1.19,-2.27 1.46,-2.12 1.70,-1.91 1.93,-1.71 2.11,-1.45 2.28,-1.20 2.39,-0.90 2.50,-0.61 2.54,-0.30 2.58,0.00 2.58,0.00 L 2.58,0 Z"></path></g><g transform="translate(575.5662833016365 191.95811198167502) rotate(0 5 -1)" stroke="none"><path fill="#1e1e1e" d="M -0.70,-2.48 Q -0.70,-2.48 0.63,-2.86 1.97,-3.24 3.02,-3.45 4.06,-3.67 5.25,-4.20 6.43,-4.74 8.19,-4.82 9.95,-4.90 10.42,-4.83 10.88,-4.76 11.30,-4.54 11.72,-4.33 12.05,-3.99 12.37,-3.66 12.58,-3.23 12.78,-2.81 12.84,-2.34 12.89,-1.88 12.80,-1.42 12.70,-0.96 12.47,-0.55 12.23,-0.15 11.88,0.15 11.53,0.46 11.09,0.64 10.66,0.82 10.19,0.85 9.72,0.88 9.27,0.76 8.81,0.64 8.42,0.39 8.03,0.13 7.74,-0.23 7.45,-0.60 7.29,-1.04 7.14,-1.49 7.13,-1.96 7.13,-2.42 7.27,-2.87 7.41,-3.32 7.69,-3.70 7.97,-4.07 8.36,-4.34 8.74,-4.61 9.19,-4.74 9.64,-4.87 10.11,-4.86 10.58,-4.84 11.02,-4.67 11.46,-4.50 11.82,-4.20 12.18,-3.90 12.43,-3.50 12.68,-3.11 12.78,-2.65 12.89,-2.19 12.85,-1.72 12.80,-1.26 12.61,-0.83 12.42,-0.40 12.10,-0.05 11.78,0.28 11.37,0.51 10.96,0.73 10.50,0.81 10.03,0.90 10.04,0.90 10.04,0.90 8.44,0.79 6.84,0.68 5.11,1.19 3.38,1.70 2.04,2.09 0.70,2.48 0.40,2.53 0.09,2.58 -0.21,2.55 -0.52,2.52 -0.82,2.42 -1.11,2.32 -1.37,2.16 -1.64,1.99 -1.85,1.76 -2.07,1.54 -2.22,1.27 -2.37,1.00 -2.46,0.70 -2.55,0.40 -2.56,0.09 -2.57,-0.21 -2.51,-0.52 -2.44,-0.82 -2.31,-1.10 -2.17,-1.38 -1.97,-1.62 -1.78,-1.86 -1.53,-2.05 -1.28,-2.24 -0.99,-2.36 -0.70,-2.48 -0.70,-2.48 L -0.70,-2.48 Z"></path></g><g transform="translate(588.2329703133553 173.29142496995627) rotate(0 14.666656494140625 14.666656494140625)" stroke="none"><path fill="#1e1e1e" d="M -0.34,-2.43 Q -0.34,-2.43 0.99,-2.63 2.33,-2.83 3.76,-2.94 5.20,-3.04 6.77,-3.06 8.35,-3.08 10.17,-3.03 11.98,-2.98 13.52,-2.98 15.06,-2.99 16.47,-2.82 17.88,-2.65 19.65,-2.37 21.42,-2.09 22.72,-1.74 24.01,-1.39 24.94,-0.49 25.87,0.40 26.62,1.84 27.36,3.29 27.17,5.33 26.99,7.37 26.02,8.34 25.05,9.32 23.03,9.71 21.00,10.11 19.47,10.49 17.94,10.86 16.63,11.13 15.33,11.40 14.39,11.95 13.44,12.50 12.35,12.92 11.26,13.34 10.91,11.05 10.56,8.75 11.90,9.03 13.23,9.31 15.22,10.17 17.21,11.02 19.22,12.06 21.24,13.10 22.37,13.40 23.50,13.70 24.52,14.04 25.55,14.38 27.97,15.31 30.38,16.23 30.90,17.33 31.41,18.44 31.13,19.57 30.85,20.69 30.01,21.60 29.16,22.50 27.92,24.20 26.68,25.89 25.89,26.92 25.11,27.94 24.27,28.66 23.43,29.38 22.49,30.59 21.55,31.79 20.02,32.51 18.48,33.23 16.63,33.32 14.77,33.40 14.22,33.33 13.68,33.26 13.18,33.01 12.69,32.77 12.29,32.38 11.90,32.00 11.65,31.50 11.41,31.01 11.33,30.46 11.25,29.92 11.36,29.38 11.46,28.83 11.73,28.35 12.00,27.87 12.41,27.50 12.81,27.13 13.32,26.91 13.83,26.69 14.37,26.64 14.92,26.60 15.46,26.73 16.00,26.86 16.46,27.15 16.93,27.45 17.27,27.88 17.62,28.31 17.81,28.82 18.01,29.34 18.02,29.89 18.04,30.44 17.88,30.97 17.72,31.50 17.40,31.95 17.08,32.39 16.64,32.72 16.19,33.04 15.66,33.21 15.14,33.37 14.58,33.36 14.03,33.34 13.51,33.16 13.00,32.97 12.57,32.63 12.13,32.28 11.84,31.82 11.54,31.35 11.40,30.82 11.27,30.29 11.31,29.74 11.35,29.19 11.57,28.68 11.78,28.17 12.15,27.76 12.52,27.35 12.99,27.07 13.47,26.80 14.01,26.69 14.56,26.59 14.56,26.59 14.55,26.59 16.26,26.22 17.97,25.85 19.14,24.67 20.32,23.49 21.44,22.26 22.56,21.02 23.99,19.32 25.42,17.62 25.55,18.68 25.69,19.75 23.90,19.15 22.11,18.55 20.72,18.13 19.34,17.71 17.24,17.06 15.15,16.41 13.78,15.97 12.40,15.54 9.89,14.77 7.37,13.99 7.63,11.05 7.89,8.11 8.96,7.73 10.03,7.36 11.11,6.69 12.19,6.03 13.90,5.64 15.62,5.24 17.05,4.72 18.48,4.20 20.10,3.79 21.73,3.37 20.40,2.87 19.08,2.37 17.07,2.02 15.07,1.67 13.55,1.68 12.02,1.69 10.24,1.77 8.46,1.85 6.98,1.90 5.50,1.95 4.27,2.01 3.03,2.07 1.69,2.25 0.34,2.43 0.05,2.43 -0.24,2.44 -0.53,2.37 -0.82,2.31 -1.08,2.18 -1.35,2.04 -1.57,1.85 -1.80,1.66 -1.97,1.42 -2.14,1.18 -2.26,0.91 -2.37,0.63 -2.41,0.34 -2.45,0.05 -2.42,-0.24 -2.39,-0.53 -2.29,-0.81 -2.19,-1.09 -2.03,-1.34 -1.87,-1.58 -1.65,-1.79 -1.43,-1.99 -1.17,-2.13 -0.91,-2.27 -0.63,-2.35 -0.34,-2.43 -0.34,-2.43 L -0.34,-2.43 Z"></path></g><g transform="translate(470.89965732507403 189.29142496995627) rotate(0 9.33331298828125 -0.666656494140625)" stroke="none"><path fill="#1e1e1e" d="M 0,-2.61 Q 0,-2.61 1.53,-2.58 3.06,-2.55 4.48,-2.55 5.90,-2.54 7.80,-2.61 9.70,-2.68 11.10,-2.75 12.51,-2.82 13.86,-2.88 15.20,-2.93 16.07,-3.35 16.93,-3.76 17.36,-3.97 17.80,-4.19 18.28,-4.25 18.75,-4.31 19.23,-4.22 19.70,-4.13 20.12,-3.89 20.54,-3.65 20.86,-3.29 21.18,-2.93 21.37,-2.48 21.56,-2.04 21.60,-1.56 21.64,-1.07 21.52,-0.61 21.40,-0.14 21.14,0.26 20.88,0.66 20.50,0.97 20.12,1.27 19.67,1.43 19.21,1.60 18.73,1.61 18.25,1.62 17.79,1.47 17.32,1.33 16.93,1.05 16.54,0.76 16.26,0.37 15.98,-0.01 15.84,-0.48 15.70,-0.94 15.72,-1.42 15.73,-1.90 15.90,-2.36 16.07,-2.81 16.37,-3.18 16.68,-3.56 17.09,-3.82 17.49,-4.08 17.96,-4.19 18.43,-4.30 18.91,-4.26 19.39,-4.22 19.84,-4.03 20.28,-3.84 20.64,-3.51 21.00,-3.19 21.23,-2.77 21.47,-2.35 21.56,-1.87 21.65,-1.40 21.58,-0.92 21.51,-0.44 21.29,-0.01 21.08,0.41 20.74,0.75 20.39,1.09 20.39,1.09 20.39,1.09 17.80,2.01 15.20,2.93 13.86,2.88 12.51,2.82 11.10,2.75 9.70,2.68 7.80,2.61 5.90,2.54 4.48,2.55 3.06,2.55 1.53,2.58 0,2.61 -0.31,2.57 -0.62,2.53 -0.91,2.42 -1.21,2.31 -1.47,2.13 -1.73,1.95 -1.94,1.71 -2.15,1.48 -2.29,1.20 -2.44,0.92 -2.51,0.62 -2.59,0.31 -2.59,-0.00 -2.59,-0.31 -2.51,-0.62 -2.44,-0.92 -2.29,-1.20 -2.15,-1.48 -1.94,-1.72 -1.73,-1.95 -1.47,-2.13 -1.21,-2.31 -0.91,-2.42 -0.62,-2.53 -0.31,-2.57 0.00,-2.61 0.00,-2.61 L 0,-2.61 Z"></path></g><g transform="translate(501.56628330163653 169.29142496995627) rotate(0 9.66668701171875 13)" stroke="none"><path fill="#1e1e1e" d="M 2.62,0 Q 2.62,0 2.64,1.15 2.66,2.3 2.67,3.55 2.67,4.81 2.69,5.91 2.71,7.02 2.72,8.26 2.72,9.50 2.79,10.90 2.86,12.31 2.72,13.19 2.59,14.07 2.54,14.43 2.50,14.79 2.37,15.12 2.25,15.46 2.04,15.75 1.84,16.05 1.57,16.29 1.30,16.52 0.98,16.69 0.67,16.86 0.32,16.94 -0.02,17.03 -0.38,17.03 -0.74,17.03 -1.09,16.94 -1.43,16.86 -1.75,16.69 -2.07,16.52 -2.34,16.29 -2.61,16.05 -2.81,15.75 -3.01,15.46 -3.14,15.12 -3.27,14.79 -3.31,14.43 -3.35,14.07 -0.90,12.83 1.54,11.59 2.73,11.58 3.92,11.58 5.50,11.54 7.08,11.49 8.66,11.48 10.23,11.46 11.32,11.48 12.40,11.49 13.90,11.47 15.40,11.45 16.76,11.41 18.11,11.36 20.07,12.12 22.04,12.88 22.59,14.08 23.15,15.29 23.25,16.79 23.36,18.30 22.97,20.41 22.59,22.51 21.53,23.52 20.46,24.53 19.26,25.37 18.05,26.20 16.90,26.65 15.75,27.09 13.42,28.21 11.09,29.33 10.53,29.41 9.97,29.50 9.41,29.41 8.85,29.31 8.35,29.04 7.85,28.77 7.46,28.36 7.08,27.94 6.84,27.42 6.61,26.91 6.55,26.34 6.49,25.78 6.62,25.23 6.75,24.67 7.04,24.19 7.34,23.70 7.77,23.34 8.21,22.98 8.74,22.77 9.27,22.56 9.83,22.54 10.40,22.51 10.95,22.67 11.49,22.82 11.96,23.15 12.43,23.47 12.77,23.92 13.11,24.38 13.28,24.91 13.46,25.45 13.46,26.02 13.45,26.59 13.27,27.12 13.08,27.66 12.73,28.11 12.39,28.56 11.92,28.87 11.44,29.19 10.90,29.34 10.35,29.48 9.78,29.45 9.21,29.41 8.69,29.20 8.16,28.99 7.73,28.62 7.30,28.24 7.02,27.76 6.73,27.27 6.61,26.71 6.49,26.16 6.56,25.59 6.62,25.03 6.87,24.52 7.11,24.00 7.50,23.60 7.89,23.19 8.40,22.92 8.90,22.66 8.90,22.66 8.90,22.66 10.11,22.17 11.32,21.68 12.66,21.19 14.01,20.69 15.31,20.31 16.61,19.92 17.36,18.94 18.11,17.96 16.76,17.91 15.40,17.87 13.90,17.85 12.40,17.83 11.31,17.85 10.23,17.86 8.64,17.84 7.06,17.82 5.82,17.78 4.57,17.73 3.45,17.64 2.33,17.54 1.00,17.39 -0.33,17.23 1.12,15.65 2.59,14.07 2.54,14.43 2.50,14.79 2.37,15.12 2.25,15.46 2.04,15.75 1.84,16.05 1.57,16.29 1.30,16.52 0.98,16.69 0.67,16.86 0.32,16.94 -0.02,17.03 -0.38,17.03 -0.74,17.03 -1.09,16.94 -1.43,16.86 -1.75,16.69 -2.07,16.52 -2.34,16.29 -2.61,16.05 -2.81,15.75 -3.01,15.46 -3.14,15.12 -3.27,14.79 -3.31,14.43 -3.35,14.07 -3.11,13.19 -2.86,12.31 -2.79,10.90 -2.72,9.50 -2.72,8.26 -2.71,7.02 -2.69,5.91 -2.67,4.81 -2.67,3.55 -2.66,2.3 -2.64,1.15 -2.62,0 -2.59,-0.31 -2.55,-0.62 -2.43,-0.92 -2.32,-1.22 -2.14,-1.48 -1.96,-1.74 -1.73,-1.95 -1.49,-2.16 -1.21,-2.31 -0.93,-2.45 -0.62,-2.53 -0.31,-2.60 0.00,-2.60 0.31,-2.60 0.62,-2.53 0.93,-2.45 1.21,-2.31 1.49,-2.16 1.73,-1.95 1.96,-1.74 2.14,-1.48 2.32,-1.22 2.43,-0.92 2.55,-0.62 2.59,-0.31 2.62,0.00 2.62,0.00 L 2.62,0 Z"></path></g><g transform="translate(504.89965732507403 171.95811198167502) rotate(0 8 -0.66668701171875)" stroke="none"><path fill="#1e1e1e" d="M -0.37,-2.61 Q -0.37,-2.61 0.96,-2.80 2.31,-2.99 4.38,-3.18 6.45,-3.37 7.81,-3.45 9.18,-3.54 11.10,-3.57 13.02,-3.60 13.95,-3.85 14.87,-4.09 15.34,-4.20 15.82,-4.31 16.30,-4.26 16.78,-4.21 17.22,-4.01 17.66,-3.81 18.01,-3.48 18.36,-3.15 18.59,-2.72 18.82,-2.30 18.90,-1.82 18.98,-1.35 18.91,-0.87 18.83,-0.39 18.61,0.03 18.38,0.45 18.03,0.79 17.69,1.12 17.25,1.33 16.81,1.53 16.33,1.59 15.85,1.64 15.38,1.54 14.91,1.44 14.49,1.20 14.08,0.95 13.76,0.58 13.45,0.22 13.26,-0.22 13.08,-0.67 13.05,-1.15 13.03,-1.63 13.15,-2.10 13.28,-2.57 13.55,-2.97 13.82,-3.37 14.20,-3.66 14.58,-3.96 15.04,-4.11 15.49,-4.27 15.98,-4.27 16.46,-4.28 16.92,-4.13 17.38,-3.97 17.76,-3.68 18.15,-3.39 18.42,-3.00 18.70,-2.60 18.83,-2.13 18.96,-1.67 18.94,-1.19 18.91,-0.70 18.74,-0.25 18.56,0.19 18.25,0.56 17.94,0.93 17.53,1.18 17.12,1.43 17.12,1.43 17.12,1.43 15.07,1.85 13.03,2.27 11.14,2.24 9.24,2.22 7.94,2.18 6.64,2.13 4.85,2.18 3.05,2.22 1.71,2.42 0.37,2.61 0.05,2.62 -0.26,2.63 -0.57,2.56 -0.88,2.49 -1.17,2.34 -1.45,2.20 -1.69,2.00 -1.94,1.79 -2.12,1.53 -2.31,1.27 -2.43,0.98 -2.55,0.68 -2.59,0.37 -2.64,0.05 -2.61,-0.26 -2.57,-0.57 -2.47,-0.87 -2.36,-1.17 -2.19,-1.44 -2.01,-1.71 -1.78,-1.92 -1.54,-2.14 -1.26,-2.29 -0.98,-2.45 -0.68,-2.53 -0.37,-2.61 -0.37,-2.61 L -0.37,-2.61 Z"></path></g><g transform="translate(348.8996268074959 243.95811198167502) rotate(0 4.3333282470703125 0)" stroke="none"><path fill="#1e1e1e" d="M 0,-2.54 Q 0,-2.54 1.34,-2.54 2.68,-2.55 3.96,-2.63 5.23,-2.72 6.95,-2.74 8.66,-2.77 9.10,-2.70 9.55,-2.63 9.94,-2.41 10.34,-2.20 10.65,-1.88 10.96,-1.55 11.15,-1.14 11.34,-0.74 11.38,-0.29 11.43,0.15 11.34,0.58 11.24,1.02 11.01,1.41 10.78,1.79 10.43,2.08 10.09,2.37 9.68,2.54 9.26,2.71 8.81,2.73 8.36,2.75 7.93,2.63 7.50,2.51 7.12,2.26 6.75,2.01 6.48,1.65 6.21,1.29 6.07,0.87 5.92,0.44 5.92,-0.00 5.92,-0.44 6.07,-0.87 6.21,-1.30 6.48,-1.65 6.75,-2.01 7.13,-2.26 7.50,-2.51 7.93,-2.63 8.36,-2.75 8.81,-2.73 9.26,-2.71 9.68,-2.54 10.09,-2.37 10.44,-2.08 10.78,-1.79 11.01,-1.41 11.24,-1.02 11.34,-0.58 11.43,-0.14 11.38,0.29 11.34,0.74 11.15,1.15 10.96,1.55 10.65,1.88 10.34,2.20 9.94,2.42 9.55,2.63 9.10,2.70 8.66,2.77 8.66,2.77 8.66,2.77 6.95,2.74 5.23,2.72 3.96,2.63 2.68,2.55 1.34,2.54 0,2.54 -0.30,2.50 -0.60,2.46 -0.89,2.36 -1.18,2.25 -1.43,2.07 -1.68,1.90 -1.88,1.67 -2.09,1.44 -2.23,1.17 -2.37,0.90 -2.45,0.60 -2.52,0.30 -2.52,-0.00 -2.52,-0.30 -2.45,-0.60 -2.37,-0.90 -2.23,-1.17 -2.09,-1.44 -1.88,-1.67 -1.68,-1.90 -1.43,-2.07 -1.18,-2.25 -0.89,-2.36 -0.60,-2.46 -0.30,-2.50 0.00,-2.54 0.00,-2.54 L 0,-2.54 Z"></path></g><g transform="translate(368.2329703133553 234.62473795823752) rotate(0 9 19)" stroke="none"><path fill="#1e1e1e" d="M -1.33,-2.23 Q -1.33,-2.23 -0.37,-2.83 0.58,-3.43 1.90,-3.85 3.23,-4.26 4.83,-4.39 6.43,-4.52 7.83,-4.56 9.24,-4.60 11.02,-4.69 12.80,-4.78 14.12,-4.87 15.45,-4.96 16.97,-4.78 18.50,-4.59 19.48,-3.17 20.46,-1.76 20.24,-0.56 20.03,0.63 19.45,1.59 18.88,2.56 17.90,3.82 16.92,5.08 15.58,6.71 14.24,8.34 13.49,9.90 12.73,11.46 11.70,13.42 10.66,15.38 10.64,16.93 10.61,18.48 10.62,19.57 10.64,20.66 10.65,21.78 10.67,22.90 10.70,24.37 10.73,25.84 10.76,26.99 10.78,28.14 10.48,29.99 10.18,31.83 9.86,32.90 9.55,33.96 9.22,35.18 8.90,36.40 8.88,38.22 8.85,40.04 8.75,40.60 8.65,41.17 8.38,41.67 8.10,42.17 7.68,42.55 7.27,42.94 6.74,43.17 6.22,43.40 5.66,43.46 5.09,43.51 4.53,43.38 3.98,43.25 3.49,42.95 3.01,42.65 2.65,42.21 2.28,41.77 2.08,41.24 1.88,40.70 1.85,40.14 1.83,39.57 1.99,39.02 2.15,38.47 2.48,38.00 2.80,37.54 3.26,37.20 3.72,36.86 4.26,36.68 4.81,36.51 5.38,36.52 5.95,36.53 6.48,36.72 7.02,36.90 7.47,37.26 7.92,37.61 8.23,38.08 8.55,38.56 8.69,39.11 8.84,39.66 8.80,40.23 8.76,40.80 8.54,41.33 8.32,41.85 7.95,42.28 7.57,42.71 7.08,43.00 6.59,43.29 6.03,43.40 5.47,43.52 4.90,43.45 4.34,43.38 3.82,43.13 3.31,42.88 2.90,42.49 2.49,42.09 2.23,41.58 1.97,41.07 1.89,40.51 1.80,39.95 1.80,39.95 1.80,39.95 1.85,38.18 1.89,36.42 2.26,35.02 2.62,33.61 2.88,32.33 3.14,31.04 3.51,29.59 3.87,28.14 3.90,26.99 3.93,25.84 3.96,24.37 3.99,22.90 4.03,21.28 4.06,19.66 4.11,18.28 4.16,16.91 4.40,15.46 4.63,14.02 5.08,12.91 5.52,11.81 6.15,10.75 6.78,9.68 7.15,8.48 7.53,7.28 8.49,5.95 9.44,4.61 10.25,3.51 11.07,2.40 12.14,1.09 13.22,-0.20 14.17,-0.84 15.11,-1.47 15.28,-0.25 15.46,0.96 14.16,0.88 12.85,0.80 11.14,0.77 9.42,0.73 8.12,0.77 6.83,0.82 5.04,0.98 3.24,1.13 2.29,1.68 1.33,2.23 1.05,2.35 0.76,2.48 0.45,2.54 0.14,2.59 -0.16,2.57 -0.47,2.55 -0.77,2.46 -1.07,2.36 -1.34,2.20 -1.61,2.04 -1.83,1.82 -2.05,1.59 -2.21,1.32 -2.37,1.05 -2.46,0.76 -2.56,0.46 -2.57,0.14 -2.59,-0.16 -2.53,-0.47 -2.48,-0.78 -2.35,-1.06 -2.22,-1.35 -2.02,-1.59 -1.83,-1.84 -1.58,-2.03 -1.33,-2.23 -1.33,-2.23 L -1.33,-2.23 Z"></path></g><g transform="translate(281.56628330163653 241.29142496995627) rotate(0 7 0.333343505859375)" stroke="none"><path fill="#1e1e1e" d="M 0.31,-2.53 Q 0.31,-2.53 1.84,-2.31 3.37,-2.10 4.53,-2.04 5.68,-1.99 6.92,-1.97 8.16,-1.95 11.08,-2.00 14.00,-2.04 14.43,-1.97 14.87,-1.90 15.25,-1.69 15.64,-1.48 15.94,-1.16 16.24,-0.85 16.43,-0.45 16.61,-0.05 16.66,0.38 16.70,0.82 16.61,1.24 16.51,1.67 16.29,2.05 16.06,2.42 15.72,2.71 15.39,2.99 14.98,3.15 14.57,3.31 14.13,3.34 13.69,3.36 13.27,3.24 12.85,3.12 12.49,2.87 12.12,2.63 11.86,2.28 11.59,1.93 11.46,1.51 11.32,1.09 11.32,0.65 11.32,0.22 11.46,-0.19 11.60,-0.61 11.87,-0.95 12.13,-1.30 12.50,-1.55 12.86,-1.79 13.29,-1.91 13.71,-2.03 14.15,-2.00 14.59,-1.98 14.99,-1.81 15.40,-1.65 15.73,-1.36 16.07,-1.08 16.29,-0.70 16.52,-0.33 16.61,0.09 16.70,0.52 16.66,0.96 16.61,1.39 16.42,1.79 16.24,2.19 15.93,2.51 15.63,2.83 15.24,3.03 14.85,3.24 14.42,3.30 13.99,3.37 13.99,3.37 13.99,3.37 11.01,3.28 8.02,3.18 6.68,3.13 5.35,3.08 4.05,2.97 2.75,2.86 1.21,2.70 -0.31,2.53 -0.61,2.45 -0.91,2.38 -1.18,2.24 -1.45,2.09 -1.68,1.89 -1.91,1.68 -2.09,1.43 -2.26,1.17 -2.37,0.89 -2.48,0.60 -2.51,0.29 -2.55,-0.00 -2.51,-0.31 -2.47,-0.62 -2.36,-0.90 -2.25,-1.19 -2.08,-1.44 -1.90,-1.70 -1.67,-1.90 -1.44,-2.10 -1.17,-2.24 -0.89,-2.39 -0.59,-2.46 -0.29,-2.53 0.00,-2.53 0.31,-2.53 0.31,-2.53 L 0.31,-2.53 Z"></path></g><g transform="translate(313.56628330163653 235.29142496995627) rotate(0 -3.3333282470703125 17.333343505859375)" stroke="none"><path fill="#1e1e1e" d="M -2.62,0.43 Q -2.62,0.43 -2.82,-0.68 -3.02,-1.80 -4.04,-2.62 -5.05,-3.44 -6.06,-4.19 -7.08,-4.93 -6.88,-3.38 -6.69,-1.82 -5.71,-0.69 -4.73,0.42 -3.65,0.78 -2.58,1.14 -1.72,0.21 -0.87,-0.72 0.31,-1.76 1.51,-2.81 3.64,-2.06 5.76,-1.31 6.24,0.80 6.71,2.92 6.70,4.68 6.70,6.43 6.44,7.90 6.19,9.38 5.82,11.62 5.45,13.87 5.32,15.70 5.20,17.52 5.18,19.19 5.17,20.86 4.31,23.10 3.44,25.34 3.08,26.86 2.72,28.39 2.29,30.43 1.86,32.47 1.06,33.22 0.25,33.96 -0.10,35.88 -0.45,37.80 -1.41,39.29 -2.37,40.78 -2.45,41.84 -2.53,42.90 -2.66,43.45 -2.79,43.99 -3.09,44.47 -3.39,44.95 -3.82,45.30 -4.25,45.66 -4.78,45.86 -5.30,46.06 -5.86,46.08 -6.42,46.10 -6.96,45.95 -7.50,45.79 -7.96,45.47 -8.42,45.14 -8.75,44.69 -9.08,44.24 -9.25,43.71 -9.43,43.17 -9.42,42.61 -9.41,42.05 -9.22,41.52 -9.03,40.99 -8.69,40.55 -8.34,40.11 -7.87,39.80 -7.40,39.49 -6.86,39.35 -6.32,39.21 -5.76,39.25 -5.20,39.29 -4.68,39.50 -4.16,39.72 -3.74,40.09 -3.32,40.46 -3.04,40.94 -2.75,41.43 -2.64,41.98 -2.53,42.53 -2.60,43.08 -2.67,43.64 -2.91,44.15 -3.15,44.65 -3.55,45.05 -3.94,45.45 -4.44,45.71 -4.94,45.97 -5.49,46.05 -6.05,46.13 -6.60,46.03 -7.15,45.93 -7.64,45.66 -8.14,45.39 -8.52,44.98 -8.90,44.56 -9.12,44.05 -9.35,43.54 -9.40,42.98 -9.46,42.42 -9.46,42.42 -9.46,42.42 -8.79,39.70 -8.13,36.98 -7.31,35.39 -6.49,33.80 -6.03,32.57 -5.57,31.34 -4.76,30.14 -3.95,28.94 -3.57,27.32 -3.18,25.70 -2.87,24.45 -2.56,23.20 -1.82,22.36 -1.08,21.52 -1.10,20.36 -1.11,19.21 -1.04,17.29 -0.97,15.37 -0.88,14.10 -0.79,12.82 -0.54,10.59 -0.30,8.36 -0.20,6.38 -0.10,4.40 0.18,2.83 0.47,1.27 2.75,1.98 5.02,2.69 3.92,3.94 2.83,5.19 1.91,5.81 0.98,6.43 -1.32,7.13 -3.64,7.83 -5.17,7.32 -6.69,6.81 -8.14,6.05 -9.59,5.29 -11.16,3.54 -12.72,1.79 -13.01,-0.02 -13.29,-1.84 -13.26,-3.17 -13.24,-4.49 -13.13,-5.90 -13.02,-7.30 -12.50,-8.47 -11.98,-9.64 -10.02,-10.34 -8.05,-11.04 -6.32,-10.69 -4.59,-10.34 -3.31,-9.36 -2.04,-8.37 -1.08,-7.32 -0.13,-6.27 1.06,-4.53 2.25,-2.79 2.44,-1.61 2.62,-0.43 2.64,-0.11 2.65,0.20 2.59,0.51 2.53,0.83 2.39,1.12 2.25,1.41 2.05,1.66 1.85,1.91 1.59,2.10 1.34,2.30 1.04,2.42 0.75,2.55 0.43,2.60 0.11,2.66 -0.20,2.63 -0.52,2.61 -0.82,2.51 -1.13,2.41 -1.40,2.24 -1.67,2.07 -1.90,1.84 -2.12,1.60 -2.28,1.33 -2.44,1.05 -2.53,0.74 -2.62,0.43 -2.62,0.43 L -2.62,0.43 Z"></path></g><g stroke-linecap="round"><g transform="translate(219.7093567658215 145.98418764211237) rotate(0 31.67107925087214 32.8232635139674)"><path d="M-0.19 0.78 C10.74 11.62, 54.06 53.27, 65.1 63.98 M-1.75 0.15 C9.05 11.28, 52.8 54.99, 64.02 65.5" stroke="#1e1e1e" stroke-width="2" fill="none"></path></g></g><mask></mask><g stroke-linecap="round"><g transform="translate(1288.3760437775402 211.31750063039365) rotate(0 32.368353464081906 32.05648991434835)"><path d="M-0.3 -0.69 C10.41 9.73, 53.96 52.88, 65.03 63.52 M1.75 1.56 C12.2 12.06, 53.26 54.4, 63.93 64.8" stroke="#1e1e1e" stroke-width="2" fill="none"></path></g></g><mask></mask><g stroke-linecap="round"><g transform="translate(219.98396507725113 145.6882271872647) rotate(0 -22.786102171614772 31.879220090955496)"><path d="M-0.24 -1.07 C-7.99 9.68, -37.81 52.71, -45.33 63.77 M-1.82 0.98 C-9.29 11.92, -36.14 54.46, -42.97 64.83" stroke="#1e1e1e" stroke-width="2" fill="none"></path></g></g><mask></mask><g stroke-linecap="round"><g transform="translate(1399.3173391006887 210.3548531638272) rotate(0 -22.13487005396746 31.829441289063546)"><path d="M0.21 -0.19 C-7.13 10.65, -36.62 52.95, -43.93 63.87 M-1.13 -1.34 C-8.59 9.75, -37.36 54.21, -44.48 64.99" stroke="#1e1e1e" stroke-width="2" fill="none"></path></g></g><mask></mask><g transform="translate(143.56628330163653 243.95811198167502) rotate(0 6.6666717529296875 -1.333343505859375)" stroke="none"><path fill="#1e1e1e" d="M -0.51,-2.58 Q -0.51,-2.58 0.43,-2.81 1.38,-3.03 3.29,-3.23 5.21,-3.44 6.66,-3.80 8.12,-4.17 9.47,-4.36 10.82,-4.56 11.19,-4.91 11.56,-5.26 12.02,-5.47 12.48,-5.69 12.99,-5.75 13.49,-5.80 13.99,-5.69 14.49,-5.59 14.92,-5.32 15.36,-5.06 15.69,-4.68 16.02,-4.29 16.21,-3.82 16.40,-3.34 16.43,-2.84 16.46,-2.33 16.32,-1.84 16.19,-1.35 15.90,-0.93 15.62,-0.50 15.21,-0.20 14.81,0.10 14.33,0.27 13.84,0.43 13.34,0.43 12.83,0.43 12.34,0.27 11.86,0.11 11.46,-0.19 11.05,-0.49 10.76,-0.91 10.48,-1.34 10.34,-1.83 10.20,-2.31 10.23,-2.82 10.26,-3.33 10.44,-3.80 10.63,-4.28 10.96,-4.67 11.29,-5.05 11.72,-5.32 12.16,-5.58 12.65,-5.69 13.15,-5.80 13.66,-5.75 14.16,-5.69 14.63,-5.48 15.09,-5.27 15.46,-4.92 15.83,-4.57 16.07,-4.12 16.31,-3.67 16.39,-3.17 16.47,-2.67 16.39,-2.17 16.31,-1.66 16.07,-1.21 15.84,-0.76 15.84,-0.76 15.84,-0.76 12.65,0.42 9.45,1.62 7.44,1.91 5.42,2.21 3.93,2.24 2.44,2.26 1.48,2.42 0.51,2.58 0.20,2.61 -0.11,2.63 -0.43,2.58 -0.74,2.53 -1.03,2.40 -1.32,2.28 -1.58,2.08 -1.83,1.89 -2.03,1.64 -2.23,1.40 -2.37,1.11 -2.50,0.82 -2.57,0.51 -2.63,0.20 -2.61,-0.11 -2.60,-0.43 -2.51,-0.73 -2.42,-1.04 -2.26,-1.31 -2.10,-1.59 -1.88,-1.82 -1.66,-2.05 -1.39,-2.22 -1.12,-2.39 -0.81,-2.48 -0.51,-2.58 -0.51,-2.58 L -0.51,-2.58 Z"></path></g><g transform="translate(164.8996268074959 231.95811198167502) rotate(0 0 12.33331298828125)" stroke="none"><path fill="#1e1e1e" d="M 2.60,0 Q 2.60,0 2.60,1.34 2.60,2.68 2.62,3.82 2.65,4.97 2.72,6.59 2.79,8.22 2.78,9.49 2.78,10.77 2.77,12.08 2.75,13.39 2.82,14.84 2.88,16.29 2.93,17.73 2.98,19.16 3.05,20.32 3.11,21.48 3.13,23.07 3.15,24.66 3.07,25.17 2.98,25.67 2.74,26.12 2.51,26.57 2.13,26.92 1.76,27.27 1.30,27.49 0.84,27.70 0.33,27.76 -0.17,27.81 -0.66,27.70 -1.16,27.59 -1.60,27.33 -2.04,27.06 -2.37,26.68 -2.70,26.29 -2.89,25.81 -3.07,25.34 -3.10,24.83 -3.13,24.32 -2.99,23.83 -2.86,23.34 -2.57,22.92 -2.28,22.49 -1.88,22.18 -1.47,21.88 -0.99,21.71 -0.50,21.55 0.00,21.55 0.51,21.55 0.99,21.71 1.47,21.88 1.88,22.18 2.28,22.49 2.57,22.92 2.86,23.34 2.99,23.83 3.13,24.32 3.10,24.83 3.07,25.34 2.89,25.81 2.70,26.29 2.37,26.68 2.04,27.07 1.60,27.33 1.16,27.59 0.66,27.70 0.16,27.81 -0.33,27.76 -0.84,27.70 -1.30,27.49 -1.77,27.27 -2.14,26.92 -2.51,26.57 -2.74,26.12 -2.98,25.67 -3.07,25.16 -3.15,24.66 -3.15,24.66 -3.15,24.66 -3.13,23.07 -3.11,21.48 -3.05,20.32 -2.98,19.16 -2.93,17.73 -2.88,16.29 -2.82,14.84 -2.75,13.39 -2.77,12.08 -2.78,10.77 -2.78,9.49 -2.79,8.22 -2.72,6.59 -2.65,4.97 -2.62,3.82 -2.60,2.68 -2.60,1.34 -2.60,0 -2.56,-0.31 -2.53,-0.62 -2.41,-0.91 -2.30,-1.21 -2.12,-1.46 -1.95,-1.72 -1.71,-1.93 -1.48,-2.14 -1.20,-2.29 -0.92,-2.43 -0.61,-2.51 -0.31,-2.58 0.00,-2.58 0.31,-2.58 0.61,-2.51 0.92,-2.43 1.20,-2.29 1.48,-2.14 1.71,-1.93 1.95,-1.72 2.12,-1.46 2.30,-1.21 2.41,-0.91 2.53,-0.62 2.56,-0.31 2.60,0.00 2.60,0.00 L 2.60,0 Z"></path></g><g transform="translate(168.8996268074959 231.29142496995627) rotate(0 1.6666641235351562 12.666656494140625)" stroke="none"><path fill="#1e1e1e" d="M 2.58,-0.28 Q 2.58,-0.28 2.71,1.44 2.83,3.17 2.93,4.51 3.03,5.85 3.68,7.38 4.33,8.92 4.68,10.15 5.04,11.39 5.28,12.80 5.52,14.21 5.94,15.91 6.35,17.60 6.43,19.06 6.52,20.51 6.57,22.92 6.61,25.33 6.53,25.85 6.44,26.38 6.19,26.85 5.94,27.32 5.56,27.68 5.17,28.05 4.69,28.27 4.21,28.49 3.68,28.55 3.15,28.61 2.63,28.49 2.11,28.38 1.66,28.11 1.20,27.83 0.86,27.43 0.51,27.02 0.32,26.53 0.12,26.03 0.09,25.50 0.06,24.97 0.21,24.46 0.35,23.95 0.65,23.51 0.94,23.07 1.37,22.75 1.79,22.43 2.29,22.26 2.80,22.09 3.33,22.09 3.86,22.09 4.36,22.26 4.87,22.43 5.29,22.75 5.71,23.07 6.01,23.51 6.31,23.95 6.45,24.46 6.59,24.97 6.56,25.50 6.54,26.03 6.34,26.53 6.14,27.02 5.80,27.43 5.45,27.83 5.00,28.11 4.54,28.38 4.02,28.49 3.51,28.61 2.98,28.55 2.45,28.49 1.97,28.27 1.48,28.05 1.10,27.68 0.71,27.32 0.46,26.85 0.22,26.38 0.13,25.85 0.04,25.33 0.04,25.33 0.04,25.33 0.07,23.35 0.10,21.38 0.14,20.09 0.19,18.79 0.18,17.71 0.18,16.63 -0.09,14.77 -0.36,12.91 -0.67,10.94 -0.97,8.98 -1.45,7.63 -1.93,6.27 -2.00,4.99 -2.07,3.72 -2.33,2.00 -2.58,0.28 -2.58,-0.02 -2.58,-0.34 -2.50,-0.64 -2.42,-0.94 -2.27,-1.22 -2.12,-1.50 -1.91,-1.73 -1.70,-1.96 -1.44,-2.14 -1.18,-2.31 -0.89,-2.42 -0.59,-2.53 -0.28,-2.56 0.02,-2.60 0.33,-2.56 0.64,-2.52 0.94,-2.40 1.23,-2.29 1.48,-2.11 1.74,-1.93 1.95,-1.69 2.15,-1.45 2.30,-1.17 2.44,-0.89 2.51,-0.59 2.58,-0.28 2.58,-0.28 L 2.58,-0.28 Z"></path></g><g transform="translate(184.23295505456622 235.95811198167502) rotate(0 -0.6666641235351562 15)" stroke="none"><path fill="#1e1e1e" d="M 2.50,0.83 Q 2.50,0.83 2.13,1.98 1.76,3.14 1.65,4.54 1.54,5.95 1.51,7.11 1.49,8.27 1.53,9.82 1.57,11.38 1.64,12.75 1.71,14.11 1.73,15.81 1.76,17.51 1.80,18.64 1.83,19.77 1.86,21.14 1.88,22.52 1.92,23.94 1.97,25.36 1.99,27.68 2.01,30.00 1.93,30.53 1.84,31.07 1.58,31.54 1.33,32.02 0.94,32.40 0.54,32.77 0.05,33.00 -0.43,33.23 -0.97,33.28 -1.51,33.34 -2.04,33.23 -2.57,33.11 -3.03,32.83 -3.50,32.55 -3.85,32.14 -4.20,31.72 -4.40,31.22 -4.60,30.72 -4.63,30.17 -4.66,29.63 -4.52,29.11 -4.37,28.59 -4.07,28.14 -3.76,27.69 -3.33,27.36 -2.90,27.03 -2.38,26.86 -1.87,26.69 -1.33,26.69 -0.79,26.69 -0.27,26.86 0.23,27.03 0.66,27.36 1.10,27.69 1.40,28.14 1.70,28.59 1.85,29.11 1.99,29.63 1.96,30.17 1.94,30.72 1.73,31.22 1.53,31.72 1.18,32.14 0.83,32.55 0.37,32.83 -0.09,33.11 -0.62,33.23 -1.15,33.34 -1.69,33.28 -2.23,33.22 -2.72,33.00 -3.21,32.77 -3.60,32.40 -4.00,32.02 -4.25,31.54 -4.51,31.06 -4.59,30.53 -4.68,29.99 -4.68,29.99 -4.68,29.99 -4.66,27.68 -4.63,25.36 -4.59,23.94 -4.55,22.52 -4.52,21.14 -4.50,19.77 -4.46,18.64 -4.42,17.51 -4.40,15.81 -4.38,14.10 -4.30,12.73 -4.22,11.35 -4.14,9.74 -4.07,8.13 -4.03,6.86 -4.00,5.59 -3.64,3.52 -3.29,1.45 -2.89,0.31 -2.50,-0.83 -2.36,-1.12 -2.22,-1.40 -2.02,-1.65 -1.82,-1.90 -1.57,-2.09 -1.31,-2.28 -1.02,-2.40 -0.73,-2.53 -0.42,-2.58 -0.10,-2.63 0.20,-2.61 0.52,-2.58 0.82,-2.48 1.12,-2.38 1.39,-2.21 1.66,-2.04 1.88,-1.81 2.10,-1.58 2.26,-1.31 2.42,-1.03 2.51,-0.72 2.60,-0.42 2.61,-0.10 2.62,0.21 2.56,0.52 2.50,0.83 2.50,0.83 L 2.50,0.83 Z"></path></g><g transform="translate(166.23295505456622 232.62473795823752) rotate(0 0.6666641235351562 16)" stroke="none"><path fill="#1e1e1e" d="M 2.65,0 Q 2.65,0 2.68,0.95 2.71,1.91 2.72,3.09 2.73,4.26 2.75,5.33 2.77,6.41 2.77,7.63 2.77,8.85 2.83,10.25 2.90,11.65 2.95,12.99 3.00,14.34 3.04,15.59 3.08,16.85 3.12,17.97 3.16,19.10 3.21,20.29 3.26,21.47 3.30,22.76 3.34,24.05 3.96,25.43 4.58,26.82 4.68,29.40 4.78,31.98 4.69,32.53 4.60,33.08 4.34,33.58 4.08,34.07 3.68,34.46 3.28,34.84 2.77,35.08 2.27,35.32 1.71,35.38 1.16,35.44 0.61,35.32 0.06,35.21 -0.41,34.92 -0.89,34.63 -1.25,34.21 -1.61,33.79 -1.82,33.27 -2.03,32.75 -2.06,32.19 -2.09,31.64 -1.95,31.10 -1.80,30.56 -1.49,30.10 -1.18,29.63 -0.73,29.29 -0.29,28.95 0.23,28.77 0.76,28.59 1.31,28.59 1.87,28.59 2.40,28.76 2.93,28.94 3.38,29.28 3.82,29.61 4.14,30.07 4.46,30.53 4.61,31.07 4.76,31.61 4.73,32.17 4.70,32.72 4.50,33.24 4.29,33.76 3.93,34.19 3.57,34.62 3.10,34.91 2.62,35.20 2.07,35.32 1.53,35.44 0.97,35.38 0.42,35.32 -0.08,35.09 -0.59,34.86 -0.99,34.48 -1.40,34.09 -1.66,33.60 -1.93,33.11 -2.02,32.56 -2.11,32.01 -2.11,32.01 -2.11,32.01 -1.95,30.12 -1.78,28.23 -2.56,26.14 -3.34,24.05 -3.30,22.76 -3.26,21.47 -3.21,20.29 -3.16,19.10 -3.12,17.97 -3.08,16.85 -3.04,15.59 -3.00,14.34 -2.95,12.99 -2.90,11.65 -2.83,10.25 -2.77,8.85 -2.77,7.63 -2.77,6.41 -2.75,5.33 -2.73,4.26 -2.72,3.09 -2.71,1.91 -2.68,0.95 -2.65,0 -2.61,-0.31 -2.57,-0.63 -2.45,-0.93 -2.34,-1.23 -2.16,-1.49 -1.98,-1.75 -1.74,-1.96 -1.50,-2.18 -1.22,-2.32 -0.93,-2.47 -0.62,-2.55 -0.31,-2.63 0.00,-2.63 0.31,-2.63 0.62,-2.55 0.93,-2.47 1.22,-2.32 1.50,-2.18 1.74,-1.96 1.98,-1.75 2.16,-1.49 2.34,-1.23 2.45,-0.93 2.57,-0.63 2.61,-0.31 2.65,0.00 2.65,0.00 L 2.65,0 Z"></path></g><g transform="translate(1404.2330313485115 168.62473795823752) rotate(0 1.6666259765625 9.66668701171875)" stroke="none"><path fill="#1e1e1e" d="M 2.66,0 Q 2.66,0 2.68,1.14 2.69,2.29 3.14,3.76 3.59,5.23 3.79,6.42 3.98,7.60 4.41,9.44 4.85,11.28 4.96,12.50 5.07,13.71 5.11,14.98 5.14,16.24 5.69,17.13 6.25,18.01 6.38,18.51 6.51,19.01 6.48,19.53 6.45,20.05 6.25,20.52 6.06,21.00 5.72,21.40 5.38,21.79 4.93,22.05 4.49,22.31 3.98,22.42 3.47,22.53 2.96,22.47 2.44,22.40 1.98,22.18 1.51,21.96 1.13,21.60 0.76,21.24 0.52,20.78 0.29,20.32 0.21,19.81 0.13,19.30 0.22,18.79 0.30,18.28 0.55,17.82 0.80,17.37 1.18,17.01 1.56,16.66 2.03,16.45 2.50,16.24 3.02,16.19 3.53,16.13 4.04,16.25 4.54,16.37 4.98,16.64 5.42,16.91 5.75,17.31 6.09,17.70 6.27,18.19 6.46,18.67 6.48,19.19 6.51,19.70 6.36,20.20 6.22,20.70 5.93,21.13 5.63,21.55 5.22,21.86 4.80,22.17 4.31,22.33 3.82,22.49 3.30,22.49 2.78,22.48 2.29,22.31 1.80,22.14 1.39,21.82 0.98,21.51 0.70,21.08 0.41,20.64 0.41,20.64 0.41,20.65 -0.36,18.57 -1.15,16.49 -1.14,15.19 -1.12,13.89 -1.12,12.61 -1.12,11.33 -1.39,9.82 -1.66,8.31 -1.98,6.61 -2.31,4.91 -2.50,3.61 -2.69,2.30 -2.68,1.15 -2.66,0 -2.62,-0.31 -2.58,-0.63 -2.47,-0.93 -2.36,-1.23 -2.17,-1.50 -1.99,-1.76 -1.75,-1.98 -1.51,-2.19 -1.22,-2.34 -0.94,-2.49 -0.63,-2.56 -0.32,-2.64 0.00,-2.64 0.32,-2.64 0.63,-2.56 0.94,-2.49 1.23,-2.34 1.51,-2.19 1.75,-1.98 1.99,-1.76 2.17,-1.50 2.36,-1.23 2.47,-0.93 2.58,-0.63 2.62,-0.31 2.66,0.00 2.66,0.00 L 2.66,0 Z"></path></g><g transform="translate(1416.899657325074 163.9580814640969) rotate(0 3.66668701171875 12.333343505859375)" stroke="none"><path fill="#1e1e1e" d="M 1.55,-2.07 Q 1.55,-2.07 2.35,-1.51 3.15,-0.96 4.31,1.02 5.48,3.01 5.94,4.46 6.40,5.92 7.15,7.93 7.90,9.95 7.99,11.53 8.07,13.11 8.54,15.31 9.01,17.50 9.41,19.30 9.81,21.10 10.04,23.49 10.28,25.88 10.22,26.35 10.17,26.83 9.96,27.26 9.75,27.69 9.42,28.03 9.08,28.38 8.66,28.59 8.23,28.81 7.76,28.88 7.29,28.95 6.81,28.87 6.34,28.78 5.92,28.55 5.50,28.32 5.18,27.97 4.86,27.62 4.66,27.18 4.47,26.74 4.42,26.27 4.38,25.79 4.49,25.33 4.60,24.86 4.85,24.45 5.10,24.05 5.47,23.74 5.84,23.44 6.29,23.27 6.73,23.10 7.21,23.08 7.69,23.06 8.15,23.19 8.61,23.33 9.00,23.60 9.39,23.88 9.68,24.26 9.96,24.65 10.11,25.10 10.25,25.56 10.25,26.04 10.24,26.52 10.08,26.97 9.92,27.42 9.63,27.80 9.33,28.17 8.93,28.43 8.53,28.70 8.07,28.82 7.60,28.94 7.13,28.91 6.65,28.87 6.21,28.69 5.77,28.51 5.41,28.19 5.05,27.88 4.81,27.46 4.56,27.05 4.47,26.58 4.37,26.11 4.37,26.11 4.37,26.11 4.25,24.25 4.13,22.38 3.80,20.58 3.46,18.77 3.15,17.47 2.84,16.18 2.58,14.83 2.32,13.49 2.17,11.73 2.01,9.96 1.18,7.87 0.34,5.77 0.12,4.51 -0.08,3.26 -0.82,2.66 -1.55,2.07 -1.78,1.85 -2.00,1.64 -2.17,1.37 -2.34,1.11 -2.44,0.81 -2.54,0.52 -2.56,0.20 -2.59,-0.10 -2.54,-0.41 -2.49,-0.71 -2.36,-1.00 -2.24,-1.29 -2.05,-1.54 -1.87,-1.79 -1.63,-1.99 -1.38,-2.19 -1.10,-2.32 -0.82,-2.45 -0.51,-2.52 -0.21,-2.58 0.10,-2.57 0.41,-2.56 0.71,-2.47 1.01,-2.38 1.28,-2.23 1.55,-2.07 1.55,-2.07 L 1.55,-2.07 Z"></path></g><g transform="translate(779.5662833016365 369.958111981675) rotate(0 319.66668701171875 -118.66668701171875)" stroke="none"><path fill="#1e1e1e" d="M -2.22,0 Q -2.22,0 -2.25,-1.34 -2.29,-2.68 -2.33,-3.83 -2.38,-4.98 -2.21,-6.25 -2.05,-7.53 -2.01,-8.61 -1.97,-9.70 -1.72,-11.28 -1.46,-12.86 -0.91,-14.61 -0.35,-16.35 -0.21,-17.45 -0.07,-18.55 0.47,-20.35 1.03,-22.15 1.52,-24.08 2.01,-26.02 2.68,-28.09 3.34,-30.17 3.56,-31.87 3.78,-33.57 4.78,-35.72 5.79,-37.86 6.09,-39.46 6.38,-41.06 6.68,-42.61 6.99,-44.16 7.27,-45.60 7.56,-47.04 7.62,-48.11 7.67,-49.18 7.63,-51.11 7.59,-53.03 7.74,-54.85 7.88,-56.67 8.46,-57.80 9.04,-58.93 9.34,-60.53 9.64,-62.13 10.14,-64.20 10.65,-66.27 11.31,-68.65 11.98,-71.04 12.71,-72.42 13.45,-73.81 13.73,-75.22 14.02,-76.64 14.98,-78.01 15.94,-79.38 16.39,-80.78 16.83,-82.17 17.73,-83.82 18.63,-85.47 18.94,-86.83 19.24,-88.19 19.97,-89.91 20.70,-91.62 21.18,-92.82 21.67,-94.02 22.37,-95.60 23.06,-97.18 23.45,-98.64 23.83,-100.10 24.83,-101.48 25.82,-102.87 26.22,-103.87 26.63,-104.88 26.96,-106.05 27.29,-107.23 28.19,-108.86 29.10,-110.50 29.58,-111.49 30.06,-112.47 31.22,-114.88 32.38,-117.28 33.07,-118.84 33.75,-120.40 34.16,-121.90 34.57,-123.40 35.25,-124.45 35.94,-125.51 36.28,-126.69 36.62,-127.87 36.96,-129.47 37.31,-131.07 38.16,-132.81 39.02,-134.56 39.49,-136.50 39.96,-138.45 40.29,-139.55 40.61,-140.65 40.93,-141.84 41.24,-143.04 41.94,-145.11 42.64,-147.19 42.90,-148.27 43.15,-149.35 44.42,-151.00 45.68,-152.66 46.25,-153.81 46.82,-154.97 48.05,-156.35 49.27,-157.74 50.34,-158.74 51.40,-159.74 52.23,-160.55 53.06,-161.36 54.52,-162.03 55.99,-162.70 57.59,-163.61 59.20,-164.53 61.02,-165.13 62.84,-165.73 63.66,-166.54 64.48,-167.35 65.56,-167.64 66.64,-167.93 68.46,-168.28 70.29,-168.62 71.95,-168.93 73.62,-169.24 75.51,-169.54 77.41,-169.84 79.14,-169.79 80.86,-169.73 82.30,-169.68 83.74,-169.63 85.56,-170.31 87.38,-170.98 88.95,-171.29 90.51,-171.60 91.64,-171.79 92.76,-171.97 94.31,-172.27 95.86,-172.56 97.00,-172.68 98.15,-172.79 100.24,-173.38 102.33,-173.98 103.57,-174.20 104.80,-174.42 105.86,-174.57 106.92,-174.72 108.40,-174.75 109.88,-174.78 111.57,-175.14 113.26,-175.49 114.86,-175.82 116.47,-176.15 118.61,-176.43 120.76,-176.71 122.66,-177.31 124.55,-177.91 125.72,-178.01 126.90,-178.11 128.69,-178.34 130.48,-178.58 131.67,-178.69 132.86,-178.80 133.93,-179.00 134.99,-179.19 136.23,-179.45 137.47,-179.71 138.52,-179.87 139.57,-180.03 140.66,-180.11 141.74,-180.19 143.51,-181.15 145.29,-182.12 147.21,-182.53 149.12,-182.94 150.33,-183.12 151.54,-183.29 153.22,-183.83 154.89,-184.37 156.93,-184.94 158.96,-185.50 160.61,-185.96 162.25,-186.41 164.09,-186.48 165.93,-186.54 167.48,-186.82 169.03,-187.09 170.79,-187.39 172.54,-187.69 174.04,-188.26 175.53,-188.82 177.35,-189.03 179.17,-189.23 180.37,-189.22 181.57,-189.20 182.95,-189.23 184.32,-189.26 186.57,-189.36 188.82,-189.46 190.53,-189.86 192.25,-190.27 193.33,-190.33 194.41,-190.39 196.06,-190.44 197.71,-190.48 198.90,-190.65 200.09,-190.81 201.51,-191.00 202.92,-191.20 204.49,-191.23 206.05,-191.27 207.97,-191.26 209.89,-191.25 211.41,-191.26 212.93,-191.27 214.90,-191.78 216.88,-192.29 218.46,-192.45 220.05,-192.60 221.38,-192.56 222.71,-192.53 224.50,-192.79 226.28,-193.06 228.30,-193.11 230.32,-193.15 231.56,-193.27 232.80,-193.40 234.08,-193.47 235.37,-193.55 236.70,-193.57 238.04,-193.58 239.56,-193.54 241.09,-193.50 243.32,-193.52 245.55,-193.54 246.83,-193.53 248.11,-193.51 250.11,-193.53 252.12,-193.54 253.42,-193.52 254.73,-193.50 256.05,-193.49 257.37,-193.47 258.51,-193.48 259.65,-193.49 261.46,-193.53 263.27,-193.57 264.43,-193.57 265.60,-193.57 266.87,-193.55 268.13,-193.54 269.82,-193.58 271.52,-193.62 273.00,-193.66 274.48,-193.70 275.87,-193.73 277.25,-193.76 279.14,-193.76 281.03,-193.76 283.09,-193.75 285.16,-193.75 286.36,-193.73 287.56,-193.71 288.83,-193.68 290.11,-193.65 292.39,-193.63 294.66,-193.61 296.00,-193.58 297.33,-193.55 299.15,-193.85 300.97,-194.14 302.78,-194.23 304.59,-194.32 306.26,-194.35 307.94,-194.39 309.71,-194.90 311.48,-195.42 312.76,-195.81 314.05,-196.19 315.43,-196.60 316.82,-197.01 317.99,-197.06 319.15,-197.11 321.08,-197.13 323.02,-197.14 324.89,-197.14 326.77,-197.15 328.08,-197.11 329.39,-197.07 331.50,-197.06 333.60,-197.05 334.67,-197.05 335.75,-197.04 337.98,-197.02 340.21,-197.01 342.07,-197.02 343.92,-197.04 345.53,-197.06 347.15,-197.08 348.51,-197.12 349.87,-197.15 350.93,-197.18 351.99,-197.22 353.38,-197.26 354.77,-197.30 356.08,-197.58 357.38,-197.86 358.64,-197.95 359.89,-198.03 361.14,-198.06 362.39,-198.08 364.17,-198.08 365.95,-198.09 367.21,-198.75 368.47,-199.41 370.02,-199.72 371.56,-200.02 372.73,-200.07 373.91,-200.11 375.23,-200.37 376.55,-200.63 377.60,-200.81 378.65,-200.99 380.22,-201.42 381.79,-201.85 383.14,-201.96 384.49,-202.08 386.22,-202.05 387.96,-202.02 389.34,-202.55 390.72,-203.07 391.93,-203.46 393.14,-203.85 394.20,-204.18 395.26,-204.51 396.35,-204.61 397.43,-204.72 398.58,-204.75 399.74,-204.79 402.04,-204.96 404.35,-205.13 405.88,-205.80 407.41,-206.46 409.29,-206.80 411.17,-207.13 413.17,-207.16 415.17,-207.20 416.53,-207.48 417.89,-207.77 419.10,-207.80 420.30,-207.82 421.67,-207.85 423.03,-207.88 424.11,-208.18 425.19,-208.48 426.58,-208.47 427.97,-208.47 429.96,-208.99 431.94,-209.50 433.90,-209.63 435.85,-209.77 437.03,-209.91 438.20,-210.05 440.48,-210.43 442.75,-210.82 444.09,-211.00 445.42,-211.19 446.85,-211.75 448.28,-212.31 449.40,-212.71 450.53,-213.11 452.90,-213.60 455.28,-214.09 457.16,-214.45 459.05,-214.82 460.83,-214.92 462.61,-215.03 464.21,-215.32 465.82,-215.62 468.17,-216.15 470.53,-216.69 471.88,-217.10 473.23,-217.50 474.75,-217.64 476.27,-217.78 477.35,-217.78 478.43,-217.78 479.87,-217.95 481.32,-218.13 483.20,-218.43 485.07,-218.73 486.33,-219.22 487.59,-219.70 488.71,-220.15 489.84,-220.59 491.03,-220.90 492.22,-221.21 493.70,-221.36 495.19,-221.51 497.11,-221.86 499.03,-222.21 501.40,-222.52 503.77,-222.83 504.98,-222.87 506.18,-222.90 508.03,-223.23 509.87,-223.56 511.84,-224.15 513.80,-224.73 515.16,-224.99 516.51,-225.24 518.38,-225.67 520.24,-226.11 522.28,-226.20 524.31,-226.30 526.29,-226.47 528.28,-226.64 530.02,-226.79 531.76,-226.94 533.00,-227.52 534.23,-228.09 535.77,-228.31 537.32,-228.53 538.42,-228.67 539.52,-228.80 540.61,-228.86 541.71,-228.92 543.77,-228.96 545.82,-229.01 547.21,-228.97 548.60,-228.93 550.66,-229.21 552.71,-229.48 554.48,-229.57 556.26,-229.66 557.73,-230.16 559.19,-230.65 560.20,-231.01 561.21,-231.36 562.82,-231.54 564.43,-231.71 566.26,-231.87 568.08,-232.02 569.43,-232.18 570.78,-232.33 572.66,-232.34 574.54,-232.35 577.68,-232.85 580.81,-233.34 582.48,-233.41 584.16,-233.47 585.64,-233.52 587.12,-233.57 588.29,-233.62 589.46,-233.67 590.89,-234.31 592.32,-234.94 593.39,-235.07 594.45,-235.21 596.08,-235.59 597.71,-235.97 599.15,-236.24 600.58,-236.51 602.06,-236.72 603.53,-236.93 604.82,-237.13 606.11,-237.33 607.80,-237.54 609.49,-237.74 610.99,-237.72 612.49,-237.70 613.66,-238.30 614.84,-238.90 616.43,-239.05 618.03,-239.21 619.75,-239.23 621.47,-239.25 622.93,-239.52 624.39,-239.80 626.17,-239.86 627.95,-239.91 629.17,-239.95 630.39,-239.98 631.51,-240.00 632.63,-240.02 633.73,-240.05 634.82,-240.08 636.74,-240.41 638.66,-240.74 639.22,-240.76 639.78,-240.77 640.32,-240.61 640.86,-240.45 641.32,-240.12 641.78,-239.80 642.11,-239.34 642.44,-238.89 642.60,-238.35 642.77,-237.81 642.76,-237.25 642.74,-236.69 642.55,-236.16 642.36,-235.63 642.01,-235.19 641.66,-234.75 641.19,-234.45 640.72,-234.14 640.17,-234.00 639.62,-233.87 639.06,-233.91 638.50,-233.95 637.99,-234.17 637.47,-234.39 637.05,-234.77 636.63,-235.14 636.35,-235.63 636.07,-236.12 635.96,-236.67 635.85,-237.22 635.93,-237.78 636.00,-238.33 636.25,-238.84 636.50,-239.34 636.89,-239.74 637.29,-240.14 637.79,-240.39 638.29,-240.65 638.85,-240.72 639.41,-240.80 639.96,-240.70 640.51,-240.60 641.00,-240.32 641.49,-240.05 641.87,-239.63 642.25,-239.21 642.47,-238.70 642.70,-238.18 642.75,-237.62 642.79,-237.06 642.66,-236.51 642.53,-235.97 642.23,-235.49 641.92,-235.02 641.49,-234.66 641.05,-234.31 640.52,-234.11 640.00,-233.92 640.00,-233.92 640.00,-233.92 637.07,-233.59 634.13,-233.26 632.92,-233.29 631.71,-233.32 630.45,-233.34 629.18,-233.35 627.77,-233.34 626.36,-233.33 625.08,-233.27 623.80,-233.21 622.68,-232.97 621.57,-232.73 619.92,-232.71 618.27,-232.70 616.99,-232.75 615.72,-232.81 614.50,-232.21 613.28,-231.60 611.55,-231.54 609.82,-231.48 608.75,-231.44 607.68,-231.41 605.78,-231.18 603.88,-230.95 602.81,-230.90 601.75,-230.86 600.02,-230.63 598.29,-230.41 596.59,-230.16 594.88,-229.91 593.61,-229.86 592.33,-229.81 591.00,-229.38 589.66,-228.94 588.44,-228.97 587.23,-228.99 585.80,-228.97 584.37,-228.96 582.79,-228.87 581.21,-228.79 579.52,-228.55 577.83,-228.32 576.34,-227.85 574.85,-227.38 573.17,-227.22 571.49,-227.06 569.86,-226.82 568.24,-226.57 566.56,-226.58 564.89,-226.59 562.93,-226.30 560.98,-226.02 558.97,-225.17 556.95,-224.33 554.04,-223.90 551.13,-223.47 549.88,-223.26 548.64,-223.05 547.26,-223.00 545.88,-222.96 543.93,-222.94 541.99,-222.93 540.19,-222.80 538.38,-222.68 536.66,-222.35 534.93,-222.02 533.59,-221.48 532.25,-220.94 530.70,-220.86 529.15,-220.77 527.63,-220.52 526.11,-220.28 524.23,-220.26 522.36,-220.25 520.99,-220.18 519.61,-220.11 517.67,-219.68 515.74,-219.25 513.63,-218.59 511.52,-217.94 508.96,-217.45 506.40,-216.96 505.31,-216.91 504.21,-216.87 503.12,-216.77 502.02,-216.67 500.19,-216.33 498.37,-216.00 496.11,-215.61 493.86,-215.22 492.41,-214.84 490.97,-214.46 488.66,-213.53 486.34,-212.59 484.47,-212.27 482.60,-211.96 481.37,-211.73 480.13,-211.51 478.30,-211.50 476.47,-211.49 475.04,-211.43 473.62,-211.38 471.65,-210.94 469.67,-210.51 467.44,-209.93 465.21,-209.36 463.15,-209.13 461.08,-208.89 459.75,-208.82 458.41,-208.74 456.30,-208.39 454.18,-208.04 452.65,-207.61 451.12,-207.18 448.76,-206.30 446.40,-205.42 444.04,-205.03 441.67,-204.64 440.40,-204.32 439.12,-204.00 436.75,-203.71 434.37,-203.42 432.88,-203.26 431.39,-203.10 429.81,-202.59 428.24,-202.08 427.07,-202.01 425.90,-201.93 424.62,-201.68 423.34,-201.42 421.93,-201.41 420.51,-201.39 419.05,-201.31 417.59,-201.23 415.49,-200.97 413.39,-200.72 411.97,-200.67 410.55,-200.62 409.19,-200.18 407.83,-199.73 406.35,-199.17 404.87,-198.61 403.66,-198.48 402.46,-198.35 401.15,-198.10 399.84,-197.85 398.72,-198.05 397.60,-198.25 395.74,-197.72 393.89,-197.18 392.52,-196.80 391.16,-196.41 388.88,-195.82 386.61,-195.23 384.91,-195.18 383.22,-195.13 381.94,-194.76 380.67,-194.39 379.60,-194.11 378.52,-193.84 377.44,-193.77 376.37,-193.70 374.77,-193.44 373.18,-193.19 371.94,-193.11 370.71,-193.02 368.33,-192.13 365.95,-191.24 364.18,-191.24 362.42,-191.24 361.27,-191.24 360.12,-191.25 358.95,-191.20 357.78,-191.15 356.27,-190.92 354.77,-190.69 353.38,-190.73 351.99,-190.77 350.93,-190.81 349.87,-190.84 348.51,-190.87 347.15,-190.91 345.53,-190.93 343.92,-190.95 342.07,-190.97 340.21,-190.98 337.98,-190.97 335.75,-190.95 334.68,-190.94 333.60,-190.94 331.50,-190.93 329.39,-190.92 328.09,-190.88 326.78,-190.84 324.91,-190.84 323.05,-190.83 321.21,-190.81 319.36,-190.79 317.99,-190.68 316.63,-190.58 315.26,-190.04 313.89,-189.50 312.57,-189.36 311.25,-189.22 308.73,-188.74 306.21,-188.27 304.58,-188.28 302.94,-188.29 301.38,-188.24 299.83,-188.18 298.59,-187.98 297.36,-187.77 296.01,-187.74 294.66,-187.72 292.39,-187.69 290.11,-187.67 288.83,-187.64 287.56,-187.62 286.36,-187.60 285.16,-187.58 283.09,-187.57 281.03,-187.56 279.14,-187.57 277.25,-187.57 275.87,-187.59 274.48,-187.62 273.00,-187.66 271.52,-187.70 269.82,-187.74 268.13,-187.79 266.87,-187.77 265.60,-187.76 264.43,-187.75 263.27,-187.75 261.46,-187.79 259.65,-187.84 258.51,-187.85 257.37,-187.85 256.05,-187.84 254.73,-187.82 253.42,-187.80 252.12,-187.78 250.11,-187.80 248.11,-187.81 246.84,-187.79 245.56,-187.78 243.35,-187.78 241.14,-187.77 239.67,-187.70 238.20,-187.63 237.00,-187.58 235.80,-187.52 234.72,-187.43 233.64,-187.34 230.97,-187.04 228.30,-186.73 226.79,-186.65 225.28,-186.56 224.04,-186.33 222.80,-186.09 221.55,-186.03 220.29,-185.97 218.98,-185.90 217.66,-185.83 216.26,-185.30 214.85,-184.76 213.17,-184.75 211.49,-184.73 209.72,-184.73 207.96,-184.72 206.21,-184.70 204.46,-184.69 203.09,-184.65 201.71,-184.61 199.76,-184.38 197.81,-184.15 196.27,-184.13 194.73,-184.12 193.29,-184.04 191.84,-183.96 190.76,-183.63 189.68,-183.30 187.01,-183.01 184.34,-182.72 182.99,-182.74 181.64,-182.75 179.49,-182.68 177.33,-182.62 176.01,-182.02 174.69,-181.43 173.47,-181.32 172.24,-181.21 170.26,-180.89 168.29,-180.57 167.14,-180.34 165.99,-180.10 164.03,-180.12 162.07,-180.14 160.93,-179.82 159.80,-179.50 158.72,-179.31 157.65,-179.13 155.10,-178.25 152.55,-177.37 150.57,-177.08 148.58,-176.79 147.48,-176.49 146.37,-176.20 144.21,-175.26 142.05,-174.32 140.39,-174.21 138.73,-174.10 137.40,-173.78 136.08,-173.46 133.80,-173.13 131.53,-172.80 129.42,-172.57 127.30,-172.33 125.62,-172.22 123.93,-172.12 122.59,-171.60 121.25,-171.09 119.50,-170.94 117.74,-170.78 116.34,-170.40 114.93,-170.01 112.51,-169.54 110.09,-169.06 108.02,-168.92 105.95,-168.77 103.70,-168.40 101.45,-168.03 99.27,-167.40 97.08,-166.78 95.90,-166.54 94.71,-166.31 93.26,-166.17 91.81,-166.04 90.45,-165.66 89.09,-165.29 88.01,-164.95 86.94,-164.61 85.45,-164.13 83.95,-163.64 82.49,-163.55 81.02,-163.47 78.76,-163.27 76.50,-163.06 74.82,-162.71 73.14,-162.36 71.75,-162.16 70.37,-161.95 69.17,-161.83 67.97,-161.72 67.10,-160.85 66.23,-159.99 64.87,-159.51 63.51,-159.03 62.12,-158.48 60.74,-157.93 58.97,-156.73 57.19,-155.54 56.19,-154.55 55.20,-153.57 54.13,-152.89 53.07,-152.21 52.33,-151.07 51.59,-149.94 50.55,-148.18 49.51,-146.43 48.73,-145.07 47.95,-143.72 47.87,-142.47 47.80,-141.22 47.23,-139.46 46.65,-137.70 46.20,-136.70 45.75,-135.70 45.28,-133.71 44.81,-131.72 43.96,-130.07 43.10,-128.42 42.75,-126.53 42.40,-124.63 41.33,-122.39 40.25,-120.16 40.00,-119.09 39.76,-118.03 39.33,-116.93 38.91,-115.83 38.32,-114.64 37.73,-113.44 37.15,-112.15 36.56,-110.86 35.83,-109.48 35.10,-108.10 34.21,-106.25 33.33,-104.41 32.73,-102.77 32.14,-101.14 31.10,-99.69 30.07,-98.23 29.65,-96.52 29.22,-94.80 28.47,-93.01 27.72,-91.23 27.06,-89.82 26.39,-88.41 25.89,-87.16 25.40,-85.92 25.02,-84.62 24.65,-83.33 23.92,-82.17 23.20,-81.02 22.71,-80.06 22.22,-79.10 21.46,-77.29 20.69,-75.49 20.08,-74.25 19.47,-73.01 18.75,-71.27 18.03,-69.53 17.42,-68.49 16.81,-67.44 16.45,-65.98 16.09,-64.51 15.75,-63.47 15.42,-62.42 14.88,-60.32 14.33,-58.21 13.60,-56.83 12.86,-55.44 12.59,-54.18 12.32,-52.92 12.11,-50.79 11.89,-48.66 11.66,-47.39 11.42,-46.11 11.03,-44.72 10.64,-43.33 10.25,-41.84 9.85,-40.34 9.41,-38.39 8.97,-36.45 8.25,-34.74 7.52,-33.04 7.27,-31.11 7.03,-29.17 6.59,-27.20 6.15,-25.23 5.86,-23.05 5.57,-20.88 5.19,-19.31 4.80,-17.75 4.53,-16.35 4.27,-14.95 3.87,-13.53 3.46,-12.10 3.26,-10.73 3.06,-9.36 2.72,-7.16 2.38,-4.96 2.33,-3.82 2.29,-2.68 2.25,-1.34 2.22,0 2.19,0.26 2.15,0.53 2.06,0.78 1.96,1.03 1.81,1.25 1.66,1.47 1.46,1.65 1.26,1.82 1.02,1.95 0.78,2.07 0.52,2.14 0.26,2.20 -0.00,2.20 -0.26,2.20 -0.52,2.14 -0.78,2.07 -1.02,1.95 -1.26,1.82 -1.46,1.65 -1.66,1.47 -1.81,1.25 -1.96,1.03 -2.06,0.78 -2.15,0.53 -2.19,0.26 -2.22,-0.00 -2.22,-0.00 L -2.22,0 Z"></path></g><g transform="translate(94.23295505456622 129.9580814640969) rotate(0 330.00000762939453 108.66667175292969)" stroke="none"><path fill="#1e1e1e" d="M 0.22,-1.98 Q 0.22,-1.98 1.94,-1.79 3.67,-1.59 4.75,-1.59 5.83,-1.58 7.03,-1.60 8.22,-1.62 9.69,-1.62 11.16,-1.62 12.87,-1.41 14.59,-1.20 16.33,-1.07 18.06,-0.95 19.96,-0.85 21.85,-0.75 23.81,-0.68 25.77,-0.61 28.02,-0.33 30.27,-0.04 32.30,0.08 34.33,0.21 36.34,0.27 38.35,0.33 40.36,0.35 42.36,0.38 44.17,0.36 45.99,0.33 47.33,0.25 48.68,0.16 50.61,0.00 52.55,-0.16 54.11,-0.25 55.68,-0.33 56.80,0.17 57.92,0.68 59.20,0.59 60.48,0.51 61.84,0.47 63.20,0.42 64.59,0.39 65.99,0.35 67.27,0.58 68.55,0.81 69.98,0.83 71.42,0.84 73.51,1.07 75.60,1.29 76.84,1.41 78.08,1.53 79.32,1.79 80.56,2.05 82.23,2.89 83.89,3.73 85.29,3.98 86.70,4.22 87.83,4.28 88.97,4.34 90.28,4.58 91.59,4.81 92.99,4.88 94.38,4.94 95.98,5.16 97.57,5.38 99.19,5.67 100.81,5.97 102.03,6.02 103.26,6.07 105.35,6.61 107.44,7.14 108.72,7.47 110.00,7.80 111.06,8.14 112.11,8.47 113.30,8.57 114.50,8.68 115.70,8.74 116.91,8.81 117.93,9.08 118.96,9.36 120.74,10.09 122.52,10.82 124.18,11.04 125.84,11.27 126.92,11.27 128.01,11.26 129.89,11.51 131.78,11.75 133.51,12.11 135.24,12.46 137.40,13.09 139.56,13.71 141.25,13.83 142.93,13.94 144.60,13.99 146.27,14.03 147.49,14.27 148.71,14.51 150.55,14.85 152.39,15.19 154.19,15.51 156.00,15.84 157.84,15.97 159.69,16.10 161.55,16.14 163.42,16.18 164.82,16.71 166.23,17.23 167.52,17.31 168.82,17.39 169.94,17.67 171.06,17.95 172.59,18.28 174.11,18.60 175.22,18.65 176.33,18.70 177.97,18.98 179.61,19.27 180.72,19.37 181.84,19.47 183.72,20.27 185.61,21.06 187.19,21.32 188.76,21.58 190.11,21.87 191.45,22.17 192.68,22.16 193.90,22.15 195.18,22.38 196.45,22.61 197.68,22.67 198.90,22.73 199.99,22.97 201.08,23.22 203.30,23.82 205.51,24.43 207.80,24.59 210.09,24.76 211.22,24.79 212.34,24.83 213.58,24.86 214.82,24.90 216.12,24.93 217.41,24.97 219.32,24.96 221.23,24.94 222.29,24.90 223.35,24.86 224.49,25.09 225.63,25.32 226.97,25.36 228.31,25.40 229.40,25.65 230.50,25.90 231.77,25.95 233.03,26.01 234.44,26.02 235.85,26.03 237.64,26.16 239.44,26.28 240.65,26.42 241.86,26.55 243.39,26.57 244.92,26.60 246.02,26.59 247.11,26.58 249.03,27.38 250.94,28.18 252.73,28.04 254.53,27.89 255.98,27.90 257.43,27.92 258.78,27.91 260.14,27.91 262.23,28.16 264.33,28.41 265.87,28.51 267.41,28.62 268.96,28.65 270.51,28.67 271.78,28.66 273.04,28.65 274.94,28.69 276.83,28.72 278.70,28.73 280.57,28.75 282.47,28.76 284.36,28.78 286.86,29.03 289.36,29.29 290.49,29.39 291.63,29.48 292.70,29.53 293.77,29.57 294.98,29.61 296.19,29.64 297.29,29.65 298.38,29.66 299.61,29.68 300.84,29.70 303.09,29.72 305.34,29.74 306.68,29.76 308.02,29.79 310.33,29.80 312.65,29.81 314.79,29.79 316.92,29.78 318.38,29.82 319.84,29.86 321.76,29.82 323.69,29.79 325.29,29.74 326.89,29.69 328.56,29.63 330.22,29.56 331.50,29.59 332.77,29.62 334.67,29.61 336.56,29.60 338.00,29.57 339.43,29.53 341.05,29.83 342.68,30.12 343.79,30.08 344.91,30.04 346.67,30.82 348.42,31.59 349.66,31.79 350.90,32.00 352.15,32.00 353.41,32.01 355.60,32.23 357.79,32.44 359.43,32.82 361.07,33.19 363.00,33.77 364.93,34.35 366.21,34.45 367.49,34.54 369.33,34.81 371.18,35.09 372.51,35.46 373.85,35.83 375.29,36.16 376.72,36.49 378.81,36.57 380.89,36.65 383.09,37.25 385.29,37.85 386.33,38.20 387.37,38.55 389.63,38.83 391.89,39.12 393.25,39.22 394.61,39.32 395.88,39.57 397.16,39.83 399.44,40.78 401.73,41.73 403.14,42.10 404.55,42.47 405.69,42.59 406.83,42.70 408.11,42.69 409.39,42.68 411.14,42.91 412.88,43.14 414.19,43.21 415.50,43.29 416.62,43.55 417.74,43.81 419.81,44.42 421.88,45.03 423.17,45.17 424.45,45.30 425.84,45.33 427.23,45.36 428.39,45.61 429.55,45.85 430.86,46.46 432.17,47.07 433.93,47.13 435.68,47.19 437.44,47.44 439.19,47.70 441.48,48.55 443.76,49.40 445.49,49.91 447.21,50.42 448.96,50.66 450.71,50.91 452.85,50.91 454.98,50.91 456.35,51.12 457.72,51.33 459.67,51.31 461.62,51.30 463.24,51.53 464.86,51.77 466.51,51.92 468.16,52.07 470.59,52.65 473.01,53.24 475.35,53.92 477.70,54.61 479.70,54.91 481.71,55.21 483.96,55.57 486.22,55.92 487.90,56.00 489.57,56.08 490.68,56.04 491.79,56.00 493.22,56.16 494.64,56.32 495.93,56.23 497.21,56.13 498.85,56.78 500.49,57.43 501.63,57.25 502.78,57.06 504.09,57.08 505.40,57.09 507.71,57.55 510.02,58.02 511.23,58.34 512.45,58.66 514.57,58.83 516.70,59.00 517.85,59.02 519.00,59.05 520.93,59.57 522.86,60.08 524.47,60.72 526.08,61.37 527.23,61.55 528.38,61.73 529.64,62.03 530.91,62.32 531.98,62.41 533.06,62.49 534.84,62.50 536.63,62.51 538.32,62.47 540.01,62.44 541.12,62.65 542.23,62.86 543.61,62.89 545.00,62.93 547.27,63.47 549.54,64.01 551.28,64.11 553.01,64.22 554.36,64.22 555.72,64.22 556.89,64.45 558.07,64.68 559.43,64.74 560.80,64.80 562.41,64.81 564.02,64.81 566.06,64.84 568.10,64.88 569.22,64.89 570.34,64.90 571.76,64.88 573.18,64.85 574.47,65.07 575.77,65.30 576.95,65.40 578.12,65.50 579.64,66.32 581.16,67.15 582.82,67.27 584.47,67.39 586.16,67.70 587.85,68.01 589.18,68.41 590.51,68.80 591.84,68.69 593.17,68.58 594.36,68.82 595.55,69.07 596.87,69.14 598.19,69.21 600.02,69.80 601.85,70.38 603.01,70.76 604.17,71.13 605.33,71.55 606.49,71.97 608.10,72.15 609.72,72.32 610.85,72.45 611.98,72.59 613.29,73.26 614.61,73.94 616.54,74.60 618.46,75.25 620.22,76.09 621.98,76.93 623.08,77.36 624.17,77.78 625.82,79.03 627.46,80.29 628.34,81.07 629.21,81.85 630.01,82.73 630.80,83.61 631.84,84.15 632.89,84.69 633.62,85.58 634.36,86.47 635.43,87.39 636.50,88.30 637.07,89.41 637.64,90.51 638.85,91.67 640.07,92.84 640.93,94.14 641.79,95.43 642.69,96.31 643.59,97.18 643.92,98.77 644.24,100.36 644.93,101.38 645.62,102.40 646.24,103.67 646.86,104.94 647.41,105.96 647.96,106.98 648.54,108.50 649.13,110.03 649.88,111.58 650.64,113.13 650.78,114.44 650.92,115.76 650.93,116.86 650.94,117.97 650.96,119.06 650.97,120.15 651.44,121.80 651.90,123.45 652.39,124.89 652.89,126.32 652.93,127.68 652.96,129.04 653.33,130.09 653.70,131.14 654.41,132.92 655.12,134.70 655.29,135.93 655.46,137.16 655.50,138.61 655.55,140.06 655.86,141.57 656.17,143.08 656.17,144.79 656.17,146.49 656.16,148.04 656.15,149.58 656.16,150.76 656.16,151.94 656.43,153.93 656.69,155.91 656.89,157.21 657.08,158.51 657.24,160.30 657.39,162.08 657.38,163.64 657.38,165.19 658.01,166.95 658.64,168.71 658.69,170.45 658.73,172.18 659.01,173.75 659.29,175.31 659.51,176.94 659.74,178.57 659.90,180.05 660.06,181.53 660.11,182.82 660.16,184.11 660.18,185.44 660.20,186.78 660.21,188.11 660.23,189.45 660.55,190.62 660.86,191.80 661.40,193.96 661.94,196.13 662.08,197.30 662.22,198.47 662.24,199.76 662.26,201.05 662.50,202.53 662.75,204.01 662.83,205.51 662.92,207.00 662.93,208.06 662.94,209.13 662.95,210.49 662.96,211.86 662.96,212.96 662.96,214.07 663.30,215.53 663.63,216.99 663.59,217.58 663.55,218.17 663.33,218.71 663.10,219.26 662.71,219.70 662.32,220.15 661.81,220.45 661.30,220.74 660.72,220.86 660.14,220.98 659.55,220.91 658.96,220.84 658.43,220.58 657.90,220.32 657.48,219.91 657.05,219.50 656.78,218.97 656.51,218.44 656.43,217.86 656.34,217.27 656.44,216.69 656.55,216.11 656.83,215.59 657.12,215.07 657.55,214.67 657.99,214.27 658.53,214.03 659.07,213.79 659.66,213.74 660.25,213.68 660.82,213.82 661.40,213.95 661.90,214.27 662.40,214.58 662.78,215.03 663.16,215.49 663.37,216.04 663.58,216.60 663.60,217.19 663.62,217.78 663.46,218.35 663.29,218.91 662.95,219.40 662.61,219.88 662.13,220.23 661.66,220.58 661.10,220.76 660.53,220.94 659.94,220.94 659.35,220.93 658.79,220.73 658.23,220.53 657.77,220.17 657.30,219.80 656.98,219.31 656.65,218.81 656.50,218.24 656.36,217.67 656.36,217.67 656.36,217.67 656.02,215.56 655.69,213.45 655.69,212.11 655.70,210.78 655.70,209.41 655.70,208.04 655.72,206.75 655.73,205.46 655.40,204.36 655.08,203.27 655.05,201.60 655.03,199.92 655.22,198.84 655.42,197.76 654.73,196.64 654.04,195.53 653.97,194.04 653.91,192.55 653.53,191.46 653.14,190.37 653.13,189.12 653.12,187.86 653.13,186.54 653.15,185.21 653.16,183.99 653.17,182.76 653.08,181.39 653.00,180.01 652.75,177.93 652.50,175.86 652.21,174.80 651.91,173.74 651.89,172.32 651.86,170.89 651.79,169.66 651.72,168.44 651.15,167.00 650.59,165.57 650.54,164.00 650.49,162.44 650.39,161.20 650.30,159.95 650.03,158.75 649.77,157.55 649.57,156.33 649.37,155.11 649.26,153.53 649.16,151.94 649.16,150.77 649.17,149.59 649.15,148.06 649.13,146.54 649.03,144.53 648.94,142.53 648.67,141.39 648.40,140.24 648.37,138.63 648.34,137.02 647.65,135.74 646.97,134.46 646.70,133.42 646.44,132.38 646.07,131.29 645.71,130.19 645.68,129.10 645.64,128.01 645.54,126.95 645.44,125.88 644.56,123.88 643.68,121.88 643.69,120.33 643.70,118.78 643.69,117.39 643.68,116.01 643.44,114.94 643.19,113.86 642.65,112.68 642.11,111.49 641.21,109.73 640.31,107.97 639.96,106.72 639.61,105.47 638.77,104.71 637.93,103.95 637.28,102.09 636.63,100.23 635.65,98.89 634.66,97.56 633.64,96.32 632.62,95.08 631.90,94.07 631.18,93.07 629.68,91.57 628.17,90.07 626.73,89.11 625.29,88.15 624.43,87.39 623.57,86.64 622.91,85.72 622.25,84.81 621.29,84.02 620.33,83.23 618.80,82.63 617.28,82.02 615.88,81.65 614.48,81.27 612.73,80.28 610.98,79.29 609.46,79.17 607.94,79.06 606.88,78.86 605.83,78.66 604.69,78.33 603.55,78.01 602.31,77.73 601.07,77.44 599.82,76.75 598.56,76.06 597.21,75.99 595.86,75.91 594.46,75.65 593.06,75.39 591.91,75.35 590.76,75.31 588.74,74.87 586.72,74.43 585.39,74.12 584.07,73.80 582.26,73.58 580.46,73.36 578.23,72.52 576.00,71.69 574.58,71.41 573.16,71.14 571.75,71.11 570.34,71.08 569.22,71.10 568.09,71.11 566.81,71.15 565.52,71.18 563.83,71.16 562.14,71.14 560.34,71.06 558.54,70.98 557.06,70.69 555.58,70.39 554.12,70.31 552.67,70.22 551.30,70.16 549.92,70.10 548.20,69.54 546.48,68.98 544.77,68.91 543.06,68.83 541.50,68.52 539.95,68.21 538.22,68.14 536.50,68.08 534.52,67.94 532.54,67.80 531.08,67.63 529.63,67.47 528.57,67.19 527.50,66.90 525.87,66.62 524.24,66.33 522.91,65.87 521.59,65.41 520.22,65.14 518.86,64.87 517.67,64.86 516.48,64.84 514.96,64.82 513.43,64.80 511.19,64.39 508.94,63.97 506.83,63.43 504.72,62.89 503.57,62.86 502.43,62.84 501.04,62.65 499.65,62.45 498.40,61.81 497.15,61.18 495.60,60.95 494.04,60.73 492.81,60.28 491.57,59.83 490.45,59.68 489.32,59.54 487.56,59.37 485.79,59.20 483.55,58.97 481.31,58.74 479.05,58.57 476.79,58.39 474.50,57.95 472.22,57.51 470.07,57.26 467.92,57.01 466.04,56.99 464.15,56.97 462.85,56.81 461.54,56.65 460.33,56.62 459.12,56.58 457.97,56.49 456.82,56.40 455.81,56.02 454.81,55.64 452.54,55.41 450.28,55.18 448.19,55.04 446.10,54.89 444.20,54.50 442.31,54.10 440.59,53.72 438.87,53.33 435.72,53.21 432.56,53.09 430.29,52.66 428.01,52.23 426.94,52.05 425.86,51.87 423.91,51.73 421.96,51.60 420.13,51.04 418.30,50.48 416.75,50.21 415.20,49.93 413.28,49.77 411.36,49.62 409.90,49.44 408.44,49.27 407.32,49.20 406.19,49.13 404.53,48.87 402.86,48.62 401.68,48.32 400.49,48.01 399.05,47.20 397.61,46.39 395.98,46.14 394.35,45.90 393.16,45.86 391.96,45.83 390.56,45.56 389.15,45.29 388.01,45.26 386.87,45.23 385.50,44.89 384.12,44.54 382.49,43.93 380.85,43.31 379.59,43.35 378.34,43.38 377.06,43.29 375.78,43.20 374.12,42.84 372.47,42.48 370.92,42.07 369.37,41.65 368.21,41.51 367.06,41.36 365.60,41.20 364.15,41.04 362.82,40.51 361.49,39.98 359.92,39.60 358.34,39.21 356.90,38.96 355.46,38.70 354.37,38.66 353.29,38.62 352.14,38.56 351.00,38.50 349.69,38.29 348.38,38.07 346.96,37.72 345.54,37.36 344.02,36.94 342.49,36.52 340.96,36.16 339.43,35.79 338.00,35.76 336.56,35.73 334.67,35.71 332.77,35.70 331.50,35.73 330.22,35.76 328.56,35.70 326.89,35.63 325.29,35.58 323.69,35.53 321.76,35.50 319.84,35.46 318.38,35.50 316.92,35.54 314.79,35.53 312.65,35.51 310.33,35.52 308.02,35.53 306.68,35.56 305.34,35.58 303.08,35.60 300.83,35.61 299.59,35.63 298.35,35.64 297.24,35.64 296.12,35.64 294.85,35.65 293.58,35.65 292.41,35.62 291.24,35.60 289.81,35.53 288.38,35.47 286.37,35.34 284.36,35.21 282.47,35.23 280.57,35.24 278.70,35.25 276.83,35.27 274.93,35.30 273.03,35.34 271.75,35.32 270.47,35.30 268.82,35.28 267.16,35.27 265.16,35.14 263.15,35.02 261.64,34.88 260.13,34.74 258.77,34.74 257.41,34.73 255.93,34.73 254.44,34.72 253.36,34.73 252.27,34.75 250.89,34.60 249.50,34.45 247.69,33.92 245.89,33.40 244.61,33.38 243.34,33.36 241.64,33.30 239.94,33.24 238.88,32.95 237.81,32.66 236.22,32.62 234.62,32.57 232.84,32.51 231.06,32.45 229.90,32.31 228.75,32.17 227.60,32.00 226.45,31.83 225.27,31.63 224.10,31.44 222.66,31.24 221.22,31.05 219.31,31.03 217.40,31.01 216.10,31.04 214.80,31.07 213.53,31.10 212.27,31.13 211.11,31.13 209.95,31.14 208.52,31.16 207.08,31.18 205.96,31.07 204.84,30.97 202.77,30.38 200.71,29.79 199.23,29.47 197.74,29.15 196.49,28.98 195.25,28.80 193.46,28.57 191.68,28.34 190.17,28.08 188.67,27.81 187.47,27.46 186.28,27.11 184.83,26.79 183.38,26.46 182.34,26.03 181.30,25.60 180.03,25.53 178.76,25.47 177.49,25.35 176.23,25.24 175.02,25.25 173.81,25.27 171.87,24.86 169.94,24.45 168.57,24.11 167.20,23.77 165.15,23.11 163.09,22.46 161.28,22.44 159.46,22.43 158.18,22.41 156.89,22.39 154.93,22.07 152.97,21.76 151.30,21.44 149.63,21.12 147.92,20.86 146.21,20.61 145.00,20.64 143.79,20.67 142.37,20.61 140.94,20.56 139.57,20.43 138.20,20.30 137.16,19.80 136.13,19.29 134.69,19.07 133.26,18.86 131.89,18.59 130.53,18.33 129.17,18.17 127.80,18.01 126.25,17.91 124.70,17.81 123.08,17.46 121.46,17.11 120.17,16.37 118.88,15.63 117.78,15.37 116.67,15.11 114.48,15.05 112.29,14.99 110.33,14.54 108.36,14.08 107.30,13.82 106.25,13.56 104.65,13.04 103.06,12.53 101.84,12.42 100.63,12.30 99.26,11.97 97.90,11.63 96.51,11.33 95.13,11.02 93.78,10.91 92.42,10.80 90.57,10.48 88.71,10.17 87.38,10.12 86.05,10.07 83.70,9.51 81.36,8.94 79.54,8.25 77.71,7.55 76.11,7.50 74.51,7.46 72.91,7.28 71.32,7.11 69.60,7.02 67.88,6.94 66.82,6.62 65.75,6.30 64.45,6.26 63.15,6.22 61.69,6.14 60.23,6.06 58.66,5.84 57.09,5.62 56.13,4.97 55.18,4.33 53.86,4.24 52.54,4.16 50.61,3.99 48.67,3.82 47.32,3.73 45.97,3.64 44.16,3.60 42.34,3.56 40.32,3.56 38.30,3.56 36.24,3.55 34.19,3.54 32.07,3.50 29.95,3.46 27.84,3.35 25.74,3.23 23.76,3.27 21.78,3.32 19.82,3.34 17.86,3.36 15.95,3.32 14.03,3.28 12.57,3.10 11.11,2.91 9.60,2.88 8.10,2.85 6.81,2.77 5.52,2.68 4.37,2.52 3.22,2.36 1.50,2.17 -0.22,1.98 -0.45,1.92 -0.68,1.87 -0.90,1.76 -1.11,1.65 -1.29,1.49 -1.48,1.33 -1.61,1.14 -1.75,0.94 -1.84,0.72 -1.93,0.49 -1.96,0.25 -1.99,0.02 -1.96,-0.21 -1.94,-0.45 -1.86,-0.68 -1.77,-0.90 -1.64,-1.10 -1.50,-1.30 -1.32,-1.47 -1.15,-1.63 -0.93,-1.74 -0.72,-1.85 -0.49,-1.91 -0.26,-1.97 -0.01,-1.98 0.22,-1.98 0.22,-1.98 L 0.22,-1.98 Z"></path></g><g stroke-linecap="round"><g transform="translate(218.8996268074959 145.9580814640969) rotate(0 -0.0052135361043212924 30.686082792868834)"><path d="M0.31 0.4 C0.62 10.73, 1.09 51.8, 0.95 61.8 M-0.99 -0.43 C-0.67 9.55, 0.59 49.65, 0.5 59.93" stroke="#1e1e1e" stroke-width="1" fill="none"></path></g></g><mask></mask><g transform="translate(200.23297031335528 245.95811198167502) rotate(0 7.3333282470703125 -2)" stroke="none"><path fill="#1e1e1e" d="M -1.18,-2.36 Q -1.18,-2.36 -0.02,-2.94 1.12,-3.52 2.21,-3.89 3.30,-4.25 4.60,-4.75 5.89,-5.25 7.27,-5.70 8.64,-6.15 11.63,-6.64 14.61,-7.13 15.11,-7.06 15.61,-6.99 16.07,-6.76 16.52,-6.53 16.88,-6.16 17.23,-5.80 17.45,-5.34 17.67,-4.89 17.74,-4.38 17.80,-3.88 17.70,-3.38 17.60,-2.88 17.34,-2.44 17.09,-2.00 16.71,-1.67 16.32,-1.33 15.86,-1.14 15.39,-0.94 14.88,-0.90 14.37,-0.87 13.88,-1.00 13.39,-1.12 12.97,-1.40 12.54,-1.68 12.23,-2.08 11.91,-2.48 11.74,-2.96 11.57,-3.44 11.56,-3.94 11.55,-4.45 11.71,-4.94 11.86,-5.42 12.16,-5.83 12.46,-6.24 12.88,-6.53 13.30,-6.82 13.78,-6.97 14.27,-7.11 14.78,-7.09 15.29,-7.07 15.76,-6.89 16.24,-6.71 16.63,-6.39 17.02,-6.07 17.29,-5.64 17.56,-5.20 17.68,-4.71 17.79,-4.22 17.75,-3.71 17.70,-3.20 17.50,-2.74 17.29,-2.28 16.95,-1.90 16.60,-1.53 16.16,-1.28 15.71,-1.04 15.21,-0.95 14.71,-0.86 14.71,-0.86 14.71,-0.86 12.13,-0.64 9.56,-0.43 8.06,-0.03 6.56,0.36 5.02,0.79 3.47,1.22 2.32,1.79 1.18,2.36 0.88,2.46 0.58,2.57 0.26,2.60 -0.05,2.64 -0.36,2.59 -0.68,2.55 -0.97,2.43 -1.27,2.31 -1.53,2.12 -1.79,1.94 -1.99,1.69 -2.20,1.45 -2.34,1.17 -2.48,0.88 -2.55,0.57 -2.62,0.26 -2.62,-0.05 -2.61,-0.37 -2.53,-0.67 -2.45,-0.98 -2.29,-1.26 -2.14,-1.54 -1.92,-1.77 -1.71,-2.01 -1.44,-2.18 -1.18,-2.36 -1.18,-2.36 L -1.18,-2.36 Z"></path></g><g transform="translate(226.8996268074959 227.29142496995627) rotate(0 -1.6666717529296875 17.333343505859375)" stroke="none"><path fill="#1e1e1e" d="M 2.46,0 Q 2.46,0 2.41,1.72 2.36,3.44 2.35,4.99 2.34,6.54 1.91,7.82 1.48,9.11 1.17,11.39 0.86,13.66 0.56,14.80 0.26,15.94 0.12,18.19 -0.00,20.43 -0.21,21.70 -0.42,22.96 -0.50,24.19 -0.58,25.42 -0.57,27.33 -0.56,29.24 -0.52,31.95 -0.47,34.67 -0.55,35.12 -0.62,35.58 -0.84,35.98 -1.06,36.39 -1.39,36.71 -1.73,37.03 -2.15,37.22 -2.57,37.41 -3.03,37.46 -3.49,37.51 -3.94,37.41 -4.39,37.31 -4.78,37.07 -5.18,36.84 -5.48,36.48 -5.78,36.13 -5.95,35.70 -6.12,35.27 -6.14,34.81 -6.17,34.35 -6.04,33.90 -5.92,33.46 -5.66,33.08 -5.40,32.69 -5.03,32.42 -4.66,32.14 -4.22,31.99 -3.79,31.84 -3.32,31.84 -2.86,31.84 -2.42,31.99 -1.99,32.14 -1.62,32.42 -1.25,32.70 -0.99,33.08 -0.73,33.47 -0.61,33.91 -0.49,34.36 -0.51,34.82 -0.54,35.28 -0.71,35.71 -0.88,36.14 -1.18,36.49 -1.48,36.84 -1.88,37.08 -2.28,37.32 -2.73,37.41 -3.18,37.51 -3.64,37.46 -4.10,37.41 -4.52,37.22 -4.93,37.02 -5.27,36.70 -5.60,36.39 -5.82,35.98 -6.04,35.57 -6.11,35.11 -6.18,34.66 -6.18,34.66 -6.18,34.66 -6.11,31.90 -6.04,29.15 -5.92,27.12 -5.80,25.08 -5.48,22.66 -5.16,20.24 -5.13,18.54 -5.11,16.85 -4.60,14.80 -4.09,12.76 -3.84,11.37 -3.60,9.97 -2.97,8.16 -2.34,6.35 -2.35,4.90 -2.36,3.44 -2.41,1.72 -2.46,0 -2.42,-0.29 -2.38,-0.58 -2.28,-0.86 -2.17,-1.14 -2.01,-1.38 -1.84,-1.63 -1.62,-1.82 -1.39,-2.02 -1.13,-2.16 -0.87,-2.30 -0.58,-2.37 -0.29,-2.44 0.00,-2.44 0.29,-2.44 0.58,-2.37 0.87,-2.30 1.13,-2.16 1.39,-2.02 1.62,-1.82 1.84,-1.63 2.01,-1.38 2.17,-1.14 2.28,-0.86 2.38,-0.58 2.42,-0.29 2.46,0.00 2.46,0.00 L 2.46,0 Z"></path></g><g transform="translate(236.8996268074959 239.29142496995627) rotate(0 8.666671752929688 5.666656494140625)" stroke="none"><path fill="#1e1e1e" d="M 2.66,0 Q 2.66,0 2.68,1.15 2.69,2.3 2.76,3.84 2.83,5.38 2.91,7.13 2.99,8.88 3.03,9.94 3.06,11.01 4.27,10.87 5.47,10.74 6.33,9.69 7.18,8.65 8.06,7.82 8.94,6.99 9.70,5.77 10.45,4.55 11.18,3.55 11.91,2.55 12.98,0.74 14.04,-1.05 14.49,0.07 14.94,1.21 13.72,1.31 12.50,1.41 10.95,1.43 9.40,1.44 7.68,1.12 5.96,0.80 4.68,1.12 3.39,1.43 2.83,1.46 2.26,1.48 1.71,1.33 1.17,1.17 0.70,0.85 0.23,0.53 -0.10,0.07 -0.44,-0.37 -0.62,-0.91 -0.80,-1.45 -0.79,-2.02 -0.79,-2.59 -0.61,-3.12 -0.42,-3.66 -0.07,-4.11 0.26,-4.56 0.74,-4.88 1.21,-5.19 1.76,-5.34 2.31,-5.49 2.87,-5.46 3.44,-5.42 3.97,-5.21 4.49,-4.99 4.92,-4.62 5.35,-4.25 5.64,-3.76 5.93,-3.27 6.05,-2.72 6.17,-2.16 6.11,-1.60 6.04,-1.03 5.80,-0.52 5.56,-0.00 5.16,0.40 4.77,0.81 4.26,1.07 3.76,1.33 3.20,1.42 2.64,1.51 2.08,1.41 1.52,1.32 1.02,1.05 0.52,0.78 0.13,0.36 -0.25,-0.04 -0.48,-0.56 -0.72,-1.08 -0.78,-1.64 -0.83,-2.21 -0.71,-2.76 -0.58,-3.32 -0.29,-3.80 0.00,-4.29 0.44,-4.65 0.87,-5.02 1.40,-5.22 1.93,-5.43 1.93,-5.43 1.93,-5.43 4.61,-5.69 7.28,-5.95 8.85,-5.68 10.41,-5.42 11.92,-5.39 13.44,-5.36 14.70,-5.27 15.97,-5.18 17.66,-4.12 19.36,-3.05 19.77,-1.24 20.17,0.57 19.71,1.69 19.25,2.81 18.66,3.76 18.08,4.72 17.12,6.10 16.16,7.48 15.53,8.67 14.89,9.86 13.69,11.13 12.49,12.39 11.52,13.61 10.54,14.83 9.57,15.47 8.61,16.10 7.21,16.66 5.81,17.22 4.02,17.16 2.23,17.11 0.79,16.53 -0.64,15.94 -1.48,14.87 -2.33,13.79 -2.70,12.50 -3.06,11.20 -3.03,10.04 -2.99,8.88 -2.91,7.13 -2.83,5.38 -2.76,3.84 -2.69,2.3 -2.68,1.15 -2.66,0 -2.62,-0.31 -2.58,-0.63 -2.47,-0.93 -2.35,-1.23 -2.17,-1.50 -1.99,-1.76 -1.75,-1.98 -1.51,-2.19 -1.22,-2.34 -0.94,-2.49 -0.63,-2.56 -0.32,-2.64 0.00,-2.64 0.32,-2.64 0.63,-2.56 0.94,-2.49 1.22,-2.34 1.51,-2.19 1.75,-1.97 1.99,-1.76 2.17,-1.50 2.35,-1.23 2.47,-0.93 2.58,-0.63 2.62,-0.31 2.66,0.00 2.66,0.00 L 2.66,0 Z"></path></g><g stroke-linecap="round"><g transform="translate(1353.5662833016365 213.29142496995627) rotate(0 -0.9033414418263987 30.137100338190795)"><path d="M-0.14 0.68 C-0.08 10.68, -0.25 50.26, -0.17 60.29 M-1.68 -0.01 C-1.67 9.58, -1.15 48.5, -0.86 58.32" stroke="#1e1e1e" stroke-width="1" fill="none"></path></g></g><mask></mask><g transform="translate(1343.5662833016365 174.62473795823752) rotate(0 -3.33331298828125 11.333343505859375)" stroke="none"><path fill="#1e1e1e" d="M 2.42,0.53 Q 2.42,0.53 1.98,2.25 1.54,3.96 0.91,5.75 0.29,7.54 -0.19,9.09 -0.67,10.65 -1.30,11.67 -1.92,12.70 -2.12,13.81 -2.32,14.92 -2.68,16.09 -3.03,17.26 -3.47,20.25 -3.91,23.24 -4.08,23.66 -4.24,24.09 -4.53,24.43 -4.82,24.78 -5.21,25.02 -5.60,25.26 -6.04,25.36 -6.48,25.46 -6.93,25.42 -7.39,25.38 -7.80,25.19 -8.21,25.00 -8.55,24.69 -8.88,24.38 -9.10,23.98 -9.31,23.59 -9.39,23.14 -9.47,22.69 -9.40,22.24 -9.33,21.79 -9.12,21.39 -8.91,20.98 -8.59,20.67 -8.26,20.35 -7.85,20.16 -7.44,19.96 -6.99,19.91 -6.54,19.86 -6.09,19.95 -5.65,20.04 -5.26,20.27 -4.86,20.50 -4.57,20.85 -4.27,21.19 -4.10,21.61 -3.92,22.03 -3.90,22.48 -3.87,22.94 -3.98,23.38 -4.10,23.82 -4.35,24.19 -4.60,24.57 -4.96,24.85 -5.32,25.13 -5.75,25.28 -6.18,25.43 -6.63,25.43 -7.09,25.44 -7.52,25.30 -7.95,25.16 -8.32,24.88 -8.68,24.61 -8.94,24.24 -9.20,23.87 -9.33,23.43 -9.45,22.99 -9.43,22.54 -9.41,22.08 -9.41,22.09 -9.41,22.09 -8.89,19.60 -8.36,17.11 -7.78,15.42 -7.19,13.73 -6.32,11.57 -5.45,9.40 -4.73,7.76 -4.01,6.12 -3.54,4.53 -3.07,2.93 -2.75,1.19 -2.42,-0.53 -2.32,-0.82 -2.22,-1.10 -2.06,-1.35 -1.89,-1.60 -1.67,-1.80 -1.45,-2.01 -1.19,-2.15 -0.93,-2.30 -0.64,-2.38 -0.35,-2.46 -0.05,-2.46 0.24,-2.47 0.53,-2.41 0.82,-2.34 1.09,-2.21 1.36,-2.07 1.59,-1.88 1.82,-1.69 1.99,-1.44 2.17,-1.20 2.28,-0.92 2.40,-0.65 2.44,-0.35 2.48,-0.05 2.45,0.24 2.42,0.53 2.42,0.53 L 2.42,0.53 Z"></path></g><g transform="translate(1348.2330313485115 186.62473795823752) rotate(0 8 4.000030517578125)" stroke="none"><path fill="#1e1e1e" d="M 2.60,-0.52 Q 2.60,-0.52 2.82,0.43 3.04,1.38 3.25,2.87 3.46,4.36 4.30,5.50 5.13,6.63 6.35,6.76 7.56,6.88 9.04,7.54 10.52,8.20 11.29,9.05 12.06,9.89 12.14,8.79 12.22,7.68 12.36,6.23 12.49,4.78 12.50,2.95 12.51,1.13 12.50,0.01 12.49,-1.10 12.47,-2.29 12.45,-3.47 13.02,-2.51 13.58,-1.55 12.41,-1.30 11.24,-1.06 10.19,-0.79 9.14,-0.53 7.51,1.34 5.87,3.23 5.40,3.57 4.92,3.91 4.36,4.08 3.80,4.25 3.22,4.23 2.63,4.21 2.08,4.01 1.53,3.80 1.08,3.43 0.63,3.06 0.31,2.57 0.00,2.08 -0.13,1.51 -0.27,0.94 -0.22,0.36 -0.17,-0.22 0.06,-0.75 0.29,-1.29 0.68,-1.72 1.08,-2.16 1.59,-2.44 2.10,-2.73 2.67,-2.84 3.25,-2.94 3.83,-2.86 4.41,-2.78 4.93,-2.52 5.45,-2.26 5.86,-1.84 6.28,-1.42 6.53,-0.90 6.79,-0.37 6.87,0.20 6.94,0.78 6.83,1.35 6.72,1.92 6.43,2.43 6.14,2.94 5.70,3.33 5.26,3.72 4.72,3.95 4.18,4.18 3.60,4.22 3.02,4.27 2.45,4.12 1.88,3.98 1.39,3.66 0.90,3.34 0.54,2.88 0.17,2.43 -0.02,1.88 -0.22,1.33 -0.23,0.74 -0.24,0.16 -0.07,-0.39 0.10,-0.95 0.44,-1.42 0.78,-1.90 0.78,-1.90 0.78,-1.90 2.10,-3.19 3.41,-4.49 4.36,-5.32 5.31,-6.16 7.10,-6.92 8.89,-7.68 10.39,-7.97 11.89,-8.27 13.32,-8.23 14.75,-8.20 16.20,-7.77 17.64,-7.34 18.59,-5.41 19.54,-3.47 19.52,-2.29 19.50,-1.10 19.49,0.01 19.48,1.14 19.48,2.38 19.48,3.62 19.45,4.91 19.43,6.20 19.27,7.60 19.12,9.01 18.00,10.88 16.87,12.75 15.25,14.09 13.62,15.44 12.47,15.65 11.31,15.86 9.27,14.78 7.23,13.71 5.93,13.20 4.63,12.70 3.26,12.21 1.90,11.72 0.42,10.46 -1.04,9.20 -1.54,8.25 -2.05,7.30 -2.14,6.02 -2.23,4.73 -2.25,3.59 -2.27,2.44 -2.44,1.48 -2.60,0.52 -2.62,0.20 -2.65,-0.11 -2.59,-0.43 -2.54,-0.74 -2.41,-1.04 -2.29,-1.33 -2.09,-1.59 -1.90,-1.84 -1.65,-2.04 -1.40,-2.24 -1.11,-2.38 -0.82,-2.51 -0.51,-2.58 -0.20,-2.64 0.11,-2.63 0.43,-2.61 0.74,-2.52 1.04,-2.43 1.32,-2.27 1.60,-2.11 1.83,-1.89 2.06,-1.66 2.23,-1.39 2.40,-1.12 2.50,-0.82 2.60,-0.51 2.60,-0.52 L 2.60,-0.52 Z"></path></g></svg>