<svg version="1.1" xmlns="http://www.w3.org/2000/svg" viewBox="0 0 998.9366879588924 310.2344458937645" width="998.9366879588924" height="310.2344458937645" class="excalidraw-svg"><!-- svg-source:excalidraw --><metadata></metadata><defs><style class="style-fonts">
      </style></defs><rect x="0" y="0" width="998.9366879588924" height="310.2344458937645" fill="#ffffff"></rect><g stroke-linecap="round"><g transform="translate(125.8943902987055 129.84964511878786) rotate(0 398.4727393872011 0.4070995693473938)"><path d="M0.9 -0.96 C133.65 -1.08, 664.3 0.05, 797.03 0.16 M-0.08 1.15 C132.47 1.18, 663.31 1.84, 796.09 1.78" stroke="#1e1e1e" stroke-width="2" fill="none"></path></g><g transform="translate(125.8943902987055 129.84964511878786) rotate(0 398.4727393872011 0.4070995693473938)"><path d="M772.6 10.32 C779.01 7.25, 788.96 4.66, 796.09 1.78 M772.6 10.32 C779.67 7.99, 784.93 5.31, 796.09 1.78" stroke="#1e1e1e" stroke-width="2" fill="none"></path></g><g transform="translate(125.8943902987055 129.84964511878786) rotate(0 398.4727393872011 0.4070995693473938)"><path d="M772.6 -6.78 C779.14 -3.97, 789.09 -0.68, 796.09 1.78 M772.6 -6.78 C779.6 -4.45, 784.85 -2.47, 796.09 1.78" stroke="#1e1e1e" stroke-width="2" fill="none"></path></g></g><mask></mask><g stroke-linecap="round" transform="translate(293.8943902987055 122.84964511878786) rotate(0 8.5 8.5)"><path d="M8.39 0.44 C10.14 0.21, 12.11 0.13, 13.5 1.19 C14.9 2.26, 16.35 5.08, 16.77 6.84 C17.19 8.6, 16.84 10.12, 16.02 11.74 C15.19 13.36, 13.48 15.75, 11.83 16.54 C10.18 17.34, 7.85 17.12, 6.13 16.49 C4.42 15.87, 2.59 14.26, 1.54 12.81 C0.48 11.36, -0.45 9.49, -0.22 7.79 C0.02 6.09, 1.53 3.89, 2.95 2.6 C4.36 1.3, 7.23 0.36, 8.27 0 C9.3 -0.37, 9.1 0.26, 9.17 0.39 M8.85 0.54 C10.6 0.38, 12.67 0.84, 13.98 1.87 C15.29 2.9, 16.3 5.05, 16.72 6.71 C17.14 8.38, 17.37 10.25, 16.52 11.86 C15.66 13.46, 13.43 15.61, 11.59 16.34 C9.75 17.08, 7.14 16.75, 5.48 16.29 C3.82 15.84, 2.56 15.22, 1.62 13.61 C0.69 11.99, -0.36 8.61, -0.14 6.6 C0.08 4.58, 1.58 2.54, 2.96 1.52 C4.34 0.5, 7.26 0.67, 8.13 0.48 C9.01 0.28, 8.22 0.34, 8.21 0.36" stroke="#1e1e1e" stroke-width="4" fill="none"></path></g><g stroke-linecap="round" transform="translate(494.8943902987055 124.84964511878786) rotate(0 8 7.5)"><path d="M6.3 0.46 C7.85 0.15, 10.26 0.35, 11.76 1.05 C13.25 1.74, 14.59 3.17, 15.27 4.62 C15.95 6.08, 16.44 8.24, 15.85 9.79 C15.27 11.33, 13.31 12.95, 11.75 13.88 C10.19 14.8, 8.18 15.59, 6.49 15.32 C4.79 15.06, 2.76 13.49, 1.6 12.28 C0.44 11.06, -0.55 9.54, -0.48 8.03 C-0.42 6.53, 0.74 4.58, 2 3.26 C3.26 1.94, 6.14 0.58, 7.06 0.11 C7.97 -0.36, 7.45 0.36, 7.48 0.45 M7.33 0.32 C9.06 0.19, 11.42 1.38, 12.86 2.21 C14.29 3.05, 15.53 3.82, 15.93 5.34 C16.33 6.86, 16.19 9.81, 15.27 11.33 C14.34 12.84, 12 13.88, 10.37 14.43 C8.74 14.99, 6.96 15.09, 5.48 14.65 C4 14.21, 2.34 13.06, 1.51 11.77 C0.67 10.49, 0.41 8.7, 0.47 6.95 C0.53 5.19, 0.61 2.3, 1.89 1.24 C3.16 0.19, 7.08 0.7, 8.12 0.61 C9.15 0.52, 8.12 0.73, 8.08 0.7" stroke="#1e1e1e" stroke-width="4" fill="none"></path></g><g stroke-linecap="round" transform="translate(776.8943902987055 121.84964511878786) rotate(0 8.5 9)"><path d="M9.39 0.06 C11.22 0.18, 13.52 1.53, 14.83 2.97 C16.14 4.42, 17.24 6.92, 17.25 8.74 C17.25 10.55, 15.93 12.3, 14.85 13.87 C13.78 15.43, 12.43 17.55, 10.79 18.15 C9.14 18.74, 6.64 18.39, 4.98 17.43 C3.32 16.47, 1.62 14.32, 0.81 12.41 C0 10.5, -0.42 7.83, 0.11 5.97 C0.64 4.11, 2.46 2.28, 3.98 1.26 C5.5 0.24, 8.26 0.05, 9.24 -0.14 C10.22 -0.34, 9.86 -0.19, 9.86 0.08 M8.34 0.16 C10.09 -0.15, 12.85 0.27, 14.23 1.54 C15.6 2.81, 16.25 5.7, 16.58 7.78 C16.92 9.86, 17.08 12.35, 16.23 14.02 C15.37 15.68, 13.26 17.17, 11.44 17.79 C9.62 18.4, 7.05 18.35, 5.29 17.73 C3.54 17.1, 1.75 15.78, 0.91 14.05 C0.07 12.32, 0 9.38, 0.24 7.36 C0.47 5.34, 0.84 3.12, 2.34 1.91 C3.83 0.71, 8.23 0.35, 9.2 0.12 C10.18 -0.1, 8.28 0.41, 8.21 0.56" stroke="#1e1e1e" stroke-width="4" fill="none"></path></g><g transform="translate(258.8943902987055 186.84964511878786) rotate(0 12.5 0.5)" stroke="none"><path fill="#1e1e1e" d="M 0.39,-1.19 Q 0.39,-1.19 1.25,-0.87 2.10,-0.54 2.87,-0.07 3.65,0.39 4.52,0.51 5.39,0.64 6.65,1.03 7.91,1.41 8.66,1.48 9.40,1.55 11.19,1.66 12.98,1.77 14.32,1.57 15.65,1.37 17.60,0.48 19.55,-0.41 22.08,-1.59 24.61,-2.78 24.75,-2.82 24.88,-2.86 25.02,-2.86 25.17,-2.85 25.30,-2.81 25.43,-2.76 25.54,-2.67 25.65,-2.58 25.73,-2.46 25.80,-2.34 25.84,-2.20 25.87,-2.06 25.86,-1.92 25.84,-1.78 25.79,-1.65 25.73,-1.52 25.64,-1.41 25.54,-1.31 25.42,-1.24 25.29,-1.17 25.15,-1.14 25.01,-1.12 24.87,-1.14 24.73,-1.16 24.61,-1.22 24.48,-1.29 24.38,-1.39 24.28,-1.49 24.22,-1.62 24.16,-1.74 24.14,-1.88 24.12,-2.02 24.15,-2.16 24.17,-2.30 24.24,-2.43 24.32,-2.55 24.42,-2.64 24.53,-2.74 24.66,-2.79 24.79,-2.85 24.93,-2.86 25.07,-2.87 25.21,-2.83 25.35,-2.80 25.47,-2.72 25.58,-2.64 25.67,-2.53 25.76,-2.42 25.81,-2.29 25.86,-2.15 25.86,-2.01 25.86,-1.87 25.82,-1.74 25.78,-1.60 25.69,-1.49 25.61,-1.37 25.49,-1.29 25.38,-1.21 25.38,-1.21 25.38,-1.21 22.88,0.05 20.38,1.31 18.23,2.38 16.08,3.46 14.53,3.82 12.98,4.19 11.58,4.27 10.19,4.35 9.65,4.32 9.11,4.28 8.51,4.19 7.92,4.11 7.26,3.90 6.59,3.69 5.81,3.41 5.04,3.13 4.42,3.02 3.80,2.90 3.11,2.65 2.41,2.39 1.87,2.04 1.34,1.69 0.47,1.44 -0.39,1.19 -0.53,1.13 -0.67,1.06 -0.79,0.97 -0.91,0.87 -1.00,0.75 -1.09,0.63 -1.15,0.49 -1.21,0.35 -1.23,0.20 -1.26,0.05 -1.25,-0.10 -1.23,-0.25 -1.18,-0.39 -1.14,-0.54 -1.06,-0.66 -0.97,-0.79 -0.86,-0.90 -0.75,-1.00 -0.62,-1.08 -0.49,-1.16 -0.34,-1.20 -0.20,-1.24 -0.05,-1.25 0.10,-1.25 0.25,-1.22 0.39,-1.19 0.39,-1.19 L 0.39,-1.19 Z"></path></g><g transform="translate(293.8943902987055 190.84964511878786) rotate(0 13 0.5)" stroke="none"><path fill="#1e1e1e" d="M 0,-1.20 Q 0,-1.20 0.86,-1.18 1.72,-1.16 2.37,-1.17 3.03,-1.19 3.59,-1.21 4.16,-1.23 5.49,-1.23 6.81,-1.23 7.47,-1.24 8.13,-1.24 8.94,-0.90 9.76,-0.56 10.83,-0.45 11.90,-0.34 12.79,-0.28 13.67,-0.22 14.63,-0.17 15.58,-0.11 16.28,-0.12 16.97,-0.14 17.55,-0.16 18.14,-0.18 18.67,-0.20 19.20,-0.22 20.23,-0.26 21.25,-0.30 22.04,-0.28 22.83,-0.27 24.41,-0.29 26.00,-0.31 26.21,-0.28 26.42,-0.24 26.60,-0.14 26.79,-0.04 26.94,0.10 27.08,0.26 27.17,0.45 27.26,0.64 27.29,0.85 27.31,1.07 27.26,1.27 27.22,1.48 27.11,1.66 27.00,1.85 26.84,1.98 26.67,2.12 26.48,2.20 26.28,2.28 26.07,2.29 25.85,2.30 25.65,2.25 25.44,2.19 25.27,2.07 25.09,1.95 24.96,1.78 24.83,1.61 24.76,1.41 24.70,1.21 24.70,0.99 24.70,0.78 24.76,0.58 24.83,0.38 24.96,0.21 25.09,0.04 25.27,-0.07 25.44,-0.19 25.65,-0.25 25.85,-0.30 26.07,-0.29 26.28,-0.28 26.48,-0.20 26.67,-0.12 26.84,0.01 27.00,0.14 27.11,0.33 27.22,0.51 27.26,0.72 27.31,0.92 27.29,1.14 27.26,1.35 27.17,1.54 27.08,1.73 26.94,1.89 26.79,2.04 26.60,2.14 26.41,2.24 26.20,2.28 25.99,2.31 25.99,2.31 25.99,2.31 24.41,2.29 22.83,2.27 22.04,2.28 21.25,2.30 20.22,2.26 19.20,2.22 18.67,2.20 18.13,2.17 17.54,2.15 16.96,2.12 16.26,2.10 15.56,2.09 14.59,2.12 13.62,2.15 12.67,2.17 11.73,2.19 10.83,2.14 9.93,2.09 8.96,1.67 8.00,1.24 7.41,1.24 6.81,1.23 5.49,1.23 4.16,1.23 3.59,1.21 3.03,1.19 2.37,1.17 1.72,1.16 0.86,1.18 0,1.20 -0.14,1.19 -0.28,1.17 -0.42,1.12 -0.56,1.07 -0.68,0.98 -0.80,0.90 -0.89,0.79 -0.99,0.68 -1.06,0.55 -1.13,0.42 -1.16,0.28 -1.20,0.14 -1.20,-0.00 -1.20,-0.14 -1.16,-0.28 -1.13,-0.42 -1.06,-0.55 -0.99,-0.68 -0.89,-0.79 -0.80,-0.90 -0.68,-0.98 -0.56,-1.07 -0.42,-1.12 -0.28,-1.17 -0.14,-1.19 0.00,-1.20 0.00,-1.20 L 0,-1.20 Z"></path></g><g transform="translate(302.8943902987055 203.84964511878786) rotate(0 5 10.5)" stroke="none"><path fill="#1e1e1e" d="M 0.37,-1.13 Q 0.37,-1.13 1.23,-0.81 2.09,-0.49 2.86,-0.03 3.62,0.42 4.77,0.58 5.92,0.74 6.75,1.10 7.58,1.47 8.49,1.57 9.41,1.67 10.23,2.15 11.05,2.62 11.46,3.70 11.88,4.77 11.30,6.24 10.73,7.71 9.54,9.16 8.35,10.60 6.98,12.04 5.61,13.48 4.77,14.60 3.93,15.73 3.25,16.54 2.56,17.35 1.92,17.81 1.28,18.27 0.73,18.45 0.18,18.63 1.11,18.66 2.04,18.68 2.64,18.71 3.23,18.73 4.01,19.08 4.78,19.44 5.39,19.52 6.00,19.60 6.58,19.64 7.17,19.67 9.09,19.69 11.01,19.70 11.21,19.74 11.42,19.77 11.60,19.87 11.79,19.97 11.93,20.12 12.07,20.28 12.16,20.47 12.25,20.66 12.27,20.87 12.29,21.08 12.24,21.28 12.19,21.48 12.08,21.66 11.98,21.84 11.81,21.98 11.65,22.11 11.46,22.19 11.26,22.26 11.05,22.27 10.84,22.28 10.64,22.22 10.44,22.17 10.27,22.05 10.10,21.93 9.97,21.76 9.85,21.59 9.78,21.39 9.72,21.19 9.72,20.98 9.72,20.77 9.79,20.58 9.86,20.38 9.98,20.21 10.11,20.05 10.29,19.93 10.46,19.81 10.66,19.76 10.87,19.71 11.07,19.72 11.28,19.73 11.48,19.81 11.67,19.89 11.83,20.03 11.99,20.16 12.10,20.35 12.20,20.53 12.25,20.73 12.29,20.94 12.26,21.14 12.24,21.35 12.15,21.54 12.06,21.73 11.92,21.88 11.77,22.03 11.58,22.13 11.40,22.23 11.19,22.26 10.98,22.29 10.98,22.29 10.98,22.29 8.97,22.22 6.96,22.16 6.28,22.08 5.61,22.01 4.30,21.59 2.99,21.16 2.39,21.12 1.78,21.07 0.86,20.94 -0.05,20.80 -0.63,20.37 -1.20,19.94 -1.40,19.15 -1.60,18.36 -1.11,17.65 -0.62,16.94 0.35,16.62 1.34,16.30 1.95,15.53 2.57,14.76 3.42,13.51 4.27,12.26 5.53,10.82 6.79,9.38 7.74,8.11 8.69,6.84 9.08,5.98 9.47,5.12 9.25,4.64 9.03,4.15 8.46,4.06 7.88,3.98 6.77,3.51 5.66,3.03 4.74,2.95 3.82,2.87 3.12,2.61 2.43,2.36 1.89,2.00 1.35,1.64 0.48,1.39 -0.37,1.13 -0.50,1.07 -0.64,1.01 -0.75,0.92 -0.86,0.83 -0.95,0.71 -1.03,0.59 -1.09,0.46 -1.15,0.33 -1.17,0.19 -1.19,0.04 -1.18,-0.09 -1.17,-0.23 -1.12,-0.37 -1.08,-0.51 -1.00,-0.63 -0.92,-0.75 -0.82,-0.85 -0.72,-0.95 -0.59,-1.03 -0.47,-1.10 -0.33,-1.14 -0.19,-1.18 -0.04,-1.18 0.09,-1.19 0.23,-1.16 0.37,-1.13 0.37,-1.13 L 0.37,-1.13 Z"></path></g><g transform="translate(297.8943902987055 180.84964511878786) rotate(0 12.5 -14.5)" stroke="none"><path fill="#1e1e1e" d="M -1.13,0 Q -1.13,0 -1.06,-1.15 -1.00,-2.3 -0.95,-3.65 -0.91,-5.00 -0.87,-6.43 -0.84,-7.87 -0.85,-8.77 -0.86,-9.67 -0.86,-10.44 -0.86,-11.21 -0.48,-11.77 -0.10,-12.34 0.49,-12.61 1.08,-12.88 1.90,-12.87 2.72,-12.85 3.22,-12.46 3.71,-12.07 3.91,-11.48 4.11,-10.89 4.73,-10.23 5.35,-9.58 5.81,-9.09 6.27,-8.60 6.61,-7.91 6.94,-7.22 7.04,-6.73 7.14,-6.24 7.18,-6.08 7.22,-5.92 7.22,-5.76 7.23,-5.59 7.19,-5.43 7.15,-5.27 7.08,-5.12 7.01,-4.98 6.90,-4.85 6.79,-4.73 6.66,-4.63 6.53,-4.54 6.37,-4.47 6.22,-4.41 6.06,-4.39 5.90,-4.37 5.73,-4.38 5.57,-4.40 5.41,-4.46 5.26,-4.51 5.12,-4.60 4.98,-4.69 4.87,-4.82 4.76,-4.94 4.68,-5.08 4.60,-5.22 4.66,-5.84 4.72,-6.46 5.04,-7.27 5.37,-8.07 5.86,-9.29 6.34,-10.50 6.56,-11.51 6.77,-12.52 7.18,-13.89 7.60,-15.26 7.73,-16.08 7.87,-16.90 7.90,-17.53 7.92,-18.16 8.26,-18.91 8.60,-19.65 8.68,-20.31 8.76,-20.96 8.78,-21.56 8.81,-22.17 9.17,-23.14 9.53,-24.12 9.62,-24.69 9.71,-25.26 9.90,-26.29 10.09,-27.32 9.46,-27.92 8.83,-28.52 9.03,-29.05 9.23,-29.57 9.76,-29.86 10.29,-30.15 11.28,-30.24 12.27,-30.33 13.56,-30.32 14.84,-30.32 15.46,-30.33 16.08,-30.33 16.67,-30.33 17.26,-30.33 18.07,-29.98 18.87,-29.62 20.16,-29.45 21.46,-29.27 23.24,-29.23 25.02,-29.19 25.21,-29.16 25.40,-29.12 25.57,-29.03 25.74,-28.93 25.87,-28.79 26.00,-28.64 26.08,-28.47 26.15,-28.29 26.17,-28.10 26.19,-27.90 26.14,-27.72 26.10,-27.53 25.99,-27.37 25.89,-27.20 25.74,-27.08 25.59,-26.96 25.41,-26.89 25.23,-26.82 25.03,-26.82 24.84,-26.81 24.66,-26.87 24.47,-26.92 24.31,-27.03 24.15,-27.14 24.04,-27.30 23.93,-27.46 23.87,-27.64 23.81,-27.83 23.82,-28.02 23.82,-28.21 23.89,-28.40 23.95,-28.58 24.07,-28.73 24.19,-28.88 24.35,-28.99 24.52,-29.09 24.70,-29.14 24.89,-29.19 25.08,-29.17 25.28,-29.16 25.46,-29.08 25.63,-29.01 25.78,-28.88 25.92,-28.75 26.02,-28.58 26.12,-28.41 26.15,-28.22 26.19,-28.03 26.17,-27.84 26.14,-27.65 26.06,-27.48 25.97,-27.30 25.83,-27.17 25.70,-27.03 25.53,-26.94 25.35,-26.85 25.16,-26.83 24.97,-26.80 24.97,-26.80 24.97,-26.80 23.16,-26.83 21.34,-26.87 20.13,-26.85 18.92,-26.83 18.25,-27.02 17.58,-27.22 16.83,-27.44 16.08,-27.66 15.46,-27.66 14.84,-27.66 13.59,-27.65 12.34,-27.63 11.48,-27.81 10.62,-27.99 11.22,-28.13 11.83,-28.27 11.95,-27.16 12.07,-26.05 11.98,-25.43 11.89,-24.82 11.71,-24.10 11.54,-23.38 11.27,-22.66 11.01,-21.95 10.92,-21.28 10.84,-20.62 10.35,-19.26 9.87,-17.90 9.77,-17.24 9.67,-16.57 9.49,-15.68 9.32,-14.79 9.01,-13.50 8.70,-12.21 8.56,-11.01 8.42,-9.81 8.07,-8.54 7.73,-7.27 7.43,-6.76 7.14,-6.24 7.18,-6.08 7.22,-5.92 7.22,-5.76 7.23,-5.59 7.19,-5.43 7.15,-5.27 7.08,-5.12 7.01,-4.98 6.90,-4.85 6.79,-4.73 6.66,-4.63 6.53,-4.54 6.37,-4.47 6.22,-4.41 6.06,-4.39 5.90,-4.37 5.73,-4.38 5.57,-4.40 5.41,-4.46 5.26,-4.51 5.12,-4.60 4.98,-4.69 4.87,-4.82 4.76,-4.94 4.68,-5.08 4.60,-5.22 4.47,-6.04 4.33,-6.85 3.86,-7.34 3.38,-7.84 2.92,-8.38 2.45,-8.92 2.18,-9.95 1.91,-10.99 1.38,-10.90 0.86,-10.81 0.86,-10.24 0.86,-9.67 0.85,-8.77 0.84,-7.87 0.87,-6.43 0.91,-5.00 0.95,-3.65 1.00,-2.3 1.06,-1.15 1.13,0 1.11,0.13 1.09,0.27 1.05,0.39 1.00,0.52 0.92,0.63 0.84,0.75 0.74,0.84 0.64,0.93 0.52,0.99 0.40,1.05 0.26,1.09 0.13,1.12 -0.00,1.12 -0.13,1.12 -0.26,1.09 -0.40,1.05 -0.52,0.99 -0.64,0.93 -0.74,0.84 -0.84,0.75 -0.92,0.63 -1.00,0.52 -1.05,0.39 -1.09,0.27 -1.11,0.13 -1.13,-0.00 -1.13,-0.00 L -1.13,0 Z"></path></g><g transform="translate(314.8943902987055 161.84964511878786) rotate(0 3 5.5)" stroke="none"><path fill="#1e1e1e" d="M 0.37,-1.13 Q 0.37,-1.13 1.23,-0.81 2.08,-0.50 3.05,-0.02 4.01,0.45 4.68,0.61 5.35,0.77 5.91,1.28 6.47,1.78 6.71,2.51 6.94,3.24 6.70,4.04 6.45,4.85 6.01,5.45 5.56,6.06 5.08,6.59 4.60,7.12 4.11,7.63 3.61,8.15 2.70,8.70 1.79,9.26 1.21,9.72 0.63,10.18 -0.05,10.49 -0.74,10.81 -0.96,10.21 -1.19,9.61 -0.59,9.63 0.00,9.65 0.86,9.69 1.72,9.74 2.66,9.79 3.60,9.84 4.29,9.83 4.98,9.82 6.99,9.79 9.00,9.77 9.19,9.80 9.39,9.83 9.56,9.92 9.74,10.02 9.88,10.16 10.01,10.31 10.10,10.49 10.18,10.67 10.20,10.86 10.22,11.06 10.18,11.26 10.14,11.45 10.03,11.62 9.93,11.79 9.78,11.92 9.63,12.05 9.44,12.12 9.26,12.19 9.06,12.21 8.86,12.22 8.67,12.16 8.48,12.11 8.31,12.00 8.15,11.89 8.03,11.73 7.91,11.57 7.85,11.38 7.78,11.19 7.78,10.99 7.78,10.80 7.85,10.61 7.91,10.42 8.03,10.26 8.15,10.10 8.32,9.99 8.48,9.88 8.67,9.83 8.86,9.77 9.06,9.78 9.26,9.80 9.44,9.87 9.63,9.94 9.78,10.07 9.93,10.20 10.03,10.37 10.14,10.54 10.18,10.74 10.22,10.93 10.20,11.13 10.18,11.32 10.10,11.50 10.01,11.69 9.87,11.83 9.74,11.97 9.56,12.07 9.39,12.16 9.19,12.19 8.99,12.22 8.99,12.22 8.99,12.22 6.98,12.19 4.97,12.16 4.28,12.15 3.59,12.13 2.64,12.17 1.68,12.21 0.79,12.23 -0.10,12.26 -0.92,12.22 -1.74,12.18 -2.31,11.88 -2.88,11.57 -3.07,11.07 -3.27,10.56 -2.04,9.45 -0.80,8.34 -0.14,7.80 0.51,7.26 1.15,6.81 1.79,6.37 2.26,5.89 2.72,5.41 3.48,4.57 4.23,3.74 4.42,3.22 4.60,2.70 3.90,2.52 3.19,2.33 2.28,1.99 1.36,1.65 0.49,1.39 -0.37,1.13 -0.50,1.07 -0.63,1.01 -0.75,0.91 -0.86,0.82 -0.94,0.71 -1.03,0.59 -1.09,0.46 -1.14,0.33 -1.17,0.19 -1.19,0.04 -1.18,-0.09 -1.17,-0.23 -1.12,-0.37 -1.08,-0.51 -1.00,-0.63 -0.92,-0.75 -0.82,-0.85 -0.71,-0.95 -0.59,-1.02 -0.46,-1.09 -0.33,-1.13 -0.19,-1.17 -0.04,-1.18 0.09,-1.19 0.23,-1.16 0.37,-1.13 0.37,-1.13 L 0.37,-1.13 Z"></path></g><g transform="translate(472.8943902987055 75.84964511878786) rotate(0 16.5 1)" stroke="none"><path fill="#1e1e1e" d="M 0,-1.14 Q 0,-1.14 0.86,-1.13 1.72,-1.11 2.67,-1.08 3.62,-1.05 4.73,-0.70 5.84,-0.35 6.65,0.08 7.45,0.52 8.66,0.67 9.87,0.83 10.49,0.83 11.11,0.84 11.65,0.82 12.20,0.81 13.22,0.77 14.25,0.73 15.04,0.74 15.83,0.76 17.89,0.84 19.95,0.91 21.11,0.97 22.27,1.02 23.06,1.01 23.84,0.99 24.46,0.96 25.08,0.93 25.62,0.90 26.16,0.87 26.79,0.62 27.43,0.38 28.14,0.21 28.85,0.05 30.90,-0.07 32.95,-0.20 33.15,-0.17 33.34,-0.15 33.52,-0.06 33.69,0.01 33.83,0.15 33.97,0.29 34.06,0.46 34.14,0.63 34.17,0.83 34.20,1.02 34.16,1.21 34.13,1.40 34.03,1.57 33.94,1.74 33.79,1.87 33.65,2.00 33.47,2.08 33.29,2.16 33.10,2.18 32.91,2.20 32.72,2.15 32.53,2.10 32.36,2.00 32.20,1.90 32.07,1.75 31.95,1.59 31.88,1.41 31.81,1.23 31.81,1.04 31.80,0.84 31.86,0.65 31.91,0.47 32.03,0.31 32.14,0.15 32.30,0.03 32.45,-0.07 32.64,-0.13 32.82,-0.19 33.02,-0.18 33.21,-0.18 33.40,-0.11 33.58,-0.05 33.73,0.06 33.89,0.18 33.99,0.35 34.10,0.51 34.15,0.70 34.19,0.89 34.18,1.08 34.17,1.28 34.09,1.46 34.01,1.64 33.88,1.78 33.76,1.93 33.59,2.03 33.42,2.12 33.23,2.16 33.04,2.20 33.04,2.20 33.04,2.20 31.16,2.25 29.28,2.30 28.72,2.38 28.17,2.46 27.18,2.79 26.20,3.12 25.64,3.09 25.08,3.06 24.46,3.03 23.84,3.00 23.06,2.98 22.27,2.97 21.11,3.02 19.95,3.08 17.88,3.15 15.82,3.23 14.51,3.22 13.21,3.20 12.67,3.17 12.14,3.14 11.57,3.10 11.00,3.06 10.34,3.00 9.68,2.95 8.76,2.85 7.83,2.76 7.14,2.51 6.46,2.26 5.87,1.88 5.27,1.50 4.43,1.28 3.59,1.05 2.66,1.08 1.72,1.11 0.86,1.13 0,1.14 -0.13,1.13 -0.27,1.11 -0.40,1.06 -0.53,1.01 -0.64,0.93 -0.76,0.85 -0.85,0.75 -0.94,0.65 -1.00,0.52 -1.07,0.40 -1.10,0.27 -1.13,0.13 -1.13,-0.00 -1.13,-0.13 -1.10,-0.27 -1.07,-0.40 -1.00,-0.52 -0.94,-0.65 -0.85,-0.75 -0.76,-0.85 -0.64,-0.93 -0.53,-1.01 -0.40,-1.06 -0.27,-1.11 -0.13,-1.13 0.00,-1.14 0.00,-1.14 L 0,-1.14 Z"></path></g><g transform="translate(483.8943902987055 89.84964511878786) rotate(0 9.5 8)" stroke="none"><path fill="#1e1e1e" d="M 0,-1.16 Q 0,-1.16 0.85,-1.14 1.71,-1.12 2.83,-1.33 3.94,-1.54 4.65,-1.91 5.36,-2.27 6.44,-2.47 7.51,-2.68 8.40,-2.48 9.30,-2.28 10.29,-2.24 11.29,-2.19 11.96,-2.11 12.62,-2.03 13.16,-1.59 13.70,-1.14 13.91,-0.51 14.13,0.10 14.11,1.26 14.08,2.43 13.74,3.85 13.39,5.28 12.92,6.46 12.46,7.64 11.62,8.79 10.79,9.93 9.88,11.22 8.97,12.51 8.28,13.36 7.58,14.22 7.01,14.90 6.45,15.58 5.93,16.18 5.40,16.78 4.78,17.16 4.16,17.53 3.55,17.70 2.95,17.88 2.08,17.94 1.22,18.00 0.35,17.98 -0.51,17.96 -0.96,18.31 -1.40,18.67 -1.53,18.65 -1.67,18.64 -1.79,18.59 -1.92,18.55 -2.03,18.48 -2.14,18.40 -2.23,18.30 -2.32,18.21 -2.39,18.09 -2.45,17.97 -2.49,17.84 -2.52,17.71 -2.52,17.58 -2.53,17.45 -2.50,17.32 -2.47,17.19 -2.41,17.07 -2.35,16.95 -2.26,16.85 -2.17,16.74 -2.07,16.67 -1.96,16.59 -1.83,16.54 -1.71,16.49 -1.58,16.47 -1.45,16.45 -0.86,16.60 -0.28,16.75 0.80,16.77 1.89,16.79 2.50,16.78 3.10,16.78 3.65,16.76 4.19,16.74 5.00,16.76 5.80,16.78 6.72,16.81 7.64,16.85 8.89,16.91 10.14,16.98 10.96,16.97 11.78,16.97 12.42,16.94 13.05,16.91 13.89,16.92 14.73,16.92 15.52,16.69 16.32,16.46 17.06,16.30 17.80,16.14 19.11,15.58 20.43,15.02 20.60,14.95 20.77,14.89 20.95,14.88 21.13,14.88 21.31,14.93 21.48,14.98 21.63,15.08 21.78,15.19 21.89,15.34 22.00,15.48 22.06,15.66 22.11,15.83 22.11,16.01 22.11,16.20 22.04,16.37 21.98,16.54 21.87,16.68 21.76,16.83 21.61,16.93 21.45,17.03 21.28,17.07 21.10,17.12 20.92,17.11 20.74,17.09 20.57,17.02 20.40,16.95 20.26,16.83 20.12,16.71 20.03,16.55 19.94,16.40 19.90,16.22 19.87,16.04 19.89,15.86 19.91,15.68 19.99,15.51 20.07,15.35 20.20,15.22 20.33,15.09 20.49,15.00 20.65,14.92 20.83,14.89 21.01,14.87 21.19,14.90 21.37,14.93 21.53,15.02 21.69,15.11 21.82,15.24 21.94,15.38 22.01,15.54 22.09,15.71 22.10,15.89 22.12,16.07 22.08,16.25 22.04,16.43 21.94,16.58 21.84,16.74 21.70,16.85 21.56,16.97 21.56,16.97 21.56,16.97 19.86,17.59 18.17,18.22 17.54,18.30 16.91,18.38 15.83,18.73 14.76,19.07 13.91,19.07 13.05,19.08 12.42,19.05 11.78,19.02 10.96,19.02 10.14,19.01 8.89,19.07 7.64,19.14 6.72,19.17 5.80,19.21 4.99,19.22 4.17,19.23 3.62,19.21 3.07,19.19 2.44,19.16 1.82,19.13 1.00,19.11 0.18,19.08 -0.61,18.87 -1.40,18.67 -1.53,18.65 -1.67,18.64 -1.79,18.59 -1.92,18.55 -2.03,18.48 -2.14,18.40 -2.23,18.30 -2.32,18.21 -2.39,18.09 -2.45,17.97 -2.49,17.84 -2.52,17.71 -2.52,17.58 -2.53,17.45 -2.50,17.32 -2.47,17.19 -2.41,17.07 -2.35,16.95 -2.26,16.85 -2.17,16.74 -2.07,16.67 -1.96,16.59 -1.83,16.54 -1.71,16.49 -1.58,16.47 -1.45,16.45 -1.12,16.21 -0.79,15.97 0.15,15.92 1.10,15.86 1.82,15.84 2.54,15.81 3.34,15.68 4.15,15.54 4.69,15.02 5.23,14.50 5.81,13.89 6.38,13.28 7.02,12.44 7.65,11.61 8.53,10.28 9.40,8.94 10.06,7.98 10.72,7.01 11.06,5.93 11.40,4.86 11.59,3.68 11.79,2.50 11.46,1.29 11.13,0.08 10.55,0.00 9.98,-0.06 8.87,-0.43 7.76,-0.80 7.00,-0.65 6.23,-0.51 5.32,-0.05 4.41,0.39 3.07,0.76 1.73,1.12 0.86,1.14 0,1.16 -0.13,1.14 -0.27,1.12 -0.40,1.07 -0.53,1.02 -0.65,0.94 -0.76,0.86 -0.86,0.76 -0.95,0.65 -1.01,0.53 -1.08,0.41 -1.11,0.27 -1.15,0.13 -1.15,-0.00 -1.15,-0.13 -1.11,-0.27 -1.08,-0.41 -1.01,-0.53 -0.95,-0.65 -0.86,-0.76 -0.76,-0.86 -0.65,-0.94 -0.53,-1.02 -0.40,-1.07 -0.27,-1.12 -0.13,-1.14 0.00,-1.16 0.00,-1.16 L 0,-1.16 Z"></path></g><g transform="translate(484.8943902987055 65.84964511878786) rotate(0 13.5 -12.5)" stroke="none"><path fill="#1e1e1e" d="M -0.90,0.45 Q -0.90,0.45 -1.22,-0.12 -1.54,-0.69 -1.66,-2.27 -1.77,-3.85 -1.83,-4.74 -1.88,-5.64 -1.89,-6.60 -1.90,-7.57 -1.89,-8.57 -1.88,-9.57 -1.52,-10.52 -1.16,-11.47 -0.13,-11.96 0.88,-12.46 2.01,-11.98 3.15,-11.50 3.90,-10.96 4.66,-10.42 5.09,-9.45 5.52,-8.49 5.89,-7.98 6.26,-7.48 6.71,-6.98 7.15,-6.48 7.46,-5.83 7.76,-5.17 8.72,-4.02 9.68,-2.87 10.14,-2.00 10.60,-1.13 10.72,-2.21 10.84,-3.30 10.94,-4.36 11.04,-5.43 11.10,-7.02 11.15,-8.62 11.18,-9.88 11.22,-11.14 11.23,-12.25 11.25,-13.36 11.26,-14.40 11.27,-15.45 11.27,-16.47 11.27,-17.49 11.27,-18.50 11.26,-19.50 11.26,-20.51 11.26,-21.51 11.21,-22.23 11.16,-22.94 11.11,-23.53 11.06,-24.12 11.09,-24.81 11.12,-25.50 11.54,-26.02 11.96,-26.54 12.89,-26.75 13.81,-26.96 14.43,-27.03 15.05,-27.10 16.19,-27.06 17.34,-27.01 18.10,-27.03 18.86,-27.05 19.47,-27.08 20.09,-27.11 20.64,-27.14 21.18,-27.17 22.50,-27.18 23.82,-27.20 25.91,-27.22 27.99,-27.25 28.20,-27.22 28.40,-27.18 28.58,-27.09 28.75,-26.99 28.89,-26.85 29.03,-26.70 29.12,-26.52 29.20,-26.33 29.23,-26.13 29.25,-25.93 29.20,-25.73 29.16,-25.53 29.06,-25.36 28.95,-25.18 28.80,-25.05 28.64,-24.92 28.45,-24.84 28.26,-24.77 28.06,-24.76 27.86,-24.75 27.66,-24.80 27.47,-24.86 27.30,-24.97 27.13,-25.08 27.01,-25.25 26.89,-25.41 26.82,-25.60 26.76,-25.79 26.76,-26.00 26.76,-26.20 26.82,-26.39 26.89,-26.58 27.01,-26.74 27.13,-26.91 27.30,-27.02 27.47,-27.13 27.66,-27.19 27.86,-27.24 28.06,-27.23 28.27,-27.22 28.45,-27.15 28.64,-27.07 28.80,-26.94 28.95,-26.81 29.06,-26.63 29.16,-26.46 29.20,-26.26 29.25,-26.06 29.23,-25.86 29.20,-25.66 29.12,-25.47 29.03,-25.29 28.89,-25.14 28.75,-25.00 28.58,-24.90 28.40,-24.81 28.20,-24.77 27.99,-24.74 27.99,-24.74 28.00,-24.74 25.91,-24.77 23.82,-24.79 22.50,-24.81 21.19,-24.82 20.64,-24.84 20.10,-24.87 19.49,-24.90 18.88,-24.92 18.13,-24.93 17.37,-24.93 16.29,-24.85 15.21,-24.76 14.67,-24.75 14.12,-24.74 13.52,-24.43 12.93,-24.12 12.88,-23.53 12.83,-22.94 12.78,-22.23 12.73,-21.51 12.73,-20.51 12.73,-19.50 12.72,-18.50 12.72,-17.49 12.71,-16.47 12.71,-15.45 12.72,-14.40 12.72,-13.35 12.73,-12.24 12.74,-11.12 12.75,-9.86 12.75,-8.59 12.75,-6.96 12.75,-5.32 12.71,-4.19 12.68,-3.06 12.41,-1.60 12.14,-0.15 11.46,0.14 10.77,0.43 9.46,-0.51 8.15,-1.46 7.32,-2.26 6.50,-3.05 5.99,-4.10 5.48,-5.14 5.00,-5.74 4.53,-6.34 4.09,-7.07 3.64,-7.80 3.52,-8.39 3.39,-8.99 2.83,-9.40 2.27,-9.81 1.66,-10.23 1.05,-10.64 0.48,-10.09 -0.08,-9.53 -0.05,-8.57 -0.02,-7.61 0.00,-6.68 0.04,-5.75 0.09,-4.88 0.14,-4.02 0.26,-2.81 0.39,-1.60 0.65,-1.02 0.90,-0.45 0.95,-0.33 0.99,-0.22 1.00,-0.10 1.01,0.02 0.99,0.14 0.98,0.26 0.93,0.37 0.89,0.49 0.81,0.58 0.74,0.68 0.65,0.76 0.56,0.84 0.45,0.90 0.34,0.95 0.22,0.98 0.10,1.01 -0.01,1.00 -0.14,1.00 -0.26,0.97 -0.37,0.94 -0.48,0.88 -0.59,0.82 -0.68,0.74 -0.77,0.65 -0.84,0.55 -0.90,0.45 -0.90,0.45 L -0.90,0.45 Z"></path></g><g transform="translate(504.8943902987055 45.84964511878786) rotate(0 5.5 9)" stroke="none"><path fill="#1e1e1e" d="M 0.61,-0.92 Q 0.61,-0.92 1.44,-0.30 2.27,0.31 2.88,0.51 3.48,0.71 3.98,1.23 4.48,1.75 5.04,2.09 5.61,2.43 6.09,3.07 6.56,3.71 6.75,4.72 6.94,5.74 6.70,6.62 6.45,7.50 5.65,9.20 4.85,10.90 4.25,11.69 3.65,12.48 3.46,13.03 3.28,13.58 2.74,14.08 2.21,14.57 1.82,14.95 1.42,15.32 2.05,15.91 2.68,16.50 3.52,16.56 4.35,16.62 5.31,16.61 6.27,16.61 7.27,16.59 8.26,16.58 10.13,16.57 12.00,16.56 12.23,16.59 12.46,16.63 12.66,16.74 12.87,16.85 13.03,17.02 13.19,17.19 13.28,17.40 13.38,17.61 13.41,17.84 13.43,18.07 13.38,18.30 13.33,18.53 13.21,18.73 13.09,18.93 12.91,19.08 12.74,19.23 12.52,19.32 12.30,19.40 12.07,19.41 11.84,19.43 11.61,19.36 11.39,19.30 11.20,19.17 11.00,19.04 10.86,18.85 10.72,18.67 10.65,18.45 10.57,18.23 10.57,17.99 10.57,17.76 10.65,17.54 10.72,17.32 10.86,17.13 11.01,16.95 11.20,16.82 11.39,16.69 11.62,16.63 11.84,16.56 12.07,16.58 12.31,16.59 12.52,16.68 12.74,16.76 12.92,16.91 13.09,17.06 13.21,17.26 13.33,17.46 13.38,17.69 13.43,17.92 13.41,18.15 13.38,18.38 13.28,18.59 13.19,18.80 13.03,18.97 12.87,19.14 12.66,19.25 12.45,19.36 12.22,19.40 11.99,19.43 11.99,19.43 11.99,19.43 9.62,19.41 7.25,19.39 6.22,19.35 5.20,19.32 4.67,19.28 4.13,19.25 3.56,19.18 2.98,19.11 2.34,18.95 1.69,18.79 0.99,18.43 0.29,18.07 -0.49,17.22 -1.27,16.38 -1.31,15.50 -1.35,14.63 -0.72,14.06 -0.09,13.49 0.65,13.05 1.40,12.61 1.69,11.95 1.97,11.28 2.47,10.56 2.97,9.84 3.46,8.89 3.94,7.94 4.31,6.94 4.68,5.95 4.50,5.08 4.33,4.22 3.45,3.39 2.58,2.55 1.87,2.27 1.17,1.98 0.28,1.45 -0.61,0.92 -0.71,0.83 -0.81,0.74 -0.89,0.63 -0.97,0.52 -1.02,0.40 -1.06,0.28 -1.08,0.14 -1.10,0.01 -1.09,-0.11 -1.07,-0.24 -1.03,-0.37 -0.98,-0.49 -0.91,-0.60 -0.83,-0.72 -0.74,-0.81 -0.64,-0.90 -0.52,-0.96 -0.40,-1.02 -0.27,-1.06 -0.15,-1.09 -0.01,-1.09 0.11,-1.10 0.24,-1.07 0.37,-1.04 0.49,-0.98 0.61,-0.92 0.61,-0.92 L 0.61,-0.92 Z"></path></g><g transform="translate(791.8943902987055 59.84964511878786) rotate(0 -9.5 12)" stroke="none"><path fill="#1e1e1e" d="M -1.09,0.27 Q -1.09,0.27 -1.31,-0.88 -1.53,-2.04 -2.12,-2.97 -2.71,-3.91 -3.21,-4.23 -3.71,-4.55 -4.78,-5.05 -5.86,-5.55 -6.89,-5.65 -7.92,-5.75 -8.53,-5.76 -9.13,-5.77 -9.90,-5.81 -10.67,-5.85 -11.38,-5.41 -12.08,-4.96 -12.72,-4.47 -13.36,-3.97 -14.28,-3.46 -15.21,-2.95 -15.86,-2.00 -16.52,-1.05 -16.95,0.12 -17.38,1.30 -17.92,2.46 -18.46,3.63 -18.62,4.36 -18.79,5.08 -18.83,5.65 -18.87,6.22 -18.85,7.24 -18.83,8.26 -17.96,9.11 -17.09,9.96 -16.09,10.60 -15.09,11.25 -14.19,11.50 -13.29,11.76 -12.23,12.21 -11.16,12.67 -10.60,13.16 -10.03,13.65 -9.46,13.72 -8.88,13.78 -7.42,14.19 -5.96,14.60 -4.72,15.09 -3.48,15.57 -2.61,16.07 -1.75,16.57 -1.06,17.07 -0.38,17.56 0.58,18.23 1.56,18.89 1.75,19.49 1.95,20.09 2.01,20.94 2.07,21.80 2.11,22.43 2.15,23.05 2.14,23.91 2.13,24.77 1.77,25.88 1.41,26.99 0.57,27.85 -0.26,28.70 -0.84,29.29 -1.41,29.87 -1.95,30.42 -2.48,30.97 -3.14,31.33 -3.79,31.68 -4.41,31.84 -5.03,32.01 -5.90,32.05 -6.77,32.10 -7.70,32.09 -8.63,32.08 -9.61,32.05 -10.60,32.02 -11.48,31.71 -12.37,31.41 -12.95,31.28 -13.54,31.16 -14.07,30.65 -14.61,30.14 -14.82,29.18 -15.02,28.23 -15.04,27.27 -15.06,26.31 -14.77,25.42 -14.47,24.54 -14.01,23.44 -13.56,22.34 -12.74,20.94 -11.91,19.54 -11.28,18.42 -10.65,17.30 -10.39,16.32 -10.13,15.33 -9.36,14.45 -8.59,13.56 -8.41,13.03 -8.22,12.50 -7.81,11.16 -7.40,9.81 -7.28,9.00 -7.15,8.19 -6.77,7.36 -6.40,6.54 -5.73,4.68 -5.06,2.83 -5.01,2.67 -4.95,2.50 -4.85,2.36 -4.74,2.22 -4.60,2.12 -4.46,2.02 -4.29,1.97 -4.12,1.92 -3.95,1.93 -3.77,1.94 -3.61,2.00 -3.45,2.07 -3.31,2.18 -3.18,2.29 -3.09,2.44 -3.00,2.59 -2.96,2.76 -2.92,2.93 -2.94,3.10 -2.95,3.27 -3.02,3.43 -3.10,3.59 -3.21,3.72 -3.33,3.85 -3.49,3.93 -3.64,4.01 -3.81,4.04 -3.98,4.07 -4.16,4.05 -4.33,4.02 -4.48,3.94 -4.64,3.86 -4.76,3.73 -4.88,3.61 -4.96,3.45 -5.03,3.29 -5.05,3.12 -5.07,2.95 -5.04,2.78 -5.00,2.61 -4.91,2.46 -4.82,2.31 -4.69,2.19 -4.56,2.08 -4.40,2.01 -4.24,1.94 -4.06,1.93 -3.89,1.92 -3.72,1.97 -3.55,2.01 -3.41,2.11 -3.26,2.20 -3.15,2.34 -3.05,2.48 -2.99,2.65 -2.93,2.81 -2.93,2.98 -2.93,3.16 -2.93,3.16 -2.93,3.16 -3.78,5.31 -4.62,7.46 -4.95,7.99 -5.27,8.51 -5.43,9.54 -5.59,10.56 -5.91,11.29 -6.23,12.02 -6.43,12.64 -6.63,13.27 -7.02,13.94 -7.42,14.62 -8.02,15.21 -8.62,15.80 -8.87,16.94 -9.13,18.09 -9.71,19.26 -10.28,20.44 -10.95,21.73 -11.62,23.03 -12.21,24.66 -12.79,26.28 -12.72,27.08 -12.66,27.89 -12.69,28.53 -12.73,29.18 -12.15,29.30 -11.56,29.42 -11.06,29.69 -10.55,29.95 -9.61,29.91 -8.67,29.86 -7.78,29.82 -6.89,29.77 -6.18,29.74 -5.46,29.70 -4.69,29.57 -3.92,29.45 -3.39,28.93 -2.85,28.42 -2.26,27.84 -1.67,27.27 -1.12,26.76 -0.57,26.25 -0.36,25.50 -0.16,24.75 -0.18,23.94 -0.20,23.12 -0.20,22.53 -0.19,21.93 -0.23,20.73 -0.26,19.52 -0.86,19.25 -1.46,18.98 -2.03,18.49 -2.60,18.01 -3.33,17.55 -4.06,17.10 -5.22,16.70 -6.39,16.30 -7.87,15.97 -9.35,15.63 -10.59,14.89 -11.82,14.14 -12.77,13.79 -13.73,13.45 -14.88,13.17 -16.04,12.90 -17.16,12.30 -18.29,11.69 -19.62,10.68 -20.95,9.67 -21.03,8.93 -21.11,8.19 -21.06,7.65 -21.01,7.11 -20.94,6.52 -20.86,5.94 -20.72,5.27 -20.58,4.61 -20.33,3.78 -20.08,2.94 -19.64,1.80 -19.20,0.66 -18.68,-0.88 -18.16,-2.42 -17.72,-2.88 -17.28,-3.35 -16.75,-3.95 -16.22,-4.55 -15.42,-5.07 -14.61,-5.58 -13.88,-6.15 -13.15,-6.71 -11.99,-7.41 -10.83,-8.11 -9.93,-8.12 -9.02,-8.14 -8.37,-8.09 -7.73,-8.04 -6.82,-7.96 -5.91,-7.87 -4.88,-7.28 -3.84,-6.69 -3.20,-6.39 -2.55,-6.10 -1.88,-5.52 -1.22,-4.93 -0.41,-3.74 0.38,-2.55 0.73,-1.41 1.09,-0.27 1.10,-0.13 1.12,-0.00 1.10,0.13 1.09,0.26 1.04,0.39 0.99,0.51 0.92,0.63 0.84,0.74 0.74,0.83 0.64,0.92 0.52,0.98 0.40,1.04 0.27,1.08 0.13,1.11 0.00,1.11 -0.13,1.11 -0.26,1.08 -0.39,1.05 -0.51,0.98 -0.63,0.92 -0.73,0.83 -0.83,0.74 -0.91,0.63 -0.99,0.52 -1.04,0.39 -1.09,0.27 -1.09,0.27 L -1.09,0.27 Z"></path></g><g stroke-linecap="round"><g transform="translate(987.8943902987055 10.849645118787862) rotate(0 -488.4260463192593 144.26757782809435)"><path d="M1.04 -0.85 C-31.17 17.75, -132.92 80.01, -192.62 111.92 C-252.32 143.83, -308.82 188.14, -357.15 190.61 C-405.49 193.08, -444.9 153.13, -482.62 126.72 C-520.35 100.32, -550.26 33.71, -583.48 32.16 C-616.7 30.61, -646.66 85.59, -681.92 117.41 C-717.19 149.23, -745.91 194.44, -795.07 223.1 C-844.24 251.77, -946.78 278.23, -976.91 289.38 M0.13 1.32 C-32.27 19.57, -134.2 78.54, -193.37 110.27 C-252.53 142.01, -306.64 189.35, -354.87 191.72 C-403.09 194.1, -444.4 151.06, -482.71 124.55 C-521.01 98.03, -551.72 33.96, -584.68 32.64 C-617.64 31.31, -645.51 84.53, -680.47 116.59 C-715.44 148.64, -744.9 196.17, -794.47 224.95 C-844.04 253.73, -947.48 278.53, -977.89 289.25" stroke="#1e1e1e" stroke-width="0.5" fill="none"></path></g></g><mask></mask><g transform="translate(554.8943902987055 138.84964511878786) rotate(0 1 14)" stroke="none"><path fill="#1e1e1e" d="M 0.83,-0.55 Q 0.83,-0.55 1.37,0.33 1.92,1.21 2.24,1.95 2.56,2.69 2.65,3.96 2.74,5.23 2.75,6.31 2.76,7.39 2.76,8.72 2.75,10.04 2.74,11.18 2.73,12.31 2.78,13.08 2.82,13.85 2.87,14.47 2.92,15.08 2.97,15.63 3.01,16.18 3.02,16.99 3.03,17.80 3.05,18.43 3.08,19.06 3.11,19.62 3.14,20.17 3.14,20.98 3.13,21.80 3.15,22.43 3.17,23.06 3.15,23.90 3.14,24.75 3.17,26.87 3.20,28.99 3.17,29.19 3.14,29.38 3.05,29.55 2.95,29.72 2.81,29.86 2.67,29.99 2.49,30.07 2.32,30.16 2.12,30.18 1.93,30.20 1.74,30.16 1.55,30.11 1.38,30.01 1.22,29.91 1.09,29.76 0.96,29.62 0.89,29.43 0.82,29.25 0.81,29.06 0.80,28.86 0.85,28.68 0.90,28.49 1.01,28.33 1.12,28.17 1.28,28.05 1.43,27.93 1.62,27.87 1.80,27.81 2.00,27.81 2.19,27.81 2.37,27.87 2.56,27.93 2.71,28.05 2.87,28.17 2.98,28.33 3.09,28.49 3.14,28.68 3.19,28.86 3.18,29.06 3.17,29.25 3.10,29.44 3.03,29.62 2.90,29.76 2.77,29.91 2.61,30.01 2.44,30.11 2.25,30.16 2.06,30.20 1.87,30.18 1.67,30.16 1.50,30.07 1.32,29.99 1.18,29.86 1.04,29.72 0.94,29.55 0.85,29.38 0.82,29.19 0.79,28.99 0.79,28.99 0.79,29.00 0.82,26.87 0.85,24.75 0.84,23.90 0.82,23.06 0.84,22.43 0.86,21.80 0.85,20.98 0.85,20.17 0.88,19.62 0.91,19.06 0.94,18.43 0.96,17.80 0.97,16.99 0.98,16.19 1.02,15.64 1.06,15.09 1.11,14.48 1.16,13.86 1.19,13.09 1.23,12.33 1.21,11.20 1.18,10.07 1.14,8.76 1.10,7.46 1.02,6.43 0.95,5.39 0.83,4.38 0.71,3.36 0.54,2.80 0.37,2.23 -0.22,1.39 -0.83,0.55 -0.88,0.44 -0.94,0.34 -0.96,0.22 -0.99,0.10 -0.99,-0.01 -0.99,-0.13 -0.96,-0.25 -0.93,-0.37 -0.87,-0.47 -0.81,-0.58 -0.73,-0.67 -0.65,-0.76 -0.55,-0.82 -0.45,-0.89 -0.33,-0.93 -0.22,-0.97 -0.10,-0.98 0.01,-1.00 0.13,-0.98 0.25,-0.96 0.36,-0.92 0.47,-0.87 0.57,-0.80 0.67,-0.73 0.75,-0.64 0.83,-0.55 0.83,-0.55 L 0.83,-0.55 Z"></path></g><g transform="translate(573.8943902987055 137.84964511878786) rotate(0 1.5 19.5)" stroke="none"><path fill="#1e1e1e" d="M 0.92,-0.23 Q 0.92,-0.23 1.45,2.07 1.99,4.38 2.22,6.86 2.44,9.34 2.53,11.54 2.61,13.74 2.64,15.25 2.67,16.76 2.71,17.68 2.75,18.61 2.80,19.30 2.86,19.98 2.91,20.56 2.96,21.14 2.97,21.96 2.98,22.78 2.94,23.99 2.89,25.20 2.86,26.58 2.83,27.96 2.80,29.41 2.78,30.85 2.76,32.05 2.75,33.24 2.78,34.03 2.82,34.82 3.32,36.81 3.82,38.80 3.83,38.93 3.84,39.07 3.81,39.20 3.77,39.34 3.70,39.45 3.62,39.57 3.52,39.65 3.41,39.74 3.28,39.79 3.15,39.83 3.01,39.83 2.87,39.84 2.74,39.79 2.61,39.75 2.50,39.67 2.39,39.59 2.31,39.48 2.23,39.37 2.19,39.23 2.15,39.10 2.16,38.97 2.16,38.83 2.21,38.70 2.26,38.57 2.35,38.46 2.43,38.36 2.55,38.28 2.67,38.21 2.80,38.18 2.93,38.15 3.07,38.16 3.21,38.17 3.33,38.23 3.46,38.28 3.56,38.38 3.66,38.47 3.73,38.59 3.80,38.71 3.82,38.84 3.85,38.98 3.83,39.12 3.81,39.25 3.74,39.37 3.68,39.50 3.58,39.59 3.48,39.69 3.36,39.75 3.24,39.81 3.10,39.83 2.96,39.84 2.83,39.82 2.69,39.79 2.58,39.72 2.46,39.65 2.37,39.55 2.27,39.45 2.22,39.32 2.17,39.19 2.17,39.19 2.17,39.19 1.67,37.01 1.17,34.83 1.21,34.03 1.24,33.24 1.23,32.05 1.21,30.85 1.18,29.41 1.16,27.96 1.13,26.58 1.09,25.21 1.05,23.99 1.00,22.78 1.01,21.97 1.02,21.15 1.07,20.57 1.11,20.00 1.15,19.32 1.19,18.64 1.19,17.72 1.19,16.80 1.13,15.31 1.07,13.81 0.95,11.66 0.82,9.51 0.56,7.16 0.30,4.81 -0.30,2.52 -0.92,0.23 -0.93,0.11 -0.95,0.00 -0.93,-0.11 -0.92,-0.22 -0.88,-0.33 -0.84,-0.43 -0.77,-0.53 -0.71,-0.62 -0.62,-0.70 -0.54,-0.78 -0.44,-0.83 -0.34,-0.88 -0.22,-0.91 -0.11,-0.94 -0.00,-0.94 0.11,-0.94 0.22,-0.91 0.33,-0.89 0.43,-0.83 0.53,-0.78 0.62,-0.70 0.70,-0.63 0.77,-0.53 0.84,-0.44 0.88,-0.33 0.92,-0.23 0.92,-0.23 L 0.92,-0.23 Z"></path></g><g transform="translate(607.8943902987055 137.84964511878786) rotate(0 0.5 30)" stroke="none"><path fill="#1e1e1e" d="M 0.77,-0.08 Q 0.77,-0.08 1.04,2.50 1.31,5.09 1.42,7.07 1.54,9.05 1.58,11.91 1.62,14.77 1.64,18.58 1.65,22.38 1.66,26.01 1.66,29.63 1.66,32.90 1.66,36.17 1.66,38.70 1.66,41.24 1.66,43.18 1.66,45.13 1.66,46.53 1.66,47.93 1.69,48.81 1.73,49.69 1.74,50.64 1.76,51.59 1.75,52.86 1.73,54.12 1.72,55.52 1.71,56.92 1.76,58.46 1.82,59.99 1.80,60.13 1.78,60.26 1.72,60.38 1.65,60.49 1.56,60.59 1.46,60.68 1.34,60.73 1.22,60.79 1.08,60.81 0.95,60.82 0.82,60.79 0.69,60.76 0.57,60.69 0.46,60.62 0.37,60.52 0.29,60.42 0.24,60.30 0.19,60.17 0.18,60.04 0.17,59.91 0.21,59.78 0.25,59.65 0.32,59.54 0.40,59.43 0.50,59.35 0.61,59.27 0.73,59.22 0.86,59.18 1.00,59.18 1.13,59.18 1.26,59.22 1.38,59.27 1.49,59.35 1.59,59.43 1.67,59.54 1.74,59.65 1.78,59.78 1.82,59.91 1.81,60.04 1.80,60.17 1.75,60.30 1.70,60.42 1.62,60.52 1.53,60.62 1.42,60.69 1.30,60.76 1.17,60.79 1.04,60.82 0.91,60.81 0.77,60.79 0.65,60.73 0.53,60.68 0.43,60.59 0.34,60.49 0.27,60.38 0.21,60.26 0.19,60.13 0.17,59.99 0.17,59.99 0.17,60.00 0.23,58.46 0.28,56.92 0.27,55.52 0.26,54.12 0.24,52.86 0.23,51.59 0.24,50.64 0.26,49.69 0.30,48.81 0.33,47.93 0.33,46.53 0.33,45.13 0.33,43.18 0.32,41.24 0.32,38.71 0.31,36.17 0.31,32.90 0.30,29.64 0.29,26.01 0.27,22.39 0.24,18.59 0.21,14.80 0.15,11.97 0.09,9.14 -0.03,7.20 -0.16,5.25 -0.47,2.67 -0.77,0.08 -0.77,-0.00 -0.77,-0.10 -0.75,-0.19 -0.72,-0.28 -0.68,-0.36 -0.63,-0.45 -0.57,-0.52 -0.51,-0.58 -0.43,-0.64 -0.35,-0.69 -0.26,-0.72 -0.17,-0.76 -0.08,-0.77 0.00,-0.78 0.10,-0.76 0.19,-0.75 0.28,-0.72 0.37,-0.68 0.44,-0.63 0.52,-0.57 0.58,-0.50 0.64,-0.43 0.69,-0.35 0.73,-0.26 0.75,-0.17 0.77,-0.08 0.77,-0.08 L 0.77,-0.08 Z"></path></g><g transform="translate(636.8943902987055 141.84964511878786) rotate(0 1.5 24.5)" stroke="none"><path fill="#1e1e1e" d="M 0.78,0 Q 0.78,0 0.76,1.43 0.74,2.87 0.73,4.92 0.72,6.97 1.28,10.66 1.84,14.35 2.08,16.53 2.32,18.71 2.42,21.39 2.52,24.06 2.56,26.05 2.60,28.04 2.90,29.70 3.20,31.35 3.33,33.56 3.47,35.76 3.23,37.88 3.00,40.01 2.90,41.73 2.80,43.46 2.79,46.23 2.78,49.01 2.76,49.14 2.73,49.26 2.67,49.37 2.61,49.48 2.52,49.57 2.42,49.65 2.31,49.71 2.19,49.76 2.06,49.77 1.94,49.78 1.81,49.75 1.69,49.72 1.58,49.65 1.47,49.58 1.39,49.48 1.31,49.39 1.27,49.27 1.22,49.15 1.22,49.02 1.22,48.89 1.25,48.77 1.29,48.65 1.36,48.55 1.44,48.44 1.54,48.37 1.64,48.29 1.76,48.25 1.88,48.22 2.01,48.22 2.14,48.22 2.26,48.27 2.38,48.31 2.48,48.39 2.58,48.47 2.65,48.57 2.72,48.68 2.75,48.80 2.78,48.93 2.77,49.05 2.76,49.18 2.71,49.30 2.66,49.41 2.58,49.51 2.49,49.60 2.38,49.67 2.27,49.73 2.15,49.76 2.02,49.78 1.89,49.76 1.77,49.75 1.65,49.69 1.54,49.64 1.45,49.55 1.36,49.46 1.30,49.34 1.24,49.23 1.23,49.10 1.21,48.98 1.21,48.98 1.21,48.98 1.34,46.18 1.48,43.38 1.58,41.62 1.68,39.86 1.91,37.85 2.14,35.84 2.01,33.71 1.88,31.59 1.57,29.83 1.26,28.07 1.21,26.09 1.16,24.11 1.05,21.49 0.95,18.87 0.70,16.72 0.45,14.56 -0.13,10.77 -0.72,6.97 -0.73,4.92 -0.74,2.87 -0.76,1.43 -0.78,0 -0.76,-0.09 -0.75,-0.18 -0.72,-0.27 -0.69,-0.36 -0.63,-0.44 -0.58,-0.51 -0.51,-0.58 -0.44,-0.64 -0.36,-0.68 -0.27,-0.73 -0.18,-0.75 -0.09,-0.77 0.00,-0.77 0.09,-0.77 0.18,-0.75 0.27,-0.73 0.36,-0.68 0.44,-0.64 0.51,-0.58 0.58,-0.51 0.63,-0.44 0.69,-0.36 0.72,-0.27 0.75,-0.18 0.76,-0.09 0.78,0.00 0.78,0.00 L 0.78,0 Z"></path></g><g transform="translate(665.8943902987055 133.84964511878786) rotate(0 1 22.5)" stroke="none"><path fill="#1e1e1e" d="M 0.78,0 Q 0.78,0 0.76,1.72 0.74,3.44 0.73,5.33 0.72,7.21 0.71,9.74 0.70,12.26 0.69,14.77 0.69,17.28 0.97,19.75 1.25,22.21 1.65,24.11 2.05,26.01 2.23,27.72 2.40,29.44 2.48,30.75 2.55,32.05 2.58,33.18 2.61,34.32 2.68,35.08 2.74,35.85 2.80,36.47 2.86,37.08 2.91,37.63 2.96,38.18 2.92,39.57 2.88,40.95 2.93,42.97 2.97,44.99 2.95,45.15 2.92,45.31 2.85,45.45 2.77,45.59 2.66,45.70 2.54,45.81 2.40,45.87 2.26,45.94 2.10,45.96 1.94,45.97 1.79,45.94 1.63,45.91 1.50,45.82 1.36,45.74 1.26,45.62 1.16,45.50 1.10,45.35 1.04,45.21 1.03,45.05 1.02,44.89 1.06,44.74 1.11,44.58 1.19,44.45 1.28,44.32 1.41,44.23 1.54,44.13 1.69,44.08 1.84,44.03 1.99,44.03 2.15,44.03 2.30,44.08 2.45,44.13 2.58,44.23 2.71,44.32 2.80,44.45 2.88,44.58 2.93,44.74 2.97,44.89 2.96,45.05 2.95,45.21 2.89,45.35 2.83,45.50 2.73,45.62 2.63,45.74 2.49,45.82 2.36,45.90 2.20,45.94 2.05,45.97 1.89,45.96 1.73,45.94 1.59,45.87 1.45,45.81 1.33,45.70 1.22,45.59 1.14,45.45 1.07,45.31 1.04,45.15 1.02,44.99 1.02,45.00 1.02,45.00 1.06,42.97 1.11,40.95 1.07,39.57 1.02,38.19 1.07,37.64 1.11,37.10 1.16,36.49 1.21,35.88 1.25,35.12 1.29,34.35 1.25,33.24 1.22,32.13 1.15,30.85 1.07,29.58 0.90,27.93 0.73,26.29 0.31,24.33 -0.10,22.37 -0.39,19.83 -0.69,17.28 -0.69,14.77 -0.70,12.26 -0.71,9.74 -0.72,7.21 -0.73,5.33 -0.74,3.44 -0.76,1.72 -0.78,0 -0.76,-0.09 -0.75,-0.18 -0.72,-0.27 -0.69,-0.36 -0.63,-0.44 -0.58,-0.51 -0.51,-0.58 -0.44,-0.64 -0.36,-0.68 -0.27,-0.73 -0.18,-0.75 -0.09,-0.77 0.00,-0.77 0.09,-0.77 0.18,-0.75 0.27,-0.73 0.36,-0.68 0.44,-0.64 0.51,-0.58 0.58,-0.51 0.63,-0.44 0.69,-0.36 0.72,-0.27 0.75,-0.18 0.76,-0.09 0.78,0.00 0.78,0.00 L 0.78,0 Z"></path></g><g transform="translate(690.8943902987055 139.84964511878786) rotate(0 1 14.5)" stroke="none"><path fill="#1e1e1e" d="M 0.80,-0.32 Q 0.80,-0.32 1.35,1.12 1.89,2.57 2.14,3.83 2.38,5.09 2.48,6.80 2.58,8.50 2.61,10.37 2.64,12.24 2.65,14.47 2.67,16.70 2.67,18.51 2.67,20.32 2.67,21.95 2.67,23.58 2.69,24.56 2.70,25.54 2.76,26.25 2.81,26.95 2.86,28.47 2.91,29.99 2.89,30.14 2.86,30.29 2.79,30.42 2.73,30.55 2.62,30.65 2.51,30.75 2.38,30.82 2.24,30.88 2.09,30.89 1.95,30.91 1.80,30.88 1.66,30.85 1.53,30.77 1.40,30.69 1.31,30.58 1.21,30.47 1.15,30.33 1.10,30.19 1.09,30.04 1.08,29.90 1.12,29.75 1.16,29.61 1.25,29.49 1.33,29.36 1.45,29.27 1.57,29.18 1.71,29.14 1.85,29.09 1.99,29.09 2.14,29.09 2.28,29.14 2.42,29.18 2.54,29.27 2.66,29.36 2.74,29.49 2.83,29.61 2.87,29.75 2.91,29.90 2.90,30.04 2.89,30.19 2.84,30.33 2.78,30.47 2.68,30.58 2.59,30.69 2.46,30.77 2.33,30.85 2.19,30.88 2.04,30.91 1.90,30.89 1.75,30.88 1.61,30.82 1.48,30.75 1.37,30.65 1.26,30.55 1.20,30.42 1.13,30.29 1.10,30.14 1.08,29.99 1.08,30.00 1.08,30.00 1.13,28.47 1.18,26.95 1.23,26.25 1.28,25.55 1.30,24.57 1.31,23.59 1.30,21.96 1.30,20.33 1.28,18.52 1.27,16.71 1.24,14.49 1.22,12.27 1.16,10.43 1.11,8.60 1.00,7.00 0.88,5.40 0.64,4.28 0.40,3.17 -0.20,1.74 -0.80,0.32 -0.82,0.21 -0.85,0.11 -0.85,0.01 -0.85,-0.08 -0.83,-0.18 -0.81,-0.29 -0.76,-0.38 -0.71,-0.47 -0.65,-0.55 -0.58,-0.63 -0.49,-0.69 -0.41,-0.75 -0.31,-0.79 -0.22,-0.83 -0.11,-0.84 -0.01,-0.86 0.08,-0.85 0.19,-0.84 0.28,-0.80 0.38,-0.77 0.47,-0.71 0.56,-0.65 0.63,-0.57 0.70,-0.50 0.75,-0.41 0.80,-0.32 0.80,-0.32 L 0.80,-0.32 Z"></path></g><g transform="translate(726.8943902987055 133.84964511878786) rotate(0 0 12.5)" stroke="none"><path fill="#1e1e1e" d="M 1.03,0 Q 1.03,0 0.98,2.01 0.93,4.02 0.89,6.31 0.85,8.61 0.82,10.44 0.80,12.28 0.78,14.21 0.76,16.14 0.74,17.25 0.73,18.36 0.77,19.12 0.82,19.87 0.87,20.48 0.92,21.09 0.96,23.04 1.00,25 0.98,25.16 0.95,25.32 0.87,25.46 0.80,25.61 0.68,25.72 0.56,25.83 0.41,25.90 0.26,25.97 0.10,25.98 -0.05,26.00 -0.21,25.97 -0.37,25.93 -0.51,25.85 -0.65,25.76 -0.75,25.64 -0.86,25.51 -0.92,25.36 -0.98,25.21 -0.99,25.05 -1.00,24.89 -0.95,24.73 -0.91,24.57 -0.82,24.44 -0.73,24.30 -0.60,24.20 -0.47,24.10 -0.31,24.05 -0.16,24.00 0.00,24.00 0.16,24.00 0.31,24.05 0.47,24.10 0.60,24.20 0.73,24.30 0.82,24.44 0.91,24.57 0.95,24.73 1.00,24.89 0.99,25.05 0.98,25.21 0.92,25.36 0.86,25.52 0.75,25.64 0.65,25.76 0.51,25.85 0.37,25.93 0.21,25.97 0.05,26.00 -0.10,25.98 -0.27,25.97 -0.41,25.90 -0.56,25.83 -0.68,25.72 -0.80,25.60 -0.87,25.46 -0.95,25.32 -0.98,25.16 -1.00,24.99 -1.00,24.99 -1.00,25 -0.96,23.04 -0.92,21.09 -0.87,20.48 -0.82,19.87 -0.77,19.12 -0.73,18.36 -0.74,17.25 -0.76,16.14 -0.78,14.21 -0.80,12.28 -0.82,10.44 -0.85,8.61 -0.89,6.31 -0.93,4.02 -0.98,2.01 -1.03,0 -1.01,-0.12 -1.00,-0.24 -0.95,-0.36 -0.91,-0.47 -0.84,-0.58 -0.77,-0.68 -0.67,-0.76 -0.58,-0.84 -0.47,-0.90 -0.36,-0.96 -0.24,-0.99 -0.12,-1.02 0.00,-1.02 0.12,-1.02 0.24,-0.99 0.36,-0.96 0.47,-0.90 0.58,-0.84 0.67,-0.76 0.77,-0.68 0.84,-0.58 0.91,-0.47 0.95,-0.36 1.00,-0.24 1.01,-0.12 1.03,0.00 1.03,0.00 L 1.03,0 Z"></path></g><g transform="translate(249.8943902987055 133.84964511878786) rotate(0 -4.5 29)" stroke="none"><path fill="#1e1e1e" d="M 0.79,0.19 Q 0.79,0.19 -0.08,3.64 -0.97,7.08 -1.64,9.97 -2.30,12.87 -3.17,16.68 -4.03,20.50 -4.40,23.81 -4.76,27.12 -5.21,30.56 -5.66,34.00 -5.85,36.59 -6.04,39.19 -6.12,41.15 -6.20,43.11 -6.24,44.51 -6.28,45.92 -6.26,46.81 -6.24,47.69 -6.19,48.36 -6.14,49.02 -6.10,49.59 -6.05,50.16 -6.02,50.72 -5.98,51.28 -6.30,52.02 -6.61,52.76 -6.67,53.57 -6.72,54.39 -7.24,56.32 -7.77,58.25 -7.84,58.44 -7.91,58.63 -8.04,58.79 -8.17,58.95 -8.35,59.05 -8.52,59.16 -8.72,59.20 -8.92,59.25 -9.12,59.23 -9.32,59.21 -9.51,59.12 -9.69,59.04 -9.84,58.90 -9.99,58.76 -10.09,58.59 -10.18,58.41 -10.22,58.21 -10.25,58.01 -10.22,57.80 -10.19,57.60 -10.10,57.42 -10.00,57.24 -9.86,57.10 -9.71,56.96 -9.53,56.87 -9.34,56.79 -9.14,56.76 -8.94,56.74 -8.74,56.78 -8.54,56.82 -8.36,56.93 -8.19,57.03 -8.06,57.18 -7.92,57.34 -7.85,57.53 -7.77,57.71 -7.76,57.92 -7.74,58.12 -7.80,58.32 -7.85,58.51 -7.96,58.68 -8.08,58.85 -8.24,58.98 -8.40,59.10 -8.59,59.17 -8.78,59.23 -8.98,59.24 -9.19,59.24 -9.38,59.17 -9.57,59.11 -9.74,58.99 -9.90,58.87 -10.02,58.70 -10.13,58.53 -10.19,58.34 -10.24,58.14 -10.23,57.94 -10.22,57.73 -10.22,57.73 -10.22,57.74 -9.67,55.93 -9.12,54.12 -9.03,53.55 -8.93,52.98 -8.73,52.35 -8.52,51.71 -8.23,50.93 -7.93,50.15 -7.88,49.58 -7.83,49.00 -7.77,48.34 -7.71,47.67 -7.66,46.78 -7.61,45.89 -7.58,44.47 -7.55,43.05 -7.47,41.07 -7.40,39.09 -7.21,36.46 -7.03,33.83 -6.59,30.40 -6.16,26.97 -5.80,23.58 -5.44,20.19 -4.59,16.36 -3.75,12.54 -3.11,9.62 -2.47,6.71 -1.63,3.25 -0.79,-0.19 -0.75,-0.29 -0.72,-0.38 -0.66,-0.46 -0.61,-0.54 -0.53,-0.61 -0.46,-0.67 -0.37,-0.72 -0.28,-0.76 -0.19,-0.79 -0.09,-0.81 0.00,-0.81 0.10,-0.81 0.19,-0.78 0.29,-0.76 0.38,-0.71 0.46,-0.67 0.54,-0.60 0.61,-0.54 0.67,-0.45 0.72,-0.37 0.76,-0.28 0.79,-0.19 0.80,-0.09 0.81,0.00 0.80,0.10 0.79,0.19 0.79,0.19 L 0.79,0.19 Z"></path></g><g transform="translate(214.8943902987055 135.84964511878786) rotate(0 -5 41)" stroke="none"><path fill="#1e1e1e" d="M 0.72,0.29 Q 0.72,0.29 0.13,1.72 -0.45,3.15 -1.27,6.58 -2.08,10.01 -2.72,14.05 -3.36,18.09 -3.92,21.26 -4.49,24.43 -5.02,27.78 -5.55,31.14 -6.06,33.73 -6.58,36.32 -6.79,38.53 -7.01,40.74 -7.10,42.83 -7.19,44.91 -7.23,46.66 -7.27,48.41 -7.29,50.31 -7.31,52.20 -7.61,54.20 -7.91,56.20 -8.32,58.20 -8.74,60.20 -8.91,61.31 -9.08,62.43 -9.16,64.02 -9.23,65.62 -9.26,67.16 -9.29,68.71 -9.30,70.52 -9.32,72.32 -9.32,74.24 -9.33,76.16 -9.33,77.55 -9.33,78.94 -9.27,80.47 -9.21,82.00 -9.24,82.12 -9.26,82.24 -9.32,82.36 -9.37,82.47 -9.47,82.55 -9.56,82.64 -9.67,82.69 -9.79,82.75 -9.91,82.76 -10.04,82.77 -10.16,82.75 -10.28,82.72 -10.39,82.65 -10.50,82.59 -10.58,82.49 -10.66,82.40 -10.71,82.28 -10.76,82.16 -10.76,82.04 -10.77,81.91 -10.74,81.79 -10.70,81.67 -10.63,81.56 -10.56,81.46 -10.46,81.38 -10.36,81.31 -10.24,81.27 -10.12,81.22 -9.99,81.23 -9.87,81.23 -9.75,81.27 -9.63,81.31 -9.53,81.38 -9.43,81.46 -9.36,81.56 -9.29,81.67 -9.25,81.79 -9.22,81.91 -9.23,82.04 -9.23,82.16 -9.28,82.28 -9.33,82.40 -9.41,82.49 -9.49,82.59 -9.60,82.66 -9.71,82.72 -9.83,82.75 -9.95,82.77 -10.08,82.76 -10.20,82.75 -10.32,82.69 -10.43,82.64 -10.53,82.55 -10.62,82.47 -10.68,82.35 -10.73,82.24 -10.75,82.12 -10.78,81.99 -10.78,81.99 -10.78,81.99 -10.71,80.47 -10.65,78.94 -10.65,77.55 -10.64,76.16 -10.64,74.23 -10.63,72.31 -10.62,70.50 -10.61,68.68 -10.57,67.12 -10.54,65.56 -10.46,63.89 -10.39,62.22 -10.21,61.08 -10.03,59.93 -9.62,57.97 -9.21,56.01 -8.92,54.09 -8.63,52.18 -8.62,50.28 -8.60,48.38 -8.56,46.62 -8.52,44.86 -8.43,42.73 -8.34,40.61 -8.12,38.33 -7.90,36.05 -7.40,33.49 -6.89,30.93 -6.37,27.56 -5.85,24.19 -5.30,21.03 -4.75,17.87 -4.12,13.77 -3.49,9.68 -2.66,6.14 -1.84,2.59 -1.28,1.15 -0.72,-0.29 -0.67,-0.37 -0.63,-0.45 -0.57,-0.52 -0.50,-0.59 -0.42,-0.64 -0.35,-0.69 -0.26,-0.72 -0.17,-0.76 -0.07,-0.77 0.01,-0.78 0.10,-0.76 0.20,-0.75 0.28,-0.71 0.37,-0.68 0.45,-0.63 0.52,-0.57 0.58,-0.50 0.65,-0.43 0.69,-0.34 0.73,-0.26 0.75,-0.17 0.77,-0.08 0.77,0.01 0.77,0.10 0.74,0.19 0.72,0.29 0.72,0.29 L 0.72,0.29 Z"></path></g><g transform="translate(171.8943902987055 142.84964511878786) rotate(0 -7.5 50.5)" stroke="none"><path fill="#1e1e1e" d="M 0.75,0.18 Q 0.75,0.18 0.45,1.33 0.14,2.48 -0.27,4.11 -0.69,5.75 -1.44,9.59 -2.20,13.42 -3.38,19.38 -4.57,25.33 -5.65,30.73 -6.73,36.14 -7.48,40.72 -8.23,45.31 -8.83,49.55 -9.44,53.80 -9.99,57.34 -10.53,60.87 -10.76,64.07 -10.99,67.27 -11.09,69.21 -11.19,71.15 -11.23,72.55 -11.27,73.94 -11.29,75.39 -11.31,76.85 -11.29,77.76 -11.26,78.66 -11.57,79.99 -11.88,81.31 -12.30,82.99 -12.72,84.67 -12.89,86.49 -13.06,88.30 -13.13,90.23 -13.21,92.15 -13.54,94.17 -13.86,96.18 -14.09,98.62 -14.33,101.06 -14.35,101.16 -14.38,101.27 -14.44,101.36 -14.50,101.45 -14.59,101.52 -14.67,101.59 -14.78,101.62 -14.88,101.66 -14.99,101.66 -15.10,101.66 -15.20,101.63 -15.30,101.59 -15.39,101.53 -15.48,101.46 -15.54,101.37 -15.60,101.29 -15.63,101.18 -15.66,101.08 -15.66,100.97 -15.65,100.86 -15.61,100.76 -15.58,100.66 -15.51,100.57 -15.44,100.49 -15.34,100.43 -15.25,100.37 -15.15,100.35 -15.04,100.32 -14.93,100.33 -14.82,100.34 -14.72,100.39 -14.62,100.43 -14.54,100.51 -14.46,100.58 -14.41,100.68 -14.36,100.77 -14.34,100.88 -14.32,100.99 -14.34,101.09 -14.36,101.20 -14.40,101.30 -14.45,101.40 -14.53,101.47 -14.61,101.55 -14.71,101.59 -14.81,101.64 -14.92,101.65 -15.02,101.67 -15.13,101.64 -15.24,101.62 -15.33,101.57 -15.42,101.51 -15.50,101.43 -15.57,101.35 -15.61,101.25 -15.65,101.15 -15.66,101.04 -15.66,100.93 -15.66,100.93 -15.66,100.93 -15.42,98.45 -15.18,95.97 -14.87,94.03 -14.56,92.10 -14.49,90.14 -14.42,88.18 -14.24,86.26 -14.06,84.35 -13.66,82.67 -13.25,80.99 -12.98,79.82 -12.71,78.64 -12.67,77.74 -12.63,76.83 -12.61,75.37 -12.59,73.90 -12.55,72.49 -12.51,71.08 -12.41,69.13 -12.31,67.18 -12.08,63.92 -11.85,60.67 -11.31,57.14 -10.77,53.61 -10.16,49.35 -9.56,45.09 -8.82,40.48 -8.07,35.87 -7.00,30.47 -5.93,25.06 -4.75,19.11 -3.58,13.16 -2.83,9.28 -2.09,5.40 -1.69,3.76 -1.29,2.11 -1.02,0.96 -0.75,-0.18 -0.72,-0.27 -0.69,-0.36 -0.63,-0.44 -0.58,-0.51 -0.51,-0.58 -0.44,-0.64 -0.35,-0.68 -0.27,-0.73 -0.18,-0.75 -0.09,-0.77 0.00,-0.77 0.09,-0.77 0.18,-0.75 0.27,-0.72 0.36,-0.68 0.44,-0.64 0.51,-0.57 0.58,-0.51 0.63,-0.43 0.69,-0.36 0.72,-0.27 0.75,-0.18 0.77,-0.09 0.78,0.00 0.76,0.09 0.75,0.18 0.75,0.18 L 0.75,0.18 Z"></path></g><g transform="translate(146.8943902987055 141.84964511878786) rotate(0 -5.5 54)" stroke="none"><path fill="#1e1e1e" d="M 0.76,0.16 Q 0.76,0.16 0.17,2.75 -0.42,5.33 -0.96,7.58 -1.51,9.84 -2.60,14.81 -3.70,19.78 -4.45,24.47 -5.20,29.15 -5.81,33.16 -6.42,37.17 -6.97,40.60 -7.52,44.03 -7.75,46.61 -7.99,49.20 -8.08,51.16 -8.18,53.11 -8.23,54.81 -8.27,56.50 -8.58,58.42 -8.89,60.33 -9.02,61.96 -9.14,63.60 -9.20,65.15 -9.25,66.70 -9.28,68.80 -9.30,70.89 -9.31,72.93 -9.32,74.98 -9.33,76.99 -9.33,79.01 -9.33,81.31 -9.33,83.60 -9.34,85.15 -9.34,86.70 -9.34,87.94 -9.34,89.17 -9.29,89.98 -9.24,90.79 -9.23,91.71 -9.21,92.63 -9.16,93.31 -9.11,93.99 -9.07,94.57 -9.02,95.14 -9.01,95.96 -9.00,96.78 -8.97,97.42 -8.94,98.05 -8.91,98.61 -8.87,99.17 -8.88,99.98 -8.88,100.79 -8.86,101.43 -8.84,102.06 -8.82,102.62 -8.79,103.17 -9.31,105.85 -9.82,108.53 -9.94,108.71 -10.06,108.88 -10.22,109.00 -10.39,109.13 -10.59,109.20 -10.78,109.27 -10.99,109.27 -11.20,109.27 -11.40,109.20 -11.59,109.13 -11.76,109.01 -11.93,108.88 -12.04,108.71 -12.16,108.54 -12.22,108.34 -12.28,108.14 -12.26,107.93 -12.25,107.72 -12.18,107.53 -12.10,107.33 -11.97,107.17 -11.83,107.02 -11.65,106.91 -11.48,106.80 -11.27,106.75 -11.07,106.71 -10.86,106.73 -10.65,106.75 -10.46,106.84 -10.28,106.93 -10.12,107.07 -9.97,107.21 -9.87,107.40 -9.78,107.58 -9.74,107.79 -9.71,107.99 -9.74,108.20 -9.77,108.40 -9.87,108.59 -9.97,108.77 -10.12,108.92 -10.27,109.06 -10.46,109.15 -10.65,109.24 -10.85,109.26 -11.06,109.28 -11.26,109.24 -11.47,109.19 -11.65,109.09 -11.83,108.98 -11.96,108.82 -12.10,108.66 -12.17,108.47 -12.25,108.28 -12.26,108.07 -12.28,107.86 -12.22,107.66 -12.17,107.46 -12.17,107.46 -12.17,107.46 -11.68,105.32 -11.20,103.17 -11.17,102.62 -11.15,102.06 -11.13,101.43 -11.11,100.79 -11.11,99.98 -11.12,99.17 -11.08,98.61 -11.05,98.05 -11.02,97.42 -10.99,96.78 -10.98,95.96 -10.97,95.14 -10.92,94.57 -10.88,93.99 -10.83,93.31 -10.78,92.63 -10.76,91.71 -10.75,90.79 -10.70,89.98 -10.65,89.17 -10.65,87.94 -10.65,86.70 -10.65,85.15 -10.65,83.60 -10.65,81.31 -10.65,79.01 -10.64,76.99 -10.64,74.97 -10.63,72.92 -10.62,70.88 -10.60,68.77 -10.57,66.65 -10.52,65.07 -10.46,63.49 -10.33,61.81 -10.20,60.12 -9.90,58.29 -9.60,56.46 -9.56,54.76 -9.51,53.05 -9.42,51.06 -9.32,49.08 -9.09,46.45 -8.86,43.82 -8.31,40.39 -7.77,36.96 -7.17,32.95 -6.57,28.93 -5.82,24.21 -5.07,19.48 -3.99,14.49 -2.91,9.50 -2.39,7.26 -1.87,5.01 -1.32,2.42 -0.76,-0.16 -0.73,-0.25 -0.69,-0.34 -0.64,-0.42 -0.59,-0.50 -0.52,-0.56 -0.45,-0.63 -0.37,-0.67 -0.29,-0.72 -0.20,-0.74 -0.11,-0.77 -0.01,-0.77 0.07,-0.77 0.16,-0.75 0.26,-0.73 0.34,-0.69 0.42,-0.65 0.50,-0.59 0.57,-0.53 0.62,-0.45 0.68,-0.37 0.71,-0.29 0.75,-0.20 0.76,-0.11 0.78,-0.01 0.77,0.07 0.76,0.16 0.76,0.16 L 0.76,0.16 Z"></path></g></svg>