<svg version="1.1" xmlns="http://www.w3.org/2000/svg" viewBox="0 0 508.0965097308159 330.6408519201758" width="508.0965097308159" height="330.6408519201758" class="excalidraw-svg"><!-- svg-source:excalidraw --><metadata></metadata><defs><style class="style-fonts">
      </style></defs><rect x="0" y="0" width="508.0965097308159" height="330.6408519201758" fill="#ffffff"></rect><g stroke-linecap="round"><g transform="translate(132.6197441995144 11.995226166624718) rotate(0 182.28754882216452 -0.8231323559974228)"><path d="M-0.9 -0.41 C60.17 -0.46, 304.64 0.29, 365.48 0.35 M0.83 -1.67 C61.87 -2.15, 303.83 -2.08, 364.78 -1.59" stroke="#1e1e1e" stroke-width="2" fill="none"></path></g></g><mask></mask><g stroke-linecap="round"><g transform="translate(389.8502209053354 197.81023370963743) rotate(0 52.99763841913759 -93.2747042196908)"><path d="M-1 0.35 C16.68 -30.38, 88.94 -153.95, 107 -184.97 M0.67 -0.51 C18.12 -31.56, 88.37 -156.21, 106.05 -186.9" stroke="#1e1e1e" stroke-width="2" fill="none"></path></g></g><mask></mask><g stroke-linecap="round"><g transform="translate(26 198.6407519201758) rotate(0 233.60300322175027 -92.27718572047074)"><path d="M-0.43 0.32 C77.35 -30.22, 389.48 -152.56, 467.64 -183.18 M1.54 -0.56 C79.05 -31.43, 388.75 -154.06, 466.5 -184.87" stroke="#2f9e44" stroke-width="2" fill="none"></path></g></g><mask></mask><g stroke-linecap="round"><g transform="translate(387 198.6407519201758) rotate(0 -126.75709857146721 -91.06350095119792)"><path d="M0.76 -0.61 C-41.41 -31.07, -210.92 -153.26, -253.21 -183.81 M-0.3 1.68 C-42.64 -28.55, -212.02 -151.9, -254.27 -182.7" stroke="#f08c00" stroke-width="2" fill="none"></path></g></g><mask></mask><g stroke-linecap="round"><g transform="translate(27 199.6407519201758) rotate(0 181.018848413229 1.7518369921203671)"><path d="M-1.09 0.61 C59.4 0.94, 302.42 1.64, 363.13 2.05 M0.54 -0.11 C60.86 0.41, 301.92 3.38, 362.24 3.62" stroke="#1971c2" stroke-width="2" fill="none"></path></g><g transform="translate(27 199.6407519201758) rotate(0 181.018848413229 1.7518369921203671)"><path d="M338.68 11.96 C347.16 9.74, 353.7 7.16, 362.24 3.62 M338.68 11.96 C347.84 9.64, 358.02 4.71, 362.24 3.62" stroke="#1971c2" stroke-width="2" fill="none"></path></g><g transform="translate(27 199.6407519201758) rotate(0 181.018848413229 1.7518369921203671)"><path d="M338.83 -5.14 C347.28 -1.94, 353.77 0.9, 362.24 3.62 M338.83 -5.14 C347.79 -0.79, 357.92 0.96, 362.24 3.62" stroke="#1971c2" stroke-width="2" fill="none"></path></g></g><mask></mask><g stroke-linecap="round"><g transform="translate(26 200.6407519201758) rotate(0 52.70431761909742 -94.822012175587)"><path d="M0.64 0.98 C18.2 -30.35, 88.66 -157.23, 105.89 -189.02 M-0.48 0.45 C16.95 -31.1, 87.59 -159.16, 105.41 -190.62" stroke="#e03131" stroke-width="2" fill="none"></path></g><g transform="translate(26 200.6407519201758) rotate(0 52.70431761909742 -94.822012175587)"><path d="M101.44 -165.94 C104.65 -172.95, 106.02 -184.48, 105.41 -190.62 M101.44 -165.94 C103.57 -174.08, 103.23 -182.73, 105.41 -190.62" stroke="#e03131" stroke-width="2" fill="none"></path></g><g transform="translate(26 200.6407519201758) rotate(0 52.70431761909742 -94.822012175587)"><path d="M86.5 -174.27 C94.77 -178.5, 101.27 -187.16, 105.41 -190.62 M86.5 -174.27 C93.43 -179.84, 97.87 -185.82, 105.41 -190.62" stroke="#e03131" stroke-width="2" fill="none"></path></g></g><mask></mask><g transform="translate(201 230.6407519201758) rotate(0 7 20.5)" stroke="none"><path fill="#e03131" d="M 2.24,0 Q 2.24,0 2.15,2.01 2.06,4.02 1.99,6.03 1.92,8.03 1.93,9.75 1.94,11.46 1.92,13.34 1.90,15.22 1.92,16.88 1.94,18.54 1.97,20.11 2.01,21.68 2.07,22.92 2.13,24.16 2.26,25.61 2.39,27.06 2.43,28.19 2.47,29.32 2.44,30.95 2.41,32.58 2.43,33.85 2.46,35.12 2.49,36.23 2.53,37.35 2.58,38.11 2.62,38.87 2.59,39.18 2.55,39.50 2.43,39.80 2.32,40.09 2.14,40.35 1.96,40.61 1.73,40.82 1.49,41.03 1.21,41.18 0.93,41.33 0.62,41.40 0.31,41.48 -0.00,41.48 -0.31,41.48 -0.62,41.40 -0.93,41.33 -1.21,41.18 -1.49,41.03 -1.73,40.82 -1.96,40.61 -2.14,40.35 -2.32,40.09 -2.43,39.80 -2.55,39.50 -2.59,39.18 -2.62,38.87 -2.64,37.65 -2.66,36.43 -2.66,35.15 -2.67,33.88 -2.65,32.47 -2.64,31.07 -2.62,29.59 -2.59,28.12 -2.28,26.83 -1.97,25.54 -1.92,24.18 -1.87,22.81 -1.35,21.00 -0.82,19.19 0.07,18.44 0.98,17.70 2.50,17.34 4.02,16.99 5.53,16.92 7.04,16.86 8.16,16.82 9.28,16.79 10.59,17.16 11.90,17.54 13.40,18.12 14.89,18.71 16.28,20.31 17.67,21.91 17.98,23.45 18.29,24.99 18.34,26.10 18.39,27.21 18.39,28.64 18.40,30.07 18.01,32.01 17.62,33.96 17.04,34.93 16.46,35.91 15.43,37.49 14.40,39.06 13.26,40.32 12.12,41.58 10.55,42.40 8.99,43.22 7.19,43.68 5.39,44.15 3.82,44.23 2.26,44.31 -0.82,42.50 -3.91,40.68 -4.10,40.17 -4.30,39.66 -4.32,39.12 -4.34,38.57 -4.18,38.05 -4.03,37.53 -3.71,37.08 -3.40,36.64 -2.96,36.31 -2.52,35.99 -2.00,35.83 -1.48,35.66 -0.94,35.67 -0.39,35.68 0.11,35.87 0.62,36.05 1.05,36.39 1.48,36.72 1.78,37.18 2.08,37.64 2.21,38.16 2.35,38.69 2.31,39.23 2.27,39.78 2.06,40.28 1.85,40.78 1.49,41.19 1.13,41.60 0.66,41.87 0.19,42.15 -0.34,42.25 -0.87,42.36 -1.41,42.29 -1.95,42.22 -2.44,41.99 -2.93,41.75 -3.32,41.37 -3.71,40.98 -3.96,40.50 -4.21,40.01 -4.28,39.47 -4.36,38.93 -4.26,38.40 -4.17,37.86 -3.90,37.39 -3.64,36.91 -3.24,36.54 -2.83,36.17 -2.34,35.95 -1.84,35.73 -1.30,35.69 -0.75,35.64 -0.22,35.76 0.30,35.89 0.76,36.18 1.22,36.47 1.57,36.89 1.91,37.31 1.91,37.31 1.91,37.31 2.73,37.45 3.56,37.60 4.86,37.43 6.17,37.26 7.18,36.60 8.19,35.94 8.96,35.03 9.72,34.13 10.65,32.62 11.58,31.12 11.59,29.98 11.59,28.84 11.59,27.61 11.59,26.37 11.48,25.18 11.38,23.98 9.79,23.58 8.20,23.18 7.05,23.16 5.91,23.13 4.85,22.62 3.80,22.10 3.66,23.43 3.53,24.76 3.06,26.47 2.59,28.19 2.62,29.63 2.64,31.07 2.65,32.47 2.67,33.88 2.66,35.15 2.66,36.43 2.64,37.65 2.62,38.87 2.59,39.18 2.55,39.50 2.43,39.80 2.32,40.09 2.14,40.35 1.96,40.61 1.73,40.82 1.49,41.03 1.21,41.18 0.93,41.33 0.62,41.40 0.31,41.48 0.00,41.48 -0.31,41.48 -0.62,41.40 -0.93,41.33 -1.21,41.18 -1.49,41.03 -1.73,40.82 -1.96,40.61 -2.14,40.35 -2.32,40.09 -2.43,39.80 -2.55,39.50 -2.59,39.18 -2.62,38.87 -2.58,38.11 -2.53,37.35 -2.49,36.23 -2.46,35.12 -2.43,33.85 -2.41,32.58 -2.44,30.95 -2.47,29.32 -2.43,28.19 -2.39,27.06 -2.26,25.61 -2.13,24.16 -2.07,22.92 -2.01,21.68 -1.97,20.11 -1.94,18.54 -1.92,16.88 -1.90,15.22 -1.92,13.34 -1.94,11.46 -1.93,9.75 -1.92,8.03 -1.99,6.03 -2.06,4.02 -2.15,2.01 -2.24,0 -2.21,-0.26 -2.18,-0.53 -2.08,-0.79 -1.99,-1.04 -1.83,-1.26 -1.68,-1.49 -1.48,-1.67 -1.27,-1.85 -1.03,-1.97 -0.79,-2.10 -0.53,-2.16 -0.27,-2.23 0.00,-2.23 0.27,-2.23 0.53,-2.16 0.79,-2.10 1.03,-1.97 1.27,-1.85 1.48,-1.67 1.68,-1.49 1.83,-1.26 1.99,-1.04 2.08,-0.79 2.18,-0.53 2.21,-0.26 2.24,0.00 2.24,0.00 L 2.24,0 Z"></path></g><g transform="translate(188 232.6407519201758) rotate(0 14.5 -2)" stroke="none"><path fill="#e03131" d="M -0.95,-2.38 Q -0.95,-2.38 0.50,-2.93 1.95,-3.48 3.68,-3.78 5.41,-4.09 6.71,-4.23 8.00,-4.37 9.14,-4.45 10.28,-4.53 11.36,-4.80 12.45,-5.07 14.13,-5.37 15.80,-5.66 17.69,-5.75 19.58,-5.84 21.55,-5.88 23.53,-5.92 24.83,-5.97 26.12,-6.02 26.34,-5.94 26.56,-5.85 26.92,-6.19 27.28,-6.53 27.73,-6.74 28.18,-6.95 28.67,-7.00 29.17,-7.05 29.65,-6.94 30.13,-6.84 30.56,-6.58 30.98,-6.33 31.30,-5.95 31.62,-5.57 31.80,-5.11 31.99,-4.65 32.01,-4.15 32.04,-3.66 31.90,-3.18 31.77,-2.70 31.49,-2.30 31.21,-1.89 30.82,-1.59 30.42,-1.29 29.95,-1.13 29.49,-0.97 28.99,-0.97 28.49,-0.97 28.03,-1.13 27.56,-1.29 27.16,-1.59 26.77,-1.89 26.49,-2.30 26.21,-2.71 26.08,-3.19 25.95,-3.67 25.98,-4.16 26.01,-4.66 26.19,-5.12 26.37,-5.58 26.70,-5.96 27.02,-6.33 27.44,-6.59 27.87,-6.84 28.35,-6.95 28.83,-7.05 29.33,-7.00 29.82,-6.94 30.27,-6.73 30.72,-6.53 31.08,-6.18 31.44,-5.84 31.67,-5.41 31.90,-4.97 31.98,-4.48 32.06,-3.99 31.98,-3.50 31.89,-3.01 31.66,-2.57 31.43,-2.14 31.43,-2.14 31.43,-2.14 28.78,-1.05 26.13,0.02 24.83,-0.02 23.54,-0.07 21.59,-0.09 19.64,-0.12 17.96,-0.14 16.27,-0.17 14.95,-0.09 13.62,-0.01 11.03,0.33 8.44,0.68 7.33,0.74 6.22,0.81 5.01,0.99 3.79,1.18 2.37,1.78 0.95,2.38 0.65,2.45 0.35,2.53 0.04,2.54 -0.26,2.54 -0.56,2.48 -0.86,2.41 -1.14,2.27 -1.41,2.13 -1.65,1.93 -1.88,1.73 -2.06,1.48 -2.24,1.23 -2.36,0.94 -2.47,0.65 -2.52,0.35 -2.56,0.04 -2.53,-0.26 -2.49,-0.56 -2.39,-0.85 -2.29,-1.15 -2.11,-1.40 -1.94,-1.66 -1.72,-1.87 -1.49,-2.08 -1.22,-2.23 -0.95,-2.38 -0.95,-2.38 L -0.95,-2.38 Z"></path></g><g transform="translate(212 221.6407519201758) rotate(0 8 5)" stroke="none"><path fill="#e03131" d="M 0.82,-2.46 Q 0.82,-2.46 2.52,-1.81 4.22,-1.15 5.43,-0.58 6.64,-0.00 7.65,0.47 8.66,0.95 10.62,1.51 12.59,2.08 14.03,2.50 15.48,2.92 16.56,4.44 17.65,5.95 17.05,7.40 16.45,8.85 15.36,9.38 14.27,9.91 12.67,10.00 11.06,10.08 9.43,10.92 7.81,11.76 6.37,12.42 4.92,13.08 4.41,13.15 3.89,13.22 3.38,13.12 2.87,13.01 2.41,12.76 1.96,12.50 1.62,12.11 1.27,11.72 1.07,11.24 0.86,10.76 0.82,10.24 0.78,9.71 0.91,9.21 1.04,8.70 1.32,8.27 1.61,7.83 2.02,7.50 2.42,7.18 2.92,7.00 3.41,6.83 3.93,6.81 4.45,6.80 4.95,6.96 5.44,7.12 5.87,7.42 6.29,7.73 6.59,8.15 6.89,8.58 7.04,9.08 7.19,9.58 7.17,10.10 7.16,10.62 6.97,11.11 6.79,11.60 6.46,12.00 6.13,12.41 5.69,12.69 5.25,12.96 4.74,13.09 4.24,13.21 3.72,13.16 3.20,13.12 2.72,12.91 2.24,12.70 1.86,12.35 1.47,12.00 1.22,11.54 0.96,11.09 0.87,10.58 0.77,10.06 0.85,9.55 0.92,9.03 1.15,8.56 1.39,8.10 1.76,7.73 2.13,7.37 2.60,7.14 3.07,6.91 3.07,6.91 3.07,6.91 4.67,6.31 6.28,5.71 7.24,5.16 8.20,4.61 9.51,4.24 10.83,3.86 12.26,4.23 13.70,4.59 12.98,6.10 12.27,7.60 10.95,7.07 9.62,6.53 7.98,6.03 6.35,5.53 4.51,4.49 2.67,3.45 0.92,2.96 -0.82,2.46 -1.10,2.33 -1.39,2.20 -1.63,2.00 -1.87,1.80 -2.06,1.55 -2.25,1.30 -2.37,1.01 -2.49,0.72 -2.55,0.41 -2.60,0.10 -2.57,-0.20 -2.55,-0.51 -2.45,-0.81 -2.35,-1.11 -2.18,-1.38 -2.01,-1.64 -1.79,-1.86 -1.56,-2.08 -1.29,-2.23 -1.02,-2.39 -0.71,-2.48 -0.41,-2.56 -0.10,-2.58 0.20,-2.59 0.51,-2.53 0.82,-2.46 0.82,-2.46 L 0.82,-2.46 Z"></path></g><g transform="translate(277 320.64075192017583) rotate(0 0.00005000000000165983 0.00005000000000165983)" stroke="none"><path fill="#1971c2" d="M 1.57,-1.57 Q 1.57,-1.57 1.77,-1.27 1.98,-0.98 2.09,-0.64 2.20,-0.29 2.19,0.05 2.18,0.41 2.05,0.75 1.93,1.09 1.70,1.37 1.48,1.65 1.18,1.84 0.87,2.04 0.52,2.12 0.18,2.21 -0.17,2.18 -0.53,2.15 -0.86,2.01 -1.19,1.87 -1.46,1.63 -1.73,1.39 -1.90,1.07 -2.08,0.76 -2.15,0.41 -2.21,0.05 -2.17,-0.29 -2.12,-0.65 -1.96,-0.97 -1.80,-1.29 -1.54,-1.54 -1.29,-1.80 -0.97,-1.96 -0.65,-2.12 -0.29,-2.17 0.06,-2.21 0.41,-2.15 0.76,-2.08 1.07,-1.90 1.39,-1.73 1.63,-1.46 1.87,-1.19 2.01,-0.86 2.15,-0.53 2.18,-0.17 2.21,0.18 2.12,0.52 2.03,0.87 1.84,1.18 1.65,1.48 1.37,1.70 1.09,1.93 0.75,2.05 0.41,2.18 0.05,2.19 -0.30,2.20 -0.64,2.09 -0.98,1.98 -1.27,1.77 -1.57,1.56 -1.57,1.57 -1.57,1.57 -1.73,1.35 -1.90,1.14 -2.01,0.90 -2.12,0.66 -2.16,0.39 -2.21,0.13 -2.20,-0.13 -2.18,-0.40 -2.10,-0.65 -2.02,-0.91 -1.88,-1.14 -1.74,-1.36 -1.55,-1.55 -1.36,-1.74 -1.14,-1.88 -0.91,-2.02 -0.65,-2.10 -0.40,-2.18 -0.13,-2.20 0.13,-2.21 0.39,-2.16 0.66,-2.12 0.90,-2.01 1.14,-1.90 1.35,-1.73 1.57,-1.57 1.57,-1.57 L 1.57,-1.57 Z"></path></g><g transform="translate(33 78.6407519201758) rotate(0 1.5 14.5)" stroke="none"><path fill="#e03131" d="M 0,2.11 Q 0,2.11 -1.43,2.14 -2.86,2.18 -4.29,2.85 -5.72,3.52 -6.74,4.76 -7.77,5.99 -8.69,7.59 -9.62,9.18 -9.92,10.38 -10.22,11.58 -10.45,13.38 -10.68,15.18 -10.82,17.13 -10.96,19.09 -10.91,20.22 -10.87,21.34 -10.09,22.32 -9.32,23.30 -8.17,23.78 -7.03,24.25 -5.99,24.71 -4.95,25.16 -3.71,24.43 -2.48,23.70 -1.94,22.50 -1.41,21.31 -0.81,20.04 -0.21,18.76 0.00,16.76 0.21,14.76 0.23,13.67 0.26,12.58 0.59,9.96 0.92,7.34 1.01,5.78 1.10,4.22 1.09,3.53 1.08,2.84 1.14,2.50 1.20,2.16 1.35,1.84 1.49,1.52 1.70,1.25 1.92,0.97 2.19,0.76 2.46,0.54 2.78,0.40 3.09,0.26 3.44,0.19 3.78,0.13 4.12,0.15 4.47,0.17 4.80,0.27 5.14,0.37 5.43,0.55 5.73,0.73 5.98,0.98 6.23,1.22 6.41,1.52 6.59,1.81 6.69,2.15 6.80,2.48 6.82,2.82 6.84,3.17 6.76,5.87 6.68,8.57 6.69,9.84 6.69,11.11 6.63,12.80 6.56,14.50 6.47,16.36 6.38,18.23 6.42,19.31 6.47,20.40 6.88,21.38 7.29,22.36 8.47,22.64 9.66,22.93 10.88,22.16 12.11,21.38 12.78,20.22 13.46,19.05 13.84,18.70 14.22,18.35 14.69,18.13 15.16,17.92 15.67,17.86 16.18,17.81 16.69,17.92 17.19,18.04 17.63,18.30 18.07,18.57 18.41,18.97 18.74,19.36 18.93,19.84 19.12,20.32 19.14,20.84 19.17,21.35 19.03,21.85 18.89,22.35 18.59,22.77 18.30,23.20 17.89,23.51 17.48,23.82 16.99,23.98 16.50,24.15 15.98,24.14 15.46,24.14 14.98,23.98 14.49,23.81 14.08,23.49 13.67,23.18 13.38,22.75 13.09,22.32 12.96,21.82 12.82,21.33 12.85,20.81 12.88,20.29 13.07,19.82 13.27,19.34 13.60,18.94 13.94,18.55 14.38,18.29 14.83,18.02 15.33,17.92 15.84,17.81 16.35,17.87 16.86,17.92 17.33,18.14 17.80,18.36 18.17,18.72 18.55,19.08 18.78,19.53 19.02,19.99 19.11,20.50 19.19,21.01 19.10,21.52 19.01,22.03 18.77,22.48 18.53,22.94 18.53,22.94 18.53,22.94 16.86,24.97 15.20,26.99 13.60,27.75 12.01,28.50 10.86,28.64 9.71,28.78 8.02,28.34 6.33,27.90 4.54,26.77 2.75,25.65 2.19,24.70 1.63,23.76 1.58,22.08 1.52,20.40 1.57,19.32 1.61,18.23 1.52,16.37 1.43,14.50 1.36,12.81 1.29,11.12 1.29,9.85 1.29,8.58 1.22,6.95 1.15,5.32 1.12,4.08 1.08,2.84 1.14,2.50 1.20,2.16 1.35,1.84 1.49,1.52 1.70,1.25 1.91,0.97 2.19,0.76 2.46,0.54 2.78,0.40 3.09,0.26 3.44,0.19 3.78,0.13 4.12,0.15 4.47,0.17 4.80,0.27 5.14,0.37 5.43,0.55 5.73,0.73 5.98,0.98 6.23,1.22 6.41,1.52 6.59,1.81 6.69,2.15 6.80,2.48 6.82,2.82 6.84,3.17 6.79,3.85 6.73,4.54 6.46,6.53 6.19,8.53 5.94,9.58 5.69,10.62 5.64,11.70 5.60,12.79 5.53,13.98 5.47,15.17 5.33,16.69 5.20,18.20 4.84,19.57 4.48,20.93 3.91,22.16 3.35,23.39 2.49,25.38 1.63,27.37 0.26,28.75 -1.10,30.13 -2.81,30.57 -4.52,31.00 -6.42,30.29 -8.31,29.59 -9.48,28.85 -10.65,28.12 -11.69,27.32 -12.72,26.51 -13.60,25.31 -14.49,24.10 -14.76,22.69 -15.03,21.27 -14.93,20.11 -14.82,18.96 -14.82,16.89 -14.81,14.83 -14.70,12.59 -14.60,10.34 -14.11,8.78 -13.62,7.23 -12.68,5.05 -11.74,2.87 -9.84,1.06 -7.93,-0.73 -6.86,-1.18 -5.79,-1.63 -4.34,-1.91 -2.88,-2.18 -1.44,-2.14 0,-2.11 0.25,-2.08 0.50,-2.05 0.74,-1.96 0.98,-1.87 1.19,-1.72 1.40,-1.58 1.57,-1.39 1.74,-1.20 1.86,-0.97 1.97,-0.75 2.03,-0.50 2.10,-0.25 2.10,0.00 2.10,0.25 2.03,0.50 1.97,0.75 1.86,0.97 1.74,1.20 1.57,1.39 1.40,1.58 1.19,1.72 0.98,1.87 0.74,1.96 0.50,2.05 0.25,2.08 -0.00,2.11 -0.00,2.11 L 0,2.11 Z"></path></g><g transform="translate(10 74.6407519201758) rotate(0 22 -5)" stroke="none"><path fill="#e03131" d="M 0,-2.02 Q 0,-2.02 2.29,-1.92 4.58,-1.83 6.81,-2.31 9.03,-2.79 11.52,-3.28 14.01,-3.76 15.79,-4.50 17.58,-5.23 19.26,-5.91 20.95,-6.59 22.34,-6.98 23.73,-7.37 25.39,-7.79 27.06,-8.20 28.75,-8.43 30.44,-8.66 31.51,-9.05 32.58,-9.44 34.52,-9.84 36.47,-10.23 38.30,-10.35 40.13,-10.46 41.44,-11.37 42.75,-12.29 43.14,-12.43 43.54,-12.57 43.97,-12.57 44.39,-12.57 44.79,-12.44 45.19,-12.31 45.53,-12.06 45.87,-11.81 46.11,-11.46 46.35,-11.12 46.47,-10.71 46.59,-10.31 46.57,-9.88 46.55,-9.46 46.40,-9.07 46.25,-8.68 45.98,-8.35 45.71,-8.03 45.35,-7.80 44.99,-7.58 44.58,-7.49 44.17,-7.39 43.75,-7.43 43.33,-7.47 42.94,-7.65 42.56,-7.82 42.25,-8.11 41.94,-8.39 41.73,-8.76 41.53,-9.13 41.46,-9.55 41.39,-9.97 41.45,-10.38 41.51,-10.80 41.71,-11.18 41.90,-11.55 42.20,-11.84 42.51,-12.14 42.89,-12.32 43.27,-12.50 43.69,-12.55 44.11,-12.60 44.52,-12.52 44.93,-12.43 45.30,-12.22 45.66,-12.00 45.94,-11.68 46.22,-11.37 46.38,-10.97 46.54,-10.58 46.56,-10.16 46.59,-9.74 46.48,-9.33 46.38,-8.93 46.14,-8.57 45.91,-8.22 45.58,-7.96 45.24,-7.70 45.24,-7.70 45.24,-7.70 42.85,-6.60 40.46,-5.49 38.63,-5.53 36.80,-5.57 35.26,-5.52 33.72,-5.48 32.29,-5.16 30.87,-4.83 29.39,-4.71 27.91,-4.60 26.19,-4.21 24.46,-3.83 23.27,-3.68 22.09,-3.54 20.43,-2.97 18.77,-2.39 16.73,-1.52 14.69,-0.66 12.26,-0.08 9.82,0.49 7.21,1.16 4.61,1.83 2.30,1.92 0,2.02 -0.24,1.99 -0.48,1.96 -0.71,1.87 -0.93,1.79 -1.14,1.65 -1.34,1.51 -1.50,1.33 -1.66,1.14 -1.77,0.93 -1.89,0.71 -1.94,0.48 -2.00,0.24 -2.00,-0.00 -2.00,-0.24 -1.94,-0.48 -1.89,-0.71 -1.77,-0.93 -1.66,-1.14 -1.50,-1.33 -1.34,-1.51 -1.14,-1.65 -0.93,-1.79 -0.71,-1.87 -0.48,-1.96 -0.24,-1.99 0.00,-2.02 0.00,-2.02 L 0,-2.02 Z"></path></g><g transform="translate(46 59.6407519201758) rotate(0 6.5 5)" stroke="none"><path fill="#e03131" d="M 0.82,-2.47 Q 0.82,-2.47 2.52,-1.81 4.21,-1.16 5.76,-0.95 7.31,-0.74 8.47,-0.37 9.63,-0.00 11.12,0.52 12.60,1.05 13.67,3.54 14.73,6.03 13.78,7.26 12.83,8.49 11.85,9.51 10.86,10.53 9.38,11.52 7.90,12.52 7.45,12.76 6.99,12.99 6.49,13.07 5.98,13.16 5.48,13.07 4.97,12.99 4.52,12.74 4.07,12.50 3.72,12.13 3.37,11.76 3.16,11.29 2.95,10.83 2.89,10.32 2.84,9.81 2.95,9.31 3.06,8.81 3.33,8.38 3.59,7.94 3.99,7.61 4.38,7.28 4.85,7.09 5.33,6.91 5.84,6.88 6.35,6.85 6.84,6.99 7.33,7.13 7.76,7.42 8.18,7.71 8.49,8.12 8.79,8.53 8.95,9.01 9.12,9.50 9.11,10.01 9.11,10.52 8.95,11.00 8.78,11.49 8.47,11.89 8.16,12.30 7.74,12.58 7.31,12.87 6.82,13.00 6.32,13.14 5.81,13.11 5.30,13.08 4.83,12.89 4.35,12.70 3.97,12.36 3.58,12.03 3.32,11.59 3.05,11.15 2.95,10.65 2.84,10.15 2.90,9.65 2.95,9.14 3.17,8.67 3.39,8.21 3.74,7.84 4.09,7.47 4.09,7.47 4.09,7.47 5.35,6.74 6.60,6.00 7.61,5.05 8.61,4.10 9.60,3.51 10.59,2.92 10.15,4.42 9.70,5.91 8.73,5.47 7.75,5.02 6.32,4.55 4.90,4.09 3.79,3.77 2.68,3.46 0.92,2.96 -0.82,2.47 -1.10,2.33 -1.39,2.20 -1.63,2.00 -1.87,1.80 -2.06,1.55 -2.25,1.30 -2.37,1.01 -2.50,0.72 -2.55,0.41 -2.60,0.10 -2.57,-0.20 -2.55,-0.52 -2.45,-0.81 -2.35,-1.11 -2.18,-1.38 -2.01,-1.64 -1.79,-1.86 -1.56,-2.08 -1.29,-2.23 -1.02,-2.39 -0.72,-2.48 -0.41,-2.57 -0.10,-2.58 0.20,-2.59 0.51,-2.53 0.82,-2.47 0.82,-2.47 L 0.82,-2.47 Z"></path></g><g transform="translate(109 130.6407519201758) rotate(0 8 10.5)" stroke="none"><path fill="#2f9e44" d="M 1.98,1.48 Q 1.98,1.48 1.12,2.63 0.26,3.77 -0.35,5.30 -0.97,6.83 -1.51,8.53 -2.05,10.24 -2.20,11.87 -2.36,13.50 -2.12,15.50 -1.89,17.51 -0.80,17.79 0.28,18.07 1.53,18.49 2.79,18.92 3.29,17.25 3.78,15.59 3.82,14.13 3.85,12.68 3.83,11.42 3.81,10.15 3.80,8.57 3.79,6.99 3.95,6.58 4.12,6.17 3.84,5.89 3.56,5.61 3.35,5.26 3.14,4.92 3.03,4.54 2.91,4.16 2.88,3.76 2.86,3.36 2.93,2.96 3.01,2.57 3.17,2.20 3.34,1.84 3.58,1.52 3.83,1.21 4.15,0.96 4.46,0.72 4.83,0.55 5.19,0.39 5.59,0.32 5.98,0.25 6.38,0.27 6.78,0.30 7.16,0.42 7.54,0.54 7.89,0.74 8.23,0.95 8.79,3.01 9.35,5.07 10.22,6.34 11.09,7.61 11.83,8.73 12.56,9.85 13.82,10.70 15.07,11.55 16.51,11.15 17.96,10.75 19.48,10.74 21.01,10.74 21.53,10.82 22.05,10.91 22.51,11.16 22.98,11.41 23.34,11.79 23.70,12.18 23.92,12.66 24.14,13.14 24.19,13.66 24.25,14.18 24.13,14.70 24.02,15.21 23.74,15.66 23.47,16.11 23.07,16.45 22.66,16.79 22.17,16.99 21.68,17.18 21.16,17.21 20.63,17.23 20.12,17.09 19.61,16.95 19.18,16.65 18.74,16.35 18.43,15.93 18.11,15.51 17.94,15.01 17.78,14.51 17.78,13.98 17.78,13.45 17.95,12.96 18.12,12.46 18.44,12.04 18.76,11.62 19.20,11.33 19.64,11.03 20.15,10.89 20.66,10.75 21.18,10.78 21.71,10.82 22.20,11.01 22.69,11.21 23.09,11.55 23.49,11.90 23.76,12.35 24.03,12.80 24.14,13.32 24.25,13.83 24.19,14.36 24.13,14.88 23.91,15.36 23.68,15.84 23.32,16.22 22.96,16.60 22.49,16.84 22.02,17.09 21.50,17.17 20.98,17.25 20.98,17.25 20.98,17.25 18.67,17.21 16.35,17.16 14.30,16.95 12.26,16.75 10.82,15.83 9.39,14.91 7.94,13.31 6.50,11.71 5.40,10.38 4.29,9.04 4.21,7.61 4.12,6.17 3.84,5.89 3.56,5.61 3.35,5.26 3.14,4.92 3.03,4.54 2.91,4.16 2.88,3.76 2.86,3.36 2.93,2.96 3.01,2.57 3.17,2.20 3.34,1.84 3.58,1.52 3.83,1.21 4.15,0.96 4.46,0.72 4.83,0.55 5.19,0.39 5.59,0.32 5.98,0.25 6.38,0.27 6.78,0.30 7.16,0.42 7.54,0.54 7.89,0.74 8.23,0.95 8.44,1.48 8.65,2.01 9.44,3.93 10.23,5.85 10.20,7.10 10.17,8.35 10.16,10.07 10.14,11.80 10.08,12.92 10.01,14.04 9.79,15.52 9.58,17.00 9.30,18.03 9.03,19.05 8.29,20.93 7.56,22.81 6.26,23.71 4.95,24.62 3.15,24.61 1.35,24.60 -0.23,23.95 -1.82,23.30 -3.19,22.35 -4.56,21.39 -5.49,20.25 -6.42,19.12 -6.64,17.82 -6.85,16.51 -7.12,14.90 -7.38,13.29 -7.36,11.39 -7.34,9.50 -6.95,7.53 -6.57,5.56 -5.67,4.15 -4.78,2.75 -4.25,1.78 -3.71,0.82 -2.84,-0.33 -1.98,-1.48 -1.77,-1.70 -1.57,-1.92 -1.31,-2.08 -1.06,-2.24 -0.78,-2.33 -0.49,-2.43 -0.20,-2.45 0.09,-2.48 0.39,-2.43 0.68,-2.38 0.96,-2.26 1.23,-2.15 1.47,-1.97 1.71,-1.79 1.90,-1.56 2.09,-1.32 2.22,-1.05 2.35,-0.78 2.41,-0.49 2.47,-0.20 2.46,0.09 2.45,0.39 2.36,0.68 2.28,0.97 2.13,1.23 1.98,1.48 1.98,1.48 L 1.98,1.48 Z"></path></g><g transform="translate(96 133.6407519201758) rotate(0 11 -6)" stroke="none"><path fill="#2f9e44" d="M -0.84,-1.89 Q -0.84,-1.89 1.78,-2.95 4.41,-4.01 6.59,-5.24 8.78,-6.48 10.95,-7.59 13.11,-8.71 14.85,-9.74 16.59,-10.76 18.94,-12.18 21.30,-13.60 21.58,-13.67 21.85,-13.74 22.13,-13.72 22.41,-13.69 22.67,-13.58 22.94,-13.47 23.15,-13.28 23.36,-13.09 23.50,-12.85 23.64,-12.60 23.69,-12.32 23.74,-12.05 23.71,-11.76 23.67,-11.48 23.54,-11.23 23.42,-10.98 23.22,-10.78 23.02,-10.58 22.76,-10.45 22.51,-10.32 22.23,-10.28 21.95,-10.25 21.67,-10.30 21.39,-10.35 21.15,-10.49 20.90,-10.63 20.71,-10.84 20.52,-11.05 20.41,-11.31 20.30,-11.57 20.27,-11.85 20.25,-12.13 20.32,-12.41 20.39,-12.68 20.54,-12.92 20.69,-13.16 20.91,-13.34 21.13,-13.52 21.40,-13.62 21.66,-13.71 21.95,-13.72 22.23,-13.73 22.50,-13.65 22.77,-13.56 23.00,-13.40 23.23,-13.23 23.40,-13.00 23.56,-12.77 23.65,-12.50 23.73,-12.23 23.72,-11.95 23.71,-11.67 23.62,-11.40 23.52,-11.14 23.34,-10.91 23.17,-10.69 22.93,-10.54 22.69,-10.39 22.69,-10.39 22.69,-10.39 20.45,-9.24 18.21,-8.08 16.43,-6.98 14.65,-5.88 12.61,-4.70 10.56,-3.52 8.24,-2.05 5.93,-0.58 3.39,0.65 0.84,1.89 0.60,1.97 0.36,2.04 0.11,2.05 -0.13,2.07 -0.38,2.02 -0.62,1.98 -0.85,1.87 -1.08,1.77 -1.27,1.61 -1.47,1.46 -1.62,1.26 -1.78,1.06 -1.88,0.83 -1.98,0.60 -2.03,0.36 -2.07,0.11 -2.05,-0.13 -2.04,-0.38 -1.96,-0.62 -1.89,-0.86 -1.76,-1.07 -1.62,-1.28 -1.45,-1.46 -1.27,-1.64 -1.05,-1.77 -0.84,-1.89 -0.84,-1.89 L -0.84,-1.89 Z"></path></g><g transform="translate(114 117.6407519201758) rotate(0 8 3.5)" stroke="none"><path fill="#2f9e44" d="M 0,-2.44 Q 0,-2.44 1.72,-2.39 3.44,-2.34 5.04,-2.33 6.64,-2.31 8.46,-2.26 10.29,-2.20 11.93,-2.48 13.57,-2.76 13.83,-2.72 14.09,-2.69 14.34,-2.60 14.59,-2.51 14.80,-2.36 15.02,-2.21 15.20,-2.01 15.37,-1.81 15.49,-1.58 15.62,-1.35 15.68,-1.09 15.74,-0.83 15.74,-0.57 15.74,-0.31 15.68,-0.05 15.62,0.20 15.49,0.43 15.37,0.66 15.20,0.86 15.02,1.06 14.80,1.21 14.59,1.36 14.34,1.45 14.09,1.54 13.83,1.57 13.57,1.61 14.85,1.43 16.12,1.25 15.92,2.65 15.71,4.05 15.09,6.31 14.46,8.56 14.30,8.94 14.15,9.32 13.88,9.63 13.61,9.94 13.26,10.15 12.91,10.35 12.51,10.44 12.11,10.52 11.70,10.47 11.29,10.43 10.92,10.25 10.55,10.07 10.26,9.79 9.97,9.51 9.78,9.14 9.59,8.78 9.53,8.37 9.47,7.97 9.54,7.57 9.61,7.16 9.80,6.80 10.00,6.44 10.30,6.17 10.60,5.89 10.97,5.72 11.34,5.55 11.75,5.51 12.16,5.47 12.56,5.56 12.95,5.65 13.30,5.87 13.65,6.08 13.91,6.40 14.18,6.71 14.32,7.09 14.47,7.48 14.49,7.89 14.51,8.29 14.39,8.69 14.28,9.08 14.05,9.42 13.81,9.75 13.49,10.00 13.16,10.24 12.77,10.37 12.38,10.50 11.97,10.49 11.56,10.49 11.17,10.35 10.79,10.22 10.46,9.97 10.14,9.72 9.91,9.37 9.69,9.03 9.58,8.64 9.48,8.24 9.50,7.83 9.53,7.43 9.53,7.43 9.53,7.43 10.52,4.56 11.51,1.70 12.54,-0.52 13.57,-2.76 13.83,-2.72 14.09,-2.69 14.34,-2.60 14.59,-2.51 14.80,-2.36 15.02,-2.21 15.20,-2.01 15.37,-1.81 15.49,-1.58 15.62,-1.35 15.68,-1.09 15.74,-0.83 15.74,-0.57 15.74,-0.31 15.68,-0.05 15.62,0.20 15.49,0.43 15.37,0.66 15.20,0.86 15.02,1.06 14.80,1.21 14.59,1.36 14.34,1.45 14.09,1.54 13.83,1.57 13.57,1.61 11.93,1.90 10.30,2.20 8.47,2.26 6.64,2.31 5.04,2.33 3.44,2.34 1.72,2.39 0,2.44 -0.29,2.40 -0.58,2.36 -0.85,2.26 -1.13,2.16 -1.37,1.99 -1.61,1.82 -1.81,1.60 -2.00,1.38 -2.14,1.12 -2.28,0.86 -2.35,0.57 -2.42,0.29 -2.42,-0.00 -2.42,-0.29 -2.35,-0.57 -2.28,-0.86 -2.14,-1.12 -2.00,-1.38 -1.81,-1.60 -1.61,-1.82 -1.37,-1.99 -1.13,-2.16 -0.85,-2.26 -0.58,-2.36 -0.29,-2.40 0.00,-2.44 0.00,-2.44 L 0,-2.44 Z"></path></g><g transform="translate(136 132.6407519201758) rotate(0 12.5 -6.5)" stroke="none"><path fill="#2f9e44" d="M -0.54,-1.89 Q -0.54,-1.89 1.48,-2.39 3.51,-2.89 5.37,-3.86 7.22,-4.83 11.61,-6.72 15.99,-8.62 18.02,-9.91 20.04,-11.21 22.00,-12.80 23.96,-14.39 24.21,-14.52 24.46,-14.65 24.74,-14.69 25.02,-14.73 25.30,-14.68 25.57,-14.63 25.82,-14.50 26.06,-14.36 26.25,-14.15 26.44,-13.95 26.56,-13.69 26.67,-13.44 26.70,-13.16 26.73,-12.88 26.66,-12.60 26.60,-12.33 26.45,-12.09 26.30,-11.85 26.08,-11.67 25.87,-11.50 25.61,-11.40 25.34,-11.30 25.06,-11.28 24.78,-11.27 24.51,-11.35 24.24,-11.43 24.01,-11.59 23.78,-11.75 23.62,-11.98 23.45,-12.20 23.37,-12.47 23.28,-12.74 23.28,-13.02 23.29,-13.30 23.38,-13.56 23.47,-13.83 23.65,-14.05 23.82,-14.27 24.05,-14.43 24.29,-14.58 24.56,-14.65 24.83,-14.72 25.11,-14.70 25.39,-14.68 25.65,-14.58 25.91,-14.47 26.12,-14.28 26.33,-14.10 26.47,-13.86 26.62,-13.61 26.67,-13.34 26.73,-13.06 26.69,-12.79 26.66,-12.51 26.54,-12.25 26.42,-12.00 26.22,-11.80 26.03,-11.60 26.03,-11.60 26.03,-11.60 23.86,-10.14 21.69,-8.69 19.49,-7.21 17.28,-5.73 13.06,-3.81 8.84,-1.89 6.68,-0.65 4.53,0.59 2.53,1.24 0.54,1.89 0.30,1.93 0.07,1.97 -0.16,1.95 -0.40,1.93 -0.62,1.85 -0.85,1.78 -1.05,1.65 -1.25,1.52 -1.41,1.35 -1.58,1.18 -1.70,0.97 -1.81,0.76 -1.88,0.53 -1.94,0.30 -1.95,0.07 -1.96,-0.16 -1.91,-0.39 -1.87,-0.63 -1.76,-0.84 -1.66,-1.06 -1.51,-1.24 -1.36,-1.42 -1.17,-1.57 -0.98,-1.71 -0.76,-1.80 -0.54,-1.89 -0.54,-1.89 L -0.54,-1.89 Z"></path></g><g transform="translate(149 115.6407519201758) rotate(0 3 12.5)" stroke="none"><path fill="#2f9e44" d="M 1.98,0.33 Q 1.98,0.33 1.68,2.01 1.39,3.69 1.83,4.89 2.27,6.08 2.94,8.48 3.61,10.88 4.42,13.01 5.23,15.14 6.13,17.20 7.02,19.27 7.88,21.89 8.73,24.51 8.76,24.80 8.80,25.09 8.73,25.37 8.67,25.66 8.52,25.91 8.37,26.16 8.15,26.35 7.93,26.54 7.66,26.65 7.39,26.76 7.09,26.77 6.80,26.79 6.52,26.71 6.24,26.63 6.00,26.47 5.76,26.31 5.58,26.07 5.40,25.84 5.31,25.57 5.22,25.29 5.22,25.00 5.21,24.71 5.31,24.43 5.40,24.15 5.58,23.92 5.75,23.69 5.99,23.52 6.24,23.36 6.52,23.28 6.80,23.20 7.09,23.22 7.38,23.23 7.65,23.34 7.92,23.45 8.14,23.64 8.37,23.83 8.52,24.08 8.67,24.32 8.73,24.61 8.80,24.89 8.76,25.18 8.73,25.47 8.61,25.74 8.49,26.00 8.29,26.22 8.09,26.43 7.83,26.57 7.57,26.70 7.29,26.75 7.00,26.80 6.71,26.75 6.42,26.70 6.16,26.57 5.91,26.43 5.70,26.22 5.50,26.01 5.38,25.74 5.26,25.48 5.26,25.48 5.26,25.48 4.70,23.04 4.13,20.60 3.12,18.51 2.10,16.43 1.11,14.22 0.11,12.00 -0.74,9.60 -1.61,7.19 -2.07,5.19 -2.54,3.20 -2.26,1.43 -1.98,-0.33 -1.91,-0.56 -1.84,-0.79 -1.72,-1.00 -1.60,-1.21 -1.43,-1.38 -1.26,-1.56 -1.05,-1.68 -0.85,-1.81 -0.62,-1.89 -0.39,-1.96 -0.15,-1.98 0.08,-2.00 0.32,-1.96 0.56,-1.92 0.78,-1.83 1.01,-1.73 1.20,-1.58 1.39,-1.44 1.54,-1.25 1.70,-1.06 1.80,-0.84 1.90,-0.62 1.95,-0.39 2.00,-0.15 1.99,0.08 1.98,0.33 1.98,0.33 L 1.98,0.33 Z"></path></g><g transform="translate(175 99.6407519201758) rotate(0 11 15.5)" stroke="none"><path fill="#2f9e44" d="M 1.97,-0.82 Q 1.97,-0.82 3.31,2.66 4.65,6.16 6.05,9.97 7.46,13.79 8.86,16.79 10.27,19.78 11.19,22.62 12.10,25.46 12.52,26.58 12.93,27.70 11.87,28.19 10.80,28.67 10.80,26.69 10.80,24.71 10.70,23.02 10.60,21.33 10.51,20.06 10.41,18.79 10.73,17.55 11.05,16.31 11.88,14.87 12.70,13.43 13.57,12.54 14.45,11.65 15.76,11.14 17.06,10.62 18.94,10.55 20.82,10.48 22.14,11.38 23.46,12.28 24.01,13.64 24.56,15.00 24.79,16.48 25.02,17.95 25.04,20.07 25.06,22.19 25.02,23.57 24.98,24.95 24.55,27.16 24.13,29.37 23.05,30.46 21.97,31.54 18.61,32.84 15.25,34.13 14.74,34.09 14.23,34.04 13.77,33.84 13.30,33.64 12.92,33.30 12.54,32.96 12.29,32.52 12.04,32.08 11.95,31.58 11.85,31.08 11.92,30.57 11.99,30.07 12.22,29.61 12.44,29.16 12.80,28.80 13.16,28.44 13.62,28.21 14.08,27.99 14.58,27.92 15.08,27.85 15.58,27.95 16.08,28.05 16.53,28.30 16.97,28.55 17.31,28.93 17.65,29.31 17.85,29.77 18.05,30.24 18.09,30.75 18.13,31.25 18.00,31.75 17.88,32.24 17.61,32.67 17.33,33.10 16.94,33.42 16.54,33.73 16.06,33.91 15.58,34.08 15.07,34.10 14.57,34.11 14.08,33.96 13.59,33.81 13.18,33.51 12.77,33.21 12.47,32.80 12.18,32.39 12.03,31.90 11.88,31.41 11.89,30.91 11.91,30.40 12.08,29.92 12.26,29.44 12.58,29.05 12.90,28.65 13.33,28.38 13.76,28.11 14.25,27.98 14.74,27.86 14.74,27.86 14.74,27.86 15.78,27.87 16.82,27.88 17.91,26.42 19.00,24.97 18.96,23.60 18.91,22.23 18.88,20.31 18.85,18.40 19.16,17.18 19.46,15.96 18.35,16.05 17.23,16.14 16.40,17.52 15.57,18.90 15.47,20.14 15.36,21.38 15.20,23.13 15.03,24.89 14.68,27.05 14.33,29.20 12.69,29.61 11.05,30.01 10.11,28.23 9.17,26.46 8.24,23.84 7.32,21.22 5.75,18.15 4.18,15.07 2.64,11.35 1.09,7.63 -0.43,4.23 -1.97,0.82 -2.04,0.57 -2.11,0.32 -2.12,0.06 -2.13,-0.18 -2.08,-0.44 -2.02,-0.69 -1.91,-0.92 -1.80,-1.16 -1.63,-1.35 -1.47,-1.55 -1.26,-1.71 -1.05,-1.86 -0.81,-1.96 -0.57,-2.06 -0.32,-2.10 -0.06,-2.14 0.18,-2.11 0.44,-2.09 0.69,-2.01 0.93,-1.92 1.15,-1.78 1.36,-1.64 1.54,-1.46 1.72,-1.27 1.85,-1.04 1.97,-0.82 1.97,-0.82 L 1.97,-0.82 Z"></path></g><g transform="translate(169 106.6407519201758) rotate(0 8 -4.5)" stroke="none"><path fill="#2f9e44" d="M -1.60,-2.00 Q -1.60,-2.00 -0.11,-3.08 1.37,-4.17 2.65,-5.02 3.92,-5.87 5.05,-6.55 6.17,-7.23 7.66,-8.18 9.15,-9.13 10.81,-9.84 12.48,-10.55 13.65,-11.12 14.82,-11.68 15.28,-11.80 15.74,-11.91 16.21,-11.88 16.68,-11.84 17.12,-11.66 17.56,-11.48 17.91,-11.16 18.27,-10.85 18.50,-10.44 18.74,-10.03 18.83,-9.56 18.92,-9.10 18.86,-8.63 18.80,-8.15 18.60,-7.73 18.39,-7.30 18.05,-6.96 17.72,-6.63 17.30,-6.41 16.88,-6.20 16.41,-6.13 15.94,-6.06 15.47,-6.15 15.00,-6.24 14.59,-6.47 14.17,-6.70 13.86,-7.05 13.54,-7.40 13.35,-7.83 13.16,-8.27 13.11,-8.74 13.07,-9.21 13.18,-9.67 13.29,-10.13 13.55,-10.54 13.80,-10.94 14.17,-11.24 14.53,-11.54 14.98,-11.70 15.42,-11.87 15.90,-11.89 16.37,-11.90 16.82,-11.77 17.28,-11.63 17.67,-11.36 18.05,-11.08 18.33,-10.70 18.61,-10.32 18.75,-9.86 18.90,-9.41 18.89,-8.94 18.88,-8.46 18.72,-8.02 18.56,-7.57 18.26,-7.20 17.97,-6.83 17.57,-6.57 17.17,-6.31 17.17,-6.31 17.17,-6.31 15.44,-5.72 13.70,-5.12 12.37,-4.65 11.05,-4.17 9.84,-3.55 8.63,-2.94 7.60,-2.38 6.56,-1.83 5.47,-1.12 4.37,-0.42 2.98,0.78 1.60,2.00 1.34,2.16 1.07,2.33 0.78,2.42 0.48,2.52 0.17,2.54 -0.12,2.56 -0.43,2.51 -0.73,2.45 -1.02,2.33 -1.30,2.21 -1.55,2.02 -1.79,1.83 -1.99,1.59 -2.18,1.35 -2.31,1.06 -2.44,0.78 -2.50,0.48 -2.56,0.18 -2.54,-0.12 -2.53,-0.43 -2.44,-0.73 -2.35,-1.03 -2.19,-1.29 -2.03,-1.56 -1.82,-1.78 -1.60,-2.00 -1.60,-2.00 L -1.60,-2.00 Z"></path></g><g transform="translate(187 91.6407519201758) rotate(0 5 4)" stroke="none"><path fill="#2f9e44" d="M 0.98,-2.45 Q 0.98,-2.45 2.40,-1.84 3.82,-1.23 5.12,-1.04 6.42,-0.85 7.88,-0.89 9.34,-0.93 9.69,-0.88 10.04,-0.82 10.36,-0.69 10.69,-0.55 10.97,-0.34 11.26,-0.13 11.48,0.13 11.71,0.41 11.86,0.72 12.01,1.04 12.08,1.39 12.16,1.73 12.14,2.09 12.13,2.44 12.03,2.78 11.94,3.12 11.76,3.43 11.59,3.73 11.34,3.99 11.10,4.24 10.80,4.43 10.51,4.62 10.17,4.74 9.84,4.85 9.48,4.88 9.13,4.91 8.64,6.10 8.14,7.28 7.23,8.64 6.32,10.01 5.94,10.33 5.56,10.65 5.09,10.83 4.63,11.01 4.13,11.03 3.64,11.05 3.16,10.91 2.68,10.78 2.27,10.49 1.86,10.21 1.56,9.81 1.26,9.41 1.11,8.94 0.95,8.47 0.96,7.97 0.96,7.47 1.13,7.00 1.29,6.53 1.59,6.14 1.90,5.74 2.31,5.47 2.73,5.19 3.21,5.06 3.69,4.93 4.19,4.96 4.68,5.00 5.14,5.18 5.60,5.37 5.98,5.70 6.36,6.02 6.61,6.45 6.86,6.88 6.97,7.37 7.07,7.86 7.01,8.35 6.95,8.84 6.74,9.29 6.53,9.74 6.18,10.10 5.83,10.46 5.39,10.69 4.95,10.92 4.46,11.00 3.97,11.07 3.48,10.99 2.99,10.90 2.55,10.66 2.11,10.43 1.77,10.06 1.43,9.70 1.23,9.24 1.02,8.79 0.97,8.30 0.92,7.80 1.04,7.32 1.15,6.83 1.41,6.41 1.67,5.98 1.67,5.98 1.67,5.98 3.85,3.79 6.03,1.60 7.69,0.33 9.34,-0.93 9.69,-0.88 10.04,-0.82 10.36,-0.69 10.69,-0.55 10.97,-0.34 11.26,-0.13 11.48,0.13 11.70,0.40 11.86,0.72 12.01,1.04 12.08,1.39 12.16,1.73 12.14,2.09 12.13,2.44 12.03,2.78 11.94,3.12 11.76,3.42 11.59,3.73 11.34,3.99 11.10,4.24 10.80,4.43 10.51,4.62 10.17,4.74 9.84,4.85 9.48,4.88 9.13,4.91 8.03,4.82 6.93,4.73 5.45,4.46 3.97,4.19 2.94,3.86 1.92,3.53 0.47,2.99 -0.98,2.45 -1.25,2.29 -1.53,2.14 -1.77,1.93 -2.00,1.71 -2.18,1.44 -2.35,1.18 -2.46,0.88 -2.57,0.58 -2.60,0.26 -2.63,-0.04 -2.59,-0.36 -2.55,-0.67 -2.43,-0.97 -2.31,-1.26 -2.12,-1.52 -1.94,-1.78 -1.70,-1.99 -1.46,-2.19 -1.17,-2.34 -0.89,-2.48 -0.58,-2.55 -0.27,-2.62 0.04,-2.62 0.36,-2.61 0.67,-2.53 0.98,-2.45 0.98,-2.45 L 0.98,-2.45 Z"></path></g><g transform="translate(319 112.6407519201758) rotate(0 -4 -1)" stroke="none"><path fill="#2f9e44" d="M -1.11,2.22 Q -1.11,2.22 -2.26,1.66 -3.42,1.10 -5.78,0.90 -8.14,0.69 -8.56,0.60 -8.99,0.51 -9.37,0.28 -9.74,0.06 -10.02,-0.27 -10.31,-0.60 -10.47,-1.00 -10.63,-1.41 -10.66,-1.85 -10.68,-2.28 -10.56,-2.70 -10.45,-3.13 -10.20,-3.49 -9.96,-3.85 -9.61,-4.11 -9.26,-4.38 -8.85,-4.52 -8.44,-4.66 -8.00,-4.66 -7.56,-4.66 -7.15,-4.52 -6.73,-4.38 -6.39,-4.12 -6.04,-3.86 -5.79,-3.49 -5.55,-3.13 -5.43,-2.71 -5.31,-2.29 -5.33,-1.85 -5.36,-1.42 -5.52,-1.01 -5.68,-0.61 -5.96,-0.27 -6.24,0.05 -6.62,0.28 -6.99,0.50 -7.42,0.60 -7.85,0.69 -8.28,0.64 -8.71,0.60 -9.11,0.42 -9.51,0.23 -9.83,-0.06 -10.14,-0.36 -10.35,-0.74 -10.55,-1.13 -10.62,-1.56 -10.70,-1.99 -10.63,-2.42 -10.56,-2.85 -10.35,-3.24 -10.15,-3.63 -9.83,-3.93 -9.51,-4.23 -9.12,-4.41 -8.72,-4.60 -8.29,-4.64 -7.85,-4.69 -7.85,-4.69 -7.85,-4.69 -4.51,-4.05 -1.17,-3.40 -0.03,-2.81 1.11,-2.22 1.36,-2.06 1.61,-1.89 1.81,-1.67 2.01,-1.45 2.16,-1.19 2.30,-0.92 2.38,-0.63 2.46,-0.34 2.47,-0.04 2.47,0.25 2.40,0.54 2.34,0.83 2.20,1.10 2.07,1.37 1.88,1.60 1.68,1.83 1.44,2.00 1.19,2.18 0.92,2.29 0.64,2.40 0.34,2.44 0.04,2.48 -0.24,2.45 -0.54,2.42 -0.83,2.32 -1.11,2.22 -1.11,2.22 L -1.11,2.22 Z"></path></g><g transform="translate(320 114.6407519201758) rotate(0 -7.5 3.5)" stroke="none"><path fill="#f08c00" d="M -1.88,1.88 Q -1.88,1.88 -2.74,1.03 -3.60,0.19 -5.69,-0.41 -7.79,-1.02 -8.85,-1.41 -9.90,-1.81 -11.12,-1.82 -12.33,-1.82 -13.49,0.02 -14.64,1.86 -14.62,3.37 -14.59,4.87 -13.60,5.63 -12.61,6.38 -11.63,6.94 -10.65,7.50 -9.56,5.91 -8.47,4.32 -7.86,3.00 -7.25,1.68 -6.49,0.81 -5.73,-0.05 -5.68,1.54 -5.62,3.14 -6.23,1.58 -6.85,0.02 -6.65,-0.33 -6.46,-0.69 -6.19,-1.00 -5.91,-1.30 -5.57,-1.53 -5.23,-1.77 -4.85,-1.91 -4.46,-2.05 -4.06,-2.10 -3.65,-2.15 -3.24,-2.09 -2.83,-2.04 -2.45,-1.89 -2.07,-1.75 -1.73,-1.51 -1.39,-1.28 -1.12,-0.97 -0.85,-0.66 -0.66,-0.29 -0.48,0.06 -0.38,0.46 -0.28,0.86 -0.29,1.27 -0.29,1.68 -0.39,2.08 -0.49,2.48 -0.54,4.09 -0.59,5.71 -0.62,6.84 -0.64,7.97 1.63,8.30 3.90,8.64 4.41,8.88 4.92,9.11 5.33,9.49 5.74,9.87 6.01,10.37 6.28,10.86 6.37,11.42 6.47,11.97 6.38,12.53 6.29,13.08 6.03,13.58 5.77,14.08 5.37,14.47 4.96,14.85 4.46,15.09 3.95,15.33 3.39,15.40 2.83,15.46 2.28,15.35 1.73,15.23 1.25,14.94 0.77,14.66 0.40,14.23 0.03,13.81 -0.17,13.29 -0.38,12.76 -0.41,12.20 -0.45,11.64 -0.30,11.10 -0.16,10.56 0.15,10.09 0.46,9.62 0.90,9.28 1.35,8.94 1.88,8.76 2.41,8.57 2.97,8.57 3.53,8.57 4.07,8.74 4.60,8.92 5.05,9.25 5.50,9.59 5.82,10.05 6.14,10.52 6.29,11.06 6.44,11.60 6.42,12.16 6.39,12.72 6.19,13.24 5.98,13.76 5.62,14.20 5.26,14.63 4.78,14.92 4.30,15.21 3.75,15.34 3.21,15.46 2.65,15.40 2.09,15.35 2.09,15.35 2.09,15.35 0.14,14.69 -1.80,14.03 -3.04,13.34 -4.27,12.66 -5.24,11.85 -6.21,11.05 -6.79,9.00 -7.37,6.96 -7.35,5.31 -7.33,3.66 -7.09,1.84 -6.85,0.02 -6.65,-0.33 -6.46,-0.69 -6.19,-1.00 -5.91,-1.30 -5.57,-1.53 -5.23,-1.77 -4.85,-1.91 -4.46,-2.05 -4.06,-2.10 -3.65,-2.15 -3.24,-2.09 -2.83,-2.04 -2.45,-1.89 -2.07,-1.75 -1.73,-1.51 -1.39,-1.28 -1.12,-0.97 -0.85,-0.66 -0.66,-0.29 -0.48,0.06 -0.38,0.46 -0.28,0.86 -0.29,1.27 -0.29,1.68 -0.39,2.08 -0.49,2.48 -0.66,1.26 -0.83,0.05 -1.27,2.92 -1.70,5.79 -2.37,6.94 -3.05,8.10 -3.46,9.48 -3.88,10.87 -4.74,12.02 -5.61,13.17 -6.79,13.81 -7.98,14.45 -10.05,14.43 -12.13,14.41 -13.50,13.75 -14.88,13.10 -16.02,12.43 -17.16,11.76 -18.80,10.26 -20.44,8.75 -20.89,7.49 -21.34,6.23 -21.34,4.66 -21.34,3.08 -21.18,1.73 -21.03,0.37 -20.43,-1.31 -19.84,-3.00 -19.18,-4.42 -18.52,-5.84 -17.70,-6.54 -16.88,-7.24 -15.05,-7.71 -13.21,-8.18 -12.12,-8.12 -11.03,-8.06 -9.63,-7.85 -8.24,-7.65 -6.49,-6.69 -4.75,-5.73 -3.22,-5.30 -1.70,-4.87 -0.77,-4.25 0.15,-3.64 1.01,-2.76 1.88,-1.88 2.08,-1.63 2.28,-1.37 2.41,-1.08 2.54,-0.79 2.60,-0.47 2.66,-0.16 2.64,0.15 2.62,0.48 2.52,0.78 2.43,1.09 2.26,1.36 2.09,1.64 1.87,1.87 1.64,2.09 1.36,2.26 1.09,2.43 0.78,2.52 0.48,2.62 0.15,2.64 -0.16,2.66 -0.47,2.60 -0.79,2.54 -1.08,2.41 -1.37,2.28 -1.63,2.08 -1.88,1.88 -1.88,1.88 L -1.88,1.88 Z"></path></g><g transform="translate(300 98.6407519201758) rotate(0 9.5 3)" stroke="none"><path fill="#f08c00" d="M 0.42,-2.55 Q 0.42,-2.55 2.14,-2.19 3.85,-1.84 5.33,-1.40 6.80,-0.96 8.04,-0.49 9.27,-0.02 10.87,0.55 12.46,1.12 14.10,1.58 15.74,2.04 18.15,2.70 20.56,3.36 20.94,3.68 21.32,4.00 21.58,4.43 21.83,4.85 21.94,5.33 22.05,5.81 22.00,6.31 21.95,6.80 21.74,7.25 21.54,7.70 21.20,8.06 20.86,8.42 20.42,8.66 19.99,8.89 19.50,8.97 19.01,9.06 18.52,8.98 18.03,8.90 17.59,8.67 17.15,8.44 16.81,8.08 16.47,7.72 16.26,7.28 16.05,6.83 15.99,6.34 15.94,5.84 16.04,5.36 16.15,4.87 16.40,4.45 16.65,4.02 17.03,3.70 17.40,3.38 17.86,3.19 18.32,3.01 18.82,2.98 19.31,2.95 19.79,3.08 20.27,3.21 20.68,3.49 21.09,3.76 21.39,4.16 21.69,4.55 21.85,5.02 22.01,5.49 22.02,5.98 22.02,6.48 21.86,6.95 21.71,7.42 21.41,7.81 21.11,8.21 20.70,8.49 20.29,8.77 19.82,8.90 19.34,9.04 18.84,9.01 18.35,8.99 17.89,8.81 17.43,8.62 17.43,8.63 17.43,8.63 16.67,8.27 15.91,7.91 14.34,7.29 12.76,6.68 11.24,6.23 9.71,5.77 8.54,5.21 7.37,4.65 6.35,4.20 5.32,3.75 4.18,3.37 3.04,2.99 1.30,2.77 -0.42,2.55 -0.72,2.46 -1.02,2.37 -1.29,2.21 -1.56,2.06 -1.78,1.84 -2.01,1.62 -2.17,1.36 -2.34,1.09 -2.43,0.80 -2.53,0.50 -2.56,0.19 -2.58,-0.11 -2.53,-0.42 -2.48,-0.72 -2.35,-1.01 -2.23,-1.30 -2.04,-1.55 -1.85,-1.79 -1.61,-1.99 -1.37,-2.19 -1.09,-2.32 -0.80,-2.45 -0.50,-2.51 -0.19,-2.57 0.11,-2.56 0.42,-2.55 0.42,-2.55 L 0.42,-2.55 Z"></path></g><g transform="translate(316 95.6407519201758) rotate(0 9.5 5.5)" stroke="none"><path fill="#f08c00" d="M 0.47,-2.39 Q 0.47,-2.39 1.92,-2.10 3.37,-1.81 5.10,-0.99 6.83,-0.18 8.30,0.12 9.76,0.43 10.86,1.30 11.97,2.17 13.26,2.60 14.55,3.03 16.17,4.18 17.78,5.33 18.78,6.23 19.77,7.12 20.32,8.64 20.87,10.16 20.52,11.26 20.17,12.35 19.24,12.93 18.31,13.51 15.75,13.63 13.19,13.75 11.31,13.80 9.43,13.86 7.57,13.89 5.71,13.92 3.85,13.94 2.00,13.96 1.52,13.89 1.05,13.81 0.62,13.58 0.20,13.36 -0.12,13.01 -0.45,12.66 -0.65,12.23 -0.85,11.79 -0.91,11.31 -0.96,10.83 -0.86,10.37 -0.75,9.90 -0.51,9.49 -0.26,9.07 0.10,8.76 0.46,8.45 0.91,8.27 1.36,8.10 1.84,8.07 2.32,8.04 2.78,8.17 3.24,8.30 3.64,8.57 4.04,8.84 4.33,9.22 4.62,9.60 4.77,10.06 4.92,10.51 4.92,10.99 4.92,11.47 4.77,11.93 4.62,12.39 4.33,12.77 4.04,13.15 3.64,13.42 3.24,13.69 2.78,13.82 2.32,13.95 1.84,13.92 1.36,13.89 0.91,13.72 0.46,13.54 0.10,13.23 -0.26,12.92 -0.50,12.51 -0.75,12.09 -0.86,11.62 -0.96,11.16 -0.91,10.68 -0.86,10.20 -0.65,9.77 -0.45,9.33 -0.12,8.98 0.20,8.63 0.62,8.41 1.05,8.18 1.52,8.10 2.00,8.03 1.99,8.03 1.99,8.03 3.85,8.05 5.71,8.07 7.56,8.09 9.40,8.12 11.26,8.15 13.11,8.19 14.92,8.17 16.72,8.16 15.94,8.88 15.16,9.60 13.04,8.40 10.92,7.20 8.90,6.06 6.88,4.92 5.84,4.52 4.80,4.12 3.59,3.54 2.37,2.96 0.95,2.67 -0.47,2.39 -0.75,2.30 -1.03,2.21 -1.28,2.05 -1.53,1.89 -1.74,1.68 -1.94,1.47 -2.09,1.22 -2.24,0.96 -2.32,0.68 -2.41,0.40 -2.42,0.10 -2.43,-0.18 -2.37,-0.47 -2.32,-0.76 -2.19,-1.03 -2.07,-1.29 -1.88,-1.52 -1.70,-1.75 -1.46,-1.93 -1.23,-2.11 -0.95,-2.22 -0.68,-2.34 -0.39,-2.39 -0.10,-2.44 0.18,-2.41 0.47,-2.39 0.47,-2.39 L 0.47,-2.39 Z"></path></g><g transform="translate(337 120.6407519201758) rotate(0 5.5 2)" stroke="none"><path fill="#f08c00" d="M 0.77,-2.31 Q 0.77,-2.31 2.47,-1.67 4.17,-1.03 5.56,-0.49 6.94,0.04 9.32,0.80 11.70,1.55 12.07,1.73 12.45,1.91 12.74,2.19 13.04,2.48 13.22,2.85 13.41,3.21 13.47,3.62 13.54,4.02 13.47,4.43 13.39,4.83 13.20,5.20 13.00,5.56 12.70,5.84 12.40,6.11 12.02,6.28 11.65,6.45 11.24,6.49 10.83,6.53 10.43,6.44 10.03,6.34 9.68,6.13 9.33,5.91 9.06,5.60 8.80,5.28 8.65,4.90 8.51,4.51 8.49,4.10 8.47,3.69 8.59,3.30 8.70,2.90 8.94,2.56 9.17,2.23 9.50,1.98 9.83,1.74 10.22,1.61 10.61,1.48 11.02,1.49 11.44,1.49 11.82,1.63 12.21,1.76 12.54,2.02 12.86,2.27 13.09,2.61 13.31,2.95 13.42,3.35 13.52,3.75 13.50,4.16 13.47,4.57 13.31,4.95 13.16,5.33 12.89,5.64 12.62,5.95 12.26,6.16 11.91,6.37 11.51,6.45 11.10,6.53 10.69,6.48 10.29,6.44 10.29,6.44 10.29,6.44 7.73,5.41 5.18,4.38 3.95,3.86 2.72,3.33 0.97,2.82 -0.77,2.31 -1.03,2.18 -1.30,2.06 -1.52,1.87 -1.75,1.68 -1.93,1.45 -2.11,1.21 -2.22,0.94 -2.34,0.67 -2.38,0.38 -2.43,0.09 -2.41,-0.19 -2.38,-0.48 -2.29,-0.76 -2.20,-1.04 -2.04,-1.29 -1.88,-1.54 -1.67,-1.74 -1.46,-1.94 -1.21,-2.09 -0.95,-2.24 -0.67,-2.32 -0.39,-2.40 -0.09,-2.41 0.19,-2.43 0.48,-2.37 0.77,-2.31 0.77,-2.31 L 0.77,-2.31 Z"></path></g><g transform="translate(367 119.6407519201758) rotate(0 5.5 18.5)" stroke="none"><path fill="#f08c00" d="M 2.00,-0.33 Q 2.00,-0.33 2.28,1.39 2.56,3.12 2.60,5.69 2.64,8.27 2.62,10.78 2.61,13.29 2.58,15.80 2.55,18.30 2.32,20.08 2.09,21.86 2.04,23.35 1.99,24.83 1.57,27.00 1.16,29.16 1.11,30.33 1.06,31.50 0.52,32.77 -0.02,34.03 0.05,33.90 0.14,33.77 0.01,33.99 -0.11,34.21 -0.29,34.39 -0.47,34.57 -0.68,34.70 -0.90,34.84 -1.14,34.91 -1.38,34.99 -1.64,35.01 -1.89,35.02 -2.14,34.98 -2.39,34.94 -2.62,34.83 -2.85,34.73 -3.05,34.58 -3.25,34.42 -3.41,34.22 -3.57,34.02 -3.67,33.79 -3.78,33.56 -3.83,33.31 -3.87,33.07 -3.86,32.81 -3.85,32.56 -3.77,32.32 -3.70,32.07 -3.21,30.28 -2.71,28.49 -2.29,27.24 -1.86,25.99 -0.88,24.75 0.09,23.51 0.96,22.89 1.84,22.28 3.37,21.83 4.90,21.38 6.04,21.26 7.19,21.15 8.96,21.11 10.74,21.06 12.18,21.67 13.63,22.28 14.51,23.55 15.39,24.82 15.70,26.70 16.02,28.58 16.02,29.87 16.02,31.15 16.05,32.68 16.08,34.21 15.40,35.64 14.73,37.06 13.38,37.86 12.04,38.67 10.32,39.31 8.61,39.95 7.51,40.06 6.41,40.18 3.95,39.98 1.48,39.78 -0.52,37.92 -2.53,36.05 -2.79,35.59 -3.05,35.14 -3.15,34.62 -3.26,34.10 -3.19,33.58 -3.12,33.05 -2.89,32.58 -2.65,32.11 -2.28,31.73 -1.91,31.36 -1.44,31.12 -0.97,30.88 -0.45,30.81 0.07,30.73 0.59,30.83 1.10,30.93 1.57,31.19 2.03,31.44 2.38,31.83 2.73,32.22 2.95,32.71 3.16,33.19 3.20,33.72 3.25,34.24 3.12,34.76 3.00,35.27 2.72,35.72 2.43,36.16 2.02,36.49 1.61,36.83 1.12,37.01 0.63,37.20 0.10,37.21 -0.42,37.23 -0.93,37.08 -1.43,36.92 -1.86,36.62 -2.29,36.31 -2.60,35.89 -2.91,35.46 -3.07,34.95 -3.22,34.45 -3.21,33.92 -3.20,33.40 -3.02,32.90 -2.84,32.40 -2.51,31.99 -2.18,31.58 -1.74,31.29 -1.30,31.00 -0.79,30.87 -0.28,30.75 0.24,30.79 0.77,30.83 1.25,31.03 1.74,31.24 2.13,31.59 2.53,31.94 2.53,31.94 2.53,31.94 3.39,32.81 4.25,33.69 5.69,33.71 7.12,33.73 8.51,33.82 9.90,33.92 9.90,32.59 9.90,31.26 9.86,30.12 9.81,28.97 10.19,27.95 10.56,26.93 8.94,26.90 7.32,26.88 6.10,26.83 4.87,26.78 3.70,27.25 2.53,27.72 2.06,28.99 1.58,30.26 0.86,32.02 0.14,33.77 0.01,33.99 -0.11,34.21 -0.29,34.39 -0.47,34.57 -0.68,34.70 -0.90,34.84 -1.14,34.91 -1.38,34.99 -1.64,35.01 -1.89,35.02 -2.14,34.98 -2.39,34.94 -2.62,34.83 -2.85,34.73 -3.05,34.58 -3.25,34.42 -3.41,34.22 -3.57,34.02 -3.67,33.79 -3.78,33.56 -3.83,33.31 -3.87,33.07 -3.86,32.81 -3.85,32.56 -3.77,32.32 -3.70,32.07 -3.17,31.54 -2.64,31.00 -2.40,29.81 -2.16,28.62 -1.90,26.59 -1.64,24.55 -1.45,22.92 -1.26,21.29 -0.94,19.81 -0.61,18.32 -0.69,15.84 -0.76,13.36 -0.88,10.91 -1.00,8.45 -1.20,6.11 -1.41,3.77 -1.70,2.05 -2.00,0.33 -2.01,0.08 -2.02,-0.15 -1.97,-0.39 -1.92,-0.63 -1.82,-0.85 -1.71,-1.07 -1.56,-1.26 -1.41,-1.45 -1.21,-1.60 -1.02,-1.75 -0.79,-1.85 -0.57,-1.94 -0.33,-1.98 -0.08,-2.02 0.15,-2.00 0.39,-1.98 0.63,-1.91 0.86,-1.83 1.06,-1.70 1.27,-1.57 1.44,-1.40 1.61,-1.22 1.74,-1.01 1.86,-0.80 1.93,-0.56 2.00,-0.33 2.00,-0.33 L 2.00,-0.33 Z"></path></g><g transform="translate(356 110.6407519201758) rotate(0 12 3.5)" stroke="none"><path fill="#f08c00" d="M 0.58,-2.34 Q 0.58,-2.34 2.85,-1.63 5.11,-0.91 7.58,0.02 10.04,0.97 11.48,1.60 12.92,2.24 14.82,2.40 16.71,2.57 17.80,2.94 18.88,3.31 22.35,4.25 25.83,5.19 26.07,5.53 26.31,5.87 26.43,6.27 26.55,6.67 26.53,7.08 26.52,7.50 26.37,7.89 26.23,8.28 25.96,8.60 25.70,8.92 25.35,9.14 24.99,9.37 24.59,9.46 24.19,9.56 23.77,9.52 23.36,9.49 22.97,9.32 22.59,9.15 22.29,8.87 21.98,8.59 21.78,8.23 21.57,7.86 21.50,7.46 21.42,7.05 21.48,6.63 21.54,6.22 21.73,5.85 21.92,5.48 22.21,5.19 22.51,4.89 22.88,4.71 23.26,4.53 23.67,4.48 24.08,4.42 24.49,4.50 24.90,4.59 25.26,4.79 25.62,5.00 25.90,5.31 26.17,5.63 26.34,6.01 26.50,6.39 26.53,6.81 26.56,7.22 26.45,7.63 26.35,8.03 26.12,8.38 25.90,8.73 25.57,8.99 25.24,9.24 24.85,9.39 24.46,9.53 24.04,9.53 23.63,9.54 23.23,9.42 22.83,9.29 22.50,9.05 22.16,8.80 22.16,8.80 22.16,8.80 20.72,8.53 19.29,8.26 17.72,7.67 16.15,7.08 14.99,6.89 13.82,6.69 12.50,6.28 11.18,5.87 10.00,5.23 8.81,4.60 6.44,3.90 4.08,3.21 1.74,2.78 -0.58,2.34 -0.85,2.24 -1.13,2.13 -1.37,1.97 -1.61,1.80 -1.80,1.58 -1.99,1.36 -2.13,1.10 -2.26,0.85 -2.33,0.56 -2.40,0.28 -2.40,-0.00 -2.40,-0.29 -2.33,-0.58 -2.25,-0.86 -2.12,-1.12 -1.98,-1.38 -1.79,-1.59 -1.59,-1.81 -1.35,-1.98 -1.11,-2.14 -0.84,-2.24 -0.57,-2.35 -0.28,-2.38 0.00,-2.41 0.29,-2.38 0.58,-2.34 0.58,-2.34 L 0.58,-2.34 Z"></path></g><g transform="translate(372 107.6407519201758) rotate(0 7.5 6.5)" stroke="none"><path fill="#f08c00" d="M 0,-2.42 Q 0,-2.42 1.54,-2.39 3.08,-2.36 4.54,-1.67 6.01,-0.97 8.07,0.74 10.14,2.46 11.39,3.90 12.64,5.34 13.68,6.11 14.73,6.87 15.55,8.13 16.38,9.39 16.33,10.49 16.28,11.60 15.31,12.58 14.34,13.56 13.41,14.11 12.49,14.67 11.21,15.02 9.93,15.38 7.00,15.62 4.06,15.87 3.60,15.80 3.14,15.74 2.73,15.53 2.31,15.32 1.98,14.99 1.66,14.66 1.45,14.24 1.25,13.83 1.19,13.37 1.12,12.91 1.21,12.45 1.30,11.99 1.53,11.59 1.76,11.19 2.11,10.88 2.46,10.57 2.89,10.39 3.31,10.21 3.78,10.17 4.24,10.13 4.69,10.25 5.14,10.36 5.53,10.61 5.92,10.87 6.21,11.23 6.50,11.59 6.66,12.03 6.82,12.47 6.83,12.93 6.84,13.39 6.70,13.84 6.56,14.28 6.29,14.66 6.02,15.03 5.64,15.30 5.26,15.57 4.81,15.71 4.37,15.84 3.91,15.83 3.44,15.81 3.01,15.65 2.57,15.49 2.21,15.20 1.85,14.90 1.60,14.51 1.35,14.12 1.24,13.67 1.13,13.22 1.17,12.75 1.21,12.29 1.40,11.86 1.58,11.44 1.89,11.09 2.21,10.75 2.61,10.52 3.02,10.30 3.47,10.21 3.93,10.12 3.93,10.12 3.93,10.12 6.37,10.08 8.81,10.03 10.34,10.27 11.87,10.52 10.61,9.52 9.36,8.53 7.91,7.17 6.46,5.82 5.73,4.91 4.99,4.01 3.83,3.19 2.66,2.36 1.33,2.39 0,2.42 -0.28,2.38 -0.57,2.35 -0.85,2.24 -1.12,2.14 -1.36,1.97 -1.60,1.81 -1.79,1.59 -1.99,1.37 -2.12,1.11 -2.26,0.85 -2.33,0.57 -2.40,0.29 -2.40,-0.00 -2.40,-0.29 -2.33,-0.57 -2.26,-0.85 -2.12,-1.11 -1.99,-1.37 -1.79,-1.59 -1.60,-1.81 -1.36,-1.97 -1.12,-2.14 -0.85,-2.24 -0.57,-2.35 -0.28,-2.38 0.00,-2.42 0.00,-2.42 L 0,-2.42 Z"></path></g></svg>