<svg version="1.1" xmlns="http://www.w3.org/2000/svg" viewBox="0 0 551 482" width="551" height="482" class="excalidraw-svg"><!-- svg-source:excalidraw --><metadata></metadata><defs><style class="style-fonts">
      </style></defs><rect x="0" y="0" width="551" height="482" fill="#ffffff"></rect><g stroke-linecap="round"><g transform="translate(28 420) rotate(0 105.25108238495886 -1.0021956507116556)"><path d="M-0.55 -0.01 C34.47 -0.41, 175.86 -1.48, 211.05 -2 M1.36 -1.06 C36.23 -1.3, 175.86 -0.25, 210.66 -0.46" stroke="#1971c2" stroke-width="2" fill="none"></path></g><g transform="translate(28 420) rotate(0 105.25108238495886 -1.0021956507116556)"><path d="M187.15 8.06 C196.02 6.69, 204.96 2.66, 210.66 -0.46 M187.15 8.06 C192.73 6.9, 197.45 4.85, 210.66 -0.46" stroke="#1971c2" stroke-width="2" fill="none"></path></g><g transform="translate(28 420) rotate(0 105.25108238495886 -1.0021956507116556)"><path d="M187.18 -9.04 C196.1 -3.93, 205.03 -1.46, 210.66 -0.46 M187.18 -9.04 C192.7 -6.61, 197.41 -5.07, 210.66 -0.46" stroke="#1971c2" stroke-width="2" fill="none"></path></g></g><mask></mask><g stroke-linecap="round"><g transform="translate(241 420) rotate(0 42.30664867993444 -64.82541438857093)"><path d="M0.75 0.83 C14.51 -20.5, 69.1 -106.77, 82.83 -128.58 M-0.32 0.21 C13.78 -21.43, 70.62 -108.91, 84.93 -130.48" stroke="#e03131" stroke-width="2" fill="none"></path></g><g transform="translate(241 420) rotate(0 42.30664867993444 -64.82541438857093)"><path d="M79.2 -106.14 C82.53 -115.89, 83.69 -123.19, 84.93 -130.48 M79.2 -106.14 C81.34 -111.24, 82.64 -116.34, 84.93 -130.48" stroke="#e03131" stroke-width="2" fill="none"></path></g><g transform="translate(241 420) rotate(0 42.30664867993444 -64.82541438857093)"><path d="M64.9 -115.52 C72.75 -122.36, 78.47 -126.66, 84.93 -130.48 M64.9 -115.52 C70.08 -118.53, 74.48 -121.59, 84.93 -130.48" stroke="#e03131" stroke-width="2" fill="none"></path></g></g><mask></mask><g stroke-linecap="round"><g transform="translate(28 420) rotate(0 147.38418565011582 -64.14448325864039)"><path d="M0.96 -1.08 C49.94 -22.51, 245.94 -108.01, 294.76 -129.26 M0 0.97 C48.73 -20.22, 244.32 -105.91, 293.69 -127.85" stroke="#f08c00" stroke-width="2" fill="none"></path></g><g transform="translate(28 420) rotate(0 147.38418565011582 -64.14448325864039)"><path d="M275.64 -110.55 C280.67 -117.54, 288.77 -125.38, 293.69 -127.85 M275.64 -110.55 C282.39 -117.16, 287.47 -122.63, 293.69 -127.85" stroke="#f08c00" stroke-width="2" fill="none"></path></g><g transform="translate(28 420) rotate(0 147.38418565011582 -64.14448325864039)"><path d="M268.75 -126.2 C276.25 -127.41, 286.92 -129.42, 293.69 -127.85 M268.75 -126.2 C277.78 -127.5, 285.17 -127.7, 293.69 -127.85" stroke="#f08c00" stroke-width="2" fill="none"></path></g></g><mask></mask><g stroke-linecap="round"><g transform="translate(327.6933513200656 288.82541438857095) rotate(0 42.49903279300779 -64.45128805199639)"><path d="M0.7 -0.91 C14.58 -22.69, 69.39 -108.84, 83.13 -130.13 M-0.39 1.22 C13.88 -20.5, 71.06 -107.18, 85.39 -129.18" stroke="#e03131" stroke-width="2" fill="none"></path></g><g transform="translate(327.6933513200656 288.82541438857095) rotate(0 42.49903279300779 -64.45128805199639)"><path d="M79.65 -104.85 C79.66 -113.3, 80.96 -120.25, 85.39 -129.18 M79.65 -104.85 C81.22 -112.21, 82.56 -120.81, 85.39 -129.18" stroke="#e03131" stroke-width="2" fill="none"></path></g><g transform="translate(327.6933513200656 288.82541438857095) rotate(0 42.49903279300779 -64.45128805199639)"><path d="M65.36 -114.23 C69.51 -120.08, 74.91 -124.33, 85.39 -129.18 M65.36 -114.23 C71.74 -118.56, 77.83 -124.04, 85.39 -129.18" stroke="#e03131" stroke-width="2" fill="none"></path></g></g><mask></mask><g stroke-linecap="round"><g transform="translate(30 421) rotate(0 189.60940414033828 -130.83452048506587)"><path d="M-1.16 -0.89 C62.05 -44.56, 316.75 -217.63, 380.38 -261.21 M0.43 1.25 C63.41 -42.82, 316.34 -219.16, 379.63 -262.92" stroke="#2f9e44" stroke-width="2" fill="none"></path></g><g transform="translate(30 421) rotate(0 189.60940414033828 -130.83452048506587)"><path d="M365.22 -242.49 C369.27 -249.76, 377.75 -257.39, 379.63 -262.92 M365.22 -242.49 C369.87 -247.55, 373.4 -252.54, 379.63 -262.92" stroke="#2f9e44" stroke-width="2" fill="none"></path></g><g transform="translate(30 421) rotate(0 189.60940414033828 -130.83452048506587)"><path d="M355.46 -256.54 C363.45 -258.18, 375.77 -260.28, 379.63 -262.92 M355.46 -256.54 C362.69 -257.86, 368.82 -259.1, 379.63 -262.92" stroke="#2f9e44" stroke-width="2" fill="none"></path></g></g><mask></mask><g stroke-linecap="round"><g transform="translate(414.5009672069922 157.4512880519964) rotate(0 41.764860416147854 -64.2661734066345)"><path d="M0.7 0.88 C14.53 -20.32, 70.08 -106.43, 83.92 -127.88 M-0.39 0.29 C13.18 -21.15, 69.06 -107.77, 82.93 -129.41" stroke="#e03131" stroke-width="2" fill="none"></path></g><g transform="translate(414.5009672069922 157.4512880519964) rotate(0 41.764860416147854 -64.2661734066345)"><path d="M77.42 -105.02 C81.12 -114.48, 83.63 -124.1, 82.93 -129.41 M77.42 -105.02 C80.19 -115.05, 82.03 -123.47, 82.93 -129.41" stroke="#e03131" stroke-width="2" fill="none"></path></g><g transform="translate(414.5009672069922 157.4512880519964) rotate(0 41.764860416147854 -64.2661734066345)"><path d="M63.03 -114.27 C72.16 -120.29, 80.16 -126.39, 82.93 -129.41 M63.03 -114.27 C71.48 -120.51, 79.05 -125.25, 82.93 -129.41" stroke="#e03131" stroke-width="2" fill="none"></path></g></g><mask></mask><g stroke-linecap="round"><g transform="translate(32 419) rotate(0 231.93479999074714 -196.55318584004416)"><path d="M-0.12 0 C77.53 -65.13, 387.71 -325.93, 465.51 -391.33 M-1.64 -1.05 C75.85 -66.47, 386.32 -328.05, 464.31 -393.11" stroke="#2f9e44" stroke-width="2" fill="none"></path></g><g transform="translate(32 419) rotate(0 231.93479999074714 -196.55318584004416)"><path d="M451.81 -371.46 C455.22 -378, 459.65 -381.78, 464.31 -393.11 M451.81 -371.46 C455.56 -377.48, 458.91 -383.03, 464.31 -393.11" stroke="#2f9e44" stroke-width="2" fill="none"></path></g><g transform="translate(32 419) rotate(0 231.93479999074714 -196.55318584004416)"><path d="M440.81 -384.56 C447.09 -387.61, 454.43 -387.92, 464.31 -393.11 M440.81 -384.56 C447.37 -387.24, 453.61 -389.35, 464.31 -393.11" stroke="#2f9e44" stroke-width="2" fill="none"></path></g></g><mask></mask><g transform="translate(19 434) rotate(0 1.5 15.5)" stroke="none"><path fill="#1e1e1e" d="M -0.63,2.55 Q -0.63,2.55 -1.73,2.28 -2.82,2.01 -3.59,2.79 -4.36,3.57 -5.12,4.69 -5.89,5.82 -5.90,7.26 -5.91,8.70 -5.93,10.35 -5.95,12.00 -5.93,13.51 -5.90,15.03 -5.87,16.12 -5.83,17.22 -5.83,18.81 -5.82,20.40 -5.62,22.01 -5.41,23.62 -4.36,24.61 -3.31,25.60 -2.36,26.09 -1.42,26.58 -0.29,27.03 0.83,27.48 1.85,27.97 2.88,28.46 3.58,27.61 4.28,26.75 5.27,25.24 6.26,23.73 6.52,22.62 6.79,21.52 7.30,20.33 7.82,19.14 8.39,17.72 8.97,16.30 7.44,16.23 5.91,16.17 4.63,15.75 3.35,15.33 2.08,14.72 0.81,14.12 -0.54,12.50 -1.90,10.89 -2.48,9.80 -3.07,8.72 -3.28,6.39 -3.49,4.07 -3.41,3.51 -3.33,2.95 -3.07,2.44 -2.82,1.94 -2.42,1.54 -2.02,1.15 -1.51,0.90 -1.00,0.65 -0.44,0.58 0.11,0.50 0.67,0.61 1.22,0.72 1.71,1.00 2.20,1.29 2.58,1.71 2.95,2.13 3.17,2.65 3.39,3.17 3.43,3.74 3.48,4.30 3.34,4.85 3.20,5.40 2.89,5.87 2.58,6.34 2.14,6.70 1.70,7.05 1.16,7.24 0.63,7.43 0.07,7.44 -0.49,7.45 -1.03,7.28 -1.57,7.11 -2.02,6.78 -2.48,6.45 -2.81,5.99 -3.13,5.53 -3.30,4.99 -3.46,4.45 -3.44,3.88 -3.42,3.32 -3.22,2.79 -3.03,2.26 -2.67,1.82 -2.31,1.38 -1.83,1.08 -1.36,0.78 -0.81,0.64 -0.26,0.51 0.30,0.56 0.86,0.61 1.38,0.84 1.89,1.06 2.31,1.44 2.73,1.82 3.01,2.32 3.28,2.81 3.38,3.37 3.49,3.92 3.49,3.92 3.49,3.92 3.03,4.81 2.56,5.70 3.34,7.23 4.12,8.76 5.48,8.95 6.83,9.15 7.81,9.62 8.78,10.10 9.72,10.66 10.66,11.22 11.94,12.06 13.22,12.90 13.82,13.90 14.42,14.90 14.52,16.26 14.63,17.61 14.05,18.70 13.47,19.79 12.80,21.32 12.14,22.84 11.68,24.70 11.23,26.55 10.52,27.93 9.82,29.31 8.76,31.29 7.71,33.27 5.97,34.10 4.23,34.94 2.24,34.57 0.24,34.20 -1.40,33.48 -3.05,32.76 -5.00,31.78 -6.96,30.80 -8.65,29.15 -10.34,27.50 -10.88,26.43 -11.43,25.37 -11.80,22.88 -12.17,20.40 -12.14,18.27 -12.12,16.15 -12.08,14.91 -12.03,13.67 -11.97,12.02 -11.91,10.37 -11.86,9.28 -11.81,8.18 -11.69,6.98 -11.57,5.78 -10.60,3.50 -9.63,1.22 -8.06,-0.36 -6.50,-1.96 -5.48,-2.43 -4.46,-2.91 -3.11,-3.03 -1.77,-3.16 -0.56,-2.86 0.63,-2.55 0.93,-2.44 1.23,-2.32 1.49,-2.14 1.75,-1.96 1.96,-1.72 2.17,-1.48 2.32,-1.20 2.46,-0.92 2.54,-0.61 2.61,-0.30 2.61,0.00 2.61,0.32 2.53,0.63 2.46,0.94 2.31,1.22 2.16,1.50 1.95,1.74 1.74,1.97 1.47,2.15 1.21,2.33 0.91,2.44 0.62,2.56 0.30,2.59 -0.00,2.63 -0.32,2.59 -0.63,2.55 -0.63,2.55 L -0.63,2.55 Z"></path></g><g transform="translate(18 437) rotate(0 4.5 2.5)" stroke="none"><path fill="#1e1e1e" d="M 0.95,-2.39 Q 0.95,-2.39 2.38,-1.79 3.80,-1.19 5.14,-0.99 6.48,-0.79 7.50,-0.34 8.52,0.10 10.13,2.24 11.75,4.39 11.78,4.84 11.80,5.30 11.68,5.74 11.56,6.18 11.30,6.56 11.05,6.94 10.68,7.21 10.32,7.49 9.89,7.64 9.45,7.78 9.00,7.78 8.54,7.78 8.10,7.64 7.67,7.49 7.31,7.21 6.94,6.94 6.69,6.56 6.43,6.18 6.31,5.74 6.19,5.30 6.21,4.84 6.24,4.39 6.41,3.96 6.57,3.54 6.87,3.19 7.17,2.84 7.56,2.61 7.95,2.37 8.40,2.27 8.84,2.17 9.30,2.22 9.75,2.27 10.17,2.46 10.58,2.66 10.91,2.97 11.24,3.29 11.46,3.69 11.67,4.09 11.75,4.54 11.82,5.00 11.75,5.45 11.67,5.90 11.46,6.30 11.24,6.70 10.91,7.02 10.58,7.33 10.17,7.53 9.75,7.72 9.30,7.77 8.84,7.82 8.40,7.72 7.95,7.62 7.56,7.38 7.17,7.15 6.87,6.80 6.57,6.45 6.41,6.03 6.24,5.60 6.24,5.60 6.24,5.60 5.11,4.88 3.98,4.15 2.96,3.82 1.94,3.49 0.49,2.94 -0.95,2.39 -1.22,2.24 -1.50,2.09 -1.73,1.88 -1.95,1.67 -2.13,1.41 -2.30,1.15 -2.40,0.86 -2.51,0.57 -2.54,0.26 -2.57,-0.04 -2.53,-0.35 -2.49,-0.66 -2.37,-0.95 -2.26,-1.23 -2.07,-1.49 -1.89,-1.74 -1.66,-1.94 -1.42,-2.14 -1.14,-2.28 -0.87,-2.42 -0.56,-2.49 -0.26,-2.56 0.04,-2.55 0.35,-2.55 0.65,-2.47 0.95,-2.39 0.95,-2.39 L 0.95,-2.39 Z"></path></g><g transform="translate(346 291) rotate(0 -2.5 20)" stroke="none"><path fill="#1e1e1e" d="M 1.99,0.16 Q 1.99,0.16 1.61,3.60 1.23,7.05 0.75,9.99 0.26,12.94 0.05,15.26 -0.16,17.59 -0.27,20.29 -0.38,22.99 -0.41,25.01 -0.45,27.03 -0.71,28.88 -0.97,30.72 -1.34,32.40 -1.71,34.07 -2.13,35.43 -2.54,36.80 -2.76,38.53 -2.99,40.26 -3.08,40.57 -3.18,40.89 -3.37,41.15 -3.56,41.42 -3.82,41.61 -4.09,41.80 -4.40,41.90 -4.71,42.00 -5.04,41.99 -5.37,41.98 -5.68,41.87 -5.98,41.76 -6.24,41.56 -6.50,41.35 -6.67,41.08 -6.85,40.80 -6.93,40.49 -7.01,40.17 -6.99,39.84 -6.96,39.52 -6.83,39.21 -6.70,38.91 -6.49,38.67 -6.27,38.42 -5.99,38.26 -5.70,38.10 -5.38,38.04 -5.06,37.97 -4.73,38.02 -4.41,38.06 -4.12,38.20 -3.82,38.35 -3.59,38.58 -3.36,38.81 -3.21,39.10 -3.06,39.39 -3.02,39.72 -2.97,40.04 -3.03,40.36 -3.09,40.68 -3.25,40.97 -3.41,41.26 -3.66,41.48 -3.90,41.70 -4.20,41.83 -4.50,41.96 -4.82,41.98 -5.15,42.01 -5.47,41.93 -5.79,41.86 -6.06,41.68 -6.34,41.51 -6.55,41.25 -6.75,41.00 -6.87,40.69 -6.98,40.38 -6.99,40.06 -7.00,39.73 -7.00,39.73 -7.00,39.73 -6.54,37.61 -6.08,35.49 -5.56,34.35 -5.05,33.20 -4.59,31.69 -4.14,30.17 -3.79,28.57 -3.45,26.97 -3.42,24.94 -3.39,22.91 -3.35,20.13 -3.31,17.36 -3.18,14.91 -3.05,12.47 -2.72,9.61 -2.38,6.74 -2.18,3.29 -1.99,-0.16 -1.94,-0.40 -1.89,-0.63 -1.78,-0.85 -1.68,-1.07 -1.53,-1.25 -1.37,-1.44 -1.18,-1.58 -0.99,-1.73 -0.77,-1.82 -0.55,-1.91 -0.31,-1.95 -0.07,-1.99 0.16,-1.97 0.40,-1.95 0.63,-1.87 0.86,-1.80 1.06,-1.67 1.26,-1.54 1.43,-1.36 1.59,-1.19 1.71,-0.98 1.83,-0.77 1.90,-0.54 1.97,-0.31 1.98,-0.07 1.99,0.16 1.99,0.16 L 1.99,0.16 Z"></path></g><g transform="translate(347 292) rotate(0 9.5 21.5)" stroke="none"><path fill="#1e1e1e" d="M 0.47,-1.88 Q 0.47,-1.88 1.73,-1.60 3.00,-1.33 4.72,0.55 6.45,2.44 7.43,4.12 8.40,5.79 9.52,7.57 10.64,9.35 11.49,11.76 12.34,14.17 13.01,15.63 13.68,17.09 14.47,19.20 15.26,21.31 15.95,22.72 16.65,24.13 17.28,25.64 17.90,27.16 18.20,29.14 18.49,31.12 18.68,32.17 18.86,33.22 19.45,34.40 20.04,35.58 20.66,37.40 21.28,39.23 21.44,41.05 21.60,42.87 21.55,43.29 21.50,43.71 21.32,44.10 21.14,44.48 20.85,44.78 20.56,45.09 20.18,45.28 19.81,45.47 19.39,45.54 18.97,45.60 18.56,45.53 18.14,45.46 17.77,45.26 17.40,45.06 17.11,44.75 16.82,44.44 16.65,44.06 16.47,43.67 16.43,43.25 16.39,42.83 16.48,42.42 16.58,42.01 16.80,41.65 17.02,41.29 17.34,41.02 17.67,40.75 18.06,40.59 18.45,40.44 18.88,40.42 19.30,40.40 19.70,40.52 20.11,40.64 20.46,40.88 20.81,41.11 21.06,41.45 21.31,41.79 21.44,42.19 21.57,42.59 21.57,43.02 21.57,43.44 21.43,43.84 21.29,44.24 21.03,44.57 20.77,44.90 20.42,45.14 20.07,45.37 19.66,45.48 19.26,45.59 18.83,45.57 18.41,45.54 18.02,45.38 17.63,45.22 17.31,44.94 16.99,44.67 16.78,44.30 16.56,43.94 16.48,43.53 16.39,43.11 16.39,43.12 16.39,43.12 16.31,40.90 16.23,38.69 15.87,37.25 15.51,35.81 15.15,33.71 14.79,31.61 14.61,30.03 14.42,28.45 13.93,27.00 13.43,25.55 12.83,24.04 12.23,22.53 11.34,20.49 10.45,18.44 9.85,16.87 9.26,15.31 8.49,13.31 7.72,11.32 6.38,9.50 5.04,7.69 4.29,6.31 3.54,4.94 2.57,3.71 1.59,2.48 0.56,2.18 -0.47,1.88 -0.69,1.80 -0.90,1.71 -1.10,1.58 -1.29,1.45 -1.44,1.27 -1.60,1.09 -1.71,0.89 -1.81,0.68 -1.87,0.45 -1.93,0.22 -1.92,-0.00 -1.92,-0.24 -1.87,-0.46 -1.81,-0.69 -1.70,-0.90 -1.59,-1.10 -1.43,-1.28 -1.28,-1.45 -1.09,-1.59 -0.89,-1.72 -0.67,-1.80 -0.45,-1.88 -0.22,-1.91 0.00,-1.94 0.23,-1.91 0.47,-1.88 0.47,-1.88 L 0.47,-1.88 Z"></path></g><g transform="translate(336 311) rotate(0 13 1.5)" stroke="none"><path fill="#1e1e1e" d="M 0.92,-2.15 Q 0.92,-2.15 2.88,-1.16 4.84,-0.18 5.90,0.09 6.97,0.36 8.80,0.42 10.63,0.48 12.59,0.37 14.54,0.26 15.89,-0.11 17.23,-0.50 18.51,-0.73 19.79,-0.95 22.86,-1.76 25.93,-2.56 26.35,-2.50 26.76,-2.45 27.13,-2.26 27.50,-2.07 27.79,-1.78 28.08,-1.48 28.27,-1.11 28.45,-0.74 28.51,-0.33 28.56,0.07 28.48,0.48 28.40,0.89 28.19,1.25 27.99,1.61 27.68,1.89 27.37,2.16 26.99,2.33 26.60,2.49 26.19,2.52 25.78,2.55 25.37,2.45 24.97,2.35 24.62,2.12 24.27,1.90 24.02,1.57 23.76,1.25 23.61,0.86 23.47,0.47 23.46,0.05 23.45,-0.35 23.58,-0.75 23.70,-1.14 23.94,-1.48 24.19,-1.82 24.53,-2.06 24.86,-2.30 25.26,-2.42 25.66,-2.54 26.07,-2.53 26.49,-2.51 26.88,-2.37 27.27,-2.22 27.59,-1.96 27.91,-1.70 28.13,-1.35 28.36,-1.00 28.46,-0.60 28.55,-0.19 28.52,0.21 28.48,0.62 28.32,1.00 28.15,1.39 27.87,1.69 27.59,2.00 27.23,2.20 26.87,2.41 26.46,2.48 26.05,2.56 26.05,2.56 26.06,2.56 24.31,2.53 22.57,2.50 21.60,2.98 20.63,3.45 19.49,3.56 18.34,3.68 16.70,4.09 15.06,4.49 12.69,4.90 10.33,5.31 9.21,5.18 8.09,5.05 6.87,4.80 5.64,4.54 4.42,4.08 3.20,3.63 1.14,2.89 -0.92,2.15 -1.16,2.01 -1.41,1.86 -1.61,1.67 -1.81,1.47 -1.96,1.23 -2.11,0.99 -2.20,0.73 -2.29,0.46 -2.31,0.18 -2.33,-0.09 -2.29,-0.37 -2.24,-0.65 -2.13,-0.91 -2.02,-1.17 -1.85,-1.40 -1.68,-1.62 -1.46,-1.80 -1.24,-1.98 -0.99,-2.10 -0.73,-2.22 -0.45,-2.27 -0.18,-2.33 0.09,-2.32 0.38,-2.30 0.65,-2.23 0.92,-2.15 0.92,-2.15 L 0.92,-2.15 Z"></path></g><g transform="translate(426 159) rotate(0 0 16)" stroke="none"><path fill="#1e1e1e" d="M 1.75,-1.17 Q 1.75,-1.17 2.40,-0.28 3.06,0.59 3.34,3.43 3.62,6.27 3.64,9.37 3.66,12.46 3.34,15.29 3.03,18.12 2.28,20.84 1.53,23.56 1.31,25.18 1.08,26.80 1.05,28.04 1.03,29.29 0.45,31.02 -0.12,32.76 -0.29,33.04 -0.46,33.32 -0.71,33.53 -0.96,33.74 -1.27,33.86 -1.57,33.98 -1.90,33.99 -2.23,34.01 -2.54,33.92 -2.86,33.83 -3.13,33.64 -3.40,33.46 -3.60,33.19 -3.79,32.93 -3.90,32.62 -4.00,32.31 -4.00,31.98 -3.99,31.65 -3.89,31.34 -3.78,31.03 -3.58,30.77 -3.38,30.51 -3.11,30.33 -2.83,30.15 -2.52,30.06 -2.20,29.98 -1.87,30.00 -1.54,30.02 -1.24,30.14 -0.94,30.26 -0.69,30.48 -0.44,30.69 -0.27,30.98 -0.11,31.26 -0.04,31.58 0.02,31.90 -0.01,32.23 -0.04,32.55 -0.18,32.85 -0.32,33.15 -0.55,33.38 -0.78,33.62 -1.07,33.77 -1.36,33.92 -1.69,33.97 -2.01,34.02 -2.33,33.97 -2.66,33.91 -2.95,33.76 -3.23,33.60 -3.46,33.36 -3.68,33.12 -3.82,32.82 -3.95,32.52 -3.99,32.20 -4.02,31.87 -3.95,31.55 -3.87,31.23 -3.87,31.23 -3.87,31.23 -3.27,30.06 -2.66,28.89 -2.45,27.56 -2.23,26.23 -1.88,24.49 -1.52,22.76 -0.92,20.29 -0.31,17.82 -0.14,15.20 0.03,12.59 -0.16,9.63 -0.35,6.68 -0.55,4.77 -0.76,2.85 -1.25,2.01 -1.75,1.17 -1.87,0.94 -1.98,0.71 -2.04,0.46 -2.09,0.22 -2.09,-0.03 -2.09,-0.28 -2.02,-0.53 -1.96,-0.78 -1.83,-1.00 -1.71,-1.22 -1.54,-1.41 -1.37,-1.60 -1.16,-1.74 -0.95,-1.88 -0.71,-1.97 -0.47,-2.05 -0.21,-2.08 0.03,-2.11 0.28,-2.07 0.53,-2.04 0.77,-1.94 1.01,-1.85 1.21,-1.70 1.42,-1.55 1.59,-1.36 1.75,-1.17 1.75,-1.17 L 1.75,-1.17 Z"></path></g><g transform="translate(432 164) rotate(0 8 13)" stroke="none"><path fill="#1e1e1e" d="M -0.42,-2.57 Q -0.42,-2.57 1.30,-2.79 3.04,-3.01 4.11,-3.18 5.18,-3.35 6.28,-3.45 7.37,-3.54 8.72,-3.65 10.08,-3.77 11.44,-3.83 12.80,-3.90 14.88,-3.02 16.96,-2.14 17.36,-0.32 17.77,1.49 16.73,3.73 15.68,5.97 14.60,7.37 13.53,8.76 12.71,10.27 11.88,11.78 10.97,12.46 10.05,13.14 8.81,13.44 7.57,13.74 6.25,13.87 4.92,14.01 3.56,14.06 2.19,14.11 0.21,13.76 -1.76,13.41 -2.50,13.32 -3.25,13.22 -3.62,13.13 -3.99,13.03 -4.33,12.85 -4.66,12.67 -4.95,12.41 -5.23,12.16 -5.45,11.84 -5.66,11.52 -5.79,11.16 -5.93,10.80 -5.97,10.42 -6.01,10.04 -5.96,9.66 -5.91,9.28 -5.77,8.93 -5.63,8.57 -5.41,8.26 -5.19,7.94 -4.90,7.69 -4.62,7.44 -4.27,7.26 -3.93,7.09 -3.56,7.00 -3.19,6.91 -2.80,6.92 -2.42,6.92 -1.15,7.40 0.10,7.89 2.25,8.59 4.40,9.30 5.50,9.52 6.60,9.75 7.75,10.17 8.91,10.59 10.28,11.18 11.66,11.77 12.52,12.39 13.39,13.02 14.55,12.88 15.71,12.73 18.07,12.93 20.42,13.13 21.81,14.01 23.21,14.90 23.98,15.99 24.76,17.08 25.26,19.59 25.76,22.11 24.99,23.58 24.22,25.05 22.65,26.31 21.07,27.56 19.82,27.81 18.57,28.05 16.53,28.11 14.48,28.18 11.85,27.82 9.21,27.46 7.70,27.33 6.19,27.21 4.59,27.19 2.99,27.18 1.72,27.40 0.44,27.62 -0.90,28.38 -2.25,29.13 -4.31,29.62 -6.36,30.11 -6.87,30.13 -7.39,30.15 -7.88,30.01 -8.37,29.86 -8.80,29.57 -9.22,29.27 -9.52,28.86 -9.83,28.44 -9.99,27.95 -10.14,27.46 -10.14,26.95 -10.13,26.43 -9.96,25.95 -9.79,25.46 -9.47,25.06 -9.15,24.65 -8.72,24.37 -8.29,24.09 -7.79,23.96 -7.29,23.83 -6.78,23.86 -6.27,23.90 -5.79,24.09 -5.31,24.29 -4.93,24.63 -4.54,24.97 -4.28,25.42 -4.02,25.86 -3.92,26.36 -3.81,26.87 -3.88,27.38 -3.94,27.89 -4.16,28.36 -4.39,28.82 -4.75,29.19 -5.11,29.56 -5.56,29.79 -6.02,30.03 -6.53,30.10 -7.04,30.18 -7.55,30.09 -8.06,30.00 -8.51,29.75 -8.96,29.50 -9.31,29.12 -9.66,28.74 -9.86,28.27 -10.07,27.80 -10.12,27.29 -10.17,26.78 -10.05,26.27 -9.93,25.77 -9.66,25.34 -9.39,24.90 -8.99,24.57 -8.60,24.24 -8.11,24.06 -7.63,23.88 -7.63,23.88 -7.63,23.88 -5.50,23.24 -3.37,22.60 -2.27,22.06 -1.16,21.52 0.95,21.18 3.07,20.84 4.81,20.89 6.54,20.94 7.61,21.00 8.67,21.07 10.56,21.43 12.44,21.78 14.32,21.75 16.19,21.71 17.95,21.41 19.71,21.11 19.49,19.97 19.27,18.82 17.28,18.94 15.30,19.06 14.16,18.99 13.01,18.92 11.41,18.30 9.81,17.68 8.19,17.05 6.57,16.41 5.20,15.98 3.82,15.55 1.94,14.77 0.05,13.98 -1.59,13.60 -3.25,13.22 -3.62,13.13 -3.99,13.03 -4.33,12.85 -4.66,12.67 -4.95,12.41 -5.23,12.16 -5.45,11.84 -5.66,11.52 -5.79,11.16 -5.93,10.80 -5.97,10.42 -6.01,10.04 -5.96,9.66 -5.91,9.28 -5.77,8.93 -5.63,8.57 -5.41,8.26 -5.19,7.94 -4.90,7.69 -4.62,7.44 -4.27,7.26 -3.93,7.09 -3.56,7.00 -3.19,6.91 -2.81,6.92 -2.42,6.92 -2.29,6.99 -2.16,7.05 -0.00,7.46 2.16,7.87 3.92,7.90 5.67,7.94 6.88,7.76 8.09,7.59 8.63,6.57 9.18,5.56 9.95,4.47 10.72,3.38 11.77,2.64 12.81,1.90 11.49,1.85 10.16,1.79 8.90,1.74 7.64,1.69 5.74,1.78 3.85,1.86 2.14,2.21 0.42,2.57 0.11,2.58 -0.19,2.60 -0.50,2.54 -0.81,2.47 -1.10,2.34 -1.38,2.21 -1.63,2.01 -1.87,1.81 -2.06,1.56 -2.25,1.31 -2.37,1.02 -2.50,0.73 -2.55,0.42 -2.60,0.11 -2.58,-0.19 -2.55,-0.51 -2.46,-0.81 -2.36,-1.10 -2.19,-1.37 -2.02,-1.64 -1.80,-1.86 -1.57,-2.08 -1.30,-2.23 -1.03,-2.39 -0.73,-2.48 -0.42,-2.57 -0.42,-2.57 L -0.42,-2.57 Z"></path></g><g transform="translate(533 11) rotate(0 -5.5 16)" stroke="none"><path fill="#1e1e1e" d="M 0.62,-2.51 Q 0.62,-2.51 1.96,-2.12 3.31,-1.72 4.43,-0.58 5.55,0.55 5.89,2.84 6.22,5.13 6.35,6.19 6.48,7.26 6.54,8.37 6.61,9.48 6.22,10.79 5.84,12.10 4.67,13.04 3.51,13.98 1.98,14.01 0.46,14.04 -0.63,13.48 -1.72,12.92 -3.30,11.60 -4.88,10.27 -6.13,10.25 -7.38,10.23 -8.54,10.82 -9.69,11.42 -10.71,12.74 -11.73,14.06 -13.05,16.15 -14.38,18.24 -14.98,19.63 -15.59,21.02 -14.56,22.21 -13.52,23.40 -12.22,24.38 -10.91,25.37 -8.78,26.01 -6.65,26.65 -5.52,27.16 -4.39,27.66 -3.33,28.16 -2.27,28.66 -0.79,29.28 0.69,29.90 1.95,29.87 3.21,29.84 5.02,28.92 6.83,27.99 7.34,27.88 7.85,27.78 8.37,27.84 8.89,27.90 9.36,28.13 9.83,28.35 10.21,28.71 10.58,29.07 10.82,29.54 11.06,30.00 11.14,30.51 11.22,31.03 11.13,31.54 11.04,32.06 10.79,32.51 10.54,32.97 10.16,33.33 9.77,33.68 9.30,33.89 8.82,34.11 8.30,34.16 7.79,34.21 7.28,34.09 6.77,33.97 6.33,33.70 5.88,33.43 5.55,33.03 5.22,32.63 5.03,32.14 4.84,31.65 4.82,31.13 4.80,30.61 4.94,30.11 5.09,29.61 5.38,29.18 5.68,28.76 6.10,28.44 6.52,28.13 7.01,27.97 7.51,27.81 8.03,27.82 8.55,27.82 9.04,27.99 9.53,28.17 9.95,28.49 10.36,28.81 10.64,29.24 10.93,29.67 11.07,30.18 11.20,30.68 11.17,31.20 11.13,31.72 10.93,32.20 10.74,32.69 10.39,33.08 10.05,33.47 9.60,33.74 9.15,34.00 9.15,34.00 9.16,34.00 7.67,34.85 6.19,35.69 5.15,35.91 4.10,36.13 2.83,36.04 1.55,35.96 -0.44,35.47 -2.44,34.98 -3.60,34.43 -4.75,33.89 -5.74,33.41 -6.74,32.93 -8.71,32.12 -10.69,31.30 -12.50,30.76 -14.31,30.22 -15.20,29.58 -16.08,28.95 -17.60,28.26 -19.12,27.58 -20.34,26.20 -21.56,24.81 -21.64,22.50 -21.72,20.19 -21.00,18.41 -20.28,16.62 -19.16,14.81 -18.04,12.99 -16.82,10.90 -15.59,8.82 -14.70,7.67 -13.81,6.51 -12.63,5.58 -11.44,4.64 -10.18,4.23 -8.92,3.82 -7.42,3.86 -5.92,3.91 -4.37,4.25 -2.82,4.59 -1.46,5.56 -0.09,6.53 0.59,8.03 1.27,9.52 1.21,7.63 1.15,5.74 1.22,4.30 1.28,2.87 0.33,2.69 -0.62,2.51 -0.92,2.40 -1.21,2.29 -1.47,2.11 -1.72,1.93 -1.93,1.70 -2.14,1.46 -2.28,1.19 -2.43,0.91 -2.50,0.60 -2.57,0.30 -2.57,-0.00 -2.57,-0.32 -2.50,-0.62 -2.42,-0.92 -2.27,-1.20 -2.13,-1.48 -1.92,-1.71 -1.71,-1.94 -1.45,-2.12 -1.19,-2.30 -0.90,-2.41 -0.61,-2.52 -0.30,-2.55 0.00,-2.59 0.31,-2.55 0.62,-2.51 0.62,-2.51 L 0.62,-2.51 Z"></path></g><g transform="translate(155 451) rotate(0 -2 8)" stroke="none"><path fill="#1971c2" d="M -0.68,1.02 Q -0.68,1.02 -1.51,0.38 -2.35,-0.25 -2.81,-0.86 -3.26,-1.47 -4.30,-1.58 -5.33,-1.69 -6.07,-2.08 -6.81,-2.46 -7.63,-2.55 -8.45,-2.64 -9.19,-3.02 -9.93,-3.41 -10.70,-3.26 -11.46,-3.10 -12.56,-2.56 -13.66,-2.02 -14.66,-1.01 -15.66,-0.01 -16.40,0.97 -17.15,1.95 -18.09,2.99 -19.04,4.03 -19.34,4.68 -19.64,5.34 -19.77,6.59 -19.90,7.85 -19.69,9.53 -19.48,11.22 -18.85,13.05 -18.22,14.89 -17.67,16.57 -17.11,18.25 -16.63,18.84 -16.14,19.43 -15.08,19.64 -14.01,19.85 -12.87,19.95 -11.73,20.04 -10.48,19.82 -9.23,19.61 -7.94,18.44 -6.65,17.28 -5.50,15.67 -4.36,14.06 -3.57,12.80 -2.78,11.53 -2.47,10.49 -2.16,9.45 -1.73,8.60 -1.30,7.75 -0.83,6.86 -0.36,5.97 0.12,5.24 0.61,4.50 1.07,3.75 1.53,3.01 1.38,3.96 1.23,4.91 1.17,5.79 1.12,6.68 1.12,7.35 1.13,8.02 1.11,8.87 1.09,9.73 1.07,10.67 1.04,11.61 1.06,12.29 1.08,12.98 1.10,13.53 1.12,14.07 1.85,14.34 2.57,14.60 3.76,15.00 4.95,15.40 5.68,15.47 6.41,15.53 7.14,15.58 7.87,15.62 9.34,15.72 10.81,15.82 12.01,15.89 13.21,15.96 14.16,15.75 15.11,15.54 14.20,13.86 13.28,12.19 13.39,12.11 13.49,12.04 13.62,11.99 13.74,11.95 13.87,11.93 14.00,11.92 14.12,11.93 14.25,11.95 14.38,12.00 14.50,12.04 14.60,12.12 14.71,12.19 14.80,12.29 14.88,12.38 14.94,12.50 15.00,12.61 15.03,12.74 15.06,12.87 15.06,13.00 15.06,13.13 15.03,13.25 15.00,13.38 14.94,13.49 14.88,13.61 14.80,13.70 14.71,13.80 13.90,13.69 13.09,13.58 13.02,13.42 12.95,13.27 12.94,13.09 12.92,12.92 12.96,12.75 13.00,12.58 13.09,12.43 13.19,12.28 13.32,12.17 13.46,12.06 13.62,12.00 13.78,11.94 13.96,11.93 14.13,11.93 14.30,11.98 14.46,12.03 14.61,12.13 14.75,12.23 14.85,12.37 14.96,12.51 15.01,12.67 15.06,12.84 15.06,13.01 15.06,13.19 15.00,13.35 14.94,13.52 14.83,13.65 14.72,13.79 14.58,13.89 14.43,13.98 14.26,14.02 14.09,14.07 13.92,14.06 13.74,14.04 13.58,13.98 13.42,13.91 13.29,13.79 13.16,13.68 13.07,13.53 12.99,13.38 12.95,13.21 12.92,13.03 12.94,12.86 12.96,12.69 13.04,12.53 13.11,12.37 13.24,12.25 13.36,12.13 13.51,12.05 13.67,11.97 13.84,11.94 14.01,11.92 14.19,11.95 14.36,11.98 14.51,12.06 14.66,12.15 13.97,12.17 13.28,12.19 13.39,12.11 13.49,12.04 13.62,11.99 13.74,11.95 13.87,11.93 14.00,11.92 14.12,11.93 14.25,11.95 14.37,12.00 14.50,12.04 14.60,12.11 14.71,12.19 14.80,12.29 14.88,12.38 14.94,12.50 15.00,12.61 15.03,12.74 15.06,12.87 15.06,13.00 15.06,13.13 15.03,13.25 15.00,13.38 14.94,13.49 14.88,13.61 14.80,13.70 14.71,13.80 15.92,14.84 17.14,15.88 16.40,16.59 15.66,17.30 14.44,17.66 13.22,18.02 12.01,18.08 10.79,18.14 9.29,18.22 7.79,18.30 6.95,18.29 6.11,18.29 5.51,18.21 4.92,18.12 4.25,17.91 3.58,17.69 2.82,17.40 2.05,17.11 1.43,16.93 0.81,16.75 0.21,16.29 -0.39,15.84 -0.75,15.02 -1.12,14.20 -1.10,13.59 -1.08,12.98 -1.05,12.29 -1.03,11.60 -1.05,10.66 -1.08,9.71 -1.08,8.84 -1.09,7.97 -1.06,7.29 -1.02,6.60 -1.01,5.65 -1.00,4.70 -0.91,3.77 -0.81,2.84 -0.51,2.24 -0.20,1.64 0.84,1.48 1.89,1.32 2.35,1.71 2.81,2.10 2.90,2.81 2.99,3.53 2.47,4.50 1.94,5.47 1.46,6.07 0.97,6.68 0.50,7.59 0.03,8.50 -0.39,9.18 -0.82,9.86 -1.19,11.07 -1.55,12.28 -2.35,13.60 -3.15,14.92 -4.38,16.68 -5.62,18.44 -7.22,19.80 -8.82,21.17 -10.31,21.48 -11.80,21.79 -13.06,21.77 -14.32,21.76 -15.26,21.55 -16.20,21.35 -16.81,20.90 -17.43,20.46 -18.01,19.62 -18.59,18.79 -19.19,17.12 -19.80,15.45 -20.53,13.47 -21.27,11.48 -21.58,9.59 -21.88,7.69 -21.79,6.78 -21.70,5.86 -21.46,5.19 -21.23,4.51 -20.77,3.72 -20.31,2.93 -19.47,1.91 -18.63,0.90 -17.88,-0.24 -17.12,-1.38 -15.96,-2.67 -14.79,-3.96 -13.49,-4.77 -12.20,-5.57 -11.11,-5.83 -10.01,-6.10 -9.03,-5.64 -8.04,-5.18 -7.47,-5.09 -6.90,-5.00 -5.90,-4.51 -4.89,-4.01 -4.23,-3.88 -3.58,-3.75 -2.61,-3.35 -1.64,-2.95 -1.37,-2.49 -1.09,-2.04 -0.20,-1.53 0.68,-1.02 0.79,-0.92 0.90,-0.83 0.99,-0.71 1.08,-0.58 1.13,-0.45 1.19,-0.31 1.21,-0.16 1.23,-0.01 1.21,0.12 1.19,0.27 1.14,0.41 1.09,0.55 1.01,0.67 0.93,0.80 0.82,0.90 0.71,1.00 0.58,1.07 0.45,1.14 0.31,1.18 0.16,1.21 0.01,1.22 -0.12,1.22 -0.27,1.19 -0.41,1.15 -0.55,1.09 -0.68,1.02 -0.68,1.02 L -0.68,1.02 Z"></path></g><g transform="translate(128 437) rotate(0 18 1.5)" stroke="none"><path fill="#1971c2" d="M 0.16,-0.81 Q 0.16,-0.81 1.59,-0.50 3.02,-0.19 4.26,0.24 5.49,0.68 6.35,1.16 7.22,1.63 7.78,1.74 8.33,1.86 9.36,1.95 10.39,2.05 11.71,2.11 13.03,2.16 14.17,2.20 15.31,2.23 16.66,2.25 18.00,2.26 19.44,2.28 20.87,2.29 21.77,2.26 22.67,2.23 23.34,2.18 24.01,2.13 24.58,2.09 25.15,2.04 25.68,2.00 26.21,1.96 27.52,1.92 28.82,1.88 29.73,1.91 30.65,1.93 31.61,1.96 32.57,1.99 34.28,1.95 36.00,1.91 36.17,1.94 36.34,1.96 36.50,2.05 36.65,2.13 36.77,2.26 36.90,2.38 36.97,2.54 37.04,2.70 37.06,2.88 37.08,3.05 37.04,3.23 37.01,3.40 36.91,3.55 36.82,3.70 36.69,3.81 36.56,3.93 36.39,3.99 36.23,4.06 36.05,4.07 35.88,4.08 35.71,4.03 35.54,3.98 35.39,3.88 35.25,3.78 35.14,3.64 35.03,3.50 34.98,3.34 34.92,3.17 34.92,2.99 34.92,2.82 34.98,2.65 35.03,2.49 35.14,2.35 35.25,2.21 35.39,2.11 35.54,2.01 35.71,1.96 35.88,1.91 36.05,1.92 36.23,1.93 36.39,2.00 36.56,2.06 36.69,2.18 36.82,2.29 36.92,2.44 37.01,2.59 37.04,2.76 37.08,2.94 37.06,3.11 37.04,3.29 36.97,3.45 36.90,3.61 36.77,3.73 36.65,3.86 36.50,3.94 36.34,4.03 36.17,4.05 35.99,4.08 35.99,4.08 35.99,4.08 34.28,4.04 32.57,4.00 31.61,4.03 30.65,4.06 29.73,4.08 28.82,4.11 27.52,4.07 26.21,4.03 25.68,3.99 25.15,3.95 24.58,3.90 24.01,3.86 23.34,3.80 22.67,3.75 21.77,3.72 20.87,3.69 19.43,3.70 18.00,3.71 16.64,3.71 15.29,3.72 14.14,3.72 12.99,3.72 11.63,3.71 10.27,3.69 9.04,3.62 7.81,3.55 7.12,3.27 6.43,3.00 5.71,2.55 4.99,2.10 3.85,1.72 2.72,1.34 1.27,1.08 -0.16,0.81 -0.25,0.78 -0.35,0.75 -0.43,0.70 -0.52,0.64 -0.59,0.57 -0.66,0.50 -0.71,0.41 -0.76,0.32 -0.79,0.23 -0.82,0.13 -0.82,0.03 -0.83,-0.06 -0.81,-0.16 -0.79,-0.26 -0.74,-0.35 -0.70,-0.44 -0.64,-0.52 -0.57,-0.59 -0.49,-0.65 -0.41,-0.72 -0.32,-0.75 -0.23,-0.79 -0.13,-0.81 -0.03,-0.83 0.06,-0.82 0.16,-0.81 0.16,-0.81 L 0.16,-0.81 Z"></path></g><g transform="translate(158 438) rotate(0 5.5 2.5)" stroke="none"><path fill="#1971c2" d="M 0,-1.17 Q 0,-1.17 0.86,-1.15 1.73,-1.14 3.07,-0.77 4.42,-0.40 5.33,0.04 6.24,0.50 6.80,0.61 7.35,0.73 8.06,1.13 8.76,1.53 9.67,1.63 10.58,1.74 10.72,1.79 10.85,1.85 10.97,1.94 11.08,2.03 11.17,2.14 11.27,2.25 11.33,2.39 11.39,2.52 11.42,2.66 11.45,2.81 11.44,2.95 11.44,3.10 11.39,3.24 11.35,3.38 11.28,3.50 11.21,3.63 11.11,3.73 11.00,3.84 10.88,3.92 10.76,3.99 10.62,4.04 10.48,4.09 10.33,4.10 10.19,4.11 10.04,4.08 9.90,4.06 9.27,4.17 8.63,4.27 7.68,4.31 6.72,4.35 5.72,4.37 4.73,4.40 3.78,4.40 2.83,4.41 1.72,5.37 0.61,6.33 0.38,6.39 0.15,6.46 -0.08,6.44 -0.31,6.43 -0.53,6.34 -0.75,6.25 -0.93,6.10 -1.12,5.94 -1.24,5.74 -1.36,5.54 -1.41,5.30 -1.46,5.07 -1.44,4.84 -1.41,4.60 -1.31,4.38 -1.21,4.17 -1.05,4.00 -0.88,3.82 -0.67,3.71 -0.46,3.60 -0.23,3.56 0.00,3.53 0.23,3.57 0.47,3.60 0.68,3.72 0.89,3.83 1.05,4.00 1.21,4.17 1.31,4.39 1.41,4.60 1.44,4.84 1.46,5.08 1.41,5.31 1.36,5.54 1.24,5.74 1.11,5.95 0.93,6.10 0.75,6.25 0.53,6.34 0.31,6.43 0.07,6.44 -0.16,6.45 -0.39,6.39 -0.61,6.33 -0.81,6.19 -1.01,6.06 -1.15,5.87 -1.29,5.68 -1.37,5.46 -1.44,5.23 -1.44,4.99 -1.44,4.75 -1.37,4.53 -1.29,4.30 -1.15,4.12 -1.00,3.93 -0.81,3.79 -0.61,3.66 -0.61,3.66 -0.61,3.66 1.01,2.62 2.64,1.58 3.19,1.58 3.73,1.57 4.73,1.59 5.72,1.61 6.70,1.64 7.68,1.67 8.55,1.71 9.42,1.74 10.00,1.74 10.58,1.74 10.72,1.79 10.85,1.85 10.97,1.94 11.08,2.03 11.17,2.14 11.27,2.25 11.33,2.39 11.39,2.52 11.42,2.66 11.45,2.81 11.44,2.95 11.44,3.10 11.39,3.24 11.35,3.38 11.28,3.50 11.21,3.63 11.11,3.73 11.00,3.84 10.88,3.92 10.76,3.99 10.62,4.04 10.48,4.09 10.33,4.10 10.19,4.11 10.04,4.08 9.90,4.06 9.40,3.97 8.90,3.88 7.83,3.31 6.77,2.75 6.06,2.51 5.35,2.28 4.65,1.92 3.94,1.55 2.83,1.34 1.71,1.14 0.85,1.15 0,1.17 -0.14,1.16 -0.28,1.14 -0.41,1.09 -0.54,1.04 -0.66,0.96 -0.78,0.88 -0.87,0.77 -0.97,0.66 -1.03,0.54 -1.10,0.41 -1.13,0.28 -1.17,0.14 -1.17,-0.00 -1.17,-0.14 -1.13,-0.28 -1.10,-0.41 -1.03,-0.54 -0.97,-0.67 -0.87,-0.77 -0.78,-0.88 -0.66,-0.96 -0.54,-1.04 -0.41,-1.09 -0.28,-1.14 -0.14,-1.16 0.00,-1.17 0.00,-1.17 L 0,-1.17 Z"></path></g><g transform="translate(294 371) rotate(0 7 14)" stroke="none"><path fill="#e03131" d="M 0.90,-0.30 Q 0.90,-0.30 1.18,0.56 1.47,1.42 1.84,2.66 2.21,3.91 2.38,5.67 2.54,7.44 2.88,9.27 3.22,11.10 3.36,13.37 3.50,15.65 3.56,17.18 3.61,18.71 3.66,19.65 3.71,20.59 3.77,21.28 3.83,21.97 3.89,22.55 3.94,23.13 3.98,23.67 4.03,24.20 4.09,25.22 4.16,26.25 4.11,27.46 4.05,28.67 3.89,28.67 3.73,28.68 3.71,28.84 3.69,28.99 3.64,29.14 3.58,29.29 3.49,29.42 3.40,29.55 3.28,29.65 3.16,29.76 3.02,29.83 2.89,29.91 2.73,29.94 2.58,29.98 2.42,29.98 2.26,29.98 2.11,29.94 1.96,29.91 1.82,29.83 1.68,29.76 1.56,29.65 1.44,29.55 1.35,29.42 1.26,29.29 1.20,29.14 1.15,28.99 1.13,28.84 1.11,28.68 0.94,27.88 0.77,27.07 0.78,26.16 0.79,25.24 1.11,24.36 1.44,23.47 1.92,22.27 2.41,21.08 2.87,20.32 3.33,19.56 3.96,19.02 4.59,18.48 5.25,18.23 5.91,17.97 6.51,17.87 7.10,17.77 7.64,17.73 8.19,17.68 9.51,17.68 10.82,17.67 11.45,17.67 12.07,17.66 13.02,17.91 13.96,18.17 14.44,18.90 14.91,19.64 15.06,20.30 15.20,20.96 15.27,21.54 15.33,22.12 15.32,22.96 15.31,23.79 15.24,24.81 15.16,25.83 14.42,26.82 13.68,27.81 12.63,28.23 11.58,28.65 10.87,28.81 10.16,28.97 9.41,29.25 8.66,29.53 7.93,29.72 7.20,29.91 5.11,30.06 3.02,30.21 2.83,30.18 2.63,30.15 2.46,30.07 2.28,29.98 2.14,29.84 2.00,29.70 1.92,29.52 1.83,29.35 1.81,29.15 1.78,28.96 1.82,28.76 1.86,28.57 1.95,28.40 2.05,28.23 2.20,28.10 2.35,27.97 2.53,27.89 2.71,27.81 2.90,27.80 3.10,27.78 3.29,27.83 3.48,27.88 3.65,27.99 3.81,28.09 3.93,28.25 4.06,28.40 4.12,28.59 4.19,28.77 4.19,28.97 4.20,29.17 4.14,29.35 4.08,29.54 3.97,29.70 3.85,29.86 3.69,29.97 3.53,30.09 3.34,30.14 3.15,30.20 2.96,30.19 2.76,30.19 2.58,30.12 2.39,30.05 2.24,29.93 2.09,29.80 1.98,29.64 1.88,29.47 1.83,29.28 1.78,29.09 1.80,28.89 1.82,28.70 1.90,28.51 1.97,28.33 2.11,28.19 2.24,28.04 2.41,27.95 2.58,27.85 2.78,27.82 2.97,27.78 2.97,27.78 2.97,27.78 4.83,27.72 6.70,27.65 7.26,27.55 7.83,27.45 8.77,27.06 9.71,26.66 10.27,26.57 10.83,26.49 11.42,26.34 12.00,26.18 12.41,25.82 12.81,25.46 12.72,24.66 12.62,23.85 12.56,22.66 12.49,21.46 12.29,20.90 12.08,20.33 11.46,20.33 10.84,20.33 9.58,20.36 8.33,20.38 7.48,20.41 6.64,20.44 6.01,20.62 5.39,20.79 4.72,21.96 4.06,23.12 3.66,24.20 3.26,25.27 3.29,26.47 3.31,27.66 3.52,28.17 3.73,28.68 3.71,28.84 3.69,28.99 3.64,29.14 3.58,29.29 3.49,29.42 3.40,29.55 3.28,29.65 3.17,29.76 3.03,29.83 2.89,29.91 2.73,29.94 2.58,29.98 2.42,29.98 2.26,29.98 2.11,29.94 1.96,29.91 1.82,29.83 1.68,29.76 1.56,29.65 1.44,29.55 1.35,29.42 1.26,29.29 1.20,29.14 1.15,28.99 1.13,28.84 1.11,28.68 1.52,28.26 1.94,27.84 1.88,27.05 1.83,26.25 1.89,25.23 1.96,24.21 2.00,23.68 2.04,23.15 2.08,22.57 2.12,22.00 2.16,21.32 2.20,20.64 2.19,19.71 2.18,18.78 2.11,17.26 2.03,15.75 1.87,13.57 1.71,11.39 1.32,9.50 0.93,7.61 0.75,6.03 0.57,4.45 0.12,3.23 -0.32,2.02 -0.61,1.16 -0.90,0.30 -0.92,0.18 -0.94,0.07 -0.94,-0.03 -0.93,-0.15 -0.90,-0.26 -0.87,-0.37 -0.81,-0.47 -0.76,-0.57 -0.68,-0.65 -0.60,-0.73 -0.50,-0.79 -0.40,-0.86 -0.29,-0.89 -0.18,-0.93 -0.07,-0.94 0.03,-0.95 0.15,-0.93 0.26,-0.91 0.37,-0.86 0.47,-0.82 0.56,-0.75 0.65,-0.68 0.73,-0.59 0.80,-0.50 0.85,-0.40 0.90,-0.30 0.90,-0.30 L 0.90,-0.30 Z"></path></g><g transform="translate(288 370) rotate(0 10.5 0.5)" stroke="none"><path fill="#e03131" d="M 0.38,-1.14 Q 0.38,-1.14 1.23,-0.83 2.08,-0.51 2.66,-0.42 3.24,-0.33 4.53,-0.27 5.82,-0.22 6.45,-0.22 7.08,-0.23 7.63,-0.24 8.18,-0.26 9.21,-0.29 10.24,-0.32 11.03,-0.30 11.82,-0.28 12.45,-0.29 13.07,-0.30 13.63,-0.31 14.18,-0.32 14.99,-0.30 15.80,-0.27 16.43,-0.28 17.06,-0.29 19.03,-0.31 21.00,-0.33 21.21,-0.30 21.42,-0.26 21.61,-0.16 21.80,-0.06 21.95,0.09 22.10,0.25 22.19,0.44 22.28,0.64 22.31,0.85 22.33,1.07 22.28,1.28 22.24,1.49 22.12,1.67 22.01,1.86 21.85,2.00 21.68,2.14 21.48,2.22 21.28,2.30 21.07,2.31 20.85,2.32 20.64,2.27 20.43,2.21 20.26,2.09 20.08,1.96 19.95,1.79 19.81,1.62 19.75,1.42 19.68,1.21 19.68,0.99 19.68,0.78 19.75,0.57 19.81,0.37 19.95,0.20 20.08,0.02 20.26,-0.09 20.43,-0.21 20.64,-0.27 20.85,-0.32 21.07,-0.31 21.28,-0.30 21.48,-0.22 21.68,-0.14 21.85,-0.00 22.01,0.13 22.12,0.32 22.24,0.50 22.28,0.71 22.33,0.92 22.31,1.14 22.28,1.35 22.19,1.55 22.10,1.74 21.95,1.90 21.80,2.06 21.61,2.16 21.42,2.26 21.21,2.30 20.99,2.33 20.99,2.33 20.99,2.33 19.03,2.31 17.06,2.29 16.43,2.28 15.80,2.27 14.99,2.30 14.18,2.32 13.63,2.31 13.07,2.29 12.45,2.29 11.82,2.28 11.03,2.30 10.24,2.32 9.20,2.28 8.16,2.25 7.60,2.22 7.04,2.20 6.40,2.18 5.76,2.15 4.90,2.14 4.05,2.13 3.43,2.05 2.81,1.97 2.09,1.81 1.36,1.66 0.49,1.40 -0.38,1.14 -0.51,1.08 -0.64,1.02 -0.76,0.93 -0.87,0.84 -0.96,0.72 -1.04,0.60 -1.10,0.47 -1.16,0.33 -1.18,0.19 -1.21,0.04 -1.19,-0.09 -1.18,-0.24 -1.14,-0.38 -1.09,-0.51 -1.01,-0.64 -0.93,-0.76 -0.83,-0.86 -0.72,-0.96 -0.60,-1.04 -0.47,-1.11 -0.33,-1.15 -0.19,-1.19 -0.04,-1.20 0.09,-1.20 0.24,-1.17 0.38,-1.14 0.38,-1.14 L 0.38,-1.14 Z"></path></g><g transform="translate(303 369) rotate(0 5.5 2.5)" stroke="none"><path fill="#e03131" d="M 0,-1.22 Q 0,-1.22 0.86,-1.19 1.72,-1.17 2.68,-1.13 3.64,-1.09 4.52,-0.77 5.41,-0.45 6.62,0.00 7.84,0.47 8.64,0.56 9.45,0.65 10.41,1.86 11.37,3.08 10.02,3.42 8.67,3.75 8.08,3.16 7.49,2.56 6.32,2.50 5.15,2.43 4.21,2.76 3.26,3.09 2.15,4.52 1.03,5.95 0.85,6.09 0.67,6.23 0.46,6.30 0.24,6.38 0.01,6.38 -0.20,6.39 -0.42,6.32 -0.64,6.25 -0.82,6.11 -1.00,5.98 -1.13,5.79 -1.26,5.60 -1.33,5.39 -1.39,5.17 -1.38,4.94 -1.37,4.71 -1.29,4.50 -1.21,4.29 -1.07,4.11 -0.92,3.94 -0.73,3.82 -0.53,3.70 -0.31,3.64 -0.09,3.59 0.13,3.61 0.35,3.63 0.56,3.73 0.77,3.82 0.94,3.97 1.10,4.13 1.21,4.33 1.32,4.53 1.36,4.75 1.40,4.98 1.37,5.20 1.33,5.43 1.23,5.63 1.13,5.83 0.96,5.99 0.80,6.15 0.60,6.25 0.39,6.34 0.16,6.37 -0.05,6.40 -0.27,6.35 -0.50,6.31 -0.69,6.19 -0.89,6.08 -1.04,5.91 -1.19,5.74 -1.28,5.53 -1.36,5.32 -1.38,5.09 -1.40,4.86 -1.34,4.64 -1.28,4.42 -1.15,4.23 -1.03,4.04 -1.03,4.04 -1.03,4.04 1.16,2.18 3.35,0.32 4.24,-0.00 5.13,-0.34 6.02,-0.34 6.91,-0.33 7.53,-0.21 8.16,-0.09 8.84,0.25 9.52,0.61 9.89,1.34 10.26,2.07 9.70,2.03 9.13,1.99 9.09,2.58 9.04,3.16 8.47,3.07 7.90,2.98 6.89,2.46 5.87,1.95 5.21,1.78 4.55,1.60 4.06,1.35 3.57,1.09 2.65,1.13 1.72,1.17 0.86,1.19 0,1.22 -0.14,1.20 -0.29,1.18 -0.43,1.13 -0.56,1.08 -0.68,0.99 -0.81,0.91 -0.90,0.80 -1.00,0.69 -1.07,0.56 -1.14,0.43 -1.17,0.29 -1.21,0.14 -1.21,-0.00 -1.21,-0.14 -1.17,-0.29 -1.14,-0.43 -1.07,-0.56 -1.00,-0.69 -0.90,-0.80 -0.81,-0.91 -0.68,-0.99 -0.56,-1.08 -0.43,-1.13 -0.29,-1.18 -0.14,-1.20 0.00,-1.22 0.00,-1.22 L 0,-1.22 Z"></path></g></svg>