<svg version="1.1" xmlns="http://www.w3.org/2000/svg" viewBox="0 0 854.3519631722476 552.2525926351548" width="854.3519631722476" height="552.2525926351548" class="excalidraw-svg"><!-- svg-source:excalidraw --><metadata></metadata><defs><style class="style-fonts">
      </style></defs><rect x="0" y="0" width="854.3519631722476" height="552.2525926351548" fill="#ffffff"></rect><g stroke-linecap="round"><g transform="translate(11.171459121257044 340.66215455010536) rotate(0 416.00452246486674 -0.5229977905199892)"><path d="M-1.17 -1.1 C137.32 -1.35, 691.97 -1.67, 831 -1.98 M0.41 0.93 C139.26 0.93, 694.46 0.08, 833.18 -0.43" stroke="#1e1e1e" stroke-width="2" fill="none"></path></g><g transform="translate(11.171459121257044 340.66215455010536) rotate(0 416.00452246486674 -0.5229977905199892)"><path d="M809.71 8.18 C815.05 4.11, 824.07 4.8, 833.18 -0.43 M809.71 8.18 C815.83 5.54, 820.42 4.95, 833.18 -0.43" stroke="#1e1e1e" stroke-width="2" fill="none"></path></g><g transform="translate(11.171459121257044 340.66215455010536) rotate(0 416.00452246486674 -0.5229977905199892)"><path d="M809.67 -8.92 C814.95 -7.78, 823.98 -1.89, 833.18 -0.43 M809.67 -8.92 C815.64 -7.78, 820.24 -4.59, 833.18 -0.43" stroke="#1e1e1e" stroke-width="2" fill="none"></path></g></g><mask></mask><g stroke-linecap="round"><g transform="translate(452.17145912125704 542.6621545501054) rotate(0 -1.8508055739104705 -266.53585823252797)"><path d="M0.46 -0.41 C-0.33 -89.18, -3.64 -444.21, -4.16 -532.66 M-0.76 -1.67 C-1.25 -90.29, -1.65 -442.92, -2.06 -531.47" stroke="#1e1e1e" stroke-width="2" fill="none"></path></g><g transform="translate(452.17145912125704 542.6621545501054) rotate(0 -1.8508055739104705 -266.53585823252797)"><path d="M6.55 -508 C2.86 -518.15, -0.59 -523.88, -2.06 -531.47 M6.55 -508 C3.24 -516.86, 1.08 -524.86, -2.06 -531.47" stroke="#1e1e1e" stroke-width="2" fill="none"></path></g><g transform="translate(452.17145912125704 542.6621545501054) rotate(0 -1.8508055739104705 -266.53585823252797)"><path d="M-10.55 -507.96 C-8.24 -518.18, -5.68 -523.93, -2.06 -531.47 M-10.55 -507.96 C-7.47 -516.76, -3.23 -524.79, -2.06 -531.47" stroke="#1e1e1e" stroke-width="2" fill="none"></path></g></g><mask></mask><g transform="translate(482.17145912125704 362.66215455010536) rotate(0 0.5 13.5)" stroke="none"><path fill="#1e1e1e" d="M 4.34,2.53 Q 4.34,2.53 2.12,5.86 -0.09,9.19 -1.47,11.76 -2.85,14.33 -3.73,16.92 -4.60,19.51 -1.71,21.43 1.16,23.35 2.63,21.49 4.10,19.63 4.17,17.13 4.25,14.63 4.21,11.90 4.17,9.16 4.13,6.30 4.08,3.45 4.96,3.77 5.83,4.10 4.70,3.89 3.57,3.68 2.57,3.12 1.57,2.55 0.80,1.70 0.02,0.85 -0.43,-0.19 -0.88,-1.25 -0.98,-2.39 -1.08,-3.54 -0.81,-4.66 -0.54,-5.77 0.07,-6.75 0.68,-7.72 1.58,-8.44 2.47,-9.17 3.55,-9.57 4.62,-9.97 5.77,-10.01 6.92,-10.04 8.02,-9.71 9.12,-9.38 10.06,-8.71 11.00,-8.04 11.67,-7.11 12.35,-6.18 12.69,-5.08 13.03,-3.99 13.01,-2.84 12.98,-1.69 12.59,-0.60 12.20,0.47 11.48,1.37 10.76,2.26 9.80,2.89 8.83,3.51 7.72,3.79 6.60,4.08 5.46,3.99 4.31,3.90 3.25,3.45 2.19,3.00 1.33,2.24 0.47,1.47 -0.09,0.47 -0.66,-0.52 -0.88,-1.64 -1.10,-2.77 -0.95,-3.91 -0.80,-5.05 -0.29,-6.08 0.21,-7.12 1.01,-7.93 1.82,-8.75 2.85,-9.27 3.88,-9.78 5.02,-9.94 6.16,-10.10 6.16,-10.10 6.16,-10.10 10.78,-8.71 15.40,-7.33 16.52,-5.10 17.64,-2.87 17.78,0.28 17.91,3.45 17.86,6.33 17.81,9.20 17.73,12.10 17.64,15.01 17.49,18.09 17.33,21.17 16.20,25.27 15.07,29.38 12.58,31.83 10.08,34.29 6.66,35.31 3.24,36.33 0.81,36.06 -1.61,35.78 -4.41,34.43 -7.21,33.07 -9.82,31.23 -12.42,29.38 -13.90,26.07 -15.38,22.77 -14.82,19.72 -14.26,16.66 -12.59,13.29 -10.91,9.92 -9.43,7.26 -7.95,4.60 -6.14,1.03 -4.34,-2.53 -3.97,-3.01 -3.60,-3.49 -3.13,-3.87 -2.66,-4.25 -2.11,-4.51 -1.56,-4.77 -0.97,-4.89 -0.38,-5.01 0.22,-4.98 0.82,-4.95 1.40,-4.78 1.99,-4.61 2.51,-4.30 3.03,-4.00 3.47,-3.58 3.90,-3.16 4.22,-2.64 4.55,-2.13 4.73,-1.55 4.92,-0.98 4.97,-0.37 5.02,0.22 4.92,0.82 4.82,1.42 4.58,1.97 4.34,2.53 4.34,2.53 L 4.34,2.53 Z"></path></g><g transform="translate(298.17145912125704 335.66215455010536) rotate(0 -1.5 4.5)" stroke="none"><path fill="#1e1e1e" d="M 4.60,1.31 Q 4.60,1.31 4.12,3.35 3.63,5.39 2.73,8.09 1.84,10.80 1.42,11.52 1.01,12.25 0.38,12.80 -0.23,13.36 -1.00,13.68 -1.77,14.01 -2.60,14.08 -3.43,14.14 -4.24,13.94 -5.05,13.73 -5.76,13.28 -6.46,12.83 -6.98,12.17 -7.50,11.52 -7.79,10.73 -8.07,9.95 -8.09,9.11 -8.11,8.28 -7.86,7.48 -7.61,6.68 -7.12,6.00 -6.63,5.33 -5.95,4.84 -5.27,4.36 -4.47,4.12 -3.67,3.87 -2.84,3.90 -2.00,3.93 -1.22,4.22 -0.43,4.51 0.20,5.04 0.85,5.56 1.30,6.27 1.75,6.97 1.95,7.79 2.14,8.60 2.07,9.43 2.00,10.26 1.67,11.03 1.34,11.79 0.77,12.41 0.21,13.03 -0.51,13.44 -1.23,13.85 -2.06,14.00 -2.88,14.16 -3.70,14.04 -4.53,13.93 -5.28,13.55 -6.03,13.18 -6.61,12.58 -7.20,11.99 -7.57,11.24 -7.94,10.49 -8.05,9.66 -8.16,8.83 -8.00,8.01 -7.84,7.19 -7.84,7.19 -7.84,7.19 -6.88,4.92 -5.93,2.65 -5.27,0.67 -4.60,-1.31 -4.38,-1.84 -4.15,-2.38 -3.81,-2.84 -3.46,-3.30 -3.02,-3.67 -2.57,-4.04 -2.05,-4.29 -1.53,-4.54 -0.96,-4.65 -0.40,-4.77 0.17,-4.75 0.75,-4.73 1.30,-4.57 1.86,-4.41 2.36,-4.12 2.86,-3.84 3.28,-3.44 3.70,-3.04 4.01,-2.55 4.32,-2.06 4.50,-1.52 4.69,-0.97 4.74,-0.39 4.78,0.17 4.69,0.74 4.60,1.31 4.60,1.31 L 4.60,1.31 Z"></path></g><g transform="translate(237.17145912125704 406.66215455010536) rotate(0 19 0)" stroke="none"><path fill="#1e1e1e" d="M 0,-4.47 Q 0,-4.47 4.31,-4.22 8.62,-3.98 13.62,-3.80 18.61,-3.62 22.46,-3.58 26.31,-3.55 28.80,-3.71 31.30,-3.88 34.65,-4.11 38,-4.34 38.69,-4.23 39.38,-4.11 40.00,-3.78 40.63,-3.46 41.11,-2.94 41.59,-2.43 41.89,-1.80 42.18,-1.16 42.26,-0.46 42.34,0.23 42.18,0.92 42.03,1.60 41.67,2.21 41.31,2.81 40.77,3.26 40.24,3.72 39.58,3.98 38.93,4.24 38.23,4.28 37.52,4.32 36.85,4.13 36.17,3.94 35.59,3.55 35.01,3.15 34.58,2.59 34.15,2.03 33.93,1.36 33.71,0.70 33.71,-0.00 33.71,-0.70 33.93,-1.37 34.15,-2.03 34.58,-2.59 35.01,-3.15 35.59,-3.55 36.17,-3.94 36.85,-4.13 37.53,-4.32 38.23,-4.28 38.93,-4.24 39.58,-3.98 40.24,-3.72 40.77,-3.26 41.31,-2.81 41.67,-2.21 42.03,-1.60 42.18,-0.92 42.34,-0.23 42.26,0.46 42.18,1.16 41.89,1.80 41.59,2.44 41.11,2.95 40.62,3.46 40.00,3.79 39.38,4.11 38.69,4.23 37.99,4.34 37.99,4.34 38,4.34 34.65,4.11 31.30,3.88 28.80,3.71 26.31,3.55 22.46,3.58 18.61,3.62 13.62,3.80 8.62,3.98 4.31,4.22 0,4.47 -0.53,4.40 -1.07,4.34 -1.57,4.15 -2.07,3.95 -2.52,3.65 -2.96,3.34 -3.32,2.94 -3.67,2.53 -3.93,2.06 -4.18,1.58 -4.30,1.06 -4.43,0.53 -4.43,-0.00 -4.43,-0.53 -4.30,-1.06 -4.18,-1.58 -3.93,-2.06 -3.67,-2.54 -3.32,-2.94 -2.96,-3.34 -2.52,-3.65 -2.07,-3.95 -1.57,-4.15 -1.06,-4.34 -0.53,-4.40 0.00,-4.47 0.00,-4.47 L 0,-4.47 Z"></path></g><g transform="translate(295.17145912125704 388.66215455010536) rotate(0 0 25.5)" stroke="none"><path fill="#1e1e1e" d="M 4.76,0 Q 4.76,0 4.48,4.6 4.20,9.2 4.13,12.87 4.06,16.56 4.13,19.56 4.20,22.56 4.25,25.56 4.30,28.56 4.38,31.27 4.46,33.98 4.54,36.58 4.62,39.17 4.71,41.42 4.80,43.67 4.97,47.33 5.14,51 5.00,51.82 4.87,52.64 4.48,53.37 4.09,54.11 3.48,54.68 2.88,55.25 2.12,55.60 1.37,55.95 0.54,56.04 -0.27,56.13 -1.09,55.95 -1.90,55.77 -2.61,55.34 -3.32,54.91 -3.86,54.28 -4.40,53.64 -4.71,52.87 -5.02,52.10 -5.06,51.27 -5.10,50.44 -4.88,49.64 -4.66,48.84 -4.19,48.15 -3.73,47.46 -3.06,46.96 -2.40,46.45 -1.61,46.19 -0.83,45.92 0.00,45.92 0.83,45.92 1.62,46.19 2.40,46.45 3.07,46.96 3.73,47.46 4.19,48.15 4.66,48.84 4.88,49.64 5.11,50.44 5.06,51.27 5.01,52.10 4.71,52.87 4.40,53.65 3.86,54.28 3.32,54.91 2.61,55.34 1.90,55.77 1.08,55.95 0.27,56.13 -0.54,56.04 -1.37,55.95 -2.13,55.60 -2.88,55.25 -3.48,54.68 -4.09,54.10 -4.48,53.37 -4.87,52.63 -5.00,51.81 -5.14,50.99 -5.14,50.99 -5.14,51 -4.97,47.33 -4.80,43.67 -4.71,41.42 -4.62,39.17 -4.54,36.58 -4.46,33.98 -4.38,31.27 -4.30,28.56 -4.25,25.56 -4.20,22.56 -4.13,19.56 -4.06,16.56 -4.13,12.87 -4.20,9.2 -4.48,4.6 -4.76,0 -4.69,-0.56 -4.62,-1.13 -4.41,-1.67 -4.21,-2.21 -3.88,-2.68 -3.56,-3.15 -3.13,-3.53 -2.70,-3.91 -2.19,-4.18 -1.68,-4.45 -1.13,-4.58 -0.57,-4.72 0.00,-4.72 0.57,-4.72 1.13,-4.58 1.68,-4.45 2.19,-4.18 2.70,-3.91 3.13,-3.53 3.56,-3.15 3.88,-2.68 4.21,-2.21 4.41,-1.67 4.62,-1.13 4.69,-0.56 4.76,0.00 4.76,0.00 L 4.76,0 Z"></path></g><g transform="translate(597.171459121257 474.66215455010536) rotate(0 0.00005000000000165983 0.00005000000000165983)" stroke="none"><path fill="#2f9e44" d="M 0.78,-0.78 Q 0.78,-0.78 0.89,-0.63 0.99,-0.49 1.04,-0.32 1.10,-0.14 1.09,0.02 1.09,0.20 1.02,0.37 0.96,0.54 0.85,0.68 0.74,0.82 0.59,0.92 0.43,1.02 0.26,1.06 0.09,1.10 -0.08,1.09 -0.26,1.07 -0.43,1.00 -0.59,0.93 -0.73,0.81 -0.86,0.69 -0.95,0.53 -1.04,0.38 -1.07,0.20 -1.10,0.03 -1.08,-0.14 -1.06,-0.32 -0.98,-0.48 -0.90,-0.64 -0.77,-0.77 -0.64,-0.90 -0.48,-0.98 -0.32,-1.06 -0.14,-1.08 0.03,-1.10 0.20,-1.07 0.38,-1.04 0.53,-0.95 0.69,-0.86 0.81,-0.73 0.93,-0.59 1.00,-0.43 1.07,-0.26 1.09,-0.08 1.10,0.09 1.06,0.26 1.01,0.43 0.92,0.59 0.82,0.74 0.68,0.85 0.54,0.96 0.37,1.02 0.20,1.09 0.02,1.09 -0.15,1.10 -0.32,1.04 -0.49,0.99 -0.63,0.88 -0.78,0.78 -0.78,0.78 -0.78,0.78 -0.86,0.67 -0.95,0.57 -1.00,0.45 -1.06,0.33 -1.08,0.19 -1.10,0.06 -1.10,-0.06 -1.09,-0.20 -1.05,-0.32 -1.01,-0.45 -0.94,-0.57 -0.87,-0.68 -0.77,-0.77 -0.68,-0.87 -0.57,-0.94 -0.45,-1.01 -0.32,-1.05 -0.20,-1.09 -0.06,-1.10 0.06,-1.10 0.19,-1.08 0.33,-1.06 0.45,-1.00 0.57,-0.95 0.67,-0.86 0.78,-0.78 0.78,-0.78 L 0.78,-0.78 Z"></path></g><g transform="translate(560.171459121257 87.66215455010536) rotate(0 -220 149)" stroke="none"><path fill="#2f9e44" d="M 2.19,0.31 Q 2.19,0.31 1.81,2.31 1.43,4.31 1.31,5.95 1.20,7.60 1.17,9.15 1.14,10.71 0.90,12.96 0.67,15.21 0.27,16.52 -0.12,17.83 -0.58,19.25 -1.05,20.67 -1.92,22.29 -2.79,23.92 -3.40,25.51 -4.01,27.10 -4.58,28.31 -5.15,29.53 -5.59,31.80 -6.04,34.08 -6.48,35.26 -6.93,36.44 -7.81,38.26 -8.70,40.08 -8.95,41.29 -9.21,42.50 -8.47,44.50 -7.73,46.50 -7.86,48.22 -7.99,49.93 -8.41,51.19 -8.84,52.45 -9.75,53.78 -10.65,55.11 -11.58,57.07 -12.51,59.03 -13.17,60.09 -13.82,61.15 -14.77,63.34 -15.72,65.53 -16.26,66.85 -16.81,68.18 -17.74,69.53 -18.67,70.87 -18.88,72.18 -19.09,73.49 -19.56,74.50 -20.03,75.51 -20.94,76.81 -21.86,78.12 -22.78,79.03 -23.71,79.94 -24.25,81.30 -24.79,82.66 -26.05,84.24 -27.31,85.82 -27.92,87.34 -28.52,88.86 -29.13,89.78 -29.73,90.70 -30.22,91.83 -30.72,92.97 -31.15,93.98 -31.58,94.99 -32.43,96.51 -33.29,98.03 -33.97,99.12 -34.65,100.20 -35.65,102.05 -36.64,103.89 -37.12,105.03 -37.59,106.17 -38.56,107.56 -39.52,108.95 -40.14,110.43 -40.75,111.92 -41.22,112.89 -41.69,113.87 -42.27,114.77 -42.86,115.66 -43.86,117.25 -44.86,118.84 -45.73,120.82 -46.59,122.80 -47.47,124.22 -48.35,125.64 -48.94,126.70 -49.53,127.75 -50.07,128.77 -50.60,129.79 -51.12,130.80 -51.63,131.81 -52.14,132.81 -52.64,133.81 -53.12,134.97 -53.60,136.13 -54.53,137.68 -55.46,139.24 -56.07,140.38 -56.68,141.52 -58.08,143.71 -59.47,145.91 -60.53,147.78 -61.59,149.65 -62.16,150.68 -62.73,151.71 -63.27,153.78 -63.82,155.85 -64.37,156.77 -64.91,157.69 -65.79,158.99 -66.67,160.30 -67.14,161.98 -67.61,163.67 -68.10,164.73 -68.58,165.79 -69.07,166.81 -69.57,167.83 -70.07,168.84 -70.57,169.85 -71.05,171.00 -71.53,172.15 -72.06,173.32 -72.60,174.50 -73.58,176.76 -74.57,179.03 -75.52,181.39 -76.47,183.76 -77.08,185.21 -77.69,186.66 -78.25,187.94 -78.81,189.22 -79.34,191.13 -79.86,193.04 -80.39,194.10 -80.92,195.17 -81.44,196.49 -81.95,197.82 -82.36,198.84 -82.77,199.85 -83.63,202.31 -84.49,204.76 -85.09,206.03 -85.68,207.30 -86.21,208.43 -86.74,209.55 -87.23,210.77 -87.72,211.99 -88.66,214.41 -89.60,216.83 -90.23,217.92 -90.86,219.01 -91.36,220.44 -91.85,221.87 -92.41,223.28 -92.97,224.70 -93.34,225.86 -93.71,227.02 -94.17,228.48 -94.63,229.94 -95.07,231.07 -95.51,232.21 -96.03,233.39 -96.55,234.56 -97.06,235.63 -97.58,236.70 -98.36,238.52 -99.15,240.34 -99.46,241.49 -99.77,242.64 -100.67,244.66 -101.57,246.68 -102.04,247.89 -102.52,249.10 -103.12,250.50 -103.73,251.91 -104.17,252.96 -104.61,254.02 -105.16,255.00 -105.72,255.98 -106.59,257.23 -107.46,258.48 -108.07,259.74 -108.67,260.99 -109.20,262.08 -109.72,263.16 -110.94,265.08 -112.17,267.00 -112.94,268.16 -113.72,269.33 -114.66,270.74 -115.60,272.15 -117.12,273.38 -118.65,274.61 -119.21,275.52 -119.78,276.44 -120.70,277.01 -121.62,277.58 -122.58,278.55 -123.54,279.52 -125.02,280.09 -126.51,280.66 -127.57,282.08 -128.63,283.49 -129.81,284.69 -130.99,285.88 -131.96,286.32 -132.93,286.76 -134.28,287.59 -135.63,288.42 -136.36,289.25 -137.09,290.08 -138.29,291.24 -139.49,292.39 -140.76,293.16 -142.03,293.92 -143.51,294.90 -145.00,295.88 -146.17,296.21 -147.35,296.55 -148.20,297.23 -149.04,297.92 -151.51,298.55 -153.97,299.18 -155.61,299.62 -157.26,300.07 -158.64,300.21 -160.01,300.34 -161.67,300.72 -163.33,301.09 -165.00,301.20 -166.67,301.31 -169.07,301.20 -171.46,301.10 -173.19,301.11 -174.93,301.13 -177.05,301.11 -179.17,301.08 -180.27,301.07 -181.37,301.06 -182.73,301.10 -184.10,301.14 -185.57,301.16 -187.05,301.18 -188.83,301.19 -190.61,301.19 -191.90,301.15 -193.19,301.11 -194.50,300.75 -195.81,300.38 -197.36,299.92 -198.92,299.45 -200.93,298.96 -202.95,298.48 -205.30,298.01 -207.64,297.53 -208.74,297.05 -209.84,296.56 -210.76,295.98 -211.67,295.40 -213.15,294.88 -214.62,294.36 -216.01,293.43 -217.41,292.51 -218.69,291.90 -219.96,291.29 -221.05,290.77 -222.14,290.25 -223.34,289.40 -224.54,288.54 -226.48,287.21 -228.41,285.88 -229.54,285.24 -230.67,284.60 -232.21,283.90 -233.75,283.19 -235.08,282.30 -236.40,281.40 -238.09,280.09 -239.78,278.78 -241.43,277.69 -243.08,276.61 -244.35,275.38 -245.63,274.15 -247.77,272.81 -249.91,271.48 -251.43,270.00 -252.96,268.52 -254.06,267.87 -255.15,267.21 -256.17,266.44 -257.19,265.68 -257.96,264.79 -258.73,263.91 -260.14,263.14 -261.56,262.37 -262.28,261.54 -263.01,260.71 -263.79,259.94 -264.56,259.17 -266.02,258.17 -267.48,257.17 -268.86,255.89 -270.25,254.61 -271.62,253.29 -272.99,251.97 -273.81,251.06 -274.63,250.14 -276.79,248.86 -278.94,247.58 -280.08,247.09 -281.22,246.61 -282.10,246.01 -282.99,245.41 -284.62,244.34 -286.24,243.28 -287.24,242.54 -288.24,241.79 -289.09,241.11 -289.94,240.43 -291.21,239.47 -292.48,238.52 -293.45,238.09 -294.42,237.65 -295.45,237.03 -296.48,236.41 -297.41,235.85 -298.35,235.29 -299.87,234.38 -301.40,233.47 -303.14,232.40 -304.89,231.32 -306.17,230.40 -307.46,229.48 -308.57,228.52 -309.68,227.56 -311.05,226.51 -312.42,225.46 -313.51,224.50 -314.61,223.54 -316.82,222.13 -319.02,220.72 -320.10,220.01 -321.17,219.30 -322.21,218.83 -323.25,218.37 -324.27,217.76 -325.30,217.15 -326.38,216.23 -327.47,215.31 -328.46,214.35 -329.46,213.38 -330.68,212.67 -331.91,211.96 -332.83,211.11 -333.75,210.26 -335.30,209.18 -336.84,208.10 -337.90,207.32 -338.96,206.53 -339.94,205.41 -340.92,204.29 -342.38,203.79 -343.83,203.30 -344.74,202.72 -345.65,202.14 -347.83,200.42 -350.02,198.70 -350.86,197.94 -351.70,197.19 -353.49,196.28 -355.27,195.36 -356.63,194.39 -357.98,193.42 -359.12,192.72 -360.25,192.02 -362.46,190.77 -364.68,189.52 -365.60,188.85 -366.53,188.18 -368.59,186.86 -370.66,185.54 -371.70,184.94 -372.73,184.34 -374.57,183.04 -376.40,181.74 -377.94,180.97 -379.47,180.20 -381.11,179.21 -382.75,178.22 -383.98,177.59 -385.21,176.96 -386.72,176.42 -388.23,175.89 -389.75,174.97 -391.27,174.06 -392.22,173.42 -393.16,172.78 -395.13,171.90 -397.09,171.02 -398.43,170.11 -399.76,169.20 -401.87,168.18 -403.97,167.16 -404.90,166.65 -405.83,166.13 -406.80,165.64 -407.77,165.14 -408.92,164.68 -410.07,164.21 -411.25,163.69 -412.44,163.17 -413.40,162.59 -414.37,162.02 -415.82,161.08 -417.26,160.13 -418.19,159.11 -419.12,158.08 -421.23,157.63 -423.34,157.17 -425.17,155.87 -427.00,154.58 -429.08,153.51 -431.17,152.45 -432.22,151.80 -433.28,151.14 -434.74,150.20 -436.21,149.25 -437.17,148.77 -438.14,148.30 -439.54,147.68 -440.93,147.07 -441.40,146.84 -441.87,146.61 -442.24,146.24 -442.61,145.88 -442.84,145.41 -443.07,144.94 -443.14,144.43 -443.21,143.91 -443.11,143.40 -443.02,142.89 -442.76,142.44 -442.51,141.98 -442.12,141.63 -441.73,141.29 -441.25,141.08 -440.78,140.87 -440.26,140.83 -439.74,140.79 -439.23,140.91 -438.73,141.04 -438.29,141.32 -437.85,141.60 -437.52,142.00 -437.20,142.41 -437.02,142.90 -436.84,143.38 -436.82,143.90 -436.81,144.42 -436.96,144.92 -437.11,145.42 -437.41,145.84 -437.72,146.27 -438.14,146.57 -438.56,146.88 -439.06,147.03 -439.56,147.18 -440.08,147.17 -440.60,147.16 -441.09,146.98 -441.57,146.80 -441.98,146.47 -442.39,146.15 -442.67,145.71 -442.95,145.27 -443.08,144.77 -443.20,144.26 -443.16,143.74 -443.12,143.22 -442.91,142.74 -442.71,142.27 -442.36,141.88 -442.01,141.49 -441.56,141.23 -441.11,140.98 -440.60,140.88 -440.09,140.78 -439.57,140.85 -439.05,140.92 -439.05,140.92 -439.06,140.92 -436.64,141.97 -434.23,143.02 -433.15,144.27 -432.06,145.51 -430.57,146.04 -429.08,146.56 -427.81,147.61 -426.54,148.66 -425.13,149.16 -423.72,149.66 -421.92,150.98 -420.12,152.31 -418.91,152.54 -417.69,152.78 -415.97,154.06 -414.26,155.34 -413.29,155.95 -412.32,156.57 -411.28,157.44 -410.23,158.32 -409.17,158.81 -408.11,159.31 -406.68,159.88 -405.25,160.45 -404.21,161.03 -403.18,161.61 -401.40,162.85 -399.63,164.09 -398.29,164.62 -396.94,165.15 -396.06,165.84 -395.18,166.52 -393.78,167.13 -392.38,167.74 -390.64,169.04 -388.91,170.35 -387.86,171.07 -386.80,171.79 -384.95,172.40 -383.10,173.01 -381.84,173.72 -380.59,174.44 -379.08,175.25 -377.57,176.06 -375.76,176.83 -373.95,177.59 -371.96,178.55 -369.98,179.51 -368.81,180.17 -367.63,180.84 -366.40,181.58 -365.17,182.32 -363.44,183.50 -361.71,184.68 -359.83,185.72 -357.94,186.76 -356.33,187.86 -354.73,188.95 -353.87,189.59 -353.01,190.23 -351.55,190.87 -350.08,191.50 -348.98,192.25 -347.89,193.00 -347.11,193.73 -346.33,194.46 -345.28,195.30 -344.24,196.14 -343.26,196.71 -342.29,197.27 -340.90,198.09 -339.51,198.91 -337.57,200.38 -335.62,201.85 -333.82,203.16 -332.02,204.48 -330.91,205.24 -329.80,206.00 -328.69,207.04 -327.57,208.08 -326.62,208.70 -325.67,209.31 -324.73,210.18 -323.79,211.04 -322.39,212.16 -320.99,213.29 -318.67,214.52 -316.34,215.76 -314.62,216.56 -312.89,217.36 -310.96,218.76 -309.02,220.16 -307.94,220.87 -306.86,221.58 -305.48,222.78 -304.11,223.98 -303.07,224.63 -302.04,225.28 -301.10,226.07 -300.15,226.86 -299.19,227.35 -298.23,227.84 -297.28,228.39 -296.33,228.93 -295.23,229.58 -294.13,230.23 -293.05,231.03 -291.98,231.84 -290.51,232.42 -289.05,233.00 -287.99,233.68 -286.92,234.36 -285.74,235.36 -284.55,236.37 -283.26,237.27 -281.96,238.16 -280.53,239.05 -279.09,239.94 -277.90,240.62 -276.71,241.30 -275.42,242.17 -274.12,243.03 -272.98,243.64 -271.85,244.25 -270.87,244.83 -269.88,245.41 -268.81,246.89 -267.74,248.38 -266.36,249.68 -264.98,250.99 -263.97,251.63 -262.95,252.27 -262.05,253.09 -261.16,253.92 -259.63,255.44 -258.11,256.97 -256.94,257.76 -255.76,258.56 -254.65,259.56 -253.54,260.56 -252.03,261.61 -250.51,262.67 -249.53,263.27 -248.55,263.88 -247.71,264.64 -246.88,265.41 -245.98,266.30 -245.07,267.19 -243.78,267.96 -242.50,268.72 -241.30,269.88 -240.10,271.05 -238.54,272.23 -236.98,273.41 -236.02,274.04 -235.06,274.68 -234.13,275.34 -233.19,276.01 -231.80,276.99 -230.40,277.98 -229.12,278.60 -227.84,279.22 -226.62,279.82 -225.39,280.42 -223.25,281.64 -221.11,282.85 -219.73,283.82 -218.34,284.79 -217.36,285.29 -216.38,285.80 -215.27,286.35 -214.17,286.89 -212.56,288.03 -210.96,289.16 -209.12,289.92 -207.28,290.67 -205.89,291.25 -204.50,291.83 -202.57,292.13 -200.63,292.44 -199.49,292.76 -198.34,293.08 -196.89,293.57 -195.44,294.06 -194.26,294.47 -193.07,294.88 -191.84,294.84 -190.61,294.80 -188.83,294.80 -187.05,294.81 -185.57,294.83 -184.10,294.85 -182.73,294.89 -181.37,294.93 -180.27,294.92 -179.17,294.91 -177.05,294.88 -174.94,294.86 -173.21,294.87 -171.47,294.88 -169.79,294.75 -168.10,294.62 -166.75,294.60 -165.39,294.58 -164.33,294.46 -163.26,294.34 -161.82,293.96 -160.38,293.57 -158.96,293.44 -157.54,293.30 -156.20,292.86 -154.86,292.41 -153.44,292.26 -152.03,292.11 -151.17,291.30 -150.31,290.49 -148.91,290.13 -147.52,289.77 -146.34,288.73 -145.17,287.69 -143.97,287.25 -142.78,286.81 -141.69,285.79 -140.59,284.77 -139.77,283.97 -138.94,283.16 -138.12,282.35 -137.29,281.53 -135.76,280.93 -134.23,280.33 -133.03,279.03 -131.83,277.73 -130.49,276.27 -129.16,274.81 -128.03,274.35 -126.91,273.90 -125.45,272.44 -123.99,270.98 -122.86,269.92 -121.72,268.86 -121.01,268.01 -120.29,267.16 -119.58,266.08 -118.87,265.00 -117.84,263.88 -116.82,262.76 -116.02,261.04 -115.22,259.32 -114.72,258.34 -114.21,257.36 -113.67,256.26 -113.12,255.15 -112.15,253.76 -111.19,252.36 -110.69,251.32 -110.20,250.27 -109.52,249.23 -108.84,248.19 -108.22,246.53 -107.59,244.88 -106.78,243.31 -105.98,241.73 -105.48,240.03 -104.97,238.34 -104.25,237.53 -103.52,236.72 -103.25,235.47 -102.97,234.21 -102.50,233.20 -102.04,232.19 -101.61,231.18 -101.19,230.17 -100.47,228.26 -99.75,226.35 -99.20,224.87 -98.64,223.38 -98.08,222.33 -97.52,221.28 -96.88,219.67 -96.24,218.06 -95.33,216.38 -94.42,214.69 -93.59,212.38 -92.76,210.06 -92.22,208.63 -91.69,207.19 -91.17,206.11 -90.65,205.04 -90.13,203.84 -89.60,202.65 -89.12,201.37 -88.65,200.10 -88.38,198.84 -88.11,197.59 -87.44,195.97 -86.77,194.35 -85.88,192.87 -84.99,191.38 -84.29,189.26 -83.60,187.14 -83.09,185.97 -82.57,184.80 -82.02,183.18 -81.46,181.56 -80.92,180.14 -80.38,178.71 -79.45,176.75 -78.51,174.79 -78.22,173.48 -77.92,172.17 -77.46,171.11 -76.99,170.04 -76.48,168.62 -75.97,167.20 -75.49,166.21 -75.01,165.22 -74.55,164.25 -74.09,163.29 -73.37,161.63 -72.65,159.96 -72.26,158.63 -71.88,157.29 -70.84,155.85 -69.81,154.41 -69.22,153.49 -68.64,152.58 -68.05,150.83 -67.47,149.07 -66.82,147.93 -66.18,146.79 -65.50,145.67 -64.82,144.55 -64.23,143.54 -63.64,142.54 -62.55,140.77 -61.47,139.00 -60.83,137.79 -60.20,136.58 -59.55,135.32 -58.90,134.05 -58.38,132.62 -57.85,131.20 -57.34,130.18 -56.83,129.17 -56.30,128.14 -55.78,127.11 -55.23,126.03 -54.68,124.96 -54.07,123.80 -53.47,122.64 -52.56,120.83 -51.66,119.01 -51.14,117.64 -50.62,116.28 -49.73,115.26 -48.84,114.24 -47.88,112.76 -46.91,111.29 -46.02,109.50 -45.12,107.71 -44.01,105.87 -42.90,104.03 -42.36,102.60 -41.82,101.18 -41.28,100.16 -40.74,99.13 -39.64,97.31 -38.53,95.48 -37.91,93.98 -37.29,92.47 -36.61,90.83 -35.94,89.19 -34.97,87.67 -34.00,86.15 -33.52,85.15 -33.03,84.15 -31.97,82.66 -30.92,81.17 -30.13,79.90 -29.35,78.63 -28.69,77.25 -28.04,75.86 -26.49,74.29 -24.94,72.71 -24.49,71.67 -24.05,70.63 -23.52,69.25 -22.99,67.87 -22.34,67.01 -21.69,66.15 -21.22,65.00 -20.75,63.86 -20.19,62.04 -19.63,60.23 -18.51,58.44 -17.38,56.66 -16.76,55.23 -16.14,53.80 -15.09,52.15 -14.04,50.49 -13.80,48.68 -13.56,46.86 -14.02,45.72 -14.47,44.58 -14.15,43.00 -13.83,41.42 -13.44,39.88 -13.06,38.34 -12.02,35.48 -10.98,32.61 -10.47,30.90 -9.96,29.18 -9.06,27.42 -8.16,25.65 -7.54,23.70 -6.92,21.75 -6.25,20.46 -5.57,19.16 -5.11,17.77 -4.65,16.37 -4.22,15.12 -3.79,13.87 -3.39,12.22 -2.98,10.57 -2.91,8.94 -2.84,7.31 -2.71,5.52 -2.58,3.73 -2.39,1.71 -2.19,-0.31 -2.12,-0.57 -2.05,-0.83 -1.92,-1.06 -1.79,-1.29 -1.61,-1.49 -1.43,-1.69 -1.21,-1.83 -0.98,-1.98 -0.73,-2.07 -0.48,-2.16 -0.21,-2.19 0.04,-2.21 0.31,-2.18 0.57,-2.14 0.82,-2.04 1.07,-1.94 1.28,-1.78 1.50,-1.62 1.67,-1.42 1.85,-1.22 1.97,-0.98 2.09,-0.74 2.14,-0.48 2.20,-0.22 2.20,0.04 2.19,0.31 2.19,0.31 L 2.19,0.31 Z"></path></g><g transform="translate(683.171459121257 494.66215455010536) rotate(0 0.00004999999998744897 0.00005000000000165983)" stroke="none"><path fill="#2f9e44" d="M 1.57,-1.57 Q 1.57,-1.57 1.77,-1.27 1.98,-0.98 2.09,-0.64 2.20,-0.29 2.19,0.05 2.18,0.41 2.05,0.75 1.93,1.09 1.70,1.37 1.48,1.65 1.18,1.84 0.87,2.04 0.52,2.12 0.18,2.21 -0.17,2.18 -0.53,2.15 -0.86,2.01 -1.19,1.87 -1.46,1.63 -1.73,1.39 -1.90,1.07 -2.08,0.76 -2.15,0.41 -2.21,0.05 -2.17,-0.29 -2.12,-0.65 -1.96,-0.97 -1.80,-1.29 -1.54,-1.54 -1.29,-1.80 -0.97,-1.96 -0.65,-2.12 -0.29,-2.17 0.06,-2.21 0.41,-2.15 0.76,-2.08 1.07,-1.90 1.39,-1.73 1.63,-1.46 1.87,-1.19 2.01,-0.86 2.15,-0.53 2.18,-0.17 2.21,0.18 2.12,0.52 2.03,0.87 1.84,1.18 1.65,1.48 1.37,1.70 1.09,1.93 0.75,2.05 0.41,2.18 0.05,2.19 -0.30,2.20 -0.64,2.09 -0.98,1.98 -1.27,1.77 -1.57,1.56 -1.57,1.57 -1.57,1.57 -1.73,1.35 -1.90,1.14 -2.01,0.90 -2.12,0.66 -2.16,0.39 -2.21,0.13 -2.20,-0.13 -2.18,-0.40 -2.10,-0.65 -2.02,-0.91 -1.88,-1.14 -1.74,-1.36 -1.55,-1.55 -1.36,-1.74 -1.14,-1.88 -0.91,-2.02 -0.65,-2.10 -0.40,-2.18 -0.13,-2.20 0.13,-2.21 0.39,-2.16 0.66,-2.12 0.90,-2.01 1.14,-1.90 1.35,-1.73 1.57,-1.57 1.57,-1.57 L 1.57,-1.57 Z"></path></g></svg>