<svg version="1.1" xmlns="http://www.w3.org/2000/svg" viewBox="0 0 831.4804769983888 623.6735433036367" width="831.4804769983888" height="623.6735433036367" class="excalidraw-svg"><!-- svg-source:excalidraw --><metadata></metadata><defs><style class="style-fonts">
      </style></defs><rect x="0" y="0" width="831.4804769983888" height="623.6735433036367" fill="#ffffff"></rect><g stroke-linecap="round"><g transform="translate(11.49813345876521 369.53513852375556) rotate(0 404.2421050404292 -2.317774055316113)"><path d="M-0.03 -0.7 C134.68 -1.76, 673 -5.52, 807.87 -6.18 M-1.5 1.54 C133.59 0.57, 674.98 -3.87, 809.98 -5.25" stroke="#1e1e1e" stroke-width="2" fill="none"></path></g><g transform="translate(11.49813345876521 369.53513852375556) rotate(0 404.2421050404292 -2.317774055316113)"><path d="M786.57 3.51 C791.67 -0.73, 797.18 -0.87, 809.98 -5.25 M786.57 3.51 C793.59 1.49, 801.16 -2.61, 809.98 -5.25" stroke="#1e1e1e" stroke-width="2" fill="none"></path></g><g transform="translate(11.49813345876521 369.53513852375556) rotate(0 404.2421050404292 -2.317774055316113)"><path d="M786.41 -13.59 C791.59 -13.24, 797.14 -8.78, 809.98 -5.25 M786.41 -13.59 C793.58 -9.93, 801.2 -8.36, 809.98 -5.25" stroke="#1e1e1e" stroke-width="2" fill="none"></path></g></g><mask></mask><g stroke-linecap="round"><g transform="translate(277.4981334587652 612.5351385237556) rotate(0 -0.10054861796088943 -300.6983668719372)"><path d="M-0.09 1.14 C-0.27 -98.77, -0.71 -500.4, -0.86 -600.61 M-1.6 0.69 C-1.41 -99.49, 0.91 -502.08, 1.4 -602.54" stroke="#1e1e1e" stroke-width="2" fill="none"></path></g><g transform="translate(277.4981334587652 612.5351385237556) rotate(0 -0.10054861796088943 -300.6983668719372)"><path d="M9.82 -579 C9.28 -587.88, 5.36 -595.57, 1.4 -602.54 M9.82 -579 C5.77 -586.83, 3.25 -597.02, 1.4 -602.54" stroke="#1e1e1e" stroke-width="2" fill="none"></path></g><g transform="translate(277.4981334587652 612.5351385237556) rotate(0 -0.10054861796088943 -300.6983668719372)"><path d="M-7.28 -579.09 C-2.42 -587.93, -0.93 -595.59, 1.4 -602.54 M-7.28 -579.09 C-4.98 -586.94, -1.15 -597.09, 1.4 -602.54" stroke="#1e1e1e" stroke-width="2" fill="none"></path></g></g><mask></mask><g transform="translate(257.4981334587652 380.53513852375556) rotate(0 -12 29.5)" stroke="none"><path fill="#1e1e1e" d="M 2.88,3.71 Q 2.88,3.71 0.27,5.69 -2.33,7.66 -4.37,9.74 -6.40,11.81 -9.16,14.59 -11.91,17.38 -14.15,20.38 -16.40,23.37 -17.42,25.72 -18.44,28.06 -20.01,31.53 -21.58,35.01 -21.64,37.66 -21.69,40.31 -21.65,44.20 -21.60,48.10 -19.02,49.88 -16.44,51.67 -13.31,49.34 -10.17,47.00 -8.42,44.72 -6.68,42.44 -6.16,39.94 -5.64,37.44 -5.47,33.79 -5.30,30.15 -5.31,27.04 -5.32,23.94 -5.38,21.75 -5.44,19.55 -5.53,16.52 -5.61,13.48 -5.29,10.30 -4.98,7.13 -4.18,3.96 -3.38,0.79 -2.86,-0.16 -2.34,-1.13 -1.54,-1.87 -0.74,-2.62 0.24,-3.07 1.24,-3.52 2.33,-3.63 3.41,-3.74 4.48,-3.50 5.55,-3.25 6.48,-2.68 7.41,-2.11 8.11,-1.27 8.81,-0.43 9.21,0.58 9.61,1.59 9.66,2.69 9.71,3.78 9.41,4.83 9.11,5.88 8.48,6.78 7.86,7.68 6.99,8.34 6.11,8.99 5.07,9.33 4.03,9.67 2.94,9.66 1.85,9.65 0.82,9.30 -0.21,8.94 -1.07,8.27 -1.94,7.60 -2.54,6.69 -3.15,5.78 -3.43,4.73 -3.72,3.67 -3.65,2.58 -3.58,1.49 -3.17,0.48 -2.76,-0.53 -2.04,-1.35 -1.33,-2.18 -0.39,-2.74 0.54,-3.29 1.61,-3.52 2.68,-3.75 3.77,-3.62 4.86,-3.49 5.84,-3.02 6.83,-2.56 7.62,-1.80 8.41,-1.04 8.91,-0.07 9.42,0.89 9.58,1.97 9.75,3.05 9.57,4.13 9.38,5.20 9.38,5.20 9.38,5.20 8.92,6.25 8.47,7.29 8.04,10.38 7.61,13.48 7.52,16.53 7.44,19.58 7.36,21.81 7.29,24.03 7.21,27.25 7.13,30.46 7.09,32.85 7.06,35.23 6.88,37.46 6.70,39.68 6.23,41.92 5.77,44.15 3.39,48.64 1.00,53.13 -1.68,55.77 -4.36,58.42 -6.22,60.36 -8.07,62.31 -10.82,63.55 -13.58,64.78 -17.64,63.57 -21.71,62.35 -24.81,60.44 -27.92,58.52 -29.67,56.52 -31.43,54.53 -31.95,52.41 -32.47,50.30 -32.29,47.05 -32.11,43.80 -31.95,41.65 -31.80,39.51 -31.49,37.02 -31.17,34.53 -30.42,32.44 -29.67,30.35 -27.75,27.38 -25.82,24.41 -24.32,21.66 -22.82,18.91 -20.49,15.35 -18.15,11.78 -15.54,8.59 -12.93,5.40 -10.47,2.89 -8.01,0.38 -5.45,-1.66 -2.88,-3.71 -2.40,-4.00 -1.91,-4.29 -1.37,-4.46 -0.83,-4.63 -0.26,-4.66 0.30,-4.69 0.85,-4.59 1.41,-4.48 1.93,-4.25 2.44,-4.01 2.89,-3.66 3.33,-3.31 3.68,-2.86 4.03,-2.41 4.26,-1.90 4.49,-1.38 4.59,-0.82 4.69,-0.26 4.66,0.29 4.62,0.86 4.45,1.40 4.28,1.94 3.98,2.43 3.69,2.91 3.29,3.31 2.88,3.71 2.88,3.71 L 2.88,3.71 Z"></path></g><g transform="translate(429.4981334587652 361.53513852375556) rotate(0 0 6.5)" stroke="none"><path fill="#1e1e1e" d="M 4.96,0 Q 4.96,0 5.04,2.01 5.12,4.02 5.27,8.51 5.41,13 5.27,13.86 5.13,14.72 4.72,15.50 4.31,16.27 3.67,16.88 3.03,17.48 2.24,17.85 1.44,18.21 0.57,18.31 -0.29,18.40 -1.14,18.21 -2.00,18.03 -2.75,17.57 -3.50,17.12 -4.07,16.45 -4.64,15.79 -4.96,14.97 -5.28,14.16 -5.33,13.28 -5.38,12.41 -5.14,11.56 -4.91,10.72 -4.42,10.00 -3.93,9.27 -3.23,8.74 -2.53,8.21 -1.70,7.93 -0.87,7.65 0.00,7.65 0.87,7.65 1.70,7.93 2.53,8.21 3.23,8.74 3.93,9.27 4.42,10.00 4.91,10.72 5.14,11.57 5.38,12.41 5.33,13.29 5.28,14.16 4.96,14.97 4.63,15.79 4.07,16.46 3.50,17.12 2.75,17.58 2.00,18.03 1.14,18.21 0.29,18.40 -0.57,18.31 -1.45,18.21 -2.24,17.84 -3.04,17.48 -3.67,16.87 -4.31,16.27 -4.72,15.50 -5.13,14.72 -5.27,13.86 -5.41,12.99 -5.41,12.99 -5.41,13 -5.27,8.51 -5.12,4.02 -5.04,2.01 -4.96,0 -4.88,-0.59 -4.81,-1.18 -4.60,-1.74 -4.39,-2.30 -4.05,-2.79 -3.71,-3.28 -3.26,-3.68 -2.81,-4.08 -2.28,-4.36 -1.75,-4.63 -1.17,-4.78 -0.59,-4.92 0.00,-4.92 0.59,-4.92 1.17,-4.78 1.75,-4.63 2.28,-4.35 2.81,-4.08 3.26,-3.68 3.71,-3.28 4.05,-2.79 4.39,-2.30 4.60,-1.74 4.81,-1.18 4.88,-0.59 4.96,0.00 4.96,0.00 L 4.96,0 Z"></path></g><g transform="translate(433.4981334587652 427.53513852375556) rotate(0 1 17)" stroke="none"><path fill="#1e1e1e" d="M 5.21,0 Q 5.21,0 5.14,3.16 5.06,6.32 5.10,8.81 5.14,11.31 5.19,13.52 5.25,15.73 5.40,18.87 5.55,22.01 5.93,24.43 6.32,26.85 7.05,29.36 7.79,31.86 7.97,32.84 8.16,33.82 8.03,34.81 7.90,35.80 7.45,36.70 7.01,37.59 6.30,38.30 5.60,39.00 4.70,39.45 3.81,39.89 2.82,40.03 1.83,40.16 0.85,39.98 -0.12,39.79 -0.99,39.30 -1.86,38.81 -2.52,38.06 -3.19,37.32 -3.59,36.41 -3.98,35.49 -4.06,34.49 -4.15,33.50 -3.91,32.53 -3.67,31.56 -3.13,30.72 -2.59,29.88 -1.81,29.25 -1.04,28.63 -0.10,28.28 0.83,27.94 1.83,27.91 2.82,27.88 3.78,28.17 4.73,28.47 5.54,29.05 6.36,29.63 6.94,30.44 7.52,31.25 7.82,32.20 8.11,33.16 8.08,34.16 8.06,35.15 7.71,36.09 7.37,37.03 6.74,37.81 6.12,38.59 5.28,39.12 4.44,39.66 3.47,39.90 2.50,40.15 1.50,40.06 0.51,39.98 -0.40,39.59 -1.32,39.20 -2.06,38.53 -2.80,37.86 -3.29,36.99 -3.79,36.13 -3.79,36.13 -3.79,36.13 -4.48,32.87 -5.17,29.62 -5.36,25.82 -5.55,22.01 -5.40,18.87 -5.25,15.73 -5.19,13.52 -5.14,11.31 -5.10,8.81 -5.06,6.32 -5.14,3.16 -5.21,0 -5.13,-0.62 -5.06,-1.24 -4.84,-1.83 -4.61,-2.42 -4.26,-2.94 -3.90,-3.45 -3.43,-3.87 -2.96,-4.29 -2.40,-4.58 -1.84,-4.87 -1.23,-5.02 -0.62,-5.17 0.00,-5.17 0.62,-5.17 1.23,-5.02 1.84,-4.87 2.40,-4.58 2.96,-4.29 3.43,-3.87 3.90,-3.45 4.26,-2.94 4.61,-2.42 4.84,-1.83 5.06,-1.24 5.13,-0.62 5.21,0.00 5.21,0.00 L 5.21,0 Z"></path></g><g transform="translate(529.4981334587652 115.53513852375556) rotate(0 -124.5 170)" stroke="none"><path fill="#2f9e44" d="M 1.36,1.02 Q 1.36,1.02 0.56,2.20 -0.23,3.39 -0.76,4.83 -1.29,6.27 -1.86,8.03 -2.42,9.80 -3.29,11.58 -4.16,13.36 -4.80,15.34 -5.45,17.32 -6.69,19.51 -7.93,21.71 -8.67,24.14 -9.41,26.58 -10.34,29.42 -11.28,32.25 -12.27,34.65 -13.27,37.05 -14.26,39.48 -15.26,41.91 -16.27,44.12 -17.28,46.33 -17.94,48.10 -18.61,49.88 -19.12,51.28 -19.62,52.68 -20.08,54.09 -20.53,55.51 -21.00,56.98 -21.46,58.44 -21.92,59.73 -22.38,61.01 -22.83,62.35 -23.28,63.69 -23.75,64.92 -24.23,66.16 -24.69,67.27 -25.16,68.38 -26.04,70.61 -26.93,72.83 -27.45,74.66 -27.97,76.50 -28.43,77.57 -28.89,78.64 -29.43,79.98 -29.97,81.33 -30.38,83.04 -30.80,84.76 -31.24,86.47 -31.68,88.18 -32.22,89.25 -32.76,90.31 -33.26,91.77 -33.77,93.22 -34.60,94.84 -35.44,96.46 -36.01,97.56 -36.58,98.65 -37.11,100.04 -37.64,101.43 -38.20,102.97 -38.77,104.51 -39.35,106.24 -39.94,107.97 -40.86,109.77 -41.78,111.57 -42.42,113.26 -43.07,114.95 -44.00,116.72 -44.93,118.48 -45.16,119.59 -45.40,120.69 -46.21,122.50 -47.02,124.31 -47.22,125.45 -47.43,126.59 -47.84,128.06 -48.25,129.54 -49.10,131.39 -49.96,133.24 -50.55,134.59 -51.13,135.95 -51.64,137.31 -52.14,138.68 -52.67,140.34 -53.20,142.00 -53.70,143.41 -54.21,144.83 -54.69,146.24 -55.17,147.64 -56.05,149.07 -56.94,150.51 -57.50,152.28 -58.06,154.05 -58.55,155.62 -59.04,157.19 -59.93,158.94 -60.82,160.68 -61.41,162.13 -62.01,163.57 -62.94,165.39 -63.88,167.21 -64.55,168.99 -65.22,170.78 -65.76,172.24 -66.30,173.70 -66.78,175.12 -67.27,176.55 -67.75,177.82 -68.24,179.09 -68.70,180.42 -69.16,181.74 -69.65,182.98 -70.13,184.21 -70.66,185.16 -71.19,186.11 -71.62,188.04 -72.04,189.96 -72.66,190.91 -73.28,191.86 -74.07,194.08 -74.85,196.29 -75.42,198.22 -75.99,200.15 -76.45,201.28 -76.92,202.41 -77.34,203.55 -77.75,204.69 -78.20,205.89 -78.65,207.10 -79.22,208.16 -79.79,209.23 -80.30,210.71 -80.82,212.18 -81.66,214.41 -82.49,216.64 -83.08,218.76 -83.67,220.88 -84.14,222.40 -84.62,223.93 -85.14,225.17 -85.65,226.41 -86.09,227.57 -86.53,228.74 -87.48,230.96 -88.44,233.17 -89.07,234.83 -89.70,236.48 -90.19,237.69 -90.69,238.90 -90.87,240.36 -91.06,241.83 -91.66,242.80 -92.25,243.77 -92.50,244.90 -92.74,246.03 -93.09,247.09 -93.44,248.16 -94.04,249.55 -94.63,250.94 -95.02,252.06 -95.41,253.18 -95.93,254.33 -96.45,255.47 -97.61,257.52 -98.77,259.57 -99.05,260.98 -99.33,262.40 -99.90,263.46 -100.47,264.53 -100.95,265.82 -101.42,267.11 -101.95,268.29 -102.48,269.47 -103.33,271.24 -104.19,273.00 -104.85,274.09 -105.51,275.18 -106.63,277.13 -107.75,279.07 -108.72,280.81 -109.70,282.55 -110.63,284.27 -111.57,285.99 -112.18,287.11 -112.78,288.22 -113.63,289.90 -114.48,291.57 -115.07,292.56 -115.67,293.56 -116.62,294.96 -117.57,296.37 -118.54,298.18 -119.51,299.98 -120.11,300.88 -120.72,301.77 -121.62,303.41 -122.52,305.05 -123.13,305.93 -123.73,306.81 -125.05,308.48 -126.37,310.15 -127.25,310.90 -128.13,311.66 -128.92,313.16 -129.72,314.67 -130.84,315.99 -131.95,317.31 -133.22,318.97 -134.48,320.63 -135.73,322.10 -136.98,323.58 -138.30,324.81 -139.61,326.04 -140.55,326.92 -141.50,327.81 -142.67,328.63 -143.84,329.46 -145.17,330.28 -146.50,331.11 -147.55,331.61 -148.59,332.12 -149.66,332.74 -150.73,333.35 -152.00,334.41 -153.27,335.47 -154.60,335.99 -155.94,336.50 -157.54,337.27 -159.14,338.04 -161.02,339.36 -162.90,340.68 -164.41,341.24 -165.92,341.81 -166.94,342.11 -167.96,342.42 -171.00,342.91 -174.04,343.40 -175.45,343.47 -176.85,343.53 -178.33,343.55 -179.81,343.56 -181.98,343.62 -184.14,343.68 -185.60,343.76 -187.05,343.83 -189.15,343.85 -191.24,343.86 -192.51,343.51 -193.78,343.17 -194.81,342.73 -195.84,342.29 -196.84,341.81 -197.84,341.34 -198.84,340.85 -199.84,340.36 -200.99,339.89 -202.14,339.42 -203.50,338.89 -204.86,338.36 -206.78,337.02 -208.70,335.68 -209.97,334.95 -211.25,334.22 -212.38,333.64 -213.52,333.05 -214.62,332.00 -215.73,330.96 -216.63,330.05 -217.52,329.14 -218.38,327.61 -219.23,326.09 -220.57,324.97 -221.90,323.85 -223.30,321.83 -224.70,319.82 -225.89,318.06 -227.09,316.30 -228.12,315.18 -229.16,314.06 -229.78,313.03 -230.40,312.00 -231.41,310.95 -232.43,309.90 -233.32,308.63 -234.22,307.36 -235.47,305.62 -236.72,303.88 -237.55,302.50 -238.38,301.13 -239.05,300.04 -239.72,298.96 -240.63,297.46 -241.54,295.96 -241.98,294.66 -242.42,293.36 -242.92,291.91 -243.42,290.45 -244.11,288.65 -244.80,286.84 -245.33,285.30 -245.87,283.76 -246.42,282.27 -246.96,280.79 -247.10,279.41 -247.23,278.02 -247.64,276.80 -248.05,275.58 -248.17,273.93 -248.29,272.29 -248.68,270.47 -249.07,268.65 -249.55,267.66 -250.04,266.67 -250.70,265.22 -251.36,263.77 -251.84,261.61 -252.32,259.45 -252.30,258.91 -252.29,258.37 -252.10,257.86 -251.91,257.35 -251.57,256.92 -251.23,256.50 -250.78,256.21 -250.32,255.92 -249.80,255.79 -249.27,255.65 -248.73,255.70 -248.19,255.74 -247.69,255.96 -247.19,256.17 -246.79,256.53 -246.38,256.89 -246.12,257.37 -245.85,257.84 -245.75,258.37 -245.64,258.90 -245.72,259.44 -245.79,259.98 -246.03,260.46 -246.27,260.95 -246.65,261.33 -247.04,261.72 -247.52,261.96 -248.01,262.20 -248.55,262.27 -249.08,262.35 -249.62,262.24 -250.15,262.14 -250.62,261.88 -251.09,261.61 -251.46,261.21 -251.82,260.80 -252.03,260.30 -252.25,259.81 -252.29,259.27 -252.34,258.72 -252.21,258.20 -252.07,257.67 -251.78,257.21 -251.49,256.76 -251.07,256.42 -250.65,256.08 -250.14,255.89 -249.63,255.70 -249.09,255.69 -248.54,255.67 -248.03,255.83 -247.51,255.99 -247.07,256.31 -246.63,256.62 -246.31,257.06 -245.99,257.50 -245.83,258.02 -245.67,258.54 -245.67,258.54 -245.67,258.54 -245.51,259.73 -245.34,260.92 -244.87,261.88 -244.40,262.83 -244.00,263.97 -243.60,265.12 -243.01,266.64 -242.41,268.16 -242.02,270.13 -241.63,272.10 -241.55,273.58 -241.47,275.06 -241.07,276.34 -240.67,277.61 -240.69,278.90 -240.70,280.20 -240.11,281.62 -239.52,283.04 -239.00,284.54 -238.48,286.05 -238.01,287.04 -237.54,288.03 -237.07,289.51 -236.60,291.00 -236.19,292.59 -235.79,294.18 -234.70,295.79 -233.62,297.40 -232.72,298.66 -231.81,299.93 -231.29,301.07 -230.77,302.21 -230.10,303.04 -229.42,303.87 -228.72,304.80 -228.01,305.72 -226.88,307.02 -225.75,308.32 -225.00,309.97 -224.24,311.61 -223.40,312.40 -222.56,313.18 -221.74,314.36 -220.91,315.53 -220.05,317.22 -219.19,318.91 -218.06,320.12 -216.93,321.33 -215.85,322.47 -214.77,323.62 -214.29,324.61 -213.80,325.60 -212.46,327.16 -211.11,328.72 -209.98,329.34 -208.85,329.97 -207.48,330.73 -206.12,331.48 -204.55,332.29 -202.97,333.10 -201.52,333.57 -200.06,334.03 -198.65,334.55 -197.24,335.06 -195.34,335.99 -193.44,336.91 -192.29,337.52 -191.13,338.13 -189.10,338.14 -187.06,338.15 -185.61,338.22 -184.17,338.29 -182.04,338.31 -179.92,338.34 -178.52,338.30 -177.13,338.25 -175.82,338.18 -174.51,338.11 -173.09,337.92 -171.66,337.73 -169.84,337.15 -168.02,336.56 -165.97,335.65 -163.92,334.73 -161.75,333.28 -159.58,331.84 -158.57,331.32 -157.56,330.81 -156.54,330.31 -155.52,329.80 -154.60,329.14 -153.67,328.48 -151.69,327.40 -149.72,326.33 -147.74,324.90 -145.75,323.48 -144.84,322.53 -143.94,321.58 -143.08,320.72 -142.22,319.87 -141.22,319.19 -140.21,318.52 -139.06,316.83 -137.91,315.15 -136.75,313.63 -135.60,312.11 -134.74,311.06 -133.88,310.02 -132.58,308.29 -131.29,306.56 -130.46,305.32 -129.64,304.09 -128.81,303.12 -127.99,302.15 -127.47,301.15 -126.96,300.16 -125.98,298.65 -125.01,297.14 -124.51,296.14 -124.01,295.15 -123.48,294.15 -122.95,293.16 -122.33,292.15 -121.71,291.13 -120.95,290.17 -120.19,289.20 -119.38,287.62 -118.58,286.04 -117.75,284.60 -116.93,283.16 -116.40,282.16 -115.88,281.16 -114.86,279.55 -113.85,277.93 -112.69,276.28 -111.53,274.63 -110.70,272.58 -109.87,270.53 -109.41,269.27 -108.95,268.01 -108.53,266.63 -108.12,265.24 -107.52,264.19 -106.92,263.13 -106.30,261.77 -105.67,260.40 -105.16,258.58 -104.65,256.75 -103.82,255.39 -102.99,254.03 -102.57,252.63 -102.15,251.24 -101.58,250.27 -101.02,249.30 -100.51,248.28 -100.01,247.26 -99.51,245.83 -99.01,244.40 -98.46,242.91 -97.91,241.42 -97.46,240.42 -97.01,239.43 -96.54,237.35 -96.07,235.27 -95.32,233.98 -94.56,232.69 -93.69,230.82 -92.82,228.96 -92.30,227.01 -91.79,225.06 -91.38,223.72 -90.98,222.37 -90.39,221.37 -89.80,220.37 -89.30,218.95 -88.81,217.54 -88.24,215.73 -87.68,213.92 -87.12,212.43 -86.56,210.95 -86.21,209.62 -85.85,208.29 -84.94,206.74 -84.03,205.18 -83.27,203.15 -82.51,201.12 -81.41,199.00 -80.30,196.88 -80.00,195.57 -79.69,194.27 -79.22,193.19 -78.75,192.11 -77.79,190.22 -76.84,188.34 -76.49,187.21 -76.14,186.08 -75.26,184.22 -74.37,182.36 -73.86,181.28 -73.34,180.20 -72.79,178.79 -72.24,177.37 -71.70,176.26 -71.17,175.14 -70.60,173.66 -70.03,172.19 -69.45,170.87 -68.87,169.55 -68.25,167.51 -67.64,165.46 -66.90,163.68 -66.16,161.90 -65.52,160.29 -64.88,158.67 -64.22,157.28 -63.56,155.89 -63.11,154.15 -62.66,152.40 -62.18,151.15 -61.70,149.89 -61.21,148.94 -60.72,148.00 -60.03,147.07 -59.33,146.14 -58.81,144.70 -58.28,143.26 -57.77,142.03 -57.25,140.80 -56.74,138.95 -56.24,137.11 -55.65,135.62 -55.06,134.14 -54.43,132.86 -53.81,131.58 -53.15,129.93 -52.50,128.27 -52.08,126.93 -51.65,125.58 -51.24,124.13 -50.83,122.68 -50.18,121.10 -49.54,119.53 -49.06,118.08 -48.58,116.64 -47.83,115.11 -47.08,113.59 -46.48,111.59 -45.88,109.59 -45.22,108.13 -44.56,106.67 -44.13,104.78 -43.70,102.89 -43.25,101.32 -42.79,99.76 -42.26,97.90 -41.73,96.04 -40.68,93.99 -39.63,91.93 -39.29,90.62 -38.95,89.30 -38.12,87.87 -37.29,86.44 -36.76,84.57 -36.23,82.70 -35.83,81.38 -35.42,80.06 -34.58,78.23 -33.73,76.39 -32.89,74.60 -32.04,72.81 -31.03,70.87 -30.02,68.93 -29.69,67.69 -29.35,66.45 -28.82,65.43 -28.28,64.41 -27.75,63.32 -27.22,62.24 -26.67,60.84 -26.11,59.43 -25.56,58.32 -25.01,57.20 -24.44,55.73 -23.87,54.25 -23.24,52.81 -22.62,51.36 -21.96,50.09 -21.29,48.82 -20.53,47.01 -19.77,45.20 -18.80,43.04 -17.83,40.87 -16.86,38.43 -15.89,35.98 -14.97,33.68 -14.05,31.37 -13.18,28.55 -12.31,25.72 -11.51,22.96 -10.71,20.20 -9.69,18.27 -8.67,16.35 -8.04,14.05 -7.42,11.76 -6.66,10.24 -5.89,8.73 -5.33,6.80 -4.77,4.88 -3.99,3.04 -3.21,1.20 -2.28,0.09 -1.36,-1.02 -1.21,-1.16 -1.07,-1.31 -0.90,-1.42 -0.73,-1.53 -0.53,-1.60 -0.34,-1.66 -0.13,-1.68 0.06,-1.69 0.26,-1.66 0.47,-1.63 0.66,-1.55 0.84,-1.47 1.01,-1.35 1.17,-1.22 1.30,-1.06 1.43,-0.90 1.52,-0.72 1.61,-0.53 1.65,-0.33 1.69,-0.13 1.68,0.06 1.67,0.27 1.62,0.46 1.56,0.66 1.46,0.84 1.35,1.02 1.35,1.02 L 1.36,1.02 Z"></path></g><g transform="translate(279.4981334587652 362.53513852375556) rotate(0 -3.5 6)" stroke="none"><path fill="#2f9e44" d="M 0,2.65 Q 0,2.65 -1.43,2.63 -2.87,2.61 -4.02,3.05 -5.17,3.48 -6.63,4.40 -8.08,5.31 -9.10,6.36 -10.12,7.40 -8.98,8.44 -7.84,9.48 -5.75,10.04 -3.67,10.59 -2.55,11.08 -1.43,11.56 -1.04,9.72 -0.65,7.88 -0.18,6.79 0.28,5.70 0.93,3.71 1.58,1.72 2.04,-0.13 2.50,-1.98 1.13,-2.83 -0.22,-3.68 -0.09,-4.06 0.03,-4.43 0.24,-4.77 0.46,-5.10 0.75,-5.38 1.04,-5.65 1.38,-5.84 1.73,-6.04 2.11,-6.15 2.49,-6.26 2.89,-6.27 3.29,-6.28 3.68,-6.20 4.07,-6.11 4.42,-5.94 4.78,-5.77 5.09,-5.51 5.39,-5.26 5.63,-4.94 5.87,-4.62 6.02,-4.25 6.17,-3.89 6.23,-3.49 6.29,-3.10 6.26,-2.70 6.22,-2.31 3.92,-1.15 1.61,-0.00 1.17,-0.30 0.73,-0.60 0.41,-1.02 0.08,-1.45 -0.08,-1.95 -0.25,-2.46 -0.25,-2.99 -0.25,-3.52 -0.08,-4.03 0.08,-4.54 0.40,-4.96 0.72,-5.39 1.16,-5.69 1.61,-5.99 2.12,-6.13 2.63,-6.27 3.17,-6.25 3.70,-6.22 4.20,-6.02 4.69,-5.82 5.10,-5.48 5.51,-5.13 5.78,-4.68 6.06,-4.22 6.17,-3.70 6.29,-3.18 6.23,-2.65 6.17,-2.12 5.95,-1.63 5.73,-1.15 5.36,-0.76 4.99,-0.37 4.52,-0.12 4.05,0.12 3.53,0.21 3.00,0.29 2.47,0.21 1.95,0.12 1.47,-0.12 1.00,-0.37 0.63,-0.75 0.27,-1.14 0.04,-1.62 -0.17,-2.11 -0.23,-2.64 -0.29,-3.17 -0.17,-3.69 -0.06,-4.21 0.20,-4.67 0.48,-5.13 0.88,-5.47 1.29,-5.82 1.79,-6.02 2.28,-6.22 2.81,-6.24 3.35,-6.27 1.56,-4.98 -0.22,-3.68 -0.09,-4.06 0.03,-4.43 0.24,-4.77 0.46,-5.10 0.75,-5.38 1.04,-5.65 1.38,-5.84 1.73,-6.04 2.11,-6.15 2.49,-6.26 2.89,-6.27 3.29,-6.28 3.68,-6.20 4.07,-6.11 4.42,-5.94 4.78,-5.77 5.09,-5.51 5.39,-5.26 5.63,-4.94 5.87,-4.62 6.02,-4.25 6.17,-3.89 6.23,-3.49 6.29,-3.10 6.26,-2.70 6.22,-2.31 7.47,-2.40 8.71,-2.49 8.63,-1.06 8.55,0.37 8.21,1.54 7.87,2.70 7.34,3.97 6.81,5.24 6.55,6.61 6.30,7.98 5.81,9.40 5.32,10.81 4.56,12.45 3.79,14.08 3.27,15.06 2.75,16.05 1.36,16.98 -0.01,17.91 -1.95,17.93 -3.88,17.94 -5.75,16.95 -7.62,15.96 -9.36,15.24 -11.09,14.51 -12.06,13.53 -13.04,12.56 -14.09,11.48 -15.15,10.40 -15.53,9.03 -15.91,7.66 -15.70,6.37 -15.50,5.08 -14.34,3.58 -13.19,2.09 -11.69,1.05 -10.19,0.01 -9.09,-0.58 -7.99,-1.18 -5.43,-1.90 -2.87,-2.61 -1.43,-2.63 0,-2.65 0.31,-2.61 0.63,-2.57 0.93,-2.45 1.23,-2.34 1.49,-2.16 1.75,-1.98 1.96,-1.74 2.18,-1.50 2.32,-1.22 2.47,-0.93 2.55,-0.62 2.63,-0.31 2.63,0.00 2.63,0.31 2.55,0.62 2.47,0.93 2.32,1.22 2.18,1.50 1.96,1.74 1.75,1.98 1.49,2.16 1.23,2.34 0.93,2.46 0.63,2.57 0.31,2.61 -0.00,2.65 -0.00,2.65 L 0,2.65 Z"></path></g><g transform="translate(529.4981334587652 213.53513852375556) rotate(0 5 5)" stroke="none"><path fill="#2f9e44" d="M 1.18,-2.37 Q 1.18,-2.37 2.36,-1.78 3.54,-1.19 4.38,-0.44 5.22,0.30 6.73,1.24 8.24,2.17 8.99,3.20 9.74,4.24 11.18,6.33 12.61,8.43 12.80,8.89 12.98,9.35 13.00,9.84 13.03,10.33 12.89,10.81 12.76,11.28 12.48,11.69 12.21,12.10 11.81,12.40 11.42,12.69 10.95,12.85 10.48,13.01 9.99,13.01 9.49,13.01 9.03,12.85 8.56,12.69 8.17,12.39 7.77,12.09 7.50,11.68 7.22,11.27 7.09,10.79 6.96,10.32 6.99,9.82 7.02,9.33 7.20,8.87 7.38,8.41 7.71,8.04 8.03,7.66 8.45,7.41 8.87,7.16 9.36,7.05 9.84,6.95 10.33,7.00 10.82,7.06 11.27,7.27 11.71,7.47 12.07,7.81 12.43,8.15 12.66,8.59 12.89,9.03 12.97,9.52 13.05,10.00 12.97,10.49 12.88,10.98 12.65,11.41 12.42,11.85 12.06,12.19 11.70,12.53 11.25,12.73 10.80,12.94 10.31,12.99 9.82,13.04 9.34,12.93 8.86,12.83 8.44,12.57 8.01,12.32 7.69,11.94 7.38,11.56 7.38,11.56 7.38,11.56 6.07,9.52 4.77,7.48 3.93,6.35 3.08,5.21 2.07,4.35 1.05,3.49 -0.06,2.93 -1.18,2.37 -1.45,2.20 -1.72,2.02 -1.94,1.78 -2.15,1.55 -2.31,1.27 -2.46,0.99 -2.54,0.68 -2.63,0.37 -2.63,0.05 -2.64,-0.26 -2.57,-0.58 -2.50,-0.89 -2.35,-1.18 -2.21,-1.46 -2.00,-1.71 -1.80,-1.95 -1.54,-2.14 -1.28,-2.32 -0.98,-2.44 -0.68,-2.56 -0.36,-2.61 -0.05,-2.65 0.26,-2.62 0.58,-2.59 0.88,-2.48 1.18,-2.37 1.18,-2.37 L 1.18,-2.37 Z"></path></g><g transform="translate(550.4981334587652 198.53513852375556) rotate(0 -22 45)" stroke="none"><path fill="#2f9e44" d="M 1.61,0 Q 1.61,0 1.66,1.72 1.70,3.44 1.65,5.90 1.59,8.36 1.61,10.27 1.62,12.18 1.58,14.42 1.53,16.67 1.50,19.64 1.47,22.61 1.16,25.11 0.84,27.61 -0.18,30.77 -1.21,33.94 -1.91,37.17 -2.61,40.40 -3.51,43.03 -4.42,45.66 -4.69,47.27 -4.97,48.87 -5.34,50.27 -5.72,51.67 -6.17,52.68 -6.62,53.69 -7.36,55.92 -8.11,58.14 -9.00,59.60 -9.89,61.06 -11.25,62.61 -12.62,64.16 -14.09,65.63 -15.56,67.11 -17.03,68.79 -18.50,70.47 -20.05,72.08 -21.61,73.70 -23.76,75.57 -25.92,77.43 -27.99,79.07 -30.06,80.72 -32.10,82.27 -34.14,83.82 -36.16,85.34 -38.18,86.85 -40.56,89.04 -42.94,91.22 -43.17,91.36 -43.39,91.50 -43.64,91.55 -43.90,91.61 -44.16,91.58 -44.42,91.56 -44.66,91.45 -44.90,91.34 -45.09,91.16 -45.28,90.98 -45.40,90.75 -45.53,90.52 -45.57,90.26 -45.61,90.00 -45.57,89.74 -45.53,89.49 -45.41,89.25 -45.29,89.02 -45.10,88.84 -44.91,88.66 -44.67,88.55 -44.44,88.44 -44.17,88.41 -43.91,88.38 -43.66,88.43 -43.40,88.49 -43.18,88.62 -42.95,88.76 -42.78,88.96 -42.61,89.15 -42.51,89.40 -42.42,89.64 -42.40,89.90 -42.38,90.16 -42.45,90.42 -42.52,90.67 -42.67,90.89 -42.81,91.10 -43.02,91.26 -43.23,91.42 -43.48,91.51 -43.73,91.59 -43.99,91.59 -44.25,91.59 -44.50,91.51 -44.75,91.43 -44.96,91.27 -45.17,91.11 -45.31,90.90 -45.46,90.68 -45.53,90.43 -45.60,90.18 -45.59,89.92 -45.58,89.65 -45.48,89.41 -45.39,89.17 -45.22,88.97 -45.05,88.77 -45.05,88.77 -45.05,88.77 -42.46,86.70 -39.88,84.62 -37.89,83.09 -35.90,81.55 -33.91,79.98 -31.93,78.42 -29.95,76.77 -27.97,75.12 -25.99,73.31 -24.01,71.50 -22.61,69.88 -21.20,68.26 -19.77,66.38 -18.34,64.50 -17.05,63.01 -15.75,61.52 -14.66,60.16 -13.57,58.80 -12.75,57.47 -11.93,56.13 -11.33,55.14 -10.72,54.16 -9.84,52.35 -8.95,50.53 -8.44,49.37 -7.92,48.21 -7.45,46.49 -6.99,44.78 -6.14,42.30 -5.30,39.82 -4.58,36.45 -3.87,33.07 -2.93,30.16 -1.99,27.26 -1.73,24.93 -1.47,22.61 -1.50,19.64 -1.53,16.67 -1.58,14.42 -1.62,12.18 -1.61,10.27 -1.59,8.36 -1.65,5.90 -1.70,3.44 -1.66,1.72 -1.61,0 -1.59,-0.19 -1.57,-0.38 -1.50,-0.56 -1.43,-0.75 -1.32,-0.91 -1.21,-1.07 -1.06,-1.20 -0.91,-1.33 -0.74,-1.42 -0.57,-1.51 -0.38,-1.55 -0.19,-1.60 0.00,-1.60 0.19,-1.60 0.38,-1.55 0.57,-1.51 0.74,-1.42 0.91,-1.33 1.06,-1.20 1.21,-1.07 1.32,-0.91 1.43,-0.75 1.50,-0.56 1.57,-0.38 1.59,-0.19 1.61,0.00 1.61,0.00 L 1.61,0 Z"></path></g><g transform="translate(568.4981334587652 216.53513852375556) rotate(0 21.5 0)" stroke="none"><path fill="#2f9e44" d="M 0,-2.12 Q 0,-2.12 11.21,-2.01 22.42,-1.91 27.47,-1.83 32.53,-1.75 34.96,-1.69 37.40,-1.63 40.20,-1.72 43,-1.81 43.28,-1.76 43.57,-1.72 43.83,-1.58 44.09,-1.44 44.30,-1.23 44.50,-1.01 44.62,-0.75 44.75,-0.48 44.78,-0.19 44.81,0.09 44.75,0.38 44.68,0.67 44.53,0.92 44.38,1.17 44.16,1.36 43.93,1.55 43.66,1.66 43.39,1.77 43.09,1.78 42.80,1.80 42.52,1.72 42.23,1.64 41.99,1.48 41.75,1.31 41.57,1.08 41.39,0.85 41.30,0.57 41.20,0.29 41.20,-0.00 41.20,-0.29 41.30,-0.57 41.39,-0.85 41.57,-1.08 41.75,-1.31 41.99,-1.48 42.23,-1.64 42.52,-1.72 42.80,-1.80 43.09,-1.78 43.39,-1.77 43.66,-1.66 43.93,-1.55 44.16,-1.36 44.38,-1.17 44.53,-0.92 44.68,-0.67 44.75,-0.38 44.81,-0.09 44.78,0.19 44.74,0.48 44.62,0.75 44.50,1.01 44.30,1.23 44.09,1.44 43.83,1.58 43.57,1.72 43.28,1.76 42.99,1.81 42.99,1.81 43,1.81 40.20,1.72 37.40,1.63 34.96,1.69 32.53,1.75 27.47,1.83 22.42,1.91 11.21,2.01 0,2.12 -0.25,2.09 -0.50,2.06 -0.74,1.97 -0.98,1.88 -1.19,1.73 -1.40,1.59 -1.57,1.39 -1.74,1.20 -1.86,0.98 -1.98,0.75 -2.04,0.50 -2.11,0.25 -2.11,-0.00 -2.11,-0.25 -2.04,-0.50 -1.98,-0.75 -1.86,-0.98 -1.74,-1.20 -1.57,-1.39 -1.40,-1.59 -1.19,-1.73 -0.98,-1.88 -0.74,-1.97 -0.50,-2.06 -0.25,-2.09 0.00,-2.12 0.00,-2.12 L 0,-2.12 Z"></path></g><g transform="translate(571.4981334587652 228.53513852375556) rotate(0 23 -1)" stroke="none"><path fill="#2f9e44" d="M -0.25,-2.04 Q -0.25,-2.04 2.05,-2.23 4.36,-2.42 7.43,-2.48 10.50,-2.53 16.12,-2.53 21.73,-2.53 25.83,-2.51 29.93,-2.49 32.24,-2.47 34.56,-2.45 35.98,-2.81 37.39,-3.17 39.41,-3.55 41.44,-3.94 43.70,-4.12 45.97,-4.30 46.34,-4.24 46.71,-4.19 47.04,-4.01 47.37,-3.84 47.63,-3.58 47.89,-3.31 48.05,-2.97 48.21,-2.64 48.25,-2.27 48.30,-1.90 48.22,-1.53 48.14,-1.17 47.96,-0.84 47.77,-0.52 47.49,-0.28 47.20,-0.03 46.86,0.10 46.51,0.24 46.14,0.26 45.77,0.29 45.41,0.19 45.05,0.10 44.74,-0.10 44.43,-0.31 44.20,-0.60 43.97,-0.89 43.85,-1.25 43.73,-1.60 43.72,-1.97 43.72,-2.34 43.83,-2.70 43.95,-3.05 44.17,-3.35 44.39,-3.65 44.70,-3.86 45.01,-4.07 45.36,-4.18 45.72,-4.28 46.09,-4.27 46.47,-4.25 46.81,-4.12 47.16,-3.98 47.45,-3.74 47.73,-3.50 47.93,-3.19 48.13,-2.87 48.21,-2.51 48.29,-2.14 48.26,-1.77 48.22,-1.40 48.07,-1.06 47.92,-0.72 47.66,-0.45 47.41,-0.18 47.08,-0.00 46.75,0.17 46.39,0.23 46.02,0.30 46.02,0.30 46.02,0.30 43.84,0.19 41.66,0.09 39.82,0.06 37.99,0.03 36.28,0.25 34.58,0.48 32.26,0.52 29.95,0.55 25.85,0.62 21.76,0.68 16.20,0.78 10.65,0.89 7.74,1.08 4.83,1.27 2.54,1.66 0.25,2.04 0.00,2.05 -0.24,2.05 -0.48,1.99 -0.72,1.93 -0.94,1.81 -1.16,1.70 -1.35,1.53 -1.54,1.37 -1.68,1.17 -1.82,0.96 -1.91,0.73 -2.00,0.50 -2.03,0.25 -2.06,0.00 -2.03,-0.24 -2.00,-0.48 -1.91,-0.72 -1.83,-0.95 -1.69,-1.15 -1.55,-1.36 -1.36,-1.52 -1.17,-1.69 -0.95,-1.81 -0.73,-1.92 -0.49,-1.98 -0.25,-2.04 -0.25,-2.04 L -0.25,-2.04 Z"></path></g><g transform="translate(625.4981334587652 213.53513852375556) rotate(0 11.5 8)" stroke="none"><path fill="#2f9e44" d="M -1.56,-0.78 Q -1.56,-0.78 -0.69,-2.50 0.17,-4.22 1.16,-6.08 2.15,-7.95 3.97,-9.12 5.79,-10.29 7.15,-9.48 8.51,-8.68 9.54,-6.53 10.57,-4.38 11.41,-2.14 12.25,0.09 13.42,2.42 14.58,4.74 15.42,7.63 16.26,10.52 17.13,12.77 18.00,15.03 18.93,16.81 19.85,18.59 20.63,19.92 21.41,21.24 22.52,22.29 23.62,23.33 23.87,23.48 24.12,23.62 24.31,23.84 24.50,24.05 24.61,24.32 24.72,24.58 24.74,24.87 24.76,25.16 24.69,25.43 24.62,25.71 24.46,25.95 24.31,26.19 24.08,26.37 23.85,26.55 23.58,26.64 23.31,26.74 23.03,26.75 22.74,26.75 22.47,26.67 22.19,26.58 21.96,26.41 21.73,26.24 21.56,26.00 21.40,25.77 21.32,25.49 21.23,25.22 21.24,24.93 21.25,24.64 21.36,24.38 21.46,24.11 21.64,23.88 21.82,23.66 22.06,23.51 22.31,23.36 22.59,23.29 22.87,23.22 23.15,23.25 23.44,23.28 23.70,23.39 23.96,23.51 24.18,23.70 24.39,23.90 24.53,24.15 24.67,24.40 24.72,24.68 24.77,24.96 24.73,25.25 24.69,25.53 24.56,25.79 24.43,26.04 24.22,26.25 24.02,26.45 23.76,26.57 23.50,26.70 23.22,26.73 22.93,26.77 22.65,26.71 22.37,26.66 22.37,26.66 22.37,26.66 20.44,24.69 18.51,22.73 17.90,21.34 17.28,19.94 16.27,18.03 15.26,16.13 14.29,13.76 13.32,11.40 12.52,8.82 11.72,6.24 10.39,3.82 9.06,1.41 8.09,-0.73 7.12,-2.88 6.09,-4.67 5.05,-6.47 4.16,-4.57 3.27,-2.67 2.42,-0.94 1.56,0.78 1.45,0.96 1.33,1.13 1.17,1.27 1.02,1.42 0.83,1.52 0.65,1.62 0.44,1.68 0.24,1.73 0.03,1.74 -0.17,1.74 -0.38,1.69 -0.58,1.65 -0.77,1.55 -0.96,1.46 -1.12,1.32 -1.28,1.18 -1.41,1.01 -1.53,0.84 -1.61,0.64 -1.69,0.45 -1.72,0.24 -1.75,0.03 -1.73,-0.17 -1.71,-0.38 -1.63,-0.58 -1.56,-0.78 -1.56,-0.78 L -1.56,-0.78 Z"></path></g><g transform="translate(643.4981334587652 211.53513852375556) rotate(0 -7 11)" stroke="none"><path fill="#2f9e44" d="M 1.63,1.35 Q 1.63,1.35 0.11,3.01 -1.40,4.66 -2.21,6.11 -3.02,7.56 -4.00,9.14 -4.98,10.71 -5.97,12.24 -6.97,13.77 -7.98,15.48 -8.98,17.20 -10.01,18.65 -11.04,20.11 -11.62,21.50 -12.19,22.89 -12.38,23.15 -12.57,23.42 -12.84,23.61 -13.10,23.80 -13.41,23.89 -13.72,23.99 -14.05,23.98 -14.37,23.97 -14.68,23.86 -14.98,23.75 -15.24,23.54 -15.49,23.34 -15.67,23.07 -15.84,22.79 -15.92,22.48 -16.00,22.16 -15.97,21.84 -15.95,21.51 -15.82,21.21 -15.69,20.91 -15.47,20.67 -15.26,20.43 -14.97,20.27 -14.69,20.11 -14.37,20.05 -14.05,19.99 -13.73,20.03 -13.41,20.07 -13.11,20.22 -12.82,20.36 -12.59,20.59 -12.36,20.82 -12.22,21.11 -12.07,21.40 -12.03,21.73 -11.99,22.05 -12.05,22.37 -12.11,22.69 -12.27,22.97 -12.43,23.25 -12.67,23.47 -12.91,23.69 -13.21,23.82 -13.51,23.95 -13.83,23.97 -14.16,24.00 -14.47,23.92 -14.79,23.84 -15.06,23.67 -15.34,23.49 -15.54,23.24 -15.74,22.99 -15.86,22.68 -15.97,22.38 -15.98,22.05 -15.99,21.72 -15.89,21.41 -15.80,21.10 -15.80,21.10 -15.80,21.10 -14.90,19.51 -14.00,17.92 -13.04,16.70 -12.07,15.49 -11.10,13.61 -10.12,11.73 -9.15,10.23 -8.18,8.72 -7.25,7.22 -6.31,5.71 -5.33,3.97 -4.34,2.23 -2.98,0.43 -1.63,-1.35 -1.44,-1.53 -1.25,-1.70 -1.03,-1.83 -0.81,-1.96 -0.56,-2.02 -0.31,-2.09 -0.06,-2.10 0.19,-2.11 0.44,-2.06 0.69,-2.00 0.92,-1.89 1.15,-1.78 1.34,-1.61 1.54,-1.45 1.69,-1.24 1.84,-1.04 1.94,-0.80 2.04,-0.56 2.08,-0.31 2.12,-0.06 2.09,0.19 2.07,0.44 1.99,0.68 1.90,0.92 1.76,1.14 1.63,1.35 1.63,1.35 L 1.63,1.35 Z"></path></g><g transform="translate(658.4981334587652 183.53513852375556) rotate(0 2.5 30.5)" stroke="none"><path fill="#2f9e44" d="M 1.67,-0.23 Q 1.67,-0.23 1.93,1.77 2.19,3.79 2.27,6.45 2.36,9.11 2.66,12.47 2.97,15.83 3.66,19.80 4.35,23.78 4.92,26.93 5.50,30.08 5.75,32.92 6.00,35.77 6.10,38.13 6.20,40.49 6.24,42.65 6.27,44.80 6.40,46.29 6.53,47.78 6.73,49.38 6.94,50.98 7.08,52.09 7.22,53.21 7.34,54.92 7.46,56.64 7.55,58.82 7.64,60.99 7.57,61.42 7.50,61.84 7.30,62.22 7.10,62.59 6.79,62.89 6.48,63.18 6.09,63.36 5.70,63.54 5.28,63.59 4.85,63.63 4.43,63.54 4.02,63.45 3.65,63.23 3.29,63.01 3.01,62.68 2.73,62.36 2.57,61.96 2.42,61.56 2.39,61.14 2.37,60.71 2.48,60.30 2.60,59.89 2.84,59.53 3.08,59.18 3.42,58.92 3.76,58.66 4.16,58.53 4.57,58.39 5.00,58.39 5.42,58.39 5.83,58.53 6.23,58.66 6.57,58.92 6.91,59.18 7.15,59.53 7.39,59.89 7.51,60.30 7.62,60.71 7.60,61.14 7.57,61.56 7.42,61.96 7.26,62.36 6.98,62.68 6.70,63.01 6.34,63.23 5.97,63.45 5.55,63.54 5.14,63.63 4.71,63.59 4.29,63.54 3.90,63.36 3.51,63.18 3.20,62.89 2.89,62.59 2.69,62.22 2.49,61.84 2.42,61.42 2.35,60.99 2.35,60.99 2.35,61.00 2.44,58.82 2.53,56.64 2.65,54.93 2.77,53.21 2.90,52.11 3.04,51.00 3.22,49.41 3.41,47.82 3.49,46.34 3.58,44.86 3.53,42.74 3.48,40.61 3.36,38.31 3.25,36.02 2.99,33.31 2.74,30.60 2.13,27.44 1.52,24.29 0.77,20.21 0.02,16.12 -0.35,12.69 -0.72,9.25 -0.88,6.75 -1.04,4.25 -1.35,2.24 -1.67,0.23 -1.67,0.03 -1.68,-0.16 -1.63,-0.36 -1.59,-0.56 -1.50,-0.74 -1.41,-0.93 -1.27,-1.08 -1.14,-1.24 -0.98,-1.36 -0.81,-1.47 -0.62,-1.55 -0.43,-1.63 -0.23,-1.66 -0.03,-1.68 0.16,-1.66 0.36,-1.64 0.56,-1.58 0.75,-1.51 0.92,-1.40 1.09,-1.28 1.23,-1.13 1.37,-0.98 1.46,-0.81 1.56,-0.63 1.61,-0.43 1.67,-0.23 1.67,-0.23 L 1.67,-0.23 Z"></path></g><g transform="translate(678.4981334587652 208.53513852375556) rotate(0 8.5 12)" stroke="none"><path fill="#2f9e44" d="M 2.14,-0.53 Q 2.14,-0.53 2.60,1.79 3.06,4.12 3.35,5.75 3.64,7.38 4.00,9.14 4.35,10.90 4.80,12.48 5.25,14.05 5.45,16.06 5.64,18.07 6.01,19.60 6.37,21.13 6.62,22.17 6.87,23.20 7.00,24.19 7.14,25.17 7.15,25.44 7.16,25.71 7.10,25.98 7.04,26.25 6.93,26.50 6.81,26.74 6.64,26.95 6.46,27.17 6.24,27.33 6.02,27.49 5.77,27.60 5.52,27.71 5.25,27.75 4.98,27.79 4.71,27.77 4.44,27.75 4.18,27.66 3.92,27.57 3.69,27.42 3.46,27.28 3.27,27.08 3.08,26.88 2.94,26.64 2.81,26.41 2.73,26.14 2.66,25.88 3.45,23.21 4.25,20.54 4.55,18.38 4.86,16.23 5.63,13.94 6.41,11.65 6.98,9.87 7.54,8.09 7.70,6.60 7.87,5.11 8.22,3.12 8.57,1.13 9.52,-0.42 10.47,-1.97 12.03,-3.20 13.59,-4.43 15.06,-3.24 16.52,-2.06 16.66,-0.91 16.80,0.22 16.79,1.60 16.78,2.98 16.96,4.50 17.15,6.01 17.31,7.09 17.47,8.17 17.49,9.87 17.51,11.57 17.71,13.23 17.91,14.90 18.07,16.33 18.23,17.76 18.50,19.38 18.78,20.99 19.10,23.36 19.42,25.72 19.40,26.12 19.38,26.51 19.24,26.88 19.09,27.25 18.84,27.55 18.58,27.85 18.24,28.06 17.91,28.26 17.52,28.35 17.13,28.43 16.74,28.39 16.35,28.35 15.99,28.19 15.63,28.02 15.34,27.75 15.05,27.48 14.87,27.13 14.68,26.78 14.62,26.39 14.55,26.00 14.62,25.61 14.68,25.22 14.86,24.87 15.05,24.52 15.33,24.25 15.62,23.98 15.98,23.81 16.34,23.64 16.73,23.60 17.12,23.56 17.51,23.64 17.89,23.72 18.23,23.93 18.57,24.13 18.83,24.43 19.08,24.73 19.23,25.10 19.38,25.46 19.40,25.86 19.42,26.25 19.32,26.63 19.21,27.01 18.99,27.34 18.77,27.67 18.46,27.91 18.14,28.15 17.77,28.28 17.40,28.40 17.00,28.41 16.61,28.41 16.23,28.28 15.86,28.16 15.54,27.92 15.23,27.68 15.00,27.35 14.78,27.03 14.67,26.65 14.57,26.27 14.57,26.27 14.57,26.27 14.38,24.08 14.20,21.90 13.78,20.07 13.37,18.24 13.26,16.97 13.16,15.70 12.74,13.72 12.33,11.74 12.16,9.31 11.99,6.88 11.59,4.95 11.20,3.02 11.64,1.28 12.08,-0.44 13.44,-0.25 14.80,-0.07 13.62,1.43 12.44,2.94 11.92,4.29 11.40,5.65 11.07,7.39 10.74,9.13 10.15,10.89 9.56,12.66 8.98,14.64 8.39,16.62 8.20,19.11 8.01,21.59 7.57,23.38 7.14,25.17 7.15,25.44 7.16,25.71 7.10,25.98 7.04,26.25 6.93,26.50 6.81,26.74 6.64,26.95 6.46,27.17 6.24,27.33 6.02,27.49 5.77,27.60 5.52,27.71 5.25,27.75 4.98,27.79 4.71,27.77 4.44,27.75 4.18,27.66 3.92,27.57 3.69,27.42 3.46,27.28 3.27,27.08 3.08,26.88 2.94,26.64 2.81,26.41 2.73,26.14 2.66,25.88 2.59,23.94 2.52,21.99 2.15,20.23 1.77,18.47 1.59,16.79 1.40,15.11 0.94,13.43 0.48,11.74 0.05,9.88 -0.37,8.02 -0.56,6.54 -0.76,5.07 -1.45,2.80 -2.14,0.53 -2.18,0.27 -2.21,0.00 -2.18,-0.25 -2.15,-0.52 -2.05,-0.77 -1.96,-1.02 -1.81,-1.24 -1.66,-1.46 -1.46,-1.63 -1.26,-1.81 -1.02,-1.94 -0.79,-2.06 -0.53,-2.13 -0.27,-2.19 -0.00,-2.19 0.25,-2.19 0.51,-2.13 0.77,-2.07 1.01,-1.94 1.25,-1.82 1.45,-1.64 1.65,-1.47 1.80,-1.25 1.95,-1.03 2.05,-0.78 2.14,-0.53 2.14,-0.53 L 2.14,-0.53 Z"></path></g><g transform="translate(701.4981334587652 215.53513852375556) rotate(0 13.5 3.5)" stroke="none"><path fill="#2f9e44" d="M -1.92,-1.44 Q -1.92,-1.44 -1.08,-2.57 -0.24,-3.69 0.79,-6.15 1.83,-8.61 2.50,-10.08 3.17,-11.55 4.40,-12.56 5.63,-13.58 7.86,-12.33 10.09,-11.07 11.01,-8.92 11.93,-6.77 12.97,-4.90 14.01,-3.02 15.31,-0.69 16.61,1.64 17.96,3.75 19.32,5.87 20.73,7.93 22.15,9.99 23.03,10.69 23.91,11.38 24.77,12.40 25.63,13.43 27.29,15.61 28.96,17.79 29.10,18.14 29.24,18.48 29.27,18.85 29.29,19.23 29.19,19.59 29.09,19.95 28.89,20.26 28.68,20.57 28.39,20.79 28.09,21.02 27.74,21.14 27.39,21.27 27.01,21.27 26.64,21.27 26.29,21.16 25.93,21.04 25.63,20.82 25.33,20.59 25.12,20.29 24.91,19.98 24.81,19.62 24.71,19.26 24.72,18.89 24.74,18.52 24.88,18.17 25.01,17.82 25.25,17.54 25.49,17.25 25.81,17.06 26.12,16.86 26.49,16.78 26.85,16.69 27.22,16.73 27.59,16.77 27.93,16.92 28.27,17.08 28.55,17.33 28.82,17.59 29.00,17.91 29.17,18.24 29.24,18.61 29.30,18.98 29.24,19.34 29.19,19.71 29.01,20.04 28.84,20.38 28.57,20.63 28.30,20.89 27.97,21.05 27.63,21.21 27.26,21.25 26.89,21.30 26.52,21.22 26.16,21.14 25.84,20.95 25.52,20.76 25.27,20.48 25.03,20.20 25.03,20.20 25.03,20.20 24.25,18.78 23.48,17.36 22.42,15.70 21.37,14.04 20.42,13.00 19.47,11.95 17.92,9.92 16.38,7.89 14.83,5.79 13.27,3.69 11.80,1.52 10.32,-0.65 8.88,-2.61 7.44,-4.58 7.18,-6.23 6.91,-7.88 5.85,-6.11 4.79,-4.33 4.24,-2.61 3.69,-0.90 2.80,0.27 1.92,1.44 1.72,1.65 1.52,1.86 1.28,2.02 1.03,2.17 0.75,2.26 0.48,2.36 0.19,2.38 -0.09,2.40 -0.38,2.36 -0.66,2.31 -0.93,2.20 -1.20,2.08 -1.43,1.91 -1.66,1.73 -1.85,1.51 -2.03,1.29 -2.16,1.02 -2.28,0.76 -2.34,0.48 -2.40,0.19 -2.39,-0.09 -2.37,-0.38 -2.29,-0.66 -2.21,-0.94 -2.07,-1.19 -1.92,-1.44 -1.92,-1.44 L -1.92,-1.44 Z"></path></g><g transform="translate(728.4981334587652 208.53513852375556) rotate(0 -8 14)" stroke="none"><path fill="#2f9e44" d="M 2.09,1.04 Q 2.09,1.04 1.16,2.73 0.22,4.42 -0.41,5.93 -1.05,7.45 -1.97,9.09 -2.90,10.73 -3.88,12.28 -4.86,13.83 -5.89,15.17 -6.91,16.50 -7.51,17.53 -8.11,18.57 -9.11,20.23 -10.10,21.89 -10.82,23.54 -11.53,25.19 -12.50,27.16 -13.47,29.14 -13.72,29.51 -13.97,29.88 -14.32,30.16 -14.68,30.43 -15.10,30.58 -15.53,30.72 -15.97,30.73 -16.42,30.73 -16.85,30.59 -17.27,30.45 -17.63,30.18 -17.99,29.91 -18.24,29.55 -18.50,29.18 -18.62,28.75 -18.74,28.32 -18.72,27.87 -18.70,27.42 -18.54,27.00 -18.38,26.59 -18.09,26.24 -17.80,25.90 -17.42,25.67 -17.04,25.43 -16.60,25.33 -16.17,25.23 -15.72,25.28 -15.28,25.32 -14.87,25.51 -14.46,25.69 -14.13,26.00 -13.80,26.30 -13.59,26.70 -13.38,27.09 -13.30,27.53 -13.23,27.97 -13.30,28.42 -13.37,28.86 -13.57,29.26 -13.78,29.65 -14.10,29.96 -14.42,30.27 -14.83,30.46 -15.23,30.66 -15.68,30.71 -16.12,30.76 -16.56,30.67 -17.00,30.57 -17.38,30.35 -17.77,30.12 -18.06,29.78 -18.36,29.44 -18.52,29.03 -18.69,28.61 -18.72,28.16 -18.75,27.72 -18.63,27.28 -18.52,26.85 -18.52,26.85 -18.52,26.85 -16.77,24.35 -15.03,21.84 -14.66,20.65 -14.30,19.45 -13.05,17.82 -11.81,16.19 -11.00,15.04 -10.20,13.88 -9.28,12.78 -8.36,11.67 -7.46,10.19 -6.57,8.70 -5.79,7.26 -5.01,5.82 -4.34,4.15 -3.67,2.47 -2.88,0.71 -2.09,-1.04 -1.94,-1.28 -1.78,-1.51 -1.57,-1.71 -1.36,-1.90 -1.12,-2.03 -0.87,-2.17 -0.60,-2.24 -0.32,-2.32 -0.04,-2.32 0.23,-2.33 0.51,-2.26 0.78,-2.20 1.04,-2.08 1.29,-1.95 1.50,-1.77 1.72,-1.58 1.88,-1.35 2.05,-1.12 2.15,-0.86 2.26,-0.60 2.30,-0.32 2.34,-0.04 2.31,0.23 2.28,0.51 2.19,0.78 2.09,1.04 2.09,1.04 L 2.09,1.04 Z"></path></g></svg>