<svg version="1.1" xmlns="http://www.w3.org/2000/svg" viewBox="0 0 863.6850691938494 546.7661128669977" width="863.6850691938494" height="546.7661128669977" class="excalidraw-svg"><!-- svg-source:excalidraw --><metadata></metadata><defs><style class="style-fonts">
      </style></defs><rect x="0" y="0" width="863.6850691938494" height="546.7661128669977" fill="#ffffff"></rect><g stroke-linecap="round" transform="translate(539 248) rotate(0 107 107)"><path d="M70.79 7.55 C81.83 1.7, 96.39 -0.76, 109.25 -0.79 C122.11 -0.83, 136.18 2.27, 147.97 7.36 C159.76 12.44, 170.7 20.69, 179.96 29.73 C189.22 38.77, 198 50.23, 203.52 61.57 C209.04 72.92, 212.02 85.17, 213.08 97.78 C214.15 110.39, 213.67 124.66, 209.91 137.23 C206.14 149.79, 198.35 163.09, 190.49 173.19 C182.63 183.29, 173.51 191.27, 162.76 197.84 C152 204.42, 138.69 210.19, 125.98 212.63 C113.27 215.07, 99.28 214.94, 86.49 212.47 C73.71 210, 60.1 204.84, 49.26 197.8 C38.41 190.77, 28.98 180.87, 21.4 170.28 C13.83 159.7, 7.24 146.64, 3.82 134.28 C0.4 121.93, -0.55 108.98, 0.87 96.15 C2.3 83.32, 6.56 68.79, 12.35 57.32 C18.15 45.84, 25.46 35.92, 35.66 27.31 C45.86 18.71, 66.68 8.99, 73.55 5.69 C80.41 2.39, 76.23 5.72, 76.86 7.51 M55.5 12.71 C65.17 5.02, 80.02 0.93, 93.22 -0.49 C106.42 -1.9, 122.13 0.68, 134.7 4.22 C147.27 7.76, 158.37 13.59, 168.65 20.76 C178.93 27.92, 189.31 36.75, 196.38 47.23 C203.44 57.71, 208.31 70.89, 211.04 83.63 C213.78 96.37, 214.69 110.63, 212.79 123.68 C210.9 136.72, 206.26 150.56, 199.67 161.9 C193.07 173.24, 183.51 183.78, 173.23 191.71 C162.95 199.63, 150.1 206.01, 137.98 209.45 C125.85 212.88, 113.07 213.04, 100.46 212.31 C87.86 211.58, 73.88 210.03, 62.33 205.06 C50.79 200.1, 40.32 192.07, 31.2 182.51 C22.07 172.94, 12.96 159.96, 7.59 147.66 C2.22 135.37, -0.92 121.7, -1.01 108.74 C-1.09 95.78, 2.38 81.88, 7.08 69.92 C11.77 57.97, 18.84 46.82, 27.15 37.03 C35.47 27.24, 51.96 14.97, 56.94 11.18 C61.92 7.4, 56.22 12.66, 57.04 14.33" stroke="#1e1e1e" stroke-width="2" fill="none"></path></g><g stroke-linecap="round"><g transform="translate(443 360) rotate(0 204.85390638381708 -2.525619318266399)"><path d="M-0.98 -1.14 C66.99 -1.99, 339.82 -5.37, 408.33 -5.92 M0.71 0.87 C69.02 0.22, 342.5 -3.64, 410.69 -4.86" stroke="#1e1e1e" stroke-width="2" fill="none"></path></g><g transform="translate(443 360) rotate(0 204.85390638381708 -2.525619318266399)"><path d="M387.33 4.05 C393.54 0.04, 401.97 -0.15, 410.69 -4.86 M387.33 4.05 C396 0.37, 402.89 -1.92, 410.69 -4.86" stroke="#1e1e1e" stroke-width="2" fill="none"></path></g><g transform="translate(443 360) rotate(0 204.85390638381708 -2.525619318266399)"><path d="M387.06 -13.05 C393.24 -11.15, 401.77 -5.45, 410.69 -4.86 M387.06 -13.05 C395.69 -10.81, 402.67 -7.2, 410.69 -4.86" stroke="#1e1e1e" stroke-width="2" fill="none"></path></g></g><mask></mask><g stroke-linecap="round"><g transform="translate(655 537) rotate(0 -7.716858686199409 -181.4141325801611)"><path d="M-0.74 -0.23 C-3.15 -60.6, -13.12 -302.2, -15.37 -362.59 M1.07 -1.4 C-1.45 -61.58, -13.9 -301.33, -16.51 -361.37" stroke="#1e1e1e" stroke-width="2" fill="none"></path></g><g transform="translate(655 537) rotate(0 -7.716858686199409 -181.4141325801611)"><path d="M-6.84 -338.31 C-9.33 -344.2, -12.12 -347.51, -16.51 -361.37 M-6.84 -338.31 C-9.03 -344.26, -12.39 -348.98, -16.51 -361.37" stroke="#1e1e1e" stroke-width="2" fill="none"></path></g><g transform="translate(655 537) rotate(0 -7.716858686199409 -181.4141325801611)"><path d="M-23.92 -337.49 C-22.55 -343.46, -21.47 -346.95, -16.51 -361.37 M-23.92 -337.49 C-21.87 -343.73, -21 -348.65, -16.51 -361.37" stroke="#1e1e1e" stroke-width="2" fill="none"></path></g></g><mask></mask><g stroke-linecap="round"><g transform="translate(648 357) rotate(0 70.23761831321289 -91.05640290111769)"><path d="M0.92 -1.12 C24.36 -31.52, 117.52 -152.51, 140.53 -183.01 M-0.06 0.9 C23.29 -29.23, 116.29 -150.76, 139.87 -181.48" stroke="#1e1e1e" stroke-width="2" fill="none"></path></g></g><mask></mask><g transform="translate(832 145) rotate(0 -7.5 16)" stroke="none"><path fill="#1e1e1e" d="M 3.16,0.63 Q 3.16,0.63 2.22,4.93 1.29,9.22 0.33,13.13 -0.62,17.04 -1.65,19.97 -2.67,22.89 -3.73,25.10 -4.80,27.30 -7.37,29.99 -9.94,32.68 -12.66,32.94 -15.39,33.19 -18.11,30.89 -20.82,28.58 -21.74,26.57 -22.66,24.56 -23.21,20.71 -23.75,16.86 -23.00,13.88 -22.25,10.89 -19.42,9.76 -16.58,8.63 -14.46,9.02 -12.35,9.41 -9.78,11.29 -7.21,13.16 -5.07,15.61 -2.92,18.05 -0.61,19.92 1.69,21.80 4.08,24.11 6.47,26.43 7.49,29.33 8.51,32.23 8.56,32.66 8.62,33.08 8.54,33.49 8.46,33.91 8.25,34.28 8.04,34.65 7.72,34.93 7.40,35.21 7.01,35.38 6.62,35.55 6.19,35.58 5.77,35.61 5.36,35.51 4.95,35.40 4.59,35.17 4.23,34.94 3.97,34.61 3.70,34.28 3.56,33.88 3.41,33.48 3.40,33.05 3.39,32.63 3.52,32.22 3.65,31.82 3.90,31.47 4.15,31.13 4.49,30.88 4.84,30.64 5.24,30.51 5.65,30.39 6.08,30.40 6.50,30.42 6.90,30.57 7.30,30.71 7.63,30.98 7.96,31.25 8.18,31.61 8.41,31.97 8.51,32.38 8.61,32.79 8.58,33.22 8.54,33.64 8.37,34.03 8.20,34.42 7.92,34.73 7.63,35.05 7.26,35.26 6.89,35.46 6.47,35.54 6.05,35.62 5.63,35.56 5.21,35.50 4.83,35.31 4.45,35.12 4.15,34.82 3.86,34.52 3.67,34.14 3.48,33.76 3.48,33.76 3.48,33.76 1.81,31.50 0.13,29.25 -2.60,27.34 -5.35,25.44 -7.75,22.89 -10.16,20.34 -11.78,18.50 -13.40,16.66 -15.40,15.59 -17.39,14.52 -17.53,17.13 -17.67,19.74 -16.97,22.26 -16.27,24.78 -14.11,25.92 -11.95,27.06 -10.19,23.96 -8.43,20.87 -7.51,18.22 -6.58,15.58 -5.66,11.80 -4.74,8.02 -3.95,3.69 -3.16,-0.63 -3.04,-1.00 -2.92,-1.37 -2.71,-1.70 -2.50,-2.03 -2.22,-2.30 -1.94,-2.57 -1.61,-2.76 -1.27,-2.96 -0.90,-3.07 -0.53,-3.18 -0.14,-3.20 0.24,-3.21 0.62,-3.14 1.01,-3.06 1.36,-2.90 1.71,-2.73 2.01,-2.49 2.31,-2.24 2.55,-1.93 2.78,-1.62 2.94,-1.26 3.09,-0.91 3.16,-0.52 3.22,-0.14 3.19,0.24 3.16,0.63 3.16,0.63 L 3.16,0.63 Z"></path></g><g transform="translate(714 271) rotate(0 0.5 0)" stroke="none"><path fill="#1e1e1e" d="M -0.80,0 Q -0.80,0 -0.75,-0.86 -0.69,-1.72 -0.70,-1.80 -0.71,-1.88 -0.69,-1.96 -0.68,-2.05 -0.65,-2.13 -0.62,-2.21 -0.58,-2.28 -0.53,-2.35 -0.46,-2.41 -0.40,-2.46 -0.32,-2.50 -0.25,-2.54 -0.16,-2.56 -0.08,-2.58 0.00,-2.58 0.08,-2.58 0.16,-2.56 0.25,-2.54 0.32,-2.50 0.40,-2.46 0.46,-2.41 0.53,-2.35 0.58,-2.28 0.62,-2.21 0.65,-2.13 0.68,-2.05 0.69,-1.96 0.71,-1.88 0.32,-1.38 -0.06,-0.88 -0.14,0.03 -0.21,0.95 -0.08,1.51 0.04,2.07 0.43,1.36 0.82,0.66 1.06,-0.17 1.29,-1.02 0.98,-1.45 0.68,-1.87 0.62,-1.94 0.56,-2.00 0.51,-2.08 0.47,-2.16 0.45,-2.25 0.43,-2.33 0.43,-2.42 0.43,-2.51 0.45,-2.60 0.47,-2.68 0.51,-2.76 0.55,-2.84 0.61,-2.91 0.67,-2.97 0.74,-3.03 0.81,-3.08 0.89,-3.11 0.98,-3.14 1.06,-3.15 1.15,-3.16 1.24,-3.15 1.33,-3.14 1.41,-3.11 1.49,-3.08 1.57,-3.03 1.64,-2.98 1.65,-0.49 1.65,2.00 1.63,2.10 1.62,2.21 1.57,2.30 1.52,2.40 1.44,2.47 1.36,2.54 1.26,2.58 1.17,2.63 1.06,2.64 0.95,2.65 0.85,2.63 0.75,2.60 0.66,2.55 0.57,2.49 0.50,2.41 0.43,2.33 0.39,2.23 0.35,2.13 0.35,2.03 0.34,1.92 0.37,1.82 0.40,1.72 0.46,1.63 0.52,1.54 0.61,1.48 0.69,1.41 0.79,1.38 0.89,1.35 1.00,1.35 1.11,1.35 1.21,1.38 1.31,1.42 1.39,1.48 1.47,1.55 1.53,1.64 1.59,1.72 1.62,1.83 1.65,1.93 1.64,2.03 1.64,2.14 1.60,2.24 1.56,2.34 1.49,2.42 1.42,2.50 1.33,2.55 1.23,2.61 1.13,2.63 1.03,2.65 0.92,2.64 0.81,2.63 0.72,2.58 0.62,2.54 0.55,2.46 0.47,2.39 0.42,2.29 0.37,2.20 0.35,2.10 0.34,1.99 0.34,1.99 0.34,1.99 0.51,0.05 0.68,-1.87 0.62,-1.94 0.56,-2.00 0.51,-2.08 0.47,-2.16 0.45,-2.25 0.43,-2.33 0.43,-2.42 0.43,-2.51 0.45,-2.60 0.47,-2.68 0.51,-2.76 0.55,-2.84 0.61,-2.91 0.67,-2.97 0.74,-3.03 0.81,-3.08 0.89,-3.11 0.98,-3.14 1.06,-3.15 1.15,-3.16 1.24,-3.15 1.33,-3.14 1.41,-3.11 1.49,-3.08 1.57,-3.03 1.64,-2.98 2.07,-2.19 2.51,-1.40 2.49,-0.68 2.47,0.03 2.28,0.68 2.10,1.33 1.41,2.34 0.71,3.35 -0.07,3.26 -0.86,3.16 -1.23,2.72 -1.60,2.27 -1.61,1.56 -1.63,0.85 -1.57,0.03 -1.50,-0.79 -1.10,-1.33 -0.71,-1.88 -0.69,-1.96 -0.68,-2.05 -0.65,-2.13 -0.62,-2.21 -0.58,-2.28 -0.53,-2.35 -0.46,-2.41 -0.40,-2.46 -0.32,-2.50 -0.25,-2.54 -0.16,-2.56 -0.08,-2.58 -0.00,-2.58 0.08,-2.58 0.16,-2.56 0.25,-2.54 0.32,-2.50 0.40,-2.46 0.46,-2.41 0.53,-2.35 0.58,-2.28 0.62,-2.21 0.65,-2.13 0.68,-2.05 0.69,-1.96 0.71,-1.88 0.70,-1.80 0.69,-1.72 0.75,-0.86 0.80,0 0.79,0.09 0.78,0.19 0.74,0.28 0.71,0.37 0.65,0.45 0.60,0.53 0.53,0.59 0.45,0.66 0.37,0.70 0.28,0.75 0.19,0.77 0.09,0.80 -0.00,0.80 -0.09,0.80 -0.19,0.77 -0.28,0.75 -0.37,0.70 -0.45,0.66 -0.53,0.59 -0.60,0.53 -0.65,0.45 -0.71,0.37 -0.74,0.28 -0.78,0.19 -0.79,0.09 -0.80,-0.00 -0.80,-0.00 L -0.80,0 Z"></path></g><g transform="translate(715 271) rotate(0 -1 2)" stroke="none"><path fill="#1e1e1e" d="M -0.36,0.72 Q -0.36,0.72 -0.73,0.38 -1.10,0.04 -1.15,0.73 -1.20,1.42 -0.65,0.66 -0.11,-0.09 -0.00,-0.66 0.10,-1.22 -0.17,-1.69 -0.44,-2.16 -0.74,-1.71 -1.04,-1.27 -1.09,-0.36 -1.14,0.53 -1.17,1.23 -1.21,1.92 -1.03,1.04 -0.85,0.15 -0.78,-0.37 -0.71,-0.90 -1.20,-0.22 -1.68,0.45 -1.81,1.44 -1.95,2.44 -2.03,3.45 -2.11,4.46 -1.89,5.03 -1.68,5.60 -1.35,4.77 -1.02,3.93 -0.94,3.40 -0.87,2.86 -1.73,3.57 -2.59,4.27 -2.62,4.19 -2.64,4.12 -2.65,4.04 -2.65,3.96 -2.64,3.88 -2.62,3.81 -2.59,3.73 -2.56,3.66 -2.51,3.60 -2.46,3.53 -2.40,3.49 -2.34,3.44 -2.27,3.40 -2.20,3.37 -2.12,3.35 -2.04,3.34 -1.96,3.34 -1.88,3.35 -1.81,3.37 -1.73,3.39 -1.66,3.43 -1.59,3.47 -1.54,3.53 -1.48,3.59 -1.44,3.65 -1.40,3.72 -1.40,4.00 -1.40,4.27 -1.46,4.36 -1.52,4.45 -1.60,4.51 -1.69,4.58 -1.79,4.61 -1.89,4.64 -2.00,4.64 -2.10,4.64 -2.20,4.61 -2.30,4.58 -2.39,4.51 -2.47,4.45 -2.53,4.36 -2.59,4.27 -2.62,4.17 -2.65,4.07 -2.64,3.96 -2.64,3.85 -2.60,3.76 -2.56,3.66 -2.49,3.58 -2.42,3.49 -2.33,3.44 -2.24,3.38 -2.13,3.36 -2.03,3.34 -1.92,3.35 -1.82,3.36 -1.72,3.41 -1.63,3.45 -1.55,3.52 -1.47,3.60 -1.42,3.69 -1.37,3.79 -1.36,3.89 -1.34,4.00 -1.36,4.10 -1.37,4.20 -1.42,4.30 -1.47,4.39 -1.55,4.47 -1.63,4.54 -1.72,4.58 -1.82,4.63 -1.93,4.64 -2.03,4.65 -2.13,4.63 -2.24,4.60 -2.33,4.55 -2.42,4.50 -2.49,4.41 -2.56,4.33 -2.60,4.23 -2.64,4.14 -2.64,4.03 -2.65,3.92 -2.62,4.10 -2.59,4.27 -2.62,4.19 -2.64,4.12 -2.65,4.04 -2.65,3.96 -2.64,3.88 -2.62,3.81 -2.59,3.73 -2.56,3.66 -2.51,3.60 -2.46,3.54 -2.40,3.49 -2.34,3.44 -2.27,3.40 -2.20,3.37 -2.12,3.35 -2.04,3.34 -1.96,3.34 -1.88,3.35 -1.81,3.37 -1.73,3.39 -1.66,3.43 -1.59,3.47 -1.54,3.53 -1.48,3.59 -1.44,3.65 -1.40,3.72 -0.69,2.57 0.01,1.42 0.32,2.18 0.62,2.94 0.54,3.62 0.45,4.31 0.17,5.23 -0.10,6.14 -0.64,6.62 -1.18,7.09 -2.12,6.65 -3.06,6.21 -3.35,5.30 -3.64,4.40 -3.55,3.29 -3.47,2.18 -3.21,0.90 -2.95,-0.36 -2.34,-1.13 -1.74,-1.90 -1.16,-2.06 -0.57,-2.22 0.02,-1.71 0.62,-1.20 0.62,-0.46 0.63,0.28 0.54,1.18 0.46,2.07 0.17,2.76 -0.11,3.45 -0.85,3.58 -1.58,3.71 -2.13,2.82 -2.68,1.93 -2.64,1.17 -2.61,0.41 -2.49,-0.73 -2.37,-1.88 -2.05,-2.41 -1.72,-2.94 -1.04,-3.24 -0.36,-3.54 0.23,-3.37 0.83,-3.21 1.18,-2.78 1.53,-2.36 1.53,-1.65 1.52,-0.94 1.38,-0.26 1.23,0.41 0.83,1.33 0.43,2.25 -0.41,2.77 -1.26,3.29 -1.91,2.92 -2.56,2.54 -2.56,1.40 -2.55,0.26 -1.87,-0.46 -1.19,-1.19 -0.41,-0.96 0.36,-0.72 0.44,-0.66 0.52,-0.61 0.58,-0.54 0.65,-0.47 0.70,-0.38 0.74,-0.30 0.77,-0.20 0.79,-0.11 0.80,-0.01 0.80,0.08 0.78,0.17 0.76,0.27 0.71,0.35 0.67,0.44 0.60,0.51 0.54,0.59 0.46,0.65 0.38,0.70 0.29,0.74 0.20,0.77 0.11,0.79 0.01,0.80 -0.08,0.79 -0.17,0.78 -0.26,0.75 -0.36,0.72 -0.36,0.72 L -0.36,0.72 Z"></path></g><g transform="translate(737 261) rotate(0 1 16.5)" stroke="none"><path fill="#1e1e1e" d="M 0.80,0 Q 0.80,0 0.79,1.72 0.77,3.44 0.78,6.48 0.78,9.51 0.79,13.10 0.79,16.69 1.07,19.61 1.36,22.54 1.47,24.97 1.58,27.39 2.08,30.05 2.58,32.70 2.61,32.80 2.65,32.91 2.64,33.01 2.64,33.12 2.60,33.22 2.57,33.32 2.50,33.40 2.43,33.48 2.34,33.54 2.25,33.60 2.15,33.62 2.05,33.65 1.94,33.64 1.84,33.63 1.74,33.59 1.64,33.55 1.56,33.48 1.48,33.41 1.43,33.31 1.38,33.22 1.36,33.12 1.34,33.01 1.35,32.91 1.37,32.80 1.41,32.71 1.46,32.61 1.54,32.54 1.61,32.46 1.71,32.41 1.80,32.37 1.91,32.35 2.01,32.34 2.12,32.36 2.22,32.38 2.31,32.43 2.41,32.48 2.48,32.56 2.55,32.64 2.59,32.74 2.63,32.84 2.64,32.94 2.65,33.05 2.62,33.15 2.60,33.25 2.54,33.34 2.48,33.43 2.40,33.50 2.32,33.57 2.22,33.60 2.12,33.64 2.01,33.64 1.91,33.65 1.80,33.61 1.70,33.58 1.62,33.52 1.53,33.46 1.47,33.37 1.41,33.29 1.41,33.29 1.41,33.29 0.73,30.38 0.05,27.47 -0.07,25.08 -0.21,22.69 -0.50,19.69 -0.79,16.69 -0.79,13.10 -0.78,9.51 -0.78,6.48 -0.77,3.44 -0.79,1.72 -0.80,0 -0.79,-0.09 -0.78,-0.19 -0.74,-0.28 -0.71,-0.37 -0.65,-0.45 -0.60,-0.53 -0.53,-0.59 -0.45,-0.66 -0.37,-0.70 -0.28,-0.75 -0.19,-0.77 -0.09,-0.80 0.00,-0.80 0.09,-0.80 0.19,-0.77 0.28,-0.75 0.37,-0.70 0.45,-0.66 0.53,-0.59 0.60,-0.53 0.65,-0.45 0.71,-0.37 0.74,-0.28 0.78,-0.19 0.79,-0.09 0.80,0.00 0.80,0.00 L 0.80,0 Z"></path></g><g transform="translate(738 261) rotate(0 4 6)" stroke="none"><path fill="#1e1e1e" d="M -0.80,0 Q -0.80,0 -0.76,-0.91 -0.71,-1.82 -0.09,-2.45 0.51,-3.09 1.08,-3.00 1.64,-2.91 2.20,-2.52 2.77,-2.12 3.51,-1.71 4.25,-1.30 4.97,-0.45 5.69,0.38 6.22,0.98 6.76,1.58 7.32,2.46 7.89,3.35 8.38,3.97 8.87,4.58 9.15,5.57 9.44,6.55 9.53,7.27 9.63,7.99 9.36,8.74 9.08,9.49 8.64,10.09 8.20,10.70 7.37,11.30 6.54,11.89 5.97,12.38 5.40,12.87 4.88,13.36 4.36,13.86 3.84,14.36 3.32,14.86 2.69,15.15 2.06,15.45 0.44,15.04 -1.17,14.63 -1.27,14.58 -1.36,14.54 -1.44,14.46 -1.52,14.39 -1.57,14.30 -1.62,14.20 -1.63,14.10 -1.65,13.99 -1.63,13.89 -1.62,13.78 -1.57,13.69 -1.52,13.60 -1.44,13.52 -1.36,13.45 -1.27,13.41 -1.17,13.36 -1.06,13.35 -0.96,13.34 -0.85,13.36 -0.75,13.39 -0.66,13.44 -0.57,13.50 -0.50,13.58 -0.43,13.66 -0.39,13.76 -0.35,13.86 -0.35,13.96 -0.34,14.07 -0.37,14.17 -0.40,14.27 -0.46,14.36 -0.52,14.45 -0.60,14.51 -0.69,14.58 -0.79,14.61 -0.89,14.64 -1.00,14.64 -1.10,14.64 -1.20,14.61 -1.30,14.57 -1.39,14.51 -1.47,14.45 -1.53,14.36 -1.59,14.27 -1.62,14.17 -1.65,14.06 -1.64,13.96 -1.64,13.85 -1.60,13.75 -1.56,13.66 -1.49,13.57 -1.42,13.49 -1.33,13.44 -1.24,13.38 -1.13,13.36 -1.03,13.34 -0.92,13.35 -0.82,13.36 -0.82,13.36 -0.82,13.36 0.69,13.51 2.21,13.65 2.72,13.15 3.24,12.65 3.81,12.14 4.37,11.63 5.00,11.11 5.64,10.59 6.30,10.16 6.95,9.73 7.52,8.91 8.09,8.08 8.00,7.51 7.91,6.94 7.76,6.22 7.62,5.51 7.09,4.84 6.56,4.17 6.08,3.39 5.61,2.61 5.04,1.99 4.48,1.36 3.97,0.69 3.46,0.01 2.66,-0.43 1.85,-0.88 1.28,-1.25 0.71,-1.62 0.76,-0.81 0.80,0 0.79,0.09 0.78,0.19 0.74,0.28 0.71,0.37 0.65,0.45 0.60,0.53 0.53,0.59 0.45,0.66 0.37,0.70 0.28,0.75 0.19,0.77 0.09,0.80 -0.00,0.80 -0.09,0.80 -0.19,0.77 -0.28,0.75 -0.37,0.70 -0.45,0.66 -0.53,0.59 -0.60,0.53 -0.65,0.45 -0.71,0.37 -0.74,0.28 -0.78,0.19 -0.79,0.09 -0.80,-0.00 -0.80,-0.00 L -0.80,0 Z"></path></g><g transform="translate(660 368) rotate(0 5.5 8)" stroke="none"><path fill="#1e1e1e" d="M 0.76,0.25 Q 0.76,0.25 0.44,1.10 0.13,1.95 0.02,2.57 -0.08,3.18 -0.46,3.86 -0.84,4.53 -0.94,5.23 -1.03,5.92 -1.09,6.80 -1.14,7.68 -1.16,8.64 -1.19,9.59 -1.20,10.57 -1.21,11.55 -1.21,12.53 -1.22,13.51 -0.96,14.08 -0.70,14.66 -0.57,15.59 -0.44,16.52 0.22,17.15 0.89,17.78 1.65,17.94 2.40,18.10 3.14,18.13 3.87,18.16 4.48,18.17 5.10,18.19 5.63,18.20 6.17,18.20 6.85,17.94 7.53,17.68 8.08,17.31 8.64,16.94 9.15,16.51 9.67,16.07 10.17,15.61 10.67,15.15 10.87,14.37 11.08,13.58 11.47,12.46 11.86,11.34 11.94,10.69 12.02,10.03 12.07,9.44 12.12,8.84 12.14,8.03 12.16,7.21 12.17,6.29 12.18,5.36 12.18,4.68 12.18,4.00 12.18,3.42 12.18,2.85 11.95,2.00 11.71,1.15 11.34,0.71 10.96,0.26 10.53,-0.20 10.09,-0.68 9.33,-0.86 8.57,-1.04 7.51,-1.16 6.45,-1.27 5.87,-1.64 5.29,-2.01 4.49,-2.07 3.69,-2.13 3.06,-1.88 2.43,-1.64 0.91,-0.56 -0.60,0.52 -0.69,0.57 -0.78,0.62 -0.89,0.63 -0.99,0.65 -1.10,0.63 -1.20,0.62 -1.30,0.57 -1.39,0.52 -1.46,0.44 -1.54,0.37 -1.58,0.27 -1.63,0.17 -1.64,0.07 -1.65,-0.03 -1.63,-0.13 -1.61,-0.24 -1.55,-0.33 -1.50,-0.42 -1.42,-0.49 -1.34,-0.56 -1.24,-0.60 -1.14,-0.64 -1.03,-0.64 -0.93,-0.65 -0.82,-0.62 -0.72,-0.59 -0.63,-0.53 -0.54,-0.47 -0.48,-0.39 -0.42,-0.30 -0.38,-0.20 -0.35,-0.10 -0.35,-0.00 -0.35,0.10 -0.38,0.20 -0.41,0.30 -0.48,0.39 -0.54,0.47 -0.63,0.53 -0.72,0.59 -0.82,0.62 -0.92,0.65 -1.03,0.64 -1.13,0.64 -1.23,0.60 -1.33,0.56 -1.41,0.49 -1.49,0.42 -1.55,0.33 -1.60,0.24 -1.63,0.14 -1.65,0.03 -1.64,-0.06 -1.63,-0.17 -1.58,-0.27 -1.54,-0.36 -1.47,-0.44 -1.39,-0.52 -1.39,-0.52 -1.39,-0.52 0.23,-1.84 1.86,-3.17 3.31,-3.46 4.76,-3.76 5.29,-3.68 5.82,-3.61 6.80,-3.19 7.79,-2.77 8.33,-2.72 8.87,-2.68 9.46,-2.56 10.04,-2.44 10.65,-2.13 11.26,-1.83 11.75,-1.29 12.24,-0.76 12.68,-0.20 13.13,0.36 13.46,1.04 13.79,1.73 13.80,2.29 13.80,2.85 13.80,3.43 13.79,4.01 13.79,4.70 13.78,5.38 13.77,6.32 13.76,7.26 13.73,8.12 13.71,8.98 13.65,9.64 13.59,10.29 13.41,11.21 13.23,12.13 12.93,13.00 12.64,13.88 12.51,14.46 12.39,15.04 12.08,15.66 11.77,16.27 11.22,16.78 10.68,17.28 10.08,17.77 9.49,18.26 8.78,18.70 8.06,19.15 7.13,19.46 6.19,19.77 5.62,19.76 5.06,19.76 4.43,19.74 3.80,19.73 2.98,19.69 2.15,19.65 1.58,19.55 1.01,19.44 0.42,19.17 -0.17,18.89 -0.62,18.43 -1.07,17.97 -1.49,17.42 -1.91,16.88 -2.02,16.05 -2.14,15.23 -2.45,14.39 -2.76,13.54 -2.75,12.54 -2.75,11.53 -2.74,10.54 -2.73,9.55 -2.70,8.56 -2.67,7.58 -2.60,6.62 -2.53,5.66 -2.34,4.72 -2.15,3.79 -1.84,3.33 -1.54,2.88 -1.41,2.18 -1.28,1.49 -1.02,0.61 -0.76,-0.25 -0.72,-0.34 -0.68,-0.43 -0.62,-0.50 -0.55,-0.58 -0.48,-0.64 -0.40,-0.69 -0.31,-0.73 -0.22,-0.77 -0.12,-0.79 -0.03,-0.80 0.06,-0.79 0.16,-0.79 0.25,-0.76 0.34,-0.72 0.42,-0.67 0.51,-0.62 0.57,-0.55 0.64,-0.48 0.69,-0.40 0.74,-0.31 0.76,-0.22 0.79,-0.12 0.80,-0.03 0.80,0.06 0.78,0.15 0.76,0.25 0.76,0.25 L 0.76,0.25 Z"></path></g><g transform="translate(15 10) rotate(0 -2.5 1)" stroke="none"><path fill="#1e1e1e" d="M 0,0.80 Q 0,0.80 -1.42,0.74 -2.84,0.67 -3.64,1.51 -4.44,2.35 -4.51,2.43 -4.58,2.51 -4.67,2.56 -4.77,2.61 -4.87,2.63 -4.97,2.65 -5.08,2.64 -5.19,2.62 -5.28,2.58 -5.38,2.53 -5.45,2.45 -5.53,2.38 -5.57,2.29 -5.62,2.19 -5.64,2.08 -5.65,1.98 -5.63,1.88 -5.61,1.77 -5.56,1.68 -5.51,1.59 -5.43,1.51 -5.35,1.44 -5.25,1.40 -5.16,1.36 -5.05,1.35 -4.94,1.34 -4.84,1.37 -4.74,1.39 -4.65,1.45 -4.56,1.50 -4.49,1.59 -4.42,1.67 -4.39,1.77 -4.35,1.87 -4.35,1.98 -4.34,2.08 -4.37,2.18 -4.41,2.28 -4.47,2.37 -4.53,2.46 -4.62,2.52 -4.70,2.58 -4.80,2.61 -4.90,2.65 -5.01,2.64 -5.12,2.64 -5.22,2.60 -5.32,2.57 -5.40,2.50 -5.48,2.44 -5.54,2.35 -5.60,2.26 -5.62,2.15 -5.65,2.05 -5.64,1.94 -5.63,1.84 -5.59,1.74 -5.55,1.64 -5.55,1.64 -5.55,1.64 -4.22,0.48 -2.90,-0.67 -1.45,-0.74 0,-0.80 0.09,-0.79 0.19,-0.78 0.28,-0.74 0.37,-0.71 0.45,-0.65 0.53,-0.60 0.59,-0.53 0.66,-0.45 0.70,-0.37 0.75,-0.28 0.77,-0.19 0.80,-0.09 0.80,0.00 0.80,0.09 0.77,0.19 0.75,0.28 0.70,0.37 0.66,0.45 0.59,0.53 0.53,0.60 0.45,0.65 0.37,0.71 0.28,0.74 0.19,0.78 0.09,0.79 -0.00,0.80 -0.00,0.80 L 0,0.80 Z"></path></g><g transform="translate(737 261) rotate(0 0.5 13.5)" stroke="none"><path fill="#1e1e1e" d="M -1.14,1.14 Q -1.14,1.14 -1.39,0.81 -1.64,0.49 -1.75,0.34 -1.86,0.20 -1.94,0.04 -2.01,-0.12 -2.05,-0.30 -2.08,-0.48 -2.07,-0.66 -2.06,-0.84 -2.00,-1.02 -1.95,-1.19 -1.85,-1.35 -1.76,-1.50 -1.63,-1.63 -1.50,-1.76 -1.35,-1.85 -1.19,-1.95 -1.02,-2.00 -0.84,-2.06 -0.66,-2.07 -0.48,-2.08 -0.30,-2.05 -0.12,-2.01 0.04,-1.94 0.20,-1.86 0.35,-1.75 0.49,-1.64 0.56,-0.46 0.64,0.71 0.60,2.49 0.56,4.27 0.55,5.91 0.55,7.55 0.82,8.98 1.09,10.41 1.22,12.01 1.35,13.62 1.40,14.86 1.45,16.11 1.88,18.19 2.31,20.27 2.40,21.96 2.48,23.65 2.50,25.59 2.52,27.54 2.51,28.24 2.51,28.95 2.49,29.13 2.46,29.31 2.40,29.48 2.34,29.65 2.23,29.80 2.13,29.95 1.99,30.08 1.86,30.20 1.70,30.28 1.54,30.37 1.36,30.41 1.18,30.46 1.00,30.46 0.82,30.46 0.64,30.42 0.46,30.37 0.30,30.29 0.14,30.21 0.00,30.08 -0.13,29.96 -0.23,29.81 -0.34,29.66 -0.40,29.49 -0.47,29.32 -0.49,29.14 -0.51,28.96 0.13,27.23 0.78,25.49 0.89,25.31 1.01,25.13 1.17,24.99 1.33,24.86 1.53,24.78 1.73,24.71 1.94,24.70 2.16,24.69 2.36,24.75 2.56,24.81 2.74,24.93 2.91,25.06 3.04,25.23 3.16,25.40 3.23,25.60 3.29,25.80 3.29,26.01 3.29,26.23 3.22,26.43 3.15,26.63 3.01,26.79 2.88,26.96 2.71,27.08 2.53,27.20 2.32,27.25 2.12,27.30 1.91,27.29 1.69,27.27 1.50,27.19 1.30,27.11 1.14,26.97 0.98,26.83 0.87,26.65 0.77,26.46 0.73,26.25 0.68,26.05 0.71,25.84 0.73,25.62 0.83,25.43 0.92,25.24 1.07,25.09 1.22,24.94 1.41,24.84 1.59,24.74 1.80,24.71 2.01,24.68 2.22,24.72 2.43,24.76 2.62,24.86 2.81,24.96 2.95,25.12 3.09,25.27 3.18,25.47 3.27,25.66 3.29,25.87 3.31,26.09 3.26,26.29 3.21,26.50 3.21,26.50 3.21,26.50 2.86,27.72 2.51,28.95 2.49,29.13 2.46,29.31 2.40,29.48 2.34,29.65 2.23,29.80 2.13,29.95 1.99,30.08 1.86,30.20 1.70,30.28 1.54,30.37 1.36,30.41 1.18,30.46 1.00,30.46 0.82,30.46 0.64,30.42 0.46,30.37 0.30,30.29 0.14,30.21 0.00,30.08 -0.13,29.96 -0.23,29.81 -0.34,29.66 -0.40,29.49 -0.47,29.32 -0.49,29.14 -0.51,28.96 -0.53,27.28 -0.54,25.61 -0.57,23.82 -0.60,22.03 -0.76,20.41 -0.92,18.79 -1.26,17.52 -1.60,16.26 -1.65,15.06 -1.71,13.86 -1.82,12.41 -1.93,10.95 -2.22,9.25 -2.52,7.54 -2.50,5.88 -2.49,4.21 -2.06,2.35 -1.64,0.49 -1.75,0.35 -1.86,0.20 -1.94,0.04 -2.01,-0.12 -2.05,-0.30 -2.08,-0.48 -2.07,-0.66 -2.06,-0.84 -2.00,-1.02 -1.95,-1.19 -1.85,-1.35 -1.76,-1.50 -1.63,-1.63 -1.50,-1.76 -1.35,-1.85 -1.19,-1.95 -1.02,-2.00 -0.84,-2.06 -0.66,-2.07 -0.48,-2.08 -0.30,-2.05 -0.12,-2.01 0.04,-1.94 0.20,-1.86 0.34,-1.75 0.49,-1.64 0.81,-1.39 1.14,-1.14 1.26,-0.98 1.38,-0.83 1.46,-0.65 1.54,-0.48 1.57,-0.28 1.61,-0.09 1.59,0.09 1.58,0.29 1.52,0.47 1.47,0.66 1.37,0.82 1.27,0.99 1.13,1.13 0.99,1.27 0.82,1.37 0.66,1.47 0.47,1.52 0.29,1.58 0.09,1.59 -0.09,1.61 -0.28,1.57 -0.48,1.54 -0.65,1.46 -0.83,1.38 -0.98,1.26 -1.14,1.14 -1.14,1.14 L -1.14,1.14 Z"></path></g><g transform="translate(736 260) rotate(0 6 6)" stroke="none"><path fill="#1e1e1e" d="M -0.89,-1.34 Q -0.89,-1.34 -0.00,-1.88 0.89,-2.41 2.47,-2.86 4.05,-3.31 5.60,-2.54 7.16,-1.78 8.11,-0.56 9.06,0.66 9.77,1.47 10.48,2.27 11.04,3.29 11.61,4.30 12.88,5.59 14.15,6.87 14.18,8.35 14.21,9.82 13.44,10.71 12.66,11.60 11.72,12.52 10.78,13.44 9.39,13.92 8.01,14.41 5.03,14.86 2.06,15.31 1.85,15.28 1.64,15.26 1.44,15.17 1.25,15.08 1.10,14.93 0.94,14.78 0.85,14.59 0.75,14.41 0.71,14.20 0.68,13.99 0.72,13.78 0.75,13.57 0.85,13.38 0.95,13.19 1.11,13.05 1.27,12.90 1.46,12.82 1.65,12.73 1.86,12.71 2.07,12.68 2.28,12.73 2.49,12.78 2.67,12.89 2.85,13.00 2.99,13.16 3.12,13.33 3.20,13.52 3.28,13.72 3.29,13.93 3.30,14.15 3.24,14.35 3.18,14.55 3.06,14.73 2.94,14.90 2.77,15.03 2.60,15.16 2.40,15.23 2.20,15.29 1.99,15.29 1.77,15.29 1.57,15.22 1.37,15.15 1.20,15.02 1.04,14.89 0.92,14.72 0.80,14.54 0.74,14.33 0.69,14.13 0.70,13.92 0.71,13.70 0.79,13.51 0.87,13.31 1.01,13.15 1.15,12.99 1.33,12.88 1.52,12.77 1.73,12.73 1.93,12.68 1.93,12.68 1.93,12.68 4.69,12.00 7.45,11.32 8.51,10.76 9.57,10.20 10.61,9.07 11.64,7.94 10.47,7.08 9.29,6.21 8.26,4.71 7.23,3.20 6.27,1.91 5.32,0.62 3.94,0.37 2.55,0.11 1.72,0.73 0.89,1.34 0.72,1.43 0.54,1.51 0.35,1.56 0.16,1.60 -0.02,1.60 -0.22,1.59 -0.40,1.54 -0.59,1.49 -0.76,1.40 -0.93,1.31 -1.08,1.18 -1.22,1.05 -1.33,0.88 -1.44,0.72 -1.50,0.54 -1.57,0.36 -1.59,0.16 -1.61,-0.02 -1.58,-0.21 -1.56,-0.41 -1.48,-0.59 -1.41,-0.77 -1.30,-0.93 -1.19,-1.08 -1.04,-1.21 -0.89,-1.34 -0.89,-1.34 L -0.89,-1.34 Z"></path></g><g transform="translate(667 365) rotate(0 -2 11.5)" stroke="none"><path fill="#1e1e1e" d="M 0,1.61 Q 0,1.61 -0.86,1.55 -1.72,1.48 -2.94,1.49 -4.16,1.50 -5.46,1.51 -6.75,1.53 -7.40,2.57 -8.04,3.62 -8.62,5.51 -9.19,7.40 -9.60,9.89 -10.01,12.39 -9.90,14.56 -9.80,16.74 -9.44,17.77 -9.09,18.80 -7.93,19.97 -6.77,21.14 -5.49,21.22 -4.20,21.31 -2.97,21.10 -1.74,20.89 -0.67,20.75 0.38,20.61 1.46,20.22 2.54,19.83 3.30,18.37 4.07,16.92 4.63,15.68 5.19,14.44 5.71,13.38 6.22,12.31 6.28,11.08 6.34,9.85 6.34,8.11 6.34,6.36 6.15,5.07 5.95,3.78 4.87,3.27 3.79,2.76 2.34,2.53 0.89,2.30 0.68,2.25 0.47,2.20 0.30,2.09 0.12,1.97 -0.01,1.81 -0.14,1.64 -0.21,1.44 -0.29,1.24 -0.29,1.03 -0.30,0.82 -0.23,0.61 -0.17,0.41 -0.05,0.24 0.07,0.06 0.24,-0.05 0.41,-0.17 0.62,-0.23 0.82,-0.30 1.03,-0.29 1.24,-0.28 1.44,-0.21 1.64,-0.14 1.81,-0.00 1.97,0.12 2.09,0.30 2.20,0.48 2.25,0.68 2.30,0.89 2.29,1.10 2.27,1.31 2.18,1.51 2.10,1.70 1.96,1.86 1.82,2.02 1.63,2.12 1.45,2.23 1.24,2.27 1.03,2.31 0.82,2.28 0.61,2.25 0.42,2.16 0.23,2.06 0.08,1.91 -0.06,1.76 -0.16,1.57 -0.25,1.38 -0.28,1.17 -0.31,0.96 -0.27,0.75 -0.23,0.54 -0.12,0.36 -0.02,0.17 0.13,0.03 0.29,-0.10 0.48,-0.19 0.68,-0.27 0.89,-0.29 1.10,-0.30 1.10,-0.30 1.10,-0.30 2.79,-0.27 4.48,-0.24 5.58,0.04 6.68,0.34 7.78,1.31 8.89,2.29 9.26,4.33 9.63,6.38 9.60,8.19 9.57,10.00 9.43,11.61 9.30,13.23 8.75,14.33 8.19,15.44 7.39,17.13 6.58,18.83 5.75,20.13 4.92,21.42 3.79,22.17 2.67,22.91 0.93,23.41 -0.79,23.91 -1.91,24.21 -3.03,24.52 -4.77,24.39 -6.50,24.25 -7.59,23.92 -8.67,23.58 -9.82,22.63 -10.97,21.68 -11.51,20.74 -12.04,19.80 -12.46,18.53 -12.87,17.27 -13.11,15.70 -13.34,14.14 -13.18,12.90 -13.02,11.66 -12.72,10.45 -12.41,9.25 -12.32,8.08 -12.23,6.92 -11.96,5.46 -11.70,3.99 -10.80,2.27 -9.90,0.55 -8.38,-0.48 -6.87,-1.53 -5.52,-1.51 -4.16,-1.50 -2.94,-1.49 -1.72,-1.48 -0.86,-1.55 0,-1.61 0.19,-1.59 0.38,-1.56 0.56,-1.49 0.75,-1.42 0.91,-1.31 1.07,-1.20 1.19,-1.06 1.32,-0.91 1.41,-0.74 1.50,-0.57 1.55,-0.38 1.60,-0.19 1.60,0.00 1.60,0.19 1.55,0.38 1.50,0.57 1.41,0.74 1.32,0.91 1.19,1.06 1.07,1.20 0.91,1.31 0.74,1.42 0.56,1.49 0.38,1.56 0.19,1.59 -0.00,1.61 -0.00,1.61 L 0,1.61 Z"></path></g><g transform="translate(715 275) rotate(0 0 5)" stroke="none"><path fill="#1e1e1e" d="M 1.61,0 Q 1.61,0 1.50,1.43 1.39,2.87 1.40,4.73 1.40,6.58 1.35,8.79 1.31,11 1.27,11.20 1.24,11.41 1.14,11.60 1.04,11.79 0.89,11.94 0.73,12.08 0.54,12.17 0.35,12.26 0.14,12.28 -0.07,12.31 -0.27,12.26 -0.48,12.22 -0.66,12.11 -0.85,12.00 -0.98,11.83 -1.12,11.67 -1.20,11.47 -1.28,11.28 -1.29,11.07 -1.30,10.85 -1.24,10.65 -1.19,10.44 -1.07,10.27 -0.95,10.09 -0.78,9.96 -0.61,9.83 -0.41,9.77 -0.21,9.70 0.00,9.70 0.21,9.70 0.41,9.77 0.61,9.83 0.78,9.96 0.95,10.09 1.07,10.27 1.19,10.44 1.24,10.65 1.30,10.85 1.29,11.07 1.28,11.28 1.20,11.47 1.12,11.67 0.98,11.83 0.84,12.00 0.66,12.11 0.48,12.22 0.27,12.26 0.07,12.31 -0.14,12.28 -0.35,12.26 -0.54,12.17 -0.73,12.08 -0.89,11.94 -1.04,11.79 -1.14,11.60 -1.24,11.41 -1.27,11.20 -1.31,10.99 -1.31,10.99 -1.31,11 -1.35,8.79 -1.40,6.58 -1.40,4.73 -1.39,2.87 -1.50,1.43 -1.61,0 -1.59,-0.19 -1.56,-0.38 -1.49,-0.56 -1.42,-0.75 -1.31,-0.91 -1.20,-1.07 -1.06,-1.19 -0.91,-1.32 -0.74,-1.41 -0.57,-1.50 -0.38,-1.55 -0.19,-1.60 0.00,-1.60 0.19,-1.60 0.38,-1.55 0.57,-1.50 0.74,-1.41 0.91,-1.32 1.06,-1.19 1.20,-1.07 1.31,-0.91 1.42,-0.74 1.49,-0.56 1.56,-0.38 1.59,-0.19 1.61,0.00 1.61,0.00 L 1.61,0 Z"></path></g><g transform="translate(715 297) rotate(0 0 4)" stroke="none"><path fill="#1e1e1e" d="M 1.61,0 Q 1.61,0 1.51,1.15 1.41,2.3 1.41,3.36 1.40,4.42 1.35,6.21 1.31,8 1.27,8.20 1.24,8.41 1.14,8.60 1.04,8.79 0.89,8.94 0.73,9.08 0.54,9.17 0.35,9.26 0.14,9.28 -0.07,9.31 -0.27,9.26 -0.48,9.22 -0.66,9.11 -0.85,9.00 -0.98,8.83 -1.12,8.67 -1.20,8.47 -1.28,8.28 -1.29,8.07 -1.30,7.85 -1.24,7.65 -1.19,7.44 -1.07,7.27 -0.95,7.09 -0.78,6.96 -0.61,6.83 -0.41,6.77 -0.21,6.70 0.00,6.70 0.21,6.70 0.41,6.77 0.61,6.83 0.78,6.96 0.95,7.09 1.07,7.27 1.19,7.44 1.24,7.65 1.30,7.85 1.29,8.07 1.28,8.28 1.20,8.47 1.12,8.67 0.98,8.83 0.84,9.00 0.66,9.11 0.48,9.22 0.27,9.26 0.07,9.31 -0.14,9.28 -0.35,9.26 -0.54,9.17 -0.73,9.08 -0.89,8.94 -1.04,8.79 -1.14,8.60 -1.24,8.41 -1.27,8.20 -1.31,7.99 -1.31,7.99 -1.31,8 -1.35,6.21 -1.40,4.42 -1.41,3.36 -1.41,2.3 -1.51,1.15 -1.61,0 -1.59,-0.19 -1.56,-0.38 -1.49,-0.56 -1.42,-0.75 -1.31,-0.91 -1.20,-1.07 -1.06,-1.19 -0.91,-1.32 -0.74,-1.41 -0.57,-1.50 -0.38,-1.55 -0.19,-1.60 0.00,-1.60 0.19,-1.60 0.38,-1.55 0.57,-1.50 0.74,-1.41 0.91,-1.32 1.06,-1.19 1.20,-1.07 1.31,-0.91 1.42,-0.74 1.49,-0.56 1.56,-0.38 1.59,-0.19 1.61,0.00 1.61,0.00 L 1.61,0 Z"></path></g><g transform="translate(716 320) rotate(0 0 4)" stroke="none"><path fill="#1e1e1e" d="M 1.61,0 Q 1.61,0 1.50,1.15 1.39,2.3 1.35,5.15 1.31,8 1.27,8.20 1.24,8.41 1.14,8.60 1.04,8.79 0.89,8.94 0.73,9.08 0.54,9.17 0.35,9.26 0.14,9.28 -0.07,9.31 -0.27,9.26 -0.48,9.22 -0.66,9.11 -0.85,9.00 -0.98,8.83 -1.12,8.67 -1.20,8.47 -1.28,8.28 -1.29,8.07 -1.30,7.85 -1.24,7.65 -1.19,7.44 -1.07,7.27 -0.95,7.09 -0.78,6.96 -0.61,6.83 -0.41,6.77 -0.21,6.70 0.00,6.70 0.21,6.70 0.41,6.77 0.61,6.83 0.78,6.96 0.95,7.09 1.07,7.27 1.19,7.44 1.24,7.65 1.30,7.85 1.29,8.07 1.28,8.28 1.20,8.47 1.12,8.67 0.98,8.83 0.84,9.00 0.66,9.11 0.48,9.22 0.27,9.26 0.07,9.31 -0.14,9.28 -0.35,9.26 -0.54,9.17 -0.73,9.08 -0.89,8.94 -1.04,8.79 -1.14,8.60 -1.24,8.41 -1.27,8.20 -1.31,7.99 -1.31,7.99 -1.31,8 -1.35,5.15 -1.39,2.3 -1.50,1.15 -1.61,0 -1.59,-0.19 -1.56,-0.38 -1.49,-0.56 -1.42,-0.75 -1.31,-0.91 -1.20,-1.07 -1.06,-1.19 -0.91,-1.32 -0.74,-1.41 -0.57,-1.50 -0.38,-1.55 -0.19,-1.60 0.00,-1.60 0.19,-1.60 0.38,-1.55 0.57,-1.50 0.74,-1.41 0.91,-1.32 1.06,-1.19 1.20,-1.07 1.31,-0.91 1.42,-0.74 1.49,-0.56 1.56,-0.38 1.59,-0.19 1.61,0.00 1.61,0.00 L 1.61,0 Z"></path></g><g transform="translate(717 338) rotate(0 -0.5 3)" stroke="none"><path fill="#1e1e1e" d="M 1.53,0.51 Q 1.53,0.51 1.12,1.33 0.72,2.15 0.94,3.78 1.17,5.40 1.23,5.61 1.30,5.81 1.29,6.02 1.29,6.24 1.21,6.44 1.14,6.64 1.01,6.80 0.88,6.97 0.70,7.08 0.52,7.20 0.31,7.25 0.11,7.30 -0.09,7.29 -0.30,7.27 -0.50,7.19 -0.70,7.11 -0.86,6.96 -1.01,6.82 -1.12,6.64 -1.23,6.45 -1.27,6.25 -1.31,6.04 -1.28,5.83 -1.25,5.62 -1.16,5.43 -1.07,5.23 -0.92,5.08 -0.77,4.93 -0.58,4.84 -0.39,4.74 -0.18,4.71 0.02,4.68 0.23,4.72 0.44,4.76 0.63,4.86 0.81,4.97 0.96,5.12 1.10,5.28 1.18,5.48 1.27,5.67 1.29,5.88 1.30,6.09 1.25,6.30 1.20,6.51 1.09,6.69 0.98,6.87 0.81,7.00 0.65,7.13 0.45,7.21 0.25,7.28 0.04,7.29 -0.17,7.30 -0.37,7.24 -0.57,7.17 -0.75,7.05 -0.92,6.93 -1.04,6.76 -1.17,6.58 -1.17,6.58 -1.17,6.59 -1.52,3.94 -1.87,1.29 -1.70,0.39 -1.53,-0.51 -1.44,-0.68 -1.36,-0.86 -1.24,-1.01 -1.11,-1.16 -0.96,-1.28 -0.80,-1.39 -0.62,-1.47 -0.44,-1.55 -0.25,-1.58 -0.06,-1.61 0.12,-1.59 0.32,-1.58 0.50,-1.52 0.69,-1.45 0.85,-1.35 1.02,-1.25 1.15,-1.11 1.28,-0.97 1.38,-0.80 1.48,-0.63 1.53,-0.44 1.59,-0.25 1.60,-0.06 1.60,0.12 1.57,0.31 1.53,0.51 1.53,0.51 L 1.53,0.51 Z"></path></g><g transform="translate(719 351) rotate(0 -0.5 3.5)" stroke="none"><path fill="#1e1e1e" d="M 1.56,0.39 Q 1.56,0.39 1.19,1.52 0.82,2.65 1.00,4.53 1.18,6.42 1.24,6.63 1.30,6.83 1.29,7.04 1.28,7.26 1.21,7.45 1.13,7.65 1.00,7.82 0.86,7.98 0.68,8.09 0.50,8.21 0.29,8.26 0.09,8.31 -0.11,8.29 -0.33,8.27 -0.52,8.18 -0.71,8.09 -0.87,7.95 -1.03,7.81 -1.13,7.62 -1.23,7.43 -1.27,7.23 -1.31,7.02 -1.28,6.81 -1.25,6.60 -1.15,6.41 -1.05,6.22 -0.90,6.07 -0.75,5.92 -0.56,5.83 -0.37,5.74 -0.16,5.71 0.04,5.68 0.25,5.72 0.46,5.77 0.65,5.87 0.83,5.98 0.97,6.14 1.11,6.30 1.19,6.50 1.27,6.69 1.29,6.90 1.30,7.12 1.25,7.32 1.20,7.53 1.08,7.70 0.96,7.88 0.80,8.01 0.63,8.15 0.43,8.22 0.23,8.29 0.02,8.29 -0.19,8.29 -0.39,8.23 -0.59,8.17 -0.76,8.04 -0.93,7.91 -1.06,7.74 -1.18,7.57 -1.18,7.57 -1.18,7.57 -1.58,4.76 -1.97,1.94 -1.77,0.77 -1.56,-0.39 -1.49,-0.57 -1.42,-0.75 -1.31,-0.91 -1.20,-1.07 -1.05,-1.20 -0.91,-1.33 -0.73,-1.42 -0.56,-1.51 -0.37,-1.55 -0.18,-1.60 0.00,-1.60 0.19,-1.60 0.38,-1.55 0.57,-1.50 0.74,-1.41 0.92,-1.32 1.06,-1.19 1.21,-1.06 1.32,-0.90 1.43,-0.74 1.50,-0.56 1.56,-0.38 1.59,-0.18 1.61,0.00 1.58,0.19 1.56,0.39 1.56,0.39 L 1.56,0.39 Z"></path></g><g transform="translate(725 367) rotate(0 -4 11)" stroke="none"><path fill="#1e1e1e" d="M 1.14,1.14 Q 1.14,1.14 0.24,1.94 -0.64,2.75 -1.15,4.04 -1.66,5.34 -2.19,7.32 -2.72,9.31 -3.54,11.95 -4.36,14.58 -5.00,16.56 -5.63,18.54 -5.18,18.92 -4.72,19.30 -4.77,19.45 -4.83,19.60 -4.92,19.73 -5.01,19.86 -5.12,19.97 -5.24,20.07 -5.38,20.15 -5.52,20.22 -5.67,20.26 -5.83,20.30 -5.99,20.30 -6.14,20.30 -6.30,20.26 -6.45,20.23 -6.59,20.15 -6.73,20.08 -6.85,19.98 -6.97,19.87 -7.06,19.74 -7.15,19.61 -7.21,19.47 -7.27,19.32 -7.29,19.16 -7.31,19.00 -7.29,18.85 -7.27,18.69 -7.02,18.31 -6.76,17.93 -6.57,17.83 -6.38,17.74 -6.17,17.71 -5.96,17.68 -5.75,17.72 -5.54,17.76 -5.36,17.87 -5.17,17.97 -5.03,18.13 -4.89,18.29 -4.81,18.48 -4.72,18.68 -4.70,18.89 -4.69,19.10 -4.74,19.31 -4.79,19.51 -4.90,19.69 -5.02,19.87 -5.18,20.00 -5.35,20.14 -5.55,20.21 -5.75,20.28 -5.96,20.29 -6.17,20.30 -6.37,20.23 -6.58,20.17 -6.75,20.05 -6.92,19.93 -7.05,19.75 -7.17,19.58 -7.23,19.38 -7.30,19.17 -7.29,18.96 -7.29,18.75 -7.21,18.55 -7.14,18.35 -7.01,18.18 -6.87,18.02 -6.69,17.90 -6.52,17.79 -6.31,17.74 -6.10,17.69 -5.89,17.70 -5.68,17.72 -5.48,17.80 -5.29,17.89 -5.13,18.03 -4.97,18.17 -4.87,18.36 -4.76,18.54 -4.72,18.75 -4.68,18.96 -4.71,19.17 -4.74,19.38 -4.83,19.57 -4.93,19.76 -4.82,19.53 -4.72,19.30 -4.77,19.45 -4.83,19.60 -4.92,19.73 -5.01,19.86 -5.12,19.97 -5.24,20.07 -5.38,20.15 -5.52,20.22 -5.67,20.26 -5.83,20.30 -5.99,20.30 -6.14,20.30 -6.30,20.26 -6.45,20.23 -6.59,20.15 -6.73,20.08 -6.85,19.98 -6.97,19.87 -7.06,19.74 -7.15,19.61 -7.21,19.47 -7.27,19.32 -7.29,19.16 -7.31,19.00 -7.29,18.85 -7.27,18.69 -8.14,19.41 -9.01,20.13 -8.74,18.88 -8.48,17.62 -7.85,15.66 -7.22,13.69 -6.41,11.11 -5.60,8.53 -5.00,6.35 -4.39,4.17 -3.60,2.43 -2.80,0.69 -1.97,-0.22 -1.14,-1.14 -0.98,-1.26 -0.83,-1.38 -0.65,-1.46 -0.48,-1.54 -0.28,-1.57 -0.09,-1.61 0.09,-1.59 0.29,-1.58 0.47,-1.52 0.66,-1.47 0.82,-1.37 0.99,-1.27 1.13,-1.13 1.27,-0.99 1.37,-0.82 1.47,-0.66 1.52,-0.47 1.58,-0.29 1.59,-0.09 1.61,0.09 1.57,0.28 1.54,0.48 1.46,0.65 1.38,0.83 1.26,0.98 1.14,1.14 1.14,1.14 L 1.14,1.14 Z"></path></g><g transform="translate(725 366) rotate(0 3 11.5)" stroke="none"><path fill="#1e1e1e" d="M 1.53,-0.51 Q 1.53,-0.51 2.06,1.22 2.59,2.96 3.12,4.88 3.66,6.80 4.18,8.77 4.69,10.73 5.19,12.71 5.69,14.70 6.17,16.38 6.65,18.07 6.97,20.45 7.30,22.83 7.29,23.04 7.28,23.25 7.21,23.45 7.13,23.65 7.00,23.82 6.86,23.98 6.68,24.09 6.50,24.21 6.30,24.26 6.09,24.30 5.88,24.29 5.67,24.27 5.47,24.18 5.28,24.09 5.12,23.95 4.96,23.81 4.86,23.62 4.76,23.44 4.72,23.23 4.68,23.02 4.71,22.81 4.74,22.60 4.84,22.41 4.94,22.22 5.09,22.07 5.24,21.92 5.43,21.83 5.62,21.74 5.83,21.71 6.04,21.68 6.25,21.72 6.46,21.77 6.64,21.87 6.83,21.98 6.97,22.14 7.11,22.30 7.19,22.49 7.27,22.69 7.29,22.90 7.30,23.11 7.25,23.32 7.20,23.53 7.08,23.70 6.96,23.88 6.80,24.01 6.63,24.14 6.43,24.22 6.23,24.29 6.02,24.29 5.80,24.29 5.60,24.23 5.40,24.17 5.23,24.04 5.06,23.91 4.93,23.74 4.81,23.57 4.75,23.36 4.69,23.16 4.69,23.16 4.69,23.16 4.27,21.02 3.86,18.89 3.33,17.16 2.80,15.44 2.29,13.47 1.78,11.50 1.27,9.56 0.76,7.62 0.23,5.77 -0.29,3.93 -0.91,2.22 -1.53,0.51 -1.57,0.31 -1.60,0.12 -1.60,-0.06 -1.59,-0.25 -1.53,-0.44 -1.48,-0.63 -1.38,-0.80 -1.28,-0.97 -1.15,-1.11 -1.02,-1.25 -0.85,-1.35 -0.69,-1.45 -0.50,-1.52 -0.32,-1.58 -0.12,-1.59 0.06,-1.61 0.25,-1.58 0.44,-1.55 0.62,-1.47 0.80,-1.39 0.96,-1.28 1.11,-1.16 1.24,-1.01 1.36,-0.86 1.44,-0.68 1.53,-0.51 1.53,-0.51 L 1.53,-0.51 Z"></path></g><g transform="translate(714 378) rotate(0 10.5 0.5)" stroke="none"><path fill="#1e1e1e" d="M 0.31,-1.58 Q 0.31,-1.58 1.74,-1.23 3.16,-0.89 4.91,-0.73 6.66,-0.57 8.32,-0.55 9.97,-0.52 11.50,-0.50 13.02,-0.48 14.41,-0.47 15.79,-0.47 18.39,-0.39 21.00,-0.31 21.20,-0.27 21.41,-0.24 21.60,-0.14 21.79,-0.04 21.94,0.10 22.08,0.26 22.17,0.45 22.26,0.64 22.28,0.85 22.31,1.07 22.26,1.27 22.22,1.48 22.11,1.66 22.00,1.85 21.83,1.98 21.67,2.12 21.47,2.20 21.28,2.28 21.07,2.29 20.85,2.30 20.65,2.24 20.44,2.19 20.27,2.07 20.09,1.95 19.96,1.78 19.83,1.61 19.77,1.41 19.70,1.21 19.70,0.99 19.70,0.78 19.77,0.58 19.83,0.38 19.96,0.21 20.09,0.04 20.27,-0.07 20.44,-0.19 20.65,-0.24 20.85,-0.30 21.07,-0.29 21.28,-0.28 21.47,-0.20 21.67,-0.12 21.83,0.01 22.00,0.15 22.11,0.33 22.22,0.51 22.26,0.72 22.31,0.92 22.28,1.14 22.26,1.35 22.17,1.54 22.08,1.73 21.94,1.89 21.79,2.04 21.60,2.14 21.41,2.24 21.20,2.27 20.99,2.31 20.99,2.31 20.99,2.31 18.39,2.39 15.79,2.47 14.40,2.47 13.02,2.47 11.47,2.48 9.93,2.49 8.22,2.45 6.50,2.42 4.54,2.23 2.58,2.04 1.13,1.81 -0.31,1.58 -0.50,1.52 -0.68,1.46 -0.85,1.35 -1.01,1.25 -1.15,1.11 -1.28,0.97 -1.38,0.80 -1.48,0.63 -1.53,0.45 -1.59,0.26 -1.60,0.07 -1.60,-0.12 -1.57,-0.31 -1.53,-0.50 -1.45,-0.68 -1.36,-0.85 -1.24,-1.00 -1.12,-1.15 -0.96,-1.27 -0.81,-1.39 -0.63,-1.47 -0.45,-1.54 -0.26,-1.58 -0.07,-1.61 0.12,-1.59 0.31,-1.58 0.31,-1.58 L 0.31,-1.58 Z"></path></g><g transform="translate(773 259) rotate(0 -3 11.5)" stroke="none"><path fill="#1e1e1e" d="M 0,1.61 Q 0,1.61 -0.76,1.49 -1.53,1.36 -2.34,2.92 -3.14,4.48 -3.71,6.17 -4.28,7.86 -4.68,8.96 -5.08,10.05 -5.24,11.43 -5.41,12.81 -5.21,14.11 -5.01,15.41 -4.28,16.32 -3.54,17.23 -2.79,18.38 -2.04,19.53 -0.06,21.29 1.91,23.05 2.04,23.23 2.16,23.40 2.23,23.60 2.29,23.80 2.29,24.01 2.29,24.23 2.22,24.43 2.15,24.63 2.02,24.79 1.88,24.96 1.71,25.08 1.53,25.19 1.32,25.25 1.12,25.30 0.91,25.29 0.69,25.27 0.50,25.19 0.30,25.11 0.14,24.97 -0.01,24.83 -0.12,24.65 -0.22,24.46 -0.26,24.26 -0.31,24.05 -0.28,23.84 -0.26,23.63 -0.16,23.43 -0.07,23.24 0.07,23.09 0.22,22.94 0.40,22.84 0.59,22.74 0.80,22.71 1.01,22.68 1.22,22.72 1.43,22.76 1.62,22.86 1.81,22.96 1.95,23.12 2.09,23.27 2.18,23.47 2.27,23.66 2.29,23.87 2.31,24.09 2.26,24.29 2.21,24.50 2.10,24.68 1.98,24.86 1.82,24.99 1.66,25.13 1.46,25.21 1.26,25.28 1.05,25.29 0.83,25.30 0.63,25.24 0.43,25.18 0.25,25.06 0.08,24.94 0.08,24.94 0.08,24.94 -1.61,23.46 -3.30,21.98 -4.06,21.10 -4.82,20.22 -5.82,19.11 -6.82,17.99 -7.63,16.30 -8.44,14.60 -8.32,12.62 -8.20,10.64 -7.67,8.96 -7.15,7.29 -6.45,5.26 -5.76,3.23 -5.06,1.80 -4.36,0.37 -3.13,-0.49 -1.91,-1.36 -0.95,-1.49 0,-1.61 0.19,-1.59 0.38,-1.56 0.56,-1.49 0.75,-1.42 0.91,-1.31 1.07,-1.20 1.19,-1.06 1.32,-0.91 1.41,-0.74 1.50,-0.57 1.55,-0.38 1.60,-0.19 1.60,0.00 1.60,0.19 1.55,0.38 1.50,0.57 1.41,0.74 1.32,0.91 1.19,1.06 1.07,1.20 0.91,1.31 0.74,1.42 0.56,1.49 0.38,1.56 0.19,1.59 -0.00,1.61 -0.00,1.61 L 0,1.61 Z"></path></g><g transform="translate(780 271) rotate(0 8 -2)" stroke="none"><path fill="#1e1e1e" d="M -1.53,-0.51 Q -1.53,-0.51 -0.86,-2.20 -0.20,-3.90 0.34,-5.25 0.89,-6.60 1.41,-7.75 1.93,-8.91 3.56,-10.25 5.19,-11.59 5.78,-10.70 6.37,-9.81 7.10,-8.03 7.83,-6.25 8.54,-5.01 9.25,-3.77 10.08,-2.72 10.92,-1.67 12.04,-0.72 13.17,0.23 14.20,0.93 15.22,1.62 16.24,4.49 17.26,7.36 17.16,7.55 17.07,7.75 16.92,7.90 16.78,8.05 16.59,8.15 16.40,8.24 16.19,8.28 15.98,8.31 15.77,8.27 15.56,8.23 15.37,8.13 15.19,8.03 15.04,7.87 14.90,7.72 14.81,7.52 14.73,7.33 14.70,7.12 14.68,6.91 14.73,6.70 14.78,6.49 14.89,6.31 15.00,6.13 15.17,6.00 15.33,5.86 15.53,5.79 15.73,5.71 15.94,5.70 16.15,5.69 16.36,5.75 16.56,5.81 16.74,5.93 16.91,6.05 17.04,6.22 17.16,6.39 17.23,6.60 17.29,6.80 17.29,7.01 17.29,7.22 17.22,7.42 17.15,7.62 17.02,7.79 16.89,7.96 16.71,8.08 16.53,8.19 16.33,8.25 16.12,8.30 15.91,8.29 15.70,8.27 15.50,8.19 15.30,8.11 15.14,7.97 14.98,7.83 14.88,7.65 14.77,7.47 14.73,7.26 14.68,7.05 14.71,6.84 14.73,6.63 14.73,6.63 14.73,6.63 14.12,5.40 13.51,4.18 12.32,3.39 11.14,2.61 9.78,1.44 8.43,0.27 7.47,-0.98 6.51,-2.24 5.71,-3.72 4.91,-5.20 4.73,-6.46 4.54,-7.73 4.03,-6.63 3.53,-5.52 3.01,-4.26 2.50,-2.99 2.01,-1.24 1.53,0.51 1.44,0.68 1.36,0.86 1.24,1.01 1.11,1.16 0.96,1.28 0.80,1.39 0.62,1.47 0.44,1.55 0.25,1.58 0.06,1.61 -0.12,1.59 -0.32,1.58 -0.50,1.52 -0.69,1.45 -0.85,1.35 -1.02,1.25 -1.15,1.11 -1.28,0.97 -1.38,0.80 -1.48,0.63 -1.53,0.44 -1.59,0.25 -1.60,0.06 -1.60,-0.12 -1.57,-0.31 -1.53,-0.51 -1.53,-0.51 L -1.53,-0.51 Z"></path></g><g transform="translate(797 261) rotate(0 -7.5 9)" stroke="none"><path fill="#1e1e1e" d="M 1.29,0.96 Q 1.29,0.96 0.39,2.09 -0.49,3.22 -1.75,4.63 -3.02,6.05 -4.34,7.98 -5.66,9.91 -7.45,11.98 -9.25,14.05 -10.55,15.71 -11.85,17.36 -11.40,18.08 -10.95,18.79 -11.06,18.91 -11.17,19.02 -11.31,19.10 -11.44,19.19 -11.59,19.24 -11.74,19.28 -11.90,19.30 -12.06,19.31 -12.22,19.28 -12.37,19.25 -12.52,19.19 -12.66,19.13 -12.79,19.03 -12.91,18.93 -13.01,18.81 -13.11,18.69 -13.18,18.54 -13.24,18.40 -13.27,18.24 -13.31,18.09 -13.30,17.93 -13.29,17.77 -13.24,17.62 -13.20,17.47 -13.12,17.33 -13.04,17.20 -12.28,16.98 -11.52,16.77 -11.33,16.88 -11.15,16.99 -11.01,17.15 -10.87,17.31 -10.79,17.51 -10.71,17.71 -10.70,17.92 -10.69,18.13 -10.74,18.33 -10.80,18.54 -10.92,18.72 -11.04,18.89 -11.20,19.02 -11.37,19.15 -11.57,19.22 -11.77,19.29 -11.99,19.29 -12.20,19.29 -12.40,19.23 -12.60,19.16 -12.77,19.03 -12.94,18.90 -13.06,18.73 -13.18,18.55 -13.24,18.35 -13.30,18.14 -13.29,17.93 -13.28,17.72 -13.20,17.52 -13.12,17.32 -12.99,17.16 -12.85,17.00 -12.67,16.89 -12.49,16.78 -12.28,16.73 -12.07,16.68 -11.86,16.71 -11.65,16.73 -11.46,16.82 -11.26,16.90 -11.11,17.05 -10.95,17.19 -10.85,17.38 -10.75,17.57 -10.72,17.78 -10.68,17.99 -10.71,18.20 -10.75,18.41 -10.85,18.60 -10.95,18.78 -11.10,18.93 -11.25,19.08 -11.44,19.17 -11.64,19.26 -11.85,19.28 -12.06,19.31 -11.51,19.05 -10.95,18.79 -11.06,18.91 -11.17,19.02 -11.31,19.10 -11.44,19.19 -11.59,19.24 -11.74,19.28 -11.90,19.30 -12.06,19.31 -12.22,19.28 -12.37,19.25 -12.52,19.19 -12.66,19.13 -12.79,19.03 -12.91,18.93 -13.01,18.81 -13.11,18.69 -13.18,18.54 -13.24,18.40 -13.27,18.24 -13.30,18.09 -13.30,17.93 -13.29,17.77 -13.24,17.62 -13.20,17.47 -13.12,17.33 -13.04,17.20 -13.65,16.38 -14.26,15.56 -12.93,13.79 -11.60,12.01 -9.92,10.07 -8.24,8.13 -6.79,6.04 -5.34,3.95 -4.14,2.66 -2.95,1.37 -2.12,0.20 -1.29,-0.96 -1.15,-1.10 -1.02,-1.24 -0.85,-1.35 -0.69,-1.45 -0.50,-1.51 -0.32,-1.58 -0.13,-1.59 0.06,-1.61 0.25,-1.58 0.44,-1.55 0.62,-1.47 0.80,-1.39 0.96,-1.28 1.11,-1.16 1.24,-1.01 1.36,-0.86 1.44,-0.68 1.53,-0.51 1.56,-0.32 1.60,-0.13 1.60,0.06 1.59,0.25 1.53,0.44 1.48,0.63 1.38,0.79 1.29,0.96 1.29,0.96 L 1.29,0.96 Z"></path></g><g transform="translate(804 274) rotate(0 -0.5 2)" stroke="none"><path fill="#1e1e1e" d="M 1.56,0.39 Q 1.56,0.39 0.91,2.35 0.27,4.31 0.18,4.51 0.10,4.70 -0.03,4.86 -0.17,5.02 -0.36,5.12 -0.54,5.23 -0.75,5.27 -0.96,5.31 -1.17,5.28 -1.38,5.25 -1.57,5.16 -1.76,5.06 -1.91,4.91 -2.06,4.76 -2.16,4.57 -2.25,4.38 -2.28,4.17 -2.31,3.96 -2.27,3.75 -2.23,3.54 -2.12,3.36 -2.02,3.17 -1.86,3.03 -1.70,2.89 -1.51,2.80 -1.31,2.72 -1.10,2.70 -0.89,2.69 -0.68,2.74 -0.47,2.79 -0.30,2.90 -0.12,3.02 0.01,3.18 0.14,3.35 0.21,3.55 0.29,3.75 0.29,3.96 0.30,4.17 0.23,4.38 0.17,4.58 0.05,4.75 -0.07,4.93 -0.24,5.05 -0.41,5.17 -0.62,5.23 -0.82,5.30 -1.03,5.29 -1.24,5.28 -1.44,5.21 -1.64,5.14 -1.81,5.00 -1.97,4.87 -2.09,4.69 -2.20,4.51 -2.25,4.31 -2.30,4.10 -2.29,3.89 -2.27,3.68 -2.27,3.68 -2.27,3.68 -1.91,1.64 -1.56,-0.39 -1.49,-0.57 -1.42,-0.75 -1.31,-0.91 -1.20,-1.07 -1.05,-1.20 -0.91,-1.33 -0.73,-1.42 -0.56,-1.51 -0.37,-1.55 -0.18,-1.60 0.00,-1.60 0.19,-1.60 0.38,-1.55 0.57,-1.50 0.74,-1.41 0.92,-1.32 1.06,-1.19 1.21,-1.06 1.32,-0.90 1.43,-0.74 1.50,-0.56 1.56,-0.38 1.59,-0.18 1.61,0.00 1.58,0.19 1.56,0.39 1.56,0.39 L 1.56,0.39 Z"></path></g><g transform="translate(819 258) rotate(0 1.5 5.5)" stroke="none"><path fill="#1e1e1e" d="M 1.58,-0.31 Q 1.58,-0.31 1.87,1.11 2.17,2.55 2.54,3.63 2.91,4.71 3.32,5.75 3.72,6.79 4.48,8.68 5.24,10.57 5.27,10.78 5.31,10.99 5.27,11.20 5.24,11.41 5.14,11.60 5.04,11.79 4.89,11.93 4.73,12.08 4.54,12.17 4.35,12.26 4.14,12.28 3.93,12.31 3.72,12.26 3.51,12.22 3.33,12.11 3.15,12.00 3.01,11.84 2.87,11.68 2.79,11.48 2.71,11.28 2.70,11.07 2.69,10.86 2.75,10.65 2.80,10.45 2.92,10.27 3.04,10.09 3.21,9.97 3.38,9.84 3.58,9.77 3.78,9.70 3.99,9.70 4.20,9.70 4.41,9.77 4.61,9.83 4.78,9.96 4.95,10.09 5.07,10.26 5.19,10.44 5.24,10.65 5.30,10.85 5.29,11.06 5.28,11.27 5.20,11.47 5.12,11.67 4.98,11.83 4.85,11.99 4.67,12.10 4.48,12.21 4.28,12.26 4.07,12.31 3.86,12.28 3.65,12.26 3.45,12.17 3.26,12.08 3.11,11.94 2.95,11.79 2.85,11.60 2.75,11.42 2.75,11.42 2.75,11.42 1.83,9.71 0.90,8.01 0.38,6.89 -0.13,5.77 -0.57,4.48 -1.02,3.19 -1.30,1.75 -1.58,0.31 -1.59,0.12 -1.61,-0.07 -1.58,-0.26 -1.54,-0.45 -1.47,-0.63 -1.39,-0.81 -1.27,-0.96 -1.15,-1.12 -1.00,-1.24 -0.85,-1.36 -0.68,-1.45 -0.50,-1.53 -0.31,-1.57 -0.12,-1.60 0.07,-1.60 0.26,-1.59 0.45,-1.53 0.63,-1.48 0.80,-1.38 0.97,-1.28 1.11,-1.15 1.25,-1.01 1.35,-0.85 1.46,-0.68 1.52,-0.50 1.58,-0.31 1.58,-0.31 L 1.58,-0.31 Z"></path></g><g transform="translate(831 255) rotate(0 -7.5 15)" stroke="none"><path fill="#1e1e1e" d="M 1.29,0.96 Q 1.29,0.96 0.41,2.10 -0.46,3.24 -1.44,4.34 -2.41,5.45 -2.97,6.85 -3.53,8.25 -4.39,10.36 -5.25,12.46 -5.87,14.98 -6.50,17.50 -7.38,20.11 -8.25,22.72 -9.25,24.74 -10.26,26.77 -12.15,29.34 -14.05,31.91 -14.22,32.04 -14.39,32.16 -14.60,32.23 -14.80,32.29 -15.01,32.29 -15.22,32.29 -15.42,32.22 -15.62,32.15 -15.79,32.02 -15.96,31.89 -16.08,31.71 -16.19,31.53 -16.25,31.33 -16.30,31.12 -16.29,30.91 -16.27,30.70 -16.19,30.50 -16.11,30.30 -15.97,30.14 -15.83,29.98 -15.65,29.88 -15.47,29.77 -15.26,29.73 -15.05,29.68 -14.84,29.71 -14.63,29.73 -14.44,29.83 -14.24,29.92 -14.09,30.07 -13.94,30.21 -13.84,30.40 -13.75,30.59 -13.71,30.80 -13.68,31.01 -13.72,31.22 -13.76,31.43 -13.86,31.62 -13.96,31.80 -14.12,31.95 -14.27,32.09 -14.47,32.18 -14.66,32.26 -14.87,32.29 -15.08,32.31 -15.29,32.26 -15.50,32.21 -15.68,32.10 -15.86,31.98 -15.99,31.82 -16.13,31.66 -16.21,31.46 -16.28,31.26 -16.29,31.05 -16.30,30.84 -16.24,30.63 -16.18,30.43 -16.06,30.25 -15.94,30.08 -15.94,30.08 -15.94,30.08 -14.45,27.77 -12.96,25.46 -12.09,23.59 -11.21,21.72 -10.38,19.23 -9.55,16.73 -8.86,14.00 -8.18,11.27 -7.30,9.14 -6.43,7.00 -5.61,5.20 -4.80,3.40 -3.89,2.38 -2.98,1.35 -2.13,0.19 -1.29,-0.96 -1.15,-1.10 -1.02,-1.24 -0.85,-1.35 -0.69,-1.45 -0.50,-1.51 -0.32,-1.58 -0.13,-1.59 0.06,-1.61 0.25,-1.58 0.44,-1.55 0.62,-1.47 0.80,-1.39 0.96,-1.28 1.11,-1.16 1.24,-1.01 1.36,-0.86 1.44,-0.68 1.53,-0.51 1.56,-0.32 1.60,-0.13 1.60,0.06 1.59,0.25 1.53,0.44 1.48,0.63 1.38,0.79 1.29,0.96 1.29,0.96 L 1.29,0.96 Z"></path></g><g transform="translate(839 258) rotate(0 1 9.5)" stroke="none"><path fill="#1e1e1e" d="M 1.26,-1.00 Q 1.26,-1.00 2.47,0.48 3.67,1.97 4.03,4.70 4.39,7.44 3.54,10.43 2.69,13.43 0.92,16.51 -0.83,19.60 -0.96,19.77 -1.09,19.94 -1.26,20.06 -1.44,20.18 -1.64,20.24 -1.85,20.30 -2.06,20.29 -2.27,20.28 -2.47,20.20 -2.67,20.12 -2.83,19.99 -2.99,19.85 -3.10,19.67 -3.21,19.49 -3.26,19.28 -3.31,19.07 -3.28,18.86 -3.26,18.65 -3.17,18.46 -3.09,18.26 -2.94,18.11 -2.80,17.95 -2.61,17.85 -2.42,17.75 -2.21,17.72 -2.00,17.68 -1.79,17.71 -1.58,17.75 -1.39,17.85 -1.21,17.95 -1.06,18.10 -0.91,18.25 -0.82,18.44 -0.73,18.64 -0.71,18.85 -0.68,19.06 -0.73,19.27 -0.77,19.47 -0.88,19.66 -0.99,19.84 -1.15,19.98 -1.31,20.12 -1.51,20.20 -1.71,20.28 -1.92,20.29 -2.13,20.30 -2.34,20.25 -2.54,20.19 -2.72,20.07 -2.89,19.95 -3.02,19.78 -3.15,19.62 -3.22,19.42 -3.29,19.21 -3.29,19.00 -3.29,18.79 -3.23,18.59 -3.16,18.39 -3.16,18.39 -3.16,18.39 -1.77,15.46 -0.39,12.53 0.30,10.09 1.01,7.65 0.96,5.71 0.92,3.77 -0.17,2.39 -1.26,1.00 -1.36,0.84 -1.46,0.67 -1.52,0.49 -1.58,0.30 -1.59,0.11 -1.61,-0.08 -1.57,-0.27 -1.54,-0.46 -1.46,-0.64 -1.38,-0.82 -1.27,-0.97 -1.15,-1.12 -1.00,-1.25 -0.84,-1.37 -0.67,-1.45 -0.49,-1.53 -0.30,-1.57 -0.11,-1.61 0.08,-1.60 0.27,-1.59 0.46,-1.53 0.64,-1.47 0.81,-1.37 0.98,-1.28 1.12,-1.14 1.26,-1.00 1.26,-1.00 L 1.26,-1.00 Z"></path></g><g transform="translate(188.47796755517675 438.7498564316535) rotate(0 0.00004999999998744897 0.00005000000000165983)" stroke="none"><path fill="#1e1e1e" d="M 1.57,-1.57 Q 1.57,-1.57 1.77,-1.27 1.98,-0.98 2.09,-0.64 2.20,-0.29 2.19,0.05 2.18,0.41 2.05,0.75 1.93,1.09 1.70,1.37 1.48,1.65 1.18,1.84 0.87,2.04 0.52,2.12 0.18,2.21 -0.17,2.18 -0.53,2.15 -0.86,2.01 -1.19,1.87 -1.46,1.63 -1.73,1.39 -1.90,1.07 -2.08,0.76 -2.15,0.41 -2.21,0.05 -2.17,-0.29 -2.12,-0.65 -1.96,-0.97 -1.80,-1.29 -1.54,-1.54 -1.29,-1.80 -0.97,-1.96 -0.65,-2.12 -0.29,-2.17 0.06,-2.21 0.41,-2.15 0.76,-2.08 1.07,-1.90 1.39,-1.73 1.63,-1.46 1.87,-1.19 2.01,-0.86 2.15,-0.53 2.18,-0.17 2.21,0.18 2.12,0.52 2.03,0.87 1.84,1.18 1.65,1.48 1.37,1.70 1.09,1.93 0.75,2.05 0.41,2.18 0.05,2.19 -0.30,2.20 -0.64,2.09 -0.98,1.98 -1.27,1.77 -1.57,1.56 -1.57,1.57 -1.57,1.57 -1.73,1.35 -1.90,1.14 -2.01,0.90 -2.12,0.66 -2.16,0.39 -2.21,0.13 -2.20,-0.13 -2.18,-0.40 -2.10,-0.65 -2.02,-0.91 -1.88,-1.14 -1.74,-1.36 -1.55,-1.55 -1.36,-1.74 -1.14,-1.88 -0.91,-2.02 -0.65,-2.10 -0.40,-2.18 -0.13,-2.20 0.13,-2.21 0.39,-2.16 0.66,-2.12 0.90,-2.01 1.14,-1.90 1.35,-1.73 1.57,-1.57 1.57,-1.57 L 1.57,-1.57 Z"></path></g></svg>