<svg version="1.1" xmlns="http://www.w3.org/2000/svg" viewBox="0 0 996.5433586137556 403.69665924791275" width="996.5433586137556" height="403.69665924791275" class="excalidraw-svg"><!-- svg-source:excalidraw --><metadata></metadata><defs><style class="style-fonts">
      </style></defs><rect x="0" y="0" width="996.5433586137556" height="403.69665924791275" fill="#ffffff"></rect><g stroke-linecap="round"><g transform="translate(340.02401923818513 65) rotate(0 72.78321136943995 -0.4036827643784022)"><path d="M-0.43 0.96 C23.8 0.96, 121.52 0.48, 145.99 0.23 M1.55 0.41 C25.56 0.01, 120.99 -1.78, 145.04 -1.76" stroke="#e03131" stroke-width="2" fill="none"></path></g><g transform="translate(340.02401923818513 65) rotate(0 72.78321136943995 -0.4036827643784022)"><path d="M121.64 7.03 C131.48 4, 138.54 1.59, 145.04 -1.76 M121.64 7.03 C126.65 3.86, 134.41 1.98, 145.04 -1.76" stroke="#e03131" stroke-width="2" fill="none"></path></g><g transform="translate(340.02401923818513 65) rotate(0 72.78321136943995 -0.4036827643784022)"><path d="M121.46 -10.07 C131.4 -7.06, 138.53 -3.43, 145.04 -1.76 M121.46 -10.07 C126.6 -8.85, 134.4 -6.35, 145.04 -1.76" stroke="#e03131" stroke-width="2" fill="none"></path></g></g><mask></mask><g stroke-linecap="round"><g transform="translate(338.02401923818513 151) rotate(0 114.88880334423855 -0.2992029125345894)"><path d="M0.75 1.02 C38.57 1.05, 189.98 0.63, 227.93 0.33 M-0.31 0.52 C37.77 0.16, 192.13 -1.55, 230.09 -1.62" stroke="#1971c2" stroke-width="2" fill="none"></path></g><g transform="translate(338.02401923818513 151) rotate(0 114.88880334423855 -0.2992029125345894)"><path d="M206.66 7.09 C217.42 1.8, 225.33 -0.67, 230.09 -1.62 M206.66 7.09 C211.39 5.04, 216.93 3.07, 230.09 -1.62" stroke="#1971c2" stroke-width="2" fill="none"></path></g><g transform="translate(338.02401923818513 151) rotate(0 114.88880334423855 -0.2992029125345894)"><path d="M206.53 -10.01 C217.37 -8.69, 225.32 -4.53, 230.09 -1.62 M206.53 -10.01 C211.15 -8.08, 216.72 -6.06, 230.09 -1.62" stroke="#1971c2" stroke-width="2" fill="none"></path></g></g><mask></mask><g stroke-linecap="round"><g transform="translate(342.02401923818513 242) rotate(0 156.45922185890376 -0.3666038529574891)"><path d="M-0.97 -0.47 C51.32 -0.7, 261.57 -0.23, 313.89 -0.33 M0.73 -1.76 C52.91 -1.3, 261.5 0.8, 313.4 1.03" stroke="#f08c00" stroke-width="2" fill="none"></path></g><g transform="translate(342.02401923818513 242) rotate(0 156.45922185890376 -0.3666038529574891)"><path d="M289.85 9.4 C296.42 8.43, 304.08 4.2, 313.4 1.03 M289.85 9.4 C294.22 7.49, 300.22 6.99, 313.4 1.03" stroke="#f08c00" stroke-width="2" fill="none"></path></g><g transform="translate(342.02401923818513 242) rotate(0 156.45922185890376 -0.3666038529574891)"><path d="M289.98 -7.7 C296.66 -3.28, 304.27 -2.12, 313.4 1.03 M289.98 -7.7 C294.37 -6.06, 300.34 -3, 313.4 1.03" stroke="#f08c00" stroke-width="2" fill="none"></path></g></g><mask></mask><g stroke-linecap="round"><g transform="translate(11.024019238185133 392) rotate(0 487.24766006869265 0.4072694090288138)"><path d="M0.29 -0.71 C162.96 -0.68, 812.91 0.83, 975.52 1.03 M-1.02 1.53 C161.58 1.16, 812.07 -0.04, 974.84 -0.55" stroke="#1e1e1e" stroke-width="2" fill="none"></path></g></g><mask></mask><g stroke-linecap="round"><g transform="translate(225.24080786874518 392.4036827643784) rotate(0 72.6019697656948 -0.0747575335884818)"><path d="M0.2 -1.15 C24.52 -1.36, 122.13 -0.74, 146.36 -0.38 M-1.16 0.87 C23 0.74, 121.32 1.23, 145.6 0.95" stroke="#e03131" stroke-width="2" fill="none"></path></g><g transform="translate(225.24080786874518 392.4036827643784) rotate(0 72.6019697656948 -0.0747575335884818)"><path d="M122.13 9.55 C128.02 7.23, 137.17 3, 145.6 0.95 M122.13 9.55 C131.4 6.88, 140.11 3.52, 145.6 0.95" stroke="#e03131" stroke-width="2" fill="none"></path></g><g transform="translate(225.24080786874518 392.4036827643784) rotate(0 72.6019697656948 -0.0747575335884818)"><path d="M122.09 -7.55 C128.13 -4.13, 137.29 -2.63, 145.6 0.95 M122.09 -7.55 C131.53 -3.64, 140.25 -0.4, 145.6 0.95" stroke="#e03131" stroke-width="2" fill="none"></path></g></g><mask></mask><g stroke-linecap="round"><g transform="translate(411.13521589394657 392.2992029125346) rotate(0 114.42549900190906 0.022983056662681633)"><path d="M-0.15 0.96 C38.08 1.21, 190.24 0.89, 228.23 0.74 M-1.69 0.42 C37.02 0.39, 191.91 -1.16, 230.54 -0.99" stroke="#1971c2" stroke-width="2" fill="none"></path></g><g transform="translate(411.13521589394657 392.2992029125346) rotate(0 114.42549900190906 0.022983056662681633)"><path d="M207.08 7.65 C213.56 4.62, 218.02 2.17, 230.54 -0.99 M207.08 7.65 C214.26 4.73, 220.46 1.63, 230.54 -0.99" stroke="#1971c2" stroke-width="2" fill="none"></path></g><g transform="translate(411.13521589394657 392.2992029125346) rotate(0 114.42549900190906 0.022983056662681633)"><path d="M207.02 -9.46 C213.4 -8.96, 217.87 -7.9, 230.54 -0.99 M207.02 -9.46 C214.2 -7.15, 220.41 -5.01, 230.54 -0.99" stroke="#1971c2" stroke-width="2" fill="none"></path></g></g><mask></mask><g stroke-linecap="round"><g transform="translate(665.5647973792813 392.3666038529575) rotate(0 157.17411881420762 0.12949424525778852)"><path d="M1.17 -0.87 C53.34 -1.19, 262.05 -1.08, 314.02 -0.88 M0.33 1.28 C52.34 1.62, 261.62 0.11, 313.61 0.19" stroke="#f08c00" stroke-width="2" fill="none"></path></g><g transform="translate(665.5647973792813 392.3666038529575) rotate(0 157.17411881420762 0.12949424525778852)"><path d="M290.14 8.82 C297.6 6.98, 306.58 1.98, 313.61 0.19 M290.14 8.82 C297.39 5.43, 305.71 2.62, 313.61 0.19" stroke="#f08c00" stroke-width="2" fill="none"></path></g><g transform="translate(665.5647973792813 392.3666038529575) rotate(0 157.17411881420762 0.12949424525778852)"><path d="M290.09 -8.28 C297.71 -3.57, 306.71 -2.01, 313.61 0.19 M290.09 -8.28 C297.29 -6.13, 305.63 -3.39, 313.61 0.19" stroke="#f08c00" stroke-width="2" fill="none"></path></g></g><mask></mask><g transform="translate(404.02401923818513 32) rotate(0 -4.5 -1)" stroke="none"><path fill="#e03131" d="M -2.27,-0.32 Q -2.27,-0.32 -1.88,-2.32 -1.49,-4.32 -1.43,-5.43 -1.38,-6.54 -1.41,-8.20 -1.45,-9.86 -3.44,-8.94 -5.42,-8.02 -6.96,-7.20 -8.49,-6.39 -10.24,-5.05 -11.99,-3.72 -13.40,-2.72 -14.81,-1.72 -15.95,-0.56 -17.08,0.60 -17.71,1.73 -18.34,2.86 -17.77,4.14 -17.20,5.42 -15.74,5.70 -14.29,5.98 -13.01,6.43 -11.73,6.88 -10.46,6.12 -9.18,5.36 -7.20,4.20 -5.21,3.05 -3.74,2.17 -2.27,1.30 -1.09,0.61 0.08,-0.06 0.18,-1.17 0.29,-2.28 0.28,-2.25 0.28,-2.22 0.36,-2.53 0.43,-2.84 0.58,-3.13 0.73,-3.42 0.94,-3.66 1.15,-3.90 1.41,-4.09 1.68,-4.27 1.98,-4.39 2.28,-4.51 2.60,-4.55 2.92,-4.59 3.24,-4.55 3.56,-4.52 3.86,-4.41 4.16,-4.30 4.43,-4.11 4.69,-3.93 4.91,-3.69 5.13,-3.46 5.28,-3.17 5.43,-2.89 5.51,-2.58 5.59,-2.26 5.59,-1.94 5.59,-1.62 5.71,0.04 5.83,1.70 7.05,1.71 8.26,1.72 9.45,1.04 10.64,0.36 11.10,0.21 11.55,0.07 12.03,0.07 12.51,0.08 12.96,0.24 13.42,0.40 13.79,0.69 14.17,0.98 14.44,1.38 14.70,1.78 14.82,2.25 14.94,2.71 14.91,3.19 14.88,3.67 14.70,4.11 14.51,4.55 14.20,4.92 13.88,5.28 13.47,5.52 13.06,5.76 12.59,5.86 12.12,5.96 11.64,5.90 11.17,5.84 10.73,5.63 10.30,5.43 9.96,5.09 9.61,4.76 9.39,4.33 9.18,3.91 9.10,3.43 9.03,2.96 9.12,2.49 9.20,2.01 9.43,1.59 9.66,1.17 10.01,0.85 10.36,0.52 10.80,0.33 11.24,0.13 11.72,0.08 12.19,0.04 12.66,0.15 13.13,0.26 13.53,0.51 13.94,0.76 14.25,1.13 14.55,1.50 14.72,1.95 14.90,2.40 14.92,2.87 14.94,3.35 14.80,3.81 14.67,4.27 14.39,4.67 14.12,5.06 13.73,5.35 13.35,5.63 13.35,5.63 13.35,5.63 11.57,6.48 9.79,7.33 8.29,7.76 6.80,8.19 4.96,8.23 3.12,8.28 2.03,7.35 0.93,6.41 0.52,5.01 0.11,3.60 0.16,1.81 0.20,0.01 0.24,-1.10 0.28,-2.22 0.36,-2.53 0.43,-2.84 0.58,-3.13 0.73,-3.42 0.94,-3.66 1.15,-3.90 1.41,-4.09 1.68,-4.27 1.98,-4.39 2.28,-4.51 2.60,-4.55 2.91,-4.59 3.24,-4.55 3.56,-4.52 3.86,-4.41 4.16,-4.30 4.43,-4.11 4.69,-3.93 4.91,-3.69 5.13,-3.46 5.28,-3.17 5.43,-2.89 5.51,-2.58 5.59,-2.26 5.59,-1.94 5.59,-1.62 5.52,-1.48 5.44,-1.35 4.79,0.53 4.14,2.43 3.29,3.21 2.45,3.99 1.28,4.61 0.12,5.23 -1.21,6.08 -2.55,6.92 -4.47,8.45 -6.39,9.99 -8.88,11.50 -11.38,13.01 -13.62,12.79 -15.86,12.57 -16.76,11.66 -17.66,10.75 -18.90,10.42 -20.15,10.10 -21.05,9.34 -21.96,8.58 -22.53,7.51 -23.09,6.45 -23.37,5.05 -23.66,3.66 -23.09,1.68 -22.53,-0.29 -21.68,-1.35 -20.83,-2.42 -19.81,-2.94 -18.79,-3.46 -17.99,-4.26 -17.19,-5.06 -15.90,-5.94 -14.60,-6.82 -12.70,-8.58 -10.79,-10.33 -9.15,-11.36 -7.51,-12.39 -5.26,-13.41 -3.01,-14.43 -1.07,-14.16 0.86,-13.89 1.72,-13.12 2.57,-12.35 2.91,-10.33 3.25,-8.31 3.13,-7.19 3.02,-6.07 2.83,-4.90 2.64,-3.72 2.45,-1.70 2.27,0.32 2.19,0.59 2.12,0.85 1.99,1.10 1.85,1.34 1.67,1.54 1.48,1.74 1.25,1.90 1.02,2.05 0.76,2.14 0.50,2.23 0.22,2.26 -0.04,2.29 -0.32,2.25 -0.59,2.21 -0.85,2.11 -1.10,2.00 -1.33,1.84 -1.55,1.68 -1.73,1.47 -1.91,1.26 -2.03,1.01 -2.16,0.76 -2.22,0.49 -2.28,0.22 -2.27,-0.04 -2.27,-0.32 -2.27,-0.32 L -2.27,-0.32 Z"></path></g><g transform="translate(384.02401923818513 13) rotate(0 15 1.5)" stroke="none"><path fill="#e03131" d="M 0.55,-2.23 Q 0.55,-2.23 1.71,-1.98 2.87,-1.74 4.59,-1.26 6.32,-0.78 7.50,-0.31 8.68,0.15 10.85,0.29 13.02,0.42 15.31,0.60 17.60,0.78 18.87,0.74 20.14,0.71 21.60,0.60 23.06,0.49 24.14,0.40 25.22,0.31 27.25,-0.20 29.27,-0.72 29.72,-0.76 30.18,-0.81 30.62,-0.70 31.07,-0.60 31.45,-0.36 31.84,-0.12 32.13,0.22 32.43,0.57 32.59,0.99 32.75,1.42 32.77,1.87 32.79,2.33 32.67,2.77 32.54,3.21 32.28,3.58 32.02,3.95 31.65,4.23 31.29,4.50 30.85,4.64 30.42,4.78 29.97,4.78 29.51,4.77 29.08,4.62 28.65,4.47 28.29,4.19 27.93,3.91 27.68,3.53 27.42,3.15 27.31,2.71 27.19,2.27 27.22,1.81 27.25,1.36 27.42,0.94 27.60,0.52 27.89,0.17 28.19,-0.16 28.59,-0.39 28.98,-0.62 29.43,-0.72 29.87,-0.81 30.33,-0.76 30.78,-0.70 31.19,-0.51 31.60,-0.31 31.93,0.00 32.26,0.31 32.47,0.72 32.68,1.12 32.74,1.57 32.81,2.03 32.73,2.47 32.66,2.92 32.44,3.32 32.22,3.72 31.89,4.03 31.55,4.34 31.14,4.53 30.72,4.72 30.72,4.72 30.72,4.72 27.97,5.20 25.22,5.67 24.13,5.58 23.04,5.50 21.57,5.37 20.10,5.25 18.82,5.19 17.55,5.14 15.21,5.26 12.87,5.38 10.59,5.47 8.31,5.55 7.04,5.18 5.77,4.81 4.81,4.29 3.85,3.78 2.78,3.33 1.72,2.89 0.58,2.56 -0.55,2.23 -0.81,2.13 -1.07,2.03 -1.30,1.87 -1.53,1.71 -1.71,1.51 -1.89,1.30 -2.02,1.05 -2.15,0.80 -2.22,0.53 -2.28,0.26 -2.28,-0.00 -2.28,-0.28 -2.21,-0.55 -2.15,-0.82 -2.02,-1.06 -1.89,-1.31 -1.70,-1.52 -1.52,-1.72 -1.29,-1.88 -1.06,-2.04 -0.80,-2.14 -0.54,-2.23 -0.26,-2.27 0.00,-2.30 0.28,-2.26 0.55,-2.23 0.55,-2.23 L 0.55,-2.23 Z"></path></g><g transform="translate(410.02401923818513 10) rotate(0 5.5 5)" stroke="none"><path fill="#e03131" d="M 0,-2.66 Q 0,-2.66 1.15,-2.68 2.3,-2.69 4.63,-1.82 6.97,-0.94 8.41,-0.48 9.84,-0.02 11.58,0.91 13.31,1.85 13.60,3.03 13.89,4.22 13.49,5.57 13.09,6.93 11.94,7.93 10.79,8.93 9.52,9.31 8.25,9.69 6.84,10.92 5.42,12.15 5.01,12.48 4.60,12.81 4.11,13.00 3.62,13.18 3.09,13.20 2.57,13.21 2.07,13.06 1.56,12.91 1.14,12.60 0.71,12.30 0.40,11.87 0.09,11.45 -0.05,10.95 -0.21,10.44 -0.20,9.92 -0.18,9.39 -0.00,8.90 0.16,8.41 0.49,8.00 0.82,7.59 1.26,7.30 1.70,7.02 2.21,6.89 2.72,6.76 3.24,6.80 3.77,6.84 4.25,7.05 4.73,7.25 5.12,7.60 5.52,7.95 5.78,8.41 6.04,8.87 6.14,9.38 6.24,9.90 6.17,10.42 6.10,10.94 5.87,11.41 5.64,11.88 5.27,12.25 4.90,12.62 4.43,12.86 3.96,13.09 3.44,13.17 2.92,13.24 2.40,13.14 1.89,13.04 1.43,12.79 0.97,12.53 0.62,12.14 0.27,11.75 0.06,11.27 -0.14,10.79 -0.19,10.27 -0.23,9.74 -0.10,9.23 0.01,8.72 0.29,8.28 0.57,7.84 0.57,7.84 0.57,7.84 2.19,6.75 3.82,5.67 5.73,4.68 7.63,3.68 8.03,4.70 8.43,5.73 6.73,5.01 5.02,4.28 3.66,3.49 2.3,2.69 1.15,2.68 0,2.66 -0.31,2.62 -0.63,2.58 -0.93,2.47 -1.23,2.35 -1.50,2.17 -1.76,1.99 -1.97,1.75 -2.19,1.51 -2.34,1.22 -2.49,0.94 -2.56,0.63 -2.64,0.32 -2.64,-0.00 -2.64,-0.32 -2.56,-0.63 -2.49,-0.94 -2.34,-1.22 -2.19,-1.51 -1.97,-1.75 -1.76,-1.99 -1.50,-2.17 -1.23,-2.35 -0.93,-2.47 -0.63,-2.58 -0.31,-2.62 0.00,-2.66 0.00,-2.66 L 0,-2.66 Z"></path></g><g transform="translate(436.02401923818513 110) rotate(0 4.5 13.5)" stroke="none"><path fill="#1971c2" d="M 2.22,0 Q 2.22,0 2.10,2.87 1.98,5.75 1.89,8.69 1.80,11.64 1.74,13.75 1.67,15.87 1.70,17.63 1.73,19.39 1.82,20.71 1.90,22.04 1.98,22.89 2.07,23.74 2.04,23.99 2.01,24.23 1.92,24.47 1.83,24.70 1.69,24.91 1.55,25.11 1.36,25.28 1.17,25.45 0.95,25.56 0.73,25.68 0.49,25.74 0.24,25.80 -0.00,25.80 -0.25,25.80 -0.49,25.74 -0.73,25.68 -0.95,25.56 -1.17,25.45 -1.36,25.28 -1.55,25.11 -1.69,24.91 -1.83,24.70 -1.92,24.47 -2.01,24.23 -2.04,23.99 -2.07,23.74 -1.61,22.56 -1.14,21.39 -1.28,20.25 -1.43,19.11 -1.07,18.03 -0.71,16.96 -0.71,15.80 -0.71,14.64 -0.28,13.57 0.13,12.50 1.19,11.12 2.25,9.75 3.18,9.19 4.11,8.62 5.39,8.41 6.67,8.19 8.06,8.60 9.45,9.01 10.31,9.86 11.16,10.70 12.38,12.38 13.60,14.07 13.89,15.89 14.17,17.71 13.34,20.14 12.51,22.58 11.23,24.03 9.95,25.49 8.53,26.13 7.11,26.76 5.94,27.40 4.77,28.04 0.36,27.81 -4.04,27.59 -4.40,27.19 -4.76,26.80 -4.97,26.31 -5.19,25.82 -5.24,25.29 -5.29,24.76 -5.16,24.24 -5.04,23.72 -4.76,23.27 -4.47,22.82 -4.06,22.48 -3.65,22.14 -3.15,21.95 -2.65,21.76 -2.12,21.74 -1.58,21.72 -1.07,21.87 -0.56,22.02 -0.12,22.33 0.31,22.64 0.62,23.07 0.94,23.50 1.10,24.01 1.26,24.52 1.25,25.05 1.24,25.59 1.06,26.09 0.88,26.59 0.55,27.01 0.22,27.43 -0.21,27.72 -0.66,28.01 -1.18,28.15 -1.70,28.28 -2.23,28.24 -2.76,28.21 -3.25,28.00 -3.75,27.79 -4.15,27.44 -4.55,27.09 -4.81,26.63 -5.08,26.16 -5.19,25.64 -5.29,25.12 -5.23,24.59 -5.16,24.06 -4.93,23.58 -4.69,23.10 -4.32,22.71 -3.95,22.33 -3.47,22.09 -2.99,21.85 -2.47,21.77 -1.94,21.69 -1.41,21.79 -0.89,21.89 -0.42,22.14 0.04,22.40 0.04,22.40 0.04,22.40 0.62,22.51 1.21,22.62 2.14,22.03 3.06,21.45 4.31,21.14 5.56,20.84 6.36,19.89 7.16,18.94 7.77,17.94 8.39,16.94 6.98,15.73 5.58,14.53 4.97,15.59 4.35,16.65 4.07,17.83 3.80,19.00 3.42,20.22 3.03,21.45 2.55,22.59 2.07,23.74 2.04,23.99 2.01,24.23 1.92,24.47 1.83,24.70 1.69,24.91 1.55,25.11 1.36,25.28 1.17,25.45 0.95,25.56 0.73,25.68 0.49,25.74 0.25,25.80 0.00,25.80 -0.24,25.80 -0.49,25.74 -0.73,25.68 -0.95,25.56 -1.17,25.45 -1.36,25.28 -1.55,25.11 -1.69,24.91 -1.83,24.70 -1.92,24.47 -2.01,24.23 -2.04,23.99 -2.07,23.74 -1.98,22.89 -1.90,22.04 -1.82,20.71 -1.73,19.39 -1.70,17.63 -1.67,15.87 -1.74,13.75 -1.80,11.64 -1.89,8.69 -1.98,5.75 -2.10,2.87 -2.22,0 -2.19,-0.26 -2.15,-0.53 -2.06,-0.78 -1.96,-1.03 -1.81,-1.25 -1.66,-1.47 -1.46,-1.65 -1.26,-1.83 -1.02,-1.95 -0.78,-2.07 -0.52,-2.14 -0.26,-2.20 0.00,-2.20 0.26,-2.20 0.52,-2.14 0.78,-2.07 1.02,-1.95 1.26,-1.82 1.46,-1.65 1.66,-1.47 1.81,-1.25 1.96,-1.03 2.06,-0.78 2.15,-0.53 2.19,-0.26 2.22,0.00 2.22,0.00 L 2.22,0 Z"></path></g><g transform="translate(426.02401923818513 106) rotate(0 13 0)" stroke="none"><path fill="#1971c2" d="M 0,-2.08 Q 0,-2.08 2.01,-2.01 4.02,-1.93 6.89,-1.85 9.76,-1.77 12.99,-1.70 16.22,-1.64 18.45,-1.60 20.69,-1.55 23.34,-1.65 26,-1.74 26.27,-1.69 26.55,-1.65 26.80,-1.52 27.05,-1.38 27.24,-1.18 27.44,-0.97 27.56,-0.72 27.68,-0.46 27.71,-0.18 27.74,0.09 27.68,0.37 27.61,0.64 27.47,0.88 27.32,1.12 27.11,1.31 26.89,1.49 26.63,1.59 26.37,1.70 26.09,1.71 25.81,1.73 25.53,1.65 25.26,1.58 25.03,1.42 24.80,1.26 24.62,1.04 24.45,0.81 24.36,0.54 24.27,0.28 24.27,-0.00 24.27,-0.28 24.36,-0.54 24.45,-0.81 24.63,-1.04 24.80,-1.26 25.03,-1.42 25.26,-1.58 25.53,-1.65 25.81,-1.73 26.09,-1.71 26.37,-1.70 26.63,-1.59 26.89,-1.49 27.11,-1.31 27.32,-1.12 27.47,-0.88 27.62,-0.64 27.68,-0.36 27.74,-0.09 27.71,0.18 27.68,0.46 27.56,0.72 27.44,0.97 27.24,1.18 27.05,1.38 26.80,1.52 26.55,1.65 26.27,1.69 25.99,1.74 25.99,1.74 26,1.74 23.34,1.65 20.69,1.55 18.45,1.60 16.22,1.64 12.99,1.70 9.76,1.77 6.89,1.85 4.02,1.93 2.01,2.01 0,2.08 -0.24,2.05 -0.49,2.02 -0.73,1.93 -0.96,1.84 -1.17,1.70 -1.38,1.55 -1.54,1.37 -1.71,1.18 -1.83,0.96 -1.94,0.73 -2.00,0.49 -2.06,0.25 -2.06,-0.00 -2.06,-0.25 -2.00,-0.49 -1.94,-0.73 -1.83,-0.96 -1.71,-1.18 -1.54,-1.37 -1.38,-1.55 -1.17,-1.70 -0.96,-1.84 -0.73,-1.93 -0.49,-2.02 -0.24,-2.05 0.00,-2.08 0.00,-2.08 L 0,-2.08 Z"></path></g><g transform="translate(450.02401923818513 100) rotate(0 6 4.5)" stroke="none"><path fill="#1971c2" d="M 0.81,-2.43 Q 0.81,-2.43 1.69,-2.18 2.57,-1.93 3.53,-1.42 4.48,-0.91 5.63,-0.14 6.79,0.63 8.13,1.58 9.46,2.53 10.24,3.34 11.02,4.16 11.42,4.18 11.81,4.19 12.12,4.34 12.42,4.49 12.67,4.70 12.93,4.92 13.13,5.19 13.33,5.46 13.45,5.77 13.58,6.08 13.63,6.41 13.68,6.74 13.65,7.07 13.62,7.40 13.51,7.72 13.40,8.04 13.22,8.32 13.04,8.60 12.79,8.83 12.55,9.05 12.26,9.22 11.96,9.38 11.64,9.47 11.32,9.56 10.99,9.57 10.65,9.58 10.32,9.51 10.00,9.44 7.37,10.63 4.74,11.83 4.27,11.87 3.80,11.92 3.33,11.81 2.87,11.70 2.47,11.45 2.07,11.20 1.77,10.84 1.46,10.47 1.29,10.03 1.12,9.58 1.11,9.11 1.09,8.64 1.22,8.18 1.35,7.73 1.62,7.34 1.90,6.95 2.28,6.67 2.66,6.39 3.11,6.24 3.56,6.10 4.04,6.10 4.51,6.11 4.96,6.27 5.40,6.43 5.78,6.72 6.15,7.01 6.41,7.41 6.67,7.80 6.79,8.26 6.91,8.72 6.88,9.19 6.85,9.67 6.67,10.10 6.48,10.54 6.17,10.90 5.86,11.25 5.45,11.49 5.04,11.73 4.58,11.83 4.11,11.92 3.64,11.86 3.17,11.81 2.74,11.60 2.32,11.40 1.98,11.07 1.64,10.73 1.42,10.31 1.21,9.89 1.14,9.42 1.07,8.95 1.15,8.49 1.23,8.02 1.46,7.60 1.69,7.19 2.04,6.87 2.39,6.55 2.82,6.35 3.25,6.16 3.25,6.16 3.25,6.16 5.21,5.51 7.16,4.86 8.34,4.49 9.52,4.12 10.67,4.16 11.81,4.19 12.11,4.34 12.42,4.49 12.67,4.70 12.93,4.92 13.13,5.19 13.32,5.46 13.45,5.77 13.58,6.07 13.63,6.41 13.68,6.74 13.65,7.07 13.62,7.40 13.51,7.72 13.40,8.03 13.22,8.32 13.04,8.60 12.79,8.83 12.55,9.05 12.26,9.22 11.96,9.38 11.64,9.47 11.32,9.56 10.99,9.57 10.65,9.58 10.32,9.51 10.00,9.44 9.72,9.11 9.44,8.78 7.99,7.80 6.55,6.82 5.19,5.98 3.83,5.15 2.35,4.11 0.87,3.08 0.02,2.75 -0.81,2.43 -1.09,2.30 -1.37,2.17 -1.61,1.97 -1.85,1.78 -2.03,1.53 -2.22,1.28 -2.34,1.00 -2.46,0.71 -2.51,0.41 -2.56,0.10 -2.54,-0.20 -2.51,-0.51 -2.41,-0.80 -2.32,-1.10 -2.15,-1.36 -1.99,-1.62 -1.76,-1.83 -1.54,-2.05 -1.27,-2.20 -1.00,-2.36 -0.71,-2.44 -0.41,-2.53 -0.10,-2.54 0.20,-2.56 0.50,-2.49 0.81,-2.43 0.81,-2.43 L 0.81,-2.43 Z"></path></g><g transform="translate(494.02401923818513 215) rotate(0 0.00004999999999988347 0.00004999999999988347)" stroke="none"><path fill="#1971c2" d="M 1.57,-1.57 Q 1.57,-1.57 1.77,-1.27 1.98,-0.98 2.09,-0.64 2.20,-0.29 2.19,0.05 2.18,0.41 2.05,0.75 1.93,1.09 1.70,1.37 1.48,1.65 1.18,1.84 0.87,2.04 0.52,2.12 0.18,2.21 -0.17,2.18 -0.53,2.15 -0.86,2.01 -1.19,1.87 -1.46,1.63 -1.73,1.39 -1.90,1.07 -2.08,0.76 -2.15,0.41 -2.21,0.05 -2.17,-0.29 -2.12,-0.65 -1.96,-0.97 -1.80,-1.29 -1.54,-1.54 -1.29,-1.80 -0.97,-1.96 -0.65,-2.12 -0.29,-2.17 0.06,-2.21 0.41,-2.15 0.76,-2.08 1.07,-1.90 1.39,-1.73 1.63,-1.46 1.87,-1.19 2.01,-0.86 2.15,-0.53 2.18,-0.17 2.21,0.18 2.12,0.52 2.03,0.87 1.84,1.18 1.65,1.48 1.37,1.70 1.09,1.93 0.75,2.05 0.41,2.18 0.05,2.19 -0.30,2.20 -0.64,2.09 -0.98,1.98 -1.27,1.77 -1.57,1.56 -1.57,1.57 -1.57,1.57 -1.73,1.35 -1.90,1.14 -2.01,0.90 -2.12,0.66 -2.16,0.39 -2.21,0.13 -2.20,-0.13 -2.18,-0.40 -2.10,-0.65 -2.02,-0.91 -1.88,-1.14 -1.74,-1.36 -1.55,-1.55 -1.36,-1.74 -1.14,-1.88 -0.91,-2.02 -0.65,-2.10 -0.40,-2.18 -0.13,-2.20 0.13,-2.21 0.39,-2.16 0.66,-2.12 0.90,-2.01 1.14,-1.90 1.35,-1.73 1.57,-1.57 1.57,-1.57 L 1.57,-1.57 Z"></path></g><g transform="translate(497.02401923818513 215) rotate(0 1.5 8)" stroke="none"><path fill="#f08c00" d="M 0,2.66 Q 0,2.66 -1.15,2.68 -2.3,2.70 -3.69,2.77 -5.08,2.84 -6.01,3.96 -6.94,5.07 -7.34,6.36 -7.73,7.64 -7.72,8.96 -7.71,10.29 -5.85,10.96 -3.99,11.63 -2.98,12.08 -1.96,12.53 -0.40,12.58 1.14,12.62 2.60,12.63 4.05,12.63 5.46,12.65 6.87,12.67 7.71,11.67 8.54,10.67 9.60,10.01 10.66,9.35 10.83,8.48 11.01,7.60 11.31,7.16 11.61,6.72 12.03,6.40 12.46,6.08 12.97,5.91 13.47,5.74 14.01,5.74 14.54,5.74 15.05,5.91 15.55,6.09 15.97,6.41 16.40,6.74 16.70,7.18 16.99,7.62 17.13,8.14 17.27,8.65 17.24,9.18 17.21,9.72 17.01,10.21 16.81,10.71 16.47,11.11 16.12,11.52 15.66,11.79 15.20,12.06 14.68,12.18 14.16,12.29 13.63,12.23 13.10,12.17 12.62,11.94 12.13,11.72 11.75,11.35 11.36,10.98 11.11,10.51 10.87,10.04 10.78,9.51 10.70,8.98 10.79,8.46 10.87,7.93 11.13,7.46 11.38,6.99 11.77,6.62 12.15,6.26 12.64,6.04 13.12,5.81 13.66,5.76 14.19,5.70 14.71,5.82 15.23,5.94 15.68,6.21 16.14,6.49 16.48,6.90 16.83,7.31 17.02,7.80 17.22,8.30 17.25,8.83 17.27,9.36 17.13,9.88 16.98,10.39 16.98,10.39 16.98,10.39 15.03,12.96 13.09,15.54 11.40,16.98 9.71,18.42 8.45,18.87 7.20,19.32 5.61,19.33 4.03,19.35 2.50,19.34 0.98,19.32 -0.67,19.24 -2.33,19.17 -4.09,18.67 -5.85,18.17 -6.85,17.60 -7.85,17.04 -8.94,16.41 -10.02,15.77 -10.99,15.28 -11.97,14.78 -12.93,13.44 -13.90,12.10 -14.06,10.63 -14.22,9.15 -14.12,7.93 -14.02,6.72 -13.53,5.01 -13.04,3.31 -12.48,2.35 -11.92,1.40 -11.22,0.30 -10.52,-0.79 -9.25,-1.70 -7.97,-2.62 -6.53,-2.73 -5.08,-2.84 -3.69,-2.77 -2.3,-2.70 -1.15,-2.68 0,-2.66 0.31,-2.62 0.63,-2.58 0.93,-2.47 1.23,-2.36 1.50,-2.17 1.76,-1.99 1.98,-1.75 2.19,-1.51 2.34,-1.23 2.49,-0.94 2.57,-0.63 2.64,-0.32 2.64,0.00 2.64,0.32 2.57,0.63 2.49,0.94 2.34,1.23 2.19,1.51 1.98,1.75 1.76,1.99 1.50,2.17 1.23,2.36 0.93,2.47 0.63,2.58 0.31,2.62 -0.00,2.66 -0.00,2.66 L 0,2.66 Z"></path></g><g transform="translate(475.02401923818513 201) rotate(0 20.5 -1)" stroke="none"><path fill="#f08c00" d="M 0,-2.07 Q 0,-2.07 3.16,-1.97 6.32,-1.87 9.96,-1.79 13.61,-1.72 16.88,-1.66 20.16,-1.61 22.98,-1.57 25.81,-1.53 27.30,-1.61 28.79,-1.70 30.00,-1.79 31.20,-1.88 32.71,-2.18 34.21,-2.47 35.86,-2.64 37.50,-2.80 38.89,-3.41 40.27,-4.02 40.62,-4.08 40.96,-4.15 41.30,-4.10 41.65,-4.05 41.96,-3.89 42.27,-3.73 42.51,-3.48 42.76,-3.23 42.91,-2.92 43.06,-2.61 43.10,-2.26 43.15,-1.91 43.08,-1.57 43.01,-1.23 42.83,-0.93 42.66,-0.63 42.40,-0.40 42.13,-0.17 41.81,-0.04 41.49,0.09 41.15,0.11 40.80,0.14 40.46,0.05 40.12,-0.03 39.83,-0.22 39.54,-0.41 39.33,-0.68 39.11,-0.96 38.99,-1.28 38.88,-1.61 38.87,-1.96 38.87,-2.31 38.97,-2.64 39.08,-2.97 39.28,-3.25 39.49,-3.53 39.77,-3.73 40.06,-3.93 40.39,-4.03 40.73,-4.13 41.08,-4.12 41.42,-4.10 41.75,-3.98 42.07,-3.86 42.34,-3.64 42.61,-3.42 42.80,-3.12 42.98,-2.82 43.06,-2.49 43.14,-2.15 43.11,-1.80 43.08,-1.45 42.94,-1.13 42.80,-0.82 42.56,-0.56 42.33,-0.30 42.02,-0.14 41.72,0.02 41.72,0.02 41.72,0.02 39.78,0.59 37.85,1.16 36.36,1.24 34.86,1.32 33.04,1.60 31.21,1.88 30.00,1.79 28.79,1.70 27.30,1.61 25.81,1.53 22.98,1.57 20.16,1.61 16.88,1.66 13.61,1.72 9.96,1.79 6.32,1.87 3.16,1.97 0,2.07 -0.24,2.04 -0.49,2.01 -0.73,1.92 -0.96,1.84 -1.17,1.69 -1.37,1.55 -1.54,1.36 -1.71,1.18 -1.82,0.95 -1.94,0.73 -2.00,0.49 -2.06,0.25 -2.06,-0.00 -2.06,-0.25 -2.00,-0.49 -1.94,-0.73 -1.82,-0.95 -1.71,-1.18 -1.54,-1.36 -1.37,-1.55 -1.17,-1.69 -0.96,-1.84 -0.73,-1.92 -0.49,-2.01 -0.24,-2.04 0.00,-2.07 0.00,-2.07 L 0,-2.07 Z"></path></g><g transform="translate(513.0240192381851 191) rotate(0 2.5 9.5)" stroke="none"><path fill="#f08c00" d="M 1.96,-1.47 Q 1.96,-1.47 2.82,-0.33 3.68,0.81 4.71,1.71 5.75,2.61 6.62,3.35 7.50,4.10 8.14,5.36 8.79,6.63 8.43,8.47 8.07,10.30 7.15,11.65 6.24,12.99 4.83,14.21 3.42,15.42 1.84,17.91 0.26,20.40 -0.02,20.73 -0.30,21.05 -0.67,21.27 -1.04,21.48 -1.47,21.57 -1.89,21.66 -2.32,21.61 -2.74,21.55 -3.13,21.37 -3.52,21.18 -3.83,20.88 -4.14,20.58 -4.34,20.19 -4.53,19.81 -4.60,19.38 -4.66,18.96 -4.58,18.53 -4.51,18.11 -4.30,17.73 -4.09,17.35 -3.78,17.06 -3.46,16.77 -3.06,16.59 -2.67,16.42 -2.24,16.38 -1.81,16.34 -1.39,16.44 -0.97,16.53 -0.61,16.76 -0.24,16.99 0.02,17.32 0.30,17.65 0.45,18.06 0.61,18.46 0.62,18.89 0.64,19.32 0.52,19.73 0.40,20.15 0.15,20.50 -0.09,20.86 -0.43,21.11 -0.78,21.37 -1.19,21.50 -1.60,21.63 -2.03,21.62 -2.46,21.62 -2.87,21.47 -3.28,21.33 -3.62,21.07 -3.96,20.80 -4.19,20.44 -4.43,20.08 -4.54,19.66 -4.65,19.24 -4.62,18.81 -4.59,18.38 -4.42,17.99 -4.26,17.59 -4.26,17.59 -4.26,17.59 -3.06,15.75 -1.86,13.91 -0.89,12.73 0.07,11.55 1.63,9.97 3.19,8.38 2.90,7.31 2.61,6.24 1.18,5.01 -0.23,3.78 -1.10,2.63 -1.96,1.47 -2.11,1.21 -2.26,0.96 -2.34,0.67 -2.42,0.39 -2.43,0.09 -2.45,-0.20 -2.39,-0.49 -2.33,-0.78 -2.20,-1.04 -2.07,-1.31 -1.88,-1.54 -1.70,-1.77 -1.46,-1.95 -1.22,-2.13 -0.95,-2.24 -0.68,-2.36 -0.38,-2.40 -0.09,-2.45 0.19,-2.43 0.49,-2.40 0.77,-2.31 1.05,-2.22 1.30,-2.06 1.55,-1.90 1.76,-1.68 1.96,-1.47 1.96,-1.47 L 1.96,-1.47 Z"></path></g><g transform="translate(279.02401923818513 354) rotate(0 1 6.5)" stroke="none"><path fill="#e03131" d="M -1.88,1.88 Q -1.88,1.88 -2.41,1.37 -2.94,0.86 -4.22,1.47 -5.50,2.08 -6.62,3.08 -7.74,4.07 -9.00,5.86 -10.27,7.66 -10.47,8.76 -10.68,9.86 -10.71,11.02 -10.74,12.18 -9.46,12.04 -8.18,11.90 -6.89,11.27 -5.60,10.63 -4.12,8.89 -2.64,7.15 -1.91,6.27 -1.18,5.38 -0.10,3.73 0.97,2.09 1.38,0.77 1.78,-0.54 1.51,-1.72 1.23,-2.91 1.31,-3.28 1.40,-3.65 1.57,-3.99 1.74,-4.33 1.98,-4.62 2.23,-4.91 2.54,-5.14 2.85,-5.36 3.20,-5.50 3.56,-5.65 3.94,-5.70 4.31,-5.75 4.69,-5.72 5.07,-5.68 5.43,-5.55 5.79,-5.42 6.11,-5.21 6.43,-5.00 6.69,-4.72 6.95,-4.44 7.13,-4.11 7.31,-3.77 7.41,-3.40 7.51,-3.04 7.52,-2.65 7.53,-2.27 6.95,-0.98 6.38,0.31 6.29,1.72 6.21,3.13 5.81,4.41 5.42,5.68 5.32,6.74 5.22,7.79 6.03,8.87 6.83,9.95 7.89,10.61 8.94,11.26 10.65,11.04 12.37,10.81 12.12,9.22 11.87,7.62 12.18,7.40 12.50,7.18 12.86,7.04 13.21,6.90 13.60,6.86 13.98,6.81 14.36,6.85 14.74,6.90 15.10,7.03 15.46,7.16 15.78,7.38 16.10,7.60 16.35,7.88 16.61,8.17 16.79,8.51 16.97,8.85 17.06,9.22 17.16,9.59 17.16,9.98 17.16,10.36 17.07,10.74 16.98,11.11 16.81,11.45 16.63,11.79 16.38,12.08 16.12,12.37 13.64,11.91 11.16,11.44 11.00,10.95 10.84,10.46 10.85,9.95 10.86,9.43 11.03,8.94 11.20,8.46 11.52,8.05 11.84,7.65 12.27,7.36 12.70,7.08 13.20,6.95 13.70,6.82 14.22,6.86 14.73,6.89 15.21,7.09 15.68,7.29 16.07,7.63 16.46,7.97 16.72,8.42 16.97,8.86 17.08,9.37 17.18,9.87 17.12,10.38 17.05,10.90 16.83,11.36 16.60,11.83 16.24,12.19 15.88,12.56 15.42,12.80 14.96,13.03 14.45,13.11 13.94,13.18 13.44,13.09 12.93,13.00 12.48,12.75 12.03,12.50 11.68,12.12 11.33,11.74 11.12,11.27 10.91,10.80 10.86,10.29 10.82,9.77 10.93,9.27 11.05,8.77 11.33,8.33 11.60,7.89 12.00,7.57 12.40,7.24 12.88,7.05 13.36,6.87 13.88,6.85 14.39,6.83 14.89,6.98 15.38,7.12 15.80,7.42 16.22,7.72 14.05,7.67 11.87,7.62 12.18,7.40 12.50,7.18 12.86,7.04 13.21,6.90 13.60,6.86 13.98,6.81 14.36,6.85 14.74,6.90 15.10,7.03 15.46,7.16 15.78,7.38 16.10,7.60 16.35,7.88 16.61,8.17 16.79,8.51 16.97,8.85 17.06,9.22 17.16,9.59 17.16,9.98 17.16,10.36 17.07,10.73 16.98,11.11 16.81,11.45 16.63,11.79 16.38,12.08 16.12,12.37 16.82,13.60 17.51,14.83 16.43,15.58 15.35,16.34 13.80,16.71 12.25,17.08 11.05,17.07 9.84,17.05 7.98,16.90 6.13,16.75 5.25,16.02 4.38,15.30 3.09,14.46 1.81,13.63 0.73,11.93 -0.34,10.24 -0.69,8.94 -1.05,7.65 -0.76,5.64 -0.48,3.62 -0.14,2.22 0.18,0.81 0.70,-1.04 1.23,-2.91 1.31,-3.28 1.40,-3.65 1.57,-3.99 1.74,-4.33 1.98,-4.62 2.23,-4.91 2.54,-5.14 2.85,-5.36 3.20,-5.50 3.56,-5.65 3.94,-5.70 4.31,-5.75 4.69,-5.72 5.07,-5.68 5.43,-5.55 5.79,-5.42 6.11,-5.21 6.43,-5.00 6.69,-4.72 6.95,-4.44 7.13,-4.11 7.31,-3.77 7.41,-3.41 7.51,-3.04 7.52,-2.66 7.53,-2.27 7.62,-2.43 7.72,-2.58 7.77,-1.39 7.81,-0.20 7.25,1.31 6.70,2.84 6.28,4.15 5.86,5.45 5.07,6.65 4.29,7.84 3.05,9.19 1.82,10.55 0.80,11.97 -0.20,13.39 -1.40,14.58 -2.59,15.76 -4.14,16.75 -5.69,17.74 -7.62,18.48 -9.55,19.22 -11.83,18.92 -14.12,18.63 -15.10,17.84 -16.09,17.06 -16.66,15.08 -17.23,13.10 -17.15,11.81 -17.08,10.51 -16.70,8.52 -16.31,6.53 -15.33,5.08 -14.36,3.62 -13.06,1.64 -11.76,-0.34 -10.79,-1.22 -9.81,-2.10 -8.08,-3.07 -6.34,-4.04 -4.16,-4.18 -1.99,-4.32 -0.67,-3.74 0.64,-3.16 1.26,-2.52 1.88,-1.88 2.07,-1.62 2.27,-1.37 2.40,-1.08 2.53,-0.79 2.59,-0.47 2.65,-0.16 2.63,0.15 2.61,0.47 2.51,0.78 2.42,1.09 2.25,1.36 2.09,1.63 1.86,1.86 1.63,2.09 1.36,2.25 1.09,2.42 0.78,2.52 0.47,2.61 0.15,2.63 -0.16,2.65 -0.47,2.59 -0.79,2.53 -1.08,2.40 -1.37,2.27 -1.62,2.07 -1.88,1.87 -1.88,1.88 L -1.88,1.88 Z"></path></g><g transform="translate(264.02401923818513 344) rotate(0 17.5 0)" stroke="none"><path fill="#e03131" d="M 0,-2.14 Q 0,-2.14 2.3,-2.03 4.6,-1.92 7.58,-1.84 10.57,-1.75 13.57,-1.69 16.57,-1.63 18.99,-1.59 21.41,-1.55 23.02,-1.62 24.62,-1.69 25.88,-1.78 27.14,-1.87 28.53,-1.93 29.93,-1.99 32.46,-2.06 35,-2.13 35.34,-2.08 35.68,-2.02 35.98,-1.86 36.29,-1.70 36.53,-1.45 36.76,-1.19 36.91,-0.88 37.06,-0.57 37.09,-0.22 37.13,0.11 37.06,0.45 36.98,0.79 36.80,1.08 36.62,1.38 36.36,1.60 36.10,1.83 35.78,1.96 35.45,2.08 35.11,2.10 34.76,2.12 34.43,2.03 34.10,1.94 33.81,1.74 33.52,1.55 33.31,1.27 33.11,1.00 33.00,0.67 32.88,0.34 32.88,-0.00 32.88,-0.34 33.00,-0.67 33.11,-1.00 33.32,-1.27 33.52,-1.55 33.81,-1.74 34.10,-1.94 34.43,-2.03 34.76,-2.12 35.11,-2.10 35.46,-2.08 35.78,-1.96 36.10,-1.83 36.36,-1.60 36.63,-1.38 36.80,-1.08 36.98,-0.79 37.06,-0.45 37.13,-0.11 37.09,0.22 37.06,0.57 36.91,0.88 36.76,1.20 36.53,1.45 36.29,1.70 35.98,1.86 35.68,2.02 35.34,2.08 34.99,2.13 34.99,2.13 35,2.13 32.46,2.06 29.93,1.99 28.53,1.93 27.14,1.87 25.88,1.78 24.62,1.69 23.02,1.62 21.41,1.55 18.99,1.59 16.57,1.63 13.57,1.69 10.57,1.75 7.58,1.84 4.6,1.92 2.3,2.03 0,2.14 -0.25,2.11 -0.51,2.08 -0.75,1.98 -0.99,1.89 -1.20,1.75 -1.42,1.60 -1.59,1.41 -1.76,1.21 -1.88,0.98 -2.00,0.76 -2.06,0.50 -2.12,0.25 -2.12,-0.00 -2.12,-0.25 -2.06,-0.50 -2.00,-0.76 -1.88,-0.98 -1.76,-1.21 -1.59,-1.41 -1.42,-1.60 -1.20,-1.75 -0.99,-1.89 -0.75,-1.98 -0.51,-2.08 -0.25,-2.11 0.00,-2.14 0.00,-2.14 L 0,-2.14 Z"></path></g><g transform="translate(296.02401923818513 338) rotate(0 3 6.5)" stroke="none"><path fill="#e03131" d="M 1.84,-1.84 Q 1.84,-1.84 2.96,-0.66 4.08,0.51 4.87,1.27 5.67,2.02 6.62,2.67 7.57,3.32 8.15,5.45 8.72,7.59 7.91,8.76 7.10,9.93 6.01,10.70 4.92,11.47 2.98,13.30 1.04,15.14 0.65,15.41 0.25,15.68 -0.20,15.81 -0.66,15.94 -1.14,15.92 -1.62,15.89 -2.06,15.72 -2.51,15.54 -2.88,15.23 -3.24,14.92 -3.49,14.52 -3.74,14.11 -3.85,13.64 -3.95,13.17 -3.90,12.69 -3.85,12.22 -3.65,11.78 -3.46,11.35 -3.13,11.00 -2.80,10.65 -2.38,10.42 -1.96,10.19 -1.48,10.11 -1.01,10.03 -0.54,10.11 -0.06,10.18 0.35,10.41 0.78,10.63 1.11,10.97 1.44,11.32 1.64,11.75 1.85,12.19 1.90,12.66 1.95,13.14 1.85,13.61 1.75,14.08 1.51,14.49 1.26,14.90 0.90,15.21 0.54,15.53 0.09,15.71 -0.34,15.89 -0.82,15.91 -1.30,15.94 -1.76,15.82 -2.23,15.69 -2.62,15.42 -3.02,15.16 -3.31,14.78 -3.61,14.40 -3.76,13.94 -3.92,13.49 -3.92,13.01 -3.92,12.53 -3.77,12.08 -3.62,11.62 -3.33,11.24 -3.04,10.85 -3.04,10.85 -3.04,10.85 -0.65,8.79 1.73,6.73 3.15,5.97 4.57,5.22 4.69,6.56 4.80,7.90 3.41,6.79 2.02,5.67 1.27,4.87 0.51,4.08 -0.66,2.96 -1.84,1.84 -2.03,1.59 -2.23,1.34 -2.35,1.06 -2.48,0.77 -2.54,0.46 -2.60,0.15 -2.58,-0.15 -2.56,-0.46 -2.47,-0.76 -2.37,-1.06 -2.21,-1.33 -2.05,-1.60 -1.82,-1.82 -1.60,-2.05 -1.33,-2.21 -1.06,-2.37 -0.76,-2.47 -0.46,-2.56 -0.15,-2.58 0.15,-2.60 0.46,-2.54 0.77,-2.48 1.06,-2.35 1.34,-2.23 1.59,-2.03 1.84,-1.84 1.84,-1.84 L 1.84,-1.84 Z"></path></g><g transform="translate(494.02401923818513 343) rotate(0 6.5 14.5)" stroke="none"><path fill="#1971c2" d="M 2.56,0 Q 2.56,0 2.50,1.72 2.44,3.44 2.46,4.75 2.48,6.06 2.51,7.19 2.54,8.32 2.58,10.69 2.62,13.06 2.64,14.19 2.66,15.32 2.74,16.70 2.81,18.09 2.87,19.44 2.92,20.80 2.95,22.68 2.98,24.57 3.01,26.14 3.05,27.71 3.06,27.79 3.06,27.87 3.02,28.24 2.97,28.61 2.84,28.95 2.71,29.30 2.50,29.60 2.29,29.91 2.01,30.15 1.74,30.40 1.41,30.57 1.08,30.74 0.72,30.83 0.36,30.92 -0.00,30.92 -0.37,30.92 -0.72,30.83 -1.08,30.74 -1.41,30.57 -1.74,30.40 -2.02,30.15 -2.29,29.91 -2.50,29.60 -2.71,29.30 -2.84,28.95 -2.97,28.61 -3.02,28.24 -3.06,27.87 -3.08,26.12 -3.09,24.36 -3.11,22.70 -3.13,21.03 -3.00,19.15 -2.88,17.28 -2.30,16.24 -1.72,15.19 -0.85,13.84 0.00,12.48 0.71,11.21 1.42,9.94 2.40,9.50 3.39,9.05 4.74,8.87 6.10,8.70 8.02,9.17 9.93,9.64 11.50,11.33 13.06,13.02 13.61,14.03 14.16,15.04 15.00,16.07 15.84,17.10 16.37,18.53 16.90,19.95 17.09,21.77 17.27,23.59 16.85,25.62 16.43,27.64 15.40,29.07 14.38,30.50 13.09,31.25 11.80,32.00 10.37,32.21 8.93,32.41 7.85,32.44 6.77,32.48 5.25,32.50 3.74,32.52 0.48,31.79 -2.76,31.07 -3.21,30.71 -3.65,30.35 -3.96,29.86 -4.27,29.37 -4.40,28.82 -4.53,28.26 -4.48,27.69 -4.43,27.11 -4.20,26.59 -3.97,26.06 -3.58,25.64 -3.20,25.21 -2.70,24.93 -2.19,24.65 -1.63,24.55 -1.07,24.45 -0.50,24.53 0.06,24.61 0.57,24.87 1.09,25.13 1.49,25.54 1.89,25.95 2.14,26.46 2.40,26.98 2.47,27.55 2.54,28.12 2.43,28.68 2.32,29.24 2.03,29.74 1.74,30.24 1.31,30.62 0.88,31.00 0.36,31.22 -0.16,31.45 -0.74,31.49 -1.31,31.53 -1.87,31.39 -2.42,31.24 -2.90,30.93 -3.38,30.62 -3.74,30.17 -4.10,29.72 -4.29,29.18 -4.49,28.64 -4.50,28.06 -4.51,27.49 -4.34,26.94 -4.16,26.39 -3.82,25.93 -3.49,25.47 -3.02,25.14 -2.55,24.80 -2.00,24.64 -1.45,24.47 -0.87,24.49 -0.30,24.51 0.23,24.72 0.77,24.92 0.76,24.92 0.76,24.92 2.25,25.20 3.73,25.47 5.21,25.49 6.70,25.50 8.07,25.66 9.45,25.82 10.03,24.86 10.61,23.90 10.64,22.55 10.67,21.20 9.51,19.75 8.35,18.31 7.72,17.15 7.08,15.99 6.37,15.10 5.65,14.21 4.95,15.50 4.25,16.78 3.57,17.72 2.88,18.66 3.00,19.84 3.13,21.03 3.11,22.70 3.09,24.36 3.08,26.12 3.06,27.87 3.02,28.24 2.97,28.61 2.84,28.95 2.71,29.30 2.50,29.60 2.29,29.91 2.02,30.15 1.74,30.40 1.41,30.57 1.08,30.74 0.72,30.83 0.37,30.92 0.00,30.92 -0.36,30.92 -0.72,30.83 -1.08,30.74 -1.41,30.57 -1.74,30.40 -2.01,30.15 -2.29,29.91 -2.50,29.60 -2.71,29.30 -2.84,28.95 -2.97,28.61 -3.02,28.24 -3.06,27.87 -3.06,27.79 -3.05,27.71 -3.01,26.14 -2.98,24.57 -2.95,22.68 -2.92,20.80 -2.87,19.44 -2.81,18.09 -2.74,16.70 -2.66,15.32 -2.64,14.19 -2.62,13.06 -2.58,10.69 -2.54,8.32 -2.51,7.19 -2.48,6.06 -2.46,4.75 -2.44,3.44 -2.50,1.72 -2.56,0 -2.52,-0.30 -2.48,-0.61 -2.37,-0.90 -2.26,-1.19 -2.09,-1.44 -1.91,-1.69 -1.68,-1.90 -1.45,-2.10 -1.18,-2.25 -0.90,-2.39 -0.60,-2.47 -0.30,-2.54 0.00,-2.54 0.30,-2.54 0.60,-2.47 0.90,-2.39 1.18,-2.25 1.45,-2.10 1.68,-1.90 1.91,-1.69 2.09,-1.44 2.26,-1.19 2.37,-0.90 2.48,-0.61 2.52,-0.30 2.56,0.00 2.56,0.00 L 2.56,0 Z"></path></g><g transform="translate(483.02401923818513 333) rotate(0 10.5 0)" stroke="none"><path fill="#1971c2" d="M 0,-2.29 Q 0,-2.29 3.16,-2.16 6.32,-2.03 8.81,-1.94 11.31,-1.84 12.94,-1.87 14.58,-1.91 16.27,-2.06 17.95,-2.22 19.47,-2.28 21,-2.35 21.37,-2.28 21.75,-2.22 22.08,-2.04 22.42,-1.87 22.68,-1.59 22.94,-1.31 23.10,-0.97 23.26,-0.62 23.30,-0.25 23.34,0.12 23.26,0.49 23.18,0.87 22.98,1.19 22.79,1.52 22.50,1.76 22.21,2.01 21.85,2.15 21.50,2.29 21.12,2.31 20.74,2.33 20.37,2.23 20.01,2.13 19.69,1.91 19.38,1.70 19.15,1.40 18.92,1.10 18.80,0.74 18.68,0.37 18.68,-0.00 18.68,-0.38 18.80,-0.74 18.92,-1.10 19.15,-1.40 19.38,-1.70 19.69,-1.91 20.01,-2.13 20.37,-2.23 20.74,-2.33 21.12,-2.31 21.50,-2.29 21.85,-2.15 22.21,-2.01 22.50,-1.76 22.79,-1.52 22.98,-1.19 23.18,-0.86 23.26,-0.49 23.34,-0.12 23.30,0.25 23.26,0.62 23.10,0.97 22.94,1.31 22.68,1.59 22.42,1.87 22.08,2.04 21.74,2.22 21.37,2.28 20.99,2.35 20.99,2.35 21,2.35 19.47,2.28 17.95,2.22 16.27,2.06 14.58,1.91 12.94,1.87 11.31,1.84 8.81,1.94 6.32,2.03 3.16,2.16 0,2.29 -0.27,2.26 -0.54,2.22 -0.80,2.13 -1.06,2.03 -1.29,1.87 -1.52,1.71 -1.70,1.51 -1.88,1.30 -2.01,1.05 -2.14,0.81 -2.21,0.54 -2.27,0.27 -2.27,-0.00 -2.27,-0.27 -2.21,-0.54 -2.14,-0.81 -2.01,-1.05 -1.88,-1.30 -1.70,-1.51 -1.52,-1.71 -1.29,-1.87 -1.06,-2.03 -0.80,-2.13 -0.54,-2.22 -0.27,-2.26 0.00,-2.29 0.00,-2.29 L 0,-2.29 Z"></path></g><g transform="translate(503.02401923818513 324) rotate(0 4.5 7)" stroke="none"><path fill="#1971c2" d="M 2.22,-1.33 Q 2.22,-1.33 3.03,0.11 3.84,1.57 4.90,2.40 5.97,3.23 7.38,3.97 8.80,4.71 10.06,5.36 11.32,6.02 11.24,7.81 11.16,9.61 10.44,10.69 9.71,11.78 8.48,12.58 7.25,13.39 5.52,15.07 3.79,16.76 3.30,16.97 2.81,17.19 2.28,17.23 1.75,17.28 1.23,17.16 0.71,17.03 0.26,16.75 -0.18,16.46 -0.52,16.05 -0.85,15.64 -1.04,15.14 -1.23,14.64 -1.24,14.10 -1.26,13.57 -1.11,13.06 -0.96,12.55 -0.65,12.12 -0.34,11.68 0.08,11.37 0.51,11.05 1.02,10.89 1.53,10.73 2.06,10.74 2.60,10.76 3.10,10.94 3.60,11.12 4.02,11.45 4.43,11.78 4.72,12.23 5.01,12.67 5.15,13.19 5.28,13.71 5.24,14.24 5.20,14.77 4.99,15.26 4.78,15.75 4.43,16.15 4.08,16.55 3.61,16.82 3.15,17.08 2.63,17.18 2.11,17.29 1.58,17.22 1.05,17.15 0.57,16.92 0.09,16.68 -0.28,16.31 -0.66,15.93 -0.90,15.46 -1.14,14.98 -1.21,14.45 -1.29,13.93 -1.19,13.40 -1.09,12.88 -0.84,12.41 -0.58,11.95 -0.18,11.59 0.20,11.23 0.20,11.23 0.20,11.23 1.33,10.55 2.47,9.86 3.50,8.93 4.53,8.00 5.56,7.57 6.59,7.14 6.51,8.34 6.44,9.54 5.28,8.86 4.12,8.17 2.69,7.08 1.26,5.98 0.43,5.08 -0.39,4.17 -1.31,2.75 -2.22,1.33 -2.35,1.05 -2.48,0.76 -2.54,0.45 -2.59,0.14 -2.57,-0.16 -2.55,-0.47 -2.46,-0.77 -2.36,-1.07 -2.20,-1.34 -2.04,-1.61 -1.81,-1.83 -1.59,-2.05 -1.32,-2.21 -1.05,-2.37 -0.75,-2.46 -0.46,-2.55 -0.14,-2.57 0.16,-2.59 0.47,-2.53 0.78,-2.47 1.06,-2.35 1.35,-2.22 1.59,-2.02 1.84,-1.83 2.03,-1.58 2.22,-1.33 2.22,-1.33 L 2.22,-1.33 Z"></path></g><g transform="translate(824.0240192381851 351) rotate(0 -13 11)" stroke="none"><path fill="#f08c00" d="M -1.14,2.28 Q -1.14,2.28 -2.30,1.72 -3.45,1.15 -4.39,0.57 -5.33,-0.01 -6.64,-0.04 -7.94,-0.07 -9.10,-0.09 -10.25,-0.11 -11.89,-0.20 -13.52,-0.28 -14.53,0.27 -15.54,0.83 -16.67,1.90 -17.81,2.96 -18.72,3.83 -19.63,4.70 -21.04,6.68 -22.44,8.66 -22.70,9.88 -22.95,11.10 -22.40,12.77 -21.86,14.44 -20.99,15.82 -20.12,17.19 -19.06,18.33 -18.00,19.46 -16.06,20.09 -14.12,20.73 -12.58,21.23 -11.04,21.73 -8.07,20.36 -5.10,18.98 -4.59,18.88 -4.08,18.79 -3.57,18.86 -3.05,18.93 -2.59,19.16 -2.12,19.39 -1.75,19.75 -1.39,20.12 -1.16,20.59 -0.93,21.05 -0.86,21.57 -0.79,22.08 -0.88,22.59 -0.98,23.10 -1.24,23.55 -1.49,24.01 -1.88,24.35 -2.27,24.70 -2.74,24.91 -3.22,25.11 -3.74,25.15 -4.26,25.20 -4.76,25.07 -5.26,24.94 -5.70,24.66 -6.14,24.38 -6.46,23.98 -6.79,23.57 -6.97,23.09 -7.15,22.60 -7.16,22.08 -7.18,21.56 -7.02,21.06 -6.87,20.57 -6.57,20.15 -6.26,19.72 -5.84,19.42 -5.42,19.12 -4.92,18.97 -4.43,18.81 -3.91,18.83 -3.39,18.84 -2.90,19.02 -2.41,19.20 -2.01,19.53 -1.60,19.85 -1.32,20.29 -1.05,20.73 -0.92,21.23 -0.79,21.74 -0.84,22.25 -0.88,22.77 -1.08,23.25 -1.29,23.73 -1.64,24.11 -1.98,24.50 -2.44,24.75 -2.89,25.01 -2.89,25.01 -2.89,25.01 -5.65,26.23 -8.41,27.45 -10.44,27.72 -12.47,27.99 -14.14,27.38 -15.81,26.78 -17.10,26.10 -18.39,25.41 -19.75,24.89 -21.11,24.36 -22.12,23.33 -23.13,22.29 -24.65,20.46 -26.17,18.64 -26.74,17.70 -27.31,16.76 -27.76,15.66 -28.20,14.57 -28.39,12.36 -28.58,10.15 -28.30,8.90 -28.02,7.65 -27.51,6.62 -26.99,5.58 -26.15,4.25 -25.31,2.93 -24.47,1.78 -23.62,0.63 -22.68,-0.30 -21.74,-1.24 -20.05,-2.64 -18.35,-4.04 -17.33,-4.55 -16.30,-5.06 -14.93,-5.37 -13.56,-5.69 -11.86,-5.76 -10.17,-5.83 -8.91,-5.81 -7.65,-5.80 -5.90,-5.52 -4.15,-5.23 -2.64,-4.34 -1.14,-3.45 0.00,-2.87 1.14,-2.28 1.40,-2.11 1.65,-1.94 1.86,-1.72 2.07,-1.49 2.22,-1.22 2.37,-0.95 2.45,-0.65 2.53,-0.35 2.53,-0.04 2.54,0.25 2.47,0.55 2.40,0.85 2.27,1.13 2.13,1.41 1.93,1.64 1.73,1.88 1.48,2.06 1.23,2.24 0.94,2.35 0.66,2.47 0.35,2.51 0.05,2.55 -0.25,2.52 -0.56,2.49 -0.85,2.39 -1.14,2.28 -1.14,2.28 L -1.14,2.28 Z"></path></g><g transform="translate(792.0240192381851 335) rotate(0 18.5 0.5)" stroke="none"><path fill="#f08c00" d="M 0,-2.64 Q 0,-2.64 1.43,-2.63 2.87,-2.61 4.98,-2.29 7.09,-1.97 8.23,-1.97 9.36,-1.98 10.60,-2.01 11.84,-2.05 13.01,-2.09 14.18,-2.13 16.00,-2.17 17.83,-2.21 19.41,-2.22 21.00,-2.23 22.39,-2.25 23.78,-2.27 24.98,-2.29 26.17,-2.31 27.71,-2.34 29.25,-2.38 30.66,-2.38 32.07,-2.39 34.53,-2.39 37.00,-2.40 37.54,-2.31 38.08,-2.22 38.57,-1.96 39.05,-1.70 39.43,-1.30 39.81,-0.90 40.04,-0.40 40.27,0.09 40.33,0.63 40.39,1.18 40.27,1.72 40.15,2.25 39.87,2.73 39.59,3.20 39.17,3.55 38.75,3.91 38.24,4.11 37.73,4.32 37.18,4.35 36.63,4.38 36.10,4.23 35.57,4.08 35.11,3.77 34.66,3.46 34.32,3.03 33.99,2.59 33.81,2.07 33.64,1.54 33.64,0.99 33.64,0.44 33.81,-0.07 33.99,-0.59 34.32,-1.03 34.66,-1.46 35.11,-1.77 35.57,-2.08 36.10,-2.23 36.63,-2.38 37.18,-2.35 37.73,-2.32 38.24,-2.11 38.75,-1.91 39.17,-1.55 39.59,-1.20 39.87,-0.72 40.15,-0.25 40.27,0.27 40.39,0.81 40.33,1.36 40.27,1.91 40.04,2.41 39.81,2.90 39.43,3.30 39.05,3.70 38.57,3.96 38.08,4.22 37.54,4.31 36.99,4.40 36.99,4.40 36.99,4.40 34.53,4.39 32.07,4.39 30.66,4.38 29.25,4.38 27.71,4.34 26.17,4.31 24.98,4.29 23.78,4.27 22.39,4.25 21.00,4.23 19.41,4.22 17.82,4.21 16.00,4.17 14.17,4.12 12.99,4.08 11.81,4.03 10.46,3.98 9.11,3.92 7.83,3.75 6.56,3.59 4.71,3.10 2.87,2.61 1.43,2.63 0,2.64 -0.31,2.61 -0.63,2.57 -0.93,2.45 -1.23,2.34 -1.49,2.16 -1.75,1.98 -1.96,1.74 -2.18,1.50 -2.32,1.22 -2.47,0.93 -2.55,0.62 -2.63,0.31 -2.63,-0.00 -2.63,-0.31 -2.55,-0.62 -2.47,-0.93 -2.32,-1.22 -2.18,-1.50 -1.96,-1.74 -1.75,-1.98 -1.49,-2.16 -1.23,-2.34 -0.93,-2.45 -0.63,-2.57 -0.31,-2.61 0.00,-2.64 0.00,-2.64 L 0,-2.64 Z"></path></g><g transform="translate(820.0240192381851 327) rotate(0 8 8)" stroke="none"><path fill="#f08c00" d="M 0.64,-2.57 Q 0.64,-2.57 1.79,-2.29 2.94,-2.02 4.68,-1.28 6.41,-0.54 7.91,0.36 9.42,1.26 10.85,1.68 12.28,2.10 13.63,2.48 14.97,2.86 16.75,4.36 18.52,5.87 18.87,7.50 19.23,9.14 18.87,10.55 18.52,11.96 17.94,12.93 17.37,13.90 16.04,15.93 14.71,17.97 14.32,18.35 13.94,18.73 13.45,18.97 12.96,19.21 12.42,19.28 11.88,19.35 11.35,19.24 10.82,19.14 10.35,18.87 9.88,18.60 9.52,18.19 9.16,17.79 8.94,17.29 8.73,16.79 8.69,16.24 8.65,15.70 8.78,15.18 8.92,14.65 9.21,14.19 9.51,13.74 9.94,13.40 10.36,13.06 10.87,12.88 11.38,12.69 11.93,12.68 12.47,12.67 12.99,12.83 13.51,13.00 13.94,13.32 14.38,13.64 14.70,14.08 15.01,14.52 15.17,15.04 15.32,15.56 15.31,16.11 15.29,16.65 15.10,17.16 14.91,17.67 14.56,18.09 14.22,18.51 13.76,18.80 13.30,19.09 12.77,19.22 12.25,19.34 11.71,19.30 11.16,19.25 10.67,19.03 10.17,18.81 9.77,18.45 9.36,18.08 9.10,17.61 8.84,17.13 8.74,16.60 8.64,16.06 8.72,15.53 8.79,14.99 9.04,14.50 9.28,14.02 9.28,14.02 9.28,14.02 10.54,12.14 11.81,10.26 12.79,9.85 13.77,9.44 12.75,8.70 11.74,7.96 10.26,7.27 8.78,6.57 6.61,5.54 4.44,4.51 3.04,3.84 1.65,3.17 0.50,2.87 -0.64,2.57 -0.94,2.45 -1.24,2.34 -1.50,2.16 -1.76,1.97 -1.97,1.73 -2.18,1.49 -2.33,1.21 -2.48,0.93 -2.55,0.62 -2.63,0.31 -2.63,-0.00 -2.63,-0.32 -2.55,-0.63 -2.47,-0.94 -2.32,-1.23 -2.17,-1.51 -1.96,-1.75 -1.75,-1.99 -1.48,-2.17 -1.22,-2.35 -0.92,-2.46 -0.62,-2.57 -0.30,-2.61 0.00,-2.65 0.32,-2.61 0.64,-2.57 0.64,-2.57 L 0.64,-2.57 Z"></path></g></svg>