<svg version="1.1" xmlns="http://www.w3.org/2000/svg" viewBox="0 0 914.8109819196164 590.6049640002848" width="914.8109819196164" height="590.6049640002848" class="excalidraw-svg"><!-- svg-source:excalidraw --><metadata></metadata><defs><style class="style-fonts">
      </style></defs><rect x="0" y="0" width="914.8109819196164" height="590.6049640002848" fill="#ffffff"></rect><g stroke-linecap="round"><g transform="translate(123 374.40710408861753) rotate(0 390.50659047588704 -5.299012355986051)"><path d="M-0.8 -0.25 C129.36 -1.56, 651.42 -6.84, 781.81 -8.49 M0.98 -1.43 C130.98 -3.04, 651.28 -9.01, 781.29 -10.35" stroke="#1e1e1e" stroke-width="2" fill="none"></path></g><g transform="translate(123 374.40710408861753) rotate(0 390.50659047588704 -5.299012355986051)"><path d="M757.89 -1.54 C766.19 -3.29, 776.12 -7.01, 781.29 -10.35 M757.89 -1.54 C762.02 -3.93, 768.31 -5.38, 781.29 -10.35" stroke="#1e1e1e" stroke-width="2" fill="none"></path></g><g transform="translate(123 374.40710408861753) rotate(0 390.50659047588704 -5.299012355986051)"><path d="M757.7 -18.64 C765.98 -14.06, 775.98 -11.44, 781.29 -10.35 M757.7 -18.64 C761.84 -17.53, 768.17 -15.49, 781.29 -10.35" stroke="#1e1e1e" stroke-width="2" fill="none"></path></g></g><mask></mask><g stroke-linecap="round"><g transform="translate(325 579.4071040886175) rotate(0 0.09304060610075027 -284.10462208847514)"><path d="M-1.02 -0.93 C-1.1 -95.45, -1.15 -473.24, -0.98 -567.88 M0.65 1.2 C0.97 -93.56, 1.45 -474.65, 1.22 -569.41" stroke="#1e1e1e" stroke-width="2" fill="none"></path></g><g transform="translate(325 579.4071040886175) rotate(0 0.09304060610075027 -284.10462208847514)"><path d="M9.77 -545.92 C6.14 -553.76, 7.33 -558.28, 1.22 -569.41 M9.77 -545.92 C7.38 -554.29, 5.15 -560.1, 1.22 -569.41" stroke="#1e1e1e" stroke-width="2" fill="none"></path></g><g transform="translate(325 579.4071040886175) rotate(0 0.09304060610075027 -284.10462208847514)"><path d="M-7.33 -545.91 C-6.5 -553.61, -0.84 -558.13, 1.22 -569.41 M-7.33 -545.91 C-4.24 -554.44, -1 -560.25, 1.22 -569.41" stroke="#1e1e1e" stroke-width="2" fill="none"></path></g></g><mask></mask><g stroke-linecap="round"><g transform="translate(322 491.40710408861753) rotate(0 242.32646100744603 -121.82250440230008)"><path d="M-0.39 0.51 C54.7 -39.32, 249.92 -218.82, 330.83 -240.06 C411.73 -261.3, 459.47 -145.86, 485.04 -126.91 M1.61 -0.27 C57.02 -40.33, 252.47 -220.81, 332.92 -241.69 C413.37 -262.57, 459.09 -144.4, 484.3 -125.55" stroke="#1e1e1e" stroke-width="2" fill="none"></path></g></g><mask></mask><g transform="translate(329 486.40710408861753) rotate(0 -7.5 10)" stroke="none"><path fill="#1e1e1e" d="M -1.94,4.87 Q -1.94,4.87 -3.42,4.37 -4.89,3.87 -7.22,3.40 -9.55,2.93 -11.52,4.74 -13.49,6.56 -12.83,8.93 -12.16,11.31 -11.62,13.86 -11.08,16.40 -8.20,16.08 -5.31,15.77 -4.33,13.71 -3.35,11.65 -4.06,9.39 -4.77,7.13 -4.57,7.13 -4.38,7.13 -5.06,6.13 -5.74,5.14 -6.06,3.98 -6.39,2.82 -6.33,1.62 -6.27,0.42 -5.82,-0.69 -5.38,-1.81 -4.61,-2.73 -3.83,-3.65 -2.80,-4.28 -1.77,-4.90 -0.59,-5.16 0.57,-5.42 1.77,-5.30 2.96,-5.17 4.06,-4.67 5.15,-4.17 6.03,-3.34 6.91,-2.52 7.47,-1.45 8.04,-0.39 8.24,0.79 8.44,1.97 8.25,3.16 8.05,4.35 7.49,5.42 6.93,6.48 6.06,7.31 5.19,8.14 4.10,8.65 3.01,9.16 1.81,9.29 0.61,9.43 -0.55,9.17 -1.73,8.92 -2.76,8.30 -3.80,7.68 -4.58,6.76 -5.36,5.85 -5.81,4.73 -6.26,3.61 -6.33,2.41 -6.40,1.21 -6.08,0.05 -5.76,-1.10 -5.08,-2.10 -4.41,-3.10 -3.46,-3.83 -2.50,-4.56 -1.36,-4.95 -0.22,-5.34 0.97,-5.34 2.18,-5.34 3.32,-4.96 4.46,-4.58 5.42,-3.85 6.38,-3.13 6.38,-3.13 6.38,-3.13 8.11,-0.05 9.84,3.03 10.59,6.91 11.35,10.78 11.22,13.38 11.09,15.97 10.55,18.26 10.02,20.55 8.44,23.06 6.86,25.58 5.29,27.14 3.71,28.70 0.71,29.47 -2.28,30.24 -4.77,30.22 -7.27,30.19 -9.86,29.98 -12.45,29.77 -14.96,28.98 -17.47,28.19 -19.26,26.47 -21.06,24.75 -23.09,21.32 -25.13,17.88 -25.49,15.06 -25.86,12.23 -25.73,9.89 -25.60,7.55 -24.91,4.80 -24.22,2.05 -22.75,-0.40 -21.27,-2.87 -19.21,-4.88 -17.16,-6.89 -13.95,-7.91 -10.74,-8.94 -8.01,-8.57 -5.27,-8.20 -3.06,-7.18 -0.85,-6.17 0.54,-5.52 1.94,-4.87 2.50,-4.57 3.05,-4.26 3.52,-3.83 3.99,-3.40 4.34,-2.88 4.69,-2.35 4.90,-1.75 5.11,-1.16 5.18,-0.53 5.24,0.09 5.16,0.72 5.07,1.34 4.83,1.93 4.60,2.52 4.23,3.03 3.86,3.55 3.38,3.96 2.90,4.37 2.33,4.65 1.77,4.94 1.15,5.08 0.53,5.22 -0.09,5.21 -0.72,5.19 -1.33,5.03 -1.95,4.87 -1.94,4.87 L -1.94,4.87 Z"></path></g><g transform="translate(808 365.40710408861753) rotate(0 -1.5 9)" stroke="none"><path fill="#1e1e1e" d="M -0.86,5.18 Q -0.86,5.18 -2.60,4.97 -4.33,4.75 -5.97,6.86 -7.61,8.98 -5.18,9.09 -2.75,9.20 -0.30,9.87 2.15,10.53 4.36,11.80 6.56,13.06 5.69,10.60 4.82,8.14 3.56,5.49 2.31,2.84 2.03,1.70 1.75,0.56 1.85,-0.60 1.95,-1.77 2.42,-2.85 2.89,-3.93 3.67,-4.80 4.46,-5.67 5.49,-6.25 6.51,-6.82 7.67,-7.04 8.82,-7.26 9.99,-7.10 11.15,-6.93 12.20,-6.41 13.25,-5.88 14.08,-5.05 14.91,-4.21 15.43,-3.16 15.95,-2.10 16.10,-0.94 16.26,0.22 16.03,1.37 15.81,2.52 15.23,3.55 14.64,4.57 13.77,5.35 12.89,6.13 11.81,6.59 10.72,7.05 9.55,7.14 8.38,7.24 7.24,6.95 6.10,6.66 5.11,6.02 4.12,5.39 3.39,4.47 2.66,3.55 2.25,2.44 1.85,1.34 1.83,0.16 1.80,-1.00 2.15,-2.12 2.50,-3.25 3.19,-4.20 3.87,-5.15 4.83,-5.83 5.79,-6.52 6.91,-6.86 8.04,-7.20 9.21,-7.16 10.39,-7.13 11.49,-6.72 12.59,-6.31 13.51,-5.57 14.42,-4.83 15.05,-3.84 15.68,-2.84 15.68,-2.84 15.68,-2.84 17.39,1.26 19.10,5.38 19.10,8.14 19.11,10.89 18.85,13.27 18.58,15.64 16.83,18.51 15.07,21.38 12.11,23.18 9.14,24.99 5.02,25.09 0.91,25.20 -1.76,23.79 -4.44,22.38 -7.16,21.93 -9.87,21.48 -12.45,21.23 -15.02,20.97 -17.63,18.54 -20.25,16.12 -20.62,12.80 -20.99,9.47 -20.00,6.72 -19.02,3.97 -17.95,1.65 -16.87,-0.67 -14.61,-2.77 -12.35,-4.87 -9.60,-5.69 -6.84,-6.51 -4.70,-6.21 -2.56,-5.90 -0.84,-5.54 0.86,-5.18 1.47,-5.00 2.07,-4.82 2.62,-4.50 3.17,-4.18 3.62,-3.74 4.08,-3.30 4.41,-2.76 4.75,-2.23 4.95,-1.63 5.15,-1.02 5.20,-0.39 5.24,0.23 5.14,0.85 5.04,1.48 4.79,2.06 4.53,2.64 4.15,3.15 3.77,3.65 3.28,4.05 2.78,4.45 2.21,4.72 1.64,4.99 1.02,5.11 0.40,5.23 -0.23,5.21 -0.86,5.18 -0.86,5.18 L -0.86,5.18 Z"></path></g><g transform="translate(476 390.40710408861753) rotate(0 0 25)" stroke="none"><path fill="#1e1e1e" d="M 5.28,0 Q 5.28,0 5.24,2.87 5.21,5.75 5.34,9.58 5.47,13.41 5.61,16.27 5.74,19.14 5.90,21.90 6.06,24.67 6.14,27.02 6.23,29.36 6.30,31.55 6.37,33.73 6.46,36.40 6.55,39.06 6.62,41.81 6.70,44.56 6.74,47.28 6.78,50 6.61,51.08 6.43,52.16 5.91,53.13 5.40,54.10 4.60,54.86 3.80,55.61 2.81,56.08 1.81,56.54 0.72,56.66 -0.36,56.77 -1.44,56.54 -2.51,56.30 -3.45,55.74 -4.39,55.17 -5.10,54.33 -5.81,53.49 -6.22,52.47 -6.63,51.45 -6.68,50.36 -6.74,49.26 -6.45,48.20 -6.16,47.14 -5.54,46.23 -4.92,45.33 -4.05,44.66 -3.17,44.00 -2.13,43.65 -1.09,43.30 0.00,43.30 1.09,43.30 2.14,43.65 3.18,44.00 4.05,44.66 4.92,45.33 5.54,46.24 6.16,47.15 6.45,48.20 6.74,49.26 6.68,50.36 6.62,51.46 6.22,52.48 5.81,53.50 5.10,54.33 4.39,55.17 3.45,55.74 2.51,56.30 1.43,56.54 0.36,56.77 -0.72,56.65 -1.81,56.54 -2.81,56.07 -3.81,55.61 -4.60,54.86 -5.40,54.10 -5.91,53.13 -6.43,52.16 -6.61,51.08 -6.78,49.99 -6.78,49.99 -6.78,50 -6.74,47.28 -6.70,44.56 -6.62,41.81 -6.55,39.06 -6.46,36.40 -6.37,33.73 -6.30,31.55 -6.23,29.36 -6.14,27.02 -6.06,24.67 -5.90,21.90 -5.74,19.14 -5.61,16.27 -5.47,13.41 -5.34,9.58 -5.21,5.75 -5.24,2.87 -5.28,0 -5.20,-0.63 -5.12,-1.26 -4.90,-1.85 -4.67,-2.45 -4.31,-2.97 -3.95,-3.50 -3.47,-3.92 -3.00,-4.34 -2.43,-4.64 -1.87,-4.93 -1.25,-5.09 -0.63,-5.24 0.00,-5.24 0.63,-5.24 1.25,-5.09 1.87,-4.93 2.43,-4.64 3.00,-4.34 3.47,-3.92 3.95,-3.50 4.31,-2.97 4.67,-2.45 4.90,-1.85 5.12,-1.26 5.20,-0.63 5.28,0.00 5.28,0.00 L 5.28,0 Z"></path></g><g transform="translate(799 409.40710408861753) rotate(0 13 19.5)" stroke="none"><path fill="#1e1e1e" d="M 0,-5.16 Q 0,-5.16 2.87,-5.14 5.75,-5.12 9.29,-5.27 12.84,-5.42 15.45,-5.60 18.07,-5.78 20.61,-5.43 23.16,-5.07 26.12,-3.33 29.08,-1.59 29.02,2.37 28.96,6.34 26.36,8.88 23.77,11.42 21.17,13.23 18.58,15.04 15.85,15.76 13.12,16.47 10.42,17.94 7.72,19.41 7.70,16.17 7.69,12.93 6.29,10.92 4.89,8.92 7.99,10.17 11.08,11.43 13.67,11.58 16.25,11.73 20.05,13.21 23.86,14.69 26.31,15.23 28.76,15.76 30.78,17.12 32.79,18.48 33.56,21.88 34.32,25.28 33.19,28.89 32.06,32.50 30.38,34.69 28.69,36.89 26.90,38.21 25.11,39.53 22.35,40.81 19.58,42.09 16.80,42.98 14.02,43.86 12.06,44.79 10.10,45.71 7.53,46.04 4.96,46.36 1.98,46.39 -0.99,46.41 -2.17,46.22 -3.36,46.03 -4.42,45.47 -5.48,44.90 -6.30,44.03 -7.13,43.16 -7.64,42.07 -8.14,40.99 -8.27,39.79 -8.40,38.60 -8.14,37.43 -7.89,36.26 -7.27,35.23 -6.65,34.20 -5.74,33.42 -4.82,32.64 -3.71,32.20 -2.60,31.75 -1.40,31.69 -0.20,31.62 0.95,31.94 2.10,32.26 3.10,32.93 4.09,33.61 4.82,34.56 5.55,35.52 5.93,36.65 6.31,37.79 6.31,38.99 6.32,40.19 5.93,41.33 5.55,42.46 4.83,43.42 4.10,44.38 3.11,45.05 2.11,45.72 0.96,46.05 -0.19,46.37 -1.39,46.30 -2.58,46.24 -3.70,45.80 -4.82,45.35 -5.73,44.58 -6.65,43.80 -7.26,42.77 -7.88,41.74 -8.14,40.57 -8.40,39.40 -8.27,38.21 -8.14,37.01 -7.64,35.93 -7.14,34.84 -6.31,33.96 -5.49,33.09 -4.43,32.53 -3.37,31.97 -2.18,31.77 -1.00,31.58 -1.00,31.58 -1.00,31.58 2.11,31.83 5.24,32.08 8.44,30.82 11.65,29.55 13.73,28.65 15.82,27.76 18.55,27.94 21.28,28.12 18.68,27.18 16.08,26.24 13.60,26.12 11.12,26.01 8.86,25.47 6.61,24.93 4.27,23.88 1.94,22.83 -0.73,20.26 -3.42,17.69 -3.69,14.46 -3.97,11.23 -2.61,9.59 -1.25,7.95 0.94,7.30 3.13,6.65 5.35,5.62 7.56,4.59 10.74,3.55 13.93,2.52 15.86,1.39 17.78,0.27 17.93,3.03 18.07,5.78 15.45,5.60 12.84,5.42 9.29,5.27 5.75,5.12 2.87,5.14 0,5.16 -0.61,5.08 -1.23,5.01 -1.81,4.79 -2.40,4.57 -2.91,4.21 -3.42,3.86 -3.83,3.39 -4.25,2.93 -4.54,2.38 -4.82,1.83 -4.97,1.22 -5.12,0.62 -5.12,-0.00 -5.12,-0.62 -4.97,-1.22 -4.82,-1.83 -4.53,-2.38 -4.25,-2.93 -3.83,-3.40 -3.42,-3.86 -2.91,-4.21 -2.39,-4.57 -1.81,-4.79 -1.23,-5.01 -0.61,-5.08 0.00,-5.16 0.00,-5.16 L 0,-5.16 Z"></path></g><g transform="translate(10 345.40710408861753) rotate(0 0.00004999999998744897 0.00004999999999988347)" stroke="none"><path fill="#1e1e1e" d="M 3.14,-3.14 Q 3.14,-3.14 3.55,-2.55 3.97,-1.97 4.18,-1.28 4.40,-0.59 4.38,0.11 4.36,0.83 4.11,1.51 3.86,2.18 3.41,2.74 2.96,3.30 2.36,3.69 1.75,4.08 1.05,4.25 0.36,4.42 -0.35,4.36 -1.07,4.31 -1.73,4.02 -2.39,3.74 -2.92,3.26 -3.46,2.78 -3.81,2.15 -4.16,1.53 -4.30,0.82 -4.43,0.11 -4.34,-0.59 -4.24,-1.30 -3.92,-1.94 -3.60,-2.59 -3.09,-3.09 -2.59,-3.60 -1.94,-3.92 -1.30,-4.24 -0.59,-4.34 0.12,-4.43 0.82,-4.30 1.53,-4.16 2.15,-3.81 2.78,-3.46 3.26,-2.92 3.74,-2.39 4.02,-1.73 4.31,-1.07 4.36,-0.35 4.42,0.36 4.25,1.05 4.07,1.75 3.69,2.36 3.30,2.96 2.74,3.41 2.18,3.86 1.51,4.11 0.83,4.36 0.11,4.38 -0.60,4.40 -1.28,4.18 -1.97,3.97 -2.55,3.55 -3.14,3.13 -3.14,3.14 -3.14,3.14 -3.47,2.71 -3.80,2.29 -4.02,1.80 -4.24,1.32 -4.33,0.79 -4.43,0.26 -4.40,-0.26 -4.36,-0.80 -4.20,-1.31 -4.04,-1.82 -3.77,-2.28 -3.49,-2.73 -3.11,-3.11 -2.73,-3.49 -2.28,-3.77 -1.82,-4.05 -1.31,-4.20 -0.80,-4.36 -0.26,-4.40 0.26,-4.43 0.79,-4.33 1.32,-4.24 1.80,-4.02 2.29,-3.80 2.71,-3.47 3.14,-3.14 3.14,-3.14 L 3.14,-3.14 Z"></path></g><g transform="translate(298.4587934404756 333.56742769924097) rotate(0 7.849219630584344 12.558751408934938)" stroke="none"><path fill="#1e1e1e" d="M 5.04,1.12 Q 5.04,1.12 4.65,3.16 4.26,5.20 4.22,7.48 4.18,9.76 3.95,11.99 3.72,14.23 3.86,16.60 3.99,18.98 5.98,19.89 7.97,20.81 8.57,17.28 9.17,13.74 9.75,11.69 10.32,9.64 10.52,7.13 10.73,4.63 7.71,4.47 4.69,4.32 3.50,4.12 2.30,3.92 1.24,3.35 0.17,2.79 -0.64,1.91 -1.47,1.03 -1.98,-0.06 -2.48,-1.16 -2.61,-2.36 -2.74,-3.56 -2.47,-4.74 -2.21,-5.91 -1.59,-6.95 -0.96,-7.98 -0.04,-8.76 0.87,-9.54 2.00,-9.98 3.12,-10.43 4.32,-10.49 5.53,-10.55 6.69,-10.23 7.85,-9.90 8.85,-9.22 9.85,-8.54 10.58,-7.58 11.31,-6.61 11.69,-5.47 12.07,-4.32 12.07,-3.12 12.07,-1.91 11.68,-0.77 11.29,0.37 10.56,1.33 9.82,2.29 8.82,2.96 7.82,3.64 6.66,3.96 5.49,4.28 4.29,4.21 3.08,4.14 1.96,3.69 0.84,3.24 -0.07,2.46 -0.99,1.67 -1.61,0.64 -2.23,-0.39 -2.48,-1.57 -2.74,-2.75 -2.60,-3.95 -2.47,-5.15 -1.96,-6.24 -1.45,-7.34 -0.62,-8.21 0.20,-9.09 1.27,-9.65 2.34,-10.21 3.53,-10.40 4.72,-10.60 4.72,-10.60 4.72,-10.60 7.32,-10.56 9.91,-10.53 12.14,-10.15 14.37,-9.77 16.33,-8.47 18.29,-7.16 20.10,-5.61 21.90,-4.06 23.20,-2.02 24.50,0.02 24.91,3.56 25.32,7.11 25.07,9.60 24.81,12.10 23.77,15.09 22.73,18.09 22.18,20.49 21.62,22.89 20.53,24.78 19.44,26.67 17.87,28.65 16.30,30.63 14.70,32.20 13.10,33.77 9.08,34.17 5.07,34.58 2.87,33.60 0.68,32.61 -2.17,30.53 -5.03,28.45 -6.54,26.06 -8.06,23.66 -8.35,20.87 -8.64,18.08 -8.48,15.79 -8.31,13.51 -7.73,10.89 -7.16,8.27 -6.61,5.59 -6.06,2.91 -5.55,0.89 -5.04,-1.12 -4.83,-1.70 -4.62,-2.29 -4.28,-2.81 -3.94,-3.33 -3.48,-3.75 -3.02,-4.18 -2.48,-4.48 -1.94,-4.78 -1.34,-4.94 -0.73,-5.11 -0.11,-5.12 0.50,-5.13 1.11,-5.00 1.71,-4.86 2.27,-4.59 2.83,-4.31 3.31,-3.91 3.78,-3.51 4.15,-3.00 4.51,-2.50 4.74,-1.92 4.98,-1.35 5.07,-0.73 5.16,-0.11 5.10,0.50 5.04,1.12 5.04,1.12 L 5.04,1.12 Z"></path></g></svg>