<svg version="1.1" xmlns="http://www.w3.org/2000/svg" viewBox="0 0 406.1801319336395 401" width="406.1801319336395" height="401" class="excalidraw-svg"><!-- svg-source:excalidraw --><metadata></metadata><defs><style class="style-fonts">
      </style></defs><rect x="0" y="0" width="406.1801319336395" height="401" fill="#ffffff"></rect><g stroke-linecap="round"><g transform="translate(10.485779808834195 321) rotate(0 192.60428615798554 -110.8757879043624)"><path d="M-0.49 -1.08 C63.62 -38.05, 321.27 -184.12, 385.69 -221.16 M1.46 0.97 C65.39 -36.37, 321.08 -185.46, 385.16 -222.72" stroke="#e03131" stroke-width="2" fill="none"></path></g><g transform="translate(10.485779808834195 321) rotate(0 192.60428615798554 -110.8757879043624)"><path d="M369.16 -203.51 C373.44 -209.56, 383.19 -216.34, 385.16 -222.72 M369.16 -203.51 C371.45 -208.29, 376.41 -211.87, 385.16 -222.72" stroke="#e03131" stroke-width="2" fill="none"></path></g><g transform="translate(10.485779808834195 321) rotate(0 192.60428615798554 -110.8757879043624)"><path d="M360.55 -218.29 C368.24 -218.59, 381.31 -219.67, 385.16 -222.72 M360.55 -218.29 C364.77 -219.91, 371.52 -220.41, 385.16 -222.72" stroke="#e03131" stroke-width="2" fill="none"></path></g></g><mask></mask><g stroke-linecap="round"><g transform="translate(151.4857798088342 375) rotate(0 116.0288546456204 -66.51629506566641)"><path d="M0.93 -0.53 C39.65 -22.86, 193.5 -112.47, 232.11 -134.84 M-0.05 1.81 C38.51 -20.29, 192.31 -111.04, 230.96 -133.63" stroke="#1971c2" stroke-width="2" fill="none"></path></g><g transform="translate(151.4857798088342 375) rotate(0 116.0288546456204 -66.51629506566641)"><path d="M215.03 -114.36 C218.73 -120.49, 223.02 -125.07, 230.96 -133.63 M215.03 -114.36 C219.74 -119.98, 223.55 -123.33, 230.96 -133.63" stroke="#1971c2" stroke-width="2" fill="none"></path></g><g transform="translate(151.4857798088342 375) rotate(0 116.0288546456204 -66.51629506566641)"><path d="M206.37 -129.1 C212.38 -131.19, 219.08 -131.67, 230.96 -133.63 M206.37 -129.1 C213.21 -130.9, 219.24 -130.48, 230.96 -133.63" stroke="#1971c2" stroke-width="2" fill="none"></path></g></g><mask></mask><g stroke-linecap="round"><g transform="translate(303.4857798088342 23) rotate(0 -114.91386196982978 66.73210469484658)"><path d="M-0.12 -0.65 C-38.22 21.54, -190.99 111.72, -229.27 134.12 M-1.64 1.62 C-39.76 23.43, -191.6 110.92, -229.71 132.62" stroke="#f08c00" stroke-width="2" fill="none"></path></g><g transform="translate(303.4857798088342 23) rotate(0 -114.91386196982978 66.73210469484658)"><path d="M-213.58 113.52 C-218.47 119.8, -219.36 123.63, -229.71 132.62 M-213.58 113.52 C-219.01 119.68, -225.7 127.94, -229.71 132.62" stroke="#f08c00" stroke-width="2" fill="none"></path></g><g transform="translate(303.4857798088342 23) rotate(0 -114.91386196982978 66.73210469484658)"><path d="M-205.08 128.36 C-212.17 130.99, -215.14 131.18, -229.71 132.62 M-205.08 128.36 C-213.55 129.13, -223.37 131.94, -229.71 132.62" stroke="#f08c00" stroke-width="2" fill="none"></path></g></g><mask></mask><g transform="translate(171.4857798088342 36) rotate(0 -3 10.5)" stroke="none"><path fill="#f08c00" d="M -1.15,2.31 Q -1.15,2.31 -2.31,1.75 -3.46,1.18 -4.93,1.03 -6.41,0.89 -7.81,1.74 -9.20,2.60 -10.42,3.37 -11.63,4.14 -12.66,5.42 -13.70,6.71 -14.20,7.88 -14.70,9.05 -12.13,10.44 -9.56,11.82 -6.64,12.79 -3.73,13.75 -1.97,14.81 -0.20,15.86 1.43,16.79 3.07,17.72 4.00,18.49 4.93,19.27 5.96,19.67 6.98,20.07 7.80,18.48 8.62,16.89 8.77,15.36 8.92,13.83 8.93,12.10 8.94,10.37 8.94,8.41 8.94,6.45 8.93,4.72 8.91,2.99 8.99,2.50 9.07,2.01 9.31,1.57 9.54,1.12 9.90,0.78 10.27,0.44 10.72,0.23 11.17,0.02 11.67,-0.02 12.17,-0.08 12.65,0.02 13.14,0.13 13.57,0.39 14.00,0.64 14.32,1.03 14.64,1.41 14.83,1.87 15.01,2.33 15.04,2.83 15.06,3.33 14.93,3.81 14.79,4.29 14.51,4.71 14.23,5.12 13.84,5.42 13.44,5.72 12.96,5.88 12.49,6.04 11.99,6.04 11.49,6.04 11.02,5.88 10.55,5.72 10.15,5.42 9.75,5.11 9.47,4.70 9.19,4.29 9.06,3.81 8.93,3.33 8.95,2.83 8.98,2.33 9.17,1.86 9.35,1.40 9.68,1.02 10.00,0.64 10.43,0.38 10.86,0.13 11.34,0.02 11.83,-0.08 12.33,-0.02 12.82,0.02 13.28,0.23 13.73,0.44 14.09,0.79 14.45,1.13 14.69,1.57 14.92,2.01 15.00,2.51 15.08,3.00 15.08,3.00 15.08,3.00 15.06,5.73 15.03,8.46 15.00,10.44 14.97,12.42 14.81,14.23 14.66,16.04 14.44,17.36 14.22,18.67 13.86,19.85 13.51,21.03 12.92,22.39 12.34,23.75 10.98,24.65 9.62,25.55 8.55,25.62 7.48,25.68 5.47,25.12 3.46,24.56 2.46,23.79 1.47,23.03 0.57,21.71 -0.32,20.39 -1.32,19.89 -2.32,19.40 -3.62,18.60 -4.92,17.80 -7.86,17.12 -10.81,16.44 -13.18,15.97 -15.55,15.51 -17.58,14.46 -19.60,13.41 -20.13,11.22 -20.67,9.04 -19.89,6.86 -19.12,4.68 -17.82,2.97 -16.52,1.26 -15.69,0.37 -14.87,-0.51 -13.72,-1.33 -12.57,-2.16 -11.65,-2.77 -10.73,-3.38 -9.02,-4.10 -7.31,-4.82 -5.97,-4.70 -4.62,-4.57 -2.88,-4.03 -1.13,-3.48 0.01,-2.90 1.15,-2.31 1.41,-2.14 1.67,-1.97 1.89,-1.74 2.10,-1.51 2.25,-1.23 2.40,-0.96 2.48,-0.66 2.56,-0.36 2.57,-0.05 2.57,0.26 2.50,0.56 2.44,0.87 2.30,1.15 2.16,1.42 1.95,1.66 1.75,1.90 1.50,2.08 1.24,2.27 0.95,2.38 0.66,2.50 0.35,2.54 0.05,2.59 -0.25,2.55 -0.57,2.52 -0.86,2.42 -1.15,2.31 -1.15,2.31 L -1.15,2.31 Z"></path></g><g transform="translate(175.4857798088342 35) rotate(0 -0.5 12.5)" stroke="none"><path fill="#f08c00" d="M -0.51,2.56 Q -0.51,2.56 -1.95,2.25 -3.39,1.94 -4.58,1.48 -5.76,1.02 -7.12,0.93 -8.48,0.85 -10.20,0.86 -11.93,0.87 -13.09,1.68 -14.25,2.49 -15.05,3.51 -15.86,4.52 -16.62,5.86 -17.38,7.19 -18.05,9.32 -18.72,11.45 -19.27,12.42 -19.82,13.38 -19.18,14.64 -18.53,15.90 -17.91,16.98 -17.29,18.07 -16.74,19.11 -16.19,20.15 -15.67,21.16 -15.15,22.18 -14.03,23.06 -12.92,23.95 -11.25,23.90 -9.57,23.85 -8.03,23.64 -6.48,23.42 -5.42,22.91 -4.35,22.41 -3.39,21.71 -2.43,21.02 -0.92,19.28 0.59,17.55 0.99,16.30 1.39,15.06 2.33,14.19 3.27,13.33 3.44,11.55 3.60,9.77 4.09,8.59 4.58,7.41 4.70,6.01 4.82,4.61 4.82,3.27 4.81,1.94 5.99,2.77 7.17,3.60 6.80,5.15 6.44,6.70 6.77,7.75 7.11,8.80 7.56,9.92 8.02,11.03 8.50,12.08 8.97,13.12 9.46,14.14 9.94,15.16 10.46,16.59 10.97,18.02 11.88,19.58 12.79,21.15 14.05,20.98 15.30,20.81 16.34,20.32 17.38,19.83 17.64,19.81 17.90,19.79 17.86,19.27 17.81,18.76 17.93,18.26 18.05,17.76 18.33,17.32 18.60,16.88 19.00,16.55 19.40,16.23 19.89,16.05 20.37,15.86 20.89,15.85 21.40,15.83 21.90,15.98 22.39,16.13 22.81,16.42 23.24,16.72 23.54,17.14 23.84,17.56 24.00,18.05 24.15,18.54 24.14,19.06 24.13,19.57 23.96,20.06 23.78,20.55 23.46,20.95 23.14,21.36 22.71,21.64 22.28,21.92 21.78,22.05 21.28,22.17 20.76,22.14 20.25,22.10 19.77,21.90 19.30,21.70 18.91,21.35 18.52,21.01 18.26,20.57 18.01,20.12 17.91,19.61 17.81,19.10 17.87,18.59 17.94,18.08 18.16,17.62 18.39,17.15 18.75,16.78 19.11,16.42 19.58,16.18 20.04,15.95 20.55,15.88 21.06,15.80 21.57,15.90 22.07,15.99 22.53,16.24 22.98,16.49 23.32,16.87 23.67,17.26 23.88,17.73 24.09,18.20 24.09,18.20 24.09,18.20 22.25,21.78 20.41,25.37 19.32,25.90 18.22,26.44 16.72,26.79 15.21,27.15 14.01,27.05 12.82,26.95 11.13,26.37 9.44,25.79 8.09,24.03 6.73,22.26 6.13,21.19 5.54,20.13 5.05,18.95 4.56,17.78 4.04,16.74 3.52,15.69 2.98,14.59 2.44,13.48 1.87,12.25 1.29,11.01 0.60,8.92 -0.08,6.82 0.33,4.93 0.75,3.03 1.39,1.55 2.03,0.07 3.11,-1.05 4.18,-2.19 5.64,-2.41 7.09,-2.64 8.57,-1.86 10.04,-1.08 10.62,0.85 11.19,2.78 11.13,3.89 11.07,4.99 10.88,6.40 10.68,7.81 10.03,9.67 9.39,11.52 8.90,13.32 8.40,15.12 7.18,17.25 5.95,19.37 5.34,20.35 4.72,21.33 3.88,22.26 3.04,23.20 2.03,24.37 1.01,25.55 -0.33,26.59 -1.68,27.64 -3.35,28.52 -5.02,29.40 -7.39,29.72 -9.75,30.05 -11.79,29.90 -13.84,29.75 -15.57,28.94 -17.30,28.13 -18.20,27.43 -19.09,26.73 -19.72,25.80 -20.36,24.86 -20.86,23.88 -21.37,22.90 -22.39,21.05 -23.41,19.19 -24.29,17.74 -25.16,16.28 -25.37,14.72 -25.57,13.15 -25.18,11.78 -24.79,10.41 -24.05,8.97 -23.31,7.54 -22.90,6.08 -22.49,4.62 -21.82,3.14 -21.14,1.65 -20.53,0.71 -19.93,-0.22 -18.51,-1.54 -17.09,-2.85 -16.06,-3.49 -15.03,-4.13 -12.69,-4.43 -10.34,-4.74 -9.23,-4.69 -8.12,-4.64 -6.72,-4.51 -5.33,-4.38 -3.84,-3.74 -2.35,-3.09 -0.92,-2.83 0.51,-2.56 0.81,-2.46 1.11,-2.36 1.37,-2.20 1.64,-2.03 1.86,-1.80 2.08,-1.57 2.24,-1.30 2.40,-1.03 2.49,-0.73 2.58,-0.42 2.59,-0.11 2.60,0.20 2.54,0.50 2.48,0.81 2.35,1.10 2.21,1.38 2.01,1.63 1.81,1.87 1.56,2.06 1.31,2.26 1.02,2.38 0.73,2.50 0.42,2.56 0.11,2.61 -0.19,2.58 -0.51,2.56 -0.51,2.56 L -0.51,2.56 Z"></path></g><g transform="translate(141.4857798088342 21) rotate(0 24 -1)" stroke="none"><path fill="#f08c00" d="M 0,-2.11 Q 0,-2.11 1.72,-2.10 3.44,-2.09 5.62,-1.98 7.79,-1.88 9.28,-1.93 10.78,-1.98 11.99,-2.04 13.20,-2.11 14.87,-2.11 16.53,-2.11 18.68,-2.00 20.82,-1.90 22.31,-1.95 23.80,-1.99 25.58,-1.98 27.36,-1.97 28.69,-2.03 30.03,-2.09 31.45,-2.13 32.88,-2.16 34.07,-2.22 35.25,-2.27 36.61,-2.30 37.98,-2.33 39.13,-2.37 40.29,-2.41 41.35,-2.46 42.42,-2.50 44.60,-3.49 46.77,-4.47 47.20,-4.61 47.63,-4.74 48.08,-4.72 48.52,-4.71 48.94,-4.55 49.36,-4.40 49.71,-4.12 50.06,-3.84 50.30,-3.46 50.54,-3.08 50.64,-2.65 50.75,-2.21 50.71,-1.77 50.68,-1.32 50.50,-0.91 50.32,-0.50 50.02,-0.17 49.72,0.15 49.33,0.37 48.94,0.59 48.50,0.68 48.06,0.76 47.62,0.70 47.18,0.64 46.78,0.44 46.38,0.24 46.06,-0.07 45.75,-0.39 45.55,-0.79 45.35,-1.19 45.29,-1.63 45.23,-2.08 45.32,-2.52 45.40,-2.95 45.62,-3.34 45.84,-3.73 46.18,-4.03 46.51,-4.33 46.92,-4.50 47.33,-4.68 47.78,-4.71 48.23,-4.75 48.66,-4.64 49.09,-4.53 49.47,-4.29 49.85,-4.05 50.13,-3.70 50.41,-3.35 50.56,-2.93 50.71,-2.51 50.72,-2.06 50.73,-1.61 50.60,-1.19 50.47,-0.76 50.21,-0.40 49.94,-0.03 49.58,0.22 49.22,0.48 49.22,0.47 49.22,0.47 47.74,1.16 46.26,1.85 44.34,2.17 42.42,2.50 41.35,2.46 40.29,2.41 39.13,2.37 37.98,2.33 36.61,2.30 35.25,2.27 34.07,2.22 32.88,2.16 31.45,2.13 30.03,2.09 28.69,2.03 27.36,1.97 25.58,1.98 23.80,1.99 22.31,1.95 20.82,1.90 18.68,2.00 16.53,2.11 14.87,2.11 13.20,2.11 11.99,2.04 10.78,1.98 9.28,1.93 7.79,1.88 5.62,1.98 3.44,2.09 1.72,2.10 0,2.11 -0.25,2.08 -0.50,2.05 -0.74,1.96 -0.98,1.87 -1.19,1.72 -1.40,1.58 -1.57,1.39 -1.74,1.20 -1.85,0.97 -1.97,0.74 -2.03,0.50 -2.09,0.25 -2.09,-0.00 -2.09,-0.25 -2.03,-0.50 -1.97,-0.74 -1.85,-0.97 -1.73,-1.20 -1.57,-1.39 -1.40,-1.58 -1.19,-1.72 -0.98,-1.87 -0.74,-1.96 -0.50,-2.05 -0.25,-2.08 0.00,-2.11 0.00,-2.11 L 0,-2.11 Z"></path></g><g transform="translate(181.4857798088342 10) rotate(0 9.5 9.5)" stroke="none"><path fill="#f08c00" d="M 0.95,-2.38 Q 0.95,-2.38 2.38,-1.78 3.80,-1.18 5.05,-0.64 6.29,-0.10 7.27,0.46 8.25,1.03 9.25,1.43 10.25,1.82 11.38,2.33 12.51,2.84 14.30,3.33 16.10,3.83 17.16,4.36 18.21,4.90 19.72,6.78 21.24,8.66 21.14,9.97 21.04,11.28 19.46,12.99 17.87,14.70 17.03,16.33 16.19,17.96 15.57,19.06 14.95,20.16 14.68,20.60 14.42,21.04 14.03,21.38 13.64,21.71 13.16,21.90 12.69,22.09 12.17,22.12 11.66,22.15 11.17,22.02 10.67,21.88 10.24,21.59 9.82,21.31 9.51,20.90 9.20,20.49 9.03,20.00 8.86,19.52 8.86,19.00 8.86,18.49 9.02,18.00 9.19,17.52 9.50,17.11 9.81,16.70 10.23,16.41 10.65,16.12 11.15,15.98 11.64,15.84 12.16,15.87 12.67,15.89 13.15,16.08 13.62,16.27 14.02,16.60 14.41,16.93 14.67,17.37 14.94,17.81 15.05,18.31 15.16,18.81 15.11,19.33 15.06,19.84 14.84,20.30 14.63,20.77 14.27,21.14 13.92,21.52 13.47,21.76 13.02,22.00 12.51,22.08 12.00,22.17 11.50,22.09 10.99,22.01 10.54,21.77 10.08,21.53 9.73,21.15 9.37,20.78 9.16,20.32 8.94,19.85 8.88,19.34 8.83,18.83 8.93,18.33 9.04,17.83 9.04,17.83 9.04,17.83 10.11,16.01 11.17,14.20 12.00,12.91 12.82,11.63 14.54,11.05 16.26,10.48 15.33,9.76 14.40,9.04 12.34,8.36 10.28,7.67 9.24,7.17 8.20,6.67 6.20,5.60 4.20,4.53 3.07,4.00 1.94,3.48 0.49,2.93 -0.95,2.38 -1.22,2.23 -1.49,2.08 -1.72,1.87 -1.95,1.66 -2.12,1.41 -2.29,1.15 -2.40,0.86 -2.50,0.56 -2.53,0.26 -2.56,-0.04 -2.52,-0.35 -2.48,-0.65 -2.36,-0.94 -2.25,-1.23 -2.07,-1.48 -1.89,-1.73 -1.65,-1.93 -1.42,-2.14 -1.14,-2.27 -0.86,-2.41 -0.56,-2.48 -0.26,-2.55 0.04,-2.55 0.35,-2.54 0.65,-2.46 0.95,-2.38 0.95,-2.38 L 0.95,-2.38 Z"></path></g><g transform="translate(279.4857798088342 335) rotate(0 7.5 28)" stroke="none"><path fill="#1971c2" d="M 1.61,0 Q 1.61,0 1.59,2.01 1.58,4.02 1.54,6.89 1.51,9.76 1.49,11.84 1.47,13.92 1.45,16.53 1.43,19.14 1.41,21.97 1.40,24.81 1.09,28.08 0.79,31.36 0.37,34.20 -0.04,37.05 -0.52,39.69 -0.99,42.34 -1.15,44.27 -1.31,46.21 -1.32,47.88 -1.33,49.55 -1.60,51.27 -1.87,52.98 -1.91,53.97 -1.94,54.95 -2.02,55.16 -2.09,55.38 -2.21,55.57 -2.33,55.76 -2.50,55.92 -2.66,56.08 -2.86,56.19 -3.05,56.31 -3.27,56.37 -3.49,56.43 -3.72,56.44 -3.94,56.45 -4.17,56.41 -4.39,56.36 -4.59,56.26 -4.80,56.17 -4.97,56.02 -5.15,55.88 -5.29,55.70 -5.42,55.52 -5.51,55.31 -5.60,55.10 -5.64,54.87 -5.68,54.65 -5.66,54.42 -5.64,54.20 -5.78,52.60 -5.93,51.01 -5.64,49.12 -5.35,47.22 -4.90,45.30 -4.45,43.38 -3.91,41.16 -3.38,38.94 -2.54,36.97 -1.70,35.00 -0.77,33.50 0.15,31.99 0.84,30.01 1.52,28.03 2.49,27.08 3.46,26.13 5.07,25.42 6.69,24.71 8.64,24.53 10.58,24.36 12.19,24.39 13.81,24.43 15.56,25.13 17.32,25.83 18.51,26.89 19.69,27.95 20.30,28.89 20.90,29.82 21.20,31.40 21.51,32.97 21.60,34.12 21.68,35.27 21.79,36.66 21.89,38.05 21.47,39.87 21.06,41.69 20.01,43.02 18.96,44.35 18.15,45.16 17.34,45.98 16.51,47.00 15.68,48.02 14.48,49.04 13.28,50.06 12.07,51.22 10.87,52.38 9.93,52.91 9.00,53.44 7.50,53.74 6.00,54.05 3.80,53.67 1.59,53.30 0.41,52.37 -0.76,51.45 -2.70,49.12 -4.63,46.79 -4.85,46.33 -5.07,45.86 -5.12,45.34 -5.18,44.83 -5.07,44.33 -4.96,43.82 -4.70,43.38 -4.43,42.94 -4.04,42.60 -3.65,42.27 -3.17,42.08 -2.69,41.88 -2.17,41.85 -1.66,41.82 -1.16,41.96 -0.66,42.10 -0.24,42.38 0.18,42.67 0.49,43.08 0.81,43.49 0.97,43.98 1.14,44.47 1.14,44.99 1.14,45.50 0.98,45.99 0.82,46.48 0.51,46.89 0.19,47.30 -0.22,47.59 -0.65,47.89 -1.14,48.02 -1.64,48.16 -2.16,48.14 -2.67,48.11 -3.15,47.92 -3.63,47.73 -4.03,47.40 -4.42,47.07 -4.69,46.63 -4.95,46.18 -5.07,45.68 -5.18,45.18 -5.12,44.66 -5.07,44.15 -4.85,43.68 -4.64,43.21 -4.29,42.84 -3.93,42.46 -3.48,42.22 -3.02,41.98 -2.51,41.89 -2.00,41.81 -1.49,41.89 -0.99,41.97 -0.53,42.21 -0.07,42.45 0.27,42.82 0.63,43.20 0.63,43.20 0.63,43.20 1.94,44.89 3.25,46.59 4.36,47.20 5.48,47.81 6.76,47.34 8.05,46.88 9.51,45.65 10.98,44.43 12.69,42.29 14.39,40.15 15.23,39.16 16.07,38.16 16.09,36.88 16.12,35.60 16.01,33.61 15.90,31.62 14.76,30.60 13.63,29.58 11.29,29.62 8.95,29.65 7.61,29.67 6.27,29.69 5.28,30.51 4.30,31.32 3.73,32.65 3.17,33.97 2.29,35.16 1.42,36.35 0.72,38.00 0.02,39.66 -0.35,41.92 -0.74,44.18 -1.10,46.01 -1.46,47.85 -1.72,49.40 -1.99,50.95 -1.97,52.95 -1.94,54.95 -2.02,55.16 -2.09,55.38 -2.21,55.57 -2.33,55.76 -2.49,55.92 -2.66,56.08 -2.86,56.19 -3.05,56.31 -3.27,56.37 -3.49,56.43 -3.72,56.44 -3.94,56.45 -4.17,56.41 -4.39,56.36 -4.59,56.26 -4.80,56.17 -4.97,56.02 -5.15,55.88 -5.29,55.70 -5.42,55.52 -5.51,55.31 -5.60,55.10 -5.64,54.87 -5.68,54.65 -5.66,54.42 -5.64,54.20 -5.40,53.26 -5.17,52.31 -4.79,50.86 -4.41,49.40 -4.26,47.66 -4.10,45.93 -3.87,43.90 -3.64,41.88 -3.19,39.26 -2.73,36.65 -2.34,33.88 -1.94,31.12 -1.67,27.96 -1.40,24.81 -1.41,21.97 -1.43,19.14 -1.45,16.53 -1.47,13.92 -1.49,11.84 -1.51,9.76 -1.54,6.89 -1.58,4.02 -1.59,2.01 -1.61,0 -1.58,-0.19 -1.56,-0.38 -1.49,-0.56 -1.42,-0.74 -1.31,-0.90 -1.20,-1.06 -1.05,-1.19 -0.91,-1.32 -0.74,-1.41 -0.57,-1.50 -0.38,-1.55 -0.19,-1.59 0.00,-1.59 0.19,-1.59 0.38,-1.55 0.57,-1.50 0.74,-1.41 0.91,-1.32 1.06,-1.19 1.20,-1.06 1.31,-0.90 1.42,-0.74 1.49,-0.56 1.56,-0.38 1.58,-0.19 1.61,0.00 1.61,0.00 L 1.61,0 Z"></path></g><g transform="translate(270.4857798088342 332) rotate(0 18.5 -4)" stroke="none"><path fill="#1971c2" d="M -0.73,-1.96 Q -0.73,-1.96 1.60,-2.73 3.93,-3.49 5.92,-3.88 7.91,-4.27 9.83,-4.68 11.74,-5.08 14.03,-5.50 16.31,-5.91 18.42,-6.35 20.52,-6.79 21.90,-7.34 23.28,-7.89 24.58,-8.22 25.89,-8.55 28.02,-8.84 30.15,-9.13 31.87,-9.27 33.60,-9.42 34.93,-9.92 36.26,-10.43 36.67,-10.48 37.08,-10.54 37.48,-10.46 37.88,-10.38 38.24,-10.17 38.60,-9.97 38.87,-9.66 39.14,-9.35 39.31,-8.97 39.47,-8.60 39.50,-8.19 39.53,-7.78 39.43,-7.38 39.33,-6.98 39.10,-6.63 38.88,-6.29 38.56,-6.03 38.23,-5.77 37.85,-5.63 37.46,-5.49 37.05,-5.49 36.64,-5.48 36.25,-5.60 35.85,-5.72 35.52,-5.96 35.19,-6.21 34.95,-6.54 34.71,-6.88 34.59,-7.27 34.47,-7.67 34.49,-8.08 34.50,-8.49 34.64,-8.87 34.79,-9.26 35.05,-9.58 35.31,-9.90 35.65,-10.12 36.00,-10.34 36.40,-10.43 36.80,-10.53 37.21,-10.50 37.62,-10.46 38.00,-10.29 38.38,-10.13 38.68,-9.85 38.99,-9.58 39.19,-9.22 39.39,-8.86 39.46,-8.45 39.54,-8.05 39.48,-7.64 39.42,-7.24 39.24,-6.87 39.05,-6.50 38.76,-6.21 38.47,-5.92 38.10,-5.74 37.73,-5.56 37.73,-5.56 37.73,-5.56 35.71,-5.06 33.69,-4.55 31.99,-4.65 30.29,-4.75 28.42,-4.78 26.55,-4.82 25.46,-4.73 24.36,-4.64 22.80,-4.19 21.23,-3.75 19.11,-3.21 17.00,-2.67 14.77,-2.14 12.54,-1.60 10.59,-1.12 8.64,-0.63 6.95,-0.29 5.26,0.04 2.99,1.00 0.73,1.96 0.49,2.02 0.24,2.08 -0.00,2.08 -0.26,2.08 -0.50,2.02 -0.75,1.96 -0.97,1.84 -1.19,1.72 -1.38,1.55 -1.57,1.38 -1.72,1.17 -1.86,0.96 -1.95,0.73 -2.04,0.49 -2.07,0.24 -2.10,-0.00 -2.06,-0.25 -2.03,-0.51 -1.94,-0.74 -1.85,-0.98 -1.71,-1.19 -1.56,-1.39 -1.37,-1.56 -1.18,-1.73 -0.96,-1.84 -0.73,-1.96 -0.73,-1.96 L -0.73,-1.96 Z"></path></g><g transform="translate(301.4857798088342 316) rotate(0 4.5 10.5)" stroke="none"><path fill="#1971c2" d="M 0.95,-2.38 Q 0.95,-2.38 2.38,-1.77 3.81,-1.17 4.90,-0.59 5.98,-0.01 7.38,0.53 8.78,1.07 10.43,2.29 12.08,3.51 12.08,5.31 12.07,7.11 11.22,8.60 10.37,10.09 9.39,11.22 8.42,12.36 7.50,13.52 6.58,14.69 5.98,15.87 5.37,17.06 4.39,18.60 3.42,20.13 2.10,21.51 0.79,22.89 0.44,23.12 0.09,23.36 -0.31,23.47 -0.71,23.58 -1.13,23.56 -1.55,23.54 -1.95,23.38 -2.34,23.23 -2.66,22.95 -2.98,22.68 -3.20,22.32 -3.41,21.96 -3.50,21.55 -3.60,21.14 -3.55,20.72 -3.50,20.30 -3.33,19.92 -3.15,19.53 -2.86,19.23 -2.57,18.92 -2.20,18.72 -1.83,18.53 -1.41,18.46 -0.99,18.39 -0.58,18.46 -0.16,18.53 0.20,18.72 0.57,18.92 0.86,19.23 1.15,19.53 1.33,19.92 1.50,20.30 1.55,20.72 1.60,21.14 1.50,21.55 1.41,21.96 1.20,22.32 0.98,22.68 0.66,22.95 0.34,23.23 -0.04,23.38 -0.44,23.54 -0.86,23.56 -1.28,23.58 -1.68,23.47 -2.09,23.36 -2.44,23.12 -2.79,22.89 -3.04,22.55 -3.30,22.21 -3.43,21.82 -3.57,21.42 -3.56,20.99 -3.56,20.57 -3.43,20.17 -3.30,19.77 -3.04,19.44 -2.79,19.10 -2.79,19.10 -2.79,19.10 -1.82,18.32 -0.85,17.53 -0.10,16.15 0.64,14.76 1.41,13.13 2.18,11.50 3.14,10.09 4.09,8.68 4.82,7.81 5.55,6.94 6.87,6.63 8.20,6.32 6.77,5.94 5.34,5.57 3.64,4.52 1.93,3.47 0.49,2.92 -0.95,2.38 -1.22,2.23 -1.49,2.08 -1.72,1.87 -1.94,1.66 -2.12,1.40 -2.29,1.15 -2.39,0.85 -2.50,0.56 -2.53,0.26 -2.56,-0.04 -2.52,-0.35 -2.47,-0.65 -2.36,-0.94 -2.24,-1.23 -2.06,-1.48 -1.88,-1.73 -1.65,-1.93 -1.41,-2.13 -1.14,-2.27 -0.86,-2.41 -0.56,-2.48 -0.26,-2.55 0.04,-2.54 0.35,-2.53 0.65,-2.45 0.95,-2.38 0.95,-2.38 L 0.95,-2.38 Z"></path></g><g transform="translate(261.4857798088342 334) rotate(0 7 -3.5)" stroke="none"><path fill="#1971c2" d="M -1.16,-2.32 Q -1.16,-2.32 -0.01,-2.90 1.13,-3.48 2.18,-4.03 3.24,-4.58 4.26,-5.11 5.27,-5.64 6.79,-6.66 8.30,-7.68 10.80,-8.75 13.29,-9.82 13.76,-9.86 14.23,-9.90 14.69,-9.79 15.15,-9.67 15.54,-9.42 15.94,-9.16 16.24,-8.80 16.53,-8.43 16.70,-7.99 16.86,-7.54 16.87,-7.07 16.88,-6.60 16.74,-6.15 16.61,-5.70 16.33,-5.32 16.06,-4.93 15.67,-4.66 15.29,-4.38 14.84,-4.25 14.39,-4.11 13.92,-4.12 13.45,-4.13 13.00,-4.30 12.56,-4.46 12.19,-4.75 11.82,-5.05 11.57,-5.45 11.32,-5.84 11.20,-6.30 11.09,-6.76 11.13,-7.23 11.17,-7.70 11.35,-8.13 11.54,-8.57 11.85,-8.92 12.17,-9.27 12.58,-9.50 12.99,-9.73 13.45,-9.82 13.92,-9.91 14.38,-9.84 14.85,-9.78 15.27,-9.57 15.70,-9.36 16.03,-9.03 16.36,-8.69 16.57,-8.27 16.78,-7.85 16.85,-7.38 16.91,-6.92 16.82,-6.45 16.73,-5.99 16.50,-5.58 16.27,-5.17 15.92,-4.85 15.56,-4.54 15.13,-4.35 14.70,-4.17 14.70,-4.17 14.70,-4.17 13.68,-4.05 12.65,-3.94 11.08,-2.96 9.50,-1.99 8.59,-1.41 7.68,-0.84 6.64,-0.34 5.61,0.15 4.54,0.67 3.46,1.18 2.31,1.75 1.16,2.32 0.86,2.42 0.57,2.53 0.26,2.56 -0.05,2.59 -0.36,2.55 -0.67,2.51 -0.96,2.39 -1.25,2.27 -1.50,2.09 -1.76,1.91 -1.96,1.67 -2.16,1.43 -2.30,1.15 -2.44,0.87 -2.51,0.56 -2.58,0.26 -2.57,-0.05 -2.57,-0.36 -2.49,-0.66 -2.41,-0.96 -2.25,-1.24 -2.10,-1.51 -1.89,-1.74 -1.68,-1.97 -1.42,-2.15 -1.16,-2.32 -1.16,-2.32 L -1.16,-2.32 Z"></path></g><g transform="translate(237.4857798088342 212) rotate(0 -4 16.5)" stroke="none"><path fill="#e03131" d="M 0.82,2.06 Q 0.82,2.06 -0.60,2.63 -2.03,3.21 -2.98,3.93 -3.94,4.65 -4.83,5.68 -5.72,6.71 -7.09,8.24 -8.47,9.78 -10.00,11.34 -11.53,12.89 -12.31,14.28 -13.08,15.67 -13.72,16.72 -14.36,17.77 -14.93,19.10 -15.49,20.44 -15.83,21.63 -16.16,22.82 -16.20,24.26 -16.23,25.70 -15.69,26.64 -15.15,27.57 -14.19,28.19 -13.22,28.81 -11.69,29.28 -10.16,29.74 -8.94,29.82 -7.73,29.89 -5.88,29.97 -4.04,30.04 -2.24,28.64 -0.45,27.24 1.00,26.27 2.46,25.31 4.32,23.93 6.17,22.56 7.66,21.24 9.15,19.92 9.53,19.67 9.91,19.43 10.34,19.33 10.78,19.22 11.23,19.26 11.68,19.30 12.09,19.48 12.50,19.66 12.84,19.96 13.17,20.26 13.39,20.65 13.61,21.05 13.69,21.49 13.78,21.93 13.71,22.38 13.65,22.82 13.45,23.23 13.25,23.63 12.93,23.95 12.61,24.26 12.20,24.46 11.80,24.66 11.35,24.72 10.91,24.78 10.46,24.69 10.02,24.60 9.63,24.38 9.24,24.16 8.94,23.82 8.64,23.48 8.47,23.07 8.29,22.65 8.26,22.20 8.22,21.76 8.33,21.32 8.44,20.88 8.69,20.50 8.93,20.13 9.28,19.85 9.64,19.57 10.06,19.41 10.48,19.26 10.93,19.25 11.38,19.24 11.81,19.37 12.24,19.51 12.61,19.77 12.97,20.04 13.23,20.40 13.49,20.77 13.62,21.20 13.75,21.63 13.74,22.08 13.73,22.53 13.57,22.95 13.41,23.38 13.13,23.73 12.84,24.08 12.84,24.08 12.84,24.07 10.12,26.09 7.40,28.10 6.46,28.83 5.52,29.56 4.26,30.55 3.00,31.53 1.72,32.60 0.44,33.68 -1.57,34.79 -3.59,35.91 -4.98,35.96 -6.37,36.00 -8.11,35.85 -9.85,35.71 -11.11,35.45 -12.37,35.20 -13.89,34.64 -15.41,34.08 -16.76,33.34 -18.12,32.61 -19.07,31.47 -20.01,30.33 -20.51,29.29 -21.01,28.26 -21.29,26.85 -21.56,25.43 -21.45,24.32 -21.34,23.21 -21.05,22.00 -20.76,20.80 -20.03,19.32 -19.29,17.84 -18.47,16.64 -17.66,15.45 -16.96,14.63 -16.27,13.80 -15.26,12.13 -14.25,10.45 -12.93,8.87 -11.61,7.29 -10.35,5.50 -9.08,3.70 -7.82,2.31 -6.55,0.92 -5.13,0.00 -3.71,-0.91 -2.27,-1.48 -0.82,-2.06 -0.56,-2.12 -0.30,-2.19 -0.03,-2.20 0.22,-2.20 0.48,-2.14 0.74,-2.08 0.98,-1.96 1.22,-1.84 1.43,-1.67 1.63,-1.50 1.79,-1.28 1.94,-1.06 2.04,-0.81 2.14,-0.56 2.18,-0.30 2.21,-0.03 2.19,0.22 2.16,0.49 2.07,0.74 1.98,0.99 1.83,1.21 1.68,1.44 1.49,1.62 1.29,1.80 1.05,1.93 0.82,2.06 0.82,2.06 L 0.82,2.06 Z"></path></g><g transform="translate(211.4857798088342 219) rotate(0 26 -8)" stroke="none"><path fill="#e03131" d="M -0.22,-1.58 Q -0.22,-1.58 1.78,-1.85 3.79,-2.12 5.32,-2.80 6.85,-3.47 9.12,-4.04 11.39,-4.62 13.39,-5.38 15.39,-6.15 17.71,-7.05 20.04,-7.96 22.47,-8.91 24.89,-9.86 27.68,-10.85 30.46,-11.83 33.06,-12.81 35.66,-13.80 37.64,-14.51 39.62,-15.23 40.77,-15.67 41.92,-16.10 43.38,-16.35 44.84,-16.59 46.69,-16.84 48.53,-17.10 49.93,-17.64 51.33,-18.18 51.70,-18.22 52.06,-18.27 52.42,-18.20 52.78,-18.13 53.11,-17.95 53.43,-17.77 53.67,-17.49 53.92,-17.22 54.06,-16.88 54.21,-16.54 54.24,-16.17 54.27,-15.81 54.18,-15.45 54.09,-15.09 53.89,-14.78 53.69,-14.47 53.40,-14.24 53.11,-14.01 52.77,-13.88 52.42,-13.76 52.05,-13.75 51.68,-13.74 51.33,-13.85 50.98,-13.95 50.68,-14.17 50.38,-14.39 50.17,-14.69 49.95,-14.99 49.84,-15.34 49.74,-15.69 49.75,-16.06 49.76,-16.43 49.88,-16.77 50.01,-17.12 50.24,-17.41 50.48,-17.69 50.79,-17.89 51.10,-18.09 51.46,-18.18 51.81,-18.27 52.18,-18.24 52.55,-18.21 52.89,-18.06 53.23,-17.91 53.50,-17.67 53.77,-17.42 53.96,-17.10 54.14,-16.78 54.21,-16.41 54.27,-16.05 54.22,-15.69 54.17,-15.32 54.01,-14.99 53.84,-14.66 53.58,-14.40 53.32,-14.14 52.99,-13.98 52.66,-13.81 52.66,-13.81 52.66,-13.81 50.67,-13.32 48.68,-12.82 46.93,-12.92 45.18,-13.02 43.96,-13.01 42.74,-12.99 41.64,-12.83 40.54,-12.66 38.58,-11.96 36.62,-11.26 34.01,-10.25 31.39,-9.24 28.66,-8.25 25.93,-7.26 23.52,-6.28 21.10,-5.30 18.79,-4.35 16.48,-3.41 14.34,-2.53 12.19,-1.65 10.13,-1.05 8.06,-0.46 6.16,0.25 4.25,0.97 2.24,1.28 0.22,1.58 0.03,1.59 -0.15,1.59 -0.34,1.55 -0.53,1.51 -0.70,1.42 -0.88,1.33 -1.03,1.21 -1.17,1.08 -1.29,0.93 -1.40,0.77 -1.47,0.59 -1.54,0.41 -1.57,0.22 -1.60,0.03 -1.58,-0.15 -1.56,-0.35 -1.49,-0.53 -1.43,-0.71 -1.32,-0.87 -1.22,-1.03 -1.08,-1.16 -0.93,-1.30 -0.76,-1.39 -0.59,-1.48 -0.41,-1.53 -0.22,-1.58 -0.22,-1.58 L -0.22,-1.58 Z"></path></g><g transform="translate(258.4857798088342 196) rotate(0 8.5 10)" stroke="none"><path fill="#e03131" d="M 0,-2.51 Q 0,-2.51 2.01,-2.38 4.02,-2.26 5.74,-2.23 7.46,-2.21 9.48,-2.32 11.51,-2.43 12.81,-2.53 14.12,-2.63 15.61,-2.49 17.10,-2.35 18.10,-0.95 19.10,0.44 19.00,1.54 18.90,2.65 17.88,3.98 16.87,5.32 15.60,6.63 14.33,7.94 13.13,9.29 11.94,10.63 10.65,11.84 9.36,13.04 8.42,13.92 7.49,14.79 6.59,15.85 5.70,16.91 4.96,17.78 4.23,18.66 3.35,20.11 2.48,21.57 2.16,21.92 1.85,22.28 1.43,22.51 1.02,22.75 0.55,22.84 0.09,22.93 -0.37,22.87 -0.85,22.81 -1.27,22.60 -1.70,22.39 -2.04,22.05 -2.37,21.72 -2.59,21.29 -2.80,20.87 -2.87,20.40 -2.93,19.93 -2.84,19.46 -2.76,18.99 -2.52,18.58 -2.29,18.16 -1.94,17.84 -1.59,17.53 -1.15,17.34 -0.72,17.15 -0.24,17.11 0.22,17.07 0.68,17.18 1.15,17.29 1.55,17.55 1.95,17.80 2.25,18.17 2.55,18.54 2.71,18.98 2.88,19.43 2.89,19.90 2.91,20.38 2.77,20.84 2.63,21.29 2.36,21.68 2.08,22.06 1.70,22.34 1.31,22.62 0.86,22.76 0.40,22.90 -0.06,22.89 -0.54,22.88 -0.98,22.72 -1.43,22.56 -1.80,22.26 -2.17,21.97 -2.43,21.57 -2.69,21.17 -2.81,20.71 -2.92,20.24 -2.89,19.77 -2.85,19.30 -2.66,18.86 -2.48,18.42 -2.48,18.42 -2.48,18.42 -0.66,15.90 1.15,13.39 2.20,11.94 3.24,10.50 4.16,9.55 5.07,8.59 5.94,7.74 6.80,6.88 7.82,6.21 8.84,5.54 9.40,4.63 9.96,3.73 10.73,2.93 11.50,2.14 12.59,1.14 13.67,0.13 13.89,1.38 14.12,2.63 12.81,2.53 11.51,2.43 9.48,2.32 7.46,2.21 5.74,2.23 4.02,2.26 2.01,2.38 0,2.51 -0.30,2.47 -0.60,2.43 -0.88,2.33 -1.16,2.22 -1.41,2.05 -1.66,1.87 -1.86,1.65 -2.06,1.42 -2.20,1.15 -2.34,0.89 -2.42,0.59 -2.49,0.30 -2.49,-0.00 -2.49,-0.30 -2.42,-0.59 -2.34,-0.89 -2.20,-1.15 -2.06,-1.42 -1.86,-1.65 -1.66,-1.87 -1.41,-2.05 -1.16,-2.22 -0.88,-2.33 -0.60,-2.43 -0.30,-2.47 0.00,-2.51 0.00,-2.51 L 0,-2.51 Z"></path></g></svg>