<svg version="1.1" xmlns="http://www.w3.org/2000/svg" viewBox="0 0 385 396" width="385" height="396" class="excalidraw-svg"><!-- svg-source:excalidraw --><metadata></metadata><defs><style class="style-fonts">
      </style></defs><rect x="0" y="0" width="385" height="396" fill="#ffffff"></rect><g stroke-linecap="round" transform="translate(10 71) rotate(0 157.5 157.5)"><path d="M208.44 7.5 C222.89 9.87, 236.62 20.94, 249.15 30.31 C261.67 39.67, 274.08 51.45, 283.58 63.7 C293.07 75.94, 300.93 89.29, 306.13 103.76 C311.34 118.23, 314.02 135.02, 314.8 150.51 C315.57 166.01, 314.57 181.68, 310.8 196.71 C307.03 211.75, 300.43 227.62, 292.18 240.74 C283.93 253.87, 272.97 265.41, 261.29 275.45 C249.6 285.5, 236.05 294.65, 222.07 301.03 C208.09 307.42, 192.72 311.81, 177.41 313.76 C162.11 315.71, 145.7 315.29, 130.26 312.74 C114.82 310.19, 98.58 305.7, 84.79 298.46 C71.01 291.23, 58.59 280.4, 47.56 269.33 C36.53 258.25, 26.09 245.61, 18.61 232.01 C11.13 218.42, 5.7 202.99, 2.7 187.75 C-0.31 172.5, -1.04 155.94, 0.56 140.52 C2.17 125.11, 6.26 109.36, 12.31 95.26 C18.37 81.16, 27 67.52, 36.89 55.91 C46.78 44.3, 58.45 34.12, 71.66 25.61 C84.87 17.11, 101.12 9.18, 116.14 4.89 C131.15 0.59, 144.27 -1.63, 161.72 -0.14 C179.17 1.36, 208.93 10.05, 220.84 13.84 C232.76 17.62, 234.32 20.2, 233.22 22.57 M154.18 -1.08 C168.46 -3.83, 185.58 0.88, 200.33 5.19 C215.09 9.49, 229.4 16.33, 242.71 24.76 C256.03 33.19, 270.31 43.61, 280.24 55.76 C290.16 67.92, 296.7 83.34, 302.26 97.68 C307.82 112.02, 312.06 126.61, 313.6 141.8 C315.14 156.98, 314.52 173.53, 311.49 188.79 C308.46 204.05, 302.69 219.86, 295.41 233.36 C288.12 246.86, 278.91 259.08, 267.79 269.79 C256.68 280.5, 242.45 290.55, 228.7 297.61 C214.95 304.66, 200.52 309.57, 185.29 312.1 C170.06 314.63, 152.78 314.84, 137.3 312.78 C121.83 310.72, 106.7 305.88, 92.44 299.75 C78.18 293.61, 63.48 286.36, 51.74 275.96 C40 265.56, 29.93 250.7, 22 237.37 C14.08 224.04, 7.87 210.73, 4.19 195.97 C0.52 181.2, -0.88 164.15, -0.04 148.77 C0.81 133.39, 4.09 118.4, 9.28 103.68 C14.47 88.96, 21.45 72.65, 31.12 60.45 C40.79 48.24, 54.42 39.07, 67.31 30.46 C80.19 21.84, 93.67 13.82, 108.42 8.73 C123.18 3.63, 148.03 0.96, 155.85 -0.11 C163.67 -1.19, 155.71 -0.25, 155.35 2.28" stroke="#1e1e1e" stroke-width="2" fill="none"></path></g><g stroke-linecap="round"><g transform="translate(164 231) rotate(0 78.42558947205542 -14.670594412088393)"><path d="M-0.58 0.41 C25.46 -4.39, 131.03 -24.74, 157.43 -29.75 M1.31 -0.42 C27.04 -5, 130.24 -23.9, 156.19 -28.61" stroke="#1e1e1e" stroke-width="2" fill="none"></path></g></g><mask></mask><g stroke-linecap="round"><g transform="translate(163 233) rotate(0 14.400480099553242 -79.27608204483985)"><path d="M0.15 -0.3 C4.71 -26.7, 23.16 -131.9, 27.9 -158.25 M-1.24 -1.5 C3.63 -27.73, 25.23 -130.88, 30.04 -156.85" stroke="#1e1e1e" stroke-width="2" fill="none"></path></g></g><mask></mask><g transform="translate(358 183) rotate(0 -5 22)" stroke="none"><path fill="#1e1e1e" d="M 4.88,1.33 Q 4.88,1.33 3.94,4.47 3.00,7.61 2.37,10.31 1.74,13.01 1.23,15.37 0.72,17.73 0.19,20.57 -0.33,23.41 -0.81,25.93 -1.30,28.45 -1.75,30.69 -2.21,32.94 -2.26,36.09 -2.30,39.23 -3.57,43.01 -4.83,46.78 -5.41,47.54 -5.99,48.29 -6.78,48.81 -7.57,49.34 -8.49,49.59 -9.41,49.83 -10.35,49.78 -11.30,49.72 -12.18,49.36 -13.06,49.00 -13.78,48.38 -14.50,47.76 -14.98,46.94 -15.46,46.12 -15.66,45.20 -15.86,44.27 -15.75,43.32 -15.64,42.38 -15.23,41.52 -14.83,40.66 -14.17,39.98 -13.51,39.30 -12.67,38.86 -11.82,38.42 -10.89,38.27 -9.95,38.13 -9.01,38.29 -8.08,38.45 -7.24,38.90 -6.41,39.35 -5.76,40.05 -5.11,40.74 -4.72,41.61 -4.33,42.47 -4.23,43.41 -4.14,44.36 -4.35,45.28 -4.56,46.21 -5.06,47.02 -5.55,47.83 -6.28,48.44 -7.01,49.05 -7.89,49.39 -8.78,49.74 -9.73,49.78 -10.68,49.82 -11.59,49.56 -12.50,49.30 -13.28,48.76 -14.06,48.22 -14.63,47.46 -15.20,46.70 -15.50,45.80 -15.79,44.90 -15.79,43.95 -15.78,43.00 -15.47,42.10 -15.16,41.20 -15.16,41.21 -15.16,41.21 -14.25,38.57 -13.34,35.92 -12.81,33.26 -12.29,30.60 -11.73,28.49 -11.18,26.37 -10.64,24.03 -10.10,21.70 -9.57,18.53 -9.05,15.36 -8.43,13.06 -7.81,10.76 -7.13,7.89 -6.45,5.03 -5.66,1.85 -4.88,-1.33 -4.65,-1.89 -4.42,-2.46 -4.06,-2.95 -3.70,-3.44 -3.23,-3.84 -2.77,-4.23 -2.22,-4.50 -1.67,-4.77 -1.08,-4.90 -0.48,-5.03 0.12,-5.02 0.73,-5.00 1.32,-4.84 1.91,-4.68 2.44,-4.38 2.97,-4.09 3.42,-3.67 3.86,-3.26 4.20,-2.75 4.53,-2.24 4.73,-1.66 4.94,-1.08 4.99,-0.48 5.05,0.12 4.96,0.72 4.88,1.33 4.88,1.33 L 4.88,1.33 Z"></path></g><g transform="translate(358 180) rotate(0 8.5 25.5)" stroke="none"><path fill="#1e1e1e" d="M 4.53,-2.26 Q 4.53,-2.26 5.71,0.01 6.88,2.30 7.98,4.41 9.09,6.52 10.00,8.84 10.91,11.16 12.21,15.67 13.52,20.18 14.23,22.79 14.95,25.40 15.80,27.89 16.65,30.37 17.70,32.51 18.75,34.64 19.63,36.88 20.51,39.12 20.76,41.44 21.01,43.76 22.11,47.19 23.21,50.62 23.27,51.65 23.32,52.68 23.05,53.67 22.77,54.66 22.20,55.52 21.62,56.37 20.80,56.99 19.98,57.62 19.00,57.95 18.03,58.28 17.00,58.28 15.97,58.28 14.99,57.95 14.02,57.62 13.20,57.00 12.38,56.37 11.80,55.52 11.22,54.67 10.94,53.68 10.67,52.69 10.72,51.66 10.78,50.63 11.16,49.67 11.54,48.72 12.21,47.93 12.87,47.15 13.75,46.61 14.64,46.08 15.64,45.86 16.65,45.64 17.67,45.75 18.70,45.86 19.63,46.29 20.57,46.73 21.31,47.43 22.06,48.14 22.54,49.05 23.03,49.96 23.19,50.98 23.36,51.99 23.19,53.01 23.03,54.03 22.55,54.94 22.06,55.85 21.32,56.55 20.57,57.26 19.63,57.70 18.70,58.13 17.68,58.24 16.65,58.35 15.65,58.13 14.64,57.91 13.76,57.38 12.88,56.85 12.21,56.06 11.54,55.28 11.16,54.32 10.78,53.36 10.78,53.37 10.78,53.37 10.43,52.36 10.09,51.35 9.49,48.23 8.89,45.11 9.21,42.99 9.54,40.87 8.09,37.38 6.63,33.89 5.64,31.14 4.66,28.39 3.76,25.46 2.87,22.53 2.41,20.37 1.95,18.21 0.85,14.69 -0.23,11.18 -1.26,9.03 -2.28,6.89 -3.41,4.58 -4.53,2.26 -4.74,1.69 -4.95,1.11 -5.01,0.50 -5.07,-0.09 -4.98,-0.70 -4.90,-1.31 -4.67,-1.87 -4.44,-2.44 -4.08,-2.94 -3.73,-3.43 -3.26,-3.83 -2.80,-4.23 -2.25,-4.50 -1.70,-4.78 -1.10,-4.91 -0.51,-5.04 0.09,-5.03 0.71,-5.02 1.30,-4.86 1.89,-4.70 2.42,-4.41 2.96,-4.11 3.41,-3.70 3.86,-3.28 4.20,-2.77 4.53,-2.26 4.53,-2.26 L 4.53,-2.26 Z"></path></g><g transform="translate(353 216) rotate(0 8 0)" stroke="none"><path fill="#1e1e1e" d="M 0,-5.20 Q 0,-5.20 2.01,-5.26 4.02,-5.33 6.84,-5.53 9.66,-5.73 12.83,-5.86 16,-5.99 16.95,-5.83 17.91,-5.67 18.76,-5.22 19.62,-4.76 20.29,-4.06 20.95,-3.36 21.36,-2.48 21.77,-1.60 21.87,-0.63 21.98,0.32 21.77,1.27 21.56,2.21 21.06,3.04 20.56,3.87 19.82,4.50 19.08,5.13 18.18,5.49 17.28,5.85 16.31,5.90 15.35,5.95 14.41,5.69 13.48,5.43 12.68,4.89 11.87,4.34 11.29,3.57 10.70,2.80 10.39,1.88 10.08,0.96 10.08,-0.00 10.08,-0.97 10.39,-1.88 10.70,-2.80 11.29,-3.57 11.88,-4.35 12.68,-4.89 13.48,-5.43 14.41,-5.69 15.35,-5.95 16.32,-5.90 17.28,-5.85 18.18,-5.49 19.09,-5.13 19.82,-4.50 20.56,-3.87 21.06,-3.04 21.56,-2.21 21.77,-1.26 21.98,-0.32 21.87,0.64 21.77,1.60 21.36,2.48 20.95,3.36 20.29,4.06 19.62,4.77 18.76,5.22 17.91,5.67 16.95,5.83 15.99,5.99 15.99,5.99 16,5.99 12.83,5.86 9.66,5.73 6.84,5.53 4.02,5.33 2.01,5.26 0,5.20 -0.62,5.12 -1.24,5.04 -1.83,4.82 -2.41,4.60 -2.93,4.24 -3.44,3.89 -3.86,3.42 -4.28,2.95 -4.57,2.39 -4.86,1.84 -5.01,1.23 -5.16,0.62 -5.16,-0.00 -5.16,-0.62 -5.01,-1.23 -4.86,-1.84 -4.57,-2.39 -4.27,-2.95 -3.86,-3.42 -3.44,-3.89 -2.93,-4.24 -2.41,-4.60 -1.83,-4.82 -1.24,-5.04 -0.62,-5.12 0.00,-5.20 0.00,-5.20 L 0,-5.20 Z"></path></g><g transform="translate(184 10) rotate(0 0 20.5)" stroke="none"><path fill="#1e1e1e" d="M 4.69,0 Q 4.69,0 4.42,4.31 4.15,8.62 4.05,12.47 3.95,16.31 3.97,19.67 3.99,23.03 4.12,25.61 4.24,28.18 4.36,30.43 4.49,32.68 4.69,36.84 4.90,41 4.77,41.78 4.64,42.56 4.27,43.26 3.90,43.96 3.32,44.51 2.75,45.06 2.03,45.39 1.31,45.72 0.52,45.81 -0.26,45.89 -1.04,45.72 -1.81,45.55 -2.49,45.14 -3.17,44.73 -3.69,44.13 -4.20,43.52 -4.49,42.79 -4.79,42.05 -4.83,41.26 -4.87,40.46 -4.66,39.70 -4.45,38.93 -4.00,38.28 -3.56,37.62 -2.92,37.14 -2.29,36.66 -1.54,36.41 -0.79,36.15 0.00,36.15 0.79,36.15 1.54,36.41 2.29,36.66 2.93,37.14 3.56,37.62 4.00,38.28 4.45,38.94 4.66,39.70 4.87,40.47 4.83,41.26 4.79,42.05 4.49,42.79 4.20,43.53 3.68,44.13 3.17,44.74 2.49,45.14 1.81,45.55 1.03,45.72 0.26,45.89 -0.52,45.81 -1.31,45.72 -2.03,45.39 -2.75,45.06 -3.33,44.51 -3.90,43.96 -4.27,43.26 -4.64,42.56 -4.77,41.78 -4.90,40.99 -4.90,40.99 -4.90,41 -4.69,36.84 -4.49,32.68 -4.36,30.43 -4.24,28.18 -4.12,25.61 -3.99,23.03 -3.97,19.67 -3.95,16.31 -4.05,12.47 -4.15,8.62 -4.42,4.31 -4.69,0 -4.62,-0.56 -4.55,-1.12 -4.35,-1.65 -4.15,-2.18 -3.83,-2.64 -3.51,-3.11 -3.08,-3.48 -2.66,-3.86 -2.16,-4.12 -1.66,-4.38 -1.11,-4.52 -0.56,-4.65 0.00,-4.65 0.56,-4.65 1.11,-4.52 1.66,-4.38 2.16,-4.12 2.66,-3.86 3.08,-3.48 3.51,-3.11 3.83,-2.64 4.15,-2.17 4.35,-1.65 4.55,-1.12 4.62,-0.56 4.69,0.00 4.69,0.00 L 4.69,0 Z"></path></g><g transform="translate(186 10) rotate(0 10.5 23)" stroke="none"><path fill="#1e1e1e" d="M 0,-5.19 Q 0,-5.19 2.58,-5.21 5.17,-5.22 7.72,-5.38 10.27,-5.54 13.17,-4.71 16.06,-3.88 18.38,-1.47 20.70,0.93 21.37,4.30 22.04,7.67 21.80,11.52 21.56,15.37 20.98,17.90 20.39,20.43 19.05,23.50 17.71,26.56 15.07,28.71 12.43,30.86 9.37,31.35 6.31,31.83 4.14,31.90 1.96,31.96 1.40,31.98 0.84,31.99 0.00,31.89 -0.83,31.79 -1.62,31.49 -2.40,31.20 -3.10,30.72 -3.79,30.24 -4.36,29.61 -4.92,28.98 -5.31,28.23 -5.70,27.49 -5.91,26.67 -6.11,25.85 -6.11,25.01 -6.11,24.16 -5.91,23.35 -5.71,22.53 -5.32,21.78 -4.93,21.03 -4.37,20.40 -3.82,19.77 -3.12,19.29 -2.43,18.80 -1.64,18.50 -0.85,18.20 -0.02,18.10 0.81,18.00 3.75,18.01 6.69,18.02 8.85,18.38 11.02,18.74 14.05,19.81 17.07,20.88 21.19,22.60 25.32,24.32 26.57,27.08 27.83,29.84 28.00,32.76 28.17,35.68 27.75,38.64 27.33,41.59 25.79,44.30 24.25,47.01 21.55,48.79 18.86,50.57 16.37,51.67 13.88,52.77 11.66,53.03 9.43,53.29 7.10,53.34 4.76,53.39 2.55,52.79 0.33,52.20 -0.26,52.29 -0.85,52.38 -2.01,52.05 -3.16,51.72 -4.15,51.03 -5.14,50.35 -5.86,49.39 -6.58,48.43 -6.96,47.29 -7.34,46.15 -7.33,44.94 -7.32,43.74 -6.93,42.60 -6.53,41.47 -5.80,40.52 -5.07,39.56 -4.07,38.90 -3.07,38.23 -1.91,37.92 -0.75,37.60 0.44,37.68 1.64,37.75 2.76,38.20 3.87,38.66 4.78,39.44 5.69,40.23 6.30,41.26 6.92,42.29 7.17,43.47 7.42,44.65 7.28,45.84 7.14,47.03 6.63,48.12 6.11,49.21 5.28,50.08 4.45,50.94 3.38,51.50 2.32,52.05 1.13,52.24 -0.05,52.42 -1.23,52.22 -2.42,52.02 -3.48,51.45 -4.53,50.88 -5.35,50.00 -6.17,49.12 -6.67,48.03 -7.17,46.93 -7.29,45.73 -7.41,44.54 -7.14,43.37 -6.88,42.19 -6.25,41.17 -5.62,40.14 -4.70,39.37 -3.78,38.60 -2.66,38.16 -1.54,37.73 -0.34,37.67 0.85,37.61 0.85,37.61 0.85,37.61 2.29,38.10 3.73,38.59 6.29,38.96 8.84,39.34 11.17,38.43 13.51,37.53 15.26,36.20 17.02,34.87 14.35,34.31 11.68,33.74 9.16,32.86 6.64,31.97 3.74,31.98 0.84,31.99 0.00,31.89 -0.83,31.79 -1.61,31.49 -2.40,31.20 -3.10,30.72 -3.79,30.24 -4.35,29.61 -4.92,28.98 -5.31,28.24 -5.70,27.49 -5.91,26.67 -6.11,25.85 -6.11,25.01 -6.11,24.17 -5.91,23.35 -5.71,22.53 -5.32,21.78 -4.93,21.03 -4.37,20.40 -3.82,19.77 -3.12,19.29 -2.43,18.80 -1.64,18.50 -0.85,18.20 -0.02,18.10 0.81,18.00 2.01,18.03 3.21,18.06 5.54,17.84 7.88,17.62 8.79,14.61 9.71,11.59 9.99,8.57 10.27,5.54 7.72,5.38 5.17,5.22 2.58,5.21 0,5.19 -0.62,5.12 -1.24,5.04 -1.83,4.82 -2.41,4.60 -2.93,4.24 -3.44,3.89 -3.86,3.42 -4.27,2.95 -4.56,2.39 -4.86,1.84 -5.01,1.23 -5.16,0.62 -5.16,-0.00 -5.16,-0.62 -5.01,-1.23 -4.86,-1.84 -4.56,-2.39 -4.27,-2.95 -3.86,-3.42 -3.44,-3.89 -2.93,-4.24 -2.41,-4.60 -1.82,-4.82 -1.24,-5.04 -0.62,-5.12 0.00,-5.19 0.00,-5.19 L 0,-5.19 Z"></path></g><g transform="translate(137 244) rotate(0 7.5 15.5)" stroke="none"><path fill="#1e1e1e" d="M 4.76,2.11 Q 4.76,2.11 3.59,4.69 2.43,7.27 2.05,9.45 1.68,11.63 1.80,14.03 1.91,16.42 2.22,19.36 2.53,22.31 4.67,23.92 6.81,25.53 8.90,26.27 10.99,27.02 11.46,24.63 11.92,22.25 11.92,20.04 11.93,17.84 13.05,19.71 14.18,21.58 11.36,19.17 8.55,16.77 6.65,14.30 4.76,11.82 4.39,9.71 4.02,7.59 3.45,5.38 2.87,3.18 3.35,4.19 3.83,5.21 2.68,4.99 1.53,4.78 0.51,4.21 -0.50,3.64 -1.28,2.77 -2.06,1.90 -2.53,0.83 -2.99,-0.23 -3.09,-1.39 -3.19,-2.55 -2.91,-3.69 -2.64,-4.82 -2.01,-5.81 -1.39,-6.79 -0.48,-7.53 0.42,-8.26 1.51,-8.67 2.61,-9.08 3.78,-9.11 4.94,-9.15 6.06,-8.81 7.18,-8.47 8.13,-7.79 9.08,-7.12 9.76,-6.17 10.45,-5.23 10.80,-4.11 11.14,-3.00 11.12,-1.83 11.09,-0.66 10.69,0.43 10.29,1.52 9.56,2.44 8.83,3.35 7.85,3.98 6.87,4.61 5.74,4.90 4.61,5.19 3.44,5.10 2.28,5.01 1.20,4.55 0.13,4.09 -0.73,3.31 -1.60,2.54 -2.18,1.52 -2.76,0.51 -2.98,-0.63 -3.21,-1.77 -3.06,-2.93 -2.90,-4.09 -2.39,-5.14 -1.87,-6.18 -1.05,-7.01 -0.23,-7.84 0.81,-8.36 1.85,-8.89 3.01,-9.05 4.16,-9.21 4.16,-9.21 4.16,-9.21 8.71,-8.00 13.27,-6.79 14.83,-4.09 16.40,-1.39 16.48,1.93 16.55,5.27 18.79,7.17 21.02,9.07 22.61,10.48 24.20,11.90 25.08,14.16 25.96,16.42 25.95,18.70 25.93,20.97 25.72,23.47 25.50,25.96 24.26,29.47 23.02,32.97 21.31,34.97 19.61,36.98 17.25,38.18 14.89,39.38 12.73,39.54 10.58,39.70 7.64,38.85 4.71,38.01 2.59,37.44 0.47,36.88 -2.17,34.88 -4.83,32.87 -5.96,31.06 -7.08,29.25 -8.23,27.13 -9.38,25.01 -9.69,21.73 -10.00,18.44 -9.88,16.24 -9.76,14.03 -9.41,11.71 -9.06,9.40 -8.04,6.24 -7.03,3.07 -5.89,0.48 -4.76,-2.11 -4.44,-2.65 -4.11,-3.19 -3.67,-3.64 -3.23,-4.08 -2.69,-4.41 -2.16,-4.74 -1.56,-4.93 -0.96,-5.12 -0.33,-5.16 0.29,-5.20 0.90,-5.09 1.52,-4.98 2.10,-4.72 2.67,-4.47 3.17,-4.08 3.66,-3.70 4.05,-3.21 4.44,-2.71 4.71,-2.14 4.97,-1.57 5.08,-0.95 5.20,-0.33 5.16,0.28 5.13,0.91 4.94,1.51 4.76,2.11 4.76,2.11 L 4.76,2.11 Z"></path></g></svg>