<svg version="1.1" xmlns="http://www.w3.org/2000/svg" viewBox="0 0 461.2501 449" width="461.2501" height="449" class="excalidraw-svg"><!-- svg-source:excalidraw --><metadata></metadata><defs><style class="style-fonts">
      </style></defs><rect x="0" y="0" width="461.2501" height="449" fill="#ffffff"></rect><g stroke-linecap="round"><g transform="translate(31 367) rotate(0 187.52848285757938 -1.3939817864540984)"><path d="M0.4 -0.84 C63.09 -1.72, 313.35 -3.39, 375.91 -4.11 M-0.85 1.33 C61.69 1.15, 312.29 -1.67, 374.91 -2.64" stroke="#1e1e1e" stroke-width="2" fill="none"></path></g></g><mask></mask><g stroke-linecap="round"><g transform="translate(31 366) rotate(0 89.89945572921074 -155.0687166436855)"><path d="M-0.61 -0.61 C29.13 -52.48, 148.2 -260.25, 178.15 -311.82 M1.26 1.68 C31.42 -50, 150.89 -258.45, 180.41 -310.71" stroke="#1e1e1e" stroke-width="2" fill="none"></path></g></g><mask></mask><g stroke-linecap="round"><g transform="translate(209 57) rotate(359.1024837298519 99.95550153665243 153.6583219627291)"><path d="M-0.63 -0.09 C23.46 21.31, 110.36 76.89, 143.89 128.1 C177.41 179.3, 191.03 277.21, 200.54 307.12 M1.24 -1.18 C25.22 20.37, 109.74 77.55, 142.88 129.16 C176.01 180.77, 190.26 279.15, 200.06 308.5" stroke="#1e1e1e" stroke-width="2" fill="none"></path></g></g><mask></mask><g stroke-linecap="round"><g transform="translate(130 199) rotate(0 114.6126174605824 -0.46784975714981414)"><path d="M0.16 0.89 C38.13 0.49, 190.22 -1.15, 228.17 -1.83 M-1.22 0.31 C37.1 0.08, 191.88 0.27, 230.45 -0.2" stroke="#1e1e1e" stroke-width="2" fill="none"></path></g></g><mask></mask><g stroke-linecap="round"><g transform="translate(360 198) rotate(0 3.358001321647322 83.52179723760112)"><path d="M0.93 -0.18 C1.81 27.61, 3.82 139.18, 4.38 166.89 M-0.04 -1.32 C1.32 26.65, 5.63 140.33, 6.76 168.36" stroke="#1e1e1e" stroke-width="2" fill="none"></path></g></g><mask></mask><g stroke-linecap="round"><g transform="translate(130 201) rotate(0 3.5779073003865776 83.82320679611526)"><path d="M0.47 1.14 C1.36 28.88, 4.84 139.67, 5.81 166.96 M-0.74 0.69 C0.46 28.06, 6.3 137.86, 7.89 165.34" stroke="#1e1e1e" stroke-width="2" fill="none"></path></g></g><mask></mask><g stroke-linecap="round"><g transform="translate(33 369) rotate(0 163.2880540665239 -82.8170036227256)"><path d="M-0.1 -0.82 C54.24 -28.66, 271.65 -139.46, 326 -167.01 M-1.61 1.37 C53.1 -26.37, 273.19 -138.29, 328.19 -166" stroke="#1e1e1e" stroke-width="2" fill="none"></path></g></g><mask></mask><g transform="translate(422 380) rotate(0 2 29.5)" stroke="none"><path fill="#1e1e1e" d="M 1.95,0 Q 1.95,0 1.86,2.58 1.78,5.17 1.71,7.42 1.65,9.67 1.67,11.49 1.70,13.31 1.64,15.80 1.59,18.30 1.55,21.09 1.51,23.88 1.49,26.50 1.46,29.12 1.53,30.81 1.59,32.50 1.69,33.79 1.79,35.08 1.87,37.71 1.95,40.34 2.31,42.80 2.66,45.26 2.85,46.59 3.03,47.92 3.82,50.10 4.61,52.29 5.57,55.55 6.54,58.82 6.50,59.23 6.46,59.64 6.29,60.02 6.13,60.40 5.85,60.70 5.57,61.00 5.21,61.20 4.84,61.40 4.44,61.47 4.03,61.55 3.62,61.49 3.21,61.42 2.85,61.24 2.48,61.05 2.19,60.75 1.90,60.46 1.73,60.08 1.55,59.71 1.50,59.30 1.45,58.89 1.53,58.49 1.61,58.08 1.82,57.73 2.03,57.37 2.34,57.10 2.65,56.83 3.03,56.67 3.41,56.51 3.82,56.48 4.23,56.46 4.63,56.56 5.03,56.66 5.38,56.89 5.72,57.12 5.98,57.44 6.23,57.77 6.37,58.16 6.51,58.55 6.51,58.96 6.52,59.37 6.39,59.77 6.27,60.16 6.02,60.49 5.78,60.82 5.44,61.06 5.10,61.30 4.70,61.41 4.31,61.53 3.89,61.51 3.48,61.49 3.10,61.35 2.71,61.20 2.39,60.94 2.07,60.67 1.86,60.32 1.64,59.97 1.54,59.57 1.45,59.17 1.45,59.17 1.45,59.17 1.29,57.54 1.13,55.92 0.62,54.84 0.11,53.76 -0.31,52.40 -0.73,51.04 -1.06,49.70 -1.40,48.37 -1.46,47.19 -1.51,46.01 -1.73,43.18 -1.95,40.34 -1.87,37.71 -1.79,35.08 -1.69,33.79 -1.59,32.50 -1.53,30.81 -1.46,29.12 -1.49,26.50 -1.51,23.88 -1.55,21.09 -1.59,18.30 -1.64,15.80 -1.70,13.31 -1.67,11.49 -1.65,9.67 -1.71,7.42 -1.78,5.17 -1.86,2.58 -1.95,0 -1.92,-0.23 -1.89,-0.46 -1.81,-0.68 -1.72,-0.90 -1.59,-1.10 -1.46,-1.29 -1.28,-1.45 -1.10,-1.60 -0.90,-1.71 -0.69,-1.82 -0.46,-1.88 -0.23,-1.93 0.00,-1.93 0.23,-1.93 0.46,-1.88 0.69,-1.82 0.90,-1.71 1.10,-1.60 1.28,-1.45 1.46,-1.29 1.59,-1.10 1.72,-0.90 1.81,-0.68 1.89,-0.46 1.92,-0.23 1.95,0.00 1.95,0.00 L 1.95,0 Z"></path></g><g transform="translate(424 385) rotate(0 9 6.5)" stroke="none"><path fill="#1e1e1e" d="M -1.15,-2.31 Q -1.15,-2.31 0.61,-3.07 2.39,-3.84 3.53,-4.30 4.66,-4.77 5.89,-5.02 7.12,-5.28 9.16,-5.45 11.21,-5.62 12.63,-5.71 14.05,-5.81 16.65,-5.00 19.24,-4.19 19.83,-2.78 20.43,-1.37 20.58,-0.13 20.74,1.10 20.85,2.86 20.97,4.61 20.61,6.88 20.24,9.15 19.63,10.08 19.02,11.02 18.10,11.70 17.17,12.39 16.09,13.00 15.01,13.61 13.48,15.25 11.95,16.90 10.47,17.81 8.99,18.72 6.85,18.95 4.72,19.18 3.65,19.10 2.58,19.02 1.11,18.64 -0.35,18.27 -0.86,18.13 -1.38,17.98 -1.82,17.68 -2.26,17.39 -2.58,16.96 -2.90,16.54 -3.07,16.03 -3.24,15.53 -3.24,15.00 -3.24,14.46 -3.07,13.96 -2.90,13.45 -2.58,13.03 -2.26,12.61 -1.82,12.31 -1.38,12.01 -0.86,11.87 -0.35,11.72 0.17,11.75 0.70,11.78 1.20,11.98 1.69,12.17 2.10,12.52 2.50,12.86 2.78,13.32 3.05,13.78 3.17,14.30 3.28,14.82 3.22,15.35 3.17,15.88 2.94,16.36 2.72,16.84 2.35,17.23 1.99,17.62 1.52,17.86 1.05,18.11 0.52,18.20 0.00,18.29 -0.52,18.20 -1.05,18.11 -1.52,17.87 -1.99,17.62 -2.35,17.23 -2.72,16.84 -2.94,16.36 -3.17,15.88 -3.22,15.35 -3.28,14.82 -3.17,14.30 -3.05,13.78 -2.78,13.32 -2.50,12.86 -2.10,12.52 -1.69,12.17 -1.20,11.98 -0.70,11.78 -0.17,11.75 0.35,11.72 0.35,11.72 0.35,11.72 1.98,12.32 3.62,12.92 4.91,12.77 6.20,12.62 7.28,12.08 8.36,11.53 9.27,10.81 10.18,10.08 11.47,9.00 12.77,7.92 13.87,7.22 14.97,6.52 14.96,4.81 14.95,3.10 14.53,1.46 14.10,-0.17 12.72,-0.23 11.33,-0.28 9.61,-0.27 7.89,-0.25 6.20,0.06 4.50,0.39 2.83,1.35 1.15,2.31 0.86,2.41 0.56,2.51 0.25,2.55 -0.05,2.58 -0.35,2.53 -0.66,2.49 -0.95,2.37 -1.24,2.26 -1.49,2.08 -1.75,1.89 -1.95,1.66 -2.15,1.42 -2.29,1.14 -2.43,0.86 -2.50,0.56 -2.56,0.26 -2.56,-0.05 -2.55,-0.36 -2.47,-0.66 -2.39,-0.96 -2.24,-1.23 -2.09,-1.50 -1.88,-1.73 -1.67,-1.96 -1.41,-2.13 -1.15,-2.31 -1.15,-2.31 L -1.15,-2.31 Z"></path></g><g transform="translate(21 391) rotate(0 -0.5 14)" stroke="none"><path fill="#1e1e1e" d="M 1.21,2.01 Q 1.21,2.01 -0.23,2.85 -1.67,3.68 -2.64,4.70 -3.62,5.72 -4.63,7.39 -5.65,9.06 -6.37,10.47 -7.09,11.87 -7.69,12.89 -8.29,13.91 -7.73,15.30 -7.18,16.69 -6.54,17.78 -5.90,18.87 -5.28,19.99 -4.67,21.11 -3.38,22.13 -2.10,23.15 -1.05,23.58 -0.01,24.01 1.37,24.51 2.76,25.02 4.17,25.43 5.59,25.84 5.66,24.73 5.73,23.63 6.11,22.62 6.49,21.61 6.62,20.34 6.76,19.07 6.78,17.65 6.80,16.22 6.84,14.04 6.88,11.85 6.99,10.17 7.09,8.49 7.22,6.62 7.34,4.75 7.35,3.39 7.36,2.02 6.59,2.78 5.82,3.54 4.80,4.18 3.77,4.82 2.24,5.67 0.70,6.52 0.25,6.72 -0.19,6.93 -0.68,6.98 -1.17,7.03 -1.65,6.93 -2.13,6.82 -2.55,6.56 -2.97,6.31 -3.29,5.93 -3.61,5.56 -3.79,5.10 -3.97,4.64 -3.99,4.15 -4.02,3.66 -3.89,3.18 -3.75,2.71 -3.48,2.30 -3.20,1.90 -2.81,1.60 -2.41,1.30 -1.95,1.15 -1.48,0.99 -0.99,0.99 -0.49,0.99 -0.03,1.15 0.43,1.31 0.82,1.61 1.21,1.91 1.49,2.32 1.76,2.72 1.89,3.20 2.02,3.67 1.99,4.17 1.97,4.66 1.78,5.11 1.60,5.57 1.28,5.95 0.96,6.32 0.54,6.57 0.11,6.83 -0.36,6.93 -0.84,7.03 -1.33,6.98 -1.82,6.93 -2.26,6.72 -2.71,6.51 -3.07,6.17 -3.42,5.83 -3.65,5.39 -3.88,4.96 -3.96,4.47 -4.04,3.99 -3.96,3.50 -3.88,3.02 -3.64,2.58 -3.41,2.15 -3.05,1.81 -2.70,1.47 -2.70,1.47 -2.70,1.47 -0.99,0.57 0.72,-0.32 2.15,-1.28 3.59,-2.25 6.12,-2.90 8.65,-3.54 9.95,-2.97 11.26,-2.39 11.94,-0.18 12.63,2.02 12.64,3.39 12.65,4.76 12.77,6.62 12.90,8.49 13.00,10.18 13.10,11.87 13.13,14.09 13.15,16.31 13.08,17.94 13.01,19.58 12.67,21.63 12.32,23.69 11.90,24.92 11.48,26.15 10.98,27.10 10.48,28.06 9.68,29.21 8.87,30.37 7.78,30.96 6.68,31.55 4.50,31.32 2.32,31.08 0.96,30.37 -0.40,29.65 -2.06,29.07 -3.72,28.49 -5.35,27.14 -6.98,25.79 -8.03,24.69 -9.09,23.60 -9.67,22.49 -10.24,21.39 -11.06,19.95 -11.89,18.52 -12.26,17.38 -12.64,16.23 -12.72,14.81 -12.80,13.39 -11.75,11.67 -10.70,9.96 -9.92,8.55 -9.15,7.14 -8.01,4.89 -6.87,2.64 -5.47,1.20 -4.07,-0.23 -2.64,-1.12 -1.21,-2.01 -0.95,-2.13 -0.69,-2.25 -0.41,-2.30 -0.13,-2.35 0.14,-2.33 0.43,-2.31 0.70,-2.22 0.97,-2.14 1.21,-1.99 1.45,-1.84 1.65,-1.64 1.85,-1.44 2.00,-1.20 2.15,-0.95 2.23,-0.68 2.31,-0.41 2.33,-0.13 2.34,0.15 2.29,0.42 2.24,0.70 2.12,0.96 2.01,1.22 1.83,1.44 1.65,1.67 1.43,1.84 1.21,2.01 1.21,2.01 L 1.21,2.01 Z"></path></g><g transform="translate(208 10) rotate(0 -0.5 14.5)" stroke="none"><path fill="#1e1e1e" d="M 0.39,2.39 Q 0.39,2.39 -1.33,2.63 -3.06,2.86 -4.17,3.23 -5.28,3.61 -6.28,4.78 -7.29,5.95 -8.20,7.35 -9.11,8.74 -10.33,11.21 -11.55,13.68 -11.79,14.72 -12.04,15.77 -12.15,16.97 -12.26,18.18 -12.29,19.29 -12.32,20.40 -11.07,21.59 -9.81,22.78 -8.30,23.32 -6.78,23.86 -5.72,24.35 -4.65,24.84 -3.34,25.26 -2.02,25.69 -0.57,25.76 0.87,25.83 2.89,24.79 4.91,23.75 5.41,22.63 5.92,21.51 6.37,20.05 6.81,18.58 7.32,17.23 7.82,15.88 8.32,14.71 8.82,13.54 9.70,11.92 10.58,10.30 10.87,8.69 11.16,7.08 10.22,6.57 9.27,6.07 7.94,5.68 6.61,5.29 5.13,5.20 3.65,5.12 1.32,5.14 -1.00,5.16 -1.51,5.08 -2.01,4.99 -2.46,4.75 -2.92,4.51 -3.27,4.14 -3.62,3.77 -3.83,3.30 -4.05,2.84 -4.10,2.33 -4.16,1.82 -4.05,1.32 -3.93,0.82 -3.67,0.38 -3.41,-0.05 -3.01,-0.38 -2.62,-0.71 -2.15,-0.90 -1.67,-1.09 -1.16,-1.12 -0.65,-1.14 -0.15,-1.00 0.33,-0.87 0.75,-0.58 1.18,-0.29 1.49,0.11 1.80,0.52 1.96,1.00 2.12,1.49 2.12,2.00 2.12,2.51 1.95,3.00 1.79,3.48 1.48,3.89 1.17,4.30 0.74,4.58 0.32,4.87 -0.16,5.01 -0.66,5.14 -1.17,5.12 -1.68,5.09 -2.16,4.90 -2.63,4.71 -3.02,4.37 -3.41,4.04 -3.68,3.60 -3.94,3.16 -4.05,2.66 -4.16,2.16 -4.10,1.65 -4.04,1.14 -3.83,0.68 -3.61,0.21 -3.26,-0.15 -2.91,-0.52 -2.45,-0.76 -2.00,-1.00 -1.49,-1.08 -0.99,-1.16 -0.99,-1.16 -0.99,-1.16 1.47,-1.10 3.94,-1.04 5.28,-0.89 6.63,-0.73 8.24,-0.25 9.84,0.21 11.38,0.45 12.91,0.69 14.43,2.20 15.94,3.71 16.18,5.77 16.41,7.83 16.18,9.05 15.95,10.26 15.53,11.37 15.10,12.47 14.42,14.09 13.73,15.70 13.26,16.73 12.80,17.75 12.37,18.86 11.95,19.97 11.57,21.59 11.18,23.22 10.62,24.56 10.05,25.91 9.11,26.95 8.16,27.98 6.08,29.67 4.00,31.35 2.36,31.72 0.72,32.08 -0.96,31.92 -2.64,31.76 -4.15,31.20 -5.66,30.65 -6.88,30.07 -8.09,29.49 -9.41,29.13 -10.72,28.78 -11.73,28.22 -12.75,27.66 -13.76,27.02 -14.77,26.38 -15.80,25.35 -16.83,24.31 -17.16,22.22 -17.49,20.13 -17.40,18.90 -17.31,17.67 -17.13,16.07 -16.96,14.47 -16.53,12.98 -16.10,11.49 -15.40,9.85 -14.71,8.20 -13.53,6.25 -12.34,4.30 -10.86,2.67 -9.38,1.05 -8.11,0.11 -6.85,-0.82 -5.34,-1.27 -3.83,-1.71 -2.11,-2.05 -0.39,-2.39 -0.10,-2.40 0.18,-2.41 0.47,-2.36 0.75,-2.30 1.02,-2.17 1.28,-2.05 1.51,-1.87 1.74,-1.68 1.91,-1.45 2.09,-1.22 2.21,-0.95 2.32,-0.68 2.37,-0.39 2.42,-0.10 2.40,0.18 2.37,0.47 2.28,0.75 2.19,1.03 2.04,1.27 1.88,1.52 1.67,1.73 1.46,1.93 1.21,2.08 0.95,2.22 0.67,2.31 0.39,2.39 0.39,2.39 L 0.39,2.39 Z"></path></g><g transform="translate(212 29) rotate(0 11 4.5)" stroke="none"><path fill="#1e1e1e" d="M 0.71,-2.39 Q 0.71,-2.39 3.55,-1.38 6.38,-0.37 7.83,-0.03 9.29,0.30 10.39,0.39 11.49,0.47 12.89,0.46 14.29,0.45 15.35,0.85 16.42,1.24 18.06,2.16 19.70,3.08 20.67,3.94 21.63,4.80 22.80,5.86 23.97,6.93 24.24,7.30 24.52,7.66 24.67,8.10 24.82,8.54 24.81,9.00 24.81,9.47 24.66,9.90 24.52,10.34 24.23,10.71 23.95,11.08 23.57,11.33 23.19,11.59 22.74,11.71 22.30,11.84 21.83,11.81 21.37,11.78 20.94,11.61 20.51,11.44 20.16,11.14 19.81,10.84 19.57,10.44 19.34,10.04 19.24,9.59 19.14,9.14 19.19,8.68 19.24,8.22 19.44,7.80 19.64,7.38 19.95,7.05 20.27,6.71 20.68,6.50 21.09,6.28 21.55,6.21 22.00,6.14 22.46,6.21 22.92,6.29 23.32,6.51 23.73,6.73 24.05,7.06 24.37,7.40 24.56,7.82 24.75,8.24 24.80,8.70 24.85,9.16 24.75,9.61 24.65,10.06 24.41,10.46 24.17,10.85 23.81,11.15 23.46,11.45 23.03,11.62 22.60,11.79 22.14,11.81 21.68,11.83 21.23,11.71 20.79,11.58 20.40,11.32 20.02,11.06 20.02,11.06 20.02,11.06 18.94,9.99 17.86,8.91 16.71,7.85 15.56,6.78 14.70,6.12 13.84,5.45 12.37,5.25 10.90,5.06 9.57,4.83 8.24,4.61 6.68,4.22 5.11,3.82 2.19,3.11 -0.71,2.39 -0.99,2.27 -1.27,2.15 -1.51,1.97 -1.75,1.79 -1.94,1.55 -2.13,1.31 -2.25,1.04 -2.38,0.77 -2.44,0.47 -2.49,0.17 -2.48,-0.12 -2.46,-0.42 -2.38,-0.71 -2.29,-1.00 -2.14,-1.26 -1.98,-1.52 -1.77,-1.73 -1.56,-1.95 -1.30,-2.11 -1.05,-2.27 -0.76,-2.36 -0.47,-2.45 -0.17,-2.48 0.12,-2.50 0.42,-2.45 0.72,-2.39 0.71,-2.39 L 0.71,-2.39 Z"></path></g><g transform="translate(403 165) rotate(0 -7 18.5)" stroke="none"><path fill="#1e1e1e" d="M 2.38,0 Q 2.38,0 2.24,2.3 2.10,4.6 1.99,6.72 1.89,8.85 1.89,10.62 1.90,12.38 1.03,15.22 0.16,18.05 -1.59,17.81 -3.34,17.58 -5.08,16.80 -6.82,16.01 -7.78,15.56 -8.74,15.11 -10.50,14.56 -12.25,14.02 -13.48,15.03 -14.72,16.04 -15.52,17.16 -16.33,18.28 -17.02,19.41 -17.70,20.54 -18.23,21.75 -18.77,22.96 -18.95,24.12 -19.13,25.29 -19.24,26.64 -19.34,27.99 -18.80,29.01 -18.25,30.04 -16.98,30.93 -15.70,31.81 -14.41,32.35 -13.13,32.88 -11.90,32.92 -10.67,32.96 -9.55,33.39 -8.43,33.83 -6.79,33.70 -5.14,33.58 -3.40,32.42 -1.66,31.26 0.36,29.41 2.38,27.56 4.39,25.48 6.39,23.40 6.69,23.18 6.99,22.97 7.34,22.86 7.69,22.75 8.05,22.76 8.42,22.77 8.76,22.90 9.11,23.02 9.39,23.25 9.68,23.48 9.88,23.79 10.07,24.10 10.16,24.45 10.25,24.81 10.22,25.17 10.19,25.54 10.05,25.88 9.90,26.21 9.66,26.49 9.42,26.76 9.10,26.94 8.78,27.12 8.42,27.19 8.06,27.26 7.70,27.21 7.33,27.16 7.00,27.00 6.68,26.84 6.42,26.58 6.16,26.32 5.99,25.99 5.83,25.66 5.78,25.30 5.73,24.94 5.80,24.58 5.87,24.22 6.05,23.90 6.23,23.58 6.50,23.33 6.77,23.09 7.11,22.94 7.45,22.80 7.81,22.77 8.18,22.74 8.53,22.83 8.89,22.91 9.20,23.11 9.51,23.31 9.74,23.59 9.97,23.88 10.09,24.22 10.22,24.57 10.23,24.93 10.24,25.30 10.13,25.65 10.02,26.00 9.81,26.30 9.60,26.59 9.60,26.59 9.60,26.59 7.52,28.60 5.45,30.61 3.31,32.94 1.16,35.28 -1.47,37.19 -4.12,39.10 -6.39,39.48 -8.65,39.86 -10.62,39.34 -12.58,38.81 -14.66,38.30 -16.73,37.78 -17.73,37.22 -18.72,36.66 -20.25,35.46 -21.77,34.25 -22.78,33.18 -23.79,32.11 -24.06,29.87 -24.33,27.63 -24.22,26.03 -24.11,24.42 -23.79,22.69 -23.47,20.97 -22.81,19.42 -22.16,17.88 -21.40,16.60 -20.64,15.32 -19.41,13.46 -18.18,11.61 -16.86,10.63 -15.55,9.66 -13.69,9.08 -11.82,8.50 -10.39,9.07 -8.95,9.64 -7.67,9.98 -6.39,10.31 -4.53,11.32 -2.66,12.32 -1.41,13.05 -0.16,13.79 -1.03,13.09 -1.90,12.38 -1.89,10.62 -1.89,8.85 -1.99,6.72 -2.10,4.6 -2.24,2.3 -2.38,0 -2.34,-0.28 -2.31,-0.57 -2.21,-0.83 -2.10,-1.10 -1.94,-1.34 -1.78,-1.57 -1.56,-1.77 -1.35,-1.96 -1.09,-2.09 -0.84,-2.22 -0.56,-2.29 -0.28,-2.36 0.00,-2.36 0.28,-2.36 0.56,-2.29 0.84,-2.22 1.09,-2.09 1.35,-1.96 1.56,-1.77 1.78,-1.57 1.94,-1.34 2.10,-1.10 2.21,-0.83 2.31,-0.56 2.34,-0.28 2.38,0.00 2.38,0.00 L 2.38,0 Z"></path></g><g transform="translate(136 384) rotate(0 -7.5 20.5)" stroke="none"><path fill="#1e1e1e" d="M 1.74,0.74 Q 1.74,0.74 -0.05,4.74 -1.84,8.73 -3.20,11.85 -4.56,14.96 -5.71,18.25 -6.86,21.54 -8.26,24.73 -9.65,27.92 -10.51,30.35 -11.37,32.78 -11.69,34.61 -12.00,36.43 -12.68,38.97 -13.36,41.51 -13.49,41.76 -13.61,42.01 -13.81,42.20 -14.01,42.40 -14.26,42.52 -14.51,42.64 -14.78,42.67 -15.06,42.71 -15.33,42.65 -15.60,42.60 -15.84,42.46 -16.08,42.32 -16.26,42.11 -16.45,41.90 -16.55,41.65 -16.66,41.39 -16.68,41.11 -16.70,40.84 -16.63,40.57 -16.56,40.30 -16.41,40.07 -16.26,39.84 -16.04,39.67 -15.82,39.50 -15.56,39.40 -15.30,39.31 -15.02,39.31 -14.75,39.30 -14.48,39.39 -14.22,39.47 -14.00,39.63 -13.77,39.80 -13.61,40.02 -13.45,40.25 -13.37,40.52 -13.30,40.78 -13.31,41.06 -13.32,41.33 -13.42,41.59 -13.51,41.85 -13.69,42.07 -13.86,42.28 -14.10,42.43 -14.33,42.57 -14.60,42.64 -14.87,42.70 -15.15,42.68 -15.43,42.65 -15.68,42.54 -15.93,42.43 -16.14,42.24 -16.34,42.05 -16.47,41.81 -16.61,41.57 -16.66,41.30 -16.71,41.02 -16.67,40.75 -16.63,40.48 -16.63,40.48 -16.63,40.48 -15.77,38.18 -14.91,35.88 -14.50,33.87 -14.08,31.85 -13.23,29.31 -12.37,26.76 -11.08,23.65 -9.78,20.55 -8.67,17.13 -7.56,13.72 -6.30,10.54 -5.05,7.36 -3.39,3.30 -1.74,-0.74 -1.63,-0.94 -1.51,-1.14 -1.35,-1.30 -1.19,-1.47 -1.00,-1.59 -0.81,-1.71 -0.59,-1.78 -0.37,-1.86 -0.14,-1.87 0.08,-1.89 0.30,-1.86 0.53,-1.82 0.74,-1.73 0.95,-1.64 1.13,-1.50 1.31,-1.36 1.46,-1.18 1.60,-1.01 1.70,-0.80 1.80,-0.59 1.84,-0.37 1.89,-0.14 1.88,0.08 1.87,0.30 1.80,0.52 1.74,0.74 1.74,0.74 L 1.74,0.74 Z"></path></g><g transform="translate(137 390) rotate(0 4.5 18.5)" stroke="none"><path fill="#1e1e1e" d="M 1.67,-0.55 Q 1.67,-0.55 2.25,1.16 2.84,2.89 3.11,4.93 3.38,6.98 3.98,9.41 4.58,11.84 5.40,14.93 6.21,18.02 6.57,20.88 6.93,23.73 7.62,26.55 8.31,29.37 8.89,31.44 9.46,33.52 9.99,35.04 10.51,36.56 10.54,36.82 10.57,37.07 10.52,37.32 10.46,37.57 10.33,37.79 10.20,38.01 10.01,38.17 9.82,38.34 9.58,38.44 9.35,38.53 9.09,38.55 8.84,38.56 8.59,38.50 8.34,38.43 8.13,38.29 7.92,38.15 7.76,37.95 7.61,37.74 7.52,37.50 7.44,37.26 7.44,37.01 7.44,36.75 7.52,36.51 7.60,36.27 7.75,36.06 7.90,35.86 8.11,35.71 8.32,35.57 8.57,35.50 8.81,35.43 9.07,35.44 9.32,35.45 9.56,35.55 9.80,35.64 9.99,35.80 10.19,35.97 10.32,36.18 10.45,36.40 10.51,36.65 10.57,36.90 10.54,37.15 10.52,37.41 10.41,37.64 10.31,37.87 10.13,38.06 9.96,38.24 9.73,38.36 9.51,38.48 9.26,38.53 9.01,38.57 8.75,38.53 8.50,38.49 8.28,38.37 8.05,38.26 7.87,38.07 7.70,37.89 7.59,37.66 7.48,37.43 7.48,37.43 7.48,37.43 7.12,35.86 6.76,34.29 6.14,32.18 5.52,30.07 4.75,27.10 3.98,24.13 3.60,21.49 3.22,18.85 2.31,15.77 1.41,12.69 0.64,10.06 -0.11,7.44 -0.32,5.72 -0.54,4.00 -1.10,2.28 -1.67,0.55 -1.71,0.34 -1.75,0.14 -1.74,-0.07 -1.73,-0.28 -1.67,-0.48 -1.61,-0.69 -1.51,-0.87 -1.40,-1.05 -1.26,-1.21 -1.11,-1.36 -0.93,-1.47 -0.75,-1.59 -0.55,-1.65 -0.35,-1.72 -0.13,-1.74 0.07,-1.75 0.28,-1.72 0.49,-1.69 0.68,-1.60 0.88,-1.52 1.05,-1.39 1.22,-1.26 1.35,-1.10 1.48,-0.94 1.57,-0.74 1.67,-0.55 1.67,-0.55 L 1.67,-0.55 Z"></path></g><g transform="translate(119 415) rotate(0 10.5 -1.5)" stroke="none"><path fill="#1e1e1e" d="M -1.30,-2.17 Q -1.30,-2.17 0.17,-3.00 1.64,-3.83 3.44,-4.31 5.23,-4.80 6.57,-5.02 7.90,-5.23 9.42,-5.42 10.95,-5.62 12.12,-5.65 13.30,-5.68 14.36,-5.71 15.42,-5.74 18.21,-5.78 20.99,-5.82 21.44,-5.74 21.89,-5.67 22.30,-5.46 22.70,-5.24 23.01,-4.91 23.33,-4.58 23.52,-4.17 23.71,-3.75 23.76,-3.30 23.81,-2.85 23.72,-2.40 23.62,-1.95 23.38,-1.56 23.15,-1.17 22.80,-0.87 22.45,-0.58 22.03,-0.41 21.60,-0.24 21.15,-0.21 20.69,-0.19 20.25,-0.31 19.81,-0.43 19.43,-0.69 19.06,-0.94 18.78,-1.31 18.50,-1.67 18.36,-2.10 18.21,-2.54 18.21,-2.99 18.21,-3.45 18.36,-3.88 18.50,-4.31 18.78,-4.68 19.05,-5.04 19.43,-5.30 19.81,-5.55 20.25,-5.68 20.69,-5.80 21.14,-5.78 21.60,-5.75 22.02,-5.58 22.45,-5.41 22.80,-5.12 23.14,-4.82 23.38,-4.43 23.62,-4.04 23.71,-3.60 23.81,-3.15 23.76,-2.70 23.71,-2.24 23.52,-1.83 23.33,-1.41 23.02,-1.08 22.70,-0.75 22.30,-0.54 21.90,-0.32 21.45,-0.25 21.00,-0.17 21.00,-0.17 21.00,-0.17 17.18,-0.22 13.35,-0.27 12.27,-0.28 11.19,-0.29 9.86,-0.29 8.54,-0.30 7.47,-0.20 6.40,-0.10 5.25,0.13 4.10,0.38 2.70,1.27 1.30,2.17 1.02,2.29 0.74,2.42 0.44,2.47 0.14,2.53 -0.16,2.51 -0.46,2.49 -0.75,2.40 -1.04,2.30 -1.30,2.14 -1.57,1.99 -1.78,1.77 -2.00,1.55 -2.15,1.29 -2.31,1.03 -2.40,0.74 -2.49,0.44 -2.51,0.14 -2.53,-0.16 -2.47,-0.46 -2.41,-0.76 -2.29,-1.04 -2.16,-1.31 -1.97,-1.55 -1.78,-1.79 -1.54,-1.98 -1.30,-2.17 -1.30,-2.17 L -1.30,-2.17 Z"></path></g><g transform="translate(361 390) rotate(0 -0.5 10)" stroke="none"><path fill="#1e1e1e" d="M 2.17,0 Q 2.17,0 2.08,2.01 2.00,4.02 1.91,6.89 1.81,9.76 1.52,11.70 1.22,13.63 1.15,15.18 1.07,16.74 1.06,18.42 1.06,20.10 0.99,20.43 0.91,20.76 0.74,21.04 0.57,21.33 0.32,21.55 0.06,21.76 -0.24,21.89 -0.55,22.01 -0.88,22.03 -1.22,22.05 -1.54,21.96 -1.86,21.87 -2.14,21.68 -2.41,21.50 -2.62,21.23 -2.82,20.96 -2.93,20.65 -3.03,20.33 -3.03,20.00 -3.03,19.66 -2.93,19.35 -2.82,19.03 -2.62,18.76 -2.42,18.50 -2.14,18.31 -1.86,18.12 -1.54,18.03 -1.22,17.94 -0.89,17.96 -0.55,17.98 -0.24,18.10 0.06,18.22 0.31,18.44 0.57,18.66 0.74,18.94 0.91,19.23 0.99,19.55 1.06,19.88 1.02,20.21 0.99,20.55 0.85,20.85 0.71,21.15 0.48,21.40 0.25,21.64 -0.04,21.80 -0.33,21.95 -0.66,22.01 -0.99,22.06 -1.32,22.01 -1.65,21.95 -1.95,21.80 -2.24,21.64 -2.47,21.40 -2.70,21.16 -2.84,20.85 -2.99,20.55 -3.02,20.22 -3.06,19.88 -3.06,19.89 -3.06,19.89 -2.88,18.17 -2.71,16.45 -2.54,14.75 -2.37,13.05 -2.09,11.40 -1.81,9.75 -1.91,6.89 -2.00,4.02 -2.08,2.01 -2.17,0 -2.13,-0.25 -2.10,-0.51 -2.01,-0.76 -1.92,-1.00 -1.77,-1.22 -1.62,-1.43 -1.42,-1.61 -1.23,-1.78 -1.00,-1.90 -0.76,-2.02 -0.51,-2.09 -0.26,-2.15 0.00,-2.15 0.26,-2.15 0.51,-2.09 0.76,-2.02 1.00,-1.90 1.23,-1.78 1.42,-1.61 1.62,-1.43 1.77,-1.22 1.92,-1.00 2.01,-0.76 2.10,-0.51 2.13,-0.25 2.17,0.00 2.17,0.00 L 2.17,0 Z"></path></g><g transform="translate(361 386) rotate(0 6.5 16.5)" stroke="none"><path fill="#1e1e1e" d="M -1.47,-2.21 Q -1.47,-2.21 -0.62,-2.81 0.23,-3.41 2.64,-4.02 5.05,-4.64 6.53,-4.76 8.00,-4.89 9.10,-4.96 10.21,-5.02 11.86,-4.16 13.51,-3.30 14.09,-2.16 14.68,-1.02 14.81,0.14 14.95,1.30 15.05,2.67 15.14,4.05 15.18,5.54 15.21,7.04 14.76,8.88 14.31,10.73 13.62,12.21 12.92,13.70 11.92,14.84 10.92,15.98 9.41,17.04 7.90,18.10 7.28,18.32 6.66,18.53 6.30,18.70 5.93,18.86 5.54,18.94 5.14,19.01 4.74,18.99 4.34,18.96 3.96,18.85 3.57,18.73 3.23,18.52 2.88,18.31 2.60,18.03 2.31,17.75 2.11,17.40 1.90,17.06 1.78,16.68 1.66,16.30 1.63,15.89 1.60,15.49 1.67,15.10 1.75,14.70 1.91,14.34 2.07,13.97 2.32,13.65 2.57,13.34 2.88,13.09 3.20,12.84 4.90,12.70 6.61,12.56 8.15,12.61 9.68,12.66 10.92,12.65 12.16,12.64 13.73,12.89 15.30,13.13 16.35,13.82 17.39,14.51 17.92,15.46 18.44,16.41 18.75,18.12 19.05,19.82 19.08,21.33 19.10,22.83 19.16,24.40 19.22,25.97 19.23,27.19 19.23,28.41 18.67,29.74 18.10,31.07 17.12,31.85 16.13,32.64 14.39,33.35 12.65,34.06 11.77,34.91 10.89,35.75 9.46,36.36 8.02,36.97 6.88,37.51 5.74,38.05 4.28,38.15 2.82,38.25 1.72,38.26 0.62,38.27 -1.89,37.65 -4.42,37.02 -4.87,36.71 -5.31,36.40 -5.64,35.97 -5.96,35.54 -6.13,35.02 -6.30,34.51 -6.30,33.97 -6.29,33.43 -6.11,32.92 -5.94,32.40 -5.61,31.98 -5.28,31.55 -4.82,31.25 -4.37,30.95 -3.85,30.81 -3.33,30.67 -2.79,30.70 -2.25,30.73 -1.75,30.94 -1.25,31.14 -0.84,31.50 -0.43,31.85 -0.15,32.32 0.11,32.78 0.22,33.31 0.34,33.84 0.27,34.38 0.21,34.92 -0.01,35.41 -0.24,35.89 -0.62,36.28 -0.99,36.67 -1.47,36.92 -1.95,37.17 -2.49,37.26 -3.02,37.34 -3.56,37.25 -4.09,37.16 -4.56,36.90 -5.04,36.64 -5.41,36.24 -5.78,35.85 -6.00,35.36 -6.22,34.86 -6.28,34.32 -6.33,33.79 -6.21,33.26 -6.09,32.73 -5.81,32.27 -5.53,31.81 -5.11,31.46 -4.70,31.12 -4.19,30.92 -3.69,30.72 -3.15,30.70 -2.61,30.67 -2.09,30.82 -1.57,30.97 -1.57,30.97 -1.57,30.97 -0.56,31.30 0.44,31.63 2.29,31.58 4.15,31.52 5.47,30.90 6.79,30.28 7.71,29.40 8.63,28.51 9.75,28.10 10.87,27.69 11.80,26.89 12.74,26.09 12.71,24.62 12.69,23.15 12.41,21.25 12.13,19.34 10.85,19.31 9.57,19.29 8.12,18.91 6.66,18.53 6.30,18.70 5.93,18.86 5.54,18.94 5.14,19.01 4.74,18.99 4.34,18.96 3.96,18.85 3.57,18.73 3.23,18.52 2.88,18.31 2.60,18.03 2.31,17.75 2.11,17.41 1.90,17.06 1.78,16.68 1.66,16.30 1.63,15.90 1.60,15.49 1.67,15.10 1.75,14.70 1.91,14.34 2.07,13.97 2.32,13.65 2.57,13.34 2.88,13.09 3.20,12.84 3.84,12.63 4.49,12.42 5.87,11.72 7.26,11.01 8.03,9.50 8.80,7.98 8.80,6.90 8.80,5.81 8.80,4.48 8.81,3.16 8.49,2.05 8.17,0.95 6.87,0.95 5.56,0.94 4.39,1.03 3.21,1.11 2.34,1.66 1.47,2.21 1.19,2.35 0.90,2.50 0.59,2.57 0.27,2.64 -0.04,2.64 -0.36,2.63 -0.67,2.55 -0.98,2.47 -1.26,2.32 -1.54,2.16 -1.78,1.94 -2.02,1.73 -2.19,1.46 -2.37,1.19 -2.48,0.89 -2.59,0.59 -2.62,0.27 -2.66,-0.04 -2.61,-0.36 -2.57,-0.67 -2.45,-0.97 -2.33,-1.27 -2.15,-1.53 -1.96,-1.79 -1.72,-2.00 -1.47,-2.21 -1.47,-2.21 L -1.47,-2.21 Z"></path></g><g transform="translate(101 151) rotate(0 0.5 11)" stroke="none"><path fill="#1e1e1e" d="M 2.01,0 Q 2.01,0 1.91,2.58 1.82,5.17 1.75,7.71 1.68,10.24 1.92,13.26 2.15,16.28 2.47,19.07 2.78,21.86 2.76,22.15 2.73,22.44 2.62,22.70 2.50,22.97 2.31,23.18 2.11,23.40 1.86,23.54 1.61,23.68 1.32,23.74 1.03,23.79 0.75,23.75 0.46,23.71 0.20,23.58 -0.05,23.45 -0.25,23.24 -0.46,23.03 -0.59,22.77 -0.71,22.51 -0.75,22.22 -0.79,21.94 -0.73,21.65 -0.68,21.37 -0.53,21.12 -0.39,20.86 -0.17,20.67 0.04,20.48 0.30,20.36 0.57,20.25 0.86,20.23 1.15,20.21 1.43,20.28 1.71,20.35 1.96,20.51 2.20,20.67 2.38,20.89 2.56,21.12 2.66,21.39 2.76,21.67 2.77,21.96 2.77,22.25 2.68,22.52 2.60,22.80 2.43,23.04 2.26,23.27 2.02,23.44 1.78,23.61 1.51,23.69 1.23,23.77 0.94,23.76 0.65,23.76 0.38,23.65 0.10,23.55 -0.11,23.37 -0.34,23.19 -0.49,22.94 -0.65,22.70 -0.72,22.41 -0.78,22.13 -0.78,22.13 -0.78,22.13 -0.89,19.35 -1.00,16.57 -1.34,13.41 -1.68,10.25 -1.75,7.71 -1.82,5.17 -1.91,2.58 -2.01,0 -1.98,-0.24 -1.95,-0.48 -1.86,-0.70 -1.78,-0.93 -1.64,-1.13 -1.50,-1.33 -1.32,-1.49 -1.14,-1.65 -0.92,-1.76 -0.71,-1.88 -0.47,-1.93 -0.24,-1.99 0.00,-1.99 0.24,-1.99 0.47,-1.93 0.71,-1.88 0.92,-1.76 1.14,-1.65 1.32,-1.49 1.50,-1.33 1.64,-1.13 1.78,-0.93 1.86,-0.70 1.95,-0.48 1.98,-0.24 2.01,0.00 2.01,0.00 L 2.01,0 Z"></path></g><g transform="translate(99 153) rotate(0 10.5 7)" stroke="none"><path fill="#1e1e1e" d="M -1.76,-1.76 Q -1.76,-1.76 -0.23,-3.11 1.28,-4.46 2.89,-5.68 4.49,-6.90 5.53,-7.56 6.56,-8.23 8.16,-8.77 9.76,-9.32 11.37,-9.48 12.99,-9.64 14.78,-9.27 16.56,-8.90 18.46,-7.36 20.36,-5.83 20.89,-4.10 21.42,-2.38 22.01,-0.57 22.61,1.24 22.93,2.32 23.25,3.41 23.43,5.04 23.60,6.66 23.75,8.59 23.89,10.51 23.88,11.83 23.87,13.16 23.53,14.44 23.20,15.72 22.16,17.87 21.13,20.02 19.10,21.29 17.08,22.56 15.59,22.81 14.10,23.05 12.84,23.49 11.57,23.92 9.33,24.07 7.09,24.21 6.57,24.14 6.06,24.07 5.59,23.84 5.12,23.61 4.75,23.24 4.39,22.88 4.15,22.41 3.92,21.95 3.85,21.43 3.78,20.91 3.88,20.40 3.97,19.89 4.23,19.44 4.48,18.98 4.87,18.64 5.26,18.29 5.73,18.08 6.21,17.87 6.73,17.83 7.25,17.79 7.76,17.91 8.26,18.04 8.70,18.32 9.14,18.60 9.47,19.00 9.79,19.41 9.97,19.89 10.15,20.38 10.17,20.90 10.18,21.42 10.03,21.92 9.88,22.42 9.58,22.84 9.27,23.27 8.85,23.57 8.43,23.88 7.93,24.03 7.43,24.18 6.91,24.17 6.39,24.16 5.90,23.98 5.42,23.80 5.01,23.47 4.60,23.15 4.32,22.71 4.04,22.27 3.91,21.77 3.79,21.26 3.83,20.74 3.87,20.22 4.08,19.74 4.28,19.27 4.63,18.88 4.98,18.49 5.43,18.23 5.88,17.98 6.39,17.88 6.90,17.78 6.90,17.78 6.90,17.78 8.99,17.68 11.09,17.59 13.20,17.14 15.31,16.70 16.34,16.32 17.37,15.95 17.73,14.52 18.09,13.10 18.05,11.89 18.02,10.69 17.98,8.99 17.93,7.30 17.80,6.20 17.68,5.09 17.19,3.25 16.70,1.41 16.24,-0.48 15.78,-2.37 14.91,-3.33 14.03,-4.28 12.97,-4.32 11.91,-4.36 10.81,-4.38 9.71,-4.41 8.43,-4.00 7.14,-3.59 5.80,-2.43 4.46,-1.28 3.11,0.24 1.76,1.76 1.53,1.95 1.29,2.13 1.01,2.26 0.74,2.38 0.44,2.44 0.15,2.49 -0.14,2.47 -0.45,2.45 -0.73,2.36 -1.02,2.27 -1.28,2.12 -1.54,1.96 -1.75,1.75 -1.96,1.54 -2.12,1.28 -2.27,1.02 -2.36,0.73 -2.45,0.45 -2.47,0.14 -2.49,-0.15 -2.44,-0.44 -2.38,-0.74 -2.26,-1.01 -2.13,-1.29 -1.95,-1.53 -1.76,-1.76 -1.76,-1.76 L -1.76,-1.76 Z"></path></g><g transform="translate(82 345) rotate(0 3.5 8.5)" stroke="none"><path fill="#1e1e1e" d="M 0.84,-2.53 Q 0.84,-2.53 1.71,-2.28 2.59,-2.02 3.65,-1.59 4.72,-1.15 5.74,-0.47 6.76,0.20 7.52,1.52 8.27,2.83 8.59,4.36 8.91,5.90 9.39,7.68 9.87,9.45 10.01,10.77 10.15,12.08 10.20,14.54 10.25,16.99 10.17,17.51 10.08,18.03 9.84,18.50 9.59,18.96 9.21,19.33 8.83,19.69 8.35,19.91 7.87,20.13 7.35,20.19 6.82,20.25 6.31,20.14 5.79,20.02 5.34,19.75 4.89,19.48 4.55,19.08 4.21,18.68 4.01,18.19 3.82,17.70 3.79,17.17 3.76,16.65 3.90,16.14 4.04,15.63 4.33,15.19 4.63,14.76 5.05,14.44 5.47,14.12 5.96,13.95 6.46,13.78 6.99,13.78 7.52,13.78 8.02,13.95 8.52,14.12 8.94,14.43 9.36,14.75 9.65,15.19 9.95,15.62 10.09,16.13 10.23,16.64 10.20,17.16 10.18,17.69 9.98,18.18 9.79,18.67 9.45,19.07 9.11,19.47 8.66,19.75 8.20,20.02 7.69,20.13 7.18,20.25 6.65,20.19 6.13,20.13 5.65,19.91 5.17,19.69 4.79,19.33 4.40,18.97 4.16,18.50 3.91,18.04 3.82,17.52 3.74,17.00 3.74,17.00 3.74,17.00 3.75,14.68 3.77,12.36 3.72,11.12 3.67,9.89 3.29,8.65 2.92,7.40 3.06,5.91 3.19,4.42 2.02,3.80 0.85,3.17 0.00,2.85 -0.84,2.53 -1.13,2.40 -1.42,2.26 -1.67,2.05 -1.92,1.85 -2.12,1.59 -2.31,1.33 -2.44,1.04 -2.57,0.74 -2.62,0.42 -2.67,0.10 -2.64,-0.21 -2.62,-0.53 -2.52,-0.84 -2.41,-1.14 -2.24,-1.41 -2.07,-1.69 -1.84,-1.91 -1.60,-2.13 -1.32,-2.30 -1.05,-2.46 -0.74,-2.55 -0.43,-2.64 -0.10,-2.65 0.21,-2.66 0.53,-2.60 0.84,-2.53 0.84,-2.53 L 0.84,-2.53 Z"></path></g><g transform="translate(114 339) rotate(0 -6 7)" stroke="none"><path fill="#1e1e1e" d="M 1.03,0.34 Q 1.03,0.34 0.40,2.05 -0.22,3.75 -0.82,4.83 -1.42,5.90 -1.94,7.14 -2.47,8.38 -3.01,9.28 -3.55,10.18 -4.05,10.88 -4.56,11.58 -5.05,12.18 -5.54,12.77 -6.22,13.69 -6.90,14.62 -7.49,14.80 -8.09,14.99 -8.98,15.04 -9.86,15.08 -10.76,14.75 -11.65,14.41 -12.16,13.83 -12.66,13.24 -12.87,12.61 -13.08,11.97 -13.16,11.40 -13.24,10.84 -13.30,9.79 -13.36,8.75 -13.35,7.46 -13.34,6.16 -13.27,5.38 -13.21,4.59 -12.72,3.95 -12.24,3.31 -11.24,3.06 -10.24,2.81 -9.27,2.80 -8.30,2.79 -7.40,3.10 -6.49,3.42 -5.29,3.90 -4.09,4.38 -2.09,5.67 -0.10,6.96 0.03,7.13 0.18,7.30 0.26,7.51 0.34,7.71 0.35,7.94 0.35,8.16 0.29,8.37 0.23,8.58 0.11,8.76 -0.01,8.95 -0.19,9.08 -0.37,9.21 -0.58,9.28 -0.79,9.35 -1.01,9.35 -1.23,9.34 -1.44,9.27 -1.65,9.20 -1.82,9.06 -2.00,8.93 -2.12,8.74 -2.24,8.56 -2.30,8.34 -2.36,8.13 -2.34,7.91 -2.33,7.69 -2.25,7.48 -2.16,7.28 -2.02,7.11 -1.87,6.94 -1.68,6.83 -1.49,6.72 -1.27,6.67 -1.05,6.63 -0.83,6.65 -0.61,6.68 -0.41,6.77 -0.21,6.87 -0.06,7.02 0.09,7.18 0.20,7.37 0.30,7.57 0.33,7.79 0.36,8.01 0.33,8.23 0.29,8.45 0.18,8.64 0.08,8.84 -0.08,8.99 -0.24,9.14 -0.44,9.23 -0.64,9.32 -0.86,9.34 -1.08,9.36 -1.30,9.31 -1.52,9.26 -1.70,9.15 -1.89,9.03 -1.89,9.03 -1.89,9.03 -3.01,8.05 -4.13,7.07 -5.13,6.58 -6.12,6.09 -7.19,5.72 -8.27,5.34 -9.46,5.75 -10.64,6.16 -10.62,7.43 -10.60,8.71 -10.61,9.64 -10.61,10.58 -10.59,11.26 -10.56,11.94 -10.21,12.36 -9.87,12.79 -8.70,12.76 -7.54,12.73 -7.25,12.15 -6.96,11.56 -6.45,11.03 -5.94,10.50 -5.45,9.92 -4.95,9.33 -4.48,8.55 -4.00,7.77 -3.50,6.42 -3.00,5.08 -2.53,4.11 -2.07,3.14 -1.55,1.39 -1.03,-0.34 -0.97,-0.46 -0.91,-0.58 -0.83,-0.68 -0.75,-0.78 -0.64,-0.86 -0.54,-0.94 -0.42,-0.99 -0.30,-1.04 -0.17,-1.06 -0.04,-1.08 0.08,-1.07 0.21,-1.06 0.34,-1.02 0.46,-0.98 0.57,-0.91 0.68,-0.84 0.77,-0.74 0.86,-0.65 0.93,-0.54 1.00,-0.42 1.03,-0.30 1.07,-0.17 1.07,-0.04 1.08,0.08 1.05,0.21 1.03,0.34 1.03,0.34 L 1.03,0.34 Z"></path></g><g transform="translate(319.75 223.38671875) rotate(0 0.00005000000000165983 0.00005000000000165983)" stroke="none"><path fill="#1e1e1e" d="M 0.78,-0.78 Q 0.78,-0.78 0.89,-0.63 0.99,-0.49 1.04,-0.32 1.10,-0.14 1.09,0.02 1.09,0.20 1.02,0.37 0.96,0.54 0.85,0.68 0.74,0.82 0.59,0.92 0.43,1.02 0.26,1.06 0.09,1.10 -0.08,1.09 -0.26,1.07 -0.43,1.00 -0.59,0.93 -0.73,0.81 -0.86,0.69 -0.95,0.53 -1.04,0.38 -1.07,0.20 -1.10,0.03 -1.08,-0.14 -1.06,-0.32 -0.98,-0.48 -0.90,-0.64 -0.77,-0.77 -0.64,-0.90 -0.48,-0.98 -0.32,-1.06 -0.14,-1.08 0.03,-1.10 0.20,-1.07 0.38,-1.04 0.53,-0.95 0.69,-0.86 0.81,-0.73 0.93,-0.59 1.00,-0.43 1.07,-0.26 1.09,-0.08 1.10,0.09 1.06,0.26 1.01,0.43 0.92,0.59 0.82,0.74 0.68,0.85 0.54,0.96 0.37,1.02 0.20,1.09 0.02,1.09 -0.15,1.10 -0.32,1.04 -0.49,0.99 -0.63,0.88 -0.78,0.78 -0.78,0.78 -0.78,0.78 -0.86,0.67 -0.95,0.57 -1.00,0.45 -1.06,0.33 -1.08,0.19 -1.10,0.06 -1.10,-0.06 -1.09,-0.20 -1.05,-0.32 -1.01,-0.45 -0.94,-0.57 -0.87,-0.68 -0.77,-0.77 -0.68,-0.87 -0.57,-0.94 -0.45,-1.01 -0.32,-1.05 -0.20,-1.09 -0.06,-1.10 0.06,-1.10 0.19,-1.08 0.33,-1.06 0.45,-1.00 0.57,-0.95 0.67,-0.86 0.78,-0.78 0.78,-0.78 L 0.78,-0.78 Z"></path></g><g transform="translate(451.25 245.38671875) rotate(0 0.00004999999998744897 0.00005000000000165983)" stroke="none"><path fill="#1e1e1e" d="M 0.78,-0.78 Q 0.78,-0.78 0.89,-0.63 0.99,-0.49 1.04,-0.32 1.10,-0.14 1.09,0.02 1.09,0.20 1.02,0.37 0.96,0.54 0.85,0.68 0.74,0.82 0.59,0.92 0.43,1.02 0.26,1.06 0.09,1.10 -0.08,1.09 -0.26,1.07 -0.43,1.00 -0.59,0.93 -0.73,0.81 -0.86,0.69 -0.95,0.53 -1.04,0.38 -1.07,0.20 -1.10,0.03 -1.08,-0.14 -1.06,-0.32 -0.98,-0.48 -0.90,-0.64 -0.77,-0.77 -0.64,-0.90 -0.48,-0.98 -0.32,-1.06 -0.14,-1.08 0.03,-1.10 0.20,-1.07 0.38,-1.04 0.53,-0.95 0.69,-0.86 0.81,-0.73 0.93,-0.59 1.00,-0.43 1.07,-0.26 1.09,-0.08 1.10,0.09 1.06,0.26 1.01,0.43 0.92,0.59 0.82,0.74 0.68,0.85 0.54,0.96 0.37,1.02 0.20,1.09 0.02,1.09 -0.15,1.10 -0.32,1.04 -0.49,0.99 -0.63,0.88 -0.78,0.78 -0.78,0.78 -0.78,0.78 -0.86,0.67 -0.95,0.57 -1.00,0.45 -1.06,0.33 -1.08,0.19 -1.10,0.06 -1.10,-0.06 -1.09,-0.20 -1.05,-0.32 -1.01,-0.45 -0.94,-0.57 -0.87,-0.68 -0.77,-0.77 -0.68,-0.87 -0.57,-0.94 -0.45,-1.01 -0.32,-1.05 -0.20,-1.09 -0.06,-1.10 0.06,-1.10 0.19,-1.08 0.33,-1.06 0.45,-1.00 0.57,-0.95 0.67,-0.86 0.78,-0.78 0.78,-0.78 L 0.78,-0.78 Z"></path></g><g transform="translate(268.25 117.88671875) rotate(0 0.00005000000000165983 0.00005000000000165983)" stroke="none"><path fill="#1e1e1e" d="M 0.78,-0.78 Q 0.78,-0.78 0.89,-0.63 0.99,-0.49 1.04,-0.32 1.10,-0.14 1.09,0.02 1.09,0.20 1.02,0.37 0.96,0.54 0.85,0.68 0.74,0.82 0.59,0.92 0.43,1.02 0.26,1.06 0.09,1.10 -0.08,1.09 -0.26,1.07 -0.43,1.00 -0.59,0.93 -0.73,0.81 -0.86,0.69 -0.95,0.53 -1.04,0.38 -1.07,0.20 -1.10,0.03 -1.08,-0.14 -1.06,-0.32 -0.98,-0.48 -0.90,-0.64 -0.77,-0.77 -0.64,-0.90 -0.48,-0.98 -0.32,-1.06 -0.14,-1.08 0.03,-1.10 0.20,-1.07 0.38,-1.04 0.53,-0.95 0.69,-0.86 0.81,-0.73 0.93,-0.59 1.00,-0.43 1.07,-0.26 1.09,-0.08 1.10,0.09 1.06,0.26 1.01,0.43 0.92,0.59 0.82,0.74 0.68,0.85 0.54,0.96 0.37,1.02 0.20,1.09 0.02,1.09 -0.15,1.10 -0.32,1.04 -0.49,0.99 -0.63,0.88 -0.78,0.78 -0.78,0.78 -0.78,0.78 -0.86,0.67 -0.95,0.57 -1.00,0.45 -1.06,0.33 -1.08,0.19 -1.10,0.06 -1.10,-0.06 -1.09,-0.20 -1.05,-0.32 -1.01,-0.45 -0.94,-0.57 -0.87,-0.68 -0.77,-0.77 -0.68,-0.87 -0.57,-0.94 -0.45,-1.01 -0.32,-1.05 -0.20,-1.09 -0.06,-1.10 0.06,-1.10 0.19,-1.08 0.33,-1.06 0.45,-1.00 0.57,-0.95 0.67,-0.86 0.78,-0.78 0.78,-0.78 L 0.78,-0.78 Z"></path></g></svg>