<svg version="1.1" xmlns="http://www.w3.org/2000/svg" viewBox="0 0 822.7512601617073 563.5163891680539" width="822.7512601617073" height="563.5163891680539" class="excalidraw-svg"><!-- svg-source:excalidraw --><metadata></metadata><defs><style class="style-fonts">
      </style></defs><rect x="0" y="0" width="822.7512601617073" height="563.5163891680539" fill="#ffffff"></rect><g stroke-linecap="round"><g transform="translate(9.75126016170725 329) rotate(0 311.8572217339976 -3.571901654452086)"><path d="M1.12 -0.32 C105.04 -1.48, 519.98 -5.9, 623.47 -6.82 M0.25 -1.54 C104.06 -2.58, 518.74 -5.23, 622.76 -5.71" stroke="#1e1e1e" stroke-width="2" fill="none"></path></g><g transform="translate(9.75126016170725 329) rotate(0 311.8572217339976 -3.571901654452086)"><path d="M599.32 2.97 C605.64 0.98, 611.69 -4, 622.76 -5.71 M599.32 2.97 C607.46 0.7, 613.91 -3.02, 622.76 -5.71" stroke="#1e1e1e" stroke-width="2" fill="none"></path></g><g transform="translate(9.75126016170725 329) rotate(0 311.8572217339976 -3.571901654452086)"><path d="M599.22 -14.13 C605.6 -11.1, 611.67 -11.07, 622.76 -5.71 M599.22 -14.13 C607.27 -11.04, 613.76 -9.4, 622.76 -5.71" stroke="#1e1e1e" stroke-width="2" fill="none"></path></g></g><mask></mask><g stroke-linecap="round"><g transform="translate(307.75126016170725 553) rotate(0 0.0401351171412454 -268.17726223394277)"><path d="M0.72 0.52 C0.83 -88.79, 0.19 -447.6, 0.22 -536.87 M-0.37 -0.26 C-0.35 -89.35, -0.78 -446.33, -0.61 -535.79" stroke="#1e1e1e" stroke-width="2" fill="none"></path></g><g transform="translate(307.75126016170725 553) rotate(0 0.0401351171412454 -268.17726223394277)"><path d="M7.94 -512.3 C6.78 -517.98, 2.25 -522.91, -0.61 -535.79 M7.94 -512.3 C3.75 -520.33, 1.84 -530.59, -0.61 -535.79" stroke="#1e1e1e" stroke-width="2" fill="none"></path></g><g transform="translate(307.75126016170725 553) rotate(0 0.0401351171412454 -268.17726223394277)"><path d="M-9.16 -512.3 C-5.88 -518.08, -5.97 -523.01, -0.61 -535.79 M-9.16 -512.3 C-6.98 -520.46, -2.51 -530.73, -0.61 -535.79" stroke="#1e1e1e" stroke-width="2" fill="none"></path></g></g><mask></mask><g transform="translate(220.75126016170725 483) rotate(0 153.5 -131)" stroke="none"><path fill="#2f9e44" d="M -5.10,0 Q -5.10,0 -5.12,-2.60 -5.14,-5.21 -4.53,-8.09 -3.92,-10.96 -3.06,-15.14 -2.20,-19.33 -1.28,-21.67 -0.35,-24.01 1.15,-27.97 2.66,-31.94 3.53,-33.99 4.41,-36.03 5.38,-38.51 6.35,-41.00 7.79,-43.81 9.24,-46.63 10.33,-49.21 11.42,-51.80 13.29,-54.96 15.15,-58.12 16.02,-60.85 16.89,-63.58 17.64,-66.76 18.38,-69.93 19.72,-73.62 21.07,-77.31 22.51,-80.44 23.96,-83.56 24.73,-86.44 25.49,-89.32 26.11,-92.32 26.73,-95.31 27.60,-98.50 28.48,-101.68 29.17,-105.06 29.86,-108.44 30.76,-111.85 31.65,-115.26 32.20,-117.58 32.74,-119.91 33.54,-124.42 34.33,-128.93 35.59,-131.72 36.85,-134.51 38.39,-139.31 39.92,-144.11 40.92,-146.90 41.91,-149.70 43.32,-152.36 44.72,-155.03 46.33,-159.27 47.93,-163.50 49.34,-167.38 50.74,-171.26 51.85,-173.12 52.96,-174.98 55.11,-179.13 57.25,-183.28 58.40,-185.23 59.54,-187.18 61.94,-191.20 64.34,-195.21 65.32,-197.17 66.29,-199.14 67.79,-201.50 69.28,-203.87 70.34,-205.78 71.40,-207.70 73.01,-211.09 74.62,-214.48 76.55,-218.03 78.48,-221.58 80.68,-225.87 82.87,-230.16 84.80,-233.69 86.72,-237.23 88.01,-240.46 89.30,-243.69 91.45,-247.10 93.59,-250.51 94.99,-253.08 96.38,-255.66 97.94,-257.45 99.50,-259.24 101.06,-261.97 102.61,-264.70 104.62,-266.71 106.62,-268.73 108.36,-270.17 110.10,-271.62 113.10,-273.85 116.09,-276.07 118.15,-277.63 120.20,-279.20 122.71,-280.26 125.23,-281.32 128.55,-281.80 131.87,-282.27 134.78,-282.95 137.70,-283.63 141.71,-284.34 145.73,-285.04 148.73,-285.23 151.73,-285.42 154.57,-285.86 157.41,-286.29 159.85,-286.44 162.29,-286.58 165.20,-286.62 168.12,-286.65 170.32,-286.69 172.51,-286.73 174.98,-286.32 177.44,-285.91 179.74,-284.99 182.03,-284.07 184.35,-283.48 186.67,-282.89 188.65,-281.75 190.64,-280.62 193.69,-279.15 196.73,-277.68 198.63,-276.00 200.53,-274.31 203.31,-270.00 206.09,-265.69 207.14,-263.45 208.19,-261.21 210.56,-257.19 212.92,-253.17 214.07,-251.31 215.21,-249.45 216.61,-247.02 218.01,-244.60 219.60,-241.86 221.19,-239.11 222.56,-236.65 223.93,-234.19 224.97,-231.32 226.01,-228.45 227.22,-226.47 228.43,-224.50 230.08,-221.72 231.74,-218.93 233.33,-216.24 234.93,-213.55 236.31,-210.79 237.68,-208.03 238.97,-206.02 240.27,-204.01 241.90,-199.42 243.54,-194.82 244.64,-192.18 245.74,-189.53 246.77,-186.27 247.80,-183.01 248.81,-180.71 249.82,-178.40 250.85,-176.32 251.89,-174.24 252.96,-171.82 254.03,-169.41 254.88,-166.71 255.73,-164.01 256.58,-161.30 257.44,-158.59 258.36,-156.07 259.29,-153.56 260.45,-150.87 261.61,-148.18 262.55,-145.28 263.49,-142.37 264.40,-139.92 265.31,-137.47 266.28,-135.00 267.25,-132.52 268.05,-130.17 268.85,-127.82 270.28,-123.76 271.71,-119.70 272.56,-116.92 273.41,-114.14 274.17,-112.00 274.94,-109.86 276.23,-106.56 277.51,-103.25 279.02,-99.50 280.53,-95.75 281.12,-93.64 281.72,-91.53 282.26,-89.11 282.81,-86.68 284.36,-83.03 285.90,-79.37 286.87,-76.20 287.84,-73.02 288.74,-70.82 289.64,-68.62 290.63,-66.15 291.61,-63.67 292.82,-60.73 294.02,-57.79 295.24,-53.64 296.45,-49.49 297.29,-46.74 298.13,-43.98 298.45,-41.65 298.76,-39.32 299.35,-36.49 299.94,-33.66 300.84,-30.47 301.75,-27.27 302.38,-24.43 303.01,-21.58 303.61,-19.12 304.20,-16.67 305.47,-11.34 306.74,-6.01 307.52,-3.48 308.30,-0.95 309.31,1.61 310.31,4.18 311.85,7.81 313.39,11.43 313.79,13.28 314.20,15.13 314.50,16.19 314.80,17.26 314.73,18.36 314.67,19.47 314.26,20.50 313.85,21.52 313.14,22.37 312.42,23.21 311.47,23.78 310.52,24.35 309.44,24.59 308.36,24.82 307.26,24.70 306.16,24.58 305.16,24.12 304.15,23.65 303.35,22.89 302.55,22.13 302.03,21.15 301.51,20.18 301.33,19.08 301.16,17.99 301.33,16.90 301.51,15.81 302.03,14.83 302.55,13.85 303.36,13.09 304.16,12.33 305.16,11.87 306.17,11.40 307.27,11.28 308.37,11.17 309.45,11.40 310.53,11.64 311.48,12.21 312.43,12.78 313.14,13.63 313.86,14.47 314.27,15.50 314.68,16.53 314.74,17.63 314.79,18.74 314.50,19.81 314.20,20.87 313.58,21.79 312.96,22.70 312.08,23.37 311.19,24.04 310.15,24.39 309.10,24.75 307.99,24.74 306.88,24.74 305.84,24.39 304.79,24.04 303.91,23.37 303.03,22.70 302.41,21.78 301.79,20.86 301.79,20.86 301.79,20.86 300.76,16.24 299.73,11.61 298.06,7.47 296.39,3.33 295.59,0.35 294.79,-2.61 293.93,-5.14 293.06,-7.67 292.23,-12.02 291.40,-16.37 290.83,-18.77 290.27,-21.17 289.71,-24.09 289.14,-27.01 288.30,-30.53 287.45,-34.05 286.98,-37.33 286.51,-40.60 285.65,-44.21 284.78,-47.81 284.26,-50.29 283.74,-52.78 282.59,-56.17 281.44,-59.56 280.44,-61.97 279.43,-64.39 278.37,-66.95 277.30,-69.50 276.34,-72.10 275.38,-74.70 274.41,-76.92 273.44,-79.13 272.54,-81.64 271.63,-84.14 271.13,-86.34 270.63,-88.53 269.68,-92.21 268.73,-95.89 267.80,-97.95 266.88,-100.01 265.90,-103.26 264.92,-106.51 264.24,-108.68 263.57,-110.85 262.22,-115.47 260.87,-120.10 259.97,-122.42 259.07,-124.74 258.47,-126.84 257.88,-128.93 256.91,-131.51 255.94,-134.09 255.00,-136.76 254.06,-139.43 253.35,-141.81 252.64,-144.19 251.27,-147.17 249.90,-150.15 248.93,-152.86 247.96,-155.58 247.05,-158.40 246.15,-161.21 245.57,-163.41 245.00,-165.60 244.07,-167.93 243.14,-170.26 242.17,-172.58 241.20,-174.91 240.20,-177.56 239.20,-180.21 238.20,-183.19 237.21,-186.17 236.25,-188.75 235.29,-191.32 233.44,-194.95 231.58,-198.59 230.08,-201.04 228.57,-203.50 227.41,-205.84 226.25,-208.17 224.60,-210.71 222.96,-213.26 221.03,-216.02 219.09,-218.78 216.62,-223.69 214.14,-228.61 212.87,-230.75 211.60,-232.90 209.67,-235.58 207.74,-238.26 206.26,-240.48 204.79,-242.70 202.31,-246.74 199.83,-250.77 198.17,-252.99 196.51,-255.20 195.34,-257.31 194.16,-259.42 192.51,-261.78 190.87,-264.14 188.76,-265.93 186.65,-267.72 183.20,-269.22 179.75,-270.73 176.20,-271.81 172.66,-272.89 170.41,-273.11 168.16,-273.32 165.37,-273.33 162.58,-273.34 159.54,-273.25 156.51,-273.17 152.99,-272.81 149.48,-272.45 146.98,-272.28 144.47,-272.11 140.47,-271.18 136.47,-270.25 132.88,-269.86 129.28,-269.46 127.11,-268.68 124.94,-267.90 122.48,-266.44 120.01,-264.99 117.24,-262.77 114.47,-260.56 112.07,-257.89 109.67,-255.22 107.65,-252.94 105.64,-250.67 104.35,-248.06 103.06,-245.46 100.77,-240.34 98.48,-235.22 96.68,-231.95 94.89,-228.68 93.86,-226.55 92.83,-224.41 91.66,-222.28 90.49,-220.14 88.61,-216.36 86.74,-212.58 84.90,-209.34 83.06,-206.10 82.13,-204.16 81.20,-202.23 79.97,-200.05 78.74,-197.87 77.55,-196.00 76.36,-194.13 73.88,-189.78 71.41,-185.44 69.19,-181.67 66.96,-177.90 65.79,-175.73 64.61,-173.56 63.42,-171.19 62.24,-168.82 60.64,-166.09 59.03,-163.35 57.31,-159.56 55.58,-155.77 54.55,-152.98 53.51,-150.19 52.38,-148.27 51.24,-146.35 50.32,-143.77 49.39,-141.19 48.49,-138.13 47.59,-135.08 46.65,-132.69 45.72,-130.30 43.98,-126.28 42.24,-122.27 41.78,-119.85 41.33,-117.44 40.57,-115.28 39.82,-113.12 39.02,-110.02 38.21,-106.93 37.60,-103.12 36.98,-99.30 36.16,-96.40 35.33,-93.50 34.64,-90.28 33.95,-87.07 32.98,-83.45 32.02,-79.83 30.75,-77.15 29.49,-74.47 28.51,-71.25 27.53,-68.02 26.87,-64.41 26.21,-60.79 25.12,-57.01 24.03,-53.24 22.65,-50.55 21.27,-47.87 20.12,-44.83 18.98,-41.78 17.87,-39.47 16.76,-37.16 15.79,-34.35 14.81,-31.54 13.07,-27.91 11.33,-24.27 10.56,-22.04 9.80,-19.81 8.38,-16.19 6.97,-12.58 6.05,-8.85 5.14,-5.13 5.12,-2.56 5.10,0 5.02,0.61 4.95,1.22 4.73,1.79 4.51,2.37 4.16,2.87 3.81,3.38 3.35,3.79 2.89,4.19 2.35,4.48 1.80,4.77 1.21,4.91 0.61,5.06 -0.00,5.06 -0.61,5.06 -1.21,4.91 -1.80,4.77 -2.35,4.48 -2.89,4.19 -3.35,3.79 -3.81,3.38 -4.16,2.87 -4.51,2.37 -4.73,1.79 -4.95,1.22 -5.02,0.60 -5.10,-0.00 -5.10,-0.00 L -5.10,0 Z"></path></g><g transform="translate(278.75126016170725 226) rotate(0 0 15)" stroke="none"><path fill="#1e1e1e" d="M 5.20,0 Q 5.20,0 5.21,2.58 5.23,5.17 5.24,7.71 5.26,10.24 5.42,13.05 5.58,15.86 5.73,18.01 5.89,20.15 6.02,22.45 6.16,24.75 6.22,27.37 6.28,30 6.12,31.00 5.95,32.00 5.48,32.90 5.00,33.80 4.26,34.50 3.52,35.20 2.60,35.62 1.68,36.05 0.67,36.16 -0.34,36.27 -1.33,36.05 -2.32,35.83 -3.19,35.31 -4.06,34.79 -4.72,34.01 -5.38,33.24 -5.76,32.29 -6.13,31.35 -6.19,30.33 -6.24,29.31 -5.97,28.33 -5.70,27.36 -5.13,26.51 -4.56,25.67 -3.75,25.06 -2.94,24.44 -1.97,24.12 -1.01,23.79 0.00,23.79 1.01,23.79 1.98,24.12 2.94,24.44 3.75,25.06 4.56,25.67 5.13,26.52 5.70,27.36 5.97,28.34 6.24,29.32 6.19,30.33 6.13,31.35 5.76,32.29 5.38,33.24 4.72,34.01 4.06,34.79 3.19,35.31 2.32,35.83 1.33,36.05 0.33,36.27 -0.67,36.16 -1.68,36.05 -2.60,35.62 -3.52,35.20 -4.26,34.50 -5.00,33.80 -5.48,32.90 -5.95,32.00 -6.12,31.00 -6.28,29.99 -6.28,29.99 -6.28,30 -6.22,27.37 -6.16,24.75 -6.02,22.45 -5.89,20.15 -5.73,18.01 -5.58,15.86 -5.42,13.05 -5.26,10.24 -5.24,7.71 -5.23,5.17 -5.21,2.58 -5.20,0 -5.13,-0.62 -5.05,-1.24 -4.83,-1.83 -4.60,-2.41 -4.25,-2.93 -3.89,-3.45 -3.42,-3.86 -2.95,-4.28 -2.40,-4.57 -1.84,-4.86 -1.23,-5.01 -0.62,-5.16 0.00,-5.16 0.62,-5.16 1.23,-5.01 1.84,-4.86 2.40,-4.57 2.95,-4.28 3.42,-3.86 3.89,-3.45 4.25,-2.93 4.60,-2.41 4.83,-1.83 5.05,-1.24 5.13,-0.62 5.20,0.00 5.20,0.00 L 5.20,0 Z"></path></g><g transform="translate(555.7512601617073 460) rotate(0 8 8)" stroke="none"><path fill="#2f9e44" d="M 1.95,-1.46 Q 1.95,-1.46 3.55,0.92 5.16,3.31 6.37,4.87 7.58,6.43 8.27,7.45 8.97,8.47 9.84,9.32 10.71,10.17 12.07,11.06 13.43,11.95 15.18,12.74 16.94,13.53 17.31,13.75 17.67,13.96 17.95,14.29 18.23,14.61 18.40,15.00 18.56,15.39 18.59,15.82 18.62,16.24 18.51,16.66 18.40,17.07 18.17,17.42 17.93,17.78 17.60,18.04 17.26,18.31 16.86,18.45 16.46,18.59 16.03,18.59 15.60,18.60 15.20,18.47 14.79,18.34 14.45,18.09 14.11,17.83 13.86,17.48 13.62,17.13 13.50,16.72 13.38,16.31 13.40,15.89 13.41,15.46 13.57,15.07 13.72,14.67 13.99,14.34 14.26,14.01 14.63,13.79 14.99,13.56 15.40,13.46 15.82,13.37 16.24,13.41 16.67,13.45 17.06,13.62 17.44,13.80 17.76,14.08 18.07,14.37 18.28,14.75 18.48,15.12 18.55,15.54 18.63,15.96 18.57,16.38 18.50,16.80 18.31,17.18 18.11,17.56 17.81,17.86 17.50,18.16 17.12,18.34 16.73,18.52 16.31,18.58 15.89,18.63 15.47,18.54 15.05,18.45 15.05,18.46 15.05,18.46 11.80,16.38 8.55,14.30 7.66,13.20 6.77,12.11 5.66,10.54 4.55,8.97 3.14,7.43 1.73,5.88 -0.10,3.67 -1.95,1.46 -2.09,1.20 -2.24,0.95 -2.32,0.67 -2.40,0.38 -2.41,0.09 -2.42,-0.19 -2.37,-0.48 -2.31,-0.77 -2.18,-1.03 -2.05,-1.30 -1.87,-1.53 -1.68,-1.75 -1.45,-1.93 -1.21,-2.11 -0.94,-2.22 -0.67,-2.34 -0.38,-2.38 -0.09,-2.43 0.19,-2.41 0.49,-2.38 0.76,-2.29 1.04,-2.20 1.29,-2.04 1.54,-1.88 1.74,-1.67 1.95,-1.46 1.95,-1.46 L 1.95,-1.46 Z"></path></g><g transform="translate(574.7512601617073 460) rotate(0 -7 24)" stroke="none"><path fill="#2f9e44" d="M 2.23,0 Q 2.23,0 2.10,2.58 1.98,5.17 1.63,7.27 1.28,9.37 0.81,11.39 0.34,13.42 0.21,15.04 0.08,16.66 0.05,18.22 0.01,19.77 -0.62,21.61 -1.27,23.44 -1.43,25.12 -1.58,26.81 -2.26,29.28 -2.93,31.74 -3.90,34.22 -4.88,36.69 -5.48,38.45 -6.09,40.22 -6.47,41.23 -6.84,42.24 -7.40,43.25 -7.96,44.26 -9.85,47.01 -11.73,49.75 -12.07,50.06 -12.41,50.38 -12.83,50.57 -13.25,50.76 -13.71,50.80 -14.18,50.85 -14.63,50.75 -15.08,50.64 -15.47,50.40 -15.87,50.16 -16.16,49.80 -16.46,49.45 -16.63,49.02 -16.79,48.58 -16.82,48.12 -16.84,47.66 -16.71,47.22 -16.58,46.77 -16.32,46.39 -16.05,46.01 -15.68,45.73 -15.31,45.46 -14.87,45.31 -14.43,45.17 -13.97,45.17 -13.51,45.18 -13.07,45.33 -12.63,45.48 -12.27,45.76 -11.90,46.05 -11.64,46.43 -11.39,46.82 -11.27,47.26 -11.15,47.71 -11.18,48.17 -11.21,48.64 -11.38,49.06 -11.56,49.49 -11.86,49.84 -12.16,50.19 -12.56,50.43 -12.96,50.66 -13.41,50.76 -13.87,50.85 -14.33,50.80 -14.79,50.74 -15.20,50.55 -15.62,50.35 -15.96,50.03 -16.29,49.71 -16.50,49.29 -16.71,48.88 -16.78,48.43 -16.86,47.97 -16.78,47.51 -16.70,47.06 -16.48,46.65 -16.26,46.24 -16.26,46.24 -16.26,46.24 -14.86,44.29 -13.46,42.34 -12.62,41.31 -11.78,40.28 -10.90,38.52 -10.02,36.76 -9.00,34.72 -7.98,32.68 -7.64,31.32 -7.30,29.96 -6.69,28.13 -6.08,26.30 -5.87,25.17 -5.66,24.05 -5.29,23.03 -4.92,22.00 -4.36,20.76 -3.79,19.53 -3.68,17.91 -3.56,16.29 -3.35,14.50 -3.13,12.70 -2.78,10.76 -2.43,8.82 -2.21,6.99 -1.98,5.17 -2.10,2.58 -2.23,0 -2.19,-0.26 -2.16,-0.53 -2.07,-0.78 -1.97,-1.03 -1.82,-1.25 -1.66,-1.47 -1.46,-1.65 -1.26,-1.83 -1.02,-1.96 -0.79,-2.08 -0.52,-2.14 -0.26,-2.21 0.00,-2.21 0.26,-2.21 0.52,-2.14 0.79,-2.08 1.02,-1.96 1.26,-1.83 1.46,-1.65 1.66,-1.47 1.82,-1.25 1.97,-1.03 2.07,-0.78 2.16,-0.53 2.19,-0.26 2.23,0.00 2.23,0.00 L 2.23,0 Z"></path></g><g transform="translate(585.7512601617073 472) rotate(0 6.5 2)" stroke="none"><path fill="#2f9e44" d="M 0.49,-2.49 Q 0.49,-2.49 1.94,-2.19 3.38,-1.88 4.56,-1.42 5.74,-0.96 6.91,-0.54 8.07,-0.12 9.10,0.42 10.14,0.97 11.71,1.11 13.28,1.25 13.71,1.37 14.14,1.49 14.51,1.74 14.88,1.98 15.15,2.34 15.42,2.69 15.57,3.11 15.71,3.54 15.71,3.98 15.72,4.43 15.58,4.85 15.44,5.27 15.17,5.63 14.90,5.99 14.53,6.24 14.16,6.49 13.74,6.61 13.31,6.73 12.86,6.71 12.42,6.69 12.00,6.53 11.59,6.36 11.25,6.08 10.90,5.79 10.67,5.41 10.44,5.03 10.34,4.59 10.24,4.16 10.29,3.71 10.34,3.27 10.52,2.87 10.71,2.46 11.01,2.14 11.32,1.81 11.71,1.60 12.10,1.39 12.54,1.31 12.98,1.24 13.42,1.31 13.86,1.38 14.26,1.59 14.65,1.79 14.96,2.12 15.27,2.44 15.46,2.84 15.65,3.24 15.70,3.69 15.75,4.13 15.65,4.57 15.56,5.00 15.33,5.39 15.10,5.77 14.77,6.06 14.43,6.35 14.01,6.52 13.60,6.68 13.16,6.71 12.71,6.74 12.71,6.74 12.71,6.74 9.48,5.74 6.24,4.75 4.30,3.89 2.36,3.03 0.93,2.76 -0.49,2.49 -0.78,2.39 -1.07,2.29 -1.33,2.13 -1.59,1.97 -1.81,1.75 -2.02,1.53 -2.17,1.26 -2.33,1.00 -2.41,0.71 -2.50,0.41 -2.51,0.11 -2.53,-0.19 -2.47,-0.49 -2.41,-0.79 -2.28,-1.07 -2.15,-1.34 -1.95,-1.58 -1.76,-1.82 -1.52,-2.01 -1.27,-2.19 -0.99,-2.31 -0.71,-2.43 -0.41,-2.48 -0.11,-2.53 0.19,-2.51 0.49,-2.49 0.49,-2.49 L 0.49,-2.49 Z"></path></g><g transform="translate(584.7512601617073 482) rotate(0 7.5 3.5)" stroke="none"><path fill="#2f9e44" d="M 1.42,-2.13 Q 1.42,-2.13 3.06,-0.85 4.70,0.41 5.80,1.19 6.89,1.98 8.35,2.52 9.80,3.07 11.18,3.60 12.55,4.14 13.92,4.18 15.28,4.22 15.72,4.34 16.16,4.45 16.53,4.71 16.91,4.96 17.18,5.32 17.46,5.67 17.60,6.10 17.75,6.53 17.75,6.98 17.75,7.43 17.61,7.86 17.47,8.29 17.20,8.65 16.93,9.01 16.55,9.27 16.18,9.52 15.75,9.65 15.31,9.77 14.86,9.75 14.41,9.73 13.99,9.56 13.57,9.40 13.22,9.10 12.87,8.81 12.64,8.43 12.41,8.04 12.31,7.60 12.21,7.16 12.25,6.71 12.30,6.26 12.49,5.85 12.68,5.44 12.99,5.11 13.29,4.78 13.69,4.57 14.09,4.35 14.54,4.28 14.98,4.20 15.43,4.27 15.87,4.34 16.27,4.55 16.67,4.76 16.99,5.09 17.30,5.42 17.49,5.83 17.68,6.24 17.73,6.68 17.78,7.13 17.69,7.58 17.59,8.02 17.36,8.41 17.13,8.79 16.79,9.09 16.45,9.38 16.03,9.55 15.61,9.72 15.16,9.75 14.71,9.77 14.71,9.77 14.71,9.77 12.23,9.27 9.75,8.78 8.67,8.22 7.59,7.66 5.83,6.69 4.08,5.72 3.13,4.95 2.19,4.18 0.38,3.15 -1.42,2.13 -1.65,1.92 -1.88,1.72 -2.06,1.47 -2.24,1.22 -2.36,0.93 -2.47,0.65 -2.51,0.34 -2.56,0.04 -2.52,-0.26 -2.49,-0.57 -2.39,-0.86 -2.28,-1.15 -2.11,-1.41 -1.94,-1.66 -1.71,-1.87 -1.48,-2.08 -1.21,-2.23 -0.94,-2.37 -0.64,-2.45 -0.34,-2.53 -0.04,-2.54 0.26,-2.54 0.56,-2.47 0.86,-2.40 1.14,-2.26 1.42,-2.13 1.42,-2.13 L 1.42,-2.13 Z"></path></g><g transform="translate(617.7512601617073 481) rotate(0 6 0)" stroke="none"><path fill="#2f9e44" d="M 0,-2.62 Q 0,-2.62 1.15,-2.64 2.3,-2.66 3.36,-2.68 4.42,-2.71 6.05,-2.77 7.68,-2.83 9.84,-2.86 12,-2.89 12.46,-2.81 12.92,-2.74 13.33,-2.52 13.75,-2.30 14.07,-1.96 14.39,-1.62 14.59,-1.19 14.78,-0.77 14.83,-0.30 14.89,0.15 14.78,0.61 14.68,1.07 14.44,1.47 14.20,1.87 13.84,2.17 13.49,2.48 13.05,2.65 12.62,2.82 12.15,2.85 11.68,2.87 11.23,2.75 10.78,2.62 10.39,2.36 10.00,2.10 9.72,1.72 9.44,1.35 9.29,0.91 9.14,0.46 9.14,-0.00 9.14,-0.46 9.29,-0.91 9.44,-1.35 9.72,-1.72 10.00,-2.10 10.39,-2.36 10.78,-2.62 11.23,-2.75 11.68,-2.87 12.15,-2.85 12.62,-2.82 13.05,-2.65 13.49,-2.47 13.84,-2.17 14.20,-1.87 14.44,-1.47 14.68,-1.07 14.78,-0.61 14.89,-0.15 14.83,0.30 14.78,0.77 14.59,1.19 14.39,1.62 14.07,1.96 13.75,2.30 13.33,2.52 12.92,2.74 12.46,2.81 11.99,2.89 11.99,2.89 12,2.89 9.84,2.86 7.68,2.83 6.05,2.77 4.42,2.71 3.36,2.68 2.3,2.66 1.15,2.64 0,2.62 -0.31,2.58 -0.62,2.54 -0.92,2.43 -1.21,2.32 -1.47,2.14 -1.73,1.96 -1.94,1.72 -2.15,1.48 -2.30,1.20 -2.45,0.92 -2.52,0.62 -2.60,0.31 -2.60,-0.00 -2.60,-0.31 -2.52,-0.62 -2.45,-0.92 -2.30,-1.20 -2.15,-1.48 -1.94,-1.72 -1.73,-1.96 -1.47,-2.14 -1.21,-2.32 -0.92,-2.43 -0.62,-2.54 -0.31,-2.58 0.00,-2.62 0.00,-2.62 L 0,-2.62 Z"></path></g><g transform="translate(656.7512601617073 455) rotate(0 9.5 22)" stroke="none"><path fill="#2f9e44" d="M 1.98,0 Q 1.98,0 1.89,2.87 1.80,5.75 1.73,8.12 1.67,10.49 1.62,12.65 1.57,14.80 1.53,17.45 1.50,20.09 1.47,22.36 1.45,24.64 1.49,26.46 1.54,28.29 1.64,29.64 1.73,31.00 1.80,32.43 1.87,33.87 1.95,35.06 2.03,36.24 2.17,37.66 2.31,39.07 3.91,40.00 5.51,40.93 7.41,41.02 9.31,41.11 10.64,41.15 11.98,41.20 14.02,40.79 16.06,40.39 16.37,39.85 16.68,39.30 17.01,38.98 17.34,38.65 17.76,38.45 18.18,38.25 18.64,38.19 19.10,38.13 19.55,38.22 20.01,38.31 20.41,38.54 20.81,38.78 21.12,39.12 21.42,39.47 21.60,39.90 21.78,40.33 21.82,40.79 21.85,41.25 21.73,41.70 21.62,42.15 21.36,42.54 21.11,42.93 20.75,43.21 20.38,43.50 19.95,43.66 19.51,43.81 19.05,43.82 18.58,43.83 18.14,43.69 17.70,43.55 17.32,43.28 16.95,43.00 16.68,42.62 16.42,42.25 16.28,41.80 16.15,41.36 16.17,40.89 16.19,40.43 16.35,40.00 16.51,39.56 16.81,39.20 17.10,38.84 17.49,38.60 17.89,38.35 18.34,38.24 18.79,38.14 19.25,38.18 19.71,38.22 20.14,38.41 20.56,38.59 20.90,38.91 21.24,39.22 21.47,39.62 21.69,40.03 21.78,40.49 21.86,40.94 21.79,41.40 21.73,41.86 21.52,42.27 21.31,42.69 21.31,42.69 21.31,42.69 18.11,44.40 14.92,46.11 13.43,46.42 11.93,46.73 10.50,46.73 9.07,46.73 7.71,46.67 6.35,46.61 4.23,45.84 2.11,45.08 0.80,44.10 -0.51,43.12 -1.41,41.10 -2.31,39.07 -2.17,37.66 -2.03,36.24 -1.95,35.06 -1.87,33.87 -1.80,32.43 -1.73,31.00 -1.64,29.64 -1.54,28.29 -1.49,26.46 -1.45,24.64 -1.47,22.36 -1.50,20.09 -1.53,17.45 -1.57,14.80 -1.62,12.65 -1.67,10.49 -1.73,8.12 -1.80,5.75 -1.89,2.87 -1.98,0 -1.95,-0.23 -1.92,-0.47 -1.83,-0.69 -1.75,-0.92 -1.61,-1.11 -1.48,-1.31 -1.30,-1.47 -1.12,-1.63 -0.91,-1.74 -0.70,-1.85 -0.47,-1.91 -0.23,-1.96 0.00,-1.96 0.23,-1.96 0.47,-1.91 0.70,-1.85 0.91,-1.74 1.12,-1.63 1.30,-1.47 1.48,-1.31 1.61,-1.11 1.75,-0.92 1.83,-0.69 1.92,-0.47 1.95,-0.23 1.98,0.00 1.98,0.00 L 1.98,0 Z"></path></g><g transform="translate(645.7512601617073 480) rotate(0 10 1.5)" stroke="none"><path fill="#2f9e44" d="M 0.51,-2.59 Q 0.51,-2.59 1.95,-2.28 3.38,-1.97 5.44,-1.52 7.51,-1.07 8.47,-0.54 9.43,-0.02 10.88,-0.03 12.33,-0.05 13.58,-0.08 14.84,-0.10 17.42,-0.14 20.00,-0.18 20.50,-0.09 21.01,-0.01 21.47,0.22 21.92,0.46 22.27,0.84 22.63,1.21 22.84,1.68 23.06,2.15 23.12,2.66 23.17,3.17 23.06,3.67 22.95,4.17 22.68,4.61 22.42,5.06 22.03,5.39 21.63,5.72 21.16,5.91 20.68,6.10 20.16,6.13 19.65,6.16 19.15,6.02 18.66,5.88 18.23,5.59 17.81,5.30 17.50,4.89 17.18,4.48 17.02,4.00 16.86,3.51 16.86,2.99 16.86,2.48 17.02,1.99 17.19,1.50 17.50,1.09 17.81,0.68 18.23,0.40 18.66,0.11 19.16,-0.02 19.65,-0.16 20.17,-0.13 20.68,-0.10 21.16,0.08 21.64,0.27 22.03,0.60 22.42,0.94 22.69,1.38 22.95,1.82 23.06,2.32 23.17,2.82 23.12,3.34 23.06,3.85 22.84,4.31 22.63,4.78 22.27,5.15 21.92,5.53 21.46,5.77 21.01,6.01 20.50,6.09 19.99,6.18 19.99,6.18 19.99,6.18 18.03,6.16 16.07,6.14 14.64,6.10 13.22,6.06 12.13,5.99 11.04,5.92 9.66,5.69 8.28,5.46 6.97,4.76 5.65,4.06 4.01,3.59 2.36,3.12 0.92,2.85 -0.51,2.59 -0.82,2.49 -1.12,2.39 -1.39,2.22 -1.66,2.05 -1.88,1.82 -2.10,1.59 -2.26,1.32 -2.42,1.04 -2.51,0.74 -2.60,0.43 -2.62,0.11 -2.63,-0.20 -2.57,-0.51 -2.51,-0.82 -2.37,-1.11 -2.23,-1.40 -2.03,-1.65 -1.83,-1.89 -1.58,-2.09 -1.33,-2.28 -1.03,-2.41 -0.74,-2.53 -0.43,-2.58 -0.11,-2.64 0.20,-2.61 0.51,-2.59 0.51,-2.59 L 0.51,-2.59 Z"></path></g><g transform="translate(668.7512601617073 460) rotate(0 5.5 5)" stroke="none"><path fill="#2f9e44" d="M -0.64,-2.56 Q -0.64,-2.56 0.50,-2.86 1.65,-3.16 2.88,-3.34 4.11,-3.52 5.56,-3.67 7.00,-3.82 8.86,-3.74 10.71,-3.67 10.64,-3.55 10.57,-3.43 10.93,-3.39 11.30,-3.35 11.64,-3.22 11.98,-3.09 12.28,-2.89 12.58,-2.69 12.82,-2.42 13.06,-2.14 13.23,-1.82 13.40,-1.50 13.49,-1.15 13.58,-0.80 13.58,-0.44 13.59,-0.07 13.50,0.27 13.42,0.62 13.25,0.95 13.08,1.27 12.84,1.54 12.60,1.82 12.31,2.02 12.01,2.23 11.67,2.36 11.33,2.49 10.97,2.54 10.61,2.59 9.85,3.88 9.08,5.17 8.06,6.27 7.04,7.37 8.86,7.53 10.67,7.70 11.18,7.90 11.69,8.09 12.11,8.44 12.53,8.78 12.81,9.24 13.10,9.71 13.22,10.24 13.35,10.77 13.30,11.31 13.25,11.85 13.03,12.35 12.80,12.84 12.44,13.24 12.07,13.64 11.59,13.90 11.11,14.17 10.58,14.26 10.04,14.36 9.50,14.28 8.97,14.20 8.48,13.95 8.00,13.70 7.62,13.31 7.24,12.92 7.00,12.43 6.77,11.94 6.70,11.40 6.64,10.86 6.74,10.33 6.85,9.79 7.13,9.32 7.40,8.85 7.81,8.50 8.22,8.14 8.72,7.93 9.23,7.72 9.77,7.68 10.31,7.65 10.84,7.79 11.36,7.92 11.82,8.22 12.27,8.52 12.61,8.95 12.94,9.38 13.12,9.89 13.31,10.40 13.31,10.95 13.32,11.49 13.15,12.01 12.99,12.53 12.66,12.97 12.34,13.40 11.90,13.71 11.45,14.03 10.93,14.18 10.41,14.33 9.86,14.31 9.32,14.29 9.32,14.29 9.32,14.29 7.69,13.78 6.06,13.28 4.68,13.07 3.30,12.87 2.27,12.20 1.25,11.53 0.73,10.20 0.20,8.88 0.80,6.93 1.39,4.98 2.44,3.52 3.49,2.05 4.45,1.05 5.42,0.05 6.97,-1.28 8.52,-2.62 9.55,-3.03 10.57,-3.43 10.93,-3.39 11.30,-3.35 11.64,-3.22 11.98,-3.09 12.28,-2.89 12.58,-2.69 12.82,-2.42 13.06,-2.14 13.23,-1.82 13.40,-1.50 13.49,-1.15 13.58,-0.80 13.58,-0.44 13.59,-0.07 13.50,0.27 13.42,0.62 13.25,0.95 13.08,1.27 12.84,1.54 12.60,1.82 12.31,2.02 12.01,2.23 11.67,2.36 11.33,2.49 10.97,2.54 10.61,2.59 9.71,2.25 8.80,1.92 7.45,1.89 6.10,1.86 4.52,1.94 2.94,2.01 1.79,2.29 0.64,2.56 0.32,2.60 0.00,2.64 -0.30,2.60 -0.62,2.56 -0.92,2.45 -1.22,2.34 -1.48,2.16 -1.74,1.98 -1.95,1.74 -2.17,1.50 -2.31,1.22 -2.46,0.94 -2.54,0.63 -2.62,0.32 -2.62,0.00 -2.62,-0.31 -2.55,-0.61 -2.47,-0.92 -2.32,-1.21 -2.18,-1.49 -1.97,-1.73 -1.75,-1.97 -1.49,-2.15 -1.23,-2.33 -0.93,-2.45 -0.64,-2.56 -0.64,-2.56 L -0.64,-2.56 Z"></path></g><g transform="translate(690.7512601617073 482) rotate(0 10 0.5)" stroke="none"><path fill="#2f9e44" d="M 0.80,-2.40 Q 0.80,-2.40 2.50,-1.75 4.19,-1.10 5.33,-0.92 6.46,-0.74 8.03,-1.10 9.60,-1.46 11.88,-1.76 14.17,-2.07 17.00,-2.90 19.82,-3.73 20.27,-3.69 20.71,-3.64 21.11,-3.46 21.52,-3.28 21.84,-2.98 22.17,-2.67 22.38,-2.28 22.59,-1.89 22.66,-1.45 22.74,-1.02 22.67,-0.58 22.60,-0.14 22.40,0.24 22.19,0.64 21.87,0.95 21.55,1.25 21.15,1.44 20.75,1.63 20.31,1.68 19.87,1.74 19.43,1.64 19.00,1.55 18.62,1.33 18.24,1.10 17.95,0.76 17.66,0.43 17.49,0.02 17.32,-0.38 17.29,-0.83 17.26,-1.27 17.38,-1.70 17.50,-2.13 17.74,-2.50 17.99,-2.87 18.34,-3.14 18.69,-3.41 19.11,-3.55 19.53,-3.70 19.97,-3.70 20.42,-3.71 20.84,-3.57 21.26,-3.43 21.62,-3.16 21.97,-2.90 22.22,-2.53 22.48,-2.17 22.60,-1.74 22.72,-1.31 22.70,-0.87 22.68,-0.43 22.52,-0.01 22.36,0.39 22.07,0.73 21.79,1.07 21.41,1.30 21.03,1.54 20.60,1.63 20.16,1.73 20.17,1.73 20.17,1.73 18.81,1.81 17.45,1.88 16.37,2.42 15.29,2.96 13.53,3.34 11.77,3.71 10.24,3.72 8.72,3.73 7.19,3.87 5.67,4.02 4.18,3.71 2.70,3.40 0.94,2.90 -0.80,2.40 -1.07,2.27 -1.35,2.14 -1.58,1.94 -1.82,1.75 -2.00,1.51 -2.19,1.26 -2.31,0.98 -2.43,0.70 -2.48,0.40 -2.53,0.10 -2.50,-0.20 -2.48,-0.50 -2.38,-0.79 -2.28,-1.08 -2.12,-1.34 -1.96,-1.60 -1.74,-1.81 -1.52,-2.02 -1.25,-2.17 -0.99,-2.32 -0.70,-2.41 -0.40,-2.49 -0.10,-2.51 0.20,-2.52 0.50,-2.46 0.80,-2.40 0.80,-2.40 L 0.80,-2.40 Z"></path></g><g transform="translate(698.7512601617073 471) rotate(0 -1.5 14.5)" stroke="none"><path fill="#2f9e44" d="M 2.38,0 Q 2.38,0 2.27,2.01 2.16,4.02 2.19,5.45 2.22,6.88 2.12,8.93 2.02,10.97 2.06,12.42 2.11,13.86 2.24,15.73 2.37,17.61 2.08,18.92 1.79,20.23 1.73,21.29 1.67,22.35 1.31,23.72 0.95,25.08 0.17,27.61 -0.60,30.13 -0.84,30.49 -1.09,30.84 -1.43,31.10 -1.78,31.35 -2.18,31.49 -2.59,31.62 -3.02,31.61 -3.45,31.61 -3.86,31.47 -4.26,31.33 -4.60,31.06 -4.94,30.80 -5.18,30.44 -5.41,30.08 -5.53,29.67 -5.64,29.25 -5.61,28.83 -5.58,28.40 -5.42,28.00 -5.25,27.60 -4.97,27.28 -4.69,26.95 -4.32,26.74 -3.95,26.52 -3.53,26.43 -3.11,26.34 -2.68,26.39 -2.26,26.45 -1.87,26.63 -1.48,26.81 -1.17,27.11 -0.87,27.41 -0.67,27.79 -0.47,28.17 -0.41,28.60 -0.34,29.02 -0.42,29.45 -0.49,29.87 -0.69,30.25 -0.90,30.62 -1.21,30.92 -1.53,31.21 -1.92,31.38 -2.31,31.56 -2.74,31.60 -3.17,31.64 -3.58,31.55 -4.00,31.45 -4.37,31.22 -4.73,31.00 -5.01,30.67 -5.28,30.34 -5.44,29.94 -5.59,29.54 -5.61,29.11 -5.63,28.68 -5.51,28.27 -5.39,27.86 -5.39,27.86 -5.39,27.86 -4.35,24.86 -3.31,21.85 -2.84,19.70 -2.37,17.55 -2.24,15.71 -2.11,13.86 -2.06,12.42 -2.02,10.97 -2.12,8.93 -2.22,6.88 -2.19,5.45 -2.16,4.02 -2.27,2.01 -2.38,0 -2.34,-0.28 -2.31,-0.57 -2.21,-0.83 -2.10,-1.10 -1.94,-1.34 -1.78,-1.57 -1.56,-1.77 -1.35,-1.96 -1.09,-2.09 -0.84,-2.22 -0.56,-2.29 -0.28,-2.36 0.00,-2.36 0.28,-2.36 0.56,-2.29 0.84,-2.22 1.09,-2.09 1.35,-1.96 1.56,-1.76 1.78,-1.57 1.94,-1.34 2.10,-1.10 2.21,-0.83 2.31,-0.56 2.34,-0.28 2.38,0.00 2.38,0.00 L 2.38,0 Z"></path></g><g transform="translate(733.7512601617073 457) rotate(0 8 20)" stroke="none"><path fill="#2f9e44" d="M 2.04,0.25 Q 2.04,0.25 1.65,2.54 1.27,4.83 1.14,6.61 1.02,8.40 0.69,10.17 0.36,11.95 0.22,13.68 0.08,15.41 -0.05,17.58 -0.18,19.76 -0.19,21.55 -0.20,23.35 -0.22,25.26 -0.24,27.17 -0.15,28.27 -0.06,29.37 0.08,31.15 0.23,32.92 0.57,34.06 0.91,35.20 2.55,35.54 4.19,35.88 5.46,36.42 6.73,36.96 8.03,36.92 9.33,36.87 10.52,36.87 11.71,36.87 12.20,35.51 12.69,34.14 13.68,32.59 14.67,31.04 14.02,30.54 13.38,30.04 13.12,29.57 12.86,29.10 12.77,28.57 12.68,28.04 12.76,27.51 12.84,26.98 13.08,26.50 13.33,26.02 13.71,25.65 14.10,25.27 14.58,25.04 15.07,24.81 15.60,24.74 16.13,24.68 16.66,24.79 17.18,24.90 17.65,25.17 18.11,25.44 18.46,25.84 18.82,26.25 19.02,26.74 19.23,27.24 19.26,27.78 19.30,28.31 19.16,28.83 19.03,29.35 18.73,29.80 18.43,30.25 18.01,30.58 17.59,30.91 17.08,31.09 16.57,31.26 16.04,31.27 15.50,31.28 14.99,31.11 14.48,30.95 14.05,30.63 13.61,30.31 13.31,29.87 13.00,29.43 12.85,28.91 12.70,28.40 12.72,27.86 12.74,27.32 12.94,26.82 13.13,26.32 13.47,25.91 13.81,25.49 14.27,25.21 14.73,24.93 15.25,24.80 15.77,24.68 16.31,24.73 16.84,24.79 17.33,25.00 17.82,25.22 18.22,25.59 18.61,25.95 18.61,25.95 18.61,25.95 19.69,29.44 20.77,32.93 19.96,34.35 19.16,35.77 18.43,36.93 17.71,38.09 17.00,39.48 16.30,40.87 15.35,41.58 14.40,42.30 13.16,42.71 11.92,43.11 10.47,43.07 9.02,43.03 7.63,42.87 6.24,42.70 4.94,42.33 3.64,41.95 2.57,41.40 1.50,40.86 -0.11,39.94 -1.74,39.02 -2.57,37.94 -3.41,36.87 -3.82,34.89 -4.23,32.91 -4.07,31.13 -3.91,29.36 -3.82,28.25 -3.72,27.15 -3.71,25.22 -3.71,23.30 -3.67,21.48 -3.63,19.66 -3.64,17.39 -3.65,15.12 -3.50,13.15 -3.35,11.18 -3.01,9.67 -2.66,8.15 -2.54,6.26 -2.42,4.36 -2.23,2.05 -2.04,-0.25 -1.98,-0.49 -1.92,-0.73 -1.80,-0.95 -1.69,-1.17 -1.52,-1.36 -1.36,-1.54 -1.15,-1.68 -0.95,-1.82 -0.71,-1.91 -0.48,-2.00 -0.23,-2.03 0.00,-2.06 0.25,-2.02 0.50,-1.99 0.73,-1.90 0.96,-1.82 1.16,-1.67 1.37,-1.53 1.53,-1.35 1.69,-1.16 1.81,-0.94 1.92,-0.72 1.98,-0.48 2.04,-0.24 2.04,0.00 2.04,0.25 2.04,0.25 L 2.04,0.25 Z"></path></g><g transform="translate(724.7512601617073 477) rotate(0 10.5 0.5)" stroke="none"><path fill="#2f9e44" d="M 0.51,-2.55 Q 0.51,-2.55 1.94,-2.24 3.37,-1.94 5.05,-1.86 6.73,-1.78 8.64,-1.80 10.55,-1.82 11.83,-1.81 13.11,-1.79 14.22,-1.80 15.34,-1.81 18.17,-1.87 21.00,-1.93 21.46,-1.85 21.93,-1.77 22.35,-1.55 22.77,-1.33 23.10,-0.98 23.42,-0.64 23.62,-0.21 23.82,0.21 23.87,0.68 23.92,1.15 23.82,1.62 23.72,2.08 23.47,2.49 23.23,2.89 22.87,3.20 22.51,3.51 22.07,3.68 21.62,3.86 21.15,3.88 20.68,3.91 20.22,3.78 19.76,3.66 19.37,3.39 18.98,3.12 18.69,2.75 18.40,2.37 18.25,1.92 18.10,1.47 18.10,0.99 18.10,0.52 18.25,0.07 18.41,-0.37 18.69,-0.75 18.98,-1.12 19.37,-1.39 19.76,-1.66 20.22,-1.78 20.68,-1.91 21.15,-1.88 21.63,-1.86 22.07,-1.68 22.51,-1.51 22.87,-1.20 23.23,-0.89 23.47,-0.49 23.72,-0.08 23.82,0.37 23.92,0.84 23.87,1.31 23.82,1.78 23.62,2.21 23.42,2.64 23.09,2.99 22.77,3.33 22.35,3.55 21.93,3.77 21.46,3.85 20.99,3.93 20.99,3.93 20.99,3.93 18.16,3.87 15.33,3.81 14.21,3.79 13.09,3.78 11.79,3.79 10.50,3.79 8.47,3.71 6.43,3.63 4.40,3.36 2.37,3.09 0.93,2.82 -0.51,2.55 -0.80,2.45 -1.10,2.35 -1.37,2.18 -1.63,2.02 -1.85,1.79 -2.07,1.57 -2.23,1.30 -2.39,1.02 -2.47,0.72 -2.56,0.42 -2.58,0.11 -2.59,-0.19 -2.53,-0.50 -2.47,-0.81 -2.33,-1.09 -2.20,-1.38 -2.00,-1.62 -1.81,-1.87 -1.56,-2.05 -1.31,-2.24 -1.02,-2.37 -0.73,-2.49 -0.42,-2.54 -0.11,-2.60 0.19,-2.57 0.51,-2.55 0.51,-2.55 L 0.51,-2.55 Z"></path></g><g transform="translate(768.7512601617073 482) rotate(0 6.5 0.5)" stroke="none"><path fill="#2f9e44" d="M 0.50,-2.50 Q 0.50,-2.50 1.93,-2.20 3.36,-1.90 4.44,-1.82 5.51,-1.74 7.11,-1.75 8.71,-1.76 10.86,-1.78 13.01,-1.80 13.46,-1.72 13.90,-1.64 14.30,-1.43 14.70,-1.22 15.01,-0.88 15.32,-0.55 15.51,-0.14 15.70,0.26 15.74,0.71 15.79,1.16 15.69,1.60 15.59,2.05 15.36,2.43 15.12,2.82 14.77,3.11 14.43,3.40 14.00,3.57 13.58,3.73 13.13,3.76 12.68,3.78 12.24,3.65 11.80,3.53 11.43,3.27 11.06,3.02 10.78,2.65 10.51,2.29 10.37,1.86 10.23,1.43 10.23,0.98 10.23,0.53 10.38,0.10 10.53,-0.32 10.80,-0.68 11.08,-1.04 11.46,-1.29 11.83,-1.54 12.27,-1.66 12.71,-1.78 13.16,-1.75 13.61,-1.73 14.03,-1.56 14.45,-1.39 14.80,-1.09 15.14,-0.80 15.37,-0.41 15.60,-0.02 15.70,0.42 15.79,0.86 15.74,1.31 15.69,1.76 15.50,2.17 15.30,2.58 14.99,2.91 14.68,3.24 14.28,3.45 13.87,3.65 13.43,3.73 12.98,3.80 12.98,3.80 12.98,3.80 10.78,3.74 8.58,3.69 6.78,3.53 4.98,3.38 3.68,3.21 2.38,3.05 0.94,2.77 -0.50,2.50 -0.79,2.40 -1.08,2.30 -1.34,2.14 -1.60,1.98 -1.81,1.76 -2.03,1.54 -2.18,1.27 -2.34,1.00 -2.42,0.71 -2.51,0.41 -2.53,0.11 -2.54,-0.19 -2.48,-0.49 -2.42,-0.79 -2.29,-1.07 -2.16,-1.35 -1.96,-1.59 -1.77,-1.83 -1.52,-2.01 -1.28,-2.20 -1.00,-2.32 -0.71,-2.44 -0.41,-2.49 -0.11,-2.54 0.19,-2.52 0.50,-2.50 0.50,-2.50 L 0.50,-2.50 Z"></path></g><g transform="translate(774.7512601617073 471) rotate(0 -0.5 13)" stroke="none"><path fill="#2f9e44" d="M 2.16,0 Q 2.16,0 2.14,1.72 2.12,3.44 2.01,6.19 1.91,8.94 1.85,10.97 1.80,13.00 1.76,15.01 1.72,17.02 1.75,18.74 1.79,20.46 1.36,23.37 0.94,26.28 0.84,26.58 0.74,26.88 0.56,27.14 0.37,27.39 0.11,27.58 -0.14,27.76 -0.44,27.85 -0.75,27.94 -1.06,27.93 -1.38,27.92 -1.68,27.81 -1.97,27.69 -2.22,27.49 -2.47,27.29 -2.63,27.02 -2.80,26.75 -2.88,26.45 -2.95,26.14 -2.92,25.82 -2.89,25.51 -2.77,25.21 -2.64,24.92 -2.42,24.69 -2.21,24.46 -1.93,24.30 -1.65,24.15 -1.34,24.09 -1.03,24.03 -0.72,24.08 -0.40,24.13 -0.12,24.27 0.15,24.41 0.38,24.64 0.60,24.87 0.74,25.15 0.87,25.44 0.91,25.75 0.95,26.07 0.89,26.38 0.83,26.69 0.67,26.96 0.51,27.24 0.27,27.45 0.04,27.66 -0.25,27.78 -0.54,27.90 -0.86,27.92 -1.17,27.95 -1.48,27.87 -1.79,27.79 -2.05,27.62 -2.32,27.44 -2.51,27.19 -2.71,26.94 -2.82,26.65 -2.92,26.35 -2.93,26.03 -2.94,25.71 -2.94,25.71 -2.94,25.71 -2.36,23.08 -1.79,20.45 -1.75,18.73 -1.72,17.02 -1.76,15.01 -1.80,13.00 -1.85,10.97 -1.91,8.94 -2.01,6.19 -2.12,3.44 -2.14,1.72 -2.16,0 -2.12,-0.25 -2.09,-0.51 -2.00,-0.76 -1.91,-1.00 -1.76,-1.21 -1.61,-1.43 -1.42,-1.60 -1.22,-1.77 -0.99,-1.89 -0.76,-2.02 -0.51,-2.08 -0.26,-2.14 0.00,-2.14 0.26,-2.14 0.51,-2.08 0.76,-2.02 0.99,-1.89 1.22,-1.77 1.42,-1.60 1.61,-1.43 1.76,-1.21 1.91,-1.00 2.00,-0.76 2.09,-0.51 2.12,-0.25 2.16,0.00 2.16,0.00 L 2.16,0 Z"></path></g><g transform="translate(812.7512601617073 463) rotate(0 -3.5 24)" stroke="none"><path fill="#2f9e44" d="M 2.29,0.51 Q 2.29,0.51 1.58,3.06 0.88,5.62 0.31,7.38 -0.25,9.14 -0.76,10.72 -1.27,12.30 -1.42,13.67 -1.58,15.03 -1.97,16.65 -2.35,18.28 -2.44,19.38 -2.52,20.49 -2.51,22.51 -2.50,24.53 -2.81,27.32 -3.13,30.11 -3.57,31.52 -4.01,32.93 -4.13,34.65 -4.26,36.37 -4.23,38.02 -4.20,39.68 -4.15,40.92 -4.09,42.16 -4.01,45.08 -3.94,48.00 -4.02,48.48 -4.10,48.97 -4.33,49.41 -4.56,49.84 -4.92,50.18 -5.28,50.52 -5.73,50.73 -6.18,50.94 -6.67,50.99 -7.16,51.05 -7.64,50.94 -8.13,50.83 -8.55,50.58 -8.97,50.32 -9.29,49.95 -9.61,49.57 -9.80,49.11 -9.98,48.65 -10.01,48.16 -10.03,47.66 -9.90,47.19 -9.77,46.71 -9.49,46.30 -9.21,45.89 -8.82,45.59 -8.43,45.30 -7.96,45.14 -7.49,44.98 -6.99,44.98 -6.50,44.98 -6.03,45.14 -5.56,45.30 -5.17,45.60 -4.78,45.89 -4.50,46.30 -4.22,46.71 -4.09,47.19 -3.96,47.67 -3.98,48.16 -4.01,48.65 -4.19,49.11 -4.38,49.57 -4.70,49.95 -5.02,50.32 -5.44,50.58 -5.86,50.83 -6.35,50.94 -6.83,51.05 -7.32,50.99 -7.81,50.94 -8.26,50.73 -8.71,50.52 -9.07,50.18 -9.43,49.84 -9.66,49.41 -9.89,48.97 -9.97,48.48 -10.05,47.99 -10.05,47.99 -10.05,47.99 -9.97,45.06 -9.89,42.13 -9.82,40.87 -9.75,39.60 -9.63,37.82 -9.51,36.04 -9.14,33.71 -8.76,31.37 -8.38,30.29 -7.99,29.20 -7.70,26.80 -7.41,24.39 -7.33,23.31 -7.25,22.23 -7.12,21.07 -6.99,19.90 -6.75,18.57 -6.51,17.24 -6.14,15.83 -5.76,14.43 -5.48,12.73 -5.20,11.03 -4.68,9.47 -4.17,7.90 -3.67,6.31 -3.18,4.72 -2.73,2.10 -2.29,-0.51 -2.20,-0.77 -2.10,-1.04 -1.95,-1.28 -1.79,-1.51 -1.58,-1.71 -1.38,-1.90 -1.13,-2.04 -0.88,-2.18 -0.61,-2.25 -0.33,-2.32 -0.05,-2.33 0.23,-2.34 0.50,-2.28 0.78,-2.21 1.03,-2.09 1.29,-1.96 1.50,-1.78 1.72,-1.60 1.89,-1.37 2.05,-1.14 2.16,-0.87 2.27,-0.61 2.31,-0.33 2.35,-0.05 2.32,0.22 2.29,0.51 2.29,0.51 L 2.29,0.51 Z"></path></g><g transform="translate(676.7512601617073 299) rotate(0 8.5 23.5)" stroke="none"><path fill="#1e1e1e" d="M 2.03,0 Q 2.03,0 1.96,2.01 1.90,4.02 1.82,6.89 1.74,9.76 1.10,13.68 0.45,17.61 0.17,20.89 -0.10,24.17 -0.23,26.99 -0.36,29.82 -0.36,31.61 -0.35,33.39 -0.28,34.72 -0.20,36.05 -0.04,37.54 0.11,39.04 0.23,40.13 0.35,41.22 1.90,42.01 3.44,42.79 4.52,43.31 5.59,43.83 7.00,43.95 8.41,44.07 9.99,44.06 11.57,44.04 12.91,43.62 14.24,43.19 15.58,41.93 16.92,40.67 17.35,40.40 17.77,40.13 18.26,40.01 18.75,39.89 19.25,39.93 19.76,39.98 20.22,40.18 20.68,40.38 21.05,40.71 21.43,41.05 21.67,41.49 21.92,41.93 22.01,42.42 22.11,42.92 22.04,43.42 21.97,43.92 21.74,44.37 21.52,44.82 21.16,45.17 20.80,45.53 20.35,45.75 19.90,45.97 19.40,46.04 18.90,46.11 18.41,46.01 17.91,45.91 17.47,45.67 17.04,45.42 16.70,45.04 16.37,44.66 16.17,44.20 15.97,43.74 15.93,43.24 15.89,42.73 16.01,42.24 16.14,41.76 16.41,41.33 16.68,40.91 17.08,40.59 17.47,40.28 17.94,40.11 18.42,39.93 18.92,39.92 19.42,39.91 19.91,40.06 20.39,40.21 20.80,40.50 21.20,40.80 21.50,41.21 21.79,41.62 21.94,42.10 22.08,42.58 22.07,43.09 22.05,43.59 21.88,44.06 21.70,44.54 21.38,44.93 21.07,45.32 21.07,45.32 21.07,45.32 19.26,46.77 17.45,48.22 15.79,48.71 14.13,49.19 11.94,49.54 9.74,49.89 8.20,49.76 6.66,49.63 4.95,49.11 3.24,48.59 2.18,48.05 1.12,47.51 -0.91,46.10 -2.95,44.69 -3.65,42.95 -4.35,41.21 -4.23,40.12 -4.10,39.02 -3.92,37.51 -3.74,36.00 -3.62,34.65 -3.51,33.31 -3.41,31.51 -3.32,29.72 -3.25,26.83 -3.17,23.94 -2.96,20.53 -2.75,17.13 -2.25,13.44 -1.74,9.75 -1.82,6.89 -1.90,4.02 -1.96,2.01 -2.03,0 -2.00,-0.24 -1.97,-0.48 -1.88,-0.71 -1.79,-0.94 -1.66,-1.14 -1.52,-1.34 -1.33,-1.51 -1.15,-1.67 -0.93,-1.78 -0.72,-1.90 -0.48,-1.95 -0.24,-2.01 0.00,-2.01 0.24,-2.01 0.48,-1.95 0.72,-1.90 0.93,-1.78 1.15,-1.67 1.33,-1.51 1.52,-1.34 1.66,-1.14 1.79,-0.94 1.88,-0.71 1.97,-0.48 2.00,-0.24 2.03,0.00 2.03,0.00 L 2.03,0 Z"></path></g><g transform="translate(665.7512601617073 323) rotate(0 9.5 0.5)" stroke="none"><path fill="#1e1e1e" d="M 0,-2.59 Q 0,-2.59 1.43,-2.58 2.87,-2.57 4.06,-2.59 5.25,-2.61 6.88,-2.28 8.51,-1.96 10.27,-1.87 12.02,-1.79 13.13,-1.83 14.23,-1.87 16.62,-1.89 19.00,-1.92 19.47,-1.84 19.93,-1.76 20.35,-1.54 20.77,-1.32 21.09,-0.97 21.42,-0.63 21.61,-0.20 21.81,0.22 21.86,0.69 21.91,1.16 21.81,1.62 21.71,2.08 21.46,2.49 21.22,2.89 20.86,3.20 20.50,3.50 20.06,3.68 19.62,3.85 19.14,3.87 18.67,3.90 18.22,3.77 17.76,3.64 17.37,3.38 16.98,3.11 16.70,2.73 16.41,2.36 16.26,1.91 16.11,1.46 16.11,0.99 16.11,0.52 16.26,0.07 16.42,-0.37 16.70,-0.75 16.99,-1.12 17.38,-1.39 17.77,-1.65 18.23,-1.78 18.69,-1.90 19.16,-1.87 19.63,-1.85 20.07,-1.67 20.51,-1.50 20.87,-1.19 21.23,-0.88 21.47,-0.48 21.71,-0.07 21.81,0.38 21.91,0.84 21.86,1.31 21.81,1.78 21.61,2.21 21.41,2.64 21.08,2.98 20.76,3.33 20.34,3.55 19.92,3.77 19.45,3.84 18.99,3.92 18.99,3.92 18.99,3.92 15.98,3.84 12.98,3.76 11.50,3.60 10.01,3.44 8.73,3.28 7.44,3.11 6.34,2.86 5.23,2.61 4.05,2.59 2.87,2.57 1.43,2.58 0,2.59 -0.31,2.55 -0.62,2.51 -0.91,2.40 -1.20,2.29 -1.46,2.12 -1.72,1.94 -1.92,1.70 -2.13,1.47 -2.28,1.19 -2.42,0.92 -2.50,0.61 -2.57,0.31 -2.57,-0.00 -2.57,-0.31 -2.50,-0.61 -2.42,-0.92 -2.28,-1.19 -2.13,-1.47 -1.92,-1.70 -1.72,-1.94 -1.46,-2.12 -1.20,-2.29 -0.91,-2.40 -0.62,-2.51 -0.31,-2.55 0.00,-2.59 0.00,-2.59 L 0,-2.59 Z"></path></g><g transform="translate(333.75126016170725 20) rotate(0 7 2)" stroke="none"><path fill="#1e1e1e" d="M 0,-2.67 Q 0,-2.67 1.15,-2.69 2.3,-2.70 4.41,-2.41 6.53,-2.11 7.51,-1.59 8.48,-1.07 9.64,-0.56 10.80,-0.04 13.16,0.63 15.52,1.32 15.90,1.63 16.29,1.95 16.56,2.37 16.83,2.79 16.94,3.27 17.06,3.75 17.02,4.25 16.98,4.75 16.78,5.20 16.58,5.66 16.25,6.03 15.92,6.40 15.48,6.64 15.05,6.89 14.56,6.98 14.07,7.07 13.58,7.00 13.08,6.93 12.64,6.71 12.19,6.49 11.84,6.14 11.49,5.78 11.27,5.34 11.05,4.89 10.98,4.40 10.92,3.90 11.01,3.41 11.11,2.93 11.35,2.49 11.60,2.06 11.97,1.73 12.34,1.40 12.80,1.20 13.26,1.01 13.76,0.97 14.25,0.93 14.74,1.05 15.22,1.17 15.64,1.44 16.06,1.71 16.37,2.10 16.68,2.49 16.85,2.96 17.02,3.42 17.03,3.92 17.04,4.42 16.90,4.89 16.75,5.37 16.46,5.77 16.17,6.18 15.76,6.47 15.35,6.76 14.88,6.90 14.40,7.05 13.90,7.03 13.41,7.02 12.94,6.84 12.47,6.67 12.47,6.67 12.47,6.67 11.36,6.21 10.24,5.75 8.75,5.14 7.26,4.54 6.02,3.90 4.78,3.26 3.54,2.98 2.3,2.70 1.15,2.69 0,2.67 -0.32,2.63 -0.64,2.59 -0.94,2.48 -1.24,2.36 -1.50,2.18 -1.77,2.00 -1.98,1.76 -2.20,1.52 -2.35,1.23 -2.50,0.94 -2.57,0.63 -2.65,0.32 -2.65,-0.00 -2.65,-0.32 -2.57,-0.63 -2.50,-0.94 -2.35,-1.23 -2.20,-1.52 -1.98,-1.76 -1.77,-2.00 -1.50,-2.18 -1.24,-2.37 -0.94,-2.48 -0.64,-2.59 -0.32,-2.63 0.00,-2.67 0.00,-2.67 L 0,-2.67 Z"></path></g><g transform="translate(354.75126016170725 10) rotate(0 -12 23)" stroke="none"><path fill="#1e1e1e" d="M 2.46,0 Q 2.46,0 2.41,1.73 2.36,3.46 2.07,5.02 1.77,6.57 1.63,8.11 1.50,9.64 1.12,11.39 0.74,13.13 0.30,14.52 -0.13,15.91 -0.76,17.83 -1.40,19.75 -1.68,21.20 -1.96,22.64 -2.40,23.67 -2.84,24.70 -3.89,26.79 -4.94,28.88 -5.82,30.44 -6.70,32.00 -7.19,32.94 -7.68,33.89 -8.17,34.87 -8.67,35.85 -9.30,36.78 -9.93,37.72 -10.82,39.36 -11.71,41.01 -12.79,42.16 -13.87,43.30 -15.20,44.21 -16.52,45.12 -17.71,45.82 -18.89,46.53 -20.90,47.64 -22.90,48.76 -23.37,48.86 -23.84,48.96 -24.32,48.91 -24.79,48.86 -25.23,48.65 -25.66,48.45 -26.01,48.12 -26.36,47.79 -26.59,47.36 -26.81,46.94 -26.89,46.47 -26.97,45.99 -26.89,45.52 -26.81,45.04 -26.58,44.62 -26.36,44.19 -26.01,43.86 -25.66,43.53 -25.22,43.33 -24.79,43.13 -24.31,43.08 -23.83,43.03 -23.36,43.13 -22.89,43.24 -22.48,43.49 -22.07,43.73 -21.76,44.10 -21.45,44.47 -21.27,44.91 -21.09,45.36 -21.07,45.84 -21.04,46.32 -21.17,46.78 -21.30,47.25 -21.57,47.64 -21.84,48.04 -22.22,48.33 -22.61,48.62 -23.06,48.77 -23.52,48.93 -24.00,48.93 -24.48,48.93 -24.93,48.77 -25.39,48.62 -25.77,48.33 -26.15,48.03 -26.42,47.64 -26.69,47.24 -26.82,46.78 -26.95,46.31 -26.92,45.83 -26.89,45.35 -26.72,44.91 -26.54,44.46 -26.23,44.09 -25.91,43.73 -25.50,43.48 -25.09,43.23 -25.09,43.23 -25.09,43.23 -23.50,42.39 -21.92,41.54 -20.96,40.94 -19.99,40.35 -18.97,39.54 -17.95,38.74 -17.27,37.91 -16.58,37.07 -15.21,35.14 -13.83,33.21 -13.31,32.21 -12.80,31.21 -12.26,30.20 -11.73,29.19 -11.15,28.17 -10.56,27.15 -9.46,25.98 -8.36,24.81 -8.10,23.63 -7.85,22.46 -7.10,20.89 -6.35,19.32 -5.71,18.08 -5.08,16.83 -4.83,15.61 -4.58,14.38 -4.16,13.28 -3.74,12.17 -3.44,10.74 -3.13,9.30 -3.03,7.43 -2.92,5.55 -2.64,4.49 -2.36,3.43 -2.41,1.71 -2.46,0 -2.42,-0.29 -2.39,-0.58 -2.28,-0.86 -2.18,-1.14 -2.01,-1.38 -1.84,-1.63 -1.62,-1.82 -1.39,-2.02 -1.13,-2.16 -0.87,-2.30 -0.58,-2.37 -0.29,-2.44 0.00,-2.44 0.29,-2.44 0.58,-2.37 0.87,-2.30 1.13,-2.16 1.39,-2.02 1.62,-1.82 1.84,-1.63 2.01,-1.38 2.18,-1.14 2.28,-0.86 2.39,-0.58 2.42,-0.29 2.46,0.00 2.46,0.00 L 2.46,0 Z"></path></g><g transform="translate(372.75126016170725 128) rotate(0 0 8)" stroke="none"><path fill="#1e1e1e" d="M 2.55,0 Q 2.55,0 2.49,1.72 2.44,3.44 2.45,4.75 2.47,6.06 2.51,7.19 2.54,8.32 2.62,9.99 2.70,11.66 2.74,13.83 2.78,16 2.71,16.44 2.63,16.88 2.42,17.28 2.21,17.68 1.88,17.99 1.56,18.30 1.15,18.49 0.74,18.68 0.29,18.73 -0.15,18.78 -0.59,18.68 -1.03,18.58 -1.41,18.35 -1.80,18.12 -2.09,17.77 -2.38,17.43 -2.55,17.01 -2.71,16.59 -2.74,16.14 -2.76,15.69 -2.64,15.26 -2.52,14.83 -2.27,14.45 -2.02,14.08 -1.66,13.81 -1.30,13.53 -0.87,13.39 -0.45,13.25 0.00,13.25 0.45,13.25 0.87,13.39 1.30,13.54 1.66,13.81 2.02,14.08 2.27,14.45 2.52,14.83 2.64,15.26 2.76,15.69 2.74,16.14 2.71,16.59 2.55,17.01 2.38,17.43 2.09,17.77 1.80,18.12 1.41,18.35 1.03,18.58 0.59,18.68 0.15,18.78 -0.29,18.73 -0.74,18.68 -1.15,18.49 -1.56,18.30 -1.89,17.99 -2.21,17.68 -2.42,17.28 -2.63,16.88 -2.71,16.44 -2.78,15.99 -2.78,15.99 -2.78,16 -2.74,13.83 -2.70,11.66 -2.62,9.99 -2.54,8.32 -2.51,7.19 -2.47,6.06 -2.45,4.75 -2.44,3.44 -2.49,1.72 -2.55,0 -2.52,-0.30 -2.48,-0.61 -2.37,-0.90 -2.26,-1.18 -2.09,-1.44 -1.91,-1.69 -1.68,-1.90 -1.45,-2.10 -1.18,-2.24 -0.90,-2.39 -0.60,-2.46 -0.30,-2.54 0.00,-2.54 0.30,-2.54 0.60,-2.46 0.90,-2.39 1.18,-2.24 1.45,-2.10 1.68,-1.90 1.91,-1.69 2.09,-1.44 2.26,-1.18 2.37,-0.90 2.48,-0.61 2.52,-0.30 2.55,0.00 2.55,0.00 L 2.55,0 Z"></path></g><g transform="translate(368.75126016170725 168) rotate(0 1.5 12.5)" stroke="none"><path fill="#1e1e1e" d="M 2.59,0 Q 2.59,0 2.58,1.43 2.56,2.87 2.58,4.04 2.60,5.22 3.05,7.18 3.51,9.14 4.03,11.12 4.55,13.11 4.59,14.47 4.64,15.82 5.15,17.08 5.66,18.33 5.75,19.39 5.84,20.46 5.93,22.71 6.03,24.97 5.95,25.46 5.88,25.94 5.65,26.38 5.42,26.81 5.07,27.15 4.72,27.49 4.27,27.70 3.83,27.91 3.34,27.97 2.86,28.02 2.38,27.92 1.90,27.82 1.47,27.57 1.05,27.32 0.73,26.95 0.41,26.58 0.22,26.13 0.04,25.67 0.01,25.18 -0.01,24.69 0.10,24.22 0.23,23.74 0.50,23.34 0.78,22.93 1.16,22.63 1.55,22.33 2.02,22.17 2.48,22.01 2.97,22.00 3.46,22.00 3.93,22.15 4.39,22.30 4.79,22.60 5.18,22.89 5.46,23.30 5.74,23.70 5.87,24.17 6.01,24.64 5.98,25.13 5.96,25.62 5.78,26.08 5.61,26.54 5.29,26.91 4.98,27.29 4.56,27.55 4.14,27.80 3.66,27.91 3.18,28.02 2.69,27.97 2.21,27.92 1.76,27.72 1.31,27.52 0.95,27.18 0.59,26.85 0.36,26.42 0.13,25.99 0.05,25.50 -0.03,25.02 -0.03,25.02 -0.03,25.02 -0.02,22.92 -0.01,20.82 0.01,19.68 0.04,18.54 -0.39,17.45 -0.82,16.36 -0.96,14.36 -1.11,12.36 -1.55,10.22 -1.99,8.08 -2.30,6.67 -2.60,5.26 -2.58,4.07 -2.56,2.87 -2.58,1.43 -2.59,0 -2.55,-0.31 -2.51,-0.62 -2.40,-0.91 -2.29,-1.20 -2.11,-1.46 -1.94,-1.71 -1.70,-1.92 -1.47,-2.13 -1.19,-2.27 -0.91,-2.42 -0.61,-2.49 -0.31,-2.57 0.00,-2.57 0.31,-2.57 0.61,-2.49 0.91,-2.42 1.19,-2.27 1.47,-2.13 1.70,-1.92 1.94,-1.71 2.11,-1.46 2.29,-1.20 2.40,-0.91 2.51,-0.62 2.55,-0.30 2.59,0.00 2.59,0.00 L 2.59,0 Z"></path></g><g transform="translate(371.75126016170725 214) rotate(0 1 21.5)" stroke="none"><path fill="#1e1e1e" d="M 2.08,0 Q 2.08,0 2.01,2.01 1.93,4.02 2.21,5.58 2.49,7.13 2.68,8.50 2.88,9.87 2.97,11.35 3.07,12.82 3.12,14.31 3.17,15.80 3.15,17.58 3.12,19.36 3.08,21.27 3.03,23.18 3.03,24.85 3.04,26.52 3.01,28.38 2.98,30.24 3.03,31.59 3.08,32.94 3.61,34.27 4.14,35.59 4.33,36.85 4.53,38.11 4.62,40.55 4.72,42.99 4.65,43.42 4.58,43.86 4.37,44.25 4.17,44.64 3.85,44.94 3.53,45.24 3.13,45.43 2.73,45.62 2.29,45.67 1.86,45.71 1.43,45.62 0.99,45.53 0.62,45.30 0.24,45.08 -0.04,44.74 -0.32,44.41 -0.49,44.00 -0.65,43.59 -0.68,43.15 -0.70,42.71 -0.59,42.28 -0.47,41.86 -0.22,41.49 0.01,41.13 0.36,40.86 0.71,40.59 1.13,40.45 1.55,40.31 1.99,40.31 2.43,40.31 2.85,40.45 3.26,40.59 3.62,40.85 3.97,41.12 4.21,41.48 4.46,41.84 4.58,42.27 4.70,42.69 4.68,43.13 4.66,43.57 4.49,43.98 4.33,44.39 4.05,44.73 3.76,45.07 3.39,45.29 3.01,45.52 2.58,45.62 2.15,45.71 1.71,45.67 1.27,45.62 0.87,45.44 0.47,45.25 0.15,44.95 -0.16,44.65 -0.37,44.26 -0.57,43.87 -0.65,43.44 -0.72,43.00 -0.72,43.00 -0.72,43.00 -0.65,40.66 -0.59,38.32 -0.57,36.87 -0.55,35.41 -0.82,34.21 -1.08,33.01 -1.03,31.63 -0.98,30.25 -1.01,28.39 -1.05,26.53 -1.04,24.86 -1.04,23.19 -1.09,21.29 -1.15,19.39 -1.19,17.62 -1.23,15.86 -1.23,14.42 -1.22,12.98 -1.23,11.62 -1.24,10.26 -1.29,9.02 -1.34,7.78 -1.64,5.90 -1.93,4.02 -2.01,2.01 -2.08,0 -2.05,-0.24 -2.02,-0.49 -1.93,-0.73 -1.84,-0.96 -1.70,-1.17 -1.55,-1.38 -1.37,-1.54 -1.18,-1.71 -0.96,-1.83 -0.73,-1.94 -0.49,-2.00 -0.25,-2.06 0.00,-2.06 0.25,-2.06 0.49,-2.00 0.73,-1.94 0.96,-1.83 1.18,-1.71 1.37,-1.54 1.55,-1.38 1.70,-1.17 1.84,-0.96 1.93,-0.73 2.02,-0.49 2.05,-0.24 2.08,0.00 2.08,0.00 L 2.08,0 Z"></path></g><g transform="translate(374.75126016170725 282) rotate(0 0.5 19.5)" stroke="none"><path fill="#1e1e1e" d="M 2.48,0 Q 2.48,0 2.33,2.3 2.18,4.6 2.23,5.85 2.27,7.11 2.77,9.13 3.27,11.16 3.37,12.26 3.47,13.36 3.57,15.42 3.67,17.49 3.67,18.78 3.68,20.08 3.70,21.21 3.71,22.33 3.79,23.71 3.86,25.09 3.91,26.44 3.96,27.80 4.01,28.99 4.06,30.17 4.09,31.62 4.13,33.06 4.14,36.03 4.15,38.99 4.07,39.50 3.98,40.00 3.75,40.45 3.51,40.90 3.14,41.26 2.77,41.61 2.30,41.82 1.84,42.04 1.33,42.09 0.82,42.15 0.33,42.04 -0.16,41.93 -0.60,41.66 -1.04,41.40 -1.37,41.01 -1.70,40.62 -1.89,40.15 -2.08,39.67 -2.10,39.16 -2.13,38.65 -1.99,38.16 -1.86,37.67 -1.57,37.25 -1.29,36.83 -0.88,36.52 -0.47,36.21 0.00,36.04 0.49,35.88 1.00,35.88 1.51,35.88 1.99,36.04 2.47,36.21 2.88,36.52 3.29,36.83 3.57,37.25 3.86,37.67 4.00,38.16 4.13,38.65 4.10,39.16 4.08,39.67 3.89,40.15 3.70,40.62 3.37,41.01 3.04,41.40 2.60,41.66 2.16,41.93 1.66,42.04 1.17,42.15 0.66,42.09 0.15,42.03 -0.30,41.82 -0.77,41.61 -1.14,41.25 -1.51,40.90 -1.75,40.45 -1.99,40.00 -2.07,39.50 -2.15,38.99 -2.15,38.99 -2.15,39.00 -2.14,36.03 -2.13,33.06 -2.09,31.62 -2.06,30.17 -2.01,28.99 -1.96,27.80 -1.91,26.45 -1.86,25.09 -1.79,23.72 -1.72,22.34 -1.70,21.22 -1.69,20.10 -1.69,18.82 -1.70,17.54 -1.66,15.58 -1.62,13.62 -1.67,11.78 -1.72,9.94 -1.99,8.54 -2.27,7.14 -2.23,5.87 -2.18,4.6 -2.33,2.3 -2.48,0 -2.45,-0.29 -2.41,-0.59 -2.31,-0.87 -2.20,-1.15 -2.03,-1.40 -1.86,-1.65 -1.63,-1.85 -1.41,-2.04 -1.14,-2.18 -0.88,-2.32 -0.59,-2.39 -0.29,-2.47 0.00,-2.47 0.30,-2.47 0.59,-2.39 0.88,-2.32 1.14,-2.18 1.41,-2.04 1.63,-1.84 1.86,-1.65 2.03,-1.40 2.20,-1.15 2.31,-0.87 2.41,-0.59 2.45,-0.29 2.48,0.00 2.48,0.00 L 2.48,0 Z"></path></g><g transform="translate(375.75126016170725 342) rotate(0 0 15.5)" stroke="none"><path fill="#1e1e1e" d="M 2.58,0 Q 2.58,0 2.61,1.15 2.63,2.3 2.65,3.36 2.68,4.42 2.75,6.05 2.81,7.68 2.87,9.20 2.92,10.73 2.92,12.93 2.92,15.13 2.88,16.53 2.85,17.93 2.76,19.67 2.66,21.42 2.71,23.46 2.76,25.50 2.83,28.25 2.89,31 2.81,31.46 2.74,31.92 2.52,32.33 2.30,32.75 1.96,33.07 1.62,33.39 1.19,33.59 0.77,33.78 0.30,33.83 -0.15,33.88 -0.61,33.78 -1.07,33.68 -1.47,33.44 -1.87,33.20 -2.17,32.84 -2.47,32.49 -2.65,32.05 -2.82,31.62 -2.85,31.15 -2.87,30.68 -2.75,30.23 -2.62,29.78 -2.36,29.39 -2.09,29.01 -1.72,28.72 -1.35,28.44 -0.91,28.29 -0.46,28.14 0.00,28.14 0.46,28.14 0.91,28.29 1.35,28.44 1.72,28.72 2.10,29.01 2.36,29.39 2.62,29.78 2.75,30.23 2.87,30.68 2.85,31.15 2.82,31.62 2.65,32.05 2.47,32.49 2.17,32.84 1.87,33.20 1.47,33.44 1.07,33.68 0.61,33.78 0.15,33.88 -0.30,33.83 -0.77,33.78 -1.19,33.59 -1.62,33.39 -1.96,33.07 -2.30,32.74 -2.52,32.33 -2.74,31.92 -2.81,31.46 -2.89,30.99 -2.89,30.99 -2.89,31 -2.83,28.25 -2.76,25.50 -2.71,23.46 -2.66,21.42 -2.76,19.67 -2.85,17.93 -2.88,16.53 -2.92,15.13 -2.92,12.93 -2.92,10.73 -2.87,9.20 -2.81,7.68 -2.75,6.05 -2.68,4.42 -2.65,3.36 -2.63,2.3 -2.61,1.15 -2.58,0 -2.54,-0.30 -2.51,-0.61 -2.40,-0.91 -2.29,-1.20 -2.11,-1.45 -1.93,-1.71 -1.70,-1.92 -1.46,-2.12 -1.19,-2.27 -0.91,-2.41 -0.61,-2.49 -0.31,-2.56 0.00,-2.56 0.31,-2.56 0.61,-2.49 0.91,-2.41 1.19,-2.27 1.46,-2.12 1.70,-1.92 1.93,-1.71 2.11,-1.45 2.29,-1.20 2.40,-0.91 2.51,-0.61 2.54,-0.30 2.58,0.00 2.58,0.00 L 2.58,0 Z"></path></g><g transform="translate(375.75126016170725 399) rotate(0 0 16)" stroke="none"><path fill="#1e1e1e" d="M 2.44,0 Q 2.44,0 2.32,2.01 2.21,4.02 2.19,5.74 2.17,7.46 2.17,9.05 2.18,10.64 2.28,12.88 2.38,15.11 2.39,16.52 2.40,17.92 2.50,19.47 2.60,21.01 2.68,22.52 2.76,24.03 2.83,25.12 2.89,26.22 2.95,29.11 3.00,32 2.92,32.47 2.84,32.95 2.62,33.38 2.39,33.81 2.04,34.15 1.68,34.48 1.24,34.69 0.80,34.89 0.32,34.94 -0.16,35.00 -0.63,34.89 -1.11,34.79 -1.52,34.54 -1.94,34.29 -2.26,33.92 -2.57,33.54 -2.75,33.09 -2.93,32.64 -2.96,32.16 -2.98,31.67 -2.85,31.20 -2.72,30.73 -2.45,30.33 -2.18,29.93 -1.79,29.63 -1.40,29.34 -0.94,29.18 -0.48,29.03 0.00,29.03 0.48,29.03 0.94,29.18 1.40,29.34 1.79,29.63 2.18,29.93 2.45,30.33 2.72,30.73 2.85,31.20 2.98,31.67 2.96,32.16 2.93,32.64 2.75,33.09 2.57,33.55 2.26,33.92 1.94,34.29 1.52,34.54 1.11,34.79 0.63,34.89 0.16,35.00 -0.32,34.94 -0.80,34.89 -1.24,34.69 -1.68,34.48 -2.04,34.15 -2.39,33.81 -2.62,33.38 -2.84,32.95 -2.92,32.47 -3.00,31.99 -3.00,31.99 -3.00,32 -2.95,29.11 -2.89,26.22 -2.83,25.12 -2.76,24.03 -2.68,22.52 -2.60,21.01 -2.50,19.47 -2.40,17.92 -2.39,16.52 -2.38,15.11 -2.28,12.88 -2.18,10.64 -2.17,9.05 -2.17,7.46 -2.19,5.74 -2.21,4.02 -2.32,2.01 -2.44,0 -2.40,-0.29 -2.37,-0.58 -2.26,-0.86 -2.16,-1.13 -1.99,-1.37 -1.82,-1.62 -1.60,-1.81 -1.38,-2.01 -1.12,-2.14 -0.86,-2.28 -0.58,-2.35 -0.29,-2.42 0.00,-2.42 0.29,-2.42 0.58,-2.35 0.86,-2.28 1.12,-2.14 1.38,-2.01 1.60,-1.81 1.82,-1.62 1.99,-1.37 2.16,-1.13 2.26,-0.85 2.37,-0.58 2.40,-0.29 2.44,0.00 2.44,0.00 L 2.44,0 Z"></path></g><g transform="translate(375.75126016170725 453) rotate(0 1 11)" stroke="none"><path fill="#1e1e1e" d="M 2.63,0 Q 2.63,0 2.65,1.15 2.67,2.3 2.74,3.69 2.82,5.08 2.88,6.15 2.94,7.22 2.97,8.93 3.01,10.63 3.39,12.49 3.78,14.34 4.36,17.87 4.94,21.40 4.95,21.89 4.97,22.37 4.83,22.84 4.69,23.31 4.41,23.70 4.13,24.10 3.74,24.39 3.35,24.67 2.89,24.82 2.43,24.96 1.94,24.96 1.45,24.95 1.00,24.78 0.54,24.62 0.16,24.32 -0.21,24.02 -0.48,23.61 -0.74,23.20 -0.86,22.73 -0.98,22.26 -0.95,21.78 -0.91,21.30 -0.72,20.85 -0.54,20.40 -0.22,20.04 0.10,19.67 0.52,19.43 0.94,19.19 1.41,19.09 1.89,19.00 2.37,19.06 2.85,19.12 3.29,19.33 3.73,19.54 4.07,19.88 4.42,20.22 4.64,20.66 4.86,21.09 4.93,21.57 4.99,22.05 4.91,22.53 4.82,23.01 4.58,23.43 4.35,23.86 3.99,24.18 3.63,24.51 3.19,24.71 2.74,24.90 2.26,24.94 1.78,24.99 1.30,24.87 0.83,24.76 0.42,24.50 0.01,24.24 -0.29,23.87 -0.59,23.49 -0.77,23.04 -0.94,22.58 -0.94,22.59 -0.94,22.59 -1.51,19.69 -2.09,16.80 -2.20,15.31 -2.31,13.81 -2.66,12.24 -3.01,10.66 -2.97,8.94 -2.94,7.22 -2.88,6.15 -2.82,5.08 -2.74,3.69 -2.67,2.3 -2.65,1.15 -2.63,0 -2.59,-0.31 -2.55,-0.63 -2.44,-0.92 -2.33,-1.22 -2.15,-1.48 -1.97,-1.74 -1.73,-1.95 -1.49,-2.16 -1.21,-2.31 -0.93,-2.46 -0.62,-2.53 -0.31,-2.61 0.00,-2.61 0.31,-2.61 0.62,-2.53 0.93,-2.46 1.21,-2.31 1.49,-2.16 1.73,-1.95 1.97,-1.74 2.15,-1.48 2.33,-1.22 2.44,-0.92 2.55,-0.63 2.59,-0.31 2.63,0.00 2.63,0.00 L 2.63,0 Z"></path></g><g transform="translate(380.75126016170725 496) rotate(0 -0.5 6.5)" stroke="none"><path fill="#1e1e1e" d="M 2.64,0 Q 2.64,0 2.63,1.43 2.61,2.87 2.69,4.44 2.76,6.01 2.83,7.11 2.89,8.21 2.42,10.89 1.95,13.57 1.78,14.03 1.61,14.48 1.30,14.86 1.00,15.24 0.58,15.50 0.17,15.76 -0.29,15.88 -0.76,15.99 -1.25,15.95 -1.73,15.91 -2.18,15.72 -2.62,15.52 -2.99,15.20 -3.35,14.87 -3.58,14.45 -3.82,14.02 -3.91,13.54 -4.00,13.07 -3.93,12.58 -3.87,12.10 -3.65,11.67 -3.43,11.23 -3.09,10.89 -2.74,10.55 -2.30,10.33 -1.87,10.12 -1.38,10.05 -0.90,9.99 -0.42,10.08 0.04,10.18 0.47,10.42 0.89,10.66 1.21,11.02 1.54,11.38 1.73,11.83 1.92,12.28 1.95,12.77 1.99,13.25 1.87,13.72 1.75,14.19 1.49,14.60 1.23,15.01 0.85,15.32 0.47,15.62 0.01,15.78 -0.44,15.95 -0.93,15.96 -1.41,15.97 -1.88,15.83 -2.34,15.68 -2.74,15.40 -3.13,15.11 -3.41,14.72 -3.69,14.32 -3.84,13.86 -3.98,13.39 -3.96,12.90 -3.95,12.42 -3.95,12.42 -3.95,12.42 -3.42,10.31 -2.89,8.21 -2.83,7.11 -2.76,6.01 -2.69,4.44 -2.61,2.87 -2.63,1.43 -2.64,0 -2.60,-0.31 -2.57,-0.63 -2.45,-0.93 -2.34,-1.23 -2.16,-1.49 -1.98,-1.75 -1.74,-1.96 -1.50,-2.17 -1.22,-2.32 -0.93,-2.47 -0.62,-2.55 -0.31,-2.62 0.00,-2.62 0.31,-2.62 0.62,-2.55 0.93,-2.47 1.22,-2.32 1.50,-2.17 1.74,-1.96 1.98,-1.75 2.16,-1.49 2.34,-1.23 2.45,-0.93 2.57,-0.63 2.60,-0.31 2.64,0.00 2.64,0.00 L 2.64,0 Z"></path></g><g transform="translate(304.75126016170725 198) rotate(0 5.5 1.5)" stroke="none"><path fill="#1e1e1e" d="M 0,-2.59 Q 0,-2.59 1.45,-2.57 2.91,-2.56 4.19,-2.25 5.47,-1.94 7.05,-1.79 8.64,-1.63 10.33,-0.64 12.02,0.34 12.41,0.57 12.81,0.81 13.11,1.15 13.41,1.50 13.59,1.93 13.76,2.35 13.80,2.81 13.83,3.27 13.71,3.71 13.59,4.16 13.34,4.54 13.08,4.93 12.72,5.21 12.36,5.49 11.92,5.64 11.49,5.80 11.03,5.80 10.57,5.81 10.13,5.66 9.69,5.52 9.32,5.25 8.95,4.97 8.69,4.60 8.43,4.22 8.30,3.78 8.17,3.34 8.19,2.88 8.21,2.42 8.38,1.99 8.54,1.56 8.84,1.20 9.13,0.85 9.52,0.61 9.91,0.37 10.36,0.26 10.81,0.16 11.27,0.20 11.72,0.25 12.14,0.43 12.56,0.62 12.90,0.94 13.24,1.25 13.46,1.65 13.68,2.06 13.76,2.51 13.84,2.96 13.77,3.42 13.70,3.87 13.49,4.28 13.28,4.69 12.95,5.01 12.62,5.33 12.20,5.53 11.79,5.73 11.33,5.78 10.87,5.84 10.42,5.74 9.97,5.65 9.97,5.65 9.97,5.65 8.11,4.58 6.24,3.50 4.53,3.03 2.83,2.56 1.41,2.57 0,2.59 -0.31,2.55 -0.62,2.51 -0.91,2.40 -1.20,2.29 -1.46,2.11 -1.71,1.94 -1.92,1.70 -2.13,1.47 -2.27,1.19 -2.42,0.91 -2.49,0.61 -2.57,0.31 -2.57,-0.00 -2.57,-0.31 -2.49,-0.61 -2.42,-0.91 -2.27,-1.19 -2.13,-1.47 -1.92,-1.70 -1.71,-1.94 -1.46,-2.11 -1.20,-2.29 -0.91,-2.40 -0.62,-2.51 -0.31,-2.55 0.00,-2.59 0.00,-2.59 L 0,-2.59 Z"></path></g><g transform="translate(342.75126016170725 197) rotate(0 5 1.5)" stroke="none"><path fill="#1e1e1e" d="M 0.40,-2.44 Q 0.40,-2.44 2.12,-2.10 3.83,-1.75 5.92,-1.29 8.01,-0.82 9.72,-0.02 11.43,0.77 11.75,1.06 12.07,1.35 12.27,1.72 12.48,2.09 12.56,2.52 12.64,2.94 12.58,3.36 12.52,3.78 12.33,4.17 12.14,4.55 11.83,4.85 11.53,5.15 11.14,5.34 10.76,5.53 10.33,5.58 9.91,5.64 9.49,5.56 9.07,5.47 8.70,5.26 8.33,5.05 8.04,4.73 7.76,4.41 7.59,4.02 7.42,3.62 7.39,3.19 7.36,2.77 7.46,2.35 7.57,1.94 7.80,1.58 8.03,1.22 8.37,0.95 8.70,0.68 9.11,0.54 9.51,0.39 9.94,0.38 10.37,0.37 10.77,0.50 11.18,0.63 11.53,0.88 11.88,1.13 12.12,1.48 12.37,1.83 12.50,2.24 12.62,2.65 12.61,3.08 12.59,3.51 12.44,3.91 12.29,4.31 12.02,4.64 11.75,4.97 11.39,5.20 11.03,5.43 10.61,5.53 10.20,5.63 9.77,5.60 9.34,5.56 8.95,5.39 8.56,5.22 8.56,5.22 8.56,5.22 6.86,4.23 5.15,3.25 4.11,3.08 3.06,2.90 1.32,2.67 -0.40,2.44 -0.69,2.35 -0.98,2.27 -1.23,2.12 -1.49,1.97 -1.71,1.76 -1.92,1.55 -2.08,1.30 -2.24,1.05 -2.33,0.76 -2.42,0.48 -2.45,0.18 -2.47,-0.10 -2.42,-0.40 -2.37,-0.69 -2.25,-0.97 -2.14,-1.24 -1.95,-1.48 -1.77,-1.72 -1.54,-1.91 -1.31,-2.09 -1.04,-2.22 -0.77,-2.35 -0.48,-2.41 -0.18,-2.47 0.10,-2.45 0.40,-2.44 0.40,-2.44 L 0.40,-2.44 Z"></path></g><g transform="translate(363.75126016170725 198) rotate(0 3.5 0)" stroke="none"><path fill="#1e1e1e" d="M 0,-2.41 Q 0,-2.41 1.43,-2.42 2.87,-2.42 4.93,-2.47 7,-2.52 7.40,-2.45 7.80,-2.38 8.16,-2.19 8.52,-2.00 8.80,-1.71 9.08,-1.41 9.25,-1.04 9.42,-0.67 9.47,-0.26 9.51,0.13 9.42,0.53 9.34,0.93 9.13,1.28 8.92,1.63 8.61,1.89 8.29,2.16 7.92,2.31 7.54,2.46 7.13,2.48 6.72,2.50 6.33,2.39 5.94,2.28 5.60,2.05 5.26,1.82 5.01,1.50 4.77,1.18 4.64,0.79 4.51,0.40 4.51,-0.00 4.51,-0.40 4.64,-0.79 4.77,-1.18 5.01,-1.50 5.26,-1.83 5.60,-2.05 5.94,-2.28 6.33,-2.39 6.72,-2.50 7.13,-2.48 7.54,-2.46 7.92,-2.31 8.30,-2.15 8.61,-1.89 8.92,-1.63 9.13,-1.28 9.34,-0.93 9.42,-0.53 9.51,-0.13 9.47,0.26 9.42,0.67 9.25,1.04 9.08,1.41 8.80,1.71 8.52,2.00 8.16,2.19 7.80,2.38 7.40,2.45 6.99,2.52 6.99,2.52 7,2.52 4.93,2.47 2.87,2.42 1.43,2.42 0,2.41 -0.28,2.38 -0.57,2.34 -0.85,2.24 -1.12,2.13 -1.36,1.97 -1.60,1.80 -1.79,1.59 -1.98,1.37 -2.12,1.11 -2.25,0.85 -2.32,0.57 -2.39,0.29 -2.39,-0.00 -2.39,-0.29 -2.32,-0.57 -2.25,-0.85 -2.12,-1.11 -1.98,-1.37 -1.79,-1.59 -1.60,-1.80 -1.36,-1.97 -1.12,-2.13 -0.85,-2.24 -0.57,-2.34 -0.28,-2.38 0.00,-2.41 0.00,-2.41 L 0,-2.41 Z"></path></g><g transform="translate(259.75126016170725 122) rotate(0 4 14.5)" stroke="none"><path fill="#1e1e1e" d="M 2.46,0 Q 2.46,0 2.31,2.3 2.16,4.6 2.17,6.15 2.18,7.70 2.30,9.62 2.42,11.55 2.12,13.61 1.81,15.67 1.49,15.98 1.17,16.29 1.03,16.59 0.89,16.88 0.69,17.13 0.48,17.39 0.22,17.58 -0.03,17.78 -0.33,17.91 -0.63,18.04 -0.95,18.09 -1.27,18.15 -1.59,18.12 -1.92,18.10 -2.23,17.99 -2.54,17.89 -2.81,17.72 -3.09,17.55 -3.32,17.31 -3.54,17.08 -3.71,16.80 -3.87,16.52 -3.96,16.20 -4.05,15.89 -4.07,15.57 -4.08,15.24 -4.02,14.92 -3.96,14.60 -1.98,13.09 -0.00,11.59 0.89,10.87 1.79,10.16 2.77,9.61 3.75,9.07 4.98,8.78 6.21,8.49 7.61,8.31 9.01,8.13 11.06,9.02 13.10,9.91 13.49,11.23 13.88,12.55 13.96,14.43 14.04,16.32 13.65,18.20 13.26,20.09 12.78,21.54 12.31,22.99 11.23,25.37 10.15,27.74 8.81,29.30 7.47,30.85 5.81,31.39 4.15,31.93 2.98,32.02 1.81,32.12 0.25,31.90 -1.30,31.68 -2.44,31.43 -3.58,31.19 -4.07,31.01 -4.57,30.84 -4.98,30.51 -5.39,30.18 -5.68,29.74 -5.97,29.30 -6.10,28.79 -6.23,28.29 -6.19,27.76 -6.15,27.24 -5.95,26.75 -5.75,26.27 -5.40,25.88 -5.05,25.48 -4.60,25.22 -4.14,24.96 -3.63,24.85 -3.11,24.75 -2.59,24.82 -2.07,24.88 -1.60,25.11 -1.12,25.34 -0.75,25.71 -0.37,26.08 -0.14,26.55 0.09,27.02 0.17,27.54 0.24,28.06 0.15,28.57 0.05,29.09 -0.19,29.55 -0.45,30.01 -0.83,30.36 -1.22,30.72 -1.70,30.93 -2.18,31.14 -2.71,31.19 -3.23,31.23 -3.74,31.11 -4.25,30.99 -4.70,30.71 -5.14,30.43 -5.48,30.02 -5.81,29.62 -5.99,29.13 -6.18,28.63 -6.20,28.11 -6.22,27.58 -6.07,27.08 -5.92,26.58 -5.61,26.15 -5.31,25.72 -4.89,25.41 -4.46,25.10 -3.96,24.94 -3.46,24.78 -2.93,24.79 -2.41,24.80 -2.41,24.80 -2.41,24.80 -0.37,25.32 1.66,25.83 3.04,25.95 4.42,26.07 5.47,24.88 6.52,23.70 6.70,22.48 6.88,21.26 7.22,20.18 7.56,19.10 7.73,17.75 7.90,16.39 8.59,15.16 9.29,13.94 8.22,13.94 7.14,13.95 6.07,14.14 5.00,14.33 3.08,15.31 1.17,16.29 1.03,16.59 0.89,16.88 0.69,17.13 0.48,17.39 0.22,17.58 -0.03,17.78 -0.33,17.91 -0.63,18.04 -0.95,18.09 -1.27,18.15 -1.59,18.12 -1.92,18.10 -2.23,17.99 -2.54,17.89 -2.81,17.72 -3.09,17.55 -3.32,17.31 -3.54,17.08 -3.71,16.80 -3.87,16.52 -3.96,16.20 -4.05,15.89 -4.07,15.57 -4.08,15.24 -4.02,14.92 -3.96,14.60 -3.46,14.17 -2.96,13.74 -2.69,12.64 -2.42,11.55 -2.30,9.62 -2.18,7.70 -2.17,6.15 -2.16,4.6 -2.31,2.3 -2.46,0 -2.42,-0.29 -2.39,-0.58 -2.28,-0.86 -2.18,-1.14 -2.01,-1.38 -1.84,-1.63 -1.62,-1.83 -1.39,-2.02 -1.13,-2.16 -0.87,-2.30 -0.58,-2.37 -0.29,-2.44 0.00,-2.44 0.29,-2.44 0.58,-2.37 0.87,-2.30 1.13,-2.16 1.39,-2.02 1.62,-1.83 1.84,-1.63 2.01,-1.38 2.18,-1.14 2.28,-0.86 2.39,-0.58 2.42,-0.29 2.46,0.00 2.46,0.00 L 2.46,0 Z"></path></g><g transform="translate(261.75126016170725 129) rotate(0 5 1)" stroke="none"><path fill="#1e1e1e" d="M 0,-2.51 Q 0,-2.51 1.45,-2.51 2.91,-2.50 4.18,-2.20 5.45,-1.89 8.37,-1.15 11.28,-0.42 11.63,-0.15 11.99,0.11 12.24,0.48 12.48,0.85 12.60,1.27 12.72,1.70 12.70,2.14 12.67,2.59 12.51,3.00 12.34,3.41 12.05,3.75 11.77,4.09 11.39,4.31 11.01,4.54 10.57,4.64 10.14,4.73 9.70,4.68 9.26,4.64 8.86,4.45 8.45,4.26 8.13,3.96 7.81,3.65 7.60,3.26 7.40,2.87 7.33,2.43 7.25,1.99 7.33,1.55 7.40,1.12 7.61,0.73 7.81,0.33 8.14,0.03 8.46,-0.27 8.86,-0.45 9.26,-0.64 9.71,-0.68 10.15,-0.73 10.58,-0.64 11.01,-0.54 11.39,-0.31 11.77,-0.08 12.06,0.25 12.35,0.58 12.51,1.00 12.67,1.41 12.70,1.85 12.72,2.29 12.60,2.72 12.48,3.15 12.23,3.52 11.98,3.88 11.63,4.15 11.28,4.42 10.86,4.56 10.43,4.70 9.99,4.70 9.55,4.70 9.13,4.56 8.71,4.41 8.71,4.42 8.71,4.42 7.48,3.94 6.24,3.46 4.54,2.98 2.83,2.50 1.41,2.51 0,2.51 -0.30,2.48 -0.60,2.44 -0.88,2.33 -1.17,2.22 -1.41,2.05 -1.66,1.88 -1.87,1.65 -2.07,1.43 -2.21,1.16 -2.35,0.89 -2.42,0.59 -2.49,0.30 -2.49,-0.00 -2.49,-0.30 -2.42,-0.59 -2.35,-0.89 -2.21,-1.16 -2.07,-1.43 -1.87,-1.65 -1.66,-1.88 -1.41,-2.05 -1.16,-2.22 -0.88,-2.33 -0.60,-2.44 -0.30,-2.48 0.00,-2.51 0.00,-2.51 L 0,-2.51 Z"></path></g><g transform="translate(235.75126016170725 171) rotate(0 28.5 -7)" stroke="none"><path fill="#1e1e1e" d="M -0.65,-1.52 Q -0.65,-1.52 1.37,-2.34 3.40,-3.16 4.79,-3.87 6.17,-4.59 8.36,-5.15 10.54,-5.71 12.81,-6.47 15.08,-7.23 17.56,-7.85 20.05,-8.48 22.16,-9.28 24.26,-10.08 26.16,-10.52 28.05,-10.96 30.56,-11.37 33.07,-11.79 36.99,-12.53 40.91,-13.27 44.32,-13.87 47.73,-14.46 49.78,-14.74 51.83,-15.01 54.35,-15.33 56.87,-15.65 57.13,-15.63 57.40,-15.60 57.65,-15.50 57.89,-15.39 58.09,-15.21 58.29,-15.03 58.42,-14.79 58.55,-14.56 58.60,-14.30 58.65,-14.03 58.62,-13.77 58.58,-13.50 58.46,-13.26 58.34,-13.02 58.15,-12.83 57.96,-12.64 57.72,-12.53 57.47,-12.41 57.21,-12.37 56.94,-12.34 56.68,-12.39 56.42,-12.44 56.18,-12.57 55.95,-12.71 55.77,-12.91 55.59,-13.11 55.49,-13.36 55.38,-13.60 55.36,-13.87 55.34,-14.14 55.41,-14.40 55.47,-14.66 55.62,-14.88 55.77,-15.11 55.98,-15.28 56.19,-15.44 56.44,-15.53 56.69,-15.62 56.96,-15.63 57.23,-15.64 57.48,-15.56 57.74,-15.48 57.96,-15.32 58.17,-15.16 58.33,-14.94 58.48,-14.72 58.56,-14.47 58.64,-14.21 58.63,-13.94 58.62,-13.68 58.53,-13.42 58.43,-13.17 58.27,-12.96 58.10,-12.76 57.87,-12.61 57.64,-12.47 57.38,-12.41 57.12,-12.34 57.12,-12.34 57.12,-12.34 54.66,-12.27 52.19,-12.21 50.21,-11.96 48.22,-11.72 44.84,-11.09 41.46,-10.47 37.52,-9.68 33.58,-8.90 31.11,-8.43 28.65,-7.97 26.97,-7.69 25.29,-7.42 23.04,-6.53 20.79,-5.64 18.44,-5.00 16.09,-4.35 13.75,-3.48 11.40,-2.61 9.49,-2.04 7.59,-1.47 6.11,-0.88 4.64,-0.28 2.64,0.62 0.65,1.52 0.46,1.58 0.26,1.63 0.06,1.64 -0.13,1.65 -0.32,1.61 -0.52,1.57 -0.70,1.49 -0.88,1.40 -1.03,1.27 -1.19,1.15 -1.31,0.99 -1.43,0.83 -1.51,0.64 -1.59,0.46 -1.62,0.26 -1.65,0.07 -1.64,-0.12 -1.62,-0.32 -1.56,-0.51 -1.50,-0.70 -1.39,-0.87 -1.28,-1.04 -1.14,-1.18 -1.00,-1.32 -0.82,-1.42 -0.65,-1.52 -0.65,-1.52 L -0.65,-1.52 Z"></path></g><g transform="translate(282.75126016170725 159) rotate(0 -1.5 14.5)" stroke="none"><path fill="#1e1e1e" d="M 1.74,1.30 Q 1.74,1.30 0.90,2.47 0.06,3.64 -0.58,4.50 -1.23,5.36 -2.02,6.49 -2.81,7.61 -4.08,9.66 -5.35,11.70 -6.81,14.31 -8.28,16.91 -9.51,19.16 -10.74,21.41 -11.54,22.58 -12.35,23.74 -12.74,24.78 -13.13,25.82 -12.06,25.96 -10.99,26.10 -9.73,26.15 -8.48,26.20 -6.92,26.28 -5.35,26.37 -3.53,26.47 -1.70,26.57 -0.06,26.60 1.57,26.64 3.24,26.54 4.91,26.44 6.22,25.78 7.53,25.13 8.99,24.74 10.44,24.35 10.78,24.31 11.12,24.26 11.46,24.30 11.80,24.34 12.12,24.46 12.44,24.58 12.73,24.78 13.01,24.97 13.24,25.22 13.47,25.48 13.63,25.78 13.79,26.08 13.87,26.42 13.95,26.75 13.96,27.09 13.96,27.43 13.88,27.76 13.80,28.10 13.64,28.40 13.48,28.71 13.26,28.96 13.03,29.22 12.75,29.42 12.47,29.61 12.15,29.74 11.83,29.86 9.54,27.28 7.25,24.70 7.21,24.24 7.17,23.78 7.28,23.34 7.39,22.89 7.63,22.51 7.87,22.12 8.23,21.83 8.58,21.54 9.01,21.38 9.44,21.22 9.90,21.20 10.36,21.19 10.80,21.32 11.24,21.45 11.61,21.71 11.98,21.98 12.25,22.35 12.52,22.72 12.66,23.16 12.80,23.59 12.79,24.05 12.78,24.51 12.63,24.94 12.47,25.37 12.19,25.73 11.90,26.09 11.52,26.34 11.13,26.59 10.69,26.70 10.24,26.82 9.79,26.78 9.33,26.75 8.91,26.57 8.48,26.39 8.14,26.09 7.80,25.78 7.57,25.39 7.34,24.99 7.25,24.54 7.16,24.09 7.22,23.64 7.28,23.18 7.48,22.77 7.68,22.36 8.01,22.03 8.33,21.70 8.74,21.50 9.15,21.29 9.60,21.23 10.05,21.16 10.50,21.25 10.95,21.33 11.36,21.55 11.76,21.78 12.06,22.11 12.37,22.45 12.56,22.87 12.74,23.29 12.74,23.29 12.74,23.29 11.59,23.82 10.44,24.35 10.78,24.31 11.12,24.26 11.46,24.30 11.80,24.34 12.12,24.46 12.44,24.58 12.73,24.78 13.01,24.97 13.24,25.22 13.46,25.48 13.63,25.78 13.79,26.08 13.87,26.41 13.95,26.75 13.96,27.09 13.96,27.43 13.88,27.76 13.80,28.10 13.64,28.40 13.48,28.70 13.26,28.96 13.03,29.22 12.75,29.42 12.47,29.61 12.15,29.73 11.83,29.86 10.74,29.97 9.66,30.08 8.59,30.50 7.52,30.92 6.25,31.23 4.99,31.54 3.27,31.44 1.55,31.33 -0.09,31.36 -1.74,31.38 -3.60,31.45 -5.46,31.52 -7.16,31.54 -8.85,31.56 -10.26,31.41 -11.66,31.26 -13.39,30.41 -15.13,29.55 -15.90,28.64 -16.68,27.74 -16.81,26.18 -16.94,24.62 -16.13,22.99 -15.33,21.37 -14.57,20.60 -13.81,19.82 -12.72,17.50 -11.62,15.18 -10.32,12.43 -9.02,9.69 -7.84,7.27 -6.66,4.86 -5.08,2.91 -3.51,0.95 -2.62,-0.17 -1.74,-1.30 -1.56,-1.49 -1.38,-1.68 -1.15,-1.82 -0.93,-1.96 -0.68,-2.05 -0.43,-2.13 -0.17,-2.15 0.08,-2.17 0.34,-2.13 0.60,-2.09 0.84,-1.99 1.08,-1.88 1.29,-1.73 1.50,-1.57 1.67,-1.37 1.84,-1.16 1.95,-0.92 2.06,-0.69 2.12,-0.43 2.17,-0.17 2.16,0.08 2.15,0.34 2.08,0.60 2.00,0.85 1.87,1.08 1.74,1.30 1.74,1.30 L 1.74,1.30 Z"></path></g><g transform="translate(284.75126016170725 168) rotate(0 -0.5 13.5)" stroke="none"><path fill="#1e1e1e" d="M 2.37,0 Q 2.37,0 2.33,1.72 2.29,3.45 1.87,6.30 1.45,9.15 1.26,11.13 1.07,13.11 1.09,14.25 1.12,15.39 1.23,17.16 1.34,18.93 1.44,20.35 1.54,21.77 1.58,24.38 1.63,27.00 1.56,27.42 1.49,27.84 1.29,28.21 1.09,28.59 0.78,28.88 0.47,29.18 0.09,29.35 -0.29,29.53 -0.72,29.58 -1.14,29.63 -1.55,29.53 -1.97,29.44 -2.34,29.22 -2.70,29.00 -2.98,28.68 -3.25,28.35 -3.41,27.96 -3.57,27.56 -3.59,27.13 -3.61,26.71 -3.50,26.30 -3.39,25.89 -3.15,25.54 -2.91,25.18 -2.57,24.92 -2.23,24.67 -1.82,24.53 -1.42,24.40 -0.99,24.40 -0.57,24.40 -0.16,24.53 0.23,24.67 0.57,24.93 0.91,25.18 1.15,25.54 1.39,25.89 1.50,26.30 1.61,26.71 1.59,27.14 1.57,27.56 1.41,27.96 1.25,28.35 0.98,28.68 0.70,29.00 0.33,29.22 -0.02,29.44 -0.44,29.53 -0.85,29.63 -1.28,29.58 -1.70,29.53 -2.09,29.35 -2.47,29.17 -2.78,28.88 -3.09,28.59 -3.29,28.21 -3.49,27.83 -3.56,27.41 -3.63,26.99 -3.63,26.99 -3.63,26.99 -3.53,23.54 -3.43,20.09 -3.29,18.73 -3.16,17.38 -3.06,16.29 -2.97,15.20 -2.84,14.04 -2.70,12.88 -2.65,10.80 -2.60,8.72 -2.44,6.08 -2.29,3.44 -2.33,1.72 -2.37,0 -2.34,-0.28 -2.30,-0.56 -2.20,-0.83 -2.10,-1.10 -1.94,-1.34 -1.77,-1.57 -1.56,-1.76 -1.34,-1.95 -1.09,-2.08 -0.84,-2.22 -0.56,-2.29 -0.28,-2.35 0.00,-2.35 0.28,-2.35 0.56,-2.29 0.84,-2.22 1.09,-2.08 1.34,-1.95 1.56,-1.76 1.77,-1.57 1.94,-1.33 2.10,-1.10 2.20,-0.83 2.30,-0.56 2.34,-0.28 2.37,0.00 2.37,0.00 L 2.37,0 Z"></path></g><g transform="translate(260.75126016170725 122) rotate(0 9.5 -0.5)" stroke="none"><path fill="#1e1e1e" d="M 1.48,-2.22 Q 1.48,-2.22 2.35,-1.67 3.21,-1.12 4.34,-1.04 5.46,-0.97 7.09,-1.00 8.72,-1.04 9.98,-1.46 11.25,-1.88 12.96,-3.19 14.66,-4.50 16.34,-5.27 18.02,-6.05 18.54,-6.12 19.05,-6.20 19.56,-6.10 20.07,-6.01 20.52,-5.76 20.97,-5.51 21.32,-5.13 21.67,-4.75 21.88,-4.27 22.09,-3.80 22.14,-3.28 22.19,-2.77 22.07,-2.26 21.95,-1.76 21.68,-1.32 21.40,-0.88 21.00,-0.55 20.60,-0.22 20.12,-0.04 19.63,0.13 19.11,0.15 18.60,0.17 18.10,0.03 17.60,-0.11 17.18,-0.41 16.75,-0.71 16.45,-1.12 16.14,-1.54 15.98,-2.04 15.83,-2.53 15.84,-3.05 15.84,-3.57 16.02,-4.05 16.19,-4.54 16.51,-4.95 16.83,-5.36 17.27,-5.64 17.70,-5.92 18.20,-6.05 18.70,-6.18 19.22,-6.15 19.74,-6.11 20.21,-5.91 20.69,-5.71 21.08,-5.37 21.47,-5.03 21.73,-4.58 21.99,-4.13 22.09,-3.62 22.19,-3.11 22.13,-2.60 22.07,-2.09 21.84,-1.62 21.61,-1.15 21.25,-0.78 20.89,-0.41 20.43,-0.18 19.97,0.05 19.97,0.05 19.97,0.05 18.21,0.60 16.45,1.15 15.52,2.18 14.60,3.21 12.97,3.73 11.33,4.25 10.13,4.64 8.93,5.03 7.53,4.98 6.13,4.94 4.89,4.80 3.64,4.66 1.93,4.04 0.23,3.42 -0.62,2.82 -1.48,2.22 -1.72,2.01 -1.96,1.80 -2.15,1.54 -2.34,1.27 -2.46,0.97 -2.58,0.68 -2.62,0.36 -2.66,0.04 -2.63,-0.27 -2.60,-0.59 -2.49,-0.89 -2.38,-1.20 -2.20,-1.47 -2.02,-1.73 -1.78,-1.95 -1.55,-2.17 -1.26,-2.32 -0.98,-2.48 -0.67,-2.56 -0.36,-2.64 -0.04,-2.64 0.27,-2.65 0.59,-2.58 0.90,-2.51 1.19,-2.36 1.48,-2.22 1.48,-2.22 L 1.48,-2.22 Z"></path></g><g transform="translate(307.75126016170725 248) rotate(0 -1 7.5)" stroke="none"><path fill="#2f9e44" d="M 0,2.64 Q 0,2.64 -1.15,2.66 -2.3,2.68 -3.44,3.14 -4.58,3.59 -4.70,4.75 -4.82,5.90 -4.12,7.37 -3.41,8.83 -2.87,10.33 -2.34,11.84 -0.95,11.69 0.43,11.55 1.54,11.38 2.64,11.20 2.61,9.74 2.57,8.28 1.68,7.45 0.78,6.63 0.42,6.20 0.06,5.78 -0.14,5.27 -0.35,4.75 -0.38,4.20 -0.41,3.64 -0.27,3.10 -0.12,2.57 0.18,2.11 0.49,1.64 0.93,1.31 1.37,0.97 1.90,0.79 2.42,0.61 2.98,0.60 3.53,0.60 4.06,0.78 4.59,0.95 5.03,1.29 5.48,1.62 5.79,2.08 6.11,2.54 6.26,3.07 6.41,3.61 6.38,4.16 6.35,4.72 6.15,5.23 5.95,5.75 5.59,6.18 5.23,6.60 4.76,6.89 4.28,7.18 3.74,7.30 3.20,7.43 2.64,7.37 2.09,7.31 1.59,7.08 1.08,6.85 0.67,6.47 0.27,6.09 0.01,5.60 -0.25,5.11 -0.34,4.56 -0.43,4.01 -0.34,3.46 -0.26,2.91 -0.00,2.42 0.25,1.93 0.65,1.54 1.05,1.16 1.56,0.92 2.06,0.69 2.61,0.63 3.16,0.56 3.71,0.68 4.25,0.80 4.73,1.08 5.21,1.37 5.21,1.37 5.21,1.36 6.88,3.48 8.56,5.60 8.96,6.89 9.36,8.18 9.29,9.91 9.22,11.63 8.92,12.97 8.62,14.30 7.85,15.32 7.07,16.34 6.05,16.98 5.02,17.63 3.66,18.02 2.30,18.42 1.19,18.39 0.08,18.36 -1.28,18.19 -2.66,18.03 -4.53,17.16 -6.41,16.30 -7.28,15.31 -8.15,14.31 -8.61,12.93 -9.07,11.54 -10.12,9.29 -11.17,7.04 -11.12,5.54 -11.06,4.04 -10.74,2.55 -10.43,1.06 -9.73,0.12 -9.04,-0.81 -7.65,-1.21 -6.26,-1.61 -4.28,-2.14 -2.3,-2.68 -1.15,-2.66 0,-2.64 0.31,-2.61 0.63,-2.57 0.93,-2.45 1.23,-2.34 1.49,-2.16 1.75,-1.98 1.96,-1.74 2.18,-1.50 2.32,-1.22 2.47,-0.93 2.55,-0.62 2.62,-0.31 2.62,0.00 2.62,0.31 2.55,0.62 2.47,0.93 2.32,1.22 2.18,1.50 1.96,1.74 1.75,1.98 1.49,2.16 1.23,2.34 0.93,2.45 0.63,2.57 0.31,2.61 -0.00,2.64 -0.00,2.64 L 0,2.64 Z"></path></g><g transform="translate(337.75126016170725 358) rotate(0 10.5 0.5)" stroke="none"><path fill="#1e1e1e" d="M 0.51,-2.59 Q 0.51,-2.59 1.95,-2.28 3.38,-1.98 4.80,-1.90 6.22,-1.82 7.65,-1.86 9.07,-1.89 10.15,-1.94 11.22,-1.99 12.74,-2.06 14.25,-2.13 15.75,-2.18 17.26,-2.23 19.13,-2.25 21.00,-2.26 21.52,-2.18 22.04,-2.09 22.51,-1.84 22.97,-1.60 23.34,-1.21 23.70,-0.83 23.92,-0.35 24.14,0.12 24.20,0.65 24.26,1.17 24.14,1.69 24.03,2.20 23.76,2.66 23.49,3.11 23.08,3.45 22.68,3.79 22.19,3.99 21.70,4.19 21.17,4.21 20.64,4.24 20.13,4.10 19.62,3.96 19.19,3.66 18.75,3.37 18.43,2.95 18.11,2.53 17.94,2.02 17.77,1.52 17.77,0.99 17.77,0.47 17.94,-0.03 18.11,-0.53 18.43,-0.95 18.75,-1.37 19.19,-1.66 19.62,-1.96 20.13,-2.10 20.64,-2.24 21.17,-2.21 21.70,-2.19 22.19,-1.99 22.68,-1.79 23.08,-1.45 23.49,-1.11 23.76,-0.66 24.03,-0.20 24.14,0.30 24.26,0.82 24.20,1.34 24.14,1.87 23.92,2.35 23.70,2.83 23.34,3.21 22.97,3.60 22.50,3.84 22.04,4.09 21.52,4.18 20.99,4.26 20.99,4.26 20.99,4.26 19.13,4.25 17.26,4.23 15.75,4.18 14.25,4.13 12.73,4.06 11.21,3.99 10.10,3.93 8.99,3.87 7.39,3.77 5.79,3.67 4.08,3.40 2.36,3.13 0.92,2.86 -0.51,2.59 -0.82,2.49 -1.12,2.39 -1.39,2.22 -1.66,2.05 -1.88,1.82 -2.11,1.59 -2.27,1.32 -2.43,1.04 -2.52,0.74 -2.61,0.43 -2.62,0.11 -2.64,-0.20 -2.57,-0.51 -2.51,-0.82 -2.37,-1.11 -2.24,-1.40 -2.04,-1.65 -1.84,-1.90 -1.58,-2.09 -1.33,-2.28 -1.03,-2.41 -0.74,-2.54 -0.43,-2.59 -0.11,-2.64 0.20,-2.62 0.51,-2.59 0.51,-2.59 L 0.51,-2.59 Z"></path></g><g transform="translate(343.75126016170725 371) rotate(0 6 9.5)" stroke="none"><path fill="#1e1e1e" d="M 1.18,-2.37 Q 1.18,-2.37 2.33,-1.80 3.48,-1.23 4.55,-1.06 5.62,-0.90 6.61,-0.44 7.60,0.02 9.70,0.36 11.79,0.71 13.24,2.06 14.69,3.40 13.71,5.63 12.73,7.86 11.41,9.10 10.09,10.34 9.05,11.41 8.00,12.48 6.44,13.71 4.88,14.94 3.87,15.49 2.86,16.03 2.04,14.76 1.22,13.49 2.32,13.53 3.42,13.57 4.87,14.47 6.32,15.37 7.40,15.52 8.48,15.67 9.43,15.85 10.38,16.02 10.76,15.66 11.14,15.29 11.62,15.06 12.10,14.84 12.63,14.78 13.16,14.72 13.68,14.83 14.20,14.94 14.65,15.22 15.11,15.49 15.45,15.89 15.80,16.29 16.00,16.78 16.19,17.28 16.22,17.81 16.26,18.34 16.12,18.85 15.98,19.36 15.68,19.80 15.38,20.24 14.96,20.56 14.54,20.88 14.04,21.06 13.54,21.23 13.01,21.23 12.48,21.23 11.97,21.06 11.47,20.90 11.05,20.58 10.62,20.26 10.32,19.82 10.03,19.38 9.88,18.87 9.74,18.36 9.76,17.83 9.79,17.30 9.98,16.81 10.18,16.32 10.52,15.91 10.86,15.51 11.32,15.23 11.77,14.95 12.29,14.84 12.80,14.72 13.33,14.78 13.86,14.83 14.34,15.05 14.82,15.27 15.21,15.64 15.60,16.00 15.85,16.47 16.10,16.94 16.19,17.46 16.27,17.98 16.19,18.51 16.11,19.03 15.86,19.50 15.61,19.97 15.61,19.97 15.61,19.97 12.23,21.05 8.85,22.13 7.26,21.88 5.67,21.63 3.76,20.72 1.86,19.82 0.52,19.46 -0.80,19.10 -1.83,18.14 -2.86,17.17 -3.02,14.87 -3.18,12.57 -1.67,11.52 -0.16,10.47 1.17,9.72 2.51,8.97 3.57,7.96 4.62,6.94 5.86,5.77 7.11,4.60 8.25,4.40 9.39,4.19 9.55,5.27 9.71,6.35 8.50,6.01 7.30,5.67 5.92,5.13 4.55,4.59 2.83,4.06 1.11,3.53 -0.03,2.95 -1.18,2.37 -1.45,2.20 -1.72,2.02 -1.94,1.78 -2.15,1.55 -2.31,1.27 -2.46,0.99 -2.54,0.68 -2.63,0.37 -2.63,0.05 -2.64,-0.26 -2.57,-0.58 -2.50,-0.89 -2.36,-1.18 -2.21,-1.46 -2.00,-1.71 -1.80,-1.95 -1.54,-2.14 -1.28,-2.32 -0.98,-2.44 -0.68,-2.56 -0.36,-2.61 -0.05,-2.65 0.26,-2.62 0.58,-2.59 0.88,-2.48 1.18,-2.37 1.18,-2.37 L 1.18,-2.37 Z"></path></g><g transform="translate(350.75126016170725 336) rotate(0 0 8)" stroke="none"><path fill="#1e1e1e" d="M 2.59,0 Q 2.59,0 2.53,1.72 2.47,3.44 2.48,4.75 2.50,6.06 2.53,7.19 2.56,8.32 2.65,9.71 2.73,11.09 2.80,13.54 2.87,16 2.79,16.45 2.72,16.91 2.50,17.32 2.28,17.73 1.95,18.05 1.61,18.37 1.19,18.57 0.76,18.76 0.30,18.82 -0.15,18.87 -0.60,18.77 -1.06,18.67 -1.46,18.43 -1.86,18.19 -2.16,17.83 -2.46,17.48 -2.63,17.04 -2.80,16.61 -2.83,16.15 -2.85,15.68 -2.73,15.24 -2.60,14.79 -2.34,14.40 -2.08,14.02 -1.71,13.74 -1.34,13.46 -0.90,13.31 -0.46,13.16 0.00,13.16 0.46,13.16 0.90,13.31 1.34,13.46 1.71,13.74 2.08,14.02 2.34,14.40 2.60,14.79 2.73,15.24 2.85,15.68 2.83,16.15 2.80,16.61 2.63,17.05 2.46,17.48 2.16,17.83 1.86,18.19 1.46,18.43 1.06,18.67 0.60,18.77 0.15,18.87 -0.30,18.81 -0.76,18.76 -1.19,18.57 -1.61,18.37 -1.95,18.05 -2.28,17.73 -2.50,17.32 -2.72,16.91 -2.79,16.45 -2.87,15.99 -2.87,15.99 -2.87,16 -2.80,13.54 -2.73,11.09 -2.65,9.71 -2.56,8.32 -2.53,7.19 -2.50,6.06 -2.48,4.75 -2.47,3.44 -2.53,1.72 -2.59,0 -2.56,-0.31 -2.52,-0.62 -2.41,-0.91 -2.30,-1.20 -2.12,-1.46 -1.94,-1.72 -1.71,-1.93 -1.47,-2.13 -1.19,-2.28 -0.92,-2.43 -0.61,-2.50 -0.31,-2.58 0.00,-2.58 0.31,-2.58 0.61,-2.50 0.92,-2.43 1.19,-2.28 1.47,-2.13 1.71,-1.93 1.94,-1.72 2.12,-1.46 2.30,-1.20 2.41,-0.91 2.52,-0.62 2.56,-0.31 2.59,0.00 2.59,0.00 L 2.59,0 Z"></path></g><g stroke-linecap="round"><g transform="translate(103.75126016170725 396) rotate(0 256.2358758218587 0.537890368230876)"><path d="M-0.37 1.15 C85 1.15, 427.19 -0.13, 512.84 -0.22 M1.64 0.71 C86.78 0.91, 426.57 1.55, 511.81 1.19" stroke="#e03131" stroke-width="1" fill="none"></path></g></g><mask></mask><g transform="translate(626.7512601617073 374) rotate(0 16.5 17)" stroke="none"><path fill="#e03131" d="M 0.67,-1.56 Q 0.67,-1.56 2.67,-0.64 4.67,0.27 6.57,1.94 8.46,3.62 10.41,6.10 12.36,8.58 14.04,11.08 15.72,13.58 17.30,16.40 18.89,19.22 20.38,21.51 21.87,23.80 23.84,25.52 25.81,27.25 27.57,28.91 29.33,30.58 31.17,31.02 33.02,31.46 33.26,31.50 33.51,31.55 33.72,31.67 33.94,31.78 34.11,31.97 34.28,32.15 34.38,32.38 34.48,32.61 34.50,32.85 34.53,33.10 34.47,33.34 34.41,33.58 34.28,33.80 34.15,34.01 33.96,34.16 33.77,34.32 33.54,34.41 33.30,34.50 33.06,34.51 32.81,34.52 32.57,34.45 32.33,34.38 32.13,34.24 31.92,34.10 31.77,33.90 31.63,33.70 31.55,33.46 31.47,33.22 31.48,32.97 31.48,32.72 31.56,32.49 31.65,32.26 31.80,32.06 31.95,31.86 32.16,31.73 32.37,31.59 32.61,31.53 32.85,31.46 33.10,31.48 33.35,31.50 33.58,31.59 33.81,31.69 33.99,31.85 34.18,32.02 34.31,32.23 34.43,32.45 34.48,32.69 34.53,32.93 34.50,33.18 34.47,33.43 34.36,33.65 34.25,33.88 34.08,34.05 33.91,34.23 33.69,34.35 33.46,34.46 33.22,34.50 32.97,34.53 32.97,34.53 32.97,34.53 30.23,33.53 27.49,32.54 25.75,30.91 24.01,29.27 21.80,27.30 19.60,25.32 18.03,22.96 16.47,20.60 14.91,17.89 13.36,15.18 11.72,12.79 10.07,10.40 8.26,8.15 6.45,5.89 4.91,4.53 3.37,3.17 1.35,2.37 -0.67,1.56 -0.84,1.46 -1.02,1.35 -1.17,1.21 -1.32,1.07 -1.42,0.89 -1.53,0.72 -1.60,0.53 -1.66,0.33 -1.68,0.13 -1.70,-0.07 -1.66,-0.27 -1.63,-0.47 -1.55,-0.66 -1.47,-0.85 -1.34,-1.01 -1.22,-1.18 -1.06,-1.31 -0.90,-1.44 -0.72,-1.52 -0.53,-1.61 -0.33,-1.65 -0.13,-1.69 0.07,-1.68 0.27,-1.67 0.47,-1.62 0.67,-1.56 0.67,-1.56 L 0.67,-1.56 Z"></path></g><g transform="translate(665.7512601617073 379) rotate(0 -18 22.5)" stroke="none"><path fill="#e03131" d="M 1.91,0.47 Q 1.91,0.47 1.25,2.75 0.59,5.03 -0.30,7.49 -1.21,9.96 -1.57,11.99 -1.93,14.03 -2.72,16.23 -3.51,18.42 -4.44,20.50 -5.36,22.57 -5.97,24.28 -6.58,25.99 -7.08,27.37 -7.58,28.75 -8.08,29.76 -8.59,30.77 -9.36,32.04 -10.14,33.31 -11.18,34.36 -12.22,35.41 -13.45,36.57 -14.68,37.73 -15.45,38.57 -16.22,39.41 -17.81,40.82 -19.40,42.23 -20.39,42.84 -21.39,43.44 -23.52,43.97 -25.65,44.50 -27.79,45.31 -29.94,46.13 -31.18,46.74 -32.42,47.36 -33.35,46.99 -34.28,46.63 -34.61,46.68 -34.93,46.73 -35.26,46.69 -35.59,46.66 -35.90,46.55 -36.21,46.44 -36.49,46.26 -36.76,46.08 -36.99,45.84 -37.21,45.60 -37.37,45.31 -37.53,45.02 -37.61,44.70 -37.70,44.38 -37.71,44.06 -37.71,43.73 -37.64,43.40 -37.57,43.08 -37.42,42.79 -37.28,42.49 -37.06,42.24 -36.85,41.99 -36.59,41.80 -36.32,41.60 -36.01,41.48 -35.71,41.36 -36.50,41.94 -37.30,42.53 -37.01,42.20 -36.71,41.87 -36.33,41.65 -35.94,41.43 -35.51,41.35 -35.08,41.26 -34.64,41.32 -34.20,41.38 -33.80,41.58 -33.41,41.77 -33.09,42.08 -32.78,42.40 -32.58,42.79 -32.38,43.19 -32.32,43.62 -32.26,44.06 -32.35,44.50 -32.43,44.93 -32.64,45.32 -32.86,45.70 -33.19,46.00 -33.52,46.29 -33.92,46.47 -34.33,46.65 -34.77,46.68 -35.21,46.72 -35.64,46.61 -36.07,46.51 -36.44,46.27 -36.82,46.03 -37.09,45.69 -37.37,45.35 -37.52,44.93 -37.68,44.52 -37.69,44.07 -37.70,43.63 -37.57,43.21 -37.45,42.79 -37.19,42.43 -36.93,42.07 -36.57,41.81 -36.22,41.55 -35.79,41.42 -35.37,41.29 -34.93,41.30 -34.49,41.31 -34.07,41.46 -33.66,41.61 -33.31,41.89 -32.97,42.17 -32.73,42.54 -32.49,42.91 -32.38,43.34 -32.27,43.77 -32.31,44.21 -32.34,44.65 -33.31,45.64 -34.28,46.63 -34.61,46.68 -34.93,46.73 -35.26,46.69 -35.59,46.66 -35.90,46.55 -36.21,46.44 -36.49,46.26 -36.76,46.08 -36.99,45.84 -37.21,45.60 -37.37,45.31 -37.53,45.02 -37.61,44.70 -37.70,44.38 -37.71,44.06 -37.71,43.73 -37.64,43.40 -37.57,43.08 -37.42,42.79 -37.28,42.49 -37.07,42.24 -36.85,41.99 -36.59,41.80 -36.32,41.60 -36.01,41.48 -35.71,41.36 -34.41,41.74 -33.12,42.12 -31.28,41.59 -29.44,41.05 -28.18,40.52 -26.92,39.99 -24.51,39.05 -22.09,38.12 -20.72,37.17 -19.34,36.21 -18.48,35.45 -17.61,34.69 -15.55,32.88 -13.49,31.07 -12.11,29.22 -10.73,27.37 -10.09,26.13 -9.45,24.89 -8.73,23.15 -8.02,21.41 -7.18,19.42 -6.34,17.43 -5.69,15.48 -5.03,13.53 -4.70,11.21 -4.36,8.89 -3.63,6.53 -2.89,4.16 -2.40,1.84 -1.91,-0.47 -1.82,-0.70 -1.74,-0.92 -1.60,-1.11 -1.47,-1.31 -1.29,-1.47 -1.11,-1.62 -0.90,-1.73 -0.69,-1.84 -0.46,-1.90 -0.23,-1.95 0.00,-1.95 0.24,-1.95 0.47,-1.90 0.70,-1.84 0.91,-1.73 1.12,-1.62 1.30,-1.46 1.48,-1.30 1.61,-1.10 1.75,-0.91 1.83,-0.68 1.91,-0.46 1.94,-0.22 1.97,0.00 1.94,0.24 1.91,0.47 1.91,0.47 L 1.91,0.47 Z"></path></g><g transform="translate(678.7512601617073 392) rotate(0 15 -5)" stroke="none"><path fill="#e03131" d="M -0.58,-2.13 Q -0.58,-2.13 2.60,-2.88 5.80,-3.63 9.36,-5.02 12.92,-6.41 15.30,-7.55 17.68,-8.68 19.63,-9.48 21.57,-10.28 22.71,-10.75 23.84,-11.22 27.65,-10.86 31.45,-10.49 31.65,-10.22 31.85,-9.95 31.95,-9.62 32.06,-9.30 32.05,-8.97 32.05,-8.63 31.94,-8.31 31.82,-7.99 31.62,-7.73 31.41,-7.46 31.13,-7.28 30.84,-7.09 30.52,-7.00 30.19,-6.92 29.85,-6.94 29.52,-6.96 29.21,-7.09 28.89,-7.22 28.64,-7.45 28.39,-7.67 28.22,-7.96 28.05,-8.25 27.98,-8.58 27.91,-8.91 27.95,-9.25 27.99,-9.58 28.14,-9.89 28.29,-10.19 28.52,-10.43 28.76,-10.67 29.06,-10.83 29.36,-10.98 29.69,-11.03 30.02,-11.08 30.36,-11.02 30.69,-10.96 30.98,-10.80 31.28,-10.64 31.51,-10.39 31.74,-10.14 31.88,-9.83 32.01,-9.52 32.04,-9.19 32.08,-8.85 32.00,-8.52 31.92,-8.20 31.74,-7.91 31.57,-7.62 31.31,-7.41 31.04,-7.19 30.73,-7.07 30.41,-6.95 30.08,-6.94 29.74,-6.92 29.42,-7.02 29.09,-7.11 28.82,-7.31 28.54,-7.50 28.54,-7.50 28.54,-7.50 26.73,-7.63 24.93,-7.76 23.88,-7.54 22.84,-7.32 21.01,-6.51 19.18,-5.70 16.74,-4.40 14.30,-3.09 10.57,-1.45 6.84,0.18 3.71,1.15 0.58,2.13 0.31,2.17 0.05,2.21 -0.21,2.18 -0.47,2.16 -0.72,2.07 -0.98,1.98 -1.20,1.83 -1.42,1.69 -1.60,1.49 -1.79,1.30 -1.92,1.06 -2.05,0.83 -2.12,0.57 -2.19,0.32 -2.19,0.05 -2.20,-0.21 -2.14,-0.47 -2.08,-0.73 -1.97,-0.97 -1.85,-1.21 -1.68,-1.41 -1.50,-1.62 -1.29,-1.77 -1.07,-1.93 -0.82,-2.03 -0.58,-2.13 -0.58,-2.13 L -0.58,-2.13 Z"></path></g><g transform="translate(680.7512601617073 400) rotate(0 14.5 -3.5)" stroke="none"><path fill="#e03131" d="M 0,-1.95 Q 0,-1.95 1.71,-1.96 3.43,-1.96 6.84,-2.71 10.25,-3.46 13.02,-3.78 15.80,-4.10 17.65,-4.74 19.50,-5.39 21.55,-5.98 23.60,-6.56 25.99,-7.59 28.38,-8.62 28.65,-8.68 28.93,-8.74 29.21,-8.70 29.49,-8.67 29.74,-8.54 30.00,-8.42 30.20,-8.22 30.40,-8.03 30.53,-7.78 30.65,-7.52 30.70,-7.25 30.74,-6.97 30.69,-6.69 30.64,-6.41 30.50,-6.17 30.36,-5.92 30.16,-5.73 29.95,-5.54 29.69,-5.42 29.43,-5.31 29.15,-5.28 28.87,-5.26 28.60,-5.32 28.32,-5.39 28.09,-5.54 27.85,-5.69 27.67,-5.90 27.49,-6.12 27.39,-6.38 27.29,-6.65 27.28,-6.93 27.27,-7.21 27.35,-7.48 27.43,-7.75 27.59,-7.98 27.75,-8.21 27.98,-8.38 28.20,-8.55 28.47,-8.63 28.74,-8.72 29.02,-8.71 29.30,-8.71 29.57,-8.61 29.84,-8.52 30.06,-8.35 30.28,-8.17 30.43,-7.94 30.59,-7.70 30.66,-7.43 30.73,-7.16 30.71,-6.87 30.69,-6.59 30.58,-6.33 30.47,-6.07 30.29,-5.86 30.10,-5.65 29.86,-5.51 29.61,-5.37 29.61,-5.37 29.61,-5.37 27.04,-4.51 24.47,-3.66 22.52,-3.05 20.57,-2.44 18.42,-1.62 16.26,-0.81 13.67,-0.39 11.08,0.01 7.27,0.99 3.46,1.96 1.73,1.96 0,1.95 -0.23,1.92 -0.46,1.90 -0.68,1.81 -0.91,1.73 -1.10,1.59 -1.29,1.46 -1.45,1.28 -1.61,1.11 -1.72,0.90 -1.83,0.69 -1.88,0.46 -1.94,0.23 -1.94,-0.00 -1.94,-0.23 -1.88,-0.46 -1.83,-0.69 -1.72,-0.90 -1.61,-1.11 -1.45,-1.28 -1.29,-1.46 -1.10,-1.59 -0.90,-1.73 -0.68,-1.81 -0.46,-1.90 -0.23,-1.92 0.00,-1.95 0.00,-1.95 L 0,-1.95 Z"></path></g><g transform="translate(724.7512601617073 367) rotate(0 0.5 24.5)" stroke="none"><path fill="#e03131" d="M 1.88,0 Q 1.88,0 1.80,3.44 1.73,6.89 1.67,10.37 1.61,13.85 1.57,16.48 1.53,19.11 1.50,21.95 1.47,24.79 1.45,27.44 1.43,30.08 1.69,33.16 1.96,36.23 2.12,38.16 2.28,40.08 2.45,41.19 2.62,42.29 2.83,43.68 3.03,45.06 3.05,46.51 3.06,47.96 3.04,48.21 3.01,48.46 2.93,48.69 2.84,48.93 2.70,49.14 2.57,49.34 2.38,49.51 2.20,49.68 1.98,49.80 1.76,49.92 1.52,49.98 1.28,50.05 1.03,50.05 0.78,50.05 0.53,50.00 0.29,49.94 0.07,49.83 -0.14,49.72 -0.33,49.55 -0.52,49.39 -0.67,49.19 -0.81,48.98 -0.90,48.75 -1.00,48.52 -1.03,48.27 -1.06,48.03 -1.01,47.68 -0.95,47.33 -0.80,47.03 -0.64,46.74 -0.39,46.51 -0.15,46.28 0.15,46.14 0.45,46.00 0.78,45.96 1.12,45.93 1.44,46.00 1.77,46.08 2.06,46.25 2.34,46.42 2.56,46.68 2.77,46.94 2.90,47.25 3.02,47.56 3.03,47.89 3.05,48.23 2.96,48.55 2.87,48.87 2.68,49.15 2.49,49.42 2.22,49.63 1.96,49.83 1.64,49.93 1.32,50.04 0.99,50.04 0.65,50.04 0.33,49.93 0.02,49.82 -0.24,49.62 -0.50,49.41 -0.69,49.13 -0.88,48.86 -0.97,48.53 -1.05,48.21 -1.03,47.88 -1.01,47.54 -0.89,47.23 -0.76,46.92 -0.55,46.67 -0.33,46.41 -0.04,46.24 0.24,46.07 0.56,46.00 0.89,45.93 1.23,45.97 1.56,46.00 1.86,46.15 2.16,46.29 2.41,46.52 2.65,46.75 2.80,47.05 2.96,47.34 3.01,47.67 3.06,48.00 3.06,47.98 3.06,47.96 3.04,48.21 3.01,48.46 2.93,48.69 2.84,48.93 2.70,49.14 2.57,49.34 2.38,49.51 2.20,49.68 1.98,49.80 1.76,49.92 1.52,49.98 1.28,50.05 1.03,50.05 0.78,50.05 0.53,50.00 0.29,49.94 0.07,49.83 -0.14,49.72 -0.33,49.55 -0.52,49.39 -0.67,49.19 -0.81,48.98 -0.90,48.75 -1.00,48.52 -1.03,48.27 -1.06,48.03 -1.06,46.58 -1.06,45.13 -0.92,43.79 -0.77,42.45 -0.71,41.36 -0.64,40.27 -0.73,38.38 -0.81,36.49 -1.12,33.29 -1.43,30.08 -1.45,27.44 -1.47,24.79 -1.50,21.95 -1.53,19.11 -1.57,16.48 -1.61,13.85 -1.67,10.37 -1.73,6.89 -1.80,3.44 -1.88,0 -1.85,-0.22 -1.83,-0.45 -1.75,-0.66 -1.67,-0.87 -1.54,-1.06 -1.41,-1.25 -1.24,-1.40 -1.07,-1.55 -0.87,-1.65 -0.66,-1.76 -0.44,-1.81 -0.22,-1.87 0.00,-1.87 0.22,-1.87 0.44,-1.81 0.66,-1.76 0.87,-1.65 1.07,-1.55 1.24,-1.40 1.41,-1.25 1.54,-1.06 1.67,-0.87 1.75,-0.66 1.83,-0.45 1.85,-0.22 1.88,0.00 1.88,0.00 L 1.88,0 Z"></path></g><g transform="translate(736.7512601617073 383) rotate(0 -7.5 6)" stroke="none"><path fill="#e03131" d="M 1.14,2.01 Q 1.14,2.01 -0.92,3.04 -3.00,4.08 -4.72,5.06 -6.45,6.05 -8.41,7.03 -10.38,8.01 -11.35,8.77 -12.33,9.52 -13.38,10.21 -14.43,10.91 -15.57,11.72 -16.72,12.54 -16.96,12.68 -17.21,12.81 -17.48,12.89 -17.75,12.97 -18.03,12.98 -18.31,12.99 -18.59,12.93 -18.87,12.87 -19.12,12.75 -19.38,12.63 -19.59,12.45 -19.81,12.27 -19.98,12.04 -20.15,11.81 -20.26,11.55 -20.37,11.29 -20.41,11.01 -20.45,10.74 -20.43,10.45 -20.40,10.17 -20.31,9.91 -20.22,9.64 -20.07,9.40 -19.92,9.16 -19.71,8.97 -19.51,8.78 -17.65,9.31 -15.80,9.85 -12.86,9.78 -9.93,9.72 -8.08,9.55 -6.23,9.37 -5.07,9.18 -3.90,9.00 -2.78,8.88 -1.67,8.77 1.15,8.62 3.98,8.47 4.39,8.53 4.79,8.60 5.15,8.79 5.52,8.98 5.80,9.27 6.08,9.57 6.25,9.94 6.43,10.31 6.47,10.71 6.52,11.12 6.43,11.52 6.35,11.92 6.14,12.27 5.93,12.62 5.62,12.89 5.31,13.16 4.93,13.31 4.55,13.46 4.14,13.49 3.73,13.51 3.34,13.40 2.94,13.29 2.60,13.07 2.26,12.84 2.02,12.51 1.77,12.19 1.63,11.80 1.50,11.42 1.50,11.01 1.50,10.60 1.63,10.21 1.76,9.82 2.00,9.49 2.25,9.17 2.59,8.94 2.92,8.70 3.32,8.59 3.71,8.48 4.12,8.50 4.53,8.52 4.91,8.67 5.29,8.82 5.60,9.09 5.91,9.35 6.13,9.70 6.34,10.05 6.43,10.45 6.52,10.85 6.48,11.25 6.43,11.66 6.26,12.03 6.09,12.40 5.81,12.70 5.53,13.00 5.17,13.19 4.81,13.39 4.41,13.46 4.01,13.52 4.01,13.52 4.01,13.52 1.99,13.49 -0.02,13.45 -1.74,13.39 -3.45,13.34 -4.56,13.38 -5.67,13.43 -7.83,13.81 -9.98,14.18 -12.04,14.27 -14.09,14.35 -16.61,13.68 -19.14,13.00 -17.93,12.77 -16.72,12.54 -16.96,12.68 -17.21,12.81 -17.48,12.89 -17.75,12.97 -18.03,12.98 -18.31,12.99 -18.59,12.93 -18.87,12.87 -19.12,12.75 -19.38,12.63 -19.59,12.45 -19.81,12.27 -19.98,12.04 -20.15,11.81 -20.26,11.55 -20.37,11.29 -20.41,11.01 -20.45,10.74 -20.43,10.45 -20.40,10.17 -20.31,9.91 -20.22,9.64 -20.07,9.40 -19.92,9.16 -19.71,8.97 -19.51,8.78 -18.00,8.05 -16.49,7.32 -15.47,6.83 -14.45,6.33 -13.25,5.64 -12.06,4.94 -10.26,3.87 -8.46,2.80 -6.75,1.65 -5.04,0.51 -3.09,-0.74 -1.14,-2.01 -0.89,-2.12 -0.63,-2.22 -0.35,-2.27 -0.08,-2.31 0.19,-2.29 0.47,-2.26 0.73,-2.17 1.00,-2.08 1.23,-1.93 1.47,-1.78 1.66,-1.58 1.85,-1.38 1.99,-1.14 2.13,-0.89 2.21,-0.62 2.28,-0.36 2.29,-0.08 2.30,0.19 2.25,0.47 2.19,0.74 2.07,0.99 1.95,1.24 1.77,1.46 1.59,1.67 1.37,1.84 1.14,2.01 1.14,2.01 L 1.14,2.01 Z"></path></g><g stroke-linecap="round"><g transform="translate(500.2533171385379 325.3679552112116) rotate(0 0.8384040848662551 35.72990166465841)"><path d="M-0.96 -0.72 C-0.86 11.22, 0.16 60.28, 0.41 72.18 M0.74 1.52 C1.22 13.06, 2.26 58.68, 2.64 70.34" stroke="#1971c2" stroke-width="1" fill="none"></path></g></g><mask></mask><g stroke-linecap="round"><g transform="translate(248.8753813559831 328.6842868178416) rotate(0 -1.6839372431215587 34.729944127907636)"><path d="M0.15 -1.04 C-0.19 10.68, -2.28 57.72, -2.82 69.42 M-1.24 1.03 C-1.61 12.96, -3.08 59.01, -3.51 70.5" stroke="#1971c2" stroke-width="1" fill="none"></path></g></g><mask></mask><g transform="translate(494.94718656792986 278.27604639706544) rotate(0 8.954095337901009 14.591859069172045)" stroke="none"><path fill="#1971c2" d="M 2.51,0 Q 2.51,0 2.41,1.90 2.32,3.81 2.52,5.03 2.71,6.25 2.99,7.53 3.27,8.80 3.44,10.06 3.61,11.32 3.70,12.44 3.80,13.57 3.89,15.64 3.99,17.72 4.01,18.92 4.02,20.11 4.09,21.76 4.16,23.41 4.35,24.71 4.55,26.01 6.12,26.08 7.69,26.15 10.13,25.81 12.57,25.47 14.16,24.28 15.75,23.10 16.09,23.04 16.44,22.98 16.78,23.01 17.13,23.03 17.46,23.14 17.79,23.25 18.09,23.43 18.38,23.61 18.63,23.86 18.87,24.11 19.04,24.41 19.22,24.71 19.32,25.04 19.42,25.38 19.44,25.72 19.45,26.07 19.39,26.41 19.32,26.75 19.17,27.07 19.03,27.38 18.81,27.65 18.59,27.93 18.32,28.14 18.04,28.35 17.72,28.49 17.40,28.63 16.04,28.33 14.67,28.03 14.38,27.67 14.08,27.31 13.91,26.87 13.75,26.43 13.73,25.97 13.71,25.50 13.85,25.05 13.98,24.61 14.25,24.22 14.52,23.84 14.89,23.57 15.27,23.29 15.72,23.15 16.16,23.01 16.63,23.02 17.09,23.02 17.53,23.18 17.97,23.34 18.34,23.63 18.71,23.92 18.96,24.31 19.22,24.70 19.33,25.15 19.45,25.60 19.42,26.07 19.38,26.53 19.20,26.96 19.02,27.39 18.71,27.74 18.41,28.09 18.00,28.33 17.60,28.56 17.14,28.65 16.68,28.75 16.22,28.69 15.76,28.63 15.34,28.42 14.92,28.22 14.58,27.89 14.25,27.57 14.04,27.15 13.83,26.73 13.76,26.27 13.69,25.81 13.78,25.35 13.86,24.89 14.09,24.48 14.31,24.08 14.66,23.76 15.00,23.45 15.43,23.26 15.85,23.07 16.32,23.03 16.78,22.99 17.24,23.09 17.69,23.20 16.72,23.15 15.75,23.10 16.09,23.04 16.44,22.98 16.78,23.01 17.13,23.03 17.46,23.14 17.79,23.25 18.09,23.43 18.38,23.61 18.62,23.86 18.87,24.11 19.04,24.41 19.22,24.71 19.32,25.04 19.42,25.38 19.44,25.72 19.45,26.07 19.39,26.41 19.32,26.75 19.17,27.07 19.03,27.38 18.81,27.65 18.59,27.93 18.32,28.14 18.04,28.35 17.72,28.49 17.40,28.63 16.65,29.49 15.89,30.36 14.72,30.69 13.55,31.01 12.02,31.34 10.49,31.66 9.00,31.86 7.52,32.05 5.67,32.05 3.82,32.05 2.02,31.22 0.22,30.38 -0.45,28.91 -1.13,27.44 -1.32,25.43 -1.51,23.42 -1.44,21.77 -1.38,20.13 -1.37,18.95 -1.37,17.77 -1.33,15.78 -1.29,13.80 -1.35,11.77 -1.42,9.75 -1.69,8.32 -1.95,6.90 -2.13,5.35 -2.32,3.81 -2.41,1.90 -2.51,0 -2.47,-0.30 -2.44,-0.60 -2.33,-0.88 -2.22,-1.16 -2.05,-1.41 -1.88,-1.66 -1.65,-1.86 -1.42,-2.06 -1.15,-2.20 -0.89,-2.35 -0.59,-2.42 -0.30,-2.49 0.00,-2.49 0.30,-2.49 0.59,-2.42 0.89,-2.35 1.15,-2.20 1.42,-2.06 1.65,-1.86 1.88,-1.66 2.05,-1.41 2.22,-1.16 2.33,-0.88 2.44,-0.60 2.47,-0.30 2.51,0.00 2.51,0.00 L 2.51,0 Z"></path></g><g transform="translate(487.6512570333438 291.5413728235855) rotate(0 9.285728498564026 -0.6632663213260059)" stroke="none"><path fill="#1971c2" d="M 0,-2.57 Q 0,-2.57 1.33,-2.57 2.66,-2.58 3.80,-2.60 4.94,-2.62 7.40,-2.64 9.86,-2.65 12.00,-3.10 14.15,-3.54 16.29,-3.80 18.42,-4.06 18.87,-4.01 19.31,-3.96 19.71,-3.77 20.11,-3.59 20.43,-3.28 20.75,-2.97 20.96,-2.58 21.17,-2.19 21.24,-1.75 21.31,-1.31 21.23,-0.88 21.16,-0.44 20.95,-0.05 20.74,0.33 20.42,0.64 20.10,0.94 19.70,1.13 19.29,1.31 18.85,1.36 18.41,1.40 17.98,1.31 17.55,1.21 17.17,0.98 16.79,0.75 16.50,0.41 16.21,0.08 16.05,-0.33 15.89,-0.74 15.87,-1.18 15.84,-1.62 15.96,-2.05 16.08,-2.48 16.33,-2.85 16.58,-3.21 16.94,-3.48 17.29,-3.75 17.71,-3.89 18.13,-4.03 18.57,-4.03 19.02,-4.02 19.44,-3.88 19.86,-3.74 20.21,-3.47 20.56,-3.20 20.81,-2.83 21.06,-2.47 21.17,-2.04 21.29,-1.61 21.27,-1.17 21.24,-0.73 21.08,-0.31 20.91,0.09 20.62,0.42 20.34,0.76 19.95,0.99 19.57,1.22 19.14,1.31 18.71,1.41 18.71,1.41 18.71,1.41 16.99,1.55 15.28,1.69 13.96,1.98 12.63,2.26 11.25,2.46 9.87,2.65 7.40,2.64 4.94,2.62 3.80,2.60 2.66,2.58 1.33,2.57 0,2.57 -0.30,2.53 -0.61,2.49 -0.90,2.38 -1.19,2.27 -1.45,2.10 -1.70,1.92 -1.91,1.69 -2.11,1.46 -2.26,1.18 -2.40,0.91 -2.47,0.61 -2.55,0.30 -2.55,-0.00 -2.55,-0.31 -2.47,-0.61 -2.40,-0.91 -2.26,-1.18 -2.11,-1.46 -1.91,-1.69 -1.70,-1.92 -1.45,-2.10 -1.19,-2.27 -0.90,-2.38 -0.61,-2.49 -0.30,-2.53 0.00,-2.57 0.00,-2.57 L 0,-2.57 Z"></path></g><g transform="translate(242.2427181427231 280.92911168236947) rotate(0 4.974497409945002 13.265326426520033)" stroke="none"><path fill="#1971c2" d="M 2.18,0.33 Q 2.18,0.33 1.68,2.79 1.18,5.25 0.94,7.55 0.70,9.85 0.57,11.98 0.44,14.10 0.42,15.96 0.40,17.82 0.47,19.18 0.54,20.54 0.70,22.02 0.85,23.49 2.36,23.62 3.87,23.74 5.00,23.67 6.13,23.61 6.83,23.41 7.54,23.21 7.52,22.70 7.49,22.20 7.63,21.71 7.77,21.22 8.05,20.80 8.34,20.38 8.74,20.08 9.15,19.77 9.63,19.61 10.11,19.45 10.62,19.45 11.13,19.45 11.61,19.62 12.09,19.78 12.49,20.09 12.89,20.40 13.17,20.82 13.46,21.24 13.59,21.73 13.72,22.22 13.70,22.73 13.67,23.23 13.48,23.70 13.29,24.17 12.96,24.56 12.63,24.94 12.19,25.20 11.76,25.46 11.26,25.57 10.76,25.68 10.26,25.62 9.76,25.56 9.30,25.35 8.84,25.13 8.47,24.78 8.10,24.43 7.87,23.98 7.63,23.54 7.55,23.03 7.47,22.53 7.56,22.03 7.64,21.53 7.88,21.09 8.12,20.64 8.49,20.29 8.86,19.94 9.32,19.73 9.78,19.52 10.28,19.47 10.79,19.42 11.28,19.53 11.78,19.64 12.21,19.90 12.65,20.16 12.97,20.55 13.30,20.94 13.49,21.41 13.67,21.88 13.67,21.88 13.67,21.88 12.55,24.97 11.43,28.05 10.24,28.71 9.05,29.37 7.57,29.40 6.08,29.44 4.82,29.32 3.55,29.21 1.93,28.90 0.30,28.60 -1.18,27.55 -2.68,26.49 -3.09,24.99 -3.50,23.48 -3.33,21.99 -3.16,20.51 -3.06,19.14 -2.97,17.76 -2.93,15.88 -2.89,13.99 -2.88,11.80 -2.87,9.61 -2.79,7.13 -2.71,4.65 -2.44,2.16 -2.18,-0.33 -2.11,-0.59 -2.04,-0.84 -1.90,-1.08 -1.77,-1.31 -1.59,-1.50 -1.41,-1.70 -1.18,-1.84 -0.96,-1.98 -0.71,-2.07 -0.46,-2.16 -0.19,-2.18 0.07,-2.20 0.33,-2.16 0.59,-2.12 0.84,-2.02 1.08,-1.92 1.30,-1.76 1.51,-1.60 1.68,-1.40 1.85,-1.19 1.97,-0.95 2.09,-0.71 2.14,-0.45 2.20,-0.19 2.19,0.07 2.18,0.33 2.18,0.33 L 2.18,0.33 Z"></path></g><g transform="translate(235.61005492946308 291.5413728235855) rotate(0 8.954095337901023 0)" stroke="none"><path fill="#1971c2" d="M 0,-2.62 Q 0,-2.62 1.52,-2.59 3.05,-2.57 4.27,-2.58 5.49,-2.60 7.15,-2.68 8.81,-2.75 9.93,-2.82 11.05,-2.89 12.88,-2.92 14.71,-2.95 16.31,-2.98 17.90,-3.00 18.38,-2.92 18.86,-2.84 19.29,-2.62 19.72,-2.39 20.06,-2.03 20.39,-1.68 20.60,-1.24 20.80,-0.80 20.85,-0.32 20.90,0.16 20.80,0.63 20.70,1.11 20.44,1.52 20.19,1.94 19.82,2.26 19.45,2.57 19.00,2.75 18.55,2.93 18.06,2.96 17.58,2.98 17.11,2.85 16.64,2.72 16.24,2.45 15.84,2.18 15.54,1.79 15.25,1.40 15.09,0.94 14.94,0.48 14.94,-0.00 14.94,-0.48 15.09,-0.94 15.25,-1.40 15.54,-1.79 15.84,-2.18 16.24,-2.45 16.64,-2.72 17.11,-2.85 17.58,-2.98 18.06,-2.96 18.55,-2.93 19.00,-2.75 19.45,-2.57 19.82,-2.26 20.19,-1.94 20.45,-1.52 20.70,-1.11 20.80,-0.63 20.90,-0.16 20.85,0.32 20.80,0.80 20.60,1.24 20.39,1.68 20.06,2.04 19.72,2.39 19.29,2.62 18.86,2.84 18.38,2.92 17.90,3.00 17.90,3.00 17.90,3.00 16.31,2.98 14.71,2.95 12.88,2.92 11.05,2.89 9.93,2.82 8.81,2.75 7.15,2.68 5.49,2.60 4.27,2.58 3.05,2.57 1.52,2.59 0,2.62 -0.31,2.58 -0.62,2.55 -0.92,2.43 -1.22,2.32 -1.48,2.14 -1.74,1.96 -1.95,1.72 -2.16,1.49 -2.30,1.21 -2.45,0.93 -2.53,0.62 -2.60,0.31 -2.60,-0.00 -2.60,-0.31 -2.53,-0.62 -2.45,-0.93 -2.30,-1.21 -2.16,-1.49 -1.95,-1.72 -1.74,-1.96 -1.48,-2.14 -1.22,-2.32 -0.92,-2.43 -0.62,-2.55 -0.31,-2.58 0.00,-2.62 0.00,-2.62 L 0,-2.62 Z"></path></g><g transform="translate(262.14070778250317 306.79649821408356) rotate(0 -0.3316331606630172 2.6530652853039953)" stroke="none"><path fill="#1971c2" d="M 2.41,0.48 Q 2.41,0.48 2.27,1.44 2.12,2.40 2.03,3.90 1.94,5.40 1.86,5.82 1.78,6.23 1.56,6.60 1.35,6.96 1.03,7.24 0.71,7.52 0.32,7.68 -0.06,7.85 -0.48,7.87 -0.90,7.90 -1.31,7.80 -1.72,7.69 -2.07,7.46 -2.43,7.23 -2.69,6.89 -2.95,6.56 -3.09,6.16 -3.23,5.76 -3.24,5.34 -3.24,4.92 -3.12,4.52 -2.99,4.11 -2.74,3.77 -2.49,3.43 -2.14,3.19 -1.79,2.95 -1.39,2.83 -0.98,2.71 -0.56,2.72 -0.14,2.74 0.25,2.89 0.64,3.04 0.97,3.31 1.30,3.58 1.52,3.94 1.75,4.30 1.84,4.71 1.94,5.12 1.90,5.54 1.86,5.96 1.69,6.35 1.52,6.73 1.23,7.05 0.95,7.36 0.57,7.56 0.20,7.77 -0.20,7.84 -0.62,7.92 -1.04,7.85 -1.45,7.79 -1.83,7.60 -2.21,7.41 -2.50,7.10 -2.80,6.80 -2.98,6.42 -3.17,6.04 -3.22,5.62 -3.27,5.20 -3.27,5.20 -3.27,5.20 -3.08,3.30 -2.88,1.40 -2.65,0.46 -2.41,-0.48 -2.32,-0.76 -2.23,-1.04 -2.07,-1.29 -1.91,-1.55 -1.70,-1.75 -1.48,-1.96 -1.23,-2.11 -0.97,-2.26 -0.69,-2.34 -0.40,-2.43 -0.10,-2.44 0.18,-2.45 0.48,-2.39 0.77,-2.34 1.04,-2.21 1.30,-2.08 1.54,-1.90 1.77,-1.71 1.95,-1.47 2.13,-1.24 2.24,-0.96 2.36,-0.69 2.41,-0.40 2.46,-0.10 2.44,0.18 2.41,0.48 2.41,0.48 L 2.41,0.48 Z"></path></g><g transform="translate(518.8247741356658 300.82710132214953) rotate(0 2.321432124641035 5.306130570607991)" stroke="none"><path fill="#1971c2" d="M -0.43,-2.61 Q -0.43,-2.61 0.72,-2.82 1.87,-3.02 3.13,-2.95 4.39,-2.88 6.13,-1.87 7.88,-0.85 8.37,0.75 8.87,2.37 8.66,3.49 8.46,4.61 7.85,6.00 7.25,7.40 6.23,8.58 5.22,9.77 4.35,10.43 3.49,11.09 2.24,12.01 0.98,12.92 1.23,11.39 1.48,9.85 0.96,8.91 0.44,7.96 2.54,7.95 4.64,7.94 5.17,8.03 5.71,8.11 6.18,8.37 6.66,8.62 7.03,9.01 7.40,9.40 7.62,9.89 7.85,10.38 7.91,10.92 7.97,11.45 7.85,11.98 7.73,12.51 7.45,12.97 7.18,13.43 6.76,13.78 6.35,14.13 5.85,14.33 5.35,14.53 4.81,14.55 4.27,14.58 3.75,14.44 3.24,14.29 2.79,13.99 2.34,13.69 2.02,13.26 1.69,12.83 1.52,12.32 1.35,11.81 1.35,11.27 1.35,10.73 1.52,10.22 1.70,9.71 2.02,9.28 2.35,8.85 2.80,8.55 3.24,8.24 3.76,8.10 4.28,7.96 4.82,7.99 5.36,8.02 5.86,8.22 6.36,8.42 6.77,8.77 7.18,9.12 7.46,9.58 7.74,10.04 7.85,10.57 7.97,11.09 7.91,11.63 7.85,12.17 7.62,12.66 7.39,13.14 7.02,13.54 6.65,13.93 6.17,14.18 5.70,14.43 5.17,14.52 4.63,14.60 4.63,14.60 4.63,14.60 2.13,14.51 -0.37,14.42 -1.95,13.12 -3.54,11.81 -2.63,9.59 -1.72,7.37 -0.06,6.15 1.59,4.93 2.14,3.60 2.69,2.26 1.56,2.43 0.43,2.61 0.11,2.62 -0.20,2.64 -0.51,2.57 -0.82,2.51 -1.11,2.37 -1.40,2.24 -1.65,2.04 -1.90,1.84 -2.09,1.58 -2.28,1.33 -2.41,1.04 -2.54,0.74 -2.59,0.43 -2.64,0.11 -2.62,-0.20 -2.59,-0.51 -2.49,-0.82 -2.39,-1.12 -2.22,-1.39 -2.05,-1.66 -1.82,-1.88 -1.59,-2.11 -1.32,-2.27 -1.04,-2.43 -0.74,-2.52 -0.43,-2.61 -0.43,-2.61 L -0.43,-2.61 Z"></path></g><g stroke-linecap="round"><g transform="translate(245.5590497493531 226.54127333363732) rotate(0 149.42539854790857 -0.5168891061369294)"><path d="M-0.74 0.2 C49.16 -0.13, 249.72 -1.18, 299.59 -1.24 M1.07 -0.74 C50.83 -0.98, 249.5 0.25, 298.88 0" stroke="#e03131" stroke-width="1" fill="none"></path></g></g><mask></mask></svg>