<svg version="1.1" xmlns="http://www.w3.org/2000/svg" viewBox="0 0 726.9247617920954 491.11024286746976" width="726.9247617920954" height="491.11024286746976" class="excalidraw-svg"><!-- svg-source:excalidraw --><metadata></metadata><defs><style class="style-fonts">
      </style></defs><rect x="0" y="0" width="726.9247617920954" height="491.11024286746976" fill="#ffffff"></rect><g stroke-linecap="round"><g transform="translate(10.38547912371348 320.8782991759479) rotate(0 353.0769017723343 -0.10831428635177254)"><path d="M0.7 0.67 C118.42 0.39, 588.97 -0.93, 706.54 -0.89 M-0.39 -0.02 C117.11 -0.25, 587.2 0.34, 705.35 0.19" stroke="#1e1e1e" stroke-width="2" fill="none"></path></g><g transform="translate(10.38547912371348 320.8782991759479) rotate(0 353.0769017723343 -0.10831428635177254)"><path d="M681.86 8.73 C690.44 5.09, 695.38 1.64, 705.35 0.19 M681.86 8.73 C690.98 4.51, 699.97 1.21, 705.35 0.19" stroke="#1e1e1e" stroke-width="2" fill="none"></path></g><g transform="translate(10.38547912371348 320.8782991759479) rotate(0 353.0769017723343 -0.10831428635177254)"><path d="M681.86 -8.37 C690.56 -6.53, 695.49 -4.51, 705.35 0.19 M681.86 -8.37 C690.88 -6.14, 699.87 -2.98, 705.35 0.19" stroke="#1e1e1e" stroke-width="2" fill="none"></path></g></g><mask></mask><g stroke-linecap="round"><g transform="translate(361.3854791237135 480.8782991759479) rotate(0 -0.26972223088220915 -235.32317774221303)"><path d="M-1.09 0.23 C-1.09 -78.34, 0.07 -392.39, 0.15 -470.88 M0.55 -0.69 C0.38 -79.09, -0.35 -391.18, -0.71 -469.28" stroke="#1e1e1e" stroke-width="2" fill="none"></path></g><g transform="translate(361.3854791237135 480.8782991759479) rotate(0 -0.26972223088220915 -235.32317774221303)"><path d="M7.92 -445.81 C5.49 -453, 2.59 -461.6, -0.71 -469.28 M7.92 -445.81 C5.48 -454.3, 2.54 -460.32, -0.71 -469.28" stroke="#1e1e1e" stroke-width="2" fill="none"></path></g><g transform="translate(361.3854791237135 480.8782991759479) rotate(0 -0.26972223088220915 -235.32317774221303)"><path d="M-9.19 -445.76 C-6.24 -452.81, -3.76 -461.42, -0.71 -469.28 M-9.19 -445.76 C-6.08 -454.15, -3.49 -460.19, -0.71 -469.28" stroke="#1e1e1e" stroke-width="2" fill="none"></path></g></g><mask></mask><g transform="translate(198.38547912371348 99.87829917594792) rotate(0 39.5 111)" stroke="none"><path fill="#e03131" d="M 0.78,0 Q 0.78,0 0.76,1.14 0.74,2.29 1.58,5.86 2.42,9.43 3.36,13.28 4.29,17.13 4.69,20.54 5.09,23.94 5.82,27.06 6.56,30.18 7.44,33.81 8.33,37.45 9.57,41.57 10.80,45.69 12.47,49.72 14.13,53.74 15.71,57.77 17.28,61.80 18.53,64.95 19.77,68.10 20.59,70.31 21.41,72.51 22.61,75.45 23.82,78.39 24.63,81.11 25.44,83.83 26.92,87.53 28.40,91.24 29.61,94.26 30.82,97.28 31.91,100.00 33.00,102.73 33.76,105.35 34.52,107.98 35.41,110.50 36.29,113.02 36.97,115.86 37.65,118.70 37.94,121.37 38.23,124.04 38.63,126.58 39.04,129.11 39.78,131.60 40.52,134.08 41.13,136.60 41.74,139.13 42.57,141.91 43.39,144.68 44.59,147.26 45.79,149.84 47.18,152.97 48.56,156.11 49.16,158.64 49.77,161.18 50.57,163.04 51.38,164.90 52.29,166.55 53.20,168.20 53.89,169.49 54.57,170.78 55.42,172.17 56.27,173.56 57.16,174.39 58.06,175.21 58.55,175.92 59.05,176.62 59.53,177.83 60.00,179.03 60.75,180.65 61.50,182.27 62.11,183.54 62.71,184.81 63.27,186.24 63.82,187.67 64.33,188.83 64.84,189.99 65.35,190.72 65.86,191.44 66.16,192.12 66.46,192.80 66.84,193.60 67.21,194.40 67.65,194.97 68.09,195.55 68.35,196.54 68.62,197.54 68.95,198.41 69.27,199.28 69.70,199.90 70.13,200.52 70.35,202.13 70.56,203.75 70.89,204.87 71.21,205.99 71.88,206.98 72.54,207.97 73.13,208.69 73.72,209.40 74.28,210.34 74.84,211.29 75.15,212.01 75.46,212.72 75.83,213.18 76.20,213.64 76.46,214.28 76.72,214.91 76.85,215.50 76.97,216.09 77.48,217.05 78.00,218.01 79.04,219.62 80.08,221.22 80.18,221.41 80.27,221.61 80.30,221.82 80.33,222.04 80.29,222.25 80.25,222.46 80.14,222.65 80.03,222.84 79.87,222.98 79.71,223.12 79.51,223.21 79.31,223.29 79.10,223.31 78.88,223.33 78.67,223.27 78.46,223.22 78.28,223.10 78.10,222.98 77.96,222.82 77.83,222.65 77.76,222.44 77.68,222.24 77.68,222.02 77.67,221.81 77.74,221.60 77.80,221.40 77.93,221.22 78.06,221.05 78.23,220.92 78.41,220.80 78.61,220.73 78.82,220.67 79.04,220.68 79.25,220.68 79.46,220.76 79.66,220.84 79.83,220.97 79.99,221.11 80.11,221.29 80.22,221.47 80.28,221.68 80.33,221.89 80.31,222.11 80.29,222.32 80.20,222.52 80.12,222.72 79.97,222.88 79.83,223.04 79.64,223.15 79.45,223.25 79.24,223.29 79.02,223.33 78.81,223.30 78.60,223.27 78.40,223.17 78.21,223.08 78.06,222.92 77.91,222.77 77.91,222.77 77.91,222.77 77.18,221.43 76.45,220.09 76.10,219.32 75.76,218.55 75.37,218.10 74.98,217.64 74.89,217.01 74.81,216.38 74.73,215.52 74.65,214.66 74.25,213.98 73.85,213.29 73.70,212.68 73.55,212.07 73.02,211.22 72.50,210.38 71.89,209.60 71.28,208.83 70.49,207.66 69.69,206.49 69.28,205.23 68.87,203.98 68.71,202.71 68.55,201.45 68.09,200.69 67.63,199.94 67.22,198.94 66.81,197.95 66.69,197.24 66.57,196.54 66.12,195.82 65.66,195.11 65.27,194.23 64.89,193.35 64.76,192.79 64.63,192.23 64.12,191.38 63.61,190.54 63.08,189.36 62.55,188.17 62.00,186.80 61.46,185.42 60.84,184.15 60.21,182.88 59.43,181.23 58.64,179.57 58.20,178.49 57.75,177.40 57.45,176.78 57.15,176.16 56.15,175.21 55.16,174.26 54.28,172.83 53.41,171.40 52.73,170.12 52.05,168.83 51.11,167.13 50.17,165.42 49.33,163.45 48.49,161.48 47.92,159.06 47.35,156.63 45.98,153.51 44.60,150.39 43.37,147.72 42.14,145.06 41.30,142.25 40.46,139.44 39.86,136.95 39.26,134.45 38.50,131.89 37.74,129.32 37.33,126.75 36.92,124.18 36.65,121.59 36.37,119.00 35.71,116.23 35.05,113.46 34.15,110.90 33.25,108.34 32.51,105.78 31.78,103.21 30.69,100.49 29.60,97.77 28.39,94.75 27.18,91.72 25.68,87.97 24.18,84.21 23.39,81.55 22.60,78.89 21.38,75.93 20.17,72.97 19.35,70.78 18.54,68.58 17.29,65.44 16.05,62.29 14.47,58.27 12.90,54.25 11.21,50.16 9.52,46.08 8.27,41.93 7.02,37.77 6.13,34.13 5.23,30.49 4.47,27.30 3.72,24.11 3.32,20.79 2.92,17.47 1.97,13.62 1.02,9.76 0.13,6.03 -0.74,2.30 -0.76,1.15 -0.78,0 -0.76,-0.09 -0.75,-0.18 -0.72,-0.27 -0.69,-0.36 -0.63,-0.44 -0.58,-0.51 -0.51,-0.58 -0.44,-0.64 -0.36,-0.68 -0.27,-0.73 -0.18,-0.75 -0.09,-0.77 0.00,-0.77 0.09,-0.77 0.18,-0.75 0.27,-0.73 0.36,-0.68 0.44,-0.64 0.51,-0.58 0.58,-0.51 0.63,-0.44 0.69,-0.36 0.72,-0.27 0.75,-0.18 0.76,-0.09 0.78,0.00 0.78,0.00 L 0.78,0 Z"></path></g><g transform="translate(277.3854791237135 321.8782991759479) rotate(0 79 -47)" stroke="none"><path fill="#e03131" d="M -0.62,-0.46 Q -0.62,-0.46 0.25,-1.60 1.12,-2.74 2.05,-4.34 2.98,-5.93 3.95,-7.76 4.93,-9.59 5.63,-11.21 6.32,-12.83 7.51,-14.73 8.70,-16.62 9.78,-18.27 10.85,-19.92 12.18,-21.79 13.50,-23.65 14.64,-25.29 15.77,-26.93 16.52,-28.46 17.26,-29.98 17.87,-31.48 18.47,-32.98 19.02,-34.49 19.56,-35.99 20.08,-37.76 20.59,-39.53 21.71,-41.51 22.82,-43.49 23.55,-45.14 24.29,-46.79 24.88,-48.62 25.48,-50.45 26.34,-51.88 27.20,-53.31 27.52,-54.40 27.84,-55.48 28.59,-56.89 29.34,-58.30 29.93,-59.71 30.51,-61.12 31.05,-62.32 31.60,-63.52 32.44,-64.65 33.28,-65.79 33.89,-66.80 34.50,-67.81 35.35,-69.12 36.20,-70.43 36.83,-71.54 37.47,-72.65 38.35,-73.75 39.23,-74.85 39.85,-75.84 40.48,-76.83 41.04,-77.60 41.60,-78.37 42.10,-79.22 42.61,-80.08 43.18,-80.59 43.74,-81.10 44.15,-81.76 44.56,-82.42 45.16,-82.88 45.75,-83.34 46.57,-83.78 47.38,-84.22 48.64,-84.67 49.90,-85.12 50.92,-85.82 51.93,-86.52 53.08,-86.88 54.22,-87.24 55.15,-87.89 56.08,-88.55 57.19,-88.89 58.30,-89.24 59.27,-89.63 60.24,-90.03 60.99,-90.27 61.74,-90.51 62.57,-90.87 63.39,-91.22 64.42,-91.40 65.45,-91.57 66.01,-91.92 66.57,-92.27 67.23,-92.49 67.89,-92.72 68.47,-92.83 69.04,-92.93 70.34,-93.41 71.64,-93.89 72.30,-93.98 72.97,-94.06 73.83,-94.07 74.68,-94.08 75.79,-94.53 76.90,-94.98 77.50,-95.06 78.09,-95.15 78.64,-95.20 79.18,-95.24 80.00,-95.24 80.81,-95.23 81.44,-95.24 82.06,-95.26 83.48,-95.18 84.90,-95.10 85.79,-95.09 86.68,-95.07 87.63,-95.04 88.59,-95.02 89.57,-94.99 90.55,-94.96 91.54,-94.94 92.53,-94.92 93.53,-94.90 94.53,-94.88 95.64,-94.55 96.75,-94.22 97.42,-94.15 98.10,-94.07 98.93,-94.03 99.76,-93.99 100.81,-93.65 101.87,-93.30 102.87,-92.83 103.87,-92.37 105.12,-91.89 106.37,-91.42 107.51,-90.91 108.64,-90.40 109.47,-89.89 110.30,-89.39 111.17,-88.90 112.04,-88.40 112.77,-87.90 113.50,-87.40 114.38,-86.57 115.25,-85.74 115.92,-85.12 116.60,-84.51 117.43,-83.65 118.26,-82.80 119.65,-82.22 121.05,-81.63 124.48,-81.08 127.91,-80.54 131.44,-79.71 134.97,-78.88 136.83,-77.92 138.69,-76.96 140.09,-75.65 141.50,-74.34 142.39,-73.18 143.28,-72.03 143.69,-70.59 144.10,-69.15 144.79,-68.10 145.48,-67.04 146.07,-66.30 146.67,-65.56 147.02,-64.88 147.37,-64.21 147.53,-63.28 147.69,-62.34 147.78,-61.68 147.87,-61.01 147.90,-60.14 147.93,-59.28 148.17,-58.15 148.41,-57.02 148.80,-56.30 149.18,-55.59 149.40,-54.55 149.61,-53.52 149.68,-52.51 149.75,-51.49 150.03,-50.60 150.31,-49.71 150.50,-48.96 150.69,-48.21 151.00,-47.41 151.32,-46.61 151.46,-45.26 151.61,-43.92 151.65,-42.50 151.69,-41.08 151.70,-39.62 151.71,-38.16 151.70,-36.10 151.70,-34.04 151.70,-32.87 151.69,-31.71 151.69,-29.78 151.68,-27.86 151.96,-26.83 152.23,-25.81 152.62,-24.80 153.02,-23.79 153.26,-23.02 153.50,-22.26 153.63,-21.62 153.76,-20.99 153.84,-20.42 153.92,-19.85 153.98,-19.32 154.03,-18.79 154.09,-17.80 154.15,-16.82 154.79,-15.76 155.42,-14.69 155.65,-13.97 155.88,-13.25 156.41,-11.83 156.93,-10.42 157.21,-9.58 157.49,-8.74 157.68,-7.99 157.87,-7.24 157.96,-6.63 158.05,-6.02 158.65,-3.54 159.26,-1.06 159.23,-0.85 159.21,-0.65 159.12,-0.47 159.04,-0.28 158.89,-0.13 158.75,0.00 158.57,0.10 158.39,0.19 158.19,0.23 157.99,0.26 157.79,0.22 157.58,0.19 157.40,0.09 157.23,-0.00 157.09,-0.14 156.95,-0.29 156.86,-0.48 156.78,-0.67 156.76,-0.87 156.74,-1.07 156.78,-1.27 156.83,-1.47 156.93,-1.64 157.04,-1.82 157.19,-1.95 157.35,-2.08 157.54,-2.15 157.73,-2.23 157.94,-2.24 158.14,-2.25 158.34,-2.19 158.53,-2.14 158.70,-2.02 158.87,-1.91 158.99,-1.74 159.11,-1.58 159.18,-1.39 159.24,-1.19 159.24,-0.99 159.24,-0.78 159.17,-0.59 159.11,-0.40 158.98,-0.24 158.86,-0.07 158.69,0.03 158.52,0.14 158.32,0.20 158.12,0.25 157.92,0.24 157.72,0.23 157.53,0.15 157.34,0.07 157.18,-0.05 157.03,-0.18 156.92,-0.36 156.82,-0.54 156.78,-0.74 156.73,-0.93 156.73,-0.93 156.73,-0.93 156.61,-2.56 156.48,-4.18 156.12,-4.93 155.75,-5.68 155.71,-6.22 155.68,-6.76 155.57,-7.36 155.45,-7.96 155.03,-8.97 154.60,-9.97 154.52,-10.57 154.43,-11.18 154.01,-11.88 153.59,-12.58 153.47,-13.10 153.35,-13.63 152.93,-14.38 152.51,-15.13 152.17,-15.89 151.83,-16.66 151.87,-17.69 151.92,-18.73 151.96,-19.75 152.01,-20.77 151.99,-21.33 151.98,-21.90 151.87,-22.60 151.76,-23.30 151.33,-24.38 150.91,-25.46 150.60,-26.65 150.30,-27.84 150.29,-29.78 150.28,-31.71 150.27,-32.87 150.25,-34.03 150.23,-36.08 150.21,-38.13 150.16,-39.57 150.12,-41.01 150.03,-42.37 149.95,-43.72 149.80,-44.84 149.65,-45.97 149.28,-46.92 148.90,-47.86 148.82,-48.53 148.73,-49.20 148.37,-50.27 148.01,-51.35 147.94,-52.27 147.86,-53.19 147.72,-53.99 147.59,-54.79 147.14,-55.69 146.70,-56.59 146.35,-57.91 146.00,-59.22 145.99,-60.05 145.98,-60.88 145.98,-61.50 145.98,-62.12 145.92,-62.86 145.86,-63.60 145.71,-64.16 145.55,-64.71 144.95,-65.52 144.36,-66.32 143.59,-67.55 142.82,-68.78 142.50,-70.01 142.19,-71.24 141.38,-72.30 140.56,-73.35 139.30,-74.55 138.04,-75.75 136.34,-76.63 134.65,-77.52 131.16,-78.31 127.68,-79.11 124.08,-79.69 120.47,-80.26 118.84,-80.97 117.21,-81.67 116.34,-82.50 115.46,-83.32 114.83,-83.95 114.19,-84.58 113.35,-85.32 112.51,-86.07 111.90,-86.56 111.29,-87.06 110.37,-87.56 109.44,-88.06 108.74,-88.55 108.04,-89.03 106.94,-89.49 105.84,-89.95 104.53,-90.40 103.22,-90.86 102.27,-91.23 101.32,-91.61 100.48,-91.88 99.64,-92.15 98.71,-92.21 97.79,-92.28 97.04,-92.45 96.29,-92.62 95.40,-92.87 94.51,-93.11 93.52,-93.09 92.53,-93.07 91.54,-93.05 90.55,-93.03 89.57,-93.00 88.59,-92.97 87.63,-92.94 86.68,-92.92 85.79,-92.90 84.90,-92.88 83.49,-92.80 82.08,-92.72 81.46,-92.73 80.84,-92.73 79.59,-92.71 78.34,-92.68 77.43,-92.59 76.52,-92.51 75.67,-92.17 74.82,-91.84 74.00,-91.80 73.18,-91.76 72.59,-91.73 72.01,-91.70 71.40,-91.64 70.79,-91.57 70.08,-91.22 69.37,-90.87 68.37,-90.77 67.37,-90.68 66.56,-90.32 65.74,-89.96 64.87,-89.83 64.00,-89.70 63.07,-89.33 62.14,-88.95 61.46,-88.84 60.78,-88.73 59.75,-88.29 58.72,-87.85 57.81,-87.59 56.91,-87.33 55.81,-86.55 54.71,-85.78 53.78,-85.48 52.85,-85.18 51.70,-84.34 50.55,-83.50 49.41,-83.01 48.28,-82.53 47.11,-81.97 45.94,-81.40 44.88,-80.35 43.82,-79.31 43.27,-78.40 42.73,-77.49 42.16,-76.81 41.59,-76.13 40.92,-75.08 40.25,-74.02 39.43,-73.01 38.61,-72.00 37.96,-70.86 37.30,-69.71 36.46,-68.42 35.63,-67.13 34.98,-66.07 34.33,-65.01 33.56,-63.99 32.79,-62.97 32.26,-61.79 31.72,-60.62 31.11,-59.15 30.50,-57.68 29.80,-56.39 29.10,-55.09 28.71,-53.86 28.33,-52.64 27.53,-51.34 26.72,-50.04 26.11,-48.14 25.49,-46.25 24.73,-44.55 23.97,-42.84 22.91,-41.00 21.86,-39.16 21.33,-37.35 20.80,-35.54 20.25,-34.01 19.70,-32.49 19.08,-30.94 18.45,-29.39 17.66,-27.79 16.87,-26.18 15.73,-24.53 14.59,-22.87 13.29,-21.03 11.98,-19.19 10.92,-17.54 9.86,-15.90 8.72,-14.09 7.59,-12.29 6.88,-10.61 6.18,-8.94 5.20,-7.07 4.23,-5.21 3.27,-3.53 2.32,-1.85 1.47,-0.69 0.62,0.46 0.55,0.53 0.49,0.60 0.41,0.65 0.33,0.70 0.24,0.73 0.15,0.76 0.06,0.77 -0.03,0.78 -0.12,0.76 -0.21,0.75 -0.30,0.71 -0.38,0.67 -0.46,0.62 -0.54,0.56 -0.60,0.49 -0.65,0.41 -0.70,0.33 -0.74,0.24 -0.75,0.15 -0.77,0.06 -0.77,-0.03 -0.77,-0.12 -0.74,-0.21 -0.71,-0.30 -0.67,-0.38 -0.62,-0.46 -0.62,-0.46 L -0.62,-0.46 Z"></path></g><g transform="translate(435.3854791237135 320.8782991759479) rotate(0 35 -115)" stroke="none"><path fill="#e03131" d="M -0.55,-0.55 Q -0.55,-0.55 0.89,-1.97 2.34,-3.39 3.76,-5.93 5.19,-8.47 7.26,-11.89 9.34,-15.31 11.07,-19.03 12.80,-22.74 14.40,-26.06 16.01,-29.38 17.27,-31.95 18.53,-34.51 19.34,-36.99 20.14,-39.47 20.79,-41.13 21.43,-42.80 21.98,-44.62 22.53,-46.45 23.35,-48.69 24.17,-50.93 24.50,-53.25 24.83,-55.57 25.27,-58.03 25.70,-60.49 26.47,-63.56 27.23,-66.64 27.84,-69.09 28.45,-71.53 28.71,-74.25 28.96,-76.97 29.36,-79.88 29.76,-82.80 30.21,-85.48 30.67,-88.16 31.15,-90.74 31.64,-93.31 31.84,-96.38 32.04,-99.45 32.71,-102.54 33.37,-105.63 34.23,-109.52 35.09,-113.40 36.32,-117.09 37.56,-120.79 38.36,-124.05 39.16,-127.30 40.09,-130.16 41.01,-133.01 41.68,-135.91 42.35,-138.81 43.22,-142.64 44.08,-146.47 44.44,-149.22 44.80,-151.98 45.83,-155.22 46.86,-158.47 47.88,-161.28 48.89,-164.09 49.60,-166.41 50.31,-168.73 51.20,-170.90 52.09,-173.08 53.04,-175.15 54.00,-177.22 54.96,-180.08 55.93,-182.94 56.93,-185.33 57.92,-187.73 58.63,-189.60 59.33,-191.46 59.92,-193.11 60.51,-194.76 61.06,-195.80 61.62,-196.84 62.13,-197.83 62.65,-198.82 62.83,-199.74 63.01,-200.66 63.40,-201.97 63.79,-203.28 64.25,-204.43 64.71,-205.58 64.88,-207.12 65.05,-208.67 65.13,-209.92 65.22,-211.17 65.55,-212.35 65.88,-213.53 66.31,-215.15 66.73,-216.76 66.90,-217.99 67.08,-219.22 67.45,-220.39 67.83,-221.56 68.27,-222.39 68.70,-223.23 68.83,-224.03 68.96,-224.83 68.98,-225.47 69.01,-226.11 69.02,-228.06 69.03,-230.01 69.06,-230.16 69.08,-230.31 69.16,-230.45 69.23,-230.59 69.35,-230.69 69.46,-230.80 69.61,-230.86 69.75,-230.93 69.90,-230.94 70.06,-230.96 70.21,-230.92 70.36,-230.89 70.50,-230.81 70.63,-230.72 70.73,-230.60 70.83,-230.48 70.88,-230.34 70.94,-230.19 70.95,-230.04 70.95,-229.88 70.91,-229.73 70.87,-229.58 70.78,-229.45 70.69,-229.32 70.56,-229.23 70.44,-229.14 70.29,-229.09 70.14,-229.04 69.98,-229.04 69.83,-229.04 69.68,-229.10 69.53,-229.15 69.41,-229.24 69.29,-229.34 69.20,-229.47 69.11,-229.60 69.07,-229.75 69.03,-229.90 69.04,-230.06 69.05,-230.21 69.11,-230.36 69.17,-230.50 69.28,-230.62 69.38,-230.74 69.51,-230.82 69.65,-230.90 69.80,-230.93 69.95,-230.96 70.11,-230.94 70.26,-230.92 70.41,-230.86 70.55,-230.79 70.66,-230.68 70.77,-230.57 70.84,-230.43 70.91,-230.29 70.94,-230.14 70.96,-229.98 70.96,-229.98 70.96,-229.98 70.85,-227.94 70.74,-225.90 70.61,-225.21 70.48,-224.51 70.23,-223.51 69.98,-222.51 69.53,-221.83 69.08,-221.14 68.73,-220.09 68.38,-219.03 68.19,-217.73 68.01,-216.43 67.58,-214.80 67.15,-213.17 66.84,-212.12 66.54,-211.08 66.45,-209.80 66.37,-208.51 66.16,-206.80 65.95,-205.09 65.51,-204.00 65.08,-202.90 64.70,-201.64 64.33,-200.37 64.07,-199.30 63.82,-198.23 63.30,-197.22 62.78,-196.22 62.26,-195.27 61.74,-194.32 61.15,-192.66 60.56,-190.99 59.85,-189.11 59.14,-187.23 58.15,-184.87 57.17,-182.51 56.18,-179.59 55.19,-176.67 54.25,-174.63 53.30,-172.58 52.43,-170.46 51.56,-168.35 50.84,-165.99 50.12,-163.64 49.12,-160.86 48.12,-158.07 47.11,-154.94 46.10,-151.80 45.73,-148.99 45.36,-146.19 44.50,-142.35 43.63,-138.52 42.95,-135.56 42.26,-132.61 41.35,-129.80 40.44,-126.99 39.62,-123.68 38.80,-120.37 37.59,-116.74 36.37,-113.12 35.51,-109.23 34.66,-105.35 34.00,-102.36 33.35,-99.36 33.14,-96.22 32.93,-93.07 32.45,-90.50 31.97,-87.94 31.51,-85.28 31.06,-82.62 30.66,-79.73 30.27,-76.85 30.00,-74.03 29.73,-71.22 29.12,-68.77 28.51,-66.32 27.76,-63.29 27.00,-60.26 26.57,-57.82 26.14,-55.38 25.78,-52.93 25.42,-50.48 24.61,-48.28 23.81,-46.07 23.24,-44.19 22.68,-42.32 22.05,-40.69 21.42,-39.05 20.58,-36.48 19.74,-33.91 18.49,-31.35 17.24,-28.79 15.65,-25.48 14.05,-22.16 12.30,-18.37 10.55,-14.58 8.50,-11.17 6.45,-7.76 4.92,-5.06 3.40,-2.35 1.98,-0.90 0.55,0.55 0.47,0.61 0.40,0.66 0.31,0.70 0.23,0.74 0.13,0.76 0.04,0.77 -0.04,0.77 -0.14,0.76 -0.23,0.74 -0.32,0.71 -0.40,0.66 -0.48,0.61 -0.54,0.54 -0.61,0.48 -0.66,0.40 -0.71,0.32 -0.74,0.23 -0.76,0.14 -0.77,0.04 -0.77,-0.04 -0.76,-0.13 -0.74,-0.23 -0.70,-0.31 -0.66,-0.40 -0.61,-0.47 -0.55,-0.55 -0.55,-0.55 L -0.55,-0.55 Z"></path></g><g stroke-linecap="round"><g transform="translate(152.38547912371348 274.8782991759479) rotate(0 212.6425569669111 -0.4345575720107595)"><path d="M0.25 0.6 C71.28 0.62, 355.5 0.56, 426.36 0.44 M-1.07 -0.12 C69.82 -0.5, 354.71 -1.66, 425.6 -1.45" stroke="#2f9e44" stroke-width="0.5" fill="none"></path></g></g><mask></mask><g transform="translate(621.3854791237135 239.87829917594792) rotate(0 8 9.5)" stroke="none"><path fill="#2f9e44" d="M 0.81,-0.23 Q 0.81,-0.23 1.35,1.77 1.90,3.78 3.49,5.66 5.09,7.54 6.93,9.54 8.77,11.54 10.66,12.93 12.55,14.32 14.52,16.42 16.50,18.52 16.56,18.61 16.63,18.70 16.66,18.81 16.69,18.92 16.68,19.03 16.67,19.15 16.63,19.25 16.59,19.36 16.52,19.44 16.44,19.53 16.35,19.58 16.25,19.64 16.14,19.67 16.03,19.69 15.92,19.68 15.81,19.66 15.71,19.62 15.60,19.57 15.52,19.49 15.44,19.41 15.39,19.32 15.34,19.22 15.32,19.10 15.30,18.99 15.32,18.88 15.34,18.77 15.39,18.67 15.44,18.57 15.52,18.50 15.61,18.42 15.71,18.37 15.81,18.32 15.92,18.31 16.03,18.30 16.14,18.32 16.25,18.35 16.35,18.41 16.45,18.47 16.52,18.55 16.59,18.64 16.63,18.74 16.67,18.85 16.68,18.96 16.69,19.07 16.66,19.18 16.63,19.29 16.56,19.38 16.50,19.47 16.41,19.54 16.32,19.61 16.21,19.65 16.11,19.68 15.99,19.68 15.88,19.68 15.77,19.65 15.67,19.61 15.58,19.54 15.49,19.47 15.49,19.47 15.49,19.47 13.59,17.47 11.70,15.46 9.70,14.00 7.71,12.53 5.82,10.53 3.93,8.52 2.16,6.39 0.39,4.26 -0.20,2.25 -0.81,0.23 -0.83,0.13 -0.84,0.03 -0.84,-0.07 -0.83,-0.17 -0.79,-0.26 -0.76,-0.36 -0.71,-0.45 -0.65,-0.53 -0.58,-0.61 -0.50,-0.68 -0.41,-0.73 -0.33,-0.78 -0.23,-0.81 -0.13,-0.83 -0.03,-0.84 0.07,-0.84 0.17,-0.82 0.27,-0.80 0.36,-0.76 0.45,-0.71 0.53,-0.65 0.61,-0.58 0.67,-0.50 0.73,-0.42 0.77,-0.32 0.81,-0.23 0.81,-0.23 L 0.81,-0.23 Z"></path></g><g transform="translate(645.3854791237135 237.87829917594792) rotate(0 -13 36)" stroke="none"><path fill="#2f9e44" d="M 0.76,0.17 Q 0.76,0.17 -0.11,3.90 -0.99,7.64 -1.37,10.06 -1.74,12.48 -2.79,15.04 -3.84,17.60 -4.84,20.64 -5.85,23.68 -6.86,26.15 -7.88,28.63 -9.18,31.41 -10.48,34.19 -11.89,37.37 -13.30,40.55 -15.06,43.94 -16.82,47.32 -17.83,50.71 -18.84,54.09 -20.15,57.31 -21.46,60.53 -22.30,62.74 -23.14,64.95 -23.79,66.48 -24.43,68.01 -24.86,70.08 -25.29,72.15 -25.34,72.26 -25.38,72.37 -25.46,72.46 -25.53,72.54 -25.63,72.60 -25.73,72.66 -25.85,72.69 -25.96,72.71 -26.07,72.70 -26.19,72.69 -26.30,72.64 -26.40,72.59 -26.48,72.51 -26.57,72.43 -26.62,72.32 -26.68,72.22 -26.69,72.11 -26.71,71.99 -26.69,71.88 -26.67,71.76 -26.62,71.66 -26.56,71.56 -26.48,71.48 -26.40,71.40 -26.29,71.35 -26.18,71.30 -26.07,71.29 -25.95,71.28 -25.84,71.30 -25.73,71.33 -25.63,71.39 -25.53,71.45 -25.45,71.54 -25.38,71.63 -25.34,71.74 -25.29,71.84 -25.29,71.96 -25.28,72.08 -25.31,72.19 -25.34,72.30 -25.41,72.40 -25.48,72.49 -25.57,72.56 -25.66,72.63 -25.77,72.67 -25.88,72.70 -26.00,72.70 -26.11,72.70 -26.22,72.67 -26.33,72.63 -26.43,72.56 -26.52,72.49 -26.58,72.39 -26.65,72.29 -26.68,72.18 -26.71,72.07 -26.70,71.95 -26.70,71.84 -26.70,71.84 -26.70,71.84 -26.17,69.67 -25.65,67.50 -25.01,65.99 -24.37,64.48 -23.53,62.26 -22.68,60.03 -21.40,56.87 -20.11,53.71 -19.05,50.21 -18.00,46.71 -16.26,43.36 -14.52,40.01 -13.11,36.81 -11.70,33.62 -10.42,30.86 -9.14,28.11 -8.15,25.68 -7.16,23.25 -6.15,20.15 -5.14,17.06 -4.15,14.66 -3.17,12.26 -2.81,9.78 -2.45,7.30 -1.60,3.56 -0.76,-0.17 -0.72,-0.26 -0.69,-0.35 -0.64,-0.43 -0.59,-0.50 -0.52,-0.57 -0.45,-0.63 -0.37,-0.68 -0.28,-0.72 -0.19,-0.75 -0.10,-0.77 -0.01,-0.77 0.08,-0.77 0.17,-0.75 0.26,-0.73 0.35,-0.69 0.43,-0.64 0.50,-0.58 0.57,-0.52 0.63,-0.44 0.68,-0.37 0.72,-0.28 0.75,-0.19 0.76,-0.10 0.78,-0.01 0.77,0.08 0.76,0.17 0.76,0.17 L 0.76,0.17 Z"></path></g><g transform="translate(648.3854791237135 265.8782991759479) rotate(0 8.5 -1)" stroke="none"><path fill="#2f9e44" d="M -0.64,-0.64 Q -0.64,-0.64 -0.05,-1.24 0.52,-1.85 1.52,-2.20 2.51,-2.56 3.20,-2.71 3.89,-2.86 4.79,-2.91 5.69,-2.96 7.22,-2.93 8.75,-2.90 10.26,-2.87 11.77,-2.84 14.38,-2.82 16.99,-2.80 17.12,-2.78 17.25,-2.76 17.36,-2.70 17.48,-2.64 17.57,-2.54 17.66,-2.45 17.71,-2.33 17.77,-2.21 17.78,-2.08 17.80,-1.95 17.77,-1.83 17.74,-1.70 17.67,-1.59 17.61,-1.48 17.51,-1.39 17.41,-1.31 17.29,-1.26 17.17,-1.21 17.04,-1.20 16.91,-1.20 16.78,-1.23 16.66,-1.27 16.55,-1.34 16.44,-1.41 16.37,-1.51 16.29,-1.62 16.24,-1.74 16.20,-1.86 16.20,-1.99 16.20,-2.12 16.24,-2.25 16.28,-2.37 16.36,-2.47 16.44,-2.58 16.55,-2.65 16.66,-2.72 16.78,-2.76 16.91,-2.79 17.04,-2.79 17.17,-2.78 17.29,-2.73 17.41,-2.68 17.51,-2.60 17.61,-2.52 17.67,-2.40 17.74,-2.29 17.77,-2.17 17.80,-2.04 17.78,-1.91 17.77,-1.78 17.71,-1.66 17.66,-1.55 17.57,-1.45 17.48,-1.36 17.37,-1.30 17.25,-1.23 17.12,-1.21 17.00,-1.19 17.00,-1.19 17.00,-1.19 14.39,-1.16 11.78,-1.13 10.28,-1.08 8.78,-1.04 7.29,-0.97 5.80,-0.90 5.01,-0.86 4.22,-0.82 3.64,-0.77 3.06,-0.71 2.41,-0.58 1.77,-0.44 1.20,0.09 0.64,0.64 0.55,0.71 0.47,0.78 0.37,0.82 0.27,0.87 0.16,0.89 0.05,0.91 -0.05,0.90 -0.16,0.89 -0.26,0.86 -0.37,0.83 -0.46,0.77 -0.56,0.71 -0.64,0.64 -0.71,0.56 -0.77,0.46 -0.83,0.37 -0.86,0.26 -0.89,0.16 -0.90,0.05 -0.91,-0.05 -0.89,-0.16 -0.87,-0.27 -0.82,-0.37 -0.78,-0.47 -0.71,-0.55 -0.64,-0.64 -0.64,-0.64 L -0.64,-0.64 Z"></path></g><g transform="translate(646.3854791237135 276.8782991759479) rotate(0 9 -1.5)" stroke="none"><path fill="#2f9e44" d="M -0.10,-0.98 Q -0.10,-0.98 2.48,-1.22 5.07,-1.46 7.59,-1.84 10.11,-2.21 11.79,-2.37 13.46,-2.52 15.63,-3.19 17.81,-3.87 17.95,-3.88 18.09,-3.88 18.23,-3.85 18.37,-3.81 18.49,-3.72 18.61,-3.64 18.70,-3.53 18.79,-3.41 18.83,-3.27 18.88,-3.14 18.88,-2.99 18.88,-2.85 18.83,-2.71 18.78,-2.57 18.70,-2.46 18.61,-2.34 18.49,-2.26 18.37,-2.18 18.23,-2.14 18.09,-2.11 17.94,-2.11 17.80,-2.12 17.67,-2.18 17.53,-2.23 17.42,-2.32 17.31,-2.42 17.24,-2.54 17.16,-2.67 17.13,-2.81 17.10,-2.95 17.12,-3.09 17.13,-3.24 17.19,-3.37 17.26,-3.50 17.36,-3.60 17.46,-3.71 17.58,-3.78 17.71,-3.84 17.86,-3.87 18.00,-3.89 18.14,-3.87 18.28,-3.84 18.41,-3.77 18.54,-3.71 18.64,-3.60 18.74,-3.49 18.80,-3.36 18.86,-3.23 18.87,-3.09 18.89,-2.94 18.86,-2.80 18.83,-2.66 18.75,-2.54 18.67,-2.41 18.56,-2.32 18.45,-2.23 18.32,-2.17 18.18,-2.12 18.18,-2.12 18.18,-2.12 15.91,-1.54 13.64,-0.96 12.01,-0.76 10.38,-0.57 7.82,-0.12 5.27,0.31 2.69,0.65 0.10,0.98 -0.00,0.98 -0.12,0.97 -0.24,0.95 -0.35,0.92 -0.46,0.86 -0.56,0.80 -0.65,0.72 -0.74,0.64 -0.81,0.54 -0.87,0.45 -0.92,0.33 -0.96,0.22 -0.97,0.10 -0.98,-0.01 -0.97,-0.12 -0.95,-0.24 -0.91,-0.35 -0.87,-0.46 -0.80,-0.56 -0.73,-0.66 -0.64,-0.74 -0.55,-0.81 -0.44,-0.87 -0.34,-0.92 -0.22,-0.95 -0.10,-0.98 -0.10,-0.98 L -0.10,-0.98 Z"></path></g><g transform="translate(700.3854791237135 239.87829917594792) rotate(0 4.5 15.5)" stroke="none"><path fill="#2f9e44" d="M 0.89,0 Q 0.89,0 0.86,2.58 0.83,5.17 0.80,7.99 0.78,10.82 1.05,13.71 1.32,16.60 1.43,19.01 1.54,21.42 1.58,23.31 1.62,25.20 1.64,26.57 1.65,27.95 1.68,28.78 1.71,29.60 2.69,29.76 3.67,29.93 4.35,29.95 5.04,29.98 7.02,29.98 9.01,29.98 9.17,30.01 9.33,30.04 9.47,30.12 9.62,30.20 9.73,30.32 9.84,30.44 9.90,30.58 9.97,30.73 9.99,30.90 10.00,31.06 9.97,31.22 9.93,31.38 9.85,31.52 9.76,31.66 9.63,31.76 9.51,31.87 9.36,31.93 9.20,31.98 9.04,31.99 8.88,32.00 8.72,31.95 8.56,31.91 8.43,31.82 8.29,31.72 8.19,31.59 8.10,31.46 8.05,31.30 8.00,31.15 8.00,30.98 8.00,30.82 8.05,30.67 8.11,30.51 8.21,30.38 8.31,30.25 8.44,30.16 8.58,30.07 8.74,30.03 8.90,29.99 9.06,30.00 9.22,30.01 9.37,30.07 9.53,30.13 9.65,30.24 9.77,30.35 9.86,30.49 9.94,30.63 9.97,30.79 10.01,30.95 9.99,31.11 9.97,31.28 9.90,31.42 9.83,31.57 9.71,31.69 9.60,31.81 9.45,31.88 9.31,31.96 9.15,31.98 8.98,32.01 8.98,32.01 8.98,32.01 6.92,31.91 4.86,31.82 4.13,31.71 3.40,31.60 2.21,31.34 1.02,31.07 0.64,30.44 0.25,29.81 0.26,28.89 0.27,27.98 0.24,26.61 0.21,25.24 0.15,23.36 0.09,21.49 -0.03,19.12 -0.17,16.74 -0.47,13.78 -0.78,10.82 -0.80,7.99 -0.83,5.17 -0.86,2.58 -0.89,0 -0.88,-0.10 -0.87,-0.21 -0.83,-0.31 -0.79,-0.41 -0.73,-0.50 -0.67,-0.59 -0.58,-0.66 -0.50,-0.73 -0.41,-0.78 -0.31,-0.83 -0.21,-0.86 -0.10,-0.88 0.00,-0.88 0.10,-0.88 0.21,-0.86 0.31,-0.83 0.41,-0.78 0.50,-0.73 0.58,-0.66 0.67,-0.59 0.73,-0.50 0.79,-0.41 0.83,-0.31 0.87,-0.21 0.88,-0.10 0.89,0.00 0.89,0.00 L 0.89,0 Z"></path></g><g transform="translate(681.3854791237135 256.8782991759479) rotate(0 13 -3.5)" stroke="none"><path fill="#2f9e44" d="M -0.48,-0.73 Q -0.48,-0.73 0.38,-1.28 1.26,-1.84 1.89,-2.37 2.52,-2.91 3.83,-3.19 5.15,-3.46 5.95,-3.60 6.74,-3.73 8.49,-4.03 10.23,-4.32 13.01,-4.73 15.79,-5.13 18.06,-5.86 20.33,-6.59 23.09,-7.21 25.86,-7.84 25.99,-7.84 26.13,-7.84 26.26,-7.79 26.39,-7.75 26.51,-7.67 26.62,-7.58 26.69,-7.47 26.77,-7.35 26.81,-7.22 26.84,-7.09 26.84,-6.95 26.83,-6.81 26.78,-6.68 26.73,-6.55 26.64,-6.45 26.55,-6.34 26.43,-6.27 26.31,-6.20 26.18,-6.17 26.04,-6.14 25.90,-6.16 25.77,-6.17 25.64,-6.23 25.52,-6.29 25.42,-6.38 25.31,-6.48 25.25,-6.60 25.19,-6.72 25.16,-6.86 25.14,-6.99 25.16,-7.13 25.18,-7.27 25.25,-7.39 25.31,-7.51 25.41,-7.61 25.51,-7.70 25.64,-7.76 25.77,-7.82 25.90,-7.83 26.04,-7.85 26.18,-7.82 26.31,-7.79 26.43,-7.72 26.55,-7.65 26.64,-7.54 26.73,-7.44 26.78,-7.31 26.83,-7.18 26.84,-7.04 26.84,-6.90 26.81,-6.77 26.77,-6.64 26.69,-6.52 26.62,-6.41 26.51,-6.32 26.40,-6.24 26.26,-6.20 26.13,-6.15 26.13,-6.15 26.13,-6.15 23.46,-5.66 20.79,-5.17 18.41,-4.38 16.03,-3.60 13.28,-3.15 10.54,-2.70 8.75,-2.34 6.96,-1.97 6.22,-1.92 5.47,-1.86 4.50,-1.68 3.54,-1.51 2.86,-0.98 2.18,-0.45 1.33,0.13 0.48,0.73 0.39,0.77 0.29,0.82 0.19,0.85 0.09,0.87 -0.01,0.87 -0.12,0.87 -0.22,0.84 -0.32,0.81 -0.41,0.76 -0.51,0.71 -0.58,0.64 -0.66,0.57 -0.72,0.48 -0.78,0.39 -0.82,0.29 -0.85,0.19 -0.86,0.09 -0.87,-0.01 -0.86,-0.11 -0.85,-0.22 -0.81,-0.32 -0.77,-0.42 -0.71,-0.50 -0.64,-0.59 -0.56,-0.66 -0.48,-0.73 -0.48,-0.73 L -0.48,-0.73 Z"></path></g><g transform="translate(526.3854791237135 69.87829917594792) rotate(0 3 2.5)" stroke="none"><path fill="#e03131" d="M 0.62,-0.83 Q 0.62,-0.83 1.74,0.06 2.86,0.97 4.77,2.61 6.68,4.24 6.78,4.37 6.89,4.50 6.94,4.66 7.00,4.81 7.00,4.98 7.00,5.14 6.95,5.30 6.90,5.46 6.80,5.59 6.71,5.72 6.57,5.82 6.44,5.91 6.28,5.96 6.12,6.00 5.96,6.00 5.79,5.99 5.64,5.93 5.48,5.88 5.36,5.77 5.23,5.67 5.14,5.53 5.06,5.39 5.02,5.23 4.98,5.07 4.99,4.90 5.01,4.74 5.08,4.59 5.14,4.44 5.25,4.32 5.37,4.20 5.51,4.12 5.65,4.04 5.82,4.01 5.98,3.98 6.14,4.00 6.30,4.03 6.45,4.10 6.60,4.17 6.71,4.29 6.83,4.41 6.90,4.56 6.97,4.71 6.99,4.87 7.01,5.03 6.98,5.19 6.95,5.36 6.86,5.50 6.78,5.64 6.66,5.75 6.53,5.86 6.38,5.92 6.23,5.99 6.07,6.00 5.90,6.01 5.74,5.97 5.58,5.93 5.45,5.84 5.31,5.75 5.31,5.75 5.31,5.75 3.52,4.11 1.73,2.47 0.55,1.65 -0.62,0.83 -0.71,0.74 -0.81,0.66 -0.87,0.55 -0.94,0.44 -0.98,0.32 -1.02,0.21 -1.03,0.08 -1.04,-0.04 -1.02,-0.16 -1.00,-0.29 -0.95,-0.40 -0.90,-0.52 -0.83,-0.62 -0.75,-0.72 -0.65,-0.80 -0.56,-0.88 -0.44,-0.93 -0.33,-0.99 -0.20,-1.01 -0.08,-1.04 0.04,-1.03 0.16,-1.03 0.28,-0.99 0.40,-0.96 0.51,-0.90 0.62,-0.83 0.62,-0.83 L 0.62,-0.83 Z"></path></g><g transform="translate(538.3854791237135 61.878299175947916) rotate(0 -6.5 19.5)" stroke="none"><path fill="#e03131" d="M 0.78,0 Q 0.78,0 0.76,1.15 0.74,2.3 0.73,3.36 0.72,4.43 0.12,6.42 -0.47,8.41 -0.71,10.30 -0.95,12.19 -1.35,13.65 -1.76,15.10 -2.22,16.84 -2.67,18.58 -2.86,19.86 -3.05,21.14 -3.13,22.26 -3.21,23.38 -3.85,24.83 -4.49,26.28 -4.73,27.36 -4.97,28.45 -5.07,29.47 -5.18,30.49 -5.17,31.23 -5.16,31.98 -5.47,32.74 -5.77,33.50 -6.20,34.35 -6.62,35.19 -7.17,35.72 -7.72,36.24 -8.16,36.68 -8.59,37.11 -9.06,37.59 -9.52,38.08 -10.96,39.01 -12.41,39.94 -12.57,40.01 -12.74,40.08 -12.92,40.09 -13.10,40.11 -13.27,40.06 -13.45,40.01 -13.60,39.92 -13.75,39.82 -13.86,39.67 -13.97,39.53 -14.03,39.36 -14.09,39.19 -14.10,39.01 -14.10,38.83 -14.04,38.66 -13.99,38.49 -13.88,38.34 -13.77,38.20 -13.63,38.09 -13.48,37.99 -13.31,37.94 -13.13,37.89 -12.95,37.90 -12.77,37.90 -12.60,37.97 -12.43,38.03 -12.30,38.15 -12.16,38.26 -12.06,38.41 -11.97,38.57 -11.92,38.74 -11.88,38.92 -11.90,39.10 -11.92,39.28 -11.99,39.44 -12.06,39.61 -12.18,39.74 -12.31,39.87 -12.46,39.96 -12.62,40.05 -12.80,40.08 -12.98,40.11 -13.16,40.08 -13.34,40.06 -13.50,39.97 -13.66,39.89 -13.78,39.76 -13.91,39.63 -13.99,39.47 -14.06,39.31 -14.09,39.13 -14.11,38.95 -14.07,38.77 -14.04,38.60 -13.95,38.44 -13.86,38.29 -13.72,38.17 -13.58,38.05 -13.58,38.05 -13.58,38.05 -12.30,37.28 -11.01,36.52 -10.49,36.05 -9.97,35.58 -9.05,34.96 -8.13,34.34 -7.72,33.53 -7.31,32.71 -7.00,32.27 -6.69,31.83 -6.59,31.09 -6.49,30.36 -6.37,29.26 -6.26,28.15 -5.98,26.95 -5.70,25.74 -5.12,24.50 -4.53,23.26 -4.45,22.10 -4.37,20.95 -4.18,19.60 -3.98,18.24 -3.53,16.49 -3.07,14.74 -2.70,13.38 -2.32,12.02 -2.07,10.01 -1.82,8.00 -1.27,6.21 -0.72,4.41 -0.73,3.35 -0.74,2.3 -0.76,1.15 -0.78,0 -0.76,-0.09 -0.75,-0.18 -0.72,-0.27 -0.69,-0.36 -0.63,-0.44 -0.58,-0.51 -0.51,-0.58 -0.44,-0.64 -0.36,-0.68 -0.27,-0.73 -0.18,-0.75 -0.09,-0.77 0.00,-0.77 0.09,-0.77 0.18,-0.75 0.27,-0.73 0.36,-0.68 0.44,-0.64 0.51,-0.58 0.58,-0.51 0.63,-0.44 0.69,-0.36 0.72,-0.27 0.75,-0.18 0.76,-0.09 0.78,0.00 0.78,0.00 L 0.78,0 Z"></path></g><g transform="translate(545.3854791237135 80.87829917594792) rotate(0 7 0)" stroke="none"><path fill="#e03131" d="M 0,-1.04 Q 0,-1.04 0.86,-1.04 1.72,-1.03 2.95,-0.98 4.18,-0.93 5.28,-0.89 6.37,-0.86 7.13,-0.89 7.88,-0.92 8.78,-0.92 9.67,-0.93 11.83,-0.97 14,-1.01 14.16,-0.99 14.32,-0.96 14.47,-0.88 14.61,-0.81 14.72,-0.69 14.84,-0.57 14.91,-0.42 14.98,-0.27 14.99,-0.10 15.01,0.05 14.98,0.21 14.94,0.37 14.86,0.51 14.77,0.65 14.65,0.76 14.52,0.87 14.37,0.93 14.21,0.99 14.05,1.00 13.88,1.01 13.73,0.96 13.57,0.92 13.43,0.83 13.29,0.73 13.20,0.60 13.10,0.47 13.04,0.32 12.99,0.16 12.99,-0.00 12.99,-0.16 13.04,-0.32 13.10,-0.47 13.20,-0.60 13.30,-0.73 13.43,-0.83 13.57,-0.92 13.73,-0.96 13.89,-1.01 14.05,-1.00 14.21,-0.99 14.37,-0.93 14.52,-0.87 14.65,-0.76 14.77,-0.65 14.86,-0.51 14.94,-0.37 14.98,-0.21 15.01,-0.05 14.99,0.10 14.98,0.27 14.91,0.42 14.84,0.57 14.72,0.69 14.61,0.81 14.47,0.88 14.32,0.96 14.16,0.99 13.99,1.01 13.99,1.01 14,1.01 11.83,0.97 9.67,0.93 8.78,0.92 7.88,0.92 7.13,0.89 6.37,0.86 5.28,0.89 4.18,0.93 2.95,0.98 1.72,1.03 0.86,1.04 0,1.04 -0.12,1.03 -0.25,1.01 -0.36,0.97 -0.48,0.92 -0.59,0.85 -0.69,0.78 -0.77,0.68 -0.86,0.59 -0.92,0.48 -0.97,0.37 -1.00,0.24 -1.04,0.12 -1.04,-0.00 -1.04,-0.12 -1.00,-0.24 -0.97,-0.37 -0.92,-0.48 -0.86,-0.59 -0.77,-0.68 -0.69,-0.78 -0.59,-0.85 -0.48,-0.92 -0.36,-0.97 -0.25,-1.01 -0.12,-1.03 0.00,-1.04 0.00,-1.04 L 0,-1.04 Z"></path></g><g transform="translate(547.3854791237135 90.87829917594792) rotate(0 6.5 0)" stroke="none"><path fill="#e03131" d="M 0,-1.07 Q 0,-1.07 1.15,-1.02 2.3,-0.96 3.36,-0.92 4.42,-0.88 5.45,-0.86 6.48,-0.83 7.49,-0.82 8.50,-0.81 9.22,-0.85 9.93,-0.89 11.46,-0.94 13,-0.98 13.15,-0.96 13.31,-0.93 13.45,-0.86 13.59,-0.78 13.70,-0.67 13.81,-0.55 13.88,-0.40 13.95,-0.26 13.97,-0.10 13.98,0.05 13.95,0.20 13.91,0.36 13.83,0.50 13.75,0.64 13.63,0.74 13.50,0.84 13.36,0.90 13.21,0.96 13.05,0.97 12.89,0.98 12.73,0.94 12.58,0.89 12.45,0.80 12.31,0.71 12.22,0.59 12.12,0.46 12.07,0.31 12.02,0.15 12.02,-0.00 12.02,-0.16 12.07,-0.31 12.12,-0.46 12.22,-0.59 12.31,-0.71 12.45,-0.80 12.58,-0.89 12.73,-0.94 12.89,-0.98 13.05,-0.97 13.21,-0.96 13.36,-0.90 13.51,-0.84 13.63,-0.74 13.75,-0.64 13.83,-0.50 13.91,-0.36 13.95,-0.20 13.98,-0.05 13.97,0.10 13.95,0.26 13.88,0.41 13.81,0.55 13.70,0.67 13.59,0.78 13.45,0.86 13.31,0.93 13.15,0.96 12.99,0.98 12.99,0.98 13,0.98 11.46,0.94 9.93,0.89 9.22,0.85 8.50,0.81 7.49,0.82 6.48,0.83 5.45,0.86 4.42,0.88 3.36,0.92 2.3,0.96 1.15,1.02 0,1.07 -0.12,1.06 -0.25,1.04 -0.37,0.99 -0.50,0.95 -0.60,0.87 -0.71,0.80 -0.79,0.70 -0.88,0.61 -0.94,0.49 -1.00,0.38 -1.03,0.25 -1.06,0.12 -1.06,-0.00 -1.06,-0.12 -1.03,-0.25 -1.00,-0.38 -0.94,-0.49 -0.88,-0.61 -0.79,-0.70 -0.71,-0.80 -0.60,-0.87 -0.50,-0.95 -0.37,-0.99 -0.25,-1.04 -0.12,-1.06 0.00,-1.07 0.00,-1.07 L 0,-1.07 Z"></path></g><g transform="translate(581.3854791237135 74.87829917594792) rotate(0 0 11.5)" stroke="none"><path fill="#e03131" d="M -0.82,0.13 Q -0.82,0.13 -1.08,-1.59 -1.34,-3.32 -1.45,-4.65 -1.56,-5.99 -1.64,-6.84 -1.73,-7.69 -1.77,-7.77 -1.80,-7.84 -1.80,-7.94 -1.79,-8.04 -1.76,-8.14 -1.73,-8.24 -1.68,-8.32 -1.63,-8.41 -1.55,-8.48 -1.48,-8.55 -1.40,-8.61 -1.31,-8.66 -1.21,-8.69 -1.12,-8.72 -1.01,-8.73 -0.91,-8.73 -0.81,-8.71 -0.71,-8.69 -0.62,-8.65 -0.53,-8.61 -0.45,-8.55 -0.37,-8.49 -0.30,-8.41 -0.24,-8.33 -0.20,-8.23 -0.16,-8.14 -0.14,-8.04 -0.12,-7.94 -0.17,-6.79 -0.21,-5.64 -0.23,-3.73 -0.25,-1.82 -0.26,0.42 -0.28,2.67 -0.28,4.77 -0.29,6.88 -0.30,8.93 -0.31,10.97 -0.31,12.99 -0.32,15.01 -0.04,16.38 0.23,17.74 0.35,18.96 0.48,20.18 0.53,21.56 0.58,22.95 0.60,24.11 0.63,25.27 0.68,26.05 0.74,26.83 0.77,27.74 0.79,28.64 1.32,30.19 1.84,31.74 1.86,31.88 1.88,32.02 1.85,32.16 1.82,32.30 1.75,32.43 1.68,32.55 1.57,32.65 1.47,32.74 1.33,32.80 1.20,32.85 1.06,32.86 0.92,32.87 0.78,32.84 0.64,32.80 0.52,32.73 0.40,32.65 0.31,32.54 0.22,32.43 0.18,32.29 0.13,32.16 0.12,32.01 0.12,31.87 0.16,31.73 0.21,31.60 0.29,31.48 0.37,31.37 0.49,31.29 0.61,31.20 0.74,31.16 0.88,31.12 1.02,31.12 1.17,31.13 1.30,31.18 1.43,31.23 1.54,31.32 1.65,31.41 1.73,31.53 1.81,31.65 1.84,31.79 1.87,31.93 1.86,32.07 1.85,32.21 1.79,32.34 1.74,32.47 1.64,32.58 1.54,32.69 1.42,32.76 1.29,32.82 1.15,32.85 1.01,32.88 0.87,32.86 0.73,32.84 0.60,32.77 0.48,32.71 0.38,32.61 0.28,32.51 0.21,32.38 0.15,32.25 0.15,32.25 0.15,32.25 -0.32,30.46 -0.80,28.67 -0.79,27.76 -0.77,26.85 -0.73,26.08 -0.69,25.30 -0.71,24.15 -0.74,23.00 -0.79,21.66 -0.84,20.31 -0.96,19.16 -1.08,18.01 -1.38,16.51 -1.67,15.01 -1.68,12.99 -1.68,10.97 -1.69,8.93 -1.69,6.88 -1.70,4.77 -1.71,2.67 -1.72,0.42 -1.73,-1.83 -1.74,-3.74 -1.75,-5.66 -1.78,-6.75 -1.80,-7.84 -1.80,-7.94 -1.79,-8.04 -1.76,-8.14 -1.73,-8.24 -1.68,-8.32 -1.63,-8.41 -1.55,-8.48 -1.48,-8.55 -1.40,-8.61 -1.31,-8.66 -1.21,-8.69 -1.12,-8.72 -1.01,-8.73 -0.91,-8.73 -0.81,-8.71 -0.71,-8.69 -0.62,-8.65 -0.53,-8.61 -0.45,-8.55 -0.37,-8.49 -0.30,-8.41 -0.24,-8.33 -0.20,-8.23 -0.16,-8.14 -0.14,-8.04 -0.12,-7.94 -0.11,-7.87 -0.11,-7.80 -0.09,-6.97 -0.07,-6.13 0.06,-4.85 0.19,-3.57 0.50,-1.85 0.82,-0.13 0.82,-0.03 0.82,0.06 0.80,0.16 0.78,0.26 0.74,0.35 0.70,0.44 0.64,0.51 0.57,0.59 0.49,0.65 0.41,0.71 0.32,0.75 0.23,0.79 0.13,0.81 0.03,0.83 -0.06,0.82 -0.16,0.81 -0.25,0.78 -0.35,0.75 -0.43,0.69 -0.52,0.64 -0.59,0.57 -0.66,0.50 -0.71,0.41 -0.76,0.32 -0.79,0.23 -0.82,0.13 -0.82,0.13 L -0.82,0.13 Z"></path></g><g transform="translate(593.3854791237135 82.87829917594792) rotate(0 11.5 1.5)" stroke="none"><path fill="#e03131" d="M -0.74,-0.49 Q -0.74,-0.49 -0.15,-1.34 0.44,-2.18 0.60,-2.77 0.77,-3.35 0.84,-4.10 0.91,-4.85 1.28,-5.88 1.65,-6.91 2.13,-7.90 2.60,-8.89 3.10,-9.89 3.61,-10.89 4.04,-11.32 4.47,-11.75 4.53,-11.84 4.59,-11.93 4.67,-12.01 4.74,-12.08 4.84,-12.14 4.93,-12.19 5.03,-12.22 5.13,-12.25 5.24,-12.25 5.35,-12.26 5.45,-12.24 5.56,-12.21 5.65,-12.17 5.75,-12.12 5.83,-12.06 5.91,-11.99 5.98,-11.90 6.04,-11.82 6.08,-11.72 6.13,-11.62 6.14,-11.51 6.16,-11.41 6.15,-11.30 6.14,-11.20 6.11,-11.09 6.08,-10.99 7.03,-10.17 7.99,-9.34 9.33,-7.02 10.68,-4.70 11.54,-2.54 12.40,-0.38 14.16,2.47 15.93,5.33 17.26,7.43 18.59,9.52 19.45,11.00 20.31,12.48 22.00,12.04 23.69,11.59 23.72,11.68 23.76,11.77 23.78,11.86 23.79,11.96 23.79,12.06 23.78,12.15 23.75,12.24 23.72,12.33 23.67,12.42 23.62,12.50 23.55,12.56 23.48,12.63 23.40,12.68 23.31,12.73 23.22,12.76 23.13,12.78 23.03,12.79 22.93,12.79 22.84,12.77 22.75,12.75 22.66,12.71 22.57,12.67 22.50,12.61 22.42,12.55 22.36,12.47 22.30,12.40 22.46,11.84 22.62,11.29 22.74,11.25 22.86,11.21 22.99,11.21 23.12,11.21 23.25,11.25 23.37,11.29 23.47,11.37 23.57,11.44 23.65,11.55 23.72,11.66 23.75,11.78 23.79,11.91 23.78,12.04 23.78,12.17 23.73,12.29 23.68,12.41 23.60,12.50 23.51,12.60 23.40,12.67 23.29,12.74 23.17,12.77 23.04,12.79 22.91,12.78 22.78,12.77 22.66,12.71 22.55,12.66 22.45,12.57 22.36,12.48 22.30,12.37 22.24,12.25 22.22,12.12 22.20,12.00 22.22,11.87 22.24,11.74 22.30,11.63 22.36,11.51 22.45,11.42 22.55,11.33 22.66,11.28 22.78,11.23 22.91,11.21 23.04,11.20 23.16,11.22 23.29,11.25 23.40,11.32 23.51,11.39 23.60,11.48 23.68,11.58 23.73,11.70 23.78,11.82 23.78,11.95 23.79,12.08 23.76,12.21 23.72,12.33 23.65,12.44 23.58,12.54 23.63,12.07 23.69,11.59 23.72,11.68 23.76,11.77 23.78,11.86 23.79,11.96 23.79,12.05 23.78,12.15 23.75,12.24 23.72,12.33 23.67,12.42 23.62,12.50 23.55,12.56 23.48,12.63 23.40,12.68 23.31,12.73 23.22,12.76 23.13,12.78 23.03,12.79 22.93,12.79 22.84,12.77 22.75,12.75 22.66,12.71 22.57,12.67 22.50,12.61 22.42,12.55 22.36,12.47 22.30,12.40 20.73,12.79 19.15,13.17 18.29,11.72 17.44,10.26 16.09,8.16 14.75,6.06 12.92,3.10 11.09,0.14 10.25,-1.91 9.42,-3.97 8.13,-6.17 6.84,-8.37 5.66,-10.06 4.47,-11.75 4.53,-11.84 4.59,-11.93 4.67,-12.01 4.74,-12.08 4.84,-12.14 4.93,-12.19 5.03,-12.22 5.13,-12.25 5.24,-12.25 5.35,-12.26 5.45,-12.24 5.56,-12.21 5.65,-12.17 5.75,-12.12 5.83,-12.06 5.91,-11.99 5.98,-11.90 6.04,-11.82 6.08,-11.72 6.13,-11.62 6.14,-11.51 6.16,-11.41 6.15,-11.30 6.14,-11.20 6.11,-11.09 6.08,-10.99 5.54,-10.58 4.99,-10.17 4.56,-9.20 4.13,-8.22 3.74,-7.26 3.35,-6.31 3.07,-5.46 2.78,-4.62 2.64,-3.66 2.50,-2.71 2.18,-1.98 1.85,-1.26 1.30,-0.38 0.74,0.49 0.67,0.57 0.60,0.66 0.51,0.72 0.42,0.78 0.32,0.82 0.22,0.86 0.12,0.88 0.01,0.89 -0.09,0.88 -0.20,0.87 -0.30,0.83 -0.40,0.80 -0.49,0.74 -0.58,0.68 -0.65,0.60 -0.72,0.52 -0.78,0.42 -0.83,0.33 -0.86,0.22 -0.88,0.12 -0.88,0.01 -0.89,-0.09 -0.86,-0.19 -0.84,-0.30 -0.79,-0.40 -0.74,-0.49 -0.74,-0.49 L -0.74,-0.49 Z"></path></g><g transform="translate(611.3854791237135 75.87829917594792) rotate(0 -4 8.5)" stroke="none"><path fill="#e03131" d="M 0.66,0.66 Q 0.66,0.66 0.10,1.24 -0.46,1.83 -0.94,2.56 -1.43,3.29 -1.94,4.41 -2.45,5.54 -2.97,6.89 -3.49,8.24 -4.02,9.41 -4.55,10.58 -5.07,11.66 -5.59,12.73 -5.87,14.82 -6.15,16.91 -6.16,17.05 -6.16,17.18 -6.22,17.31 -6.27,17.44 -6.36,17.54 -6.45,17.65 -6.57,17.72 -6.68,17.79 -6.82,17.82 -6.95,17.85 -7.09,17.83 -7.23,17.81 -7.35,17.76 -7.48,17.70 -7.58,17.60 -7.68,17.51 -7.74,17.38 -7.80,17.26 -7.82,17.13 -7.85,16.99 -7.82,16.85 -7.80,16.72 -7.73,16.60 -7.67,16.48 -7.57,16.38 -7.47,16.29 -7.34,16.23 -7.22,16.17 -7.08,16.16 -6.94,16.15 -6.81,16.18 -6.68,16.21 -6.56,16.28 -6.44,16.35 -6.35,16.45 -6.26,16.56 -6.21,16.69 -6.16,16.82 -6.16,16.95 -6.15,17.09 -6.19,17.22 -6.22,17.36 -6.30,17.47 -6.38,17.58 -6.49,17.67 -6.60,17.75 -6.73,17.79 -6.86,17.84 -7.00,17.83 -7.14,17.83 -7.27,17.79 -7.40,17.74 -7.51,17.66 -7.62,17.58 -7.69,17.46 -7.77,17.35 -7.81,17.21 -7.84,17.08 -7.84,17.08 -7.84,17.08 -7.38,14.59 -6.92,12.10 -6.44,11.04 -5.95,9.98 -5.48,8.83 -5.00,7.68 -4.51,6.28 -4.02,4.87 -3.51,3.57 -2.99,2.28 -2.41,1.37 -1.83,0.46 -1.25,-0.09 -0.66,-0.66 -0.57,-0.73 -0.48,-0.80 -0.38,-0.85 -0.27,-0.89 -0.16,-0.91 -0.05,-0.93 0.05,-0.93 0.16,-0.92 0.27,-0.89 0.38,-0.85 0.48,-0.79 0.58,-0.74 0.66,-0.66 0.74,-0.58 0.79,-0.48 0.85,-0.38 0.89,-0.27 0.92,-0.16 0.93,-0.05 0.93,0.05 0.91,0.16 0.89,0.27 0.85,0.38 0.80,0.48 0.73,0.57 0.66,0.66 0.66,0.66 L 0.66,0.66 Z"></path></g><g transform="translate(616.3854791237135 62.878299175947916) rotate(0 5 4)" stroke="none"><path fill="#e03131" d="M -0.36,-1.09 Q -0.36,-1.09 0.50,-1.36 1.37,-1.62 2.10,-1.78 2.82,-1.94 3.74,-1.98 4.67,-2.03 5.33,-2.07 5.99,-2.11 6.57,-2.15 7.14,-2.18 7.67,-2.21 8.21,-2.23 8.72,-2.26 9.23,-2.28 9.38,-2.26 9.54,-2.24 9.68,-2.19 9.83,-2.13 9.96,-2.05 10.08,-1.96 10.19,-1.85 10.29,-1.73 10.36,-1.59 10.44,-1.46 10.48,-1.31 10.51,-1.16 10.51,-1.00 10.52,-0.85 10.48,-0.70 10.44,-0.55 10.37,-0.41 10.30,-0.27 10.20,-0.15 10.10,-0.04 9.97,0.04 9.84,0.13 9.70,0.19 9.56,0.24 9.40,0.26 9.25,0.28 9.79,0.33 10.33,0.38 9.57,1.42 8.81,2.46 8.24,3.30 7.67,4.15 7.12,4.87 6.57,5.60 6.41,6.11 6.24,6.63 5.73,7.10 5.21,7.57 4.74,8.26 4.27,8.94 4.15,9.00 4.03,9.06 3.89,9.09 3.76,9.12 3.62,9.11 3.49,9.11 3.35,9.07 3.22,9.04 3.10,8.97 2.99,8.90 2.89,8.81 2.79,8.71 2.71,8.60 2.64,8.48 2.60,8.35 2.55,8.23 2.54,8.09 2.53,7.95 2.55,7.82 2.57,7.68 2.62,7.56 2.67,7.43 2.76,7.32 2.84,7.21 2.94,7.13 3.05,7.04 3.74,6.91 4.43,6.79 6.21,6.76 8.00,6.73 8.20,6.77 8.40,6.80 8.58,6.90 8.76,6.99 8.90,7.14 9.04,7.29 9.12,7.47 9.21,7.66 9.23,7.86 9.25,8.06 9.21,8.26 9.17,8.46 9.06,8.64 8.96,8.81 8.80,8.94 8.64,9.08 8.46,9.15 8.27,9.23 8.06,9.24 7.86,9.25 7.66,9.19 7.47,9.14 7.30,9.02 7.13,8.91 7.00,8.75 6.88,8.58 6.82,8.39 6.75,8.20 6.75,7.99 6.75,7.79 6.82,7.60 6.88,7.40 7.01,7.24 7.13,7.08 7.30,6.97 7.47,6.85 7.66,6.80 7.86,6.74 8.06,6.75 8.27,6.76 8.46,6.84 8.65,6.92 8.80,7.05 8.96,7.18 9.06,7.35 9.17,7.53 9.21,7.73 9.25,7.93 9.23,8.13 9.21,8.33 9.12,8.52 9.04,8.70 8.90,8.85 8.76,9.00 8.58,9.09 8.40,9.19 8.20,9.22 7.99,9.26 7.99,9.26 7.99,9.26 6.13,9.10 4.27,8.94 4.15,9.00 4.03,9.06 3.89,9.09 3.76,9.12 3.62,9.11 3.49,9.11 3.35,9.07 3.22,9.04 3.10,8.97 2.99,8.90 2.89,8.81 2.79,8.71 2.71,8.60 2.64,8.48 2.60,8.35 2.55,8.23 2.54,8.09 2.53,7.95 2.55,7.82 2.57,7.68 2.62,7.56 2.67,7.43 2.76,7.32 2.84,7.21 2.94,7.13 3.05,7.04 3.72,6.35 4.40,5.66 4.67,5.02 4.95,4.38 5.44,3.75 5.93,3.11 6.45,2.11 6.97,1.11 7.42,0.51 7.86,-0.08 8.55,-1.18 9.23,-2.28 9.38,-2.26 9.54,-2.24 9.68,-2.19 9.83,-2.13 9.96,-2.05 10.08,-1.96 10.19,-1.85 10.29,-1.73 10.36,-1.59 10.44,-1.46 10.48,-1.31 10.51,-1.16 10.51,-1.00 10.52,-0.85 10.48,-0.70 10.44,-0.55 10.37,-0.41 10.30,-0.27 10.20,-0.15 10.10,-0.04 9.97,0.04 9.84,0.13 9.70,0.19 9.56,0.24 9.40,0.26 9.25,0.28 8.22,0.25 7.18,0.21 6.63,0.19 6.07,0.18 5.44,0.18 4.80,0.18 4.02,0.24 3.24,0.30 2.65,0.38 2.07,0.47 1.21,0.78 0.36,1.09 0.22,1.12 0.09,1.15 -0.04,1.14 -0.18,1.14 -0.32,1.10 -0.45,1.06 -0.57,0.99 -0.69,0.92 -0.79,0.82 -0.89,0.73 -0.97,0.61 -1.04,0.49 -1.09,0.36 -1.13,0.23 -1.14,0.09 -1.15,-0.04 -1.13,-0.18 -1.11,-0.32 -1.05,-0.45 -1.00,-0.57 -0.91,-0.69 -0.83,-0.80 -0.72,-0.89 -0.61,-0.97 -0.49,-1.03 -0.36,-1.09 -0.36,-1.09 L -0.36,-1.09 Z"></path></g><g transform="translate(626.3854791237135 87.87829917594792) rotate(0 4.5 0.5)" stroke="none"><path fill="#e03131" d="M 0.32,-0.98 Q 0.32,-0.98 1.16,-0.68 1.99,-0.38 3.02,-0.52 4.06,-0.66 6.51,-0.83 8.96,-1.00 9.12,-0.98 9.28,-0.96 9.42,-0.89 9.57,-0.82 9.69,-0.70 9.80,-0.59 9.88,-0.45 9.95,-0.30 9.97,-0.14 10.00,0.01 9.97,0.17 9.94,0.33 9.86,0.47 9.78,0.61 9.67,0.72 9.55,0.83 9.40,0.90 9.25,0.97 9.09,0.98 8.93,1.00 8.77,0.96 8.61,0.92 8.47,0.84 8.33,0.75 8.23,0.62 8.13,0.50 8.07,0.35 8.01,0.20 8.01,0.03 8.00,-0.12 8.04,-0.27 8.09,-0.43 8.18,-0.56 8.28,-0.70 8.41,-0.79 8.54,-0.89 8.69,-0.94 8.85,-0.99 9.01,-0.99 9.17,-0.98 9.33,-0.93 9.48,-0.87 9.61,-0.77 9.73,-0.67 9.82,-0.54 9.91,-0.40 9.95,-0.25 9.99,-0.09 9.98,0.06 9.97,0.23 9.91,0.38 9.85,0.53 9.74,0.65 9.63,0.77 9.49,0.85 9.35,0.93 9.19,0.97 9.03,1.00 9.03,1.00 9.03,1.00 6.67,1.07 4.30,1.15 2.87,1.34 1.45,1.53 0.56,1.26 -0.32,0.98 -0.44,0.93 -0.55,0.87 -0.65,0.79 -0.74,0.71 -0.82,0.61 -0.89,0.51 -0.94,0.40 -0.99,0.28 -1.01,0.16 -1.03,0.04 -1.02,-0.08 -1.01,-0.20 -0.97,-0.32 -0.93,-0.44 -0.87,-0.55 -0.80,-0.65 -0.71,-0.74 -0.62,-0.83 -0.51,-0.89 -0.40,-0.95 -0.28,-0.99 -0.16,-1.02 -0.04,-1.03 0.08,-1.03 0.20,-1.01 0.32,-0.98 0.32,-0.98 L 0.32,-0.98 Z"></path></g><g transform="translate(644.3854791237135 73.87829917594792) rotate(0 0.5 9.5)" stroke="none"><path fill="#e03131" d="M 1.01,-0.16 Q 1.01,-0.16 1.25,1.56 1.49,3.29 1.58,5.22 1.67,7.16 1.69,8.25 1.72,9.35 1.72,10.69 1.73,12.02 1.72,13.17 1.71,14.31 1.76,15.08 1.81,15.85 1.86,17.42 1.92,18.99 1.89,19.14 1.87,19.29 1.80,19.42 1.73,19.55 1.62,19.66 1.51,19.76 1.38,19.82 1.24,19.88 1.09,19.90 0.95,19.92 0.80,19.88 0.65,19.85 0.53,19.78 0.40,19.70 0.30,19.59 0.21,19.47 0.15,19.33 0.09,19.19 0.09,19.05 0.08,18.90 0.12,18.75 0.16,18.61 0.24,18.49 0.32,18.36 0.44,18.27 0.56,18.18 0.70,18.13 0.84,18.08 0.99,18.08 1.14,18.08 1.28,18.13 1.43,18.18 1.55,18.27 1.66,18.36 1.75,18.48 1.83,18.61 1.87,18.75 1.91,18.89 1.90,19.04 1.90,19.19 1.84,19.33 1.79,19.47 1.69,19.58 1.59,19.70 1.47,19.77 1.34,19.85 1.19,19.88 1.05,19.92 0.90,19.90 0.75,19.88 0.61,19.82 0.48,19.76 0.37,19.66 0.26,19.55 0.19,19.42 0.12,19.29 0.10,19.14 0.07,19.00 0.07,19.00 0.07,19.00 0.12,17.43 0.17,15.86 0.21,15.09 0.25,14.32 0.22,13.18 0.20,12.05 0.16,10.74 0.12,9.43 0.04,8.35 -0.03,7.27 -0.18,5.43 -0.34,3.60 -0.67,1.88 -1.01,0.16 -1.02,0.04 -1.02,-0.07 -1.00,-0.20 -0.97,-0.32 -0.92,-0.43 -0.87,-0.54 -0.79,-0.64 -0.71,-0.74 -0.61,-0.81 -0.51,-0.89 -0.40,-0.93 -0.29,-0.98 -0.16,-1.00 -0.04,-1.02 0.07,-1.01 0.20,-1.01 0.31,-0.97 0.43,-0.93 0.54,-0.86 0.64,-0.80 0.73,-0.71 0.82,-0.62 0.88,-0.51 0.94,-0.40 0.98,-0.28 1.01,-0.16 1.01,-0.16 L 1.01,-0.16 Z"></path></g><g transform="translate(659.3854791237135 61.878299175947916) rotate(0 3.5 27)" stroke="none"><path fill="#e03131" d="M 0.75,-0.25 Q 0.75,-0.25 1.05,0.60 1.35,1.46 1.47,3.08 1.59,4.69 1.63,6.79 1.66,8.90 1.67,10.94 1.68,12.98 1.97,14.94 2.25,16.91 2.93,18.86 3.61,20.80 3.92,22.57 4.23,24.34 4.35,25.97 4.48,27.59 4.82,29.97 5.15,32.35 5.58,34.50 6.01,36.66 6.20,38.18 6.38,39.70 6.49,40.63 6.60,41.57 6.64,42.55 6.69,43.54 6.76,44.24 6.82,44.94 6.87,45.53 6.93,46.12 6.97,46.66 7.02,47.20 7.09,48.22 7.15,49.25 7.66,51.41 8.16,53.57 8.20,53.77 8.24,53.96 8.21,54.16 8.18,54.36 8.09,54.54 8.00,54.72 7.86,54.86 7.72,55.00 7.54,55.09 7.36,55.18 7.16,55.21 6.96,55.24 6.76,55.20 6.56,55.16 6.39,55.06 6.22,54.96 6.08,54.81 5.95,54.66 5.87,54.48 5.79,54.29 5.77,54.09 5.76,53.89 5.81,53.70 5.86,53.50 5.96,53.33 6.07,53.16 6.23,53.04 6.39,52.91 6.58,52.84 6.76,52.78 6.96,52.77 7.17,52.77 7.36,52.82 7.55,52.88 7.71,53.00 7.87,53.12 7.99,53.28 8.11,53.45 8.17,53.64 8.23,53.83 8.22,54.03 8.21,54.23 8.14,54.42 8.07,54.61 7.95,54.76 7.82,54.92 7.65,55.03 7.48,55.14 7.29,55.18 7.09,55.23 6.89,55.22 6.69,55.20 6.51,55.12 6.32,55.04 6.17,54.90 6.03,54.77 5.93,54.60 5.83,54.42 5.83,54.42 5.83,54.42 5.33,51.83 4.83,49.25 4.90,48.23 4.97,47.21 5.01,46.67 5.05,46.14 5.09,45.56 5.13,44.98 5.16,44.28 5.20,43.59 5.18,42.64 5.16,41.69 5.11,40.78 5.06,39.86 4.88,38.39 4.70,36.92 4.26,34.73 3.83,32.54 3.48,30.12 3.14,27.70 3.01,26.14 2.88,24.58 2.59,22.92 2.31,21.26 1.58,19.19 0.86,17.12 0.55,15.06 0.24,13.00 0.21,10.97 0.17,8.94 0.11,6.88 0.04,4.82 -0.08,3.40 -0.20,1.98 -0.48,1.11 -0.75,0.25 -0.77,0.15 -0.79,0.06 -0.78,-0.03 -0.78,-0.12 -0.75,-0.21 -0.72,-0.31 -0.68,-0.39 -0.63,-0.47 -0.56,-0.54 -0.50,-0.61 -0.42,-0.66 -0.33,-0.71 -0.24,-0.74 -0.15,-0.77 -0.06,-0.78 0.03,-0.79 0.12,-0.77 0.22,-0.76 0.30,-0.72 0.39,-0.68 0.47,-0.62 0.55,-0.57 0.61,-0.49 0.67,-0.42 0.71,-0.33 0.75,-0.25 0.75,-0.25 L 0.75,-0.25 Z"></path></g><g transform="translate(362.29419958496277 227.88637910357528) rotate(0 0.8761359833136737 0.8761359833137021)" stroke="none"><path fill="#e03131" d="M -0.31,1.25 Q -0.31,1.25 -0.98,1.08 -1.65,0.91 -1.69,0.33 -1.73,-0.24 -0.73,-0.28 0.26,-0.32 1.40,-0.65 2.54,-0.97 2.25,-0.51 1.95,-0.05 1.56,0.54 1.18,1.13 0.45,1.56 -0.27,1.99 -0.52,2.03 -0.77,2.07 -0.97,2.12 -1.16,2.16 -1.36,2.16 -1.56,2.17 -1.75,2.12 -1.94,2.07 -2.12,1.98 -2.30,1.89 -2.44,1.76 -2.59,1.62 -2.71,1.46 -2.82,1.30 -2.89,1.11 -2.96,0.93 -2.99,0.73 -3.01,0.53 -2.99,0.33 -2.97,0.14 -2.90,-0.04 -2.83,-0.23 -2.71,-0.39 -2.60,-0.55 -2.45,-0.69 -2.30,-0.82 -2.13,-0.91 -1.95,-1.00 -0.79,-0.02 0.37,0.96 1.24,1.98 2.11,3.00 1.92,2.54 1.74,2.07 1.87,2.22 2.01,2.37 2.10,2.55 2.20,2.73 2.25,2.93 2.30,3.12 2.30,3.32 2.30,3.52 2.25,3.72 2.21,3.92 2.11,4.09 2.02,4.27 1.89,4.43 1.76,4.58 1.59,4.69 1.43,4.81 1.24,4.88 1.05,4.95 0.85,4.98 0.65,5.01 0.45,4.98 0.25,4.96 0.06,4.89 -0.12,4.82 -0.29,4.71 -0.45,4.59 -1.35,2.61 -2.25,0.63 -2.22,0.36 -2.18,0.09 -2.06,-0.14 -1.94,-0.39 -1.75,-0.58 -1.56,-0.77 -1.31,-0.89 -1.07,-1.01 -0.80,-1.05 -0.54,-1.08 -0.27,-1.03 -0.00,-0.98 0.22,-0.85 0.46,-0.72 0.64,-0.52 0.82,-0.31 0.93,-0.07 1.04,0.17 1.06,0.44 1.08,0.71 1.01,0.98 0.95,1.24 0.80,1.47 0.66,1.70 0.45,1.87 0.24,2.04 -0.01,2.13 -0.26,2.22 -0.53,2.23 -0.80,2.24 -1.06,2.16 -1.32,2.08 -1.54,1.92 -1.76,1.76 -1.92,1.54 -2.08,1.32 -2.16,1.07 -2.24,0.81 -2.23,0.54 -2.22,0.27 -2.13,0.01 -2.04,-0.23 -1.87,-0.44 -1.70,-0.66 -1.47,-0.80 -1.24,-0.95 -0.98,-1.01 -0.72,-1.08 -0.45,-1.06 -0.18,-1.04 0.06,-0.93 0.31,-0.82 0.51,-0.64 0.71,-0.46 0.85,-0.23 0.98,0.00 1.03,0.27 1.08,0.53 1.08,0.53 1.08,0.53 1.41,1.30 1.74,2.07 1.87,2.22 2.01,2.37 2.10,2.55 2.20,2.73 2.25,2.93 2.30,3.12 2.30,3.32 2.30,3.52 2.25,3.72 2.21,3.92 2.11,4.09 2.02,4.27 1.89,4.43 1.76,4.58 1.59,4.69 1.43,4.81 1.24,4.88 1.05,4.95 0.85,4.98 0.65,5.01 0.45,4.98 0.25,4.96 0.06,4.89 -0.12,4.82 -0.29,4.71 -0.45,4.59 -0.79,4.13 -1.12,3.67 -1.69,3.23 -2.25,2.79 -2.56,2.14 -2.87,1.49 -1.82,1.78 -0.77,2.07 -0.97,2.12 -1.16,2.16 -1.36,2.16 -1.56,2.17 -1.75,2.12 -1.94,2.07 -2.12,1.98 -2.30,1.89 -2.44,1.76 -2.59,1.62 -2.71,1.46 -2.82,1.30 -2.89,1.11 -2.96,0.93 -2.99,0.73 -3.01,0.53 -2.99,0.33 -2.97,0.14 -2.90,-0.04 -2.83,-0.23 -2.71,-0.39 -2.60,-0.55 -2.45,-0.69 -2.30,-0.82 -2.13,-0.91 -1.95,-1.00 -1.79,-0.84 -1.63,-0.68 -1.03,-1.02 -0.43,-1.35 0.50,-2.06 1.45,-2.77 2.08,-2.99 2.72,-3.22 3.63,-3.03 4.54,-2.85 4.99,-2.40 5.43,-1.95 5.52,-1.16 5.60,-0.37 5.13,0.31 4.66,1.00 4.02,1.33 3.38,1.67 2.59,1.94 1.81,2.22 1.01,2.41 0.20,2.60 -0.95,2.48 -2.11,2.37 -2.61,2.12 -3.11,1.87 -3.49,1.30 -3.86,0.74 -3.69,-0.22 -3.51,-1.20 -2.92,-1.46 -2.32,-1.72 -1.67,-1.65 -1.03,-1.58 -0.35,-1.42 0.31,-1.25 0.46,-1.20 0.60,-1.14 0.73,-1.05 0.86,-0.96 0.96,-0.85 1.06,-0.73 1.14,-0.59 1.21,-0.45 1.25,-0.30 1.28,-0.15 1.28,0.00 1.28,0.16 1.24,0.31 1.21,0.46 1.13,0.60 1.06,0.73 0.96,0.85 0.85,0.97 0.72,1.06 0.59,1.14 0.45,1.20 0.30,1.25 0.15,1.27 -0.00,1.29 -0.15,1.27 -0.31,1.25 -0.31,1.25 L -0.31,1.25 Z"></path></g><g transform="translate(352.36465844074087 199.85002763753695) rotate(0 0.8761359833136737 8.469314505365745)" stroke="none"><path fill="#e03131" d="M 1.25,0 Q 1.25,0 1.23,0.83 1.21,1.67 1.18,2.53 1.16,3.40 1.19,3.93 1.21,4.46 1.21,5.19 1.21,5.92 1.22,6.57 1.23,7.22 1.27,8.18 1.31,9.15 1.67,9.64 2.03,10.13 2.39,10.63 2.75,11.13 2.92,11.82 3.08,12.52 3.17,14.72 3.26,16.93 3.22,17.17 3.18,17.41 3.07,17.63 2.95,17.85 2.77,18.01 2.60,18.18 2.38,18.29 2.15,18.39 1.91,18.42 1.67,18.44 1.43,18.39 1.19,18.34 0.98,18.21 0.77,18.09 0.61,17.90 0.45,17.71 0.36,17.49 0.27,17.26 0.26,17.02 0.24,16.77 0.31,16.54 0.38,16.30 0.51,16.10 0.65,15.90 0.84,15.75 1.04,15.60 1.27,15.52 1.50,15.44 1.75,15.44 1.99,15.44 2.22,15.52 2.45,15.60 2.65,15.75 2.84,15.89 2.98,16.10 3.12,16.30 3.18,16.53 3.25,16.77 3.24,17.01 3.22,17.26 3.13,17.48 3.04,17.71 2.88,17.90 2.73,18.08 2.52,18.21 2.31,18.34 2.07,18.39 1.83,18.44 1.59,18.42 1.34,18.39 1.12,18.29 0.90,18.19 0.72,18.02 0.55,17.85 0.43,17.63 0.32,17.42 0.28,17.18 0.24,16.94 0.24,16.94 0.24,16.94 0.23,15.27 0.22,13.60 0.24,12.96 0.26,12.31 -0.30,11.79 -0.86,11.27 -1.09,10.21 -1.31,9.15 -1.27,8.18 -1.23,7.22 -1.22,6.57 -1.21,5.92 -1.21,5.19 -1.21,4.46 -1.19,3.93 -1.16,3.40 -1.18,2.53 -1.21,1.67 -1.23,0.83 -1.25,0 -1.23,-0.15 -1.22,-0.30 -1.16,-0.44 -1.11,-0.58 -1.02,-0.70 -0.94,-0.83 -0.82,-0.93 -0.71,-1.03 -0.57,-1.10 -0.44,-1.17 -0.29,-1.21 -0.15,-1.24 0.00,-1.24 0.15,-1.24 0.29,-1.21 0.44,-1.17 0.57,-1.10 0.71,-1.03 0.82,-0.93 0.94,-0.83 1.02,-0.70 1.11,-0.58 1.16,-0.44 1.22,-0.30 1.23,-0.15 1.25,0.00 1.25,0.00 L 1.25,0 Z"></path></g></svg>