<svg version="1.1" xmlns="http://www.w3.org/2000/svg" viewBox="0 0 899.8659000107647 446" width="899.8659000107647" height="446" class="excalidraw-svg"><!-- svg-source:excalidraw --><metadata></metadata><defs><style class="style-fonts">
      </style></defs><rect x="0" y="0" width="899.8659000107647" height="446" fill="#ffffff"></rect><g stroke-linecap="round"><g transform="translate(11.202461317451707 92) rotate(0 421.1762258015853 -0.6657326765358453)"><path d="M0.17 0.64 C140.28 0.26, 700.74 -1.55, 841.24 -1.97 M-1.2 -0.07 C139.24 -0.28, 702.85 -0.35, 843.55 -0.42" stroke="#1e1e1e" stroke-width="2" fill="none"></path></g><g transform="translate(11.202461317451707 92) rotate(0 421.1762258015853 -0.6657326765358453)"><path d="M820.07 8.14 C829.33 3.85, 836.54 4.11, 843.55 -0.42 M820.07 8.14 C827.29 5.11, 834.15 3.95, 843.55 -0.42" stroke="#1e1e1e" stroke-width="2" fill="none"></path></g><g transform="translate(11.202461317451707 92) rotate(0 421.1762258015853 -0.6657326765358453)"><path d="M820.06 -8.96 C829.37 -7.27, 836.58 -1.02, 843.55 -0.42 M820.06 -8.96 C827.24 -6.69, 834.1 -2.54, 843.55 -0.42" stroke="#1e1e1e" stroke-width="2" fill="none"></path></g></g><mask></mask><g transform="translate(248.2024613174517 90) rotate(0 1 3.5)" stroke="none"><path fill="#1e1e1e" d="M 4.91,0.70 Q 4.91,0.70 4.70,2.67 4.50,4.65 4.74,5.57 4.99,6.48 4.82,7.09 4.65,7.71 4.35,8.27 4.04,8.83 3.61,9.29 3.17,9.76 2.64,10.11 2.11,10.46 1.51,10.68 0.91,10.89 0.27,10.95 -0.35,11.02 -0.98,10.93 -1.61,10.84 -2.20,10.60 -2.80,10.36 -3.31,9.99 -3.83,9.61 -4.24,9.13 -4.65,8.64 -4.94,8.07 -5.22,7.50 -5.36,6.88 -5.50,6.26 -5.49,5.62 -5.47,4.98 -3.06,2.65 -0.64,0.33 -0.65,-0.86 -0.65,-2.05 -0.02,-2.18 0.60,-2.30 1.24,-2.27 1.88,-2.24 2.49,-2.06 3.11,-1.88 3.66,-1.56 4.22,-1.23 4.68,-0.79 5.14,-0.34 5.48,0.20 5.82,0.74 6.02,1.35 6.22,1.96 6.26,2.60 6.31,3.24 6.21,3.87 6.10,4.50 5.84,5.09 5.59,5.68 5.20,6.19 4.81,6.70 4.31,7.11 3.81,7.51 3.23,7.78 2.65,8.05 -0.07,7.38 -2.80,6.72 -3.30,6.01 -3.79,5.31 -4.03,4.48 -4.28,3.65 -4.24,2.79 -4.21,1.93 -3.90,1.13 -3.60,0.32 -3.05,-0.33 -2.50,-1.00 -1.77,-1.45 -1.04,-1.91 -0.20,-2.11 0.62,-2.30 1.48,-2.22 2.34,-2.15 3.13,-1.80 3.91,-1.45 4.55,-0.86 5.18,-0.28 5.60,0.46 6.01,1.22 6.16,2.06 6.32,2.91 6.19,3.76 6.06,4.62 5.67,5.38 5.28,6.15 4.67,6.75 4.05,7.35 3.27,7.73 2.50,8.10 1.64,8.21 0.79,8.31 -0.04,8.14 -0.89,7.97 -1.63,7.54 -2.38,7.10 -2.94,6.46 -3.51,5.81 -3.84,5.01 -4.17,4.22 -4.23,3.36 -4.29,2.50 -4.08,1.67 -3.86,0.84 -3.39,0.12 -2.92,-0.59 -2.24,-1.13 -1.56,-1.66 -0.75,-1.95 0.05,-2.23 0.91,-2.25 1.77,-2.26 2.59,-2.00 3.42,-1.74 1.38,-1.89 -0.65,-2.05 -0.02,-2.18 0.60,-2.30 1.24,-2.27 1.88,-2.24 2.49,-2.06 3.11,-1.88 3.66,-1.56 4.22,-1.23 4.68,-0.79 5.14,-0.34 5.48,0.20 5.82,0.74 6.02,1.35 6.22,1.96 6.26,2.60 6.31,3.24 6.21,3.87 6.10,4.50 5.84,5.09 5.59,5.68 5.20,6.19 4.81,6.70 4.31,7.11 3.81,7.51 3.23,7.78 2.65,8.05 2.69,9.17 2.73,10.29 3.86,8.38 4.99,6.48 4.82,7.09 4.65,7.71 4.35,8.27 4.04,8.83 3.61,9.29 3.17,9.76 2.64,10.11 2.11,10.46 1.51,10.68 0.91,10.89 0.27,10.95 -0.35,11.02 -0.98,10.93 -1.61,10.84 -2.20,10.60 -2.79,10.36 -3.31,9.99 -3.83,9.61 -4.24,9.13 -4.65,8.64 -4.94,8.07 -5.22,7.50 -5.36,6.88 -5.50,6.26 -5.49,5.62 -5.47,4.98 -5.56,4.19 -5.65,3.39 -5.28,1.34 -4.91,-0.70 -4.76,-1.28 -4.60,-1.85 -4.31,-2.38 -4.02,-2.90 -3.62,-3.34 -3.21,-3.78 -2.71,-4.11 -2.21,-4.44 -1.65,-4.64 -1.08,-4.84 -0.49,-4.90 0.10,-4.96 0.69,-4.88 1.29,-4.79 1.84,-4.57 2.40,-4.34 2.88,-3.99 3.37,-3.64 3.75,-3.19 4.14,-2.73 4.41,-2.19 4.68,-1.66 4.81,-1.07 4.94,-0.49 4.92,0.10 4.91,0.70 4.91,0.70 L 4.91,0.70 Z"></path></g><g transform="translate(229.2024613174517 133) rotate(0 10 2.5)" stroke="none"><path fill="#1e1e1e" d="M 2.12,-4.77 Q 2.12,-4.77 4.69,-3.60 7.27,-2.43 9.52,-2.06 11.76,-1.69 14.47,-1.39 17.18,-1.08 18.75,-1.05 20.32,-1.02 21.27,-0.81 22.23,-0.60 23.06,-0.10 23.90,0.39 24.53,1.14 25.16,1.88 25.53,2.79 25.89,3.70 25.94,4.67 25.99,5.65 25.73,6.59 25.47,7.53 24.93,8.34 24.38,9.14 23.60,9.73 22.82,10.33 21.90,10.64 20.97,10.95 20.00,10.95 19.02,10.95 18.10,10.64 17.17,10.33 16.39,9.74 15.61,9.15 15.07,8.34 14.52,7.53 14.26,6.59 14.00,5.65 14.05,4.67 14.10,3.70 14.46,2.79 14.82,1.88 15.46,1.14 16.09,0.40 16.92,-0.10 17.76,-0.60 18.71,-0.81 19.67,-1.02 20.64,-0.92 21.61,-0.81 22.49,-0.40 23.38,0.00 24.09,0.67 24.80,1.34 25.26,2.20 25.71,3.07 25.87,4.03 26.03,4.99 25.87,5.96 25.71,6.92 25.26,7.78 24.80,8.65 24.09,9.32 23.38,9.99 22.50,10.40 21.61,10.81 20.64,10.92 19.67,11.02 19.67,11.02 19.67,11.02 16.25,10.60 12.83,10.17 10.63,9.60 8.43,9.04 5.75,8.04 3.07,7.03 0.47,5.90 -2.12,4.77 -2.66,4.44 -3.20,4.12 -3.64,3.68 -4.09,3.23 -4.42,2.70 -4.75,2.16 -4.94,1.56 -5.13,0.96 -5.17,0.33 -5.21,-0.29 -5.10,-0.91 -4.99,-1.53 -4.73,-2.10 -4.48,-2.68 -4.09,-3.17 -3.70,-3.67 -3.21,-4.06 -2.72,-4.45 -2.14,-4.71 -1.57,-4.97 -0.95,-5.09 -0.33,-5.21 0.28,-5.17 0.91,-5.14 1.51,-4.95 2.12,-4.77 2.12,-4.77 L 2.12,-4.77 Z"></path></g><g transform="translate(263.2024613174517 119) rotate(0 0 24)" stroke="none"><path fill="#1e1e1e" d="M 5.09,0 Q 5.09,0 5.03,3.16 4.97,6.32 4.98,9.10 4.99,11.88 4.98,14.79 4.97,17.70 5.13,21.26 5.30,24.83 5.50,27.27 5.69,29.72 5.84,32.74 5.99,35.76 6.07,38.77 6.14,41.77 6.21,44.88 6.28,48 6.12,49.00 5.95,50.00 5.48,50.90 5.00,51.80 4.26,52.50 3.52,53.20 2.60,53.63 1.68,54.05 0.67,54.16 -0.34,54.27 -1.33,54.05 -2.32,53.84 -3.19,53.31 -4.07,52.79 -4.72,52.01 -5.38,51.24 -5.76,50.29 -6.14,49.35 -6.19,48.33 -6.25,47.31 -5.97,46.33 -5.70,45.35 -5.13,44.51 -4.56,43.67 -3.75,43.06 -2.94,42.44 -1.98,42.11 -1.01,41.79 0.00,41.79 1.01,41.79 1.98,42.12 2.94,42.44 3.75,43.06 4.56,43.67 5.13,44.51 5.70,45.36 5.97,46.34 6.25,47.32 6.19,48.33 6.14,49.35 5.76,50.29 5.38,51.24 4.72,52.01 4.06,52.79 3.19,53.31 2.32,53.84 1.33,54.05 0.33,54.27 -0.67,54.16 -1.68,54.05 -2.60,53.63 -3.52,53.20 -4.26,52.50 -5.00,51.80 -5.48,50.90 -5.95,50.00 -6.12,49.00 -6.28,47.99 -6.28,47.99 -6.28,48 -6.21,44.88 -6.14,41.77 -6.07,38.77 -5.99,35.76 -5.84,32.74 -5.69,29.72 -5.50,27.27 -5.30,24.83 -5.13,21.26 -4.97,17.70 -4.98,14.79 -4.99,11.88 -4.98,9.10 -4.97,6.32 -5.03,3.16 -5.09,0 -5.01,-0.60 -4.94,-1.21 -4.72,-1.79 -4.51,-2.36 -4.16,-2.87 -3.81,-3.37 -3.35,-3.78 -2.89,-4.19 -2.34,-4.47 -1.80,-4.76 -1.20,-4.90 -0.61,-5.05 0.00,-5.05 0.61,-5.05 1.21,-4.90 1.80,-4.76 2.35,-4.47 2.89,-4.19 3.35,-3.78 3.81,-3.37 4.16,-2.87 4.51,-2.36 4.72,-1.79 4.94,-1.21 5.01,-0.60 5.09,0.00 5.09,0.00 L 5.09,0 Z"></path></g><g transform="translate(422.2024613174517 88) rotate(0 0 3)" stroke="none"><path fill="#1e1e1e" d="M 4.69,0 Q 4.69,0 4.80,3 4.91,6 4.78,6.78 4.65,7.56 4.28,8.27 3.91,8.97 3.33,9.52 2.75,10.06 2.03,10.40 1.31,10.73 0.52,10.82 -0.26,10.90 -1.04,10.73 -1.81,10.56 -2.50,10.15 -3.18,9.74 -3.69,9.14 -4.21,8.53 -4.50,7.79 -4.80,7.05 -4.84,6.26 -4.88,5.46 -4.67,4.70 -4.46,3.93 -4.01,3.27 -3.56,2.61 -2.93,2.13 -2.30,1.65 -1.54,1.40 -0.79,1.14 0.00,1.14 0.79,1.14 1.54,1.40 2.30,1.65 2.93,2.13 3.56,2.61 4.01,3.27 4.46,3.93 4.67,4.70 4.88,5.46 4.84,6.26 4.80,7.05 4.50,7.79 4.21,8.53 3.69,9.14 3.18,9.74 2.50,10.15 1.81,10.56 1.04,10.73 0.26,10.90 -0.52,10.82 -1.31,10.73 -2.03,10.40 -2.76,10.06 -3.33,9.52 -3.91,8.97 -4.28,8.27 -4.65,7.56 -4.78,6.78 -4.91,5.99 -4.91,5.99 -4.91,6 -4.80,3 -4.69,0 -4.62,-0.56 -4.55,-1.12 -4.35,-1.65 -4.15,-2.18 -3.83,-2.64 -3.51,-3.11 -3.08,-3.48 -2.66,-3.86 -2.16,-4.12 -1.66,-4.38 -1.11,-4.52 -0.56,-4.65 0.00,-4.65 0.56,-4.65 1.11,-4.52 1.66,-4.38 2.16,-4.12 2.66,-3.86 3.08,-3.48 3.51,-3.11 3.83,-2.64 4.15,-2.17 4.35,-1.65 4.55,-1.12 4.62,-0.56 4.69,0.00 4.69,0.00 L 4.69,0 Z"></path></g><g transform="translate(423.2024613174517 118) rotate(0 1.5 21)" stroke="none"><path fill="#1e1e1e" d="M 5.05,-0.91 Q 5.05,-0.91 5.55,2.25 6.05,5.43 6.60,9.31 7.16,13.19 7.42,15.62 7.68,18.05 7.86,20.56 8.04,23.07 8.69,25.52 9.33,27.97 9.45,30.11 9.57,32.25 9.61,34.98 9.66,37.71 9.25,40.08 8.84,42.45 8.59,43.53 8.34,44.61 7.75,45.55 7.17,46.50 6.32,47.21 5.46,47.91 4.43,48.31 3.39,48.71 2.28,48.76 1.17,48.81 0.11,48.50 -0.95,48.19 -1.86,47.55 -2.77,46.92 -3.43,46.03 -4.09,45.14 -4.43,44.08 -4.78,43.02 -4.76,41.92 -4.75,40.81 -4.38,39.76 -4.02,38.71 -3.34,37.84 -2.65,36.96 -1.73,36.35 -0.80,35.74 0.26,35.45 1.33,35.17 2.44,35.24 3.55,35.31 4.57,35.74 5.60,36.16 6.44,36.89 7.28,37.62 7.84,38.57 8.40,39.53 8.62,40.62 8.85,41.71 8.72,42.81 8.58,43.91 8.10,44.91 7.63,45.91 6.85,46.71 6.08,47.51 5.09,48.01 4.11,48.52 3.01,48.69 1.91,48.85 0.82,48.66 -0.26,48.47 -1.24,47.94 -2.21,47.41 -2.96,46.59 -3.72,45.78 -4.17,44.76 -4.63,43.75 -4.73,42.65 -4.84,41.54 -4.84,41.54 -4.84,41.54 -4.23,37.40 -3.62,33.26 -3.24,30.71 -2.87,28.15 -3.46,25.61 -4.04,23.07 -3.87,20.64 -3.70,18.20 -3.58,16.02 -3.47,13.84 -3.61,10.53 -3.75,7.21 -4.40,4.06 -5.05,0.91 -5.08,0.30 -5.12,-0.31 -5.01,-0.92 -4.90,-1.53 -4.64,-2.09 -4.39,-2.66 -4.00,-3.15 -3.62,-3.63 -3.13,-4.01 -2.65,-4.39 -2.08,-4.65 -1.52,-4.90 -0.91,-5.01 -0.30,-5.12 0.31,-5.08 0.93,-5.05 1.52,-4.86 2.11,-4.68 2.64,-4.35 3.17,-4.03 3.61,-3.59 4.04,-3.16 4.36,-2.63 4.68,-2.10 4.86,-1.50 5.05,-0.91 5.05,-0.91 L 5.05,-0.91 Z"></path></g><g transform="translate(514.2024613174517 88) rotate(0 0 4)" stroke="none"><path fill="#1e1e1e" d="M 4.79,0 Q 4.79,0 4.89,1.72 5.00,3.44 5.09,5.72 5.18,8 5.04,8.82 4.91,9.65 4.51,10.39 4.12,11.13 3.51,11.71 2.90,12.28 2.14,12.64 1.38,12.99 0.55,13.08 -0.28,13.17 -1.09,12.99 -1.91,12.81 -2.63,12.38 -3.35,11.94 -3.89,11.31 -4.44,10.67 -4.75,9.89 -5.06,9.11 -5.10,8.27 -5.15,7.43 -4.92,6.63 -4.70,5.82 -4.23,5.12 -3.76,4.43 -3.09,3.92 -2.42,3.42 -1.63,3.15 -0.83,2.88 0.00,2.88 0.83,2.88 1.63,3.15 2.42,3.42 3.09,3.92 3.76,4.43 4.23,5.13 4.70,5.82 4.92,6.63 5.15,7.44 5.10,8.27 5.06,9.11 4.74,9.89 4.43,10.67 3.89,11.31 3.35,11.95 2.63,12.38 1.91,12.81 1.09,12.99 0.27,13.17 -0.55,13.08 -1.38,12.99 -2.14,12.64 -2.90,12.28 -3.51,11.71 -4.12,11.13 -4.51,10.39 -4.91,9.65 -5.04,8.82 -5.18,7.99 -5.18,7.99 -5.18,8 -5.09,5.72 -5.00,3.44 -4.89,1.72 -4.79,0 -4.72,-0.57 -4.65,-1.14 -4.44,-1.68 -4.24,-2.22 -3.91,-2.70 -3.58,-3.17 -3.15,-3.56 -2.72,-3.94 -2.21,-4.21 -1.69,-4.48 -1.13,-4.61 -0.57,-4.75 0.00,-4.75 0.57,-4.75 1.13,-4.61 1.69,-4.48 2.21,-4.21 2.72,-3.94 3.15,-3.56 3.58,-3.17 3.91,-2.70 4.24,-2.22 4.44,-1.68 4.65,-1.14 4.72,-0.57 4.79,0.00 4.79,0.00 L 4.79,0 Z"></path></g><g transform="translate(507.2024613174517 136) rotate(0 17.5 11)" stroke="none"><path fill="#1e1e1e" d="M -3.69,-3.69 Q -3.69,-3.69 -1.66,-5.69 0.35,-7.69 2.22,-9.32 4.09,-10.95 6.05,-12.18 8.01,-13.41 10.84,-14.38 13.68,-15.35 16.95,-15.50 20.21,-15.65 22.77,-14.30 25.32,-12.96 27.33,-10.96 29.34,-8.96 31.02,-7.30 32.69,-5.63 34.77,-2.75 36.84,0.12 37.35,2.62 37.86,5.12 36.40,10.00 34.94,14.89 32.88,17.27 30.82,19.66 29.02,21.21 27.23,22.77 24.00,25.14 20.77,27.52 18.73,28.92 16.68,30.32 13.98,31.11 11.28,31.91 8.66,32.66 6.04,33.41 5.63,28.54 5.23,23.68 7.75,24.40 10.28,25.13 14.11,25.00 17.94,24.87 20.88,24.13 23.83,23.38 26.84,22.94 29.86,22.51 32.39,22.40 34.92,22.28 35.99,22.45 37.06,22.61 38.03,23.11 39.00,23.60 39.75,24.38 40.51,25.16 40.97,26.14 41.44,27.12 41.57,28.20 41.70,29.28 41.48,30.34 41.26,31.41 40.71,32.34 40.16,33.28 39.34,33.99 38.52,34.71 37.52,35.12 36.51,35.53 35.43,35.61 34.35,35.68 33.30,35.40 32.25,35.12 31.34,34.52 30.43,33.92 29.77,33.06 29.10,32.21 28.74,31.18 28.38,30.16 28.37,29.07 28.36,27.98 28.69,26.95 29.03,25.92 29.68,25.05 30.32,24.17 31.22,23.55 32.11,22.93 33.15,22.63 34.19,22.33 35.28,22.38 36.36,22.42 37.38,22.81 38.39,23.20 39.23,23.90 40.06,24.59 40.63,25.52 41.20,26.44 41.45,27.50 41.69,28.56 41.59,29.64 41.48,30.72 41.04,31.71 40.59,32.70 39.86,33.50 39.12,34.29 38.16,34.81 37.21,35.33 36.14,35.52 35.07,35.71 35.07,35.71 35.07,35.71 32.09,35.75 29.12,35.78 26.43,36.37 23.74,36.96 21.61,37.43 19.49,37.89 16.78,38.23 14.08,38.57 11.86,38.49 9.64,38.42 6.70,37.51 3.76,36.60 1.37,34.91 -1.00,33.22 -1.54,28.78 -2.07,24.34 1.58,22.26 5.24,20.18 8.39,19.36 11.54,18.55 14.04,16.97 16.54,15.38 19.15,13.36 21.77,11.33 23.47,9.20 25.17,7.06 24.78,4.94 24.38,2.82 22.74,1.23 21.09,-0.35 19.81,-2.33 18.53,-4.31 15.90,-4.12 13.28,-3.93 10.48,-2.14 7.69,-0.35 5.69,1.67 3.69,3.69 3.20,4.08 2.70,4.47 2.13,4.73 1.55,4.99 0.93,5.10 0.31,5.22 -0.31,5.18 -0.94,5.14 -1.54,4.95 -2.14,4.77 -2.68,4.44 -3.22,4.11 -3.67,3.67 -4.11,3.22 -4.44,2.68 -4.77,2.14 -4.95,1.54 -5.14,0.94 -5.18,0.31 -5.22,-0.31 -5.10,-0.93 -4.99,-1.55 -4.73,-2.13 -4.47,-2.70 -4.08,-3.20 -3.69,-3.69 -3.69,-3.69 L -3.69,-3.69 Z"></path></g><g transform="translate(570.2024613174517 10) rotate(0 -184.5 84.5)" stroke="none"><path fill="#1e1e1e" d="M 3.04,3.34 Q 3.04,3.34 -0.28,6.03 -3.61,8.72 -7.12,11.55 -10.63,14.38 -14.23,17.03 -17.83,19.68 -20.40,21.77 -22.96,23.86 -25.15,25.69 -27.33,27.52 -29.63,29.59 -31.93,31.67 -33.71,33.69 -35.49,35.72 -36.69,37.54 -37.89,39.36 -39.33,42.64 -40.77,45.92 -42.19,48.67 -43.60,51.42 -45.01,53.90 -46.42,56.37 -47.40,58.68 -48.38,60.98 -49.54,63.75 -50.71,66.52 -50.43,69.17 -50.14,71.82 -50.78,75.12 -51.43,78.43 -52.24,81.60 -53.06,84.78 -53.48,87.17 -53.90,89.55 -54.94,92.28 -55.98,95.00 -56.86,97.09 -57.74,99.19 -58.88,101.33 -60.03,103.48 -61.02,106.84 -62.01,110.20 -63.82,112.86 -65.63,115.52 -67.24,117.25 -68.85,118.98 -72.14,120.96 -75.42,122.94 -79.57,123.85 -83.72,124.76 -87.04,124.88 -90.35,125.01 -92.56,124.96 -94.76,124.91 -97.77,124.91 -100.77,124.90 -103.36,124.91 -105.96,124.92 -108.60,124.93 -111.23,124.93 -114.55,124.48 -117.87,124.04 -119.98,123.41 -122.08,122.79 -124.46,121.40 -126.83,120.00 -129.49,117.95 -132.16,115.90 -134.56,112.98 -136.96,110.07 -138.42,108.20 -139.87,106.32 -141.20,103.71 -142.52,101.10 -144.10,98.00 -145.69,94.91 -147.21,91.89 -148.73,88.86 -149.93,86.70 -151.14,84.53 -152.26,82.59 -153.38,80.65 -154.56,77.86 -155.75,75.07 -156.88,73.22 -158.02,71.38 -158.97,68.97 -159.93,66.56 -160.88,63.82 -161.82,61.08 -163.33,58.79 -164.85,56.50 -166.38,54.26 -167.92,52.02 -170.51,49.33 -173.10,46.63 -176.30,44.10 -179.50,41.57 -182.58,39.84 -185.66,38.11 -188.53,37.04 -191.40,35.96 -193.47,34.96 -195.54,33.96 -198.77,32.52 -202.00,31.09 -205.65,30.45 -209.30,29.80 -212.95,29.57 -216.59,29.33 -220.08,29.31 -223.57,29.28 -225.70,29.26 -227.83,29.23 -232.20,29.19 -236.58,29.14 -238.71,29.13 -240.84,29.12 -243.18,29.09 -245.53,29.06 -249.60,29.66 -253.67,30.26 -256.74,30.64 -259.81,31.02 -263.14,32.50 -266.46,33.98 -268.57,35.08 -270.68,36.17 -272.86,38.43 -275.05,40.68 -276.85,42.01 -278.65,43.34 -280.40,44.67 -282.15,45.99 -283.70,47.52 -285.25,49.04 -287.19,51.02 -289.13,53.00 -291.45,55.35 -293.77,57.71 -295.26,59.63 -296.75,61.55 -299.19,64.25 -301.62,66.96 -303.01,69.57 -304.40,72.19 -306.44,74.37 -308.49,76.55 -309.97,78.72 -311.45,80.90 -312.93,83.16 -314.41,85.43 -315.62,87.25 -316.82,89.07 -318.21,91.60 -319.59,94.13 -320.98,95.83 -322.37,97.54 -323.42,100.57 -324.46,103.60 -325.97,106.32 -327.49,109.05 -329.16,111.55 -330.83,114.06 -332.26,116.72 -333.68,119.38 -335.72,122.47 -337.77,125.56 -339.35,128.39 -340.94,131.21 -343.37,135.26 -345.80,139.31 -348.16,143.58 -350.52,147.86 -352.02,150.58 -353.53,153.31 -355.86,156.83 -358.19,160.35 -358.96,162.39 -359.73,164.44 -361.77,166.91 -363.81,169.38 -364.09,169.98 -364.37,170.58 -365.06,171.03 -365.75,171.47 -366.53,171.74 -367.31,172.01 -368.12,172.08 -368.94,172.15 -369.75,172.03 -370.57,171.90 -371.32,171.59 -372.08,171.27 -372.74,170.79 -373.40,170.30 -373.93,169.67 -374.45,169.04 -374.81,168.30 -375.17,167.56 -375.34,166.76 -375.51,165.95 -375.48,165.13 -375.46,164.31 -375.24,163.52 -375.01,162.73 -374.61,162.02 -374.21,161.30 -373.64,160.71 -373.08,160.11 -369.29,159.62 -365.50,159.12 -364.96,160.73 -364.41,162.33 -363.64,162.62 -362.87,162.91 -362.18,163.37 -361.50,163.83 -360.95,164.44 -360.40,165.06 -360.01,165.79 -359.62,166.51 -359.41,167.31 -359.21,168.11 -359.20,168.94 -359.19,169.76 -359.38,170.56 -359.57,171.37 -359.95,172.10 -360.33,172.83 -360.87,173.46 -361.41,174.08 -362.09,174.55 -362.76,175.03 -363.53,175.33 -364.30,175.63 -365.12,175.73 -365.94,175.84 -366.76,175.75 -367.58,175.66 -364.12,174.47 -360.66,173.29 -361.49,174.03 -362.31,174.77 -363.33,175.20 -364.35,175.64 -365.45,175.73 -366.56,175.82 -367.63,175.55 -368.71,175.28 -369.64,174.68 -370.57,174.09 -371.26,173.22 -371.96,172.36 -372.34,171.32 -372.72,170.28 -372.75,169.17 -372.78,168.06 -372.45,167.01 -372.12,165.95 -371.48,165.05 -370.83,164.15 -369.93,163.50 -369.03,162.86 -367.97,162.54 -366.91,162.21 -365.81,162.24 -364.70,162.27 -363.66,162.66 -362.62,163.04 -361.76,163.73 -360.90,164.43 -360.30,165.36 -359.70,166.30 -359.44,167.37 -359.17,168.45 -359.26,169.55 -359.35,170.65 -359.79,171.67 -360.23,172.69 -360.97,173.51 -361.71,174.33 -362.68,174.88 -363.64,175.42 -364.73,175.63 -365.82,175.84 -366.91,175.69 -368.01,175.54 -369.00,175.04 -369.99,174.55 -370.78,173.77 -371.56,172.98 -372.05,171.99 -372.54,171.00 -372.69,169.90 -372.84,168.80 -372.63,167.71 -372.42,166.63 -368.42,164.48 -364.42,162.33 -363.64,162.62 -362.87,162.91 -362.18,163.37 -361.50,163.83 -360.95,164.44 -360.40,165.06 -360.01,165.78 -359.62,166.51 -359.41,167.31 -359.21,168.11 -359.20,168.94 -359.19,169.76 -359.38,170.56 -359.57,171.37 -359.95,172.10 -360.33,172.83 -360.87,173.46 -361.41,174.08 -362.09,174.55 -362.76,175.03 -363.53,175.33 -364.30,175.63 -365.12,175.73 -365.94,175.84 -366.76,175.75 -367.58,175.66 -368.19,173.99 -368.81,172.32 -366.59,171.45 -364.37,170.58 -365.06,171.03 -365.75,171.47 -366.53,171.74 -367.31,172.01 -368.12,172.08 -368.94,172.15 -369.75,172.03 -370.56,171.90 -371.32,171.59 -372.08,171.27 -372.74,170.79 -373.40,170.30 -373.93,169.67 -374.45,169.04 -374.81,168.30 -375.17,167.56 -375.34,166.76 -375.51,165.95 -375.48,165.13 -375.46,164.31 -375.24,163.52 -375.01,162.73 -374.61,162.02 -374.21,161.30 -373.64,160.71 -373.08,160.11 -373.30,160.53 -373.53,160.96 -372.01,158.95 -370.50,156.95 -368.75,154.23 -367.00,151.50 -365.77,149.36 -364.54,147.21 -363.04,144.76 -361.54,142.31 -360.34,139.59 -359.13,136.87 -356.97,133.10 -354.82,129.33 -353.15,125.69 -351.49,122.06 -350.42,120.04 -349.34,118.02 -347.57,115.16 -345.80,112.31 -344.23,109.25 -342.66,106.20 -341.39,104.30 -340.12,102.41 -338.95,100.26 -337.78,98.12 -336.66,95.68 -335.54,93.25 -334.26,90.79 -332.99,88.32 -331.73,85.88 -330.47,83.43 -328.89,81.31 -327.30,79.20 -326.07,77.21 -324.85,75.23 -322.72,73.01 -320.60,70.79 -319.41,68.80 -318.22,66.81 -316.67,64.70 -315.12,62.59 -313.97,60.54 -312.82,58.49 -310.45,55.87 -308.08,53.25 -305.89,50.51 -303.70,47.77 -301.35,45.45 -298.99,43.12 -296.90,41.11 -294.82,39.10 -293.05,37.49 -291.29,35.87 -289.13,34.33 -286.97,32.79 -284.52,31.21 -282.06,29.64 -280.18,27.72 -278.29,25.80 -276.08,24.75 -273.87,23.69 -271.24,22.51 -268.61,21.32 -264.60,20.04 -260.59,18.75 -258.23,18.64 -255.87,18.52 -253.48,18.07 -251.10,17.63 -248.32,17.28 -245.53,16.93 -243.19,16.90 -240.84,16.87 -238.70,16.86 -236.57,16.85 -232.18,16.81 -227.80,16.78 -223.92,16.80 -220.05,16.82 -216.12,16.96 -212.18,17.10 -209.68,17.29 -207.18,17.49 -204.58,17.85 -201.98,18.22 -197.62,19.58 -193.26,20.94 -190.36,22.30 -187.45,23.66 -184.08,24.94 -180.71,26.23 -178.24,27.29 -175.78,28.35 -173.97,29.52 -172.16,30.69 -169.70,32.25 -167.24,33.80 -165.30,35.34 -163.36,36.89 -160.66,39.48 -157.96,42.08 -155.59,45.12 -153.22,48.15 -151.37,51.00 -149.52,53.85 -148.07,57.26 -146.63,60.67 -145.70,62.92 -144.77,65.17 -143.52,68.05 -142.27,70.93 -141.26,72.91 -140.26,74.88 -138.53,77.55 -136.80,80.21 -135.93,82.63 -135.07,85.05 -133.21,88.93 -131.35,92.82 -129.94,95.27 -128.52,97.73 -126.97,100.58 -125.42,103.42 -122.72,105.58 -120.01,107.74 -116.93,109.41 -113.86,111.08 -111.36,111.08 -108.86,111.07 -106.03,111.07 -103.21,111.06 -100.52,111.06 -97.83,111.06 -94.25,110.96 -90.68,110.86 -88.16,110.73 -85.64,110.61 -83.36,110.09 -81.07,109.56 -79.05,108.22 -77.02,106.87 -75.72,105.05 -74.42,103.23 -73.85,100.79 -73.28,98.34 -72.00,95.38 -70.71,92.41 -69.34,89.69 -67.96,86.98 -67.35,83.81 -66.73,80.64 -65.70,78.13 -64.67,75.62 -64.23,72.84 -63.79,70.06 -63.61,67.48 -63.43,64.91 -62.29,62.31 -61.16,59.72 -60.56,57.61 -59.96,55.51 -58.53,52.59 -57.10,49.68 -55.59,47.28 -54.09,44.88 -52.17,42.40 -50.25,39.91 -49.07,37.31 -47.88,34.70 -46.40,32.92 -44.92,31.14 -42.96,29.15 -40.99,27.17 -38.89,25.68 -36.79,24.20 -34.39,22.80 -31.98,21.40 -29.64,19.80 -27.31,18.20 -24.65,16.28 -21.99,14.36 -18.72,11.63 -15.44,8.90 -12.23,5.83 -9.03,2.77 -6.03,-0.28 -3.04,-3.34 -2.59,-3.65 -2.15,-3.97 -1.64,-4.17 -1.13,-4.37 -0.59,-4.44 -0.05,-4.51 0.48,-4.46 1.02,-4.40 1.53,-4.21 2.04,-4.02 2.50,-3.72 2.95,-3.42 3.32,-3.01 3.68,-2.61 3.94,-2.13 4.20,-1.65 4.34,-1.12 4.47,-0.60 4.48,-0.05 4.49,0.48 4.37,1.01 4.24,1.54 3.99,2.03 3.75,2.52 3.39,2.93 3.04,3.34 3.04,3.34 L 3.04,3.34 Z"></path></g><g transform="translate(291.2024613174517 54) rotate(0 -0.5 13.5)" stroke="none"><path fill="#e03131" d="M 4.98,0.41 Q 4.98,0.41 4.58,3.85 4.19,7.29 4.08,10.10 3.97,12.90 3.99,15.24 4.01,17.58 4.16,20.10 4.31,22.62 4.36,24.82 4.40,27.01 4.26,27.87 4.12,28.73 3.70,29.51 3.29,30.28 2.66,30.88 2.02,31.48 1.22,31.84 0.43,32.21 -0.43,32.30 -1.30,32.39 -2.16,32.20 -3.01,32.01 -3.76,31.56 -4.51,31.11 -5.07,30.44 -5.64,29.77 -5.96,28.96 -6.28,28.14 -6.32,27.27 -6.37,26.40 -6.13,25.55 -5.90,24.71 -5.40,23.99 -4.91,23.27 -4.21,22.74 -3.52,22.21 -2.69,21.93 -1.86,21.66 -0.98,21.66 -0.11,21.66 0.71,21.94 1.54,22.22 2.24,22.75 2.93,23.29 3.42,24.01 3.91,24.74 4.14,25.58 4.37,26.42 4.32,27.30 4.27,28.17 3.95,28.98 3.62,29.80 3.05,30.46 2.49,31.13 1.73,31.58 0.98,32.02 0.13,32.21 -0.72,32.40 -1.59,32.30 -2.46,32.20 -3.25,31.83 -4.04,31.46 -4.68,30.86 -5.31,30.26 -5.72,29.48 -6.12,28.71 -6.26,27.84 -6.40,26.98 -6.40,26.98 -6.40,26.98 -6.34,24.75 -6.29,22.52 -6.07,19.94 -5.86,17.36 -5.74,14.93 -5.61,12.50 -5.48,9.50 -5.34,6.50 -5.16,3.04 -4.98,-0.41 -4.86,-1.00 -4.74,-1.59 -4.48,-2.14 -4.22,-2.68 -3.83,-3.15 -3.45,-3.61 -2.97,-3.97 -2.48,-4.33 -1.93,-4.57 -1.37,-4.80 -0.78,-4.90 -0.18,-4.99 0.41,-4.94 1.01,-4.89 1.58,-4.70 2.15,-4.51 2.66,-4.19 3.17,-3.86 3.59,-3.43 4.00,-2.99 4.30,-2.47 4.60,-1.94 4.77,-1.36 4.94,-0.78 4.96,-0.18 4.98,0.41 4.98,0.41 L 4.98,0.41 Z"></path></g><g transform="translate(310.2024613174517 49) rotate(0 1 19.5)" stroke="none"><path fill="#e03131" d="M 4.87,-0.40 Q 4.87,-0.40 5.06,3.05 5.25,6.51 5.35,9.80 5.45,13.10 5.45,16.52 5.45,19.95 5.47,23.12 5.49,26.30 5.60,28.51 5.72,30.72 6.26,33.83 6.81,36.95 7.01,37.77 7.21,38.59 7.14,39.44 7.07,40.28 6.73,41.06 6.39,41.83 5.82,42.46 5.25,43.09 4.52,43.50 3.78,43.92 2.94,44.07 2.11,44.23 1.27,44.11 0.44,43.99 -0.31,43.61 -1.07,43.23 -1.66,42.63 -2.26,42.03 -2.63,41.27 -3.01,40.51 -3.12,39.67 -3.23,38.83 -3.06,38.00 -2.90,37.17 -2.48,36.43 -2.06,35.70 -1.43,35.13 -0.79,34.57 -0.01,34.24 0.76,33.91 1.60,33.85 2.45,33.78 3.27,33.99 4.09,34.20 4.80,34.66 5.51,35.12 6.04,35.78 6.56,36.44 6.85,37.24 7.14,38.03 7.16,38.88 7.18,39.73 6.92,40.54 6.67,41.34 6.17,42.03 5.68,42.71 4.99,43.20 4.30,43.70 3.49,43.94 2.68,44.18 1.83,44.16 0.98,44.13 0.19,43.83 -0.59,43.54 -1.25,43.00 -1.91,42.47 -2.36,41.75 -2.81,41.04 -2.81,41.04 -2.81,41.04 -3.28,35.90 -3.75,30.76 -3.65,28.56 -3.55,26.36 -3.58,23.22 -3.61,20.08 -3.71,16.77 -3.81,13.46 -3.96,10.37 -4.10,7.28 -4.49,3.84 -4.87,0.40 -4.85,-0.18 -4.83,-0.77 -4.66,-1.33 -4.50,-1.90 -4.21,-2.41 -3.91,-2.92 -3.51,-3.35 -3.10,-3.78 -2.60,-4.09 -2.10,-4.41 -1.54,-4.60 -0.99,-4.79 -0.40,-4.83 0.18,-4.88 0.76,-4.79 1.34,-4.70 1.89,-4.47 2.43,-4.24 2.90,-3.88 3.38,-3.53 3.75,-3.08 4.12,-2.62 4.38,-2.09 4.63,-1.56 4.75,-0.98 4.87,-0.40 4.87,-0.40 L 4.87,-0.40 Z"></path></g><g transform="translate(347.2024613174517 49) rotate(0 1.5 21)" stroke="none"><path fill="#e03131" d="M 4.90,-0.98 Q 4.90,-0.98 5.47,1.89 6.03,4.77 6.33,7.69 6.64,10.60 7.00,13.35 7.37,16.10 7.58,18.93 7.79,21.76 7.86,24.71 7.92,27.65 7.97,30.34 8.03,33.02 8.09,35.31 8.16,37.60 8.25,39.79 8.34,41.97 8.20,42.83 8.07,43.68 7.67,44.45 7.26,45.21 6.64,45.81 6.01,46.41 5.23,46.77 4.45,47.14 3.59,47.24 2.73,47.33 1.88,47.15 1.04,46.97 0.29,46.53 -0.44,46.08 -1.00,45.43 -1.56,44.77 -1.89,43.97 -2.21,43.17 -2.26,42.30 -2.31,41.44 -2.08,40.61 -1.86,39.77 -1.37,39.05 -0.89,38.34 -0.20,37.81 0.47,37.28 1.29,37.00 2.11,36.72 2.97,36.72 3.84,36.72 4.66,36.99 5.48,37.26 6.17,37.78 6.86,38.30 7.35,39.02 7.84,39.73 8.07,40.56 8.31,41.40 8.26,42.26 8.22,43.12 7.90,43.93 7.59,44.73 7.03,45.39 6.47,46.05 5.73,46.50 4.99,46.95 4.15,47.14 3.31,47.33 2.45,47.24 1.59,47.15 0.80,46.79 0.01,46.43 -0.61,45.84 -1.24,45.25 -1.65,44.48 -2.05,43.72 -2.20,42.87 -2.34,42.02 -2.34,42.02 -2.34,42.02 -2.27,39.84 -2.20,37.66 -2.16,35.40 -2.11,33.14 -2.12,30.52 -2.13,27.90 -2.21,25.15 -2.28,22.39 -2.41,19.92 -2.53,17.45 -2.94,14.49 -3.36,11.52 -3.54,9.12 -3.73,6.72 -4.32,3.85 -4.90,0.98 -4.95,0.38 -5.00,-0.22 -4.90,-0.81 -4.80,-1.41 -4.56,-1.96 -4.32,-2.52 -3.96,-3.00 -3.59,-3.48 -3.12,-3.86 -2.65,-4.24 -2.11,-4.49 -1.56,-4.75 -0.97,-4.87 -0.38,-4.99 0.22,-4.96 0.82,-4.93 1.40,-4.76 1.98,-4.59 2.50,-4.29 3.02,-3.99 3.45,-3.57 3.89,-3.15 4.21,-2.63 4.53,-2.12 4.72,-1.55 4.91,-0.98 4.91,-0.98 L 4.90,-0.98 Z"></path></g><g transform="translate(370.2024613174517 53) rotate(0 1 9.5)" stroke="none"><path fill="#e03131" d="M 5.13,-0.57 Q 5.13,-0.57 5.44,2.01 5.74,4.60 6.09,7.73 6.43,10.87 6.64,13.26 6.84,15.64 7.26,16.44 7.68,17.24 7.82,18.19 7.95,19.14 7.77,20.09 7.59,21.04 7.12,21.88 6.64,22.72 5.93,23.36 5.21,24.01 4.33,24.39 3.44,24.77 2.48,24.85 1.52,24.93 0.59,24.70 -0.34,24.47 -1.15,23.95 -1.96,23.44 -2.57,22.69 -3.17,21.94 -3.51,21.03 -3.84,20.13 -3.87,19.16 -3.90,18.20 -3.62,17.28 -3.33,16.36 -2.77,15.58 -2.21,14.79 -1.43,14.23 -0.65,13.66 0.26,13.38 1.18,13.10 2.14,13.12 3.11,13.14 4.01,13.48 4.92,13.81 5.67,14.41 6.42,15.01 6.94,15.82 7.46,16.63 7.70,17.57 7.93,18.50 7.85,19.46 7.78,20.42 7.40,21.31 7.02,22.19 6.38,22.91 5.73,23.63 4.90,24.11 4.06,24.58 3.11,24.76 2.17,24.95 1.21,24.82 0.26,24.69 -0.60,24.26 -1.46,23.84 -2.14,23.16 -2.83,22.48 -3.26,21.61 -3.68,20.75 -3.68,20.75 -3.68,20.75 -4.27,18.30 -4.85,15.84 -4.72,13.58 -4.59,11.32 -4.59,8.53 -4.59,5.74 -4.86,3.16 -5.13,0.57 -5.13,-0.05 -5.12,-0.67 -4.97,-1.27 -4.81,-1.88 -4.52,-2.43 -4.22,-2.98 -3.80,-3.44 -3.38,-3.90 -2.87,-4.25 -2.35,-4.60 -1.77,-4.81 -1.18,-5.03 -0.56,-5.10 0.05,-5.17 0.67,-5.08 1.28,-5.00 1.86,-4.78 2.44,-4.55 2.95,-4.19 3.46,-3.83 3.87,-3.36 4.28,-2.89 4.56,-2.33 4.85,-1.78 4.99,-1.17 5.13,-0.57 5.13,-0.57 L 5.13,-0.57 Z"></path></g><g transform="translate(527.2024613174517 52) rotate(0 3.5 13)" stroke="none"><path fill="#e03131" d="M 4.62,-1.68 Q 4.62,-1.68 5.70,1.50 6.77,4.69 7.81,7.81 8.84,10.93 9.46,13.37 10.08,15.80 10.80,18.71 11.51,21.63 11.89,23.32 12.28,25.02 12.30,25.89 12.31,26.76 12.05,27.59 11.79,28.42 11.28,29.12 10.76,29.82 10.05,30.33 9.34,30.83 8.51,31.08 7.68,31.32 6.81,31.29 5.94,31.26 5.13,30.96 4.31,30.65 3.64,30.10 2.97,29.55 2.50,28.81 2.04,28.08 1.84,27.23 1.64,26.39 1.71,25.52 1.79,24.66 2.14,23.86 2.49,23.07 3.08,22.42 3.66,21.78 4.42,21.36 5.18,20.94 6.04,20.78 6.89,20.62 7.75,20.75 8.61,20.87 9.39,21.26 10.16,21.66 10.77,22.28 11.38,22.90 11.76,23.68 12.14,24.46 12.25,25.32 12.36,26.18 12.19,27.04 12.02,27.89 11.59,28.64 11.16,29.40 10.50,29.97 9.85,30.55 9.05,30.88 8.25,31.22 7.38,31.28 6.52,31.35 5.67,31.13 4.83,30.91 4.10,30.44 3.37,29.96 2.84,29.28 2.30,28.60 2.00,27.78 1.71,26.96 1.71,26.97 1.71,26.97 1.20,23.94 0.68,20.91 0.34,17.45 0.00,13.98 -1.08,10.97 -2.17,7.95 -3.40,4.81 -4.62,1.68 -4.76,1.10 -4.89,0.52 -4.88,-0.06 -4.88,-0.66 -4.73,-1.23 -4.58,-1.80 -4.29,-2.33 -4.01,-2.85 -3.61,-3.29 -3.21,-3.73 -2.72,-4.06 -2.22,-4.39 -1.67,-4.59 -1.11,-4.79 -0.52,-4.86 0.06,-4.92 0.65,-4.84 1.24,-4.76 1.79,-4.54 2.34,-4.32 2.83,-3.98 3.31,-3.64 3.70,-3.19 4.09,-2.74 4.36,-2.21 4.62,-1.68 4.62,-1.68 L 4.62,-1.68 Z"></path></g><g transform="translate(557.2024613174517 23) rotate(0 2.5 26.5)" stroke="none"><path fill="#e03131" d="M 4.47,-0.95 Q 4.47,-0.95 5.12,3.11 5.77,7.18 6.15,10.83 6.54,14.48 6.51,19.26 6.48,24.04 6.53,27.76 6.59,31.47 6.72,34.50 6.85,37.52 7.16,40.45 7.47,43.39 8.69,47.44 9.90,51.50 10.01,52.32 10.12,53.14 9.97,53.96 9.81,54.77 9.40,55.50 8.99,56.22 8.37,56.77 7.75,57.32 6.99,57.65 6.22,57.98 5.40,58.04 4.57,58.11 3.76,57.91 2.96,57.71 2.26,57.26 1.56,56.81 1.04,56.16 0.52,55.51 0.24,54.73 -0.04,53.95 -0.06,53.12 -0.08,52.29 0.16,51.50 0.40,50.70 0.89,50.03 1.37,49.36 2.05,48.88 2.72,48.39 3.52,48.15 4.31,47.91 5.14,47.93 5.97,47.96 6.75,48.25 7.53,48.53 8.18,49.05 8.82,49.58 9.27,50.28 9.71,50.98 9.91,51.78 10.11,52.59 10.04,53.42 9.97,54.24 9.64,55.01 9.31,55.77 8.76,56.39 8.20,57.00 7.48,57.41 6.75,57.82 5.94,57.97 5.12,58.13 4.30,58.01 3.48,57.90 2.73,57.53 1.99,57.16 1.41,56.57 0.82,55.98 0.45,55.23 0.09,54.49 0.09,54.49 0.09,54.49 -0.56,52.01 -1.21,49.53 -1.35,46.48 -1.48,43.43 -1.21,40.51 -0.93,37.59 -0.86,34.60 -0.78,31.61 -0.86,27.95 -0.94,24.29 -1.28,19.82 -1.62,15.35 -1.97,12.13 -2.32,8.91 -3.39,4.93 -4.47,0.95 -4.52,0.40 -4.57,-0.13 -4.49,-0.68 -4.40,-1.23 -4.19,-1.73 -3.98,-2.24 -3.65,-2.69 -3.33,-3.13 -2.90,-3.49 -2.48,-3.84 -1.98,-4.08 -1.49,-4.32 -0.95,-4.44 -0.41,-4.55 0.13,-4.54 0.69,-4.52 1.22,-4.37 1.75,-4.22 2.23,-3.95 2.71,-3.68 3.11,-3.30 3.51,-2.92 3.81,-2.46 4.11,-2.00 4.29,-1.47 4.47,-0.95 4.47,-0.95 L 4.47,-0.95 Z"></path></g><g transform="translate(569.2024613174517 21) rotate(0 3 30.5)" stroke="none"><path fill="#e03131" d="M 4.55,-0.91 Q 4.55,-0.91 5.14,1.96 5.74,4.83 6.06,9.11 6.39,13.40 6.99,17.33 7.60,21.27 7.98,24.90 8.37,28.52 8.61,31.51 8.86,34.50 9.03,37.23 9.20,39.95 9.49,42.99 9.79,46.03 10.04,48.56 10.29,51.08 10.53,53.67 10.76,56.25 11.36,58.49 11.95,60.72 11.84,61.68 11.73,62.64 11.32,63.51 10.90,64.38 10.24,65.08 9.57,65.77 8.71,66.22 7.85,66.66 6.90,66.81 5.95,66.96 5.00,66.80 4.04,66.63 3.20,66.17 2.35,65.71 1.69,65.01 1.03,64.30 0.63,63.42 0.23,62.54 0.14,61.58 0.04,60.62 0.26,59.68 0.47,58.74 0.98,57.92 1.48,57.10 2.22,56.48 2.96,55.86 3.86,55.51 4.76,55.16 5.72,55.11 6.69,55.07 7.62,55.34 8.54,55.60 9.34,56.15 10.13,56.70 10.71,57.47 11.29,58.24 11.59,59.16 11.89,60.08 11.88,61.04 11.87,62.01 11.56,62.92 11.24,63.83 10.65,64.60 10.06,65.36 9.26,65.89 8.45,66.43 7.52,66.68 6.59,66.93 5.63,66.87 4.66,66.81 3.77,66.44 2.88,66.08 2.15,65.45 1.42,64.82 0.93,63.99 0.44,63.16 0.24,62.21 0.04,61.27 0.04,61.27 0.04,61.27 0.85,61.58 1.66,61.88 0.44,59.07 -0.76,56.25 -0.53,53.67 -0.29,51.10 -0.06,48.60 0.17,46.11 0.39,43.13 0.61,40.15 0.66,37.53 0.70,34.91 0.66,32.10 0.62,29.29 0.32,26.03 0.02,22.77 -0.96,18.63 -1.96,14.48 -2.70,10.57 -3.44,6.66 -3.99,3.78 -4.55,0.91 -4.59,0.35 -4.63,-0.20 -4.54,-0.75 -4.45,-1.30 -4.23,-1.82 -4.01,-2.33 -3.67,-2.78 -3.33,-3.23 -2.90,-3.58 -2.46,-3.93 -1.95,-4.17 -1.45,-4.41 -0.90,-4.52 -0.35,-4.63 0.20,-4.60 0.76,-4.58 1.30,-4.42 1.83,-4.26 2.32,-3.98 2.80,-3.70 3.20,-3.31 3.60,-2.92 3.90,-2.44 4.20,-1.97 4.37,-1.44 4.55,-0.91 4.55,-0.91 L 4.55,-0.91 Z"></path></g><g transform="translate(428.2024613174517 87) rotate(0 -3.5 8)" stroke="none"><path fill="#e03131" d="M 0.85,5.15 Q 0.85,5.15 -0.84,5.51 -2.53,5.87 -2.23,8.14 -1.92,10.41 -4.52,9.84 -7.12,9.27 -6.24,6.83 -5.36,4.39 -5.66,7.02 -5.96,9.65 -6.58,8.73 -7.19,7.82 -7.48,6.75 -7.77,5.69 -7.70,4.59 -7.63,3.49 -7.22,2.47 -6.81,1.45 -6.09,0.62 -5.37,-0.21 -4.42,-0.77 -3.48,-1.33 -2.40,-1.56 -1.32,-1.79 -0.23,-1.67 0.85,-1.54 1.85,-1.07 2.85,-0.61 3.64,0.15 4.44,0.91 4.95,1.88 5.46,2.86 5.63,3.95 5.80,5.04 5.62,6.12 5.43,7.21 4.91,8.18 4.39,9.15 3.58,9.90 2.78,10.65 1.78,11.11 0.78,11.56 -0.31,11.68 -1.40,11.79 -2.48,11.55 -3.55,11.30 -4.49,10.73 -5.43,10.16 -6.14,9.31 -6.85,8.47 -7.25,7.44 -7.65,6.42 -7.70,5.32 -7.76,4.22 -7.46,3.16 -7.15,2.10 -6.53,1.19 -5.91,0.28 -5.03,-0.37 -4.15,-1.03 -3.10,-1.37 -2.06,-1.72 -0.95,-1.71 0.14,-1.70 1.18,-1.35 2.22,-0.99 3.09,-0.32 3.96,0.34 3.96,0.34 3.96,0.34 4.69,6.24 5.43,12.14 3.74,15.48 2.05,18.82 -0.22,20.08 -2.51,21.34 -4.69,21.60 -6.87,21.85 -9.04,20.51 -11.22,19.17 -12.50,17.11 -13.78,15.04 -13.91,12.69 -14.04,10.34 -13.74,6.56 -13.44,2.79 -11.79,0.25 -10.14,-2.28 -7.25,-3.50 -4.36,-4.72 -2.60,-4.93 -0.85,-5.15 -0.22,-5.17 0.39,-5.20 1.01,-5.08 1.63,-4.96 2.20,-4.69 2.77,-4.42 3.26,-4.02 3.75,-3.63 4.13,-3.13 4.51,-2.62 4.76,-2.05 5.01,-1.47 5.11,-0.85 5.21,-0.23 5.16,0.39 5.12,1.02 4.92,1.62 4.72,2.22 4.39,2.75 4.05,3.28 3.60,3.72 3.15,4.16 2.61,4.48 2.06,4.79 1.46,4.97 0.85,5.15 0.85,5.15 L 0.85,5.15 Z"></path></g><g transform="translate(513.2024613174517 92) rotate(0 0 -1.5)" stroke="none"><path fill="#e03131" d="M -4.08,3.06 Q -4.08,3.06 -5.00,1.99 -5.91,0.91 -3.19,0.25 -0.47,-0.40 -0.80,-2.59 -1.13,-4.78 -0.56,-2.64 0.00,-0.51 1.20,0.72 2.40,1.96 1.36,2.35 0.32,2.74 -0.78,2.77 -1.90,2.81 -2.96,2.49 -4.02,2.16 -4.93,1.52 -5.84,0.87 -6.49,-0.02 -7.14,-0.92 -7.47,-1.98 -7.80,-3.04 -7.78,-4.15 -7.75,-5.26 -7.37,-6.31 -6.99,-7.35 -6.30,-8.22 -5.60,-9.09 -4.67,-9.70 -3.73,-10.30 -2.66,-10.57 -1.58,-10.84 -0.47,-10.76 0.63,-10.67 1.65,-10.24 2.67,-9.80 3.50,-9.06 4.34,-8.32 4.89,-7.36 5.44,-6.39 5.65,-5.30 5.86,-4.21 5.72,-3.10 5.57,-2.00 5.08,-1.00 4.59,-0.01 3.81,0.77 3.03,1.56 2.03,2.06 1.04,2.56 -0.05,2.71 -1.16,2.87 -2.25,2.66 -3.34,2.45 -4.31,1.91 -5.28,1.37 -6.03,0.54 -6.77,-0.27 -7.22,-1.29 -7.66,-2.31 -7.75,-3.42 -7.85,-4.53 -7.58,-5.61 -7.32,-6.69 -6.72,-7.63 -6.13,-8.57 -5.26,-9.27 -4.40,-9.97 -4.40,-9.96 -4.40,-9.96 0.28,-10.75 4.98,-11.54 7.90,-9.77 10.83,-8.00 11.68,-5.79 12.54,-3.59 12.25,-0.88 11.95,1.82 9.47,4.58 6.99,7.34 4.11,7.81 1.24,8.27 -1.18,7.96 -3.62,7.64 -6.30,5.92 -8.99,4.21 -10.25,1.21 -11.50,-1.77 -10.12,-4.70 -8.73,-7.63 -6.60,-8.29 -4.47,-8.96 -1.00,-7.24 2.46,-5.51 3.27,-4.29 4.08,-3.06 4.39,-2.53 4.70,-1.99 4.87,-1.40 5.04,-0.81 5.07,-0.19 5.09,0.41 4.97,1.01 4.84,1.62 4.58,2.17 4.31,2.73 3.92,3.21 3.53,3.68 3.04,4.05 2.55,4.42 1.98,4.67 1.41,4.91 0.80,5.00 0.20,5.10 -0.41,5.05 -1.02,5.00 -1.61,4.81 -2.19,4.61 -2.71,4.28 -3.23,3.95 -3.66,3.51 -4.08,3.06 -4.08,3.06 L -4.08,3.06 Z"></path></g><g transform="translate(251.2024613174517 84) rotate(0 1.5 6.5)" stroke="none"><path fill="#e03131" d="M 4.27,2.84 Q 4.27,2.84 3.16,4.62 2.06,6.39 -0.13,6.57 -2.34,6.74 -1.53,4.12 -0.73,1.51 0.34,-0.73 1.43,-2.97 1.93,-3.60 2.43,-4.23 3.06,-4.72 3.70,-5.21 4.43,-5.54 5.17,-5.86 5.96,-6.00 6.75,-6.14 7.55,-6.09 8.35,-6.03 9.12,-5.79 9.88,-5.54 10.57,-5.12 11.25,-4.70 11.82,-4.13 12.38,-3.56 12.79,-2.87 13.20,-2.18 13.44,-1.41 13.67,-0.64 13.71,0.15 13.76,0.95 13.61,1.74 13.46,2.53 13.12,3.26 12.79,3.99 10.55,5.93 8.32,7.86 7.93,8.43 7.54,8.99 6.62,9.58 5.71,10.18 4.65,10.45 3.59,10.72 2.50,10.64 1.41,10.56 0.41,10.13 -0.59,9.71 -1.41,8.99 -2.23,8.26 -2.77,7.32 -3.32,6.37 -3.53,5.30 -3.74,4.23 -3.60,3.14 -3.46,2.06 -2.99,1.08 -2.51,0.10 -1.74,-0.67 -0.97,-1.45 -0.00,-1.94 0.97,-2.43 2.05,-2.59 3.13,-2.75 4.20,-2.55 5.28,-2.35 6.23,-1.82 7.19,-1.29 7.92,-0.48 8.66,0.32 9.10,1.32 9.54,2.32 9.63,3.41 9.73,4.50 9.47,5.56 9.22,6.62 8.63,7.54 8.05,8.47 7.21,9.16 6.36,9.85 5.34,10.23 4.31,10.62 3.22,10.65 2.13,10.69 1.08,10.38 0.04,10.06 -0.84,9.43 -1.74,8.80 -2.38,7.92 -3.02,7.04 -3.35,6.00 -3.68,4.95 -3.66,3.86 -3.63,2.77 -3.26,1.74 -2.90,0.71 -2.22,-0.13 -1.54,-0.99 -1.54,-0.99 -1.54,-0.99 -0.05,-1.98 1.43,-2.97 1.93,-3.60 2.43,-4.23 3.06,-4.72 3.70,-5.21 4.43,-5.54 5.17,-5.86 5.96,-6.00 6.75,-6.14 7.55,-6.09 8.35,-6.03 9.12,-5.79 9.88,-5.54 10.57,-5.12 11.25,-4.70 11.82,-4.13 12.38,-3.56 12.79,-2.87 13.20,-2.18 13.44,-1.41 13.67,-0.64 13.71,0.15 13.76,0.95 13.61,1.74 13.46,2.53 13.12,3.26 12.79,3.99 12.96,3.63 13.14,3.28 11.69,6.21 10.24,9.14 8.92,11.87 7.59,14.60 5.07,16.45 2.55,18.30 -0.61,18.45 -3.78,18.60 -5.76,17.52 -7.75,16.44 -9.26,13.50 -10.77,10.55 -10.51,8.17 -10.26,5.79 -8.46,3.14 -6.66,0.50 -5.46,-1.17 -4.27,-2.84 -3.87,-3.31 -3.46,-3.78 -2.96,-4.14 -2.46,-4.50 -1.88,-4.73 -1.30,-4.96 -0.69,-5.05 -0.08,-5.13 0.53,-5.07 1.14,-5.00 1.73,-4.79 2.31,-4.58 2.82,-4.24 3.34,-3.89 3.76,-3.44 4.17,-2.98 4.47,-2.44 4.77,-1.89 4.93,-1.29 5.08,-0.70 5.09,-0.08 5.10,0.53 4.96,1.14 4.83,1.74 4.55,2.29 4.27,2.84 4.27,2.84 L 4.27,2.84 Z"></path></g><g stroke-linecap="round"><g transform="translate(37.20246131745171 331) rotate(0 425.80697147765665 -4.407405867604538)"><path d="M-1.05 -1.01 C140.69 -2.57, 708.24 -6.89, 850.31 -8.19 M0.6 1.08 C142.75 -0.31, 710.96 -8.48, 852.66 -9.89" stroke="#1e1e1e" stroke-width="2" fill="none"></path></g><g transform="translate(37.20246131745171 331) rotate(0 425.80697147765665 -4.407405867604538)"><path d="M829.28 -1.05 C834.24 -4.53, 843.99 -5.27, 852.66 -9.89 M829.28 -1.05 C836.25 -3.33, 843.89 -5.66, 852.66 -9.89" stroke="#1e1e1e" stroke-width="2" fill="none"></path></g><g transform="translate(37.20246131745171 331) rotate(0 425.80697147765665 -4.407405867604538)"><path d="M829.07 -18.15 C834.26 -16.71, 844.07 -12.53, 852.66 -9.89 M829.07 -18.15 C836.05 -15.02, 843.76 -11.94, 852.66 -9.89" stroke="#1e1e1e" stroke-width="2" fill="none"></path></g></g><mask></mask><g transform="translate(274.2024613174517 323) rotate(0 -0.5 5)" stroke="none"><path fill="#e03131" d="M 4.86,0.81 Q 4.86,0.81 4.67,2.55 4.48,4.29 4.51,7.21 4.54,10.13 4.37,11.01 4.20,11.90 3.76,12.68 3.32,13.46 2.66,14.06 1.99,14.66 1.17,15.01 0.34,15.37 -0.54,15.45 -1.43,15.52 -2.30,15.30 -3.17,15.09 -3.93,14.61 -4.69,14.13 -5.25,13.43 -5.81,12.73 -6.12,11.89 -6.44,11.05 -6.46,10.15 -6.49,9.26 -6.23,8.40 -5.96,7.54 -5.44,6.81 -4.92,6.08 -4.19,5.56 -3.47,5.03 -2.61,4.77 -1.75,4.51 -0.86,4.53 0.03,4.55 0.87,4.86 1.71,5.17 2.41,5.73 3.11,6.29 3.60,7.04 4.08,7.80 4.30,8.67 4.52,9.53 4.45,10.43 4.38,11.32 4.02,12.15 3.67,12.97 3.07,13.64 2.47,14.31 1.70,14.75 0.92,15.19 0.04,15.36 -0.83,15.53 -1.72,15.42 -2.61,15.30 -3.42,14.90 -4.22,14.50 -4.86,13.87 -5.49,13.24 -5.89,12.43 -6.29,11.63 -6.41,10.74 -6.54,9.85 -6.54,9.86 -6.54,9.86 -6.08,6.23 -5.63,2.60 -5.24,0.89 -4.86,-0.81 -4.69,-1.38 -4.52,-1.95 -4.23,-2.46 -3.93,-2.97 -3.51,-3.40 -3.10,-3.83 -2.60,-4.14 -2.09,-4.46 -1.53,-4.65 -0.96,-4.83 -0.37,-4.88 0.21,-4.92 0.80,-4.82 1.39,-4.73 1.93,-4.49 2.48,-4.26 2.95,-3.90 3.43,-3.54 3.80,-3.08 4.17,-2.61 4.43,-2.08 4.68,-1.54 4.80,-0.95 4.91,-0.37 4.89,0.21 4.86,0.81 4.86,0.81 L 4.86,0.81 Z"></path></g><g transform="translate(243.2024613174517 382) rotate(0 11.5 2.5)" stroke="none"><path fill="#e03131" d="M 1.18,-4.75 Q 1.18,-4.75 4.61,-3.77 8.03,-2.79 10.88,-1.82 13.73,-0.85 16.47,-0.61 19.21,-0.37 21.26,-0.34 23.30,-0.30 24.14,-0.11 24.98,0.06 25.72,0.51 26.45,0.96 27.01,1.61 27.56,2.27 27.88,3.07 28.19,3.87 28.23,4.73 28.28,5.59 28.04,6.42 27.81,7.25 27.33,7.96 26.84,8.67 26.15,9.18 25.47,9.70 24.65,9.97 23.83,10.24 22.97,10.24 22.11,10.24 21.30,9.96 20.49,9.68 19.80,9.16 19.12,8.64 18.64,7.92 18.16,7.21 17.94,6.38 17.71,5.55 17.76,4.69 17.81,3.83 18.13,3.03 18.45,2.24 19.01,1.58 19.57,0.93 20.31,0.49 21.05,0.05 21.89,-0.12 22.73,-0.30 23.58,-0.21 24.44,-0.11 25.22,0.24 26.00,0.61 26.62,1.20 27.24,1.80 27.64,2.56 28.04,3.32 28.17,4.17 28.31,5.02 28.17,5.86 28.03,6.71 27.62,7.47 27.21,8.23 26.59,8.82 25.96,9.41 25.18,9.76 24.40,10.12 23.54,10.21 22.69,10.30 22.69,10.30 22.69,10.30 20.40,10.09 18.11,9.87 14.32,8.97 10.53,8.06 8.14,7.15 5.76,6.24 2.28,5.49 -1.18,4.75 -1.73,4.54 -2.29,4.32 -2.77,3.99 -3.26,3.65 -3.65,3.21 -4.04,2.76 -4.31,2.24 -4.58,1.72 -4.72,1.14 -4.86,0.57 -4.86,-0.01 -4.86,-0.60 -4.71,-1.17 -4.57,-1.75 -4.29,-2.27 -4.02,-2.79 -3.62,-3.23 -3.23,-3.67 -2.74,-4.01 -2.26,-4.34 -1.70,-4.55 -1.15,-4.76 -0.56,-4.82 0.01,-4.89 0.60,-4.82 1.18,-4.75 1.18,-4.75 L 1.18,-4.75 Z"></path></g><g transform="translate(283.2024613174517 368) rotate(0 4 23)" stroke="none"><path fill="#e03131" d="M 4.41,-1.40 Q 4.41,-1.40 6.17,5.00 7.93,11.40 8.92,16.29 9.91,21.17 10.46,24.78 11.01,28.39 11.37,31.10 11.73,33.82 12.13,36.58 12.53,39.34 12.76,42.67 13.00,45.99 12.87,46.79 12.73,47.59 12.36,48.30 11.98,49.02 11.39,49.57 10.81,50.13 10.07,50.47 9.34,50.81 8.53,50.90 7.73,50.99 6.94,50.81 6.15,50.64 5.46,50.23 4.76,49.81 4.24,49.19 3.71,48.58 3.41,47.83 3.11,47.07 3.07,46.27 3.02,45.46 3.24,44.68 3.46,43.90 3.91,43.23 4.36,42.56 5.01,42.07 5.65,41.58 6.42,41.32 7.18,41.06 7.99,41.06 8.80,41.06 9.57,41.32 10.33,41.58 10.98,42.06 11.62,42.55 12.08,43.22 12.53,43.89 12.75,44.67 12.97,45.45 12.92,46.26 12.88,47.07 12.58,47.82 12.28,48.57 11.76,49.19 11.23,49.80 10.54,50.22 9.85,50.64 9.06,50.81 8.27,50.99 7.47,50.90 6.66,50.81 5.93,50.47 5.19,50.14 4.60,49.58 4.02,49.02 3.64,48.31 3.26,47.59 3.13,46.80 2.99,46.00 2.99,46.00 2.99,46.00 3.17,42.84 3.35,39.68 3.50,37.07 3.65,34.46 3.60,31.95 3.54,29.44 3.12,26.18 2.70,22.92 1.40,18.40 0.11,13.89 -2.14,7.64 -4.41,1.40 -4.51,0.85 -4.61,0.30 -4.58,-0.25 -4.55,-0.80 -4.39,-1.34 -4.23,-1.87 -3.94,-2.35 -3.66,-2.83 -3.26,-3.22 -2.87,-3.62 -2.40,-3.91 -1.92,-4.20 -1.39,-4.37 -0.86,-4.54 -0.30,-4.58 0.25,-4.62 0.80,-4.52 1.35,-4.42 1.86,-4.20 2.37,-3.97 2.81,-3.63 3.25,-3.29 3.60,-2.85 3.94,-2.41 4.17,-1.91 4.41,-1.40 4.41,-1.40 L 4.41,-1.40 Z"></path></g><g transform="translate(509.2024613174517 322) rotate(0 0 3.5)" stroke="none"><path fill="#e03131" d="M 4.76,0 Q 4.76,0 4.87,1.72 4.98,3.44 5.06,5.22 5.13,7 5.00,7.82 4.86,8.64 4.48,9.37 4.09,10.10 3.48,10.68 2.88,11.25 2.12,11.60 1.37,11.95 0.54,12.04 -0.27,12.13 -1.09,11.95 -1.90,11.77 -2.61,11.34 -3.32,10.91 -3.86,10.28 -4.40,9.64 -4.71,8.87 -5.01,8.10 -5.06,7.27 -5.10,6.44 -4.88,5.64 -4.66,4.84 -4.19,4.15 -3.73,3.46 -3.06,2.96 -2.40,2.45 -1.61,2.19 -0.83,1.92 0.00,1.92 0.83,1.92 1.61,2.19 2.40,2.46 3.06,2.96 3.73,3.46 4.19,4.15 4.66,4.84 4.88,5.64 5.10,6.44 5.06,7.27 5.01,8.10 4.71,8.87 4.40,9.65 3.86,10.28 3.32,10.91 2.61,11.34 1.90,11.77 1.08,11.95 0.27,12.13 -0.54,12.04 -1.37,11.95 -2.13,11.60 -2.88,11.25 -3.48,10.68 -4.09,10.10 -4.48,9.37 -4.87,8.63 -5.00,7.81 -5.13,6.99 -5.13,6.99 -5.13,7 -5.06,5.22 -4.98,3.44 -4.87,1.72 -4.76,0 -4.69,-0.57 -4.62,-1.14 -4.42,-1.67 -4.22,-2.21 -3.89,-2.68 -3.56,-3.16 -3.13,-3.54 -2.70,-3.92 -2.19,-4.19 -1.69,-4.45 -1.13,-4.59 -0.57,-4.73 0.00,-4.73 0.57,-4.73 1.13,-4.59 1.69,-4.45 2.19,-4.19 2.70,-3.92 3.13,-3.54 3.56,-3.16 3.89,-2.68 4.22,-2.21 4.42,-1.67 4.62,-1.14 4.69,-0.57 4.76,0.00 4.76,0.00 L 4.76,0 Z"></path></g><g transform="translate(512.2024613174517 361) rotate(0 0 15.5)" stroke="none"><path fill="#e03131" d="M 5.10,0 Q 5.10,0 4.98,3.44 4.86,6.89 4.93,9.22 5.00,11.55 5.07,13.69 5.14,15.83 5.29,19.05 5.44,22.28 5.64,24.75 5.84,27.22 5.87,29.11 5.90,31 5.75,31.94 5.60,32.88 5.15,33.73 4.70,34.57 4.01,35.23 3.31,35.89 2.44,36.29 1.58,36.69 0.63,36.79 -0.32,36.90 -1.25,36.69 -2.18,36.48 -3.00,35.99 -3.82,35.50 -4.44,34.77 -5.06,34.04 -5.41,33.15 -5.77,32.26 -5.82,31.31 -5.87,30.36 -5.61,29.43 -5.36,28.51 -4.82,27.72 -4.28,26.93 -3.52,26.35 -2.76,25.77 -1.86,25.47 -0.95,25.16 0.00,25.16 0.95,25.16 1.86,25.47 2.76,25.77 3.53,26.35 4.29,26.93 4.82,27.72 5.36,28.51 5.61,29.44 5.87,30.36 5.82,31.31 5.77,32.27 5.41,33.15 5.06,34.04 4.44,34.77 3.82,35.50 3.00,35.99 2.18,36.49 1.25,36.69 0.31,36.90 -0.63,36.79 -1.58,36.69 -2.45,36.29 -3.31,35.89 -4.01,35.23 -4.70,34.57 -5.15,33.73 -5.60,32.88 -5.75,31.94 -5.90,30.99 -5.90,30.99 -5.90,31 -5.87,29.11 -5.84,27.22 -5.64,24.75 -5.44,22.28 -5.29,19.05 -5.14,15.83 -5.07,13.69 -5.00,11.55 -4.93,9.22 -4.86,6.89 -4.98,3.44 -5.10,0 -5.02,-0.61 -4.95,-1.22 -4.73,-1.79 -4.51,-2.37 -4.16,-2.87 -3.81,-3.38 -3.35,-3.79 -2.89,-4.19 -2.35,-4.48 -1.80,-4.77 -1.21,-4.91 -0.61,-5.06 0.00,-5.06 0.61,-5.06 1.21,-4.91 1.80,-4.77 2.35,-4.48 2.89,-4.19 3.35,-3.79 3.81,-3.38 4.16,-2.87 4.51,-2.37 4.73,-1.79 4.95,-1.22 5.02,-0.61 5.10,0.00 5.10,0.00 L 5.10,0 Z"></path></g><g transform="translate(677.2024613174517 322) rotate(0 -1.5 6.5)" stroke="none"><path fill="#e03131" d="M 4.70,1.17 Q 4.70,1.17 4.19,3.49 3.68,5.80 3.22,7.95 2.75,10.09 2.47,12.04 2.19,13.98 1.89,14.78 1.60,15.59 1.07,16.25 0.53,16.92 -0.18,17.38 -0.90,17.85 -1.73,18.05 -2.56,18.26 -3.41,18.19 -4.26,18.13 -5.05,17.79 -5.83,17.45 -6.47,16.88 -7.11,16.31 -7.53,15.57 -7.95,14.83 -8.11,13.99 -8.28,13.15 -8.16,12.30 -8.05,11.45 -7.67,10.69 -7.29,9.92 -6.69,9.31 -6.09,8.71 -5.32,8.33 -4.56,7.95 -3.71,7.83 -2.86,7.71 -2.02,7.87 -1.18,8.03 -0.44,8.45 0.30,8.87 0.87,9.51 1.44,10.14 1.78,10.93 2.12,11.71 2.19,12.56 2.26,13.41 2.06,14.24 1.85,15.07 1.39,15.80 0.94,16.52 0.27,17.05 -0.39,17.59 -1.19,17.89 -1.99,18.18 -2.84,18.21 -3.70,18.23 -4.52,17.98 -5.33,17.73 -6.03,17.24 -6.72,16.74 -7.22,16.05 -7.72,15.35 -7.98,14.53 -8.23,13.72 -8.21,12.86 -8.19,12.01 -8.19,12.01 -8.19,12.01 -7.68,9.81 -7.18,7.61 -6.58,5.50 -5.98,3.39 -5.34,1.10 -4.70,-1.17 -4.50,-1.72 -4.29,-2.27 -3.95,-2.75 -3.62,-3.23 -3.18,-3.61 -2.74,-4.00 -2.22,-4.27 -1.70,-4.54 -1.13,-4.68 -0.56,-4.82 0.01,-4.81 0.60,-4.81 1.16,-4.67 1.73,-4.53 2.25,-4.25 2.77,-3.98 3.20,-3.59 3.64,-3.20 3.97,-2.72 4.30,-2.24 4.51,-1.69 4.71,-1.14 4.78,-0.56 4.85,0.01 4.78,0.59 4.70,1.17 4.70,1.17 L 4.70,1.17 Z"></path></g><g transform="translate(670.2024613174517 373) rotate(0 -0.5 24)" stroke="none"><path fill="#e03131" d="M -1.42,-4.99 Q -1.42,-4.99 0.56,-5.62 2.56,-6.26 5.60,-7.30 8.65,-8.34 11.29,-8.67 13.93,-8.99 17.14,-7.67 20.36,-6.35 22.18,-3.38 23.99,-0.41 24.44,2.05 24.88,4.52 24.98,7.00 25.08,9.48 24.78,12.30 24.49,15.13 24.02,17.75 23.55,20.37 22.65,22.88 21.75,25.39 20.79,27.50 19.83,29.61 17.47,33.10 15.11,36.59 13.46,37.95 11.81,39.31 9.41,40.46 7.01,41.62 2.95,43.25 -1.11,44.88 -3.70,45.66 -6.29,46.45 -8.50,47.45 -10.70,48.46 -13.21,49.37 -15.71,50.28 -17.33,47.98 -18.96,45.69 -16.64,45.17 -14.33,44.65 -11.66,44.83 -8.99,45.02 -6.68,45.08 -4.37,45.13 -1.96,45.17 0.43,45.20 2.61,45.20 4.78,45.20 8.03,45.13 11.27,45.06 13.69,44.93 16.10,44.80 19.60,44.19 23.09,43.58 24.14,43.60 25.18,43.63 26.17,43.98 27.16,44.34 27.98,44.99 28.80,45.64 29.37,46.52 29.93,47.41 30.19,48.42 30.45,49.44 30.37,50.48 30.29,51.53 29.88,52.49 29.47,53.46 28.78,54.24 28.08,55.03 27.17,55.55 26.26,56.07 25.23,56.27 24.20,56.47 23.16,56.33 22.12,56.20 21.18,55.74 20.24,55.28 19.50,54.54 18.75,53.80 18.28,52.86 17.81,51.93 17.66,50.89 17.52,49.85 17.71,48.82 17.90,47.79 18.41,46.87 18.93,45.96 19.70,45.26 20.48,44.55 21.44,44.13 22.40,43.71 23.45,43.62 24.49,43.53 25.51,43.78 26.53,44.03 27.41,44.59 28.30,45.15 28.96,45.97 29.62,46.78 29.99,47.76 30.35,48.74 30.39,49.79 30.42,50.84 30.12,51.84 29.81,52.85 29.21,53.70 28.60,54.56 27.75,55.17 26.90,55.79 25.90,56.10 24.90,56.41 24.90,56.41 24.90,56.41 24.16,56.38 23.43,56.35 19.76,56.77 16.10,57.19 13.68,57.06 11.26,56.93 8.00,56.85 4.74,56.77 2.54,56.75 0.34,56.73 -2.12,56.73 -4.60,56.72 -7.01,56.68 -9.43,56.65 -12.46,56.62 -15.48,56.58 -18.96,56.20 -22.43,55.81 -24.92,53.96 -27.41,52.11 -28.02,49.66 -28.63,47.20 -26.31,44.30 -23.98,41.40 -19.91,39.65 -15.83,37.91 -12.99,36.46 -10.15,35.01 -6.01,33.53 -1.87,32.06 1.14,30.78 4.16,29.51 6.48,27.05 8.79,24.59 10.19,21.49 11.59,18.40 12.10,14.22 12.60,10.05 11.48,6.45 10.37,2.85 7.92,3.40 5.48,3.96 3.45,4.47 1.42,4.99 0.80,5.09 0.19,5.19 -0.43,5.13 -1.05,5.08 -1.65,4.88 -2.24,4.68 -2.77,4.34 -3.29,4.01 -3.73,3.55 -4.16,3.10 -4.47,2.56 -4.78,2.01 -4.95,1.41 -5.12,0.81 -5.15,0.18 -5.17,-0.43 -5.04,-1.05 -4.92,-1.66 -4.64,-2.22 -4.37,-2.79 -3.98,-3.27 -3.58,-3.75 -3.08,-4.13 -2.58,-4.50 -2.00,-4.75 -1.42,-4.99 -1.42,-4.99 L -1.42,-4.99 Z"></path></g><g transform="translate(776.2024613174517 193) rotate(0 -45 70)" stroke="none"><path fill="#e03131" d="M 2.95,2.62 Q 2.95,2.62 0.65,5.21 -1.63,7.80 -4.80,10.85 -7.97,13.89 -11.37,17.15 -14.76,20.41 -17.91,23.73 -21.05,27.04 -24.14,30.45 -27.23,33.85 -30.01,36.60 -32.80,39.36 -34.62,41.65 -36.44,43.93 -38.39,46.18 -40.33,48.43 -41.86,50.48 -43.40,52.53 -45.27,54.70 -47.14,56.87 -48.58,59.01 -50.01,61.15 -51.11,63.17 -52.21,65.20 -53.20,67.22 -54.19,69.23 -55.66,71.33 -57.12,73.42 -58.61,76.44 -60.11,79.46 -61.42,81.43 -62.73,83.40 -64.27,86.60 -65.81,89.81 -66.37,92.08 -66.93,94.35 -68.03,97.12 -69.13,99.89 -70.02,101.99 -70.91,104.09 -72.35,107.11 -73.78,110.13 -75.10,112.37 -76.43,114.61 -77.75,116.38 -79.07,118.15 -80.09,120.32 -81.10,122.49 -81.94,119.74 -82.78,116.98 -80.20,117.92 -77.62,118.85 -76.05,122.28 -74.48,125.70 -74.73,127.98 -74.97,130.25 -76.34,132.71 -77.70,135.17 -78.78,137.92 -79.86,140.68 -82.99,143.35 -86.13,146.02 -87.19,146.48 -88.25,146.94 -89.41,147.03 -90.56,147.13 -91.69,146.85 -92.81,146.57 -93.79,145.95 -94.76,145.33 -95.49,144.43 -96.22,143.53 -96.62,142.44 -97.02,141.36 -97.05,140.20 -97.09,139.04 -96.75,137.94 -96.41,136.83 -95.74,135.89 -95.06,134.95 -94.13,134.27 -93.19,133.59 -92.08,133.25 -90.97,132.91 -89.82,132.94 -88.66,132.97 -87.57,133.36 -86.49,133.76 -85.58,134.48 -84.68,135.21 -84.05,136.18 -83.43,137.16 -83.15,138.28 -82.86,139.40 -82.96,140.55 -83.05,141.71 -83.50,142.77 -83.96,143.84 -84.73,144.70 -85.50,145.56 -86.51,146.14 -87.52,146.71 -88.65,146.93 -89.79,147.15 -90.94,146.99 -92.08,146.84 -93.12,146.33 -94.16,145.81 -94.98,145.00 -95.80,144.18 -96.32,143.14 -96.83,142.11 -96.99,140.96 -97.15,139.81 -96.93,138.68 -96.72,137.54 -96.15,136.53 -95.58,135.52 -94.72,134.75 -93.86,133.97 -93.86,133.97 -93.86,133.97 -92.20,132.59 -90.53,131.20 -88.72,129.72 -86.90,128.23 -89.02,126.48 -91.13,124.73 -91.11,119.36 -91.08,113.98 -89.40,111.06 -87.72,108.15 -85.89,105.41 -84.07,102.67 -82.60,99.87 -81.13,97.07 -80.05,95.20 -78.97,93.34 -78.18,90.98 -77.39,88.63 -75.73,85.03 -74.06,81.43 -72.80,79.34 -71.53,77.25 -69.38,74.24 -67.23,71.22 -64.86,67.95 -62.49,64.69 -61.24,62.60 -60.00,60.51 -58.53,58.28 -57.06,56.05 -55.18,53.60 -53.29,51.15 -51.40,49.28 -49.52,47.40 -47.62,45.36 -45.71,43.31 -43.64,41.33 -41.56,39.36 -39.34,37.11 -37.11,34.87 -34.42,32.38 -31.74,29.88 -28.73,26.34 -25.71,22.81 -22.62,19.26 -19.52,15.72 -16.35,12.31 -13.18,8.90 -10.37,5.72 -7.56,2.54 -5.25,-0.04 -2.95,-2.62 -2.59,-2.94 -2.24,-3.25 -1.81,-3.47 -1.39,-3.70 -0.93,-3.81 -0.47,-3.92 0.00,-3.92 0.48,-3.92 0.94,-3.81 1.40,-3.69 1.83,-3.47 2.25,-3.25 2.60,-2.93 2.96,-2.61 3.23,-2.22 3.50,-1.83 3.67,-1.38 3.84,-0.93 3.89,-0.46 3.95,0.00 3.89,0.48 3.83,0.95 3.66,1.39 3.49,1.84 3.22,2.23 2.95,2.62 2.95,2.62 L 2.95,2.62 Z"></path></g><g transform="translate(775.2024613174517 199) rotate(0 -330.5 118.5)" stroke="none"><path fill="#e03131" d="M 2.14,3.33 Q 2.14,3.33 -1.97,5.77 -6.09,8.20 -9.09,10.76 -12.10,13.32 -15.19,16.14 -18.28,18.96 -20.61,21.61 -22.94,24.26 -25.45,26.71 -27.97,29.17 -30.39,31.59 -32.81,34.02 -34.88,36.43 -36.95,38.85 -38.60,41.06 -40.26,43.27 -42.86,46.00 -45.46,48.73 -46.85,50.88 -48.24,53.03 -49.92,54.93 -51.60,56.83 -53.98,59.95 -56.37,63.06 -58.33,65.62 -60.28,68.18 -61.88,69.75 -63.47,71.31 -65.27,73.33 -67.08,75.35 -69.47,78.26 -71.86,81.17 -73.68,83.77 -75.51,86.38 -77.19,88.04 -78.88,89.70 -80.12,91.95 -81.36,94.20 -82.46,97.53 -83.57,100.86 -84.38,103.50 -85.18,106.13 -86.09,108.62 -86.99,111.10 -88.01,113.05 -89.04,115.01 -90.19,116.91 -91.35,118.80 -92.20,120.77 -93.06,122.73 -94.61,126.00 -96.16,129.27 -96.96,132.49 -97.76,135.70 -98.77,139.04 -99.78,142.38 -100.91,144.64 -102.04,146.90 -102.85,149.59 -103.66,152.27 -104.81,154.20 -105.96,156.12 -106.82,158.80 -107.67,161.48 -108.69,163.38 -109.71,165.29 -111.28,167.25 -112.85,169.20 -115.20,172.60 -117.55,175.99 -116.81,179.32 -116.07,182.65 -116.50,186.06 -116.94,189.47 -118.32,192.25 -119.70,195.04 -120.75,197.00 -121.79,198.96 -123.39,201.10 -124.99,203.25 -126.13,206.63 -127.26,210.01 -128.98,211.96 -130.70,213.91 -133.23,216.55 -135.77,219.20 -138.19,221.05 -140.62,222.89 -142.39,224.45 -144.16,226.01 -146.25,227.66 -148.34,229.31 -151.76,231.90 -155.18,234.48 -157.23,235.61 -159.28,236.74 -163.33,238.33 -167.38,239.92 -169.49,240.68 -171.61,241.43 -173.88,241.94 -176.16,242.44 -180.44,242.73 -184.72,243.01 -188.93,241.86 -193.15,240.70 -196.64,239.23 -200.13,237.75 -202.94,236.60 -205.74,235.45 -208.20,234.38 -210.66,233.31 -212.88,232.30 -215.09,231.28 -217.07,230.23 -219.05,229.18 -221.06,227.68 -223.07,226.17 -224.84,224.00 -226.61,221.83 -229.04,219.30 -231.47,216.76 -233.35,213.76 -235.22,210.77 -236.60,208.93 -237.98,207.10 -239.04,204.82 -240.10,202.55 -241.12,200.60 -242.14,198.65 -242.82,196.11 -243.50,193.56 -244.41,190.83 -245.31,188.10 -246.04,184.97 -246.77,181.85 -247.53,179.14 -248.28,176.42 -248.90,173.38 -249.53,170.34 -250.95,167.99 -252.38,165.65 -253.90,162.82 -255.41,160.00 -255.66,157.83 -255.90,155.66 -257.23,153.32 -258.55,150.98 -259.34,148.34 -260.12,145.71 -261.10,143.73 -262.09,141.76 -265.36,142.72 -268.62,143.68 -270.77,146.94 -272.93,150.20 -274.72,152.06 -276.50,153.92 -278.11,157.01 -279.72,160.09 -281.08,162.27 -282.43,164.45 -284.35,168.02 -286.28,171.58 -288.46,175.01 -290.64,178.44 -291.84,180.60 -293.05,182.76 -294.51,184.35 -295.97,185.94 -297.76,188.63 -299.55,191.31 -300.98,193.22 -302.41,195.12 -304.81,197.93 -307.22,200.74 -309.23,202.70 -311.24,204.66 -312.87,206.28 -314.49,207.90 -317.85,211.17 -321.21,214.44 -323.16,216.86 -325.10,219.29 -326.80,220.99 -328.49,222.69 -330.74,224.69 -332.99,226.69 -335.56,228.39 -338.13,230.08 -340.81,231.28 -343.49,232.48 -345.53,233.12 -347.57,233.77 -352.59,234.30 -357.60,234.82 -362.93,234.90 -368.27,234.98 -370.48,234.99 -372.69,235.01 -375.73,235.10 -378.77,235.19 -381.05,234.88 -383.33,234.57 -385.61,234.12 -387.88,233.67 -390.61,232.78 -393.34,231.88 -396.01,230.44 -398.68,229.00 -403.13,226.84 -407.58,224.67 -410.49,223.12 -413.40,221.57 -416.35,219.66 -419.31,217.75 -421.45,216.46 -423.60,215.16 -425.63,213.62 -427.65,212.07 -430.66,209.89 -433.67,207.71 -435.69,206.23 -437.70,204.76 -440.19,201.99 -442.69,199.23 -444.19,196.80 -445.70,194.38 -446.93,192.28 -448.17,190.18 -449.58,187.82 -450.99,185.45 -453.36,182.65 -455.74,179.86 -457.56,178.18 -459.39,176.50 -461.27,175.19 -463.16,173.88 -465.94,171.84 -468.73,169.80 -470.35,168.26 -471.97,166.71 -474.87,165.07 -477.77,163.44 -481.12,160.41 -484.47,157.38 -485.98,155.89 -487.50,154.39 -489.90,152.59 -492.30,150.79 -494.77,149.19 -497.24,147.59 -499.18,145.84 -501.12,144.09 -502.85,142.22 -504.59,140.35 -506.43,139.16 -508.28,137.98 -510.22,136.03 -512.17,134.07 -515.09,131.96 -518.00,129.85 -521.26,127.34 -524.52,124.82 -526.33,123.52 -528.14,122.22 -530.65,120.19 -533.16,118.15 -536.18,116.31 -539.19,114.46 -541.62,112.81 -544.05,111.15 -546.10,109.74 -548.15,108.33 -550.09,106.84 -552.04,105.36 -554.41,103.54 -556.78,101.71 -559.28,100.09 -561.78,98.48 -566.13,95.77 -570.48,93.07 -572.85,91.72 -575.23,90.37 -577.15,89.25 -579.07,88.13 -581.74,86.58 -584.41,85.02 -588.13,82.85 -591.86,80.68 -593.78,79.65 -595.71,78.61 -597.56,77.53 -599.42,76.45 -602.63,74.27 -605.84,72.09 -609.07,70.46 -612.31,68.83 -614.81,67.53 -617.30,66.23 -619.84,64.80 -622.37,63.38 -625.65,61.57 -628.93,59.75 -631.36,58.08 -633.80,56.41 -636.17,54.99 -638.55,53.56 -641.98,51.81 -645.41,50.06 -648.07,48.36 -650.74,46.65 -653.29,45.44 -655.84,44.23 -658.49,42.73 -661.15,41.23 -662.07,40.96 -663.00,40.69 -664.01,40.20 -665.03,39.70 -665.84,38.91 -666.64,38.12 -667.15,37.11 -667.66,36.10 -667.82,34.98 -667.98,33.86 -667.78,32.75 -667.57,31.63 -667.03,30.65 -666.48,29.66 -665.64,28.90 -664.80,28.13 -663.77,27.68 -662.73,27.22 -661.61,27.12 -660.48,27.02 -659.38,27.29 -658.28,27.55 -657.32,28.16 -656.37,28.76 -655.65,29.63 -654.94,30.51 -654.54,31.57 -654.14,32.63 -654.10,33.76 -654.06,34.89 -654.39,35.97 -654.71,37.05 -655.36,37.98 -656.02,38.90 -656.93,39.57 -657.84,40.23 -658.92,40.57 -660.00,40.91 -661.13,40.89 -662.26,40.87 -663.33,40.49 -664.39,40.11 -665.28,39.40 -666.16,38.70 -666.78,37.75 -667.40,36.80 -667.68,35.71 -667.96,34.61 -667.87,33.49 -667.79,32.36 -667.35,31.32 -666.91,30.27 -666.16,29.43 -665.41,28.58 -664.43,28.02 -663.45,27.45 -662.34,27.23 -661.24,27.01 -660.11,27.15 -658.99,27.30 -658.99,27.30 -658.99,27.30 -657.57,27.95 -656.14,28.60 -653.92,29.78 -651.69,30.96 -649.11,32.58 -646.52,34.19 -643.90,35.60 -641.29,37.01 -638.93,38.39 -636.57,39.77 -634.32,41.07 -632.07,42.37 -629.51,44.01 -626.94,45.65 -624.70,47.32 -622.46,49.00 -619.36,50.75 -616.26,52.50 -613.87,54.00 -611.48,55.51 -609.40,56.82 -607.32,58.12 -604.89,59.24 -602.46,60.37 -599.48,62.48 -596.51,64.60 -593.40,66.62 -590.29,68.64 -588.16,69.81 -586.03,70.98 -583.96,72.21 -581.89,73.45 -578.79,75.37 -575.68,77.29 -572.88,79.39 -570.08,81.49 -567.94,82.76 -565.79,84.03 -560.86,86.13 -555.93,88.23 -552.83,89.81 -549.73,91.39 -547.04,93.02 -544.34,94.66 -541.04,96.85 -537.73,99.03 -535.74,100.13 -533.75,101.23 -531.26,103.00 -528.76,104.76 -525.22,106.90 -521.69,109.05 -519.28,110.86 -516.87,112.66 -514.94,114.29 -513.00,115.91 -510.10,118.05 -507.19,120.19 -504.57,122.00 -501.95,123.80 -500.65,125.73 -499.35,127.67 -496.84,128.99 -494.34,130.31 -492.79,131.82 -491.24,133.33 -489.62,135.03 -488.01,136.74 -485.85,138.42 -483.69,140.10 -482.09,141.77 -480.49,143.44 -478.94,145.16 -477.39,146.89 -475.58,148.57 -473.78,150.26 -471.62,151.47 -469.47,152.68 -467.77,153.96 -466.07,155.25 -463.90,156.87 -461.72,158.49 -459.33,160.34 -456.94,162.18 -454.98,163.35 -453.02,164.51 -450.57,166.66 -448.12,168.81 -446.18,171.18 -444.24,173.56 -442.52,175.62 -440.81,177.68 -439.13,180.71 -437.46,183.74 -436.03,186.51 -434.60,189.27 -433.39,191.85 -432.17,194.43 -430.37,195.93 -428.56,197.44 -426.53,199.46 -424.50,201.49 -421.37,204.11 -418.24,206.72 -416.23,208.06 -414.22,209.40 -411.45,210.98 -408.68,212.56 -406.24,213.81 -403.80,215.05 -398.37,216.77 -392.93,218.48 -389.27,220.00 -385.61,221.53 -382.20,222.16 -378.78,222.79 -375.82,222.84 -372.85,222.89 -370.69,222.85 -368.53,222.81 -363.84,222.43 -359.15,222.05 -354.17,221.02 -349.18,220.00 -346.25,218.68 -343.32,217.36 -341.07,215.71 -338.81,214.05 -336.83,212.17 -334.85,210.29 -332.71,207.76 -330.57,205.24 -327.98,202.31 -325.39,199.38 -323.56,197.57 -321.74,195.76 -320.24,194.07 -318.74,192.38 -317.20,190.90 -315.66,189.42 -313.80,187.06 -311.93,184.70 -310.07,182.31 -308.21,179.92 -306.11,176.82 -304.01,173.71 -302.33,170.86 -300.66,168.01 -299.00,164.73 -297.33,161.46 -295.89,158.90 -294.44,156.35 -293.03,154.02 -291.63,151.69 -289.82,148.73 -288.02,145.77 -285.76,142.93 -283.51,140.09 -281.98,138.42 -280.45,136.75 -278.88,134.77 -277.32,132.80 -273.86,130.70 -270.40,128.61 -266.53,128.13 -262.67,127.66 -260.18,128.02 -257.69,128.37 -254.65,130.73 -251.60,133.08 -250.69,135.07 -249.78,137.06 -248.38,138.95 -246.98,140.85 -245.94,143.41 -244.89,145.97 -244.09,148.24 -243.30,150.52 -242.24,153.86 -241.18,157.20 -240.12,159.30 -239.06,161.39 -238.28,163.77 -237.51,166.16 -236.37,169.65 -235.24,173.14 -234.77,175.26 -234.30,177.37 -233.81,179.93 -233.32,182.48 -232.76,184.60 -232.20,186.71 -231.48,190.27 -230.76,193.84 -230.10,196.65 -229.43,199.46 -227.67,202.10 -225.90,204.74 -223.30,208.17 -220.70,211.60 -218.42,214.62 -216.14,217.63 -213.35,219.67 -210.55,221.71 -208.48,222.73 -206.41,223.75 -204.19,224.76 -201.97,225.77 -199.17,226.81 -196.37,227.84 -193.44,228.80 -190.52,229.76 -185.83,230.21 -181.14,230.66 -178.47,230.38 -175.80,230.11 -171.89,228.72 -167.97,227.34 -164.82,225.79 -161.66,224.25 -158.80,222.13 -155.94,220.01 -154.18,218.51 -152.41,217.02 -150.51,215.21 -148.62,213.40 -145.57,210.68 -142.52,207.96 -140.63,205.98 -138.74,204.01 -137.91,201.81 -137.08,199.60 -135.13,196.36 -133.19,193.12 -132.20,191.08 -131.21,189.04 -130.22,186.61 -129.24,184.19 -130.37,181.04 -131.50,177.89 -131.02,174.86 -130.55,171.84 -128.39,168.33 -126.23,164.82 -124.92,162.64 -123.62,160.46 -122.28,158.56 -120.93,156.67 -120.10,154.51 -119.26,152.36 -118.14,150.04 -117.01,147.72 -116.24,145.34 -115.47,142.96 -114.06,139.97 -112.65,136.97 -111.91,134.48 -111.16,131.99 -110.18,128.73 -109.20,125.47 -108.12,123.32 -107.04,121.17 -106.38,119.07 -105.71,116.96 -104.58,114.87 -103.45,112.79 -102.03,110.70 -100.60,108.60 -99.46,106.05 -98.32,103.50 -97.00,100.08 -95.68,96.66 -94.54,93.96 -93.40,91.26 -91.72,87.99 -90.04,84.73 -88.65,82.74 -87.27,80.76 -85.25,78.51 -83.23,76.26 -80.98,73.66 -78.73,71.07 -76.44,68.76 -74.15,66.44 -72.39,64.84 -70.63,63.24 -68.28,60.97 -65.93,58.69 -63.35,56.25 -60.77,53.81 -57.85,51.01 -54.92,48.22 -53.05,45.81 -51.17,43.40 -48.79,40.81 -46.41,38.23 -44.46,36.04 -42.51,33.86 -40.16,31.35 -37.81,28.85 -35.25,26.45 -32.69,24.05 -30.25,21.93 -27.80,19.81 -25.23,17.10 -22.65,14.38 -19.62,11.35 -16.58,8.32 -13.29,5.23 -10.00,2.14 -6.07,-0.59 -2.14,-3.33 -1.71,-3.54 -1.28,-3.75 -0.81,-3.85 -0.34,-3.95 0.12,-3.93 0.60,-3.92 1.06,-3.79 1.52,-3.66 1.94,-3.42 2.36,-3.19 2.70,-2.86 3.05,-2.53 3.31,-2.13 3.57,-1.72 3.72,-1.27 3.88,-0.82 3.92,-0.34 3.96,0.13 3.89,0.60 3.82,1.07 3.63,1.51 3.45,1.95 3.16,2.34 2.88,2.72 2.51,3.03 2.14,3.33 2.14,3.33 L 2.14,3.33 Z"></path></g><g transform="translate(110.20246131745171 247) rotate(0 0.5 28)" stroke="none"><path fill="#2f9e44" d="M 4.64,0 Q 4.64,0 4.38,6.03 4.11,12.07 3.91,16.65 3.71,21.23 3.70,24.90 3.70,28.57 3.76,31.85 3.82,35.14 3.96,37.68 4.10,40.23 4.37,44.15 4.65,48.06 5.32,51.85 5.99,55.63 5.92,56.44 5.85,57.25 5.52,57.99 5.19,58.73 4.65,59.33 4.10,59.93 3.39,60.32 2.68,60.71 1.88,60.86 1.09,61.01 0.28,60.89 -0.51,60.77 -1.23,60.40 -1.96,60.04 -2.52,59.46 -3.09,58.88 -3.44,58.15 -3.80,57.42 -3.90,56.62 -4.00,55.81 -3.84,55.02 -3.68,54.22 -3.28,53.52 -2.87,52.82 -2.26,52.28 -1.66,51.75 -0.91,51.43 -0.16,51.12 0.64,51.06 1.45,51.00 2.23,51.21 3.02,51.41 3.70,51.85 4.38,52.30 4.88,52.93 5.38,53.57 5.65,54.33 5.92,55.10 5.94,55.91 5.95,56.72 5.71,57.49 5.46,58.26 4.98,58.92 4.51,59.57 3.84,60.04 3.18,60.50 2.40,60.74 1.63,60.97 0.82,60.94 0.01,60.91 -0.74,60.62 -1.50,60.33 -2.13,59.82 -2.76,59.31 -3.19,58.62 -3.62,57.93 -3.80,57.14 -3.99,56.36 -3.99,56.36 -3.99,56.36 -4.32,52.22 -4.65,48.08 -4.37,44.16 -4.10,40.23 -3.96,37.68 -3.82,35.14 -3.76,31.85 -3.70,28.57 -3.70,24.90 -3.71,21.23 -3.91,16.65 -4.11,12.07 -4.38,6.03 -4.64,0 -4.57,-0.55 -4.50,-1.11 -4.31,-1.63 -4.11,-2.15 -3.79,-2.61 -3.47,-3.07 -3.05,-3.45 -2.63,-3.82 -2.14,-4.08 -1.64,-4.34 -1.10,-4.47 -0.55,-4.61 0.00,-4.61 0.56,-4.61 1.10,-4.47 1.64,-4.34 2.14,-4.08 2.63,-3.82 3.05,-3.45 3.47,-3.07 3.79,-2.61 4.11,-2.15 4.31,-1.63 4.50,-1.11 4.57,-0.55 4.64,0.00 4.64,0.00 L 4.64,0 Z"></path></g><g transform="translate(133.2024613174517 263) rotate(0 1.5 26)" stroke="none"><path fill="#2f9e44" d="M 4.35,-0.33 Q 4.35,-0.33 4.54,3.41 4.72,7.15 4.86,10.55 4.99,13.94 4.97,17.70 4.95,21.46 4.81,25.64 4.67,29.82 4.65,33.61 4.63,37.39 4.97,40.57 5.31,43.74 5.94,46.72 6.56,49.70 6.84,50.33 7.11,50.96 7.17,51.64 7.22,52.33 7.06,52.99 6.90,53.66 6.53,54.24 6.16,54.82 5.63,55.25 5.09,55.68 4.45,55.92 3.81,56.16 3.12,56.18 2.43,56.20 1.78,56.00 1.12,55.80 0.56,55.40 0.00,55.00 -0.39,54.45 -0.79,53.89 -0.99,53.23 -1.20,52.58 -1.18,51.89 -1.16,51.21 -0.93,50.56 -0.69,49.92 -0.27,49.38 0.15,48.84 0.73,48.47 1.31,48.10 1.97,47.93 2.64,47.77 3.32,47.82 4.01,47.87 4.64,48.14 5.27,48.41 5.78,48.87 6.30,49.33 6.63,49.93 6.97,50.52 7.10,51.20 7.24,51.87 7.15,52.55 7.05,53.23 6.75,53.85 6.45,54.46 5.96,54.95 5.48,55.43 4.86,55.74 4.25,56.05 3.57,56.14 2.89,56.24 2.22,56.11 1.54,55.98 0.94,55.64 0.35,55.31 -0.10,54.80 -0.56,54.29 -0.56,54.29 -0.56,54.29 -1.37,49.34 -2.18,44.40 -2.41,40.91 -2.65,37.41 -2.69,33.64 -2.74,29.86 -2.92,25.71 -3.11,21.57 -3.23,17.91 -3.35,14.25 -3.46,11.02 -3.57,7.79 -3.96,4.06 -4.35,0.33 -4.33,-0.19 -4.30,-0.71 -4.16,-1.22 -4.01,-1.72 -3.74,-2.18 -3.48,-2.63 -3.11,-3.01 -2.75,-3.39 -2.30,-3.67 -1.85,-3.95 -1.35,-4.11 -0.85,-4.28 -0.33,-4.32 0.19,-4.36 0.71,-4.27 1.23,-4.19 1.71,-3.98 2.19,-3.77 2.61,-3.45 3.03,-3.13 3.36,-2.72 3.70,-2.32 3.92,-1.84 4.14,-1.36 4.25,-0.85 4.35,-0.33 4.35,-0.33 L 4.35,-0.33 Z"></path></g><g transform="translate(161.2024613174517 285) rotate(0 4.5 18)" stroke="none"><path fill="#2f9e44" d="M 4.48,-1.24 Q 4.48,-1.24 5.66,4.00 6.84,9.24 7.63,13.29 8.42,17.34 9.15,20.45 9.89,23.57 10.58,25.63 11.28,27.69 12.25,30.81 13.22,33.94 13.43,34.67 13.65,35.40 13.63,36.16 13.60,36.91 13.33,37.63 13.06,38.34 12.58,38.92 12.10,39.51 11.46,39.92 10.82,40.32 10.08,40.50 9.34,40.68 8.58,40.61 7.83,40.54 7.13,40.24 6.44,39.93 5.87,39.42 5.31,38.91 4.94,38.24 4.58,37.58 4.44,36.83 4.30,36.09 4.41,35.33 4.52,34.58 4.86,33.90 5.20,33.23 5.74,32.69 6.29,32.16 6.97,31.83 7.65,31.50 8.40,31.40 9.16,31.30 9.90,31.45 10.65,31.60 11.31,31.98 11.96,32.36 12.47,32.93 12.97,33.50 13.26,34.20 13.56,34.90 13.62,35.65 13.67,36.41 13.48,37.15 13.29,37.88 12.88,38.52 12.47,39.16 11.87,39.63 11.27,40.10 10.56,40.36 9.84,40.61 9.08,40.63 8.32,40.64 7.60,40.41 6.88,40.18 6.26,39.74 5.65,39.29 5.21,38.67 4.77,38.05 4.77,38.05 4.77,38.05 3.90,33.95 3.02,29.85 2.57,27.55 2.12,25.24 1.52,22.15 0.92,19.05 -0.08,15.25 -1.09,11.45 -2.79,6.34 -4.48,1.24 -4.56,0.69 -4.65,0.13 -4.60,-0.42 -4.55,-0.98 -4.36,-1.51 -4.18,-2.04 -3.87,-2.51 -3.57,-2.98 -3.16,-3.36 -2.75,-3.75 -2.26,-4.02 -1.77,-4.30 -1.23,-4.45 -0.69,-4.60 -0.13,-4.61 0.42,-4.63 0.97,-4.51 1.52,-4.39 2.02,-4.15 2.53,-3.90 2.96,-3.54 3.39,-3.18 3.72,-2.73 4.05,-2.28 4.27,-1.76 4.48,-1.24 4.48,-1.24 L 4.48,-1.24 Z"></path></g><g transform="translate(203.2024613174517 295) rotate(0 5 13.5)" stroke="none"><path fill="#2f9e44" d="M 4.75,-0.31 Q 4.75,-0.31 4.76,3.99 4.76,8.31 5.62,10.69 6.48,13.06 8.20,14.42 9.92,15.78 11.25,17.58 12.59,19.39 13.17,21.48 13.75,23.57 13.24,26.00 12.73,28.43 12.38,29.15 12.02,29.87 11.46,30.44 10.89,31.00 10.18,31.36 9.46,31.72 8.67,31.83 7.88,31.94 7.09,31.79 6.30,31.64 5.61,31.25 4.91,30.86 4.37,30.27 3.84,29.67 3.52,28.94 3.20,28.21 3.13,27.41 3.06,26.61 3.25,25.83 3.44,25.06 3.87,24.38 4.30,23.70 4.92,23.20 5.55,22.70 6.30,22.42 7.05,22.14 7.85,22.12 8.65,22.09 9.41,22.32 10.18,22.56 10.83,23.02 11.48,23.49 11.95,24.13 12.42,24.78 12.66,25.55 12.89,26.31 12.88,27.11 12.86,27.91 12.58,28.66 12.31,29.42 11.81,30.04 11.31,30.67 10.64,31.10 9.96,31.53 9.19,31.73 8.41,31.92 7.61,31.86 6.82,31.80 6.08,31.49 5.34,31.17 4.75,30.64 4.15,30.11 3.75,29.41 3.36,28.72 3.20,27.93 3.05,27.14 3.16,26.35 3.26,25.56 3.26,25.56 3.26,25.56 3.50,23.74 3.74,21.91 1.17,19.01 -1.39,16.11 -2.50,12.52 -3.61,8.93 -4.18,4.62 -4.75,0.31 -4.72,-0.25 -4.69,-0.83 -4.52,-1.37 -4.35,-1.92 -4.06,-2.42 -3.76,-2.91 -3.36,-3.32 -2.96,-3.73 -2.47,-4.03 -1.98,-4.33 -1.43,-4.50 -0.88,-4.68 -0.31,-4.72 0.25,-4.75 0.82,-4.65 1.39,-4.55 1.91,-4.32 2.44,-4.09 2.89,-3.74 3.34,-3.39 3.70,-2.94 4.06,-2.49 4.30,-1.96 4.54,-1.44 4.64,-0.88 4.75,-0.31 4.75,-0.31 L 4.75,-0.31 Z"></path></g><g transform="translate(715.2024613174517 274) rotate(0 5 21)" stroke="none"><path fill="#2f9e44" d="M 4.43,-1.38 Q 4.43,-1.38 5.61,3.29 6.80,7.97 7.82,12.65 8.84,17.34 9.71,20.41 10.58,23.48 11.07,26.46 11.57,29.44 12.11,31.60 12.65,33.77 13.16,36.05 13.67,38.32 14.34,40.36 15.00,42.40 14.97,43.22 14.93,44.03 14.64,44.79 14.34,45.55 13.82,46.18 13.30,46.81 12.60,47.23 11.91,47.66 11.11,47.84 10.32,48.03 9.51,47.95 8.69,47.87 7.95,47.53 7.21,47.20 6.61,46.64 6.01,46.09 5.62,45.37 5.23,44.65 5.09,43.85 4.95,43.04 5.08,42.24 5.20,41.43 5.58,40.71 5.95,39.98 6.54,39.42 7.12,38.85 7.86,38.50 8.60,38.15 9.41,38.05 10.22,37.96 11.02,38.12 11.82,38.29 12.52,38.71 13.22,39.12 13.76,39.74 14.29,40.35 14.60,41.11 14.91,41.86 14.96,42.68 15.01,43.49 14.80,44.28 14.59,45.07 14.14,45.75 13.69,46.43 13.04,46.93 12.40,47.43 11.63,47.70 10.86,47.96 10.04,47.97 9.23,47.98 8.45,47.73 7.68,47.47 7.02,46.99 6.37,46.50 5.90,45.83 5.44,45.16 5.21,44.37 4.99,43.59 4.99,43.59 4.99,43.59 4.73,42.45 4.47,41.31 4.27,38.34 4.07,35.37 3.75,32.90 3.43,30.43 3.25,27.92 3.07,25.40 2.36,22.31 1.64,19.22 0.29,14.82 -1.05,10.42 -2.74,5.90 -4.43,1.38 -4.53,0.83 -4.63,0.28 -4.60,-0.27 -4.56,-0.83 -4.40,-1.36 -4.23,-1.90 -3.94,-2.38 -3.65,-2.86 -3.26,-3.25 -2.86,-3.65 -2.38,-3.94 -1.90,-4.23 -1.37,-4.40 -0.84,-4.56 -0.28,-4.60 0.27,-4.63 0.82,-4.53 1.37,-4.43 1.88,-4.20 2.40,-3.97 2.84,-3.63 3.28,-3.28 3.62,-2.84 3.97,-2.40 4.20,-1.89 4.43,-1.38 4.43,-1.38 L 4.43,-1.38 Z"></path></g><g transform="translate(714.2024613174517 256) rotate(0 19.5 32)" stroke="none"><path fill="#2f9e44" d="M 3.66,-2.59 Q 3.66,-2.59 6.91,2.43 10.16,7.46 13.49,12.52 16.83,17.59 19.90,22.05 22.98,26.51 25.21,29.51 27.44,32.52 29.17,34.99 30.89,37.46 31.88,39.66 32.87,41.86 34.57,44.41 36.26,46.96 37.57,49.57 38.87,52.18 40.15,55.54 41.44,58.91 42.86,59.18 44.28,59.46 44.39,60.11 44.49,60.77 44.44,61.43 44.39,62.09 44.18,62.72 43.97,63.35 43.62,63.91 43.26,64.47 42.79,64.93 42.31,65.39 41.73,65.72 41.16,66.06 40.52,66.24 39.89,66.43 39.22,66.45 38.56,66.48 37.91,66.35 37.26,66.22 36.66,65.93 36.06,65.65 35.54,65.23 35.03,64.81 34.63,64.28 34.23,63.75 33.97,63.14 33.71,62.53 35.33,59.21 36.95,55.89 37.82,55.69 38.69,55.50 39.57,55.59 40.46,55.69 41.27,56.06 42.08,56.43 42.72,57.04 43.37,57.66 43.79,58.44 44.21,59.23 44.35,60.11 44.50,60.98 44.36,61.86 44.21,62.74 43.80,63.53 43.38,64.32 42.74,64.93 42.09,65.55 41.28,65.92 40.48,66.30 39.59,66.39 38.71,66.49 37.84,66.30 36.97,66.11 36.20,65.65 35.44,65.20 34.86,64.52 34.28,63.84 33.95,63.01 33.62,62.19 33.57,61.30 33.52,60.41 33.76,59.55 34.00,58.69 34.49,57.95 34.99,57.22 35.70,56.68 36.41,56.14 37.25,55.85 38.10,55.56 38.99,55.56 39.88,55.56 40.72,55.84 41.56,56.13 42.27,56.67 42.98,57.20 43.49,57.94 43.99,58.68 44.23,59.53 44.47,60.39 44.42,61.28 44.37,62.17 44.04,63.00 43.72,63.82 43.14,64.50 42.57,65.18 43.42,62.32 44.28,59.46 44.39,60.11 44.49,60.77 44.44,61.43 44.39,62.09 44.18,62.72 43.97,63.35 43.62,63.91 43.26,64.47 42.79,64.93 42.31,65.39 41.73,65.72 41.16,66.06 40.52,66.24 39.89,66.43 39.22,66.45 38.56,66.48 37.91,66.35 37.26,66.22 36.66,65.93 36.06,65.65 35.55,65.23 35.03,64.81 34.63,64.28 34.23,63.75 33.97,63.14 33.71,62.53 32.01,60.67 30.30,58.80 29.46,56.17 28.61,53.54 27.82,50.89 27.02,48.23 25.81,44.78 24.60,41.33 23.29,38.94 21.97,36.54 19.76,33.50 17.54,30.46 14.21,26.11 10.88,21.76 7.25,16.92 3.63,12.08 -0.01,7.33 -3.66,2.59 -3.92,2.11 -4.18,1.63 -4.31,1.11 -4.45,0.58 -4.45,0.04 -4.46,-0.49 -4.34,-1.02 -4.21,-1.54 -3.96,-2.03 -3.72,-2.51 -3.36,-2.92 -3.01,-3.33 -2.57,-3.64 -2.12,-3.95 -1.62,-4.15 -1.12,-4.34 -0.58,-4.42 -0.04,-4.49 0.49,-4.43 1.02,-4.37 1.53,-4.18 2.04,-3.99 2.49,-3.69 2.94,-3.39 3.30,-2.99 3.66,-2.58 3.66,-2.59 L 3.66,-2.59 Z"></path></g><g transform="translate(761.2024613174517 241) rotate(0 10 30)" stroke="none"><path fill="#2f9e44" d="M 3.93,-1.96 Q 3.93,-1.96 6.02,2.73 8.11,7.44 9.62,11.27 11.12,15.11 12.59,18.70 14.06,22.30 15.50,26.20 16.94,30.09 18.02,33.26 19.10,36.42 19.69,39.41 20.28,42.39 20.84,44.90 21.41,47.42 22.75,50.64 24.08,53.86 24.48,56.69 24.88,59.53 24.82,60.32 24.77,61.11 24.47,61.85 24.16,62.58 23.64,63.18 23.12,63.78 22.43,64.18 21.75,64.57 20.97,64.73 20.19,64.89 19.41,64.80 18.62,64.70 17.90,64.36 17.19,64.02 16.62,63.46 16.05,62.91 15.69,62.20 15.33,61.50 15.21,60.71 15.09,59.93 15.23,59.15 15.37,58.37 15.75,57.67 16.13,56.97 16.72,56.44 17.30,55.90 18.02,55.58 18.75,55.25 19.54,55.18 20.33,55.10 21.10,55.28 21.87,55.47 22.55,55.88 23.22,56.30 23.73,56.91 24.23,57.53 24.51,58.27 24.80,59.01 24.83,59.80 24.86,60.59 24.64,61.35 24.42,62.12 23.96,62.77 23.51,63.42 22.87,63.89 22.23,64.36 21.48,64.60 20.72,64.84 19.93,64.83 19.13,64.82 18.39,64.56 17.64,64.29 17.01,63.81 16.39,63.32 15.95,62.65 15.52,61.99 15.31,61.22 15.11,60.46 15.11,60.46 15.11,60.46 14.92,57.07 14.73,53.69 13.98,51.29 13.24,48.88 12.89,46.19 12.55,43.50 12.35,41.01 12.15,38.52 11.37,35.56 10.59,32.60 9.01,28.86 7.43,25.12 5.85,21.56 4.28,18.00 2.68,14.48 1.08,10.95 -1.42,6.46 -3.93,1.96 -4.11,1.46 -4.29,0.96 -4.34,0.44 -4.39,-0.08 -4.32,-0.61 -4.25,-1.13 -4.05,-1.62 -3.85,-2.12 -3.54,-2.55 -3.23,-2.98 -2.83,-3.32 -2.42,-3.67 -1.95,-3.90 -1.47,-4.14 -0.96,-4.26 -0.44,-4.37 0.08,-4.36 0.61,-4.35 1.12,-4.22 1.64,-4.08 2.10,-3.82 2.57,-3.57 2.96,-3.21 3.35,-2.85 3.64,-2.41 3.93,-1.96 3.93,-1.96 L 3.93,-1.96 Z"></path></g><g transform="translate(772.2024613174517 224) rotate(0 19.5 44)" stroke="none"><path fill="#2f9e44" d="M 3.24,-2.91 Q 3.24,-2.91 5.73,0.04 8.22,3.01 11.08,7.76 13.94,12.50 17.05,17.94 20.17,23.37 22.92,28.62 25.66,33.87 27.25,37.30 28.84,40.73 29.73,42.83 30.62,44.93 32.01,48.10 33.39,51.27 34.45,54.67 35.52,58.06 36.26,61.56 37.00,65.07 37.97,67.23 38.95,69.39 39.53,71.50 40.11,73.62 41.27,75.94 42.44,78.26 43.27,80.84 44.10,83.42 44.70,85.33 45.30,87.24 45.26,88.26 45.22,89.29 44.85,90.25 44.48,91.21 43.82,92.00 43.16,92.79 42.29,93.33 41.41,93.87 40.41,94.10 39.41,94.34 38.39,94.24 37.36,94.14 36.43,93.72 35.49,93.29 34.73,92.60 33.98,91.90 33.49,90.99 33.00,90.09 32.82,89.08 32.64,88.07 32.80,87.05 32.95,86.03 33.42,85.12 33.89,84.21 34.63,83.49 35.37,82.78 36.30,82.33 37.23,81.89 38.25,81.77 39.27,81.65 40.27,81.86 41.28,82.07 42.17,82.59 43.05,83.11 43.73,83.88 44.40,84.66 44.79,85.61 45.18,86.56 45.25,87.59 45.32,88.61 45.06,89.61 44.79,90.60 44.22,91.46 43.66,92.31 42.84,92.94 42.03,93.58 41.06,93.91 40.09,94.25 39.06,94.27 38.04,94.28 37.06,93.96 36.08,93.64 35.26,93.03 34.43,92.42 33.84,91.57 33.26,90.73 32.97,89.74 32.69,88.75 32.69,88.75 32.69,88.75 32.27,86.48 31.85,84.20 30.87,81.65 29.89,79.11 29.39,76.60 28.89,74.10 28.04,72.02 27.19,69.94 26.82,66.67 26.46,63.39 26.14,60.28 25.82,57.17 25.05,53.95 24.29,50.73 23.53,47.07 22.78,43.41 21.41,40.18 20.04,36.94 17.18,31.93 14.32,26.91 11.01,21.72 7.70,16.52 4.91,12.50 2.12,8.48 -0.56,5.70 -3.24,2.91 -3.54,2.48 -3.84,2.05 -4.03,1.56 -4.22,1.07 -4.29,0.55 -4.36,0.03 -4.30,-0.48 -4.24,-1.01 -4.05,-1.50 -3.87,-1.99 -3.58,-2.43 -3.28,-2.86 -2.89,-3.21 -2.50,-3.56 -2.04,-3.81 -1.57,-4.06 -1.06,-4.19 -0.55,-4.32 -0.03,-4.32 0.49,-4.33 1.00,-4.21 1.51,-4.08 1.98,-3.84 2.44,-3.60 2.84,-3.26 3.24,-2.91 3.24,-2.91 L 3.24,-2.91 Z"></path></g></svg>